<?xml version="1.0" standalone="no"?>
<!DOCTYPE svg PUBLIC "-//W3C//DTD SVG 1.1//EN" "http://www.w3.org/Graphics/SVG/1.1/DTD/svg11.dtd" >
<svg xmlns="http://www.w3.org/2000/svg">
<metadata>Generated by IcoMoon</metadata>
<defs>
<font id="icomoon" horiz-adv-x="1024">
<font-face units-per-em="1024" ascent="960" descent="-64" />
<missing-glyph horiz-adv-x="1024" />
<glyph unicode="&#x20;" horiz-adv-x="512" d="" />
<glyph unicode="&#xe900;" horiz-adv-x="801" d="M440.708 398.112c-10.702 1.858-19.997 4.242-28.996 7.27l1.365-0.399c-3.601 1.678-7.818 2.658-12.263 2.658s-8.662-0.979-12.446-2.734l0.183 0.076c-8.399-3.599-18.174-5.692-28.438-5.692-21.761 0-41.324 9.407-54.845 24.377l-0.057 0.065c-7.216 7.139-11.685 17.042-11.685 27.989 0 12.091 5.451 22.908 14.030 30.129l0.060 0.049q30.071 27.308 60.751 53.933c8.466 7.768 19.8 12.528 32.245 12.528 12.314 0 23.54-4.66 32.010-12.314l-0.042 0.037q31.165-26.805 61.469-54.597c8.393-7.22 13.675-17.853 13.675-29.719 0-10.818-4.39-20.611-11.486-27.694l-0.001-0.001c-13.872-15.222-33.472-25.017-55.366-25.956l-0.164-0.006z" />
<glyph unicode="&#xe901;" horiz-adv-x="801" d="M359.018 662.666c0-13.456-7.284-24.383-16.471-24.634-9.509-0.251-17.35 11.124-17.206 24.939 0.144 13.044 8.146 24.527 17.027 24.383s16.632-11.608 16.65-24.688z" />
<glyph unicode="&#xe902;" horiz-adv-x="801" d="M442.215 662.379c0 13.151 7.518 24.58 16.435 24.868 9.186 0.305 17.386-11.662 17.224-25.119s-7.823-24.257-17.027-24.15-16.614 11.034-16.632 24.401z" />
<glyph unicode="&#xe903;" horiz-adv-x="801" d="M258.364 588.997c0.108-13.941-7.661-25.334-17.045-25.119s-17.099 12.649-16.56 25.765 7.948 23.325 16.812 23.325c9.276 0.269 16.686-10.388 16.794-23.97z" />
<glyph unicode="&#xe904;" horiz-adv-x="801" d="M542.905 588.997c0.108 13.582 7.518 24.257 16.794 24.132s16.776-11.285 16.812-24.401-7.661-24.491-16.578-24.778c-9.366-0.305-17.135 11.124-17.027 25.047z" />
<glyph unicode="&#xe905;" horiz-adv-x="801" d="M410.547 955.515c20.264-6.043 37.77-15.967 52.462-28.993l-0.143 0.124c14.386-12.412 33.263-19.972 53.905-19.972 6.104 0 12.054 0.661 17.782 1.916l-0.547-0.101c8.864 1.281 19.099 2.013 29.505 2.013 1.076 0 2.15-0.008 3.222-0.023l-0.162 0.002c0.585 0.020 1.273 0.031 1.963 0.031 24.087 0 44.927-13.903 54.932-34.122l0.16-0.358c7.177-12.99 13.169-26.572 19.18-40.118 6.589-15.447 18.643-27.501 33.675-33.932l0.415-0.158c12.093-5.221 24.042-10.765 35.884-16.74 23.465-10.245 39.568-33.247 39.568-60.010 0-2.543-0.145-5.052-0.428-7.52l0.028 0.301c-0.879-13.833-1.794-27.666-3.247-41.446-0.305-2.273-0.479-4.9-0.479-7.568 0-13.35 4.354-25.683 11.718-35.657l-0.116 0.164c7.912-10.98 15.735-22.015 23.325-33.246 8.498-11.273 13.61-25.514 13.61-40.95 0-15.604-5.224-29.987-14.018-41.497l0.121 0.165c-4.251-7.055-8.573-13.125-13.304-18.844l0.206 0.257c-13.552-14.936-21.847-34.857-21.847-56.716 0-7.016 0.855-13.833 2.466-20.351l-0.121 0.581c1.101-7.326 1.73-15.78 1.73-24.381 0-1.837-0.029-3.667-0.086-5.49l0.007 0.267c0.021-0.589 0.032-1.281 0.032-1.976 0-23.031-12.842-43.063-31.757-53.324l-0.32-0.159c-10.765-6.298-22.427-11.088-33.641-16.668-7.374-3.588-14.946-7.051-21.907-11.393-15.681-9.796-17.583-16.148-11.052-33.139l91.863-239.058c0.7-1.794 1.453-3.678 2.117-5.544 5.024-14.354-1.794-23.773-16.955-22.481-25.98 2.225-52.032 4.288-77.832 7.643-2.042 0.517-4.387 0.813-6.8 0.813-9.423 0-17.791-4.517-23.056-11.505l-0.053-0.073c-15.861-19.395-33.498-37.337-50.524-55.781-3.319-3.588-7.177-6.692-10.765-10.012h-9.904c-4.251 4.846-8.033 10.289-11.166 16.132l-0.227 0.464c-26.913 69.435-53.521 139.050-80.2 208.593-2.207 5.741-4.575 11.411-7.5 18.642-13.28-12.953-31.454-20.942-51.493-20.942s-38.213 7.99-51.509 20.957l0.015-0.015c-1.902-4.45-3.23-7.338-4.378-10.317-27.774-72.306-55.423-144.666-83.502-216.864-3.359-6.307-7.142-11.75-11.478-16.695l0.085 0.099h-9.904c-11.393 11.86-22.912 23.612-34.090 35.615-10.388 11.070-21.010 21.997-30.501 33.749-3.748 4.968-9.64 8.147-16.274 8.147-1.506 0-2.974-0.164-4.386-0.474l0.135 0.025c-27.218-3.068-54.49-5.562-81.779-8.002-17.816-1.597-24.527 7.41-18.139 24.114 31.596 82.533 63.030 165.066 95.2 247.312 1.348 2.386 2.143 5.24 2.143 8.279 0 5.865-2.959 11.039-7.467 14.111l-0.059 0.038c-7.268 5.432-15.491 10.58-24.129 15.038l-0.989 0.464c-12.236 6.441-25.226 11.483-37.247 18.283-19.818 10.195-33.139 30.505-33.139 53.927 0 1.037 0.026 2.069 0.078 3.093l-0.006-0.144c0.341 16.148 1.687 32.295 3.176 48.443 0.282 2.18 0.443 4.702 0.443 7.261 0 13.081-4.201 25.18-11.328 35.023l0.12-0.174q-11.555 16.148-22.768 32.403c-8.999 11.557-14.429 26.279-14.429 42.27 0 16.104 5.506 30.921 14.739 42.673l-0.113-0.149c4.154 6.751 8.295 12.542 12.789 18.033l-0.229-0.289c13.395 14.838 21.591 34.595 21.591 56.267 0 6.855-0.82 13.518-2.367 19.898l0.118-0.575c-1.169 7.719-1.837 16.625-1.837 25.688 0 1.377 0.015 2.751 0.046 4.121l-0.004-0.204c-0.035 0.773-0.056 1.68-0.056 2.592 0 23.131 12.993 43.228 32.079 53.39l0.326 0.159c10.846 6.191 24.276 12.841 38.078 18.79l2.793 1.071c16.488 6.799 29.355 19.573 36.116 35.558l0.163 0.434c5.383 12.416 11.106 24.652 17.278 36.655 10.54 22.392 32.917 37.615 58.849 37.615 2.656 0 5.274-0.16 7.846-0.47l-0.31 0.030c13.833-0.825 27.666-1.794 41.464-3.265 2.158-0.274 4.654-0.431 7.187-0.431 13.814 0 26.541 4.656 36.696 12.484l-0.14-0.104c7.571 6.145 16.020 12.149 24.843 17.608l1.047 0.603c11.931 6.71 24.652 12.057 37.032 17.942zM78.944 402.903c-0.444-2.21-0.698-4.751-0.698-7.352 0-17.026 10.898-31.506 26.1-36.845l0.274-0.084c8.397-3.822 16.596-8.199 25.119-11.519 27.217-10.055 48.321-31.089 58.251-57.583l0.221-0.674c1.543-4.001 3.427-7.859 5.185-11.77 17.475-38.826 25.567-44.119 68.054-37.678 6.874 1.5 14.771 2.359 22.869 2.359 28.087 0 53.759-10.338 73.42-27.415l-0.137 0.117c4.254-3.503 8.984-6.915 13.928-10.019l0.569-0.334c7.432-6.982 17.463-11.271 28.497-11.271 11.098 0 21.182 4.339 28.649 11.414l-0.019-0.018c7.41 4.952 14.694 10.137 21.728 15.592 16.254 13.483 37.328 21.664 60.313 21.664 4.877 0 9.669-0.368 14.348-1.079l-0.525 0.066c12.398-1.794 24.993-2.009 37.517-2.871 1.165-0.137 2.514-0.216 3.881-0.216 14.364 0 26.706 8.656 32.095 21.036l0.088 0.226c6.351 12.667 12.362 25.531 18.193 38.45 9.115 20.597 25.254 36.701 45.313 45.548l0.564 0.222c12.936 5.795 25.801 11.806 38.468 18.175 12.614 5.517 21.268 17.888 21.268 32.28 0 1.333-0.074 2.648-0.219 3.943l0.014-0.159c-0.198 8.934-0.844 17.483-1.92 25.897l0.126-1.209c-1.556 6.834-2.448 14.681-2.448 22.737 0 26.79 9.862 51.277 26.153 70.028l-0.111-0.131c3.886 4.732 7.692 10 11.17 15.497l0.384 0.65c7.103 7.424 11.476 17.512 11.476 28.621 0 11.045-4.322 21.080-11.367 28.507l0.017-0.018c-7.177 10.765-14.784 21.082-22.14 31.65-9.47 13.428-15.136 30.129-15.136 48.153 0 3.212 0.18 6.382 0.53 9.5l-0.035-0.383q2.063 23.683 3.176 47.421c0.071 0.8 0.111 1.731 0.111 2.671 0 12.708-7.393 23.689-18.113 28.877l-0.191 0.083c-8.803 5.002-19.636 10.317-30.781 15.041l-2.178 0.82c-27.004 10.463-47.946 31.463-58.097 57.821l-0.233 0.687c-5.915 14.025-11.808 25.65-18.386 36.824l0.785-1.442c-4.888 9.087-14.33 15.16-25.191 15.16-0.347 0-0.692-0.006-1.036-0.018l0.050 0.001c-1.376 0.029-2.998 0.046-4.624 0.046-9.854 0-19.565-0.617-29.095-1.813l1.136 0.116c-6.398-1.377-13.749-2.166-21.284-2.166-25.905 0-49.633 9.323-68.012 24.796l0.16-0.131c-6.746 5.759-14.515 10.317-21.835 15.412-6.732 5.347-15.355 8.579-24.732 8.579-9.459 0-18.149-3.288-24.991-8.783l0.078 0.061q-17.942-12.47-35.776-24.868c-12.917-9.121-28.988-14.579-46.334-14.579-2.511 0-4.996 0.114-7.448 0.338l0.315-0.023c-15.143 1.094-30.286 2.315-45.447 3.445-1.537 0.226-3.311 0.355-5.115 0.355-15.314 0-28.453-9.309-34.069-22.576l-0.091-0.243q-9.581-20.095-19.036-40.244c-8.512-18.285-22.861-32.663-40.61-40.996l-0.513-0.216c-14.354-6.782-28.707-13.277-42.827-20.508-11.816-5.424-19.875-17.153-19.875-30.765 0-1.076 0.050-2.14 0.149-3.19l-0.010 0.134c0.118-9.528 0.766-18.772 1.918-27.859l-0.124 1.198c1.493-6.689 2.348-14.372 2.348-22.254 0-26.616-9.752-50.955-25.878-69.638l0.116 0.137c-4.503-5.221-7.984-11.339-12.165-16.865-6.644-7.49-10.702-17.405-10.702-28.268 0-10.787 4.001-20.639 10.6-28.153l-0.041 0.048c7.302-9.778 14.066-19.969 21.189-29.909 10.268-13.931 16.434-31.436 16.434-50.38 0-3.694-0.234-7.333-0.689-10.903l0.044 0.424c-1.256-12.398-2.099-24.921-3.104-37.427zM171.31 254.218l-81.743-213.025c5.993 0.341 10.532 0.466 15.035 0.897 19.395 1.794 38.88 3.068 58.114 5.993 1.635 0.346 3.514 0.543 5.439 0.543 9.060 0 17.096-4.383 22.103-11.145l0.053-0.074c15.681-18.139 32.295-35.507 49.394-54.185l84.327 219.484c-5.957 3.141-12.864 5.7-20.125 7.322l-0.562 0.105c-12.398 0.987-24.975-0.287-37.481-0.377-0.254 0.018-0.551 0.028-0.851 0.028-6.16 0-11.322-4.277-12.678-10.023l-0.018-0.088c-12.972-34.933-26.518-69.651-39.849-104.44-0.951-2.458-1.794-5.006-2.907-7.356-2.272-5.473-7.574-9.252-13.758-9.252-2.204 0-4.297 0.48-6.178 1.342l0.093-0.038c-5.113 2.337-8.602 7.406-8.602 13.291 0 2.118 0.452 4.13 1.264 5.946l-0.037-0.092c10.891 29.030 22.104 57.917 33.157 86.875 2.763 7.177 5.383 14.569 8.433 22.679-24.595 5.020-44.233 22.322-52.469 45.082l-0.155 0.49zM577.246 208.664l20.4-53.485c7.177-18.785 14.982-37.391 21.082-56.517 0.191-1.025 0.3-2.205 0.3-3.409 0-4.956-1.848-9.48-4.893-12.92l0.018 0.021c-2.61-1.644-5.785-2.619-9.187-2.619-2.164 0-4.236 0.395-6.148 1.116l0.12-0.040c-4.088 2.546-7.14 6.425-8.574 11.019l-0.038 0.141c-11.68 29.425-22.894 59.029-34.269 88.579-11.77 30.501-11.77 30.501-44.693 31.057-1.022 0.077-2.213 0.12-3.414 0.12-11.412 0-21.902-3.946-30.181-10.548l0.098 0.075 83.735-218.048c18.355 20.059 35.884 38.952 53.054 58.060 3.757 4.585 9.419 7.488 15.76 7.488 1.253 0 2.48-0.113 3.67-0.33l-0.124 0.019c15.053-1.956 30.214-3.194 45.321-4.593 10.299-0.951 20.615-1.687 32.403-2.637l-81.672 212.773c-8.504-23.172-28.175-40.382-52.315-45.263l-0.452-0.076z" />
<glyph unicode="&#xe906;" horiz-adv-x="801" d="M406.797 274.044c-1.277-0.020-2.785-0.032-4.295-0.032-66.024 0-126.868 22.18-175.487 59.494l0.685-0.505c-9.186 6.997-11.393 14.497-6.71 21.979 2.778 4.2 7.48 6.932 12.821 6.932 4.409 0 8.382-1.862 11.178-4.842l0.008-0.008c25.735-19.873 56.062-35.287 89.001-44.42l1.839-0.435c19.28-5.21 41.417-8.203 64.252-8.203 127.094 0 232.534 92.708 252.385 214.188l0.199 1.477c2.070 12.143 3.253 26.13 3.253 40.393 0 57.818-19.439 111.095-52.137 153.654l0.441-0.597c-3.305 4.118-5.304 9.408-5.304 15.165 0 0.264 0.004 0.526 0.013 0.788l-0.001-0.038c1.438 5.206 5.326 9.271 10.312 10.93l0.112 0.032c0.351 0.022 0.761 0.035 1.174 0.035 5.805 0 11.024-2.506 14.635-6.495l0.015-0.017c12.64-17.302 24.658-36.952 35.043-57.566l1.11-2.432c15.13-33.668 23.943-72.979 23.943-114.348 0-141.249-102.746-258.501-237.577-281.094l-1.669-0.231c-15.287-2.35-30.788-2.996-39.239-3.804z" />
<glyph unicode="&#xe907;" horiz-adv-x="801" d="M115.474 559.769c0.537 144.723 108.668 264.027 248.537 282.111l1.43 0.151c11.004 1.54 23.716 2.419 36.634 2.419 63.703 0 122.411-21.383 169.34-57.362l-0.664 0.489c2.592-1.771 4.859-3.605 6.969-5.604l-0.025 0.024c2.856-2.676 4.635-6.47 4.635-10.681 0-8.076-6.547-14.623-14.623-14.623-2.912 0-5.626 0.851-7.905 2.319l0.058-0.035c-6.226 3.696-11.806 8.451-17.816 12.559-39.731 26.727-88.659 42.659-141.308 42.659-126.748 0-231.929-92.34-251.939-213.418l-0.203-1.484c-2.131-12.283-3.349-26.428-3.349-40.858 0-57.291 19.2-110.097 51.518-152.335l-0.443 0.603c0.772-1.059 1.561-2.117 2.332-3.194 2.819-2.799 4.565-6.678 4.565-10.963 0-4.763-2.156-9.023-5.545-11.857l-0.024-0.020c-2.518-2.091-5.783-3.36-9.345-3.36-5.958 0-11.086 3.55-13.386 8.65l-0.037 0.093c-12.685 19.114-25.646 41.577-37.26 64.83l-1.709 3.78c-12.947 29.599-20.48 64.092-20.48 100.345 0 1.673 0.016 3.343 0.048 5.009l-0.004-0.25z" />
<glyph unicode="&#xe908;" horiz-adv-x="801" d="M434.966 369.352c-21.53 9.186-47.421 2.279-73.741 0.754-1.718-0.111-3.725-0.175-5.748-0.175-32.584 0-61.325 16.454-78.368 41.506l-0.211 0.329c-8.346 11.069-13.366 25.055-13.366 40.213 0 19.030 7.913 36.212 20.629 48.435l0.022 0.021c22.176 21.189 45.106 41.733 68.879 61.11 12.923 10.4 29.534 16.693 47.615 16.693 18.835 0 36.076-6.829 49.38-18.146l-0.108 0.090q33.39-27.989 65.201-57.827c13.72-12.579 22.289-30.583 22.289-50.59 0-18.336-7.199-34.991-18.924-47.293l0.026 0.028c-19.717-21.674-48.035-35.225-79.517-35.225-1.426 0-2.846 0.028-4.259 0.083l0.203-0.006zM440.708 398.059c22.089 0.915 41.726 10.708 55.564 25.881l0.056 0.063c7.096 7.084 11.486 16.877 11.486 27.695 0 11.867-5.282 22.5-13.624 29.676l-0.052 0.043q-30.268 27.81-61.469 54.597c-8.428 7.616-19.654 12.277-31.969 12.277-12.446 0-23.78-4.76-32.28-12.56l0.035 0.032q-30.717-26.572-60.751-53.933c-8.638-7.27-14.089-18.088-14.089-30.178 0-10.947 4.469-20.851 11.682-27.986l0.003-0.003c13.576-15.036 33.138-24.445 54.898-24.445 10.265 0 20.042 2.094 28.925 5.878l-0.483-0.183c3.601 1.678 7.818 2.658 12.263 2.658s8.662-0.979 12.446-2.734l-0.183 0.076c7.607-2.603 16.873-4.963 26.378-6.631l1.163-0.169z" />
<glyph unicode="&#xe909;" horiz-adv-x="801" d="M388.891 662.487c0.009-0.382 0.014-0.831 0.014-1.282 0-17.532-7.945-33.209-20.431-43.625l-0.091-0.074c-7.149-5.862-16.388-9.416-26.456-9.416-14.647 0-27.538 7.52-35.023 18.91l-0.098 0.158c-7.062 9.758-11.297 21.966-11.297 35.163 0 17.331 7.303 32.957 18.999 43.968l0.031 0.029c7.236 6.718 16.963 10.84 27.654 10.84 10.531 0 20.128-4.001 27.354-10.565l-0.033 0.030c11.917-10.594 19.387-25.965 19.387-43.080 0-0.372-0.004-0.743-0.011-1.113l0.001 0.055zM359.018 662.648c0 13.080-7.751 24.563-16.65 24.706s-16.883-11.339-17.027-24.383c-0.161-13.815 7.697-25.119 17.206-24.939 9.186 0.251 16.489 11.178 16.471 24.634z" />
<glyph unicode="&#xe90a;" horiz-adv-x="801" d="M410.278 662.038c1.513 14.587 6.985 27.665 15.308 38.425l-0.129-0.173c7.739 10.278 19.918 16.854 33.632 16.854 15.234 0 28.573-8.114 35.931-20.255l0.105-0.187c6.844-9.464 10.947-21.302 10.947-34.098 0-11.61-3.377-22.431-9.203-31.535l0.14 0.235c-7.139-13.965-21.425-23.359-37.904-23.359-16.338 0-30.519 9.233-37.61 22.766l-0.111 0.233c-4.244 8.786-8.042 19.133-10.839 29.884l-0.267 1.21zM442.215 662.469c0-13.456 7.428-24.329 16.632-24.437s16.865 10.765 17.027 24.15-8.038 25.46-17.224 25.119c-8.917-0.269-16.453-11.68-16.435-24.832z" />
<glyph unicode="&#xe90b;" horiz-adv-x="801" d="M288.129 588.476c0.015-0.481 0.023-1.048 0.023-1.616 0-14.375-5.355-27.499-14.178-37.486l0.053 0.061c-7.747-9.365-19.371-15.288-32.378-15.288-13.806 0-26.054 6.673-33.694 16.969l-0.080 0.113c-7.985 10.252-12.802 23.314-12.802 37.5 0 12.876 3.968 24.825 10.748 34.69l-0.135-0.208c7.485 12.117 20.695 20.071 35.761 20.071 14.918 0 28.016-7.798 35.438-19.54l0.102-0.172c5.29-9.714 9.974-21.022 13.448-32.846l0.313-1.243zM258.418 588.979c-0.108 13.582-7.518 24.24-16.794 24.15-8.845-0.090-16.255-10.424-16.812-23.325s7.392-25.478 16.56-25.765 17.045 10.98 17.045 24.939z" />
<glyph unicode="&#xe90c;" horiz-adv-x="801" d="M512.96 589.732c0.286 4.69 0.816 9 1.591 13.226l-0.101-0.667c3.418 22.985 23.015 40.418 46.684 40.418 1.694 0 3.367-0.089 5.015-0.263l-0.205 0.018c23.434-5.83 40.525-26.689 40.525-51.54 0-1.86-0.096-3.698-0.283-5.509l0.019 0.227c-0.229-22.893-14.714-42.345-34.992-49.918l-0.372-0.122c-2.916-0.636-6.266-1-9.701-1-25.39 0-46.133 19.894-47.493 44.944l-0.005 0.121c-0.341 2.978-0.413 6.011-0.682 10.065zM542.905 588.979c-0.108-13.923 7.661-25.352 17.045-25.119 8.971 0.287 16.614 11.806 16.578 24.778s-7.751 24.293-16.812 24.401-16.776-10.478-16.776-24.060z" />
<glyph unicode="&#xe90d;" horiz-adv-x="1178" d="M164.669 400.606h337.409v-319.643h-337.409v319.643z" />
<glyph unicode="&#xe90e;" horiz-adv-x="1178" d="M608.619 400.606h213.102v-106.541h-213.102v106.541z" />
<glyph unicode="&#xe90f;" horiz-adv-x="1178" d="M1178.4 33.658c-3.629-13.561-7.682-25.011-12.503-36.049l0.632 1.623c-17.021-35.985-52.244-60.844-93.461-62.748l-0.24-0.009c-4.966-0.376-9.892-0.475-14.937-0.475q-468.899 0-937.798 0c-2.215-0.156-4.8-0.246-7.406-0.246-49.161 0-90.909 31.741-105.868 75.847l-0.232 0.787c-3.891 11.408-6.179 24.553-6.272 38.22v0.044q-0.514 419.437-0.218 838.874c-0.028 0.732-0.044 1.591-0.044 2.454 0 37.479 30.383 67.862 67.862 67.862 0.127 0 0.254 0 0.38-0.001h-0.019c2.691 0 5.362 0 8.052 0q423.394 0 846.907 0.099c1.57 0.118 3.4 0.185 5.246 0.185 17.93 0 34.38-6.335 47.235-16.888l-0.13 0.104c14.575-12.438 23.757-30.825 23.757-51.356 0-0.503-0.006-1.004-0.016-1.504l0.001 0.075c0-38.699 0-77.418 0-117.502 4.59-0.218 8.626-0.554 12.642-0.554 32.21 0 64.439 0 96.668 0 1.476 0.12 3.195 0.188 4.93 0.188 30.663 0 56.34-21.344 62.985-49.986l0.085-0.436c0.519-1.066 1.14-1.984 1.87-2.801l-0.010 0.012zM975.646-17.902c-26.096 33.832-22.456 71.225-22.456 107.827q0 396.388 0 792.795c0 24.553-6.292 31.042-30.251 31.042q-423.394 0-846.788 0c-23.148 0-29.954-6.964-29.954-30.33q0-413.66 0-827.32c-0.242-2.143-0.38-4.628-0.38-7.144 0-37.151 30.117-67.268 67.268-67.268 2.574 0 5.113 0.145 7.612 0.426l-0.306-0.028h855.256zM999.388 726.382v-14.858q0-326.607 0-653.194c0-3.838 0-7.676 0.138-11.495 1.104-35.916 30.484-64.612 66.566-64.612 7.578 0 14.861 1.266 21.648 3.597l-0.468-0.14c26.507 9.429 45.144 34.301 45.144 63.526 0 1.114-0.027 2.222-0.081 3.324l0.006-0.155q0 324.292 0 648.604c0.047 0.823 0.074 1.785 0.074 2.754 0 1.859-0.099 3.696-0.291 5.504l0.019-0.225c-0.371 9.639-8.275 17.313-17.972 17.313-0.081 0-0.162-0.001-0.242-0.002h0.012c-37.591 0.277-75.143 0.059-114.593 0.059z" />
<glyph unicode="&#xe910;" horiz-adv-x="1178" d="M333.314 65.768q-76.468 0-152.956 0c-20.556 0-28.47 7.914-28.47 28.629q0 150.661 0 301.302c0 21.091 8.092 29.143 29.222 29.163q151.808 0 303.597 0c21.763 0 29.677-7.775 29.677-29.895q0-149.494 0-299.007c0-22.851-7.498-30.192-30.389-30.211zM198.956 113.252h267.332v264.107h-267.332z" />
<glyph unicode="&#xe911;" horiz-adv-x="1178" d="M708.849 263.695q-49.996 0-99.992 0c-20.616 0-28.826 8.013-28.866 28.213q-0.099 52.291 0 104.602c0 20.22 8.29 28.332 28.846 28.332q100.586 0 201.152 0c20.537 0 28.747-7.914 28.846-28.332q0.257-52.291 0-104.602c-0.099-20.477-8.171-28.213-28.846-28.233q-50.57-0.020-101.14 0.020zM627.217 311.178h163.462v65.883h-163.462z" />
<glyph unicode="&#xe912;" horiz-adv-x="1178" d="M576.528 709.604c-7.281-23.583-13.849-44.357-20.082-65.191-2.079-10.086-9.306-18.094-18.754-21.25l-0.2-0.058c-2.311-0.747-4.971-1.178-7.731-1.178-13.063 0-23.872 9.649-25.689 22.208l-0.017 0.14q-13.849 68.079-27.145 136.277c-0.669 2.093-1.055 4.501-1.055 6.999 0 11.674 8.426 21.381 19.529 23.369l0.144 0.021c0.866 0.11 1.867 0.173 2.883 0.173 12.721 0 23.137-9.874 24-22.376l0.004-0.075c4.036-22.137 8.57-40.653 14.050-58.758l-0.972 3.736c6.311 20.121 12.682 40.222 18.875 60.383 2.359 9.568 10.678 16.621 20.71 17.033l0.044 0.001c0.66 0.072 1.425 0.113 2.199 0.113 8.566 0 15.956-5.036 19.37-12.308l0.055-0.131c1.467-3.013 2.816-6.582 3.848-10.284l0.109-0.459c5.678-18.123 11.258-36.265 18.993-54.467 3.66 18.242 6.667 36.661 11.297 54.646 2.033 7.486 6.007 13.87 11.349 18.79l0.028 0.025c3.3 2.671 7.549 4.288 12.175 4.288 4.736 0 9.077-1.695 12.448-4.511l-0.031 0.025c6.243-4.151 10.302-11.155 10.302-19.108 0-2.192-0.308-4.312-0.884-6.319l0.040 0.161c-3.561-18.796-7.459-37.591-11.218-56.307-5.322-26.65-10.585-53.32-16.026-79.95-1.657-13.083-12.717-23.099-26.117-23.099-12.374 0-22.753 8.541-25.564 20.050l-0.037 0.18c-6.905 21.427-13.394 42.973-20.932 67.209z" />
<glyph unicode="&#xe913;" horiz-adv-x="1178" d="M197.986 712.908c0-23.742 0.138-44.694 0-65.586 0.073-0.686 0.115-1.482 0.115-2.288 0-11.319-8.244-20.712-19.055-22.504l-0.133-0.018c-1.386-0.309-2.977-0.486-4.61-0.486-12.178 0-22.058 9.842-22.119 22.006v0.006c-0.475 48.275-0.356 96.55 0 144.805-0.001 0.093-0.002 0.203-0.002 0.313 0 10.065 7.038 18.487 16.46 20.612l0.141 0.027c2.049 0.698 4.409 1.101 6.864 1.101 8.088 0 15.154-4.376 18.959-10.89l0.056-0.104c16.283-23.188 32.269-46.573 48.394-69.88 1.978-2.79 3.957-5.5 7.221-9.892 0.495 4.491 1.049 7.221 1.029 9.892 0 19.152-0.495 38.323-0.198 57.376-0.005 0.185-0.008 0.404-0.008 0.622 0 12.675 10.275 22.95 22.95 22.95s22.95-10.275 22.95-22.95c0-0.254-0.004-0.506-0.012-0.758l0.001 0.037q1.068-67.268 1.523-134.536c0.162-1.085 0.255-2.338 0.255-3.613 0-11.725-7.845-21.617-18.572-24.714l-0.182-0.045c-11.574-3.363-20.616 0.752-29.677 13.849-14.641 21.051-29.163 42.221-43.764 63.311-2.236 3.225-4.55 6.034-8.587 11.356z" />
<glyph unicode="&#xe914;" horiz-adv-x="1178" d="M772.041 622.096c-0.349-0.005-0.761-0.008-1.173-0.008-24.246 0-46.206 9.79-62.142 25.633l0.004-0.004c-5.487 4.225-8.987 10.796-8.987 18.185 0 5.963 2.28 11.393 6.015 15.466l-0.015-0.017c4.161 4.834 10.287 7.875 17.124 7.875 6.955 0 13.175-3.148 17.312-8.097l0.029-0.036c7.612-7.852 18.258-12.725 30.042-12.725 2.761 0 5.459 0.268 8.071 0.778l-0.264-0.043c5.124 1.068 9.319 6.628 13.849 10.13-3.363 4.115-5.935 9.892-10.268 12.029-12.662 6.232-26.136 10.802-39.134 16.362-20.234 6.509-34.619 25.166-34.619 47.182 0 1.827 0.099 3.632 0.292 5.408l-0.019-0.22c2.244 24.279 19.998 43.839 43.167 48.784l0.36 0.064c5.767 1.399 12.388 2.202 19.196 2.202 20.677 0 39.625-7.402 54.339-19.702l-0.134 0.109c5.638-4.134 9.258-10.733 9.258-18.178 0-5.082-1.687-9.77-4.531-13.534l0.041 0.057c-4.309-5.685-11.066-9.32-18.673-9.32-4.477 0-8.66 1.259-12.214 3.442l0.102-0.058c-6.755 3.821-14.655 7.384-22.889 10.235l-1.031 0.31c-1.441 0.287-3.098 0.451-4.793 0.451-3.493 0-6.823-0.696-9.86-1.958l0.17 0.063c-2.909-1.423-5.070-3.992-5.917-7.104l-0.018-0.078c-0.336-1.385 3.344-4.61 5.777-5.658 13.711-5.935 27.837-10.763 41.37-16.995 21.534-8.174 36.561-28.636 36.561-52.608 0-4.784-0.598-9.428-1.725-13.861l0.084 0.388c-8.67-26.34-33.048-45.019-61.79-45.019-1.043 0-2.080 0.025-3.112 0.073l0.146-0.005z" />
<glyph unicode="&#xe915;" horiz-adv-x="1178" d="M384.339 764.487v-24.632c9.734 0 18.835 0.178 27.936 0 16.342-0.396 27.066-10.13 26.63-23.88s-10.644-22.001-26.769-22.179c-9.081 0-18.162 0-27.798 0v-25.048c10.882 0 21.15 0 31.398 0 16.758-0.158 27.244-8.943 27.461-22.832s-10.288-23.148-26.848-23.227c-18.004-0.119-36.028-0.198-54.032 0-0.779-0.097-1.68-0.153-2.594-0.153-12.216 0-22.119 9.903-22.119 22.119 0 0.743 0.037 1.478 0.108 2.203l-0.007-0.092q-0.475 69.543 0 139.107c-0.079 0.706-0.124 1.524-0.124 2.353 0 12.325 9.992 22.317 22.317 22.317 0.733 0 1.459-0.035 2.174-0.105l-0.091 0.007q28.727 0.732 57.376 0c0.283 0.013 0.616 0.020 0.95 0.020 12.588 0 22.792-10.204 22.792-22.792 0-0.028 0-0.056 0-0.083v0.004c-0.062-12.694-10.366-22.96-23.069-22.96-0.237 0-0.472 0.004-0.707 0.011l0.034-0.001c-5.738-0.336-11.495-0.119-17.233-0.138z" />
<glyph unicode="&#xe916;" horiz-adv-x="1178" d="M284.248 563.494c35.256 0 70.513 0 105.789 0 17.589 0 28.193-9.101 27.837-23.386-0.336-13.849-10.723-22.673-27.699-22.693q-105.789-0.119-211.558 0c-0.743-0.080-1.605-0.126-2.477-0.126-9.641 0-17.977 5.583-21.953 13.693l-0.064 0.144c-1.716 2.777-2.733 6.144-2.733 9.749 0 5.368 2.255 10.209 5.87 13.628l0.009 0.008c5.707 4.869 12.999 8.036 21.007 8.639l0.123 0.007c35.316 0.791 70.572 0.336 105.848 0.336z" />
<glyph unicode="&#xe917;" horiz-adv-x="1178" d="M710.095 563.494c33.634 0 67.387 0 101.080 0 17.213 0 27.204-8.389 27.441-22.456 0.237-14.562-10.11-23.583-27.699-23.603-67.763 0-135.545 0-203.308 0-0.86-0.104-1.856-0.163-2.866-0.163-9.481 0-17.741 5.226-22.057 12.955l-0.066 0.128c-1.977 2.907-3.156 6.495-3.156 10.358 0 5.105 2.059 9.73 5.393 13.088l-0.001-0.001c5.831 5.189 13.338 8.612 21.616 9.367l0.148 0.011c34.544 0.851 69.029 0.317 103.474 0.317z" />
<glyph unicode="&#xe918;" horiz-adv-x="1178" d="M708.928 166.69c-33.634 0-67.387 0-101.080 0-17.628 0-28.094 9.042-27.699 23.425 0.317 13.731 10.921 22.614 27.699 22.634q102.228 0.119 204.456 0c0.919 0.127 1.981 0.199 3.060 0.199 10.681 0 19.706-7.095 22.617-16.829l0.043-0.167c0.63-1.956 0.993-4.206 0.993-6.54 0-8.181-4.457-15.32-11.075-19.123l-0.107-0.057c-4.7-2.164-10.199-3.426-15.992-3.426-0.179 0-0.357 0.001-0.536 0.004h0.027c-34.287-0.257-68.376-0.119-102.406-0.119z" />
<glyph unicode="&#xe919;" horiz-adv-x="1178" d="M709.402 65.768c-34.069 0-68.159 0-102.248 0-16.718 0-27.105 8.982-27.105 22.97s10.644 23.069 27.125 23.089q102.248 0.119 204.476 0c16.817 0 26.967-8.903 26.947-23.089s-10.13-22.911-26.967-22.97c-34.069-0.059-68.159 0-102.228 0z" />
<glyph unicode="&#xe91a;" horiz-adv-x="1178" d="M522.377 541.058c0.003-0.144 0.005-0.314 0.005-0.485 0-12.689-10.286-22.975-22.975-22.975-12.518 0-22.698 10.012-22.97 22.465v0.025c-0.003 0.144-0.005 0.314-0.005 0.485 0 12.689 10.286 22.975 22.975 22.975 12.518 0 22.698-10.012 22.97-22.465v-0.025z" />
</font>
</defs>
</svg>
