<svg width="80" height="80" viewBox="0 0 80 80" fill="none" xmlns="http://www.w3.org/2000/svg">
<rect width="80" height="80" rx="40" fill="#000079"/>
<path d="M54.5995 39.9311L48.7537 34.0923C48.6227 33.9619 48.4673 33.8585 48.2964 33.7882C48.1255 33.7178 47.9423 33.6818 47.7575 33.6823H46.8007C48.7101 31.2364 49.6143 28.1547 49.329 25.0654C49.0436 21.9761 47.5903 19.1119 45.2652 17.0568C42.9401 15.0017 39.9184 13.9106 36.8163 14.0057C33.7141 14.1009 30.7651 15.3753 28.5705 17.5691C26.3759 19.7628 25.101 22.7107 25.0057 25.8117C24.9105 28.9127 26.0021 31.9332 28.058 34.2574C30.1138 36.5816 32.9791 38.0344 36.0696 38.3196C39.1601 38.6048 42.2431 37.701 44.6899 35.7923V36.7487C44.6894 36.9335 44.7254 37.1166 44.7958 37.2875C44.8662 37.4583 44.9696 37.6137 45.1001 37.7446L50.9423 43.5869C51.0725 43.7178 51.2274 43.8217 51.3979 43.8926C51.5685 43.9635 51.7514 44 51.9361 44C52.1208 44 52.3037 43.9635 52.4743 43.8926C52.6448 43.8217 52.7997 43.7178 52.9299 43.5869L54.5887 41.9288C54.8521 41.664 55 41.3057 55 40.9323C55 40.5589 54.8521 40.2007 54.5887 39.9359L54.5995 39.9311ZM37.1889 33.6823C35.7044 33.6828 34.2531 33.2431 33.0187 32.419C31.7842 31.5949 30.8219 30.4233 30.2536 29.0525C29.6853 27.6816 29.5365 26.1731 29.826 24.7177C30.1155 23.2623 30.8303 21.9254 31.8799 20.8761C32.9296 19.8268 34.267 19.1123 35.723 18.8229C37.179 18.5336 38.6881 18.6823 40.0595 19.2504C41.4308 19.8185 42.6029 20.7804 43.4273 22.0144C44.2517 23.2484 44.6915 24.6991 44.691 26.183C44.6912 27.1679 44.4973 28.1431 44.1203 29.053C43.7433 29.963 43.1907 30.7897 42.4941 31.4861C41.7974 32.1826 40.9703 32.7349 40.06 33.1118C39.1497 33.4886 38.1741 33.6824 37.1889 33.6823Z" fill="white"/>
<path d="M16.416 59.544C17.888 59.24 20.096 58.712 22.144 58.168L22.368 59.944C20.512 60.456 18.48 60.984 16.912 61.384L16.416 59.544ZM16.608 54.456H22.208V56.248H16.608V54.456ZM18.608 51.416H20.48V64.296C20.48 65.208 20.304 65.688 19.776 65.976C19.232 66.264 18.464 66.312 17.328 66.312C17.264 65.832 17.024 65.048 16.8 64.568C17.424 64.6 18.096 64.584 18.304 64.584C18.528 64.584 18.608 64.504 18.608 64.28V51.416ZM22.384 55.672L31.136 54.824L31.328 56.616L22.576 57.512L22.384 55.672ZM26.752 52.52L28.224 51.576C28.928 52.264 29.904 53.256 30.384 53.896L28.832 54.968C28.4 54.312 27.456 53.256 26.752 52.52ZM24.192 51.496H26.16C26.272 58.424 27.232 63.704 29.328 64.008C29.696 64.056 29.904 63.272 30 61.544C30.384 61.96 31.232 62.488 31.616 62.664C31.184 65.656 30.32 66.392 29.424 66.312C25.488 65.912 24.48 60.216 24.192 51.496ZM29.056 57.24L30.64 58.2C29.184 61.384 26.336 64.44 23.216 65.912C22.864 65.416 22.224 64.808 21.68 64.424C24.928 63.16 27.728 60.264 29.056 57.24ZM34.208 54.44H38.224V55.8H34.208V54.44ZM41.6 54.44H45.632V55.8H41.6V54.44ZM44.88 52.056H46.816V64.104C46.816 65.224 46.592 65.768 45.888 66.072C45.184 66.392 44.128 66.44 42.576 66.44C42.48 65.896 42.16 64.984 41.888 64.456C42.896 64.536 44.096 64.52 44.432 64.504C44.768 64.504 44.88 64.408 44.88 64.088V52.056ZM34.368 52.056H39.408V58.264H34.368V56.728H37.6V53.608H34.368V52.056ZM45.92 52.056V53.608H42.336V56.76H45.92V58.296H40.512V52.056H45.92ZM33.264 52.056H35.168V66.44H33.264V52.056ZM58.544 55.72L60.048 56.344C59.088 57.848 57.632 59.176 56.192 60.056C55.936 59.656 55.488 59.144 55.088 58.808C56.368 58.136 57.808 56.952 58.544 55.72ZM60.032 57.896L61.536 58.536C60.352 60.488 58.464 62.024 56.432 63.032C56.208 62.616 55.76 62.04 55.376 61.656C57.2 60.888 59.072 59.528 60.032 57.896ZM61.296 60.312L62.848 60.968C61.392 63.768 58.848 65.432 55.584 66.456C55.408 65.96 54.992 65.304 54.608 64.872C57.6 64.152 60.064 62.68 61.296 60.312ZM59.264 52.008C60.272 53.544 62.144 55.16 63.824 56.04C63.424 56.392 62.848 57.096 62.576 57.576C60.896 56.488 59.024 54.536 57.872 52.664L59.264 52.008ZM58.352 51.336L59.968 51.864C58.944 54.344 57.216 56.344 55.072 57.656C54.832 57.24 54.272 56.552 53.92 56.248C55.904 55.16 57.536 53.304 58.352 51.336ZM49.216 56.296H53.808V57.752H49.216V56.296ZM49.216 58.472H53.808V59.912H49.216V58.472ZM48.56 54.072H54.32V55.592H48.56V54.072ZM49.952 60.68H53.904V65.544H49.952V64.008H52.368V62.216H49.952V60.68ZM49.168 60.68H50.656V66.232H49.168V60.68ZM50.16 52.056L51.536 51.336C51.968 52.008 52.432 52.888 52.672 53.48L51.216 54.328C51.024 53.72 50.544 52.744 50.16 52.056Z" fill="white"/>
</svg>
