<?xml version="1.0" encoding="utf-8"?>
<!-- Generator: Adobe Illustrator 26.0.2, SVG Export Plug-In . SVG Version: 6.00 Build 0)  -->
<svg version="1.1" xmlns="http://www.w3.org/2000/svg" xmlns:xlink="http://www.w3.org/1999/xlink" x="0px" y="0px"
	 viewBox="0 0 24 22" style="enable-background:new 0 0 24 22;" xml:space="preserve">
<style type="text/css">
	.st0{display:none;}
	.st1{display:inline;}
	.st2{fill:#2A2968;}
	.st3{fill:none;stroke:#FF5809;stroke-width:4;stroke-linecap:round;stroke-linejoin:round;stroke-miterlimit:10;}
</style>
<g id="圖層_1" class="st0">
	<g id="MENU" transform="translate(-0.063 0.172)" class="st1">
		<path id="Rectangle_43" class="st2" d="M2.1-0.2h20c1.1,0,2,0.9,2,2l0,0c0,1.1-0.9,2-2,2h-20c-1.1,0-2-0.9-2-2l0,0
			C0.1,0.7,1-0.2,2.1-0.2z"/>
		<path id="Rectangle_44" class="st2" d="M2.1,8.8h20c1.1,0,2,0.9,2,2l0,0c0,1.1-0.9,2-2,2h-20c-1.1,0-2-0.9-2-2l0,0
			C0.1,9.7,1,8.8,2.1,8.8z"/>
		<path id="Rectangle_61" class="st2" d="M2.1,17.8h20c1.1,0,2,0.9,2,2l0,0c0,1.1-0.9,2-2,2h-20c-1.1,0-2-0.9-2-2l0,0
			C0.1,18.7,1,17.8,2.1,17.8z"/>
	</g>
</g>
<g id="圖層_2">
	<g>
		<g>
			<line class="st3" x1="2.2" y1="2.2" x2="21.8" y2="2.2"/>
			<line class="st3" x1="2.2" y1="10.6" x2="21.8" y2="10.6"/>
			<line class="st3" x1="2.2" y1="19.1" x2="21.8" y2="19.1"/>
		</g>
		<line class="st3" x1="2.2" y1="2.2" x2="21.8" y2="2.2"/>
		<line class="st3" x1="2.2" y1="11" x2="21.8" y2="11"/>
		<line class="st3" x1="2.2" y1="19.8" x2="21.8" y2="19.8"/>
	</g>
</g>
</svg>
