<?xml version="1.0" encoding="utf-8"?>
<!-- Generator: Adobe Illustrator 26.0.2, SVG Export Plug-In . SVG Version: 6.00 Build 0)  -->
<svg version="1.1" xmlns="http://www.w3.org/2000/svg" xmlns:xlink="http://www.w3.org/1999/xlink" x="0px" y="0px"
	 viewBox="0 0 50 50" style="enable-background:new 0 0 50 50;" xml:space="preserve">
<style type="text/css">
	.st0{display:none;}
	.st1{display:inline;fill:#FFDC55;}
	.st2{display:inline;fill:#2A2968;}
	.st3{display:inline;fill:#FFFFFF;filter:url(#Adobe_OpacityMaskFilter);}
	.st4{display:inline;}
	
		.st5{display:inline;mask:url(#path-2-outside-1_326_1000_00000012430935249735170300000009538612364248992956_);fill:none;stroke:#2A2968;stroke-width:0.7;}
	.st6{display:inline;fill:#2A2968;stroke:#2A2968;stroke-width:0.35;}
	.st7{fill:#FFFFFF;}
	.st8{fill:#FFDD33;}
	.st9{fill:#FF5809;}
</style>
<g id="圖層_1" class="st0">
	<path class="st1" d="M16.7,9.4c1.4-0.5,2.9-0.2,4,0.7c0.1-0.3,1-1.9,2.8-2.4c1.5-0.4,2.7,0,3.1,0.2c0.6-1.4,1.9-2.3,3.2-2.3
		c2,0,3,1.8,3.2,2.2c0.4,0.8,0.5,1.6,0.5,2.1c0.5,0.2,1.5,0.7,2.4,1.8c1,1.2,1.2,2.5,1.3,3.1c2-0.1,3.7,1.3,4,3.1
		c0.2,1.5-0.5,3-1.9,3.8l1.9,4.5c1,0.3,1.6,1.3,1.5,2.2c-0.1,0.8-0.8,1.4-1.7,1.6c-0.1,0.5-0.4,1.9-1.7,3.1
		c-1.4,1.3-2.9,1.4-3.4,1.4c0.2,0.7,0.5,2.7-0.4,4.9c-0.3,0.6-1.2,2.8-3.6,3.9c-1.6,0.8-3.1,0.7-3.8,0.6c-0.2,0.4-0.6,1.3-1.6,2
		c-0.3,0.2-1,0.7-1.9,0.6c-1.2,0-2.4-1-3-2.3c-0.7,0.1-2.4,0.1-4.3-0.8c-2-1-3-2.6-3.2-3c-1.5-2.5-1.1-5.1-0.9-5.8
		c-0.4,0-2.8-0.3-4.4-2.5c-1.7-2.4-1.1-5-1-5.3c-0.7-0.5-1-1.4-0.6-2.2c0.3-0.8,1.2-1.3,2.1-1.1c0.9-1.4,1.8-2.7,2.8-4.1
		c-1.3-0.5-2.2-1.6-2.4-3c-0.2-1.6,0.7-3.2,2.3-3.9c0.7,0,1.4-0.1,2.2-0.1C14.2,12.2,14.7,10.1,16.7,9.4z"/>
	<path class="st2" d="M24.2,47c-0.4-0.2-0.9-0.3-1.3-0.5c-0.9-0.5-1.5-1.3-1.7-2.2c-0.6,0-1.2,0-1.8,0c-3.2-0.2-5.3-1.9-6.2-5.1
		c-0.4-1.3-0.5-2.6-0.4-3.9c0-0.2,0-0.3,0-0.5c-0.4-0.1-0.9-0.1-1.3-0.3c-2.3-0.7-3.7-2.4-4.1-4.9c-0.1-0.9-0.1-1.8-0.1-2.7
		c0-0.2-0.1-0.4-0.2-0.5c-0.5-0.6-0.7-1.3-0.4-2c0.3-0.7,0.9-1.1,1.6-1.2c0.1,0,0.3-0.1,0.3-0.2c0.8-1.1,1.6-2.2,2.4-3.3
		c0-0.1,0.1-0.1,0.1-0.2c-0.1-0.1-0.2-0.1-0.3-0.2c-1.6-0.9-2.3-2.9-1.8-4.8c0.5-1.9,2.1-3,4-2.8c0.3,0,0.5-0.1,0.6-0.4
		c1.2-2.5,4.1-3.5,6.6-2.2c0.1,0.1,0.2,0.1,0.3,0.2c1.5-2,3.4-2.6,5.8-1.9c0.1-0.1,0.2-0.3,0.3-0.5c0.9-1.5,2.6-2.2,4.3-1.7
		c1.8,0.5,3,2,3,3.7c0,0.3,0.1,0.5,0.4,0.6c0.2,0.1,0.5,0.2,0.7,0.4c0.3,0.2,0.4,0.6,0.2,0.9c-0.2,0.3-0.5,0.4-0.8,0.3
		c-0.4-0.1-0.7-0.3-1.1-0.5c-0.5-0.2-0.7-0.7-0.7-1.2c0-1.6-0.9-2.6-2.4-2.9c-1.2-0.2-2.2,0.3-2.8,1.4c-0.5,0.9-0.9,1.1-1.8,0.8
		c-1.5-0.5-3.1,0-4,1.3c-0.6,0.8-1,0.9-1.9,0.4c-1.9-1.1-4.2-0.3-5,1.7c-0.4,0.9-0.6,1-1.6,0.9c-1.5-0.1-2.5,0.5-2.9,1.9
		c-0.4,1.4,0.1,2.7,1.4,3.4c0.5,0.3,0.8,0.7,0.7,1.3c-0.1,1.7,0.8,3,2.3,3.4c1.5,0.4,2.9-0.3,3.7-1.8c0.4-0.7,0.8-0.9,1.6-0.6
		c1.4,0.5,2.7,0.2,3.8-0.9c0.6-0.6,1.4-0.5,1.9,0.2c0.9,1.4,2.4,1.8,3.9,1.2c0.9-0.3,1.5,0,1.7,1c0.3,1.4,1.3,2.3,2.7,2.3
		c1.3,0,2.4-0.9,2.6-2.3c0.2-0.8,0.5-1.1,1.3-1.1c0.2,0,0.5-0.1,0.7-0.1c1.5-0.4,2.1-1.4,2-3c-0.1-1.3-1.2-2.4-2.6-2.5
		c-0.1,0-0.2,0-0.2,0c-1,0-1.4-0.3-1.5-1.3c0-0.4-0.1-0.7-0.2-1c-0.1-0.5,0-0.8,0.4-1c0.4-0.1,0.7,0.1,0.8,0.6
		c0.1,0.5,0.3,1,0.4,1.5c2.2,0.1,3.7,1.1,4.1,3.4c0.4,1.9-0.3,3.4-2,4.2c0.5,1.1,1.1,2.1,1.6,3.1c0.2,0.4,0.3,0.7,0.7,0.9
		c1.5,0.9,1.4,3.1-0.1,4c-0.2,0.1-0.4,0.3-0.4,0.5c-0.8,2.4-2.5,3.9-5,4.2c-0.1,0-0.1,0-0.2,0c0,0.9-0.1,1.8-0.1,2.6
		c0,0.1,0,0.3-0.1,0.4c-0.1,0.4-0.4,0.6-0.7,0.6c-0.3-0.1-0.6-0.3-0.5-0.7c0-0.5,0.1-0.9,0.1-1.4c-0.1-1.2-0.2-2.5-0.4-3.7
		c-0.1-0.9-0.1-1.8,0.2-2.6c0.3-1.3,0.6-2.6,0.9-4c0-0.2,0-0.3,0.1-0.6c-1.2,0.6-2.5,0.7-3.7,0.1c-1.2-0.6-2-1.6-2.3-3
		c-1,0.4-2,0.4-3,0.1c-1-0.3-1.8-0.9-2.4-1.8c-1.5,1.4-3.2,1.7-5.1,1.1c-0.6,1.2-1.5,2-2.8,2.4c-1.3,0.4-2.5,0.1-3.7-0.6
		c0,0.5,0,0.9,0,1.3c0,0.5-0.2,0.7-0.6,0.8c-0.4,0-0.7-0.2-0.7-0.7c0-0.6-0.1-1.2,0-1.8c0.1-0.7-0.1-1.2-0.5-1.8
		c-0.5,0.7-1,1.4-1.5,2.2c0,0.1,0,0.3,0,0.3c0.9,1.2,0.2,2.9-1.2,3.1c-0.1,0-0.2,0.2-0.2,0.3c-0.1,1.4,0,2.7,0.7,3.9
		c0.8,1.4,2,2.1,3.7,2.3c0.2-1.1,0.5-2.2,0.1-3.3c-0.2-0.6-0.4-1.2-0.5-1.9c-0.1-0.4,0.1-0.8,0.4-0.9c0.3-0.1,0.6,0.1,0.8,0.5
		c0.2,0.7,0.4,1.5,0.6,2.2c0.2,0.9,0.2,1.8,0,2.7c-0.4,1.9-0.5,3.8,0,5.7c0.9,3.3,3.2,4.9,6.5,4.3c1-0.2,1.9-0.5,2.9-0.8
		c0.2-0.1,0.3-0.2,0.3-0.5c0-0.4,0.1-0.9-0.1-1.2c-0.1-0.3-0.7-0.3-1-0.5c-1.7-0.8-2.7-2.2-2.9-4.1c-0.2-1.5,0.7-2.8,2.2-3.3
		c1.6-0.5,3.2-0.5,4.7,0c1.9,0.7,2.6,2.3,2,4.2c-0.6,1.8-1.7,3-3.5,3.4c-0.2,0.1-0.3,0.2-0.3,0.4c0,0.1,0,0.3,0,0.4c0,1,0,1,1,1.3
		c1.5,0.5,3.1,0.8,4.7,0.5c1.5-0.3,2.5-1.1,3.3-2.3c0.3-0.6,0.6-0.7,1-0.5c0.4,0.2,0.4,0.6,0,1.2c-1.4,2.3-3.5,3.2-6,3
		c-0.3,0-0.7,0-0.9-0.1c-0.4,0.6-0.8,1.2-1.2,1.7c-0.5,0.6-1.3,0.9-2,1.1C24.8,47,24.5,47,24.2,47z M24.6,33.3
		c-0.7,0.2-1.5,0.3-2.2,0.6c-0.7,0.3-1.1,0.8-1.1,1.6c-0.1,1.6,1.5,3.4,3,3.5c1.6,0.2,3.2-1.1,3.6-2.9c0.2-1.1-0.1-2-1.2-2.3
		C26.1,33.5,25.4,33.5,24.6,33.3z M36.5,33.4c1.7,0.1,3.8-1.5,4-3.2c-1-0.4-1.7-1.1-1.7-2.2c-0.1-1.2,0.6-2,1.7-2.4
		c-0.4-1.2-1.1-2.2-1.8-3.2c-0.2-0.2-0.6-0.1-0.7,0.2c-0.1,0.2-0.1,0.4-0.2,0.6c-0.1,0.3-0.3,0.7-0.3,1c-0.1,1.9-0.4,3.7-1,5.5
		C36,31,36.1,32.2,36.5,33.4z M27,43.9c-0.7-0.3-1.4-0.5-2.1-0.8c-0.1,0-0.2,0-0.2,0c-0.7,0.3-1.4,0.5-2.2,0.8
		c0.2,0.9,1.1,1.7,2.2,1.7C25.7,45.7,26.7,45,27,43.9z M42.1,27.9c0-0.6-0.4-1.1-1-1.1c-0.6,0-1,0.4-1.1,1c0,0.6,0.4,1.1,1,1.1
		C41.6,29,42.1,28.5,42.1,27.9z M8.5,25.7c0.3,0,0.6-0.3,0.6-0.7c0-0.4-0.3-0.6-0.6-0.6c-0.3,0-0.6,0.3-0.6,0.6
		C7.9,25.4,8.2,25.7,8.5,25.7z"/>
	<defs>
		<filter id="Adobe_OpacityMaskFilter" filterUnits="userSpaceOnUse" x="6.3" y="4.8" width="37.5" height="42.5">
			<feColorMatrix  type="matrix" values="1 0 0 0 0  0 1 0 0 0  0 0 1 0 0  0 0 0 1 0"/>
		</filter>
	</defs>
	
		<mask maskUnits="userSpaceOnUse" x="6.3" y="4.8" width="37.5" height="42.5" id="path-2-outside-1_326_1000_00000012430935249735170300000009538612364248992956_" class="st4">
		<rect x="5.6" y="4.2" style="fill:#FFFFFF;filter:url(#Adobe_OpacityMaskFilter);" width="39" height="44"/>
		<path d="M24.2,47c-0.4-0.2-0.9-0.3-1.3-0.5c-0.9-0.5-1.5-1.3-1.7-2.2c-0.6,0-1.2,0-1.8,0c-3.2-0.2-5.3-1.9-6.2-5.1
			c-0.4-1.3-0.5-2.6-0.4-3.9c0-0.2,0-0.3,0-0.5c-0.4-0.1-0.9-0.1-1.3-0.3c-2.3-0.7-3.7-2.4-4.1-4.9c-0.1-0.9-0.1-1.8-0.1-2.7
			c0-0.2-0.1-0.4-0.2-0.5c-0.5-0.6-0.7-1.3-0.4-2c0.3-0.7,0.9-1.1,1.6-1.2c0.1,0,0.3-0.1,0.3-0.2c0.8-1.1,1.6-2.2,2.4-3.3
			c0-0.1,0.1-0.1,0.1-0.2c-0.1-0.1-0.2-0.1-0.3-0.2c-1.6-0.9-2.3-2.9-1.8-4.8c0.5-1.9,2.1-3,4-2.8c0.3,0,0.5-0.1,0.6-0.4
			c1.2-2.5,4.1-3.5,6.6-2.2c0.1,0.1,0.2,0.1,0.3,0.2c1.5-2,3.4-2.6,5.8-1.9c0.1-0.1,0.2-0.3,0.3-0.5c0.9-1.5,2.6-2.2,4.3-1.7
			c1.8,0.5,3,2,3,3.7c0,0.3,0.1,0.5,0.4,0.6c0.2,0.1,0.5,0.2,0.7,0.4c0.3,0.2,0.4,0.6,0.2,0.9c-0.2,0.3-0.5,0.4-0.8,0.3
			c-0.4-0.1-0.7-0.3-1.1-0.5c-0.5-0.2-0.7-0.7-0.7-1.2c0-1.6-0.9-2.6-2.4-2.9c-1.2-0.2-2.2,0.3-2.8,1.4c-0.5,0.9-0.9,1.1-1.8,0.8
			c-1.5-0.5-3.1,0-4,1.3c-0.6,0.8-1,0.9-1.9,0.4c-1.9-1.1-4.2-0.3-5,1.7c-0.4,0.9-0.6,1-1.6,0.9c-1.5-0.1-2.5,0.5-2.9,1.9
			c-0.4,1.4,0.1,2.7,1.4,3.4c0.5,0.3,0.8,0.7,0.7,1.3c-0.1,1.7,0.8,3,2.3,3.4c1.5,0.4,2.9-0.3,3.7-1.8c0.4-0.7,0.8-0.9,1.6-0.6
			c1.4,0.5,2.7,0.2,3.8-0.9c0.6-0.6,1.4-0.5,1.9,0.2c0.9,1.4,2.4,1.8,3.9,1.2c0.9-0.3,1.5,0,1.7,1c0.3,1.4,1.3,2.3,2.7,2.3
			c1.3,0,2.4-0.9,2.6-2.3c0.2-0.8,0.5-1.1,1.3-1.1c0.2,0,0.5-0.1,0.7-0.1c1.5-0.4,2.1-1.4,2-3c-0.1-1.3-1.2-2.4-2.6-2.5
			c-0.1,0-0.2,0-0.2,0c-1,0-1.4-0.3-1.5-1.3c0-0.4-0.1-0.7-0.2-1c-0.1-0.5,0-0.8,0.4-1c0.4-0.1,0.7,0.1,0.8,0.6
			c0.1,0.5,0.3,1,0.4,1.5c2.2,0.1,3.7,1.1,4.1,3.4c0.4,1.9-0.3,3.4-2,4.2c0.5,1.1,1.1,2.1,1.6,3.1c0.2,0.4,0.3,0.7,0.7,0.9
			c1.5,0.9,1.4,3.1-0.1,4c-0.2,0.1-0.4,0.3-0.4,0.5c-0.8,2.4-2.5,3.9-5,4.2c-0.1,0-0.1,0-0.2,0c0,0.9-0.1,1.8-0.1,2.6
			c0,0.1,0,0.3-0.1,0.4c-0.1,0.4-0.4,0.6-0.7,0.6c-0.3-0.1-0.6-0.3-0.5-0.7c0-0.5,0.1-0.9,0.1-1.4c-0.1-1.2-0.2-2.5-0.4-3.7
			c-0.1-0.9-0.1-1.8,0.2-2.6c0.3-1.3,0.6-2.6,0.9-4c0-0.2,0-0.3,0.1-0.6c-1.2,0.6-2.5,0.7-3.7,0.1c-1.2-0.6-2-1.6-2.3-3
			c-1,0.4-2,0.4-3,0.1c-1-0.3-1.8-0.9-2.4-1.8c-1.5,1.4-3.2,1.7-5.1,1.1c-0.6,1.2-1.5,2-2.8,2.4c-1.3,0.4-2.5,0.1-3.7-0.6
			c0,0.5,0,0.9,0,1.3c0,0.5-0.2,0.7-0.6,0.8c-0.4,0-0.7-0.2-0.7-0.7c0-0.6-0.1-1.2,0-1.8c0.1-0.7-0.1-1.2-0.5-1.8
			c-0.5,0.7-1,1.4-1.5,2.2c0,0.1,0,0.3,0,0.3c0.9,1.2,0.2,2.9-1.2,3.1c-0.1,0-0.2,0.2-0.2,0.3c-0.1,1.4,0,2.7,0.7,3.9
			c0.8,1.4,2,2.1,3.7,2.3c0.2-1.1,0.5-2.2,0.1-3.3c-0.2-0.6-0.4-1.2-0.5-1.9c-0.1-0.4,0.1-0.8,0.4-0.9c0.3-0.1,0.6,0.1,0.8,0.5
			c0.2,0.7,0.4,1.5,0.6,2.2c0.2,0.9,0.2,1.8,0,2.7c-0.4,1.9-0.5,3.8,0,5.7c0.9,3.3,3.2,4.9,6.5,4.3c1-0.2,1.9-0.5,2.9-0.8
			c0.2-0.1,0.3-0.2,0.3-0.5c0-0.4,0.1-0.9-0.1-1.2c-0.1-0.3-0.7-0.3-1-0.5c-1.7-0.8-2.7-2.2-2.9-4.1c-0.2-1.5,0.7-2.8,2.2-3.3
			c1.6-0.5,3.2-0.5,4.7,0c1.9,0.7,2.6,2.3,2,4.2c-0.6,1.8-1.7,3-3.5,3.4c-0.2,0.1-0.3,0.2-0.3,0.4c0,0.1,0,0.3,0,0.4c0,1,0,1,1,1.3
			c1.5,0.5,3.1,0.8,4.7,0.5c1.5-0.3,2.5-1.1,3.3-2.3c0.3-0.6,0.6-0.7,1-0.5c0.4,0.2,0.4,0.6,0,1.2c-1.4,2.3-3.5,3.2-6,3
			c-0.3,0-0.7,0-0.9-0.1c-0.4,0.6-0.8,1.2-1.2,1.7c-0.5,0.6-1.3,0.9-2,1.1C24.8,47,24.5,47,24.2,47z M24.6,33.3
			c-0.7,0.2-1.5,0.3-2.2,0.6c-0.7,0.3-1.1,0.8-1.1,1.6c-0.1,1.6,1.5,3.4,3,3.5c1.6,0.2,3.2-1.1,3.6-2.9c0.2-1.1-0.1-2-1.2-2.3
			C26.1,33.5,25.4,33.5,24.6,33.3z M36.5,33.4c1.7,0.1,3.8-1.5,4-3.2c-1-0.4-1.7-1.1-1.7-2.2c-0.1-1.2,0.6-2,1.7-2.4
			c-0.4-1.2-1.1-2.2-1.8-3.2c-0.2-0.2-0.6-0.1-0.7,0.2c-0.1,0.2-0.1,0.4-0.2,0.6c-0.1,0.3-0.3,0.7-0.3,1c-0.1,1.9-0.4,3.7-1,5.5
			C36,31,36.1,32.2,36.5,33.4z M27,43.9c-0.7-0.3-1.4-0.5-2.1-0.8c-0.1,0-0.2,0-0.2,0c-0.7,0.3-1.4,0.5-2.2,0.8
			c0.2,0.9,1.1,1.7,2.2,1.7C25.7,45.7,26.7,45,27,43.9z M42.1,27.9c0-0.6-0.4-1.1-1-1.1c-0.6,0-1,0.4-1.1,1c0,0.6,0.4,1.1,1,1.1
			C41.6,29,42.1,28.5,42.1,27.9z M8.5,25.7c0.3,0,0.6-0.3,0.6-0.7c0-0.4-0.3-0.6-0.6-0.6c-0.3,0-0.6,0.3-0.6,0.6
			C7.9,25.4,8.2,25.7,8.5,25.7z"/>
	</mask>
	<path class="st5" d="M24.2,47c-0.4-0.2-0.9-0.3-1.3-0.5c-0.9-0.5-1.5-1.3-1.7-2.2c-0.6,0-1.2,0-1.8,0c-3.2-0.2-5.3-1.9-6.2-5.1
		c-0.4-1.3-0.5-2.6-0.4-3.9c0-0.2,0-0.3,0-0.5c-0.4-0.1-0.9-0.1-1.3-0.3c-2.3-0.7-3.7-2.4-4.1-4.9c-0.1-0.9-0.1-1.8-0.1-2.7
		c0-0.2-0.1-0.4-0.2-0.5c-0.5-0.6-0.7-1.3-0.4-2c0.3-0.7,0.9-1.1,1.6-1.2c0.1,0,0.3-0.1,0.3-0.2c0.8-1.1,1.6-2.2,2.4-3.3
		c0-0.1,0.1-0.1,0.1-0.2c-0.1-0.1-0.2-0.1-0.3-0.2c-1.6-0.9-2.3-2.9-1.8-4.8c0.5-1.9,2.1-3,4-2.8c0.3,0,0.5-0.1,0.6-0.4
		c1.2-2.5,4.1-3.5,6.6-2.2c0.1,0.1,0.2,0.1,0.3,0.2c1.5-2,3.4-2.6,5.8-1.9c0.1-0.1,0.2-0.3,0.3-0.5c0.9-1.5,2.6-2.2,4.3-1.7
		c1.8,0.5,3,2,3,3.7c0,0.3,0.1,0.5,0.4,0.6c0.2,0.1,0.5,0.2,0.7,0.4c0.3,0.2,0.4,0.6,0.2,0.9c-0.2,0.3-0.5,0.4-0.8,0.3
		c-0.4-0.1-0.7-0.3-1.1-0.5c-0.5-0.2-0.7-0.7-0.7-1.2c0-1.6-0.9-2.6-2.4-2.9c-1.2-0.2-2.2,0.3-2.8,1.4c-0.5,0.9-0.9,1.1-1.8,0.8
		c-1.5-0.5-3.1,0-4,1.3c-0.6,0.8-1,0.9-1.9,0.4c-1.9-1.1-4.2-0.3-5,1.7c-0.4,0.9-0.6,1-1.6,0.9c-1.5-0.1-2.5,0.5-2.9,1.9
		c-0.4,1.4,0.1,2.7,1.4,3.4c0.5,0.3,0.8,0.7,0.7,1.3c-0.1,1.7,0.8,3,2.3,3.4c1.5,0.4,2.9-0.3,3.7-1.8c0.4-0.7,0.8-0.9,1.6-0.6
		c1.4,0.5,2.7,0.2,3.8-0.9c0.6-0.6,1.4-0.5,1.9,0.2c0.9,1.4,2.4,1.8,3.9,1.2c0.9-0.3,1.5,0,1.7,1c0.3,1.4,1.3,2.3,2.7,2.3
		c1.3,0,2.4-0.9,2.6-2.3c0.2-0.8,0.5-1.1,1.3-1.1c0.2,0,0.5-0.1,0.7-0.1c1.5-0.4,2.1-1.4,2-3c-0.1-1.3-1.2-2.4-2.6-2.5
		c-0.1,0-0.2,0-0.2,0c-1,0-1.4-0.3-1.5-1.3c0-0.4-0.1-0.7-0.2-1c-0.1-0.5,0-0.8,0.4-1c0.4-0.1,0.7,0.1,0.8,0.6
		c0.1,0.5,0.3,1,0.4,1.5c2.2,0.1,3.7,1.1,4.1,3.4c0.4,1.9-0.3,3.4-2,4.2c0.5,1.1,1.1,2.1,1.6,3.1c0.2,0.4,0.3,0.7,0.7,0.9
		c1.5,0.9,1.4,3.1-0.1,4c-0.2,0.1-0.4,0.3-0.4,0.5c-0.8,2.4-2.5,3.9-5,4.2c-0.1,0-0.1,0-0.2,0c0,0.9-0.1,1.8-0.1,2.6
		c0,0.1,0,0.3-0.1,0.4c-0.1,0.4-0.4,0.6-0.7,0.6c-0.3-0.1-0.6-0.3-0.5-0.7c0-0.5,0.1-0.9,0.1-1.4c-0.1-1.2-0.2-2.5-0.4-3.7
		c-0.1-0.9-0.1-1.8,0.2-2.6c0.3-1.3,0.6-2.6,0.9-4c0-0.2,0-0.3,0.1-0.6c-1.2,0.6-2.5,0.7-3.7,0.1c-1.2-0.6-2-1.6-2.3-3
		c-1,0.4-2,0.4-3,0.1c-1-0.3-1.8-0.9-2.4-1.8c-1.5,1.4-3.2,1.7-5.1,1.1c-0.6,1.2-1.5,2-2.8,2.4c-1.3,0.4-2.5,0.1-3.7-0.6
		c0,0.5,0,0.9,0,1.3c0,0.5-0.2,0.7-0.6,0.8c-0.4,0-0.7-0.2-0.7-0.7c0-0.6-0.1-1.2,0-1.8c0.1-0.7-0.1-1.2-0.5-1.8
		c-0.5,0.7-1,1.4-1.5,2.2c0,0.1,0,0.3,0,0.3c0.9,1.2,0.2,2.9-1.2,3.1c-0.1,0-0.2,0.2-0.2,0.3c-0.1,1.4,0,2.7,0.7,3.9
		c0.8,1.4,2,2.1,3.7,2.3c0.2-1.1,0.5-2.2,0.1-3.3c-0.2-0.6-0.4-1.2-0.5-1.9c-0.1-0.4,0.1-0.8,0.4-0.9c0.3-0.1,0.6,0.1,0.8,0.5
		c0.2,0.7,0.4,1.5,0.6,2.2c0.2,0.9,0.2,1.8,0,2.7c-0.4,1.9-0.5,3.8,0,5.7c0.9,3.3,3.2,4.9,6.5,4.3c1-0.2,1.9-0.5,2.9-0.8
		c0.2-0.1,0.3-0.2,0.3-0.5c0-0.4,0.1-0.9-0.1-1.2c-0.1-0.3-0.7-0.3-1-0.5c-1.7-0.8-2.7-2.2-2.9-4.1c-0.2-1.5,0.7-2.8,2.2-3.3
		c1.6-0.5,3.2-0.5,4.7,0c1.9,0.7,2.6,2.3,2,4.2c-0.6,1.8-1.7,3-3.5,3.4c-0.2,0.1-0.3,0.2-0.3,0.4c0,0.1,0,0.3,0,0.4c0,1,0,1,1,1.3
		c1.5,0.5,3.1,0.8,4.7,0.5c1.5-0.3,2.5-1.1,3.3-2.3c0.3-0.6,0.6-0.7,1-0.5c0.4,0.2,0.4,0.6,0,1.2c-1.4,2.3-3.5,3.2-6,3
		c-0.3,0-0.7,0-0.9-0.1c-0.4,0.6-0.8,1.2-1.2,1.7c-0.5,0.6-1.3,0.9-2,1.1C24.8,47,24.5,47,24.2,47z M24.6,33.3
		c-0.7,0.2-1.5,0.3-2.2,0.6c-0.7,0.3-1.1,0.8-1.1,1.6c-0.1,1.6,1.5,3.4,3,3.5c1.6,0.2,3.2-1.1,3.6-2.9c0.2-1.1-0.1-2-1.2-2.3
		C26.1,33.5,25.4,33.5,24.6,33.3z M36.5,33.4c1.7,0.1,3.8-1.5,4-3.2c-1-0.4-1.7-1.1-1.7-2.2c-0.1-1.2,0.6-2,1.7-2.4
		c-0.4-1.2-1.1-2.2-1.8-3.2c-0.2-0.2-0.6-0.1-0.7,0.2c-0.1,0.2-0.1,0.4-0.2,0.6c-0.1,0.3-0.3,0.7-0.3,1c-0.1,1.9-0.4,3.7-1,5.5
		C36,31,36.1,32.2,36.5,33.4z M27,43.9c-0.7-0.3-1.4-0.5-2.1-0.8c-0.1,0-0.2,0-0.2,0c-0.7,0.3-1.4,0.5-2.2,0.8
		c0.2,0.9,1.1,1.7,2.2,1.7C25.7,45.7,26.7,45,27,43.9z M42.1,27.9c0-0.6-0.4-1.1-1-1.1c-0.6,0-1,0.4-1.1,1c0,0.6,0.4,1.1,1,1.1
		C41.6,29,42.1,28.5,42.1,27.9z M8.5,25.7c0.3,0,0.6-0.3,0.6-0.7c0-0.4-0.3-0.6-0.6-0.6c-0.3,0-0.6,0.3-0.6,0.6
		C7.9,25.4,8.2,25.7,8.5,25.7z"/>
	<path class="st6" d="M19.9,2.8L19.9,2.8L19.9,2.8L19.9,2.8c-0.4,0-0.6,0-0.9,0l0,0l0,0c-0.1,0-0.1,0.1-0.2,0.1l0,0
		c0,0-0.1,0-0.1,0.1c-0.9,0.4-1.4,1.4-1.2,2.4c0.2,0.9,1.1,1.7,2,1.7c1,0,1.8-0.7,2-1.7c0.2-1-0.3-2-1.2-2.4c0,0-0.1,0-0.1-0.1l0,0
		C20,2.9,19.9,2.9,19.9,2.8z M19.4,4.5L19.4,4.5L19.4,4.5c0.2,0,0.4,0.2,0.5,0.4c0,0.3-0.2,0.5-0.4,0.5C19.2,5.4,19,5.2,19,5h0l0,0
		C18.9,4.7,19.2,4.5,19.4,4.5z"/>
	<path class="st6" d="M38.8,6.1L38.8,6.1c-0.7,0-1.3,0.6-1.3,1.3v0c0,0.7,0.6,1.3,1.3,1.3c0.7,0,1.3-0.6,1.3-1.3L38.8,6.1z
		 M38.8,6.1c0.7,0,1.3,0.6,1.3,1.3L38.8,6.1z M38.8,10.4L38.8,10.4c1.6,0,2.9-1.3,2.9-2.9v0c0-1.6-1.3-3-2.9-3l0,0
		c-1.6,0-2.9,1.3-2.9,3C35.9,9.1,37.2,10.4,38.8,10.4z"/>
	<path class="st6" d="M8.3,40L8.3,40c1.4,0,2.5-1.1,2.5-2.5c0-1.4-1.1-2.6-2.5-2.5h0c-1.4,0-2.5,1.1-2.5,2.5C5.8,38.9,6.9,40,8.3,40
		z M8.3,38.4L8.3,38.4c-0.5,0-0.9-0.4-0.9-0.9l-0.2,0l0.2,0c0-0.5,0.4-0.9,0.9-0.9c0.5,0,0.9,0.4,0.9,0.9C9.2,38,8.8,38.4,8.3,38.4z
		"/>
	<path class="st6" d="M12.2,7.5L12.2,7.5c0,1.4-1.1,2.5-2.5,2.5c-1.4,0-2.5-1.1-2.5-2.5c0,0,0,0,0,0h0.2L12.2,7.5z M12.2,7.5
		c0-1.4-1.1-2.6-2.5-2.6L12.2,7.5z M9.7,6.5c0.5,0,0.9,0.4,0.9,0.9l0.2,0l-0.2,0c0,0.5-0.4,0.9-0.8,0.9C9.3,8.3,8.9,8,8.9,7.4
		C8.9,6.9,9.3,6.6,9.7,6.5z"/>
	<path class="st6" d="M24,23.4L24,23.4c-1.1,0-2.1,1-2,2.1l0,0c0,1.1,0.9,2.1,2,2.1h0c1.1,0,2.1-0.9,2.1-2.1
		C26.1,24.3,25.2,23.4,24,23.4z M24,26L24,26L24,26c-0.3,0-0.4-0.2-0.4-0.5c0-0.2,0.2-0.4,0.5-0.4c0.2,0,0.4,0.2,0.4,0.4h0l0,0
		C24.5,25.8,24.3,26,24,26z"/>
	<path class="st2" d="M29.3,29.8c0-0.2,0-0.3,0-0.5c0-0.4,0.3-0.6,0.6-0.6c0.4,0,0.6,0.2,0.6,0.6c0,0.4,0,0.8,0,1.2
		c0,0.4-0.3,0.6-0.6,0.6c-0.3,0-0.6-0.3-0.6-0.6C29.3,30.2,29.3,30,29.3,29.8z"/>
	<path class="st2" d="M20.1,29.8c0,0.2,0,0.4,0,0.6c0,0.4-0.3,0.6-0.6,0.6c-0.4,0-0.6-0.2-0.6-0.6c0-0.4,0-0.8,0-1.2
		c0-0.4,0.3-0.6,0.6-0.6c0.3,0,0.6,0.3,0.6,0.6C20.1,29.5,20.1,29.7,20.1,29.8z"/>
	<path class="st1" d="M19.4,5.6c-0.3,0-0.6-0.3-0.6-0.6c0-0.4,0.3-0.7,0.6-0.7c0.3,0,0.6,0.3,0.6,0.6C20,5.3,19.8,5.6,19.4,5.6z"/>
	<path class="st1" d="M38.8,8.9c-0.8,0-1.5-0.6-1.5-1.5c0-0.8,0.6-1.5,1.4-1.5c0.8,0,1.5,0.7,1.5,1.5C40.3,8.3,39.6,8.9,38.8,8.9z"
		/>
	<path class="st1" d="M9.3,37.5c0,0.6-0.5,1.1-1,1.1c-0.6,0-1.1-0.5-1-1.1c0-0.6,0.5-1.1,1.1-1.1C8.9,36.4,9.3,36.9,9.3,37.5z"/>
	<path class="st1" d="M10.8,7.4c0,0.6-0.4,1.1-1,1.1C9.2,8.5,8.7,8,8.7,7.4c0-0.6,0.5-1.1,1-1.1C10.3,6.4,10.8,6.8,10.8,7.4z"/>
</g>
<g id="圖層_2">
	<g>
		<g>
			<path class="st7" d="M30.7,14.6L28.6,14c-0.6-0.2-1.3-0.3-1.9-0.2c-3.4,0.1-7.3,2.9-6.7,6.3l1.2,0.9l5.9,1l6.1-1L30.7,14.6z"/>
			<path class="st8" d="M42,11.4v5.2c0,1.8-1,3.4-2.5,4.3c-2.2,0.7-4.2,0.8-6.3,0c-1.5-0.9-2.5-2.5-2.5-4.3c0-1.1,0-4,0-5.2l3.1,1.4
				c1.6-0.7,3.5-0.7,5.1,0L42,11.4z"/>
			<ellipse class="st7" cx="26" cy="6.2" rx="1.9" ry="1.7"/>
			<path class="st7" d="M6.1,24.4v8.7c12.6,1.2,25.2,1.2,37.8,0v-8.7H6.1z"/>
			<path class="st7" d="M11.8,25.3c-0.9,0-4.6,0-6.1,0c-1.3,0-2.4-1-2.4-2.2c0-1.2,1.1-2.2,2.4-2.2c1,0,1.8,0,2.8,0
				c1.8,0,3.3,1.4,3.3,3C11.8,24.1,11.8,24.9,11.8,25.3z"/>
			<path class="st7" d="M18.4,40.9l-1.9,3.5h-3.8v-3.5C14.4,40,16.3,40.1,18.4,40.9z"/>
			<path class="st7" d="M37.3,40.9v3.5h-3.8l-1.9-3.5C33.5,40.3,35.4,40.3,37.3,40.9z"/>
			<path class="st8" d="M43.9,33.1v2.8c0,2.8-2.5,5-5.5,5c-12.3,0-14.5,0-26.8,0c-3,0-5.5-2.3-5.5-5v-2.8H43.9z"/>
			<path class="st7" d="M46.7,23.1c0,1.2-1.1,2.2-2.4,2.2c-1.4,0-27.5,0-28.8,0c0-0.2,0-1,0-1.3c0-1.7,1.5-3,3.3-3
				c7.9,0,17.6,0,25.5,0C45.7,20.9,46.7,21.9,46.7,23.1z"/>
			<path class="st7" d="M26.7,13.8c-3.4,0.1-6.3,3-5.6,6.4l0.2,0.8h-1.4c-1.8,0-3.3,1.4-3.3,3c0,1.1,0,1.9,0,3
				c0,1.4-1.3,2.6-2.8,2.6c-1.6,0-2.8-1.2-2.8-2.6c0-1,0-1.9,0-3c0-1.7-1.5-3-3.3-3H6.1c-0.6-0.7-0.9-1.6-0.9-2.6
				c0-2.8,2.8-4.9,5.8-4.2c-0.7-2.2,1.1-4.5,3.6-4.5c1.2,0,2.3,0.5,3,1.3C20.9,9.8,24.7,11,26.7,13.8z"/>
			<path class="st9" d="M38.7,21.4c-0.3-0.4-0.2-0.9,0.3-1.2c1.3-0.8,2.1-2.2,2.1-3.6v-3.8l-1.8,0.8c-0.3,0.1-0.6,0.1-0.8,0
				c-1.3-0.6-2.9-0.6-4.2,0c-0.3,0.1-0.6,0.1-0.8,0l-1.8-0.8v3.8c0,1.5,0.8,2.8,2.1,3.6c0.4,0.3,0.6,0.8,0.3,1.2
				c-0.3,0.4-0.9,0.5-1.3,0.2c-1.8-1.1-3-3-3-5.1v-5.2c0-0.6,0.7-1.1,1.4-0.8l2.7,1.2c1.6-0.6,3.4-0.6,5.1,0l2.7-1.2
				c0.3-0.1,0.6-0.1,0.9,0c0.3,0.2,0.4,0.4,0.4,0.7v5.2c0,2-1.1,3.9-3,5.1C39.6,21.9,39,21.8,38.7,21.4z"/>
			<path class="st9" d="M36.6,18.9l-0.3-0.3l-0.3,0.3c-0.4,0.3-1,0.3-1.3,0c-0.4-0.3-0.4-0.9,0-1.2l0.9-0.9c0.4-0.3,1-0.3,1.3,0
				l0.9,0.9c0.4,0.3,0.4,0.9,0,1.2C37.6,19.3,37,19.3,36.6,18.9z"/>
			<path class="st9" d="M36.3,18.3c-0.5,0-0.9-0.4-0.9-0.9v-0.9c0-0.5,0.4-0.9,0.9-0.9s0.9,0.4,0.9,0.9v0.9
				C37.3,17.9,36.9,18.3,36.3,18.3z"/>
			<path class="st9" d="M20.3,21.1l-0.2-0.8c-0.4-2.2,0.4-4.3,2.2-5.8c1.8-1.5,4.2-1.9,6.5-1.3l2.1,0.6c0.5,0.1,0.8,0.6,0.6,1.1
				c-0.2,0.5-0.7,0.7-1.2,0.6l-2.1-0.6c-1.7-0.5-3.4-0.1-4.7,0.9c-1.3,1.1-1.9,2.6-1.6,4.2l0.2,0.8c0.1,0.5-0.2,0.9-0.8,1
				C20.9,21.9,20.4,21.6,20.3,21.1z"/>
			<path class="st9" d="M26.8,21.8c-0.5,0-0.9-0.5-0.9-0.9c0.1-0.6,0-1.2-0.6-1.5c-0.3-0.2-0.5-0.5-0.4-0.8l0,0
				c0.1-0.6,0.9-1,1.4-0.6c0.8,0.5,1.6,1.4,1.4,3.1C27.8,21.5,27.3,21.8,26.8,21.8z"/>
			<path class="st9" d="M38.4,41.7H11.6c-3.5,0-6.4-2.6-6.4-5.9V25.3c0-0.5,0.4-0.9,0.9-0.9c0.5,0,0.9,0.4,0.9,0.9v10.6
				c0,2.3,2,4.2,4.5,4.2h26.8c2.5,0,4.5-1.9,4.5-4.2V25.3c0-0.5,0.4-0.9,0.9-0.9s0.9,0.4,0.9,0.9v10.6C44.8,39.1,42,41.7,38.4,41.7z
				"/>
			<path class="st9" d="M16.5,45.2h-3.8c-0.5,0-0.9-0.4-0.9-0.9v-3.5c0-0.5,0.4-0.9,0.9-0.9h5.7c0.3,0,0.6,0.2,0.8,0.4
				c0.2,0.3,0.2,0.6,0,0.8l-1.9,3.5C17.2,45,16.9,45.2,16.5,45.2z M13.7,43.5h2.2l0.9-1.7h-3.2V43.5z"/>
			<path class="st9" d="M37.3,45.2h-3.8c-0.4,0-0.7-0.2-0.8-0.5l-1.9-3.5c-0.3-0.6,0.1-1.3,0.8-1.3h5.7c0.5,0,0.9,0.4,0.9,0.9v3.5
				C38.2,44.8,37.8,45.2,37.3,45.2z M34.1,43.5h2.2v-1.7h-3.2L34.1,43.5z"/>
			<path class="st9" d="M5.4,21.5c-0.7-0.9-1.1-2-1.1-3.1c0-2.9,2.5-5.2,5.7-5.2c0-2.4,2.1-4.3,4.7-4.3c1.2,0,2.4,0.4,3.2,1.2
				c3.5-1,7.5,0.2,9.6,3.3c0.3,0.4,0.1,0.9-0.3,1.2c-0.4,0.3-1,0.1-1.3-0.3c-1.7-2.5-5.1-3.4-7.9-2.4c-0.4,0.1-0.8,0-1.1-0.3
				c-0.5-0.6-1.4-1-2.2-1c-1.9,0-3.3,1.7-2.7,3.3c0.1,0.3,0,0.6-0.2,0.8c-0.2,0.2-0.6,0.3-0.9,0.2c-2.4-0.5-4.7,1.2-4.7,3.4
				c0,0.8,0.3,1.5,0.8,2.1c0.3,0.4,0.2,0.9-0.2,1.2C6.3,21.9,5.7,21.8,5.4,21.5z"/>
			<path class="st9" d="M26,8.8c-1.6,0-2.8-1.2-2.8-2.6c0-1.4,1.3-2.6,2.8-2.6s2.8,1.2,2.8,2.6C28.8,7.6,27.5,8.8,26,8.8z M26,5.3
				c-0.5,0-0.9,0.4-0.9,0.9c0,0.5,0.4,0.9,0.9,0.9c0.5,0,0.9-0.4,0.9-0.9C26.9,5.7,26.5,5.3,26,5.3z"/>
			<path class="st9" d="M44.4,20.1H19.8c-2.3,0-4.2,1.8-4.2,3.9c0,0.8,0,2.3,0,3c0,1-0.8,1.7-1.9,1.7S11.8,28,11.8,27c0-1,0-1.9,0-3
				c0-2.2-1.9-3.9-4.2-3.9H5.7c-1.8,0-3.3,1.4-3.3,3c0,1.7,1.5,3,3.3,3h4.2V27c0,1.9,1.7,3.5,3.8,3.5s3.8-1.6,3.8-3.5v-0.9h26.9
				c1.8,0,3.3-1.4,3.3-3C47.7,21.4,46.2,20.1,44.4,20.1z M5.7,24.4c-0.8,0-1.4-0.6-1.4-1.3c0-0.7,0.6-1.3,1.4-1.3h1.9
				c1.3,0,2.4,1,2.4,2.2v0.4H5.7z M44.4,24.4H17.5V24c0-1.2,1.1-2.2,2.4-2.2h24.5c0.8,0,1.4,0.6,1.4,1.3
				C45.8,23.8,45.1,24.4,44.4,24.4z"/>
			<path class="st9" d="M43.9,33.9H6.1c-0.5,0-0.9-0.4-0.9-0.9c0-0.5,0.4-0.9,0.9-0.9h37.8c0.5,0,0.9,0.4,0.9,0.9
				C44.8,33.5,44.4,33.9,43.9,33.9z"/>
		</g>
	</g>
</g>
</svg>
