<?xml version="1.0" encoding="utf-8"?>
<!-- Generator: Adobe Illustrator 26.0.2, SVG Export Plug-In . SVG Version: 6.00 Build 0)  -->
<svg version="1.1" xmlns="http://www.w3.org/2000/svg" xmlns:xlink="http://www.w3.org/1999/xlink" x="0px" y="0px"
	 viewBox="0 0 21 12" style="enable-background:new 0 0 21 12;" xml:space="preserve">
<style type="text/css">
	.st0{display:none;}
	.st1{display:inline;fill:#2A2968;}
	.st2{fill:#FFFFFF;}
</style>
<g id="圖層_1" class="st0">
	<path class="st1" d="M14.8,4.2H0.9c-0.1,0-0.3,0.1-0.4,0.2C0.4,4.4,0.4,4.6,0.4,4.7l0,2.6c0,0.1,0.1,0.3,0.2,0.4
		c0.1,0.1,0.2,0.2,0.4,0.2h13.9V10c0,0.2,0.1,0.4,0.2,0.6c0.1,0.2,0.3,0.3,0.5,0.4c0.2,0.1,0.4,0.1,0.6,0.1c0.2,0,0.4-0.2,0.6-0.3
		l4-4c0.1-0.1,0.2-0.2,0.2-0.4C21,6.3,21,6.1,21,6c0-0.1,0-0.3-0.1-0.4c-0.1-0.1-0.1-0.3-0.2-0.4l-4-4C16.6,1.1,16.4,1,16.1,1
		c-0.2,0-0.4,0-0.6,0.1c-0.2,0.1-0.4,0.2-0.5,0.4c-0.1,0.2-0.2,0.4-0.2,0.6V4.2z"/>
</g>
<g id="圖層_2">
	<g>
		<path class="st2" d="M16.4,7.5H2.5C2,7.5,1.7,7.2,1.7,6.7V5c0-0.4,0.4-0.8,0.8-0.8h13.9c0.4,0,0.8,0.4,0.8,0.8v1.7
			C17.2,7.2,16.8,7.5,16.4,7.5z"/>
		<path class="st2" d="M20.3,5.3L16,1.9c-0.6-0.5-1.5-0.1-1.5,0.7v6.8c0,0.8,0.9,1.2,1.5,0.7l4.2-3.4C20.7,6.3,20.7,5.7,20.3,5.3z"
			/>
	</g>
</g>
</svg>
