<svg xmlns="http://www.w3.org/2000/svg" width="35.877" height="34.998" viewBox="0 0 35.877 34.998">
  <g id="nrcj9H.tif" transform="translate(237.01 -10.03)">
    <g id="Group_537" data-name="Group 537" transform="translate(-236.51 10.529)">
      <path id="Path_705" data-name="Path 705" d="M-201.633,39.246c-.056.252-.107.5-.169.755a5.868,5.868,0,0,1-5.726,4.511q-11.543.03-23.087,0a5.872,5.872,0,0,1-5.887-5.965c-.005-4.835-.017-9.67.005-14.506a5.791,5.791,0,0,1,3.456-5.49.335.335,0,0,0,.231-.355c-.013-.442-.007-.885,0-1.328a1.719,1.719,0,0,1,1.782-1.815,1.759,1.759,0,0,1,2.017,1.986c0,.3,0,.61,0,.939h1.072c0-.141,0-.284,0-.428a22.131,22.131,0,0,1,.088-2.853,4.866,4.866,0,0,1,4.8-4.146c1.6-.033,3.2-.009,4.8-.005.411,0,.622.188.616.517s-.219.5-.637.5c-1.555,0-3.11-.008-4.665,0a3.883,3.883,0,0,0-3.93,3.394,25.9,25.9,0,0,0-.02,3.015h1.94c0-.746,0-1.481,0-2.215a3.213,3.213,0,0,1,.057-.709,1.933,1.933,0,0,1,1.8-1.5c.362-.022.726-.011,1.089-.011q3.32,0,6.64,0a1.984,1.984,0,0,1,2.163,2.156c0,.757,0,1.514,0,2.288h2.029a24.559,24.559,0,0,0-.2-3.423,3.815,3.815,0,0,0-3.807-3c-.329-.006-.659.009-.986-.022a.458.458,0,0,1-.436-.515.459.459,0,0,1,.447-.474,5.385,5.385,0,0,1,4.406,1.362,4.8,4.8,0,0,1,1.537,3.415c.024.872,0,1.744,0,2.643h1.078c0-.362,0-.732,0-1.1a1.715,1.715,0,0,1,1.807-1.821A1.753,1.753,0,0,1-205.322,17c0,.408-.01.818.007,1.225a.38.38,0,0,0,.16.282,5.925,5.925,0,0,1,3.484,4.748c0,.02.025.036.038.055ZM-219.1,43.5c3.824,0,7.648.007,11.472,0a4.88,4.88,0,0,0,4.973-4.983q.006-7.251,0-14.5a4.9,4.9,0,0,0-4.976-4.986q-11.438,0-22.876,0a4.9,4.9,0,0,0-4.972,4.955q-.007,7.285,0,14.57a5.033,5.033,0,0,0,.1,1.046,4.869,4.869,0,0,0,4.869,3.9C-226.7,43.5-222.9,43.5-219.1,43.5Zm4.887-25.506c0-.822.008-1.614,0-2.406a.939.939,0,0,0-1.02-1.02q-3.83-.012-7.661,0a.945.945,0,0,0-1.023,1.052c-.007.715,0,1.43,0,2.145a1.609,1.609,0,0,0,.033.229Zm-15.823-.022c0-.419.012-.814,0-1.209a.685.685,0,0,0-.729-.687c-.624-.03-.964.152-1,.606s-.009.943-.009,1.407Zm23.688.118c0-.459.019-.91-.006-1.36a.672.672,0,0,0-.693-.651c-.612-.04-.974.121-1.022.537a11.933,11.933,0,0,0-.012,1.359Z" transform="translate(236.51 -10.529)" fill="#2a2968" stroke="#2a2968" stroke-width="1"/>
      <path id="Path_706" data-name="Path 706" d="M-217.509,56.673c-3.8,0-7.6.006-11.4,0a4.869,4.869,0,0,1-4.869-3.9,5.034,5.034,0,0,1-.1-1.046q-.01-7.285,0-14.57a4.9,4.9,0,0,1,4.972-4.955q11.438,0,22.876,0a4.9,4.9,0,0,1,4.976,4.986q.006,7.251,0,14.5a4.88,4.88,0,0,1-4.973,4.983C-209.861,56.681-213.684,56.673-217.509,56.673Zm3.906-16.1c0-1.215,0-2.382,0-3.55a1.9,1.9,0,0,0-2-2.01q-1.873-.012-3.745,0a1.894,1.894,0,0,0-1.995,2.02c0,1.055,0,2.111,0,3.166v.374h-.288c-1.135,0-2.27-.009-3.4,0a1.814,1.814,0,0,0-1.834,1.7c-.036,1.44-.031,2.883,0,4.323a1.763,1.763,0,0,0,1.467,1.652,8.633,8.633,0,0,0,1.46.045.473.473,0,0,0,.486-.538.478.478,0,0,0-.524-.467c-.3-.007-.59,0-.885,0a.884.884,0,0,1-1-1.008q-.007-1.839,0-3.677c0-.7.319-1.011,1.026-1.012,1.282,0,2.565,0,3.847,0,.507,0,.672-.165.673-.671,0-1.282,0-2.565,0-3.847,0-.715.324-1.039,1.043-1.042q1.8-.006,3.609,0c.734,0,1.05.326,1.051,1.068q0,1.855,0,3.711c0,.653.127.782.766.782q1.873,0,3.745,0c.724,0,1.033.308,1.035,1.037q0,1.787,0,3.575c0,.787-.3,1.084-1.1,1.085-1.26,0-2.519,0-3.78,0-.515,0-.671.157-.671.667q0,1.89,0,3.779c0,.8-.3,1.1-1.113,1.1q-1.753,0-3.507,0c-.783,0-1.083-.3-1.083-1.1,0-1.282,0-2.565,0-3.847,0-.425-.173-.595-.6-.6q-.46-.009-.919,0c-.351.008-.573.2-.584.487s.221.513.583.531c.155.007.31,0,.5,0v.407c0,1.044,0,2.088,0,3.132a1.883,1.883,0,0,0,2,2.009q1.873.005,3.745,0a1.884,1.884,0,0,0,2-2.006c0-1.056,0-2.111,0-3.167v-.374c1.214,0,2.371.006,3.528,0a1.883,1.883,0,0,0,2.018-2.024q.008-1.855,0-3.711a2.487,2.487,0,0,0-.054-.574,1.86,1.86,0,0,0-1.842-1.428C-211.154,40.566-212.356,40.571-213.6,40.571Z" transform="translate(234.918 -23.705)" fill="#ffdc55" stroke="#2a2968" stroke-width="1"/>
      <path id="Path_707" data-name="Path 707" d="M-202.759,44.925c1.247,0,2.448-.005,3.649,0a1.86,1.86,0,0,1,1.842,1.428,2.484,2.484,0,0,1,.054.574q.007,1.855,0,3.711a1.883,1.883,0,0,1-2.018,2.024c-1.157.008-2.314,0-3.528,0v.374c0,1.056,0,2.111,0,3.167a1.884,1.884,0,0,1-2,2.006q-1.872.005-3.745,0a1.883,1.883,0,0,1-2-2.009c0-1.044,0-2.088,0-3.132v-.407c-.188,0-.343.006-.5,0-.362-.018-.594-.233-.583-.531s.233-.479.584-.487c.307-.007.613-.006.92,0,.425.009.6.179.6.6,0,1.282,0,2.565,0,3.847,0,.791.3,1.094,1.083,1.1q1.753,0,3.507,0c.814,0,1.113-.3,1.114-1.1q0-1.89,0-3.779c0-.511.156-.667.671-.667,1.26,0,2.52,0,3.78,0,.794,0,1.094-.3,1.1-1.085q0-1.787,0-3.575c0-.729-.311-1.037-1.035-1.037q-1.873,0-3.745,0c-.639,0-.766-.129-.766-.782q0-1.855,0-3.711c0-.742-.317-1.065-1.051-1.068q-1.8-.006-3.609,0c-.719,0-1.041.327-1.043,1.042,0,1.282,0,2.565,0,3.847,0,.507-.165.671-.673.671-1.282,0-2.565,0-3.847,0-.707,0-1.023.31-1.026,1.012q-.006,1.838,0,3.677a.884.884,0,0,0,1,1.008c.295.005.59,0,.885,0a.478.478,0,0,1,.524.467.473.473,0,0,1-.486.538,8.631,8.631,0,0,1-1.46-.045,1.763,1.763,0,0,1-1.467-1.652c-.03-1.44-.035-2.883,0-4.323a1.814,1.814,0,0,1,1.834-1.7c1.135-.013,2.27,0,3.4,0h.288v-.374c0-1.056,0-2.111,0-3.166a1.894,1.894,0,0,1,2-2.02q1.873-.014,3.745,0a1.9,1.9,0,0,1,2,2.01C-202.755,42.543-202.759,43.71-202.759,44.925Z" transform="translate(224.074 -28.059)" fill="#2a2968" stroke="#2a2968" stroke-width="1"/>
    </g>
  </g>
</svg>
