<?xml version="1.0" encoding="utf-8"?>
<!-- Generator: Adobe Illustrator 26.0.2, SVG Export Plug-In . SVG Version: 6.00 Build 0)  -->
<svg version="1.1" xmlns="http://www.w3.org/2000/svg" xmlns:xlink="http://www.w3.org/1999/xlink" x="0px" y="0px"
	 viewBox="0 0 50 50" style="enable-background:new 0 0 50 50;" xml:space="preserve">
<style type="text/css">
	.st0{display:none;}
	.st1{display:inline;fill:#FFDC55;}
	.st2{display:inline;fill:#2A2968;stroke:#2A2968;stroke-width:0.5;}
	.st3{fill:#FF5809;}
</style>
<g id="圖層_1" class="st0">
	<path class="st1" d="M15.1,14.7c2.5-5.2,7.5-8.5,13.2-8.9c5.8-0.3,11.4,2.6,14.3,7.8c3.5,6.4,1.5,13.9-2.6,18.1
		c-3.6,3.7-8.3,4.2-8.9,4.3c-4.2,0.4-7.3-1.2-8.5-1.8c-1.2,1.2-2.5,2.3-3.7,3.5c-0.7-0.2-1.4-0.3-2.1-0.5c-1.1,0.9-2.7,2.3-4.4,4.2
		c-1.7,1.9-2.3,3.1-3.3,3.1c-0.6,0-1.9-0.3-3.4-4c2.4-2.5,4.7-4.9,7.1-7.4l-0.1-2.4l3.4-2.8c-0.7-1.1-1.8-3.2-2.2-6.2
		C13.6,18.5,14.6,15.9,15.1,14.7c1.3,0.1,2.6,0.2,3.8,0.3c-0.5,0.8-2.3,3.8-1.7,7.7c0.4,2.5,1.5,4.2,2.2,5.1
		c0.6,0.9,2.3,3.1,5.3,4.3c2.5,1,4.6,0.7,5.7,0.6c1.3-0.1,5.4-0.6,8.2-3.8c3.1-3.6,3.5-9.3,1.8-10.4c-0.9-0.6-2.8-0.1-3.7,0.2
		c-1.3,0.3-1.3,0.7-2.3,0.8c-1.1,0.2-3.2,0.1-4-1.4c-0.8-1.4-0.1-3.3,0.9-4.4c1.8-1.9,4.8-1.1,5-1.8c0.2-0.8-3.7-3.3-7.9-3.1
		c-5.8,0.3-9.5,5.6-10.4,6.8C17,15.4,16,15,15.1,14.7z"/>
	<path class="st2" d="M22.5,35.6c3.7,1.6,7.5,1.9,11.4,0.7c7.7-2.4,12.4-10.1,11.1-18.1l0,0c-1.1-6.4-6-11.7-12.4-13v0l0,0
		C32,5,31.4,4.9,30.8,4.8c-0.2,0-0.4-0.1-0.6-0.1l0,0h0H28h0l0,0c-0.1,0-0.1,0-0.2,0c0,0,0,0,0,0c-0.1,0-0.1,0-0.1,0 M22.5,35.6
		l0.1-0.2L22.5,35.6C22.5,35.6,22.5,35.6,22.5,35.6z M22.5,35.6c-0.1-0.1-0.2-0.1-0.2-0.1c0,0-0.1,0-0.1,0.1l0,0l0,0
		c-0.5,0.5-1,1.1-1.6,1.6l0,0 M20.6,37.2L20.5,37L20.6,37.2L20.6,37.2z M20.6,37.2c-0.9,0.9-2,1.1-3.2,0.8l0,0v0c0,0,0,0,0,0
		c0,0,0,0-0.1,0c-0.1,0-0.1,0-0.1,0.1 M17.2,38.1C17.2,38.1,17.2,38.1,17.2,38.1l-0.1-0.2 M17.2,38.1c-0.1,0.1-0.2,0.1-0.3,0.2
		c0,0,0,0,0,0.1c-0.1,0.1-0.2,0.2-0.2,0.2l0,0l0,0c-0.2,0.2-0.4,0.2-0.6,0.2c-0.2,0-0.4-0.1-0.6-0.3c-0.2-0.2-0.2-0.4-0.2-0.6
		c0-0.2,0.1-0.4,0.2-0.6 M17.2,38.1C17.2,38.1,17.2,38.1,17.2,38.1l-0.1-0.2 M17.1,37.9c0.1-0.1,0.3-0.1,0.4-0.1
		c1.1,0.3,2.1,0,2.9-0.8c0.5-0.5,1-1,1.5-1.5c0.2-0.2,0.3-0.2,0.6-0.1c3.7,1.6,7.4,1.8,11.2,0.7c7.6-2.3,12.2-9.9,10.9-17.8
		c-1.1-6.3-5.9-11.5-12.2-12.8c-0.6-0.1-1.2-0.2-1.8-0.3c-0.2,0-0.4-0.1-0.6-0.1H28c0,0-0.1,0-0.1,0c-0.1,0-0.1,0-0.2,0 M17.1,37.9
		c-0.1,0.1-0.2,0.2-0.3,0.3c-0.1,0.1-0.1,0.2-0.2,0.2c-0.3,0.2-0.6,0.2-0.8,0c-0.2-0.2-0.2-0.6,0-0.8 M27.7,5.1l0-0.2c0,0,0,0,0,0
		 M27.7,5.1c-1.5,0.1-2.9,0.4-4.2,1c-5.6,2.3-9,6.5-10.1,12.5c-0.1,0.5-0.1,1.1-0.1,1.7c0,0.2,0,0.3,0,0.5c0,0.4,0.2,0.6,0.6,0.6
		c0.3,0,0.5-0.2,0.6-0.6L27.7,5.1z M27.7,4.8c-1.5,0.1-2.9,0.4-4.3,1l0,0c-5.7,2.3-9.2,6.6-10.2,12.7 M27.7,4.8L13.1,18.5
		 M13.1,18.5C13,19,13,19.6,13,20.2c0,0.2,0,0.3,0,0.5l0,0c0,0.5,0.3,0.9,0.8,0.9c0.5,0,0.8-0.4,0.8-0.8l0,0v0c0-0.1,0-0.2,0-0.3
		l0,0c0-0.1,0-0.2,0-0.3c0-1.5,0.3-3,0.9-4.5l0,0c2.6-6.5,9.1-10.2,16-9c7.9,1.3,13.3,9.2,11.7,17c-1.5,7.5-8.3,12.4-15.9,11.6
		c-4.1-0.5-7.4-2.4-9.9-5.7c-1.3-1.8-2.2-3.8-2.6-6.1c0-0.3-0.2-0.5-0.3-0.6c-0.2-0.1-0.4-0.2-0.7-0.1c-0.2,0-0.4,0.2-0.5,0.4
		c-0.1,0.2-0.1,0.4-0.1,0.7l0,0c0.2,1.3,0.6,2.6,1.2,3.8v0l0,0c0.1,0.1,0.1,0.2,0,0.2c0,0,0,0.1-0.1,0.2l0,0l0,0l0,0
		c-0.6,0.5-1.1,1.1-1.6,1.6l0,0c-0.8,0.9-1.1,1.9-0.8,3l0,0l0,0c0,0.1,0,0.1,0,0.2c0,0,0,0.1-0.1,0.2c-0.8,0.8-1.6,1.6-2.4,2.4
		c-1.1,1.1-2.1,2.1-3.2,3.2l0,0c-0.6,0.6-1.2,1.3-1.4,2.3l0,0v0v0v0v0v0v0v0v0v0v0v0v0v0v0v0v0v0v0v0v0v0v0v0v0v0v0v0v0v0v0v0v0v0v0
		v0v0v0v0v0v0v0v0v0v0v0v0v0v0v0v0v0v0v0v0v0v0v0v0v0v0v0v0v0v0v0v0v0v0v0v0v0v0v0v0v0v0v0v0v0v0v0v0v0v0v0v0v0v0v0v0v0v0v0v0v0v0v0
		v0v0v0v0v0v0v0v0v0v0v0v0v0v0v0v0v0v0v0v0v0v0v0v0v0v0v0v0v0v0v0v0v0v0v0v0v0v0v0v0v0v0v0v0v0v0v0v0v0v0v0v0v0v0v0v0v0v0v0v0v0v0v0
		v0v0v0v0v0v0v0v0v0v0v0v0v0v0v0v0v0v0v0v0v0v0v0v0v0v0v0v0v0v0v0v0v0v0v0v0v0v0v0v0v0v0v0v0v0v0v0v0v0v0v0v0v0v0v0v0v0v0v0v0v0v0v0
		v0v0v0v0v0v0v0v0v0v0v0v0v0v0v0v0v0v0v0v0v0v0v0v0v0v0v0v0v0v0v0v0v0v0v0v0v0v0v0v0v0v0v0v0v0v0v0v0v0v0v0v0v0v0v0v0v0v0v0v0v0v0v0
		v0v0v0v0v0v0v0v0v0v0v0v0v0v0v0v0v0v0v0v0v0v0v0v0v0v0v0v0v0v0v0v0v0v0v0v0v0v0v0v0v0v0v0v0v0v0v0v0v0v0v0v0v0v0v0v0v0v0v0v0v0v0v0
		v0v0v0v0v0v0v0v0v0v0v0v0v0v0v0v0v0v0v0v0v0v0v0v0v0v0v0v0v0v0v0v0v0v0v0v0v0v0v0v0v0v0v0v0v0v0v0v0v0v0v0v0v0v0v0v0v0v0v0v0v0v0v0
		v0v0v0v0v0v0v0v0v0v0v0v0v0v0v0v0v0v0v0v0v0v0v0v0v0v0v0v0v0v0v0v0v0v0v0v0v0v0v0v0v0v0v0v0v0v0v0v0v0v0v0v0v0v0v0v0v0v0v0v0v0v0v0
		v0v0v0v0v0v0v0v0v0v0v0v0v0v0v0v0v0v0v0v0v0v0v0v0v0v0v0v0v0v0v0v0v0v0v0v0v0v0v0.1l0,0c0,0.1,0.1,0.2,0.1,0.3c0,0.1,0,0.1,0.1,0.2
		c0.1,0.2,0.1,0.4,0.3,0.5c0,0,0,0,0,0l0.2-0.1 M13.1,18.5l0.6,20.8 M5.4,42.7c0.3,0.5,0.7,0.9,1.2,1.3c1.3,1.3,3.1,1.3,4.4,0
		l3.4-3.4c0,0,0,0,0.1-0.1c0.1-0.1,0.1-0.1,0.2-0.2c0.2-0.2,0.2-0.5-0.1-0.7c-0.2-0.2-0.5-0.2-0.7-0.1 M5.4,42.7
		c-0.1-0.2-0.2-0.4-0.3-0.6C5.1,42,5,41.8,5,41.7L5.4,42.7z M13.8,39.5l-0.1-0.2c0,0,0,0,0,0 M13.8,39.5l-0.1-0.2c0,0,0,0,0,0
		 M13.8,39.5c-0.1,0.1-0.2,0.1-0.2,0.2c0,0,0,0-0.1,0.1l-3.4,3.4c-0.9,0.9-1.9,0.9-2.8,0l-0.5-0.5c-0.9-0.9-0.9-1.9,0-2.8l5.8-5.8
		c0,0,0.1-0.1,0.1-0.1c0,0,0.1-0.1,0.1-0.1l-0.2,0.2c0.1,0.1,0.1,0.1,0.2,0.2c0,0-0.1,0-0.1,0.1l-2.9,2.9L7,40
		c-0.4,0.4-0.6,0.8-0.6,1.2c0,0.4,0.2,0.8,0.6,1.2l0,0l0,0l0,0l0,0l0,0l0,0l0,0l0,0l0,0l0,0l0,0l0,0l0,0l0,0l0,0l0,0l0,0l0,0l0,0
		l0,0l0,0l0,0l0,0l0,0l0,0l0,0l0,0l0,0l0,0l0,0l0,0l0,0l0,0l0,0l0,0l0,0l0,0l0,0l0,0l0,0l0,0l0,0l0,0l0,0l0,0l0,0l0,0l0,0l0,0l0,0
		l0,0l0,0l0,0l0,0l0,0l0,0l0,0l0,0l0,0l0,0l0,0l0,0l0,0l0,0l0,0l0,0l0,0l0,0l0,0l0,0l0,0l0,0l0,0l0,0l0,0l0,0l0,0l0,0l0,0l0,0l0,0
		l0,0l0,0l0,0l0,0l0,0l0,0l0,0l0,0l0,0l0,0l0,0l0,0l0,0l0,0l0,0l0,0l0,0l0,0l0,0l0,0l0,0l0,0l0,0l0,0l0,0l0,0l0,0l0,0l0,0l0,0l0,0
		l0,0l0,0l0,0l0,0l0,0l0,0l0,0l0,0l0,0l0,0l0,0l0,0l0,0l0,0l0,0l0,0l0,0l0,0l0,0l0,0l0,0l0,0l0,0l0,0l0,0l0,0l0,0l0,0l0,0l0,0l0,0
		l0,0l0,0l0,0l0,0l0,0l0,0l0,0l0,0l0,0l0,0l0,0l0,0l0,0l0,0l0,0l0,0l0,0l0,0l0,0l0,0l0,0l0,0l0,0l0,0l0,0l0,0l0,0l0,0l0,0l0,0l0,0
		l0,0l0,0l0,0l0,0l0,0l0,0l0,0l0,0l0,0l0,0l0,0l0,0l0,0l0,0l0,0l0,0l0,0l0,0l0,0l0,0l0,0l0,0l0,0l0,0l0,0l0,0l0,0l0,0l0,0l0,0l0,0
		l0,0l0,0l0,0l0,0l0,0l0,0l0,0l0,0l0,0l0,0l0,0l0,0l0,0l0,0l0,0l0,0l0,0l0,0l0,0l0,0l0,0l0,0l0,0l0,0l0,0l0,0l0,0l0,0l0,0l0,0l0,0
		l0,0l0,0l0,0l0,0l0,0l0,0l0,0l0,0l0,0l0,0l0,0l0,0l0,0l0,0l0,0l0,0l0,0l0,0l0,0l0,0l0,0l0,0l0,0l0,0l0,0l0,0l0,0l0,0l0,0l0,0l0,0
		l0,0l0,0l0,0l0,0l0,0l0,0l0,0l0,0l0,0l0,0l0,0l0,0l0,0l0,0l0,0l0,0l0,0l0,0l0,0l0,0l0,0l0,0l0,0l0,0l0,0l0,0l0,0l0,0l0,0l0,0l0,0
		l0,0l0,0l0,0l0,0l0,0l0,0l0,0l0,0l0,0l0,0l0,0l0,0l0,0l0,0l0,0l0,0l0,0l0,0l0,0l0,0l0,0l0,0l0,0l0,0l0,0l0,0l0,0l0,0l0,0l0,0l0,0
		l0,0l0,0l0,0l0,0l0,0l0,0l0,0l0,0l0,0l0,0l0,0l0,0l0,0l0,0l0,0l0,0l0,0l0,0l0,0l0,0l0,0l0,0l0,0l0,0l0,0l0,0l0,0l0,0l0,0l0,0l0,0
		l0,0l0,0l0,0l0,0l0,0l0,0l0,0l0,0l0,0l0,0l0,0l0,0l0,0l0,0l0,0l0,0l0,0l0,0l0,0l0,0l0,0l0,0l0,0l0,0l0,0l0,0l0,0l0,0l0,0l0,0l0,0
		l0,0l0,0l0,0l0,0l0,0l0,0l0,0l0,0l0,0l0,0l0,0l0,0l0,0l0,0l0,0l0,0l0,0l0,0l0,0l0,0l0,0l0,0l0,0l0,0l0,0l0,0l0,0l0,0l0,0l0,0l0,0
		l0,0l0,0l0,0l0,0l0,0l0,0l0,0l0,0l0,0l0,0l0,0l0,0l0,0l0,0l0,0l0,0l0,0l0,0l0,0l0,0l0,0l0,0l0,0l0,0l0,0l0,0l0,0l0,0l0,0l0,0l0,0
		l0,0l0,0l0,0l0,0l0,0l0,0l0,0l0,0l0,0l0,0l0,0l0,0l0,0l0,0l0,0l0,0l0,0l0,0l0,0l0,0l0,0l0,0l0,0l0,0l0,0l0,0l0,0l0,0l0,0l0,0l0,0
		l0,0l0,0l0,0l0,0l0,0l0,0l0,0l0,0l0,0l0,0l0,0l0,0l0,0l0,0l0,0l0,0l0,0l0,0l0,0l0,0l0,0l0,0l0,0l0,0l0,0l0,0l0,0l0,0l0,0
		c0.4,0.4,0.8,0.6,1.2,0.6c0.4,0,0.8-0.2,1.2-0.6l1.7-1.7l1.7-1.7c0,0,0,0,0,0c0.1-0.1,0.2-0.2,0.3-0.3 M15.5,37.5l0.4-0.4
		c0.1,0.1,0.1,0.1,0.2,0.2l0.2-0.2c0,0-0.1,0.1-0.1,0.1c0,0-0.1,0.1-0.1,0.1c0,0-0.1,0.1-0.1,0.1c-0.1,0.1-0.1,0.1-0.2,0.2
		 M15.5,37.5C15.5,37.5,15.5,37.5,15.5,37.5l0.2,0.2 M15.5,37.5C15.5,37.5,15.5,37.5,15.5,37.5l0.2,0.2 M13.9,30.6L13.9,30.6
		L13.9,30.6c0,0,0.1-0.1,0.1-0.1c0,0,0,0,0,0c0,0,0.1-0.1,0.1-0.1l0,0c0.4-0.4,0.8-0.8,1.2-1.2c1.4,2.3,3.2,4.1,5.5,5.5
		c-0.1,0.1-0.2,0.2-0.4,0.3c-0.4,0.4-0.9,0.9-1.4,1.2c-0.5,0.4-1.2,0.3-1.7-0.2c-1.2-1.1-2.3-2.3-3.5-3.5
		C13.3,32.1,13.3,31.2,13.9,30.6z"/>
	<path class="st2" d="M29.2,8.3L29.2,8.3c6.9,0,12.5,5.7,12.5,12.6v0c0,6.9-5.7,12.6-12.6,12.6c0,0,0,0,0,0l0-0.2L29.2,8.3z
		 M29.2,8.3c-7,0-12.6,5.6-12.7,12.6L29.2,8.3z M36.6,28.9L36.6,28.9c-6,5.6-15.7,2.9-18-5.1c-0.5-1.8-0.5-3.6-0.1-5.4
		c0.1,0,0.1,0,0.2,0c0.6,0.1,1.3,0.2,1.9,0.2c0.4,0,0.9,0,1.3-0.1h0l0,0c1.5-0.3,2.4-1.5,2.5-3.1l0,0c0.1-1.4-0.2-2.7-1.2-3.7
		c3.5-2.3,8.2-2.3,11.6,0c-0.2,0-0.5,0.1-0.7,0.1v0l0,0c-0.2,0-0.4,0-0.6,0.1c-0.1,0-0.2,0-0.2,0c-0.3,0-0.6,0.1-0.9,0.1
		c-1.9,0.5-3,2-3.2,3.9c-0.1,0.7,0,1.4,0.2,2c0.2,0.6,0.6,1.2,1.3,1.6l0,0c0.9,0.6,1.9,0.9,3,0.8v0l0,0c0.3,0,0.5-0.1,0.7-0.3
		c0.2-0.2,0.3-0.4,0.2-0.7l0,0c0-0.3-0.1-0.5-0.4-0.6c-0.2-0.1-0.5-0.2-0.7-0.1l0,0l0,0c-0.3,0-0.6,0-0.9-0.1
		c-0.7-0.2-1.2-0.5-1.5-0.9c-0.3-0.5-0.4-1.1-0.2-1.9l0,0c0.1-0.8,0.5-1.3,0.9-1.7c0.5-0.4,1.1-0.6,1.9-0.6c1,0,2-0.1,2.9-0.6
		c0,0,0,0,0,0c0,0,0,0,0,0c1.4,1.3,2.4,2.8,3,4.6c0,0-0.1,0-0.1,0c-0.5,0-1-0.1-1.5,0v0l0,0c-0.5,0-1,0.2-1.5,0.3
		c-0.1,0-0.1,0-0.2,0l0,0l0,0c-0.3,0.1-0.5,0.2-0.6,0.4c-0.1,0.2-0.1,0.5,0,0.7h0l0,0c0.1,0.2,0.2,0.4,0.5,0.5
		c0.2,0.1,0.5,0.1,0.7,0l0,0c0.7-0.2,1.4-0.4,2.1-0.3c0.3,0,0.5,0.1,0.7,0.1c0.2,0,0.3,0.1,0.3,0.2c0.1,0.1,0.2,0.3,0.2,0.9l0,0
		C40.2,23.7,39,26.6,36.6,28.9z M22.6,15.8L22.6,15.8L22.6,15.8c-0.1,0.4-0.3,0.6-0.5,0.8c-0.2,0.2-0.5,0.3-0.9,0.3
		c-0.6,0-1.1,0-1.7-0.1c-0.2,0-0.3,0-0.5,0c0.7-1.6,1.6-3,2.9-4.1C22.8,13.5,23,14.7,22.6,15.8z"/>
	<path class="st1" d="M21.9,12.3c1.1,1,1.4,2.3,1,3.6c-0.2,0.8-0.9,1.2-1.7,1.2c-0.8,0-1.7-0.1-2.6-0.2
		C19.4,15.1,20.4,13.6,21.9,12.3z"/>
	<path class="st2" d="M24.9,21.9l0,0.2l0,0c0.6-0.1,1.3-0.2,1.9-0.3v0l0,0c0.1,0,0.2,0,0.3-0.1c0,0,0,0,0.1,0c0.1,0,0.2,0,0.2,0
		c0.4,0,0.7,0,0.8,0.2c0.2,0.3,0.1,0.6-0.1,0.9c-0.6,0.9-0.7,1.9-0.7,2.9c0.1,0.9,0,1.7-0.1,2.6l0,0l0,0c0,0.2-0.1,0.5-0.3,0.7l0,0
		l0,0c-0.1,0.1-0.1,0.1-0.1,0.1c0,0-0.1,0-0.1-0.1v0l0,0c-0.1-0.2-0.3-0.4-0.3-0.6c-0.1-1.8-1-3-2.5-3.8c-0.8-0.4-1.2-1-1.2-1.6
		c0-0.3,0.1-0.5,0.1-0.6c0.1-0.1,0.2-0.2,0.5-0.3h0l0,0c0.2,0,0.4-0.1,0.7-0.1c0,0,0.1,0,0.1,0c0.2,0,0.4,0,0.6-0.1L24.9,21.9z
		 M24.9,21.9c-0.2,0-0.4,0-0.6,0.1c-0.3,0-0.6,0.1-0.8,0.1l4.9-0.2c-0.2-0.4-0.7-0.4-1.1-0.3c-0.1,0-0.2,0-0.3,0.1
		c-0.1,0-0.2,0-0.2,0.1C26.2,21.7,25.5,21.8,24.9,21.9L24.9,21.9z M27.3,20L27.3,20L27.3,20c-0.1,0-0.2,0-0.3,0.1
		c-0.3,0.1-0.8,0.2-1.2,0.2l0,0l0,0c-0.4,0.1-0.8,0.1-1.1,0.1l0,0c-0.4,0-0.8,0.1-1.2,0.1c-0.7,0.1-1.2,0.4-1.6,0.7
		c-0.4,0.4-0.6,0.9-0.6,1.5l0,0l0,0c-0.1,0.8,0.1,1.5,0.6,2.1c0.4,0.5,1,0.9,1.5,1.2c0.6,0.4,1.1,0.8,1.3,1.5
		c0.1,0.3,0.1,0.7,0.2,1.1l0,0l0,0l0,0c0.1,1.3,1.3,2.3,2.5,2l0,0c0.9-0.2,1.3-0.9,1.5-1.6l0,0c0.3-0.9,0.4-1.9,0.3-2.9
		c-0.1-1.1-0.2-2,0.5-2.8l0,0l0,0c0.1-0.1,0.1-0.3,0.2-0.4c0,0,0,0,0,0c0.2-0.8,0.1-1.6-0.3-2.1C29,20.4,28.3,20,27.3,20z"/>
	<path class="st1" d="M22.7,23.1c0-0.6,0.2-0.9,0.9-1.1c0.5-0.1,0.9-0.1,1.4-0.2c0.6-0.1,1.3-0.2,1.9-0.3c0.2,0,0.4-0.1,0.6-0.1
		c0.4,0,0.8-0.1,1.1,0.3c0.2,0.4,0.2,0.8-0.1,1.1c-0.6,0.9-0.7,1.8-0.6,2.8c0.1,0.9,0,1.8-0.1,2.6c0,0.3-0.2,0.6-0.3,0.8
		c-0.2,0.3-0.5,0.3-0.7,0.1c-0.2-0.2-0.3-0.5-0.3-0.7c-0.1-1.7-0.9-2.8-2.4-3.6C23.1,24.5,22.7,23.8,22.7,23.1z"/>
</g>
<g id="圖層_2">
	<g>
		<path class="st3" d="M45.4,40.6c-0.2-1.1-6.6-7.7-10-10.8c0.1-0.2,0.2-0.4,0.3-0.5c0.1-0.2,0.3-0.5,0.4-0.7
			c0.1-0.2,0.2-0.5,0.3-0.7c0.1-0.2,0.2-0.5,0.3-0.7c0.1-0.2,0.2-0.5,0.3-0.7c0.1-0.2,0.2-0.5,0.2-0.7c0.1-0.2,0.1-0.5,0.2-0.7
			c0.1-0.3,0.1-0.5,0.2-0.8c0-0.3,0.1-0.5,0.1-0.8c0-0.3,0.1-0.5,0.1-0.8c0-0.3,0-0.5,0-0.8c0-0.3,0-0.5,0-0.8c0-0.3,0-0.5,0-0.8
			c-0.3-4.4-2.1-8.3-5.5-11.2c-3-2.6-6.5-3.8-10.4-3.9c-4.8,0.3-8.9,1.9-12.1,5.6c-0.2,0.2-0.3,0.4-0.5,0.6
			c-0.2,0.2-0.3,0.4-0.5,0.6c-0.1,0.2-0.3,0.4-0.4,0.6c-0.1,0.2-0.3,0.4-0.4,0.7c-0.1,0.2-0.3,0.4-0.4,0.7c-0.1,0.2-0.2,0.5-0.3,0.7
			C7.2,15,7.1,15.2,7,15.5c-0.1,0.2-0.2,0.5-0.3,0.7c-0.1,0.2-0.2,0.5-0.2,0.7c-0.1,0.2-0.1,0.5-0.2,0.7c-0.1,0.3-0.1,0.5-0.2,0.8
			c0,0.3-0.1,0.5-0.1,0.8C6,19.4,6,19.7,5.9,20c0,0.3,0,0.5,0,0.8c0,0.3,0,0.5,0,0.8c0,0.3,0,0.5,0,0.8c0,0.3,0,0.5,0.1,0.8
			c0,0.3,0.1,0.5,0.1,0.8c0,0.3,0.1,0.5,0.1,0.8c0.1,0.3,0.1,0.5,0.2,0.8c0.1,0.3,0.1,0.5,0.2,0.8c0.1,0.3,0.2,0.5,0.3,0.7
			c0.1,0.2,0.2,0.5,0.3,0.7c0.1,0.2,0.2,0.5,0.3,0.7c0.1,0.2,0.2,0.5,0.4,0.7c0.1,0.2,0.3,0.5,0.4,0.7c0.1,0.2,0.3,0.4,0.4,0.7
			C8.9,30.6,9,30.8,9.2,31c0.2,0.2,0.3,0.4,0.5,0.6c0.2,0.2,0.3,0.4,0.5,0.6c0.2,0.2,0.4,0.4,0.5,0.6c0.2,0.2,0.4,0.4,0.6,0.5
			c3.1,2.7,6.7,3.8,10.8,3.9c3.3-0.2,6-0.9,8.5-2.5c2.6,3,8.1,8.5,9.3,9.5c0.4,0.3,0.8,0.6,1.2,0.7c0.1,0,0.1,0,0.2,0.1
			c0.1,0,0.2,0,0.3,0c0.1,0,0.2,0,0.3-0.1c0.1,0,0.2,0,0.3-0.1c0.1,0,0.2,0,0.2-0.1c0.1,0,0.2-0.1,0.2-0.1c0.1,0,0.2-0.1,0.2-0.1
			c0.1,0,0.2-0.1,0.2-0.1c0.1,0,0.2-0.1,0.2-0.1c0.1,0,0.1-0.1,0.2-0.1c0.1,0,0.1-0.1,0.2-0.1c0.1,0,0.1-0.1,0.2-0.2
			c0.1-0.1,0.1-0.1,0.2-0.2c0.1-0.1,0.1-0.1,0.2-0.2c0.1-0.1,0.1-0.1,0.2-0.2c0.1-0.1,0.1-0.1,0.2-0.2c0.1-0.1,0.1-0.1,0.2-0.2
			C45.3,42.3,45.6,41.5,45.4,40.6z M31.1,21.6c0,0.1,0,0.3,0,0.5c0,0.1,0,0.3,0,0.5c0,0.1,0,0.3-0.1,0.4c0,0.1-0.1,0.3-0.1,0.4
			c0,0.1-0.1,0.3-0.1,0.4c0,0.1-0.1,0.3-0.1,0.4c0,0.1-0.1,0.3-0.2,0.4c-0.1,0.1-0.1,0.3-0.2,0.4c-0.1,0.1-0.1,0.3-0.2,0.4
			c-0.1,0.1-0.1,0.3-0.2,0.4c-0.1,0.1-0.2,0.3-0.2,0.4c-1.4,2.1-3.5,3.5-6,4c-2.3,0.4-4.6,0-6.6-1.3c-0.1-0.1-0.3-0.2-0.4-0.3
			c-0.1-0.1-0.3-0.2-0.4-0.3c-0.1-0.1-0.2-0.2-0.4-0.3c-0.1-0.1-0.2-0.2-0.3-0.3c-0.1-0.1-0.2-0.2-0.3-0.3c-0.1-0.1-0.2-0.2-0.3-0.3
			c-0.1-0.1-0.2-0.2-0.3-0.4c-0.1-0.1-0.2-0.3-0.3-0.4c-0.1-0.1-0.2-0.3-0.3-0.4c-0.1-0.1-0.2-0.3-0.2-0.4c-0.1-0.1-0.1-0.3-0.2-0.4
			c-0.1-0.1-0.1-0.3-0.2-0.4c-0.1-0.1-0.1-0.3-0.2-0.4c-0.1-0.1-0.1-0.3-0.1-0.4c0-0.1-0.1-0.3-0.1-0.4S13,23.2,13,23.1
			c-0.5-2.3,0-4.7,1.3-6.6c1.5-2.2,3.6-3.5,6.2-4c2.2-0.2,4.3,0,6.2,1.2c0.1,0.1,0.3,0.2,0.4,0.3c0.1,0.1,0.3,0.2,0.4,0.3
			c0.1,0.1,0.2,0.2,0.4,0.3c0.1,0.1,0.2,0.2,0.3,0.3c0.1,0.1,0.2,0.2,0.3,0.3c0.1,0.1,0.2,0.2,0.3,0.3c0.1,0.1,0.2,0.2,0.3,0.4
			c0.1,0.1,0.2,0.2,0.3,0.4c0.1,0.1,0.2,0.3,0.3,0.4c0.1,0.1,0.2,0.3,0.2,0.4c0.1,0.1,0.1,0.3,0.2,0.4c0.1,0.1,0.1,0.3,0.2,0.4
			c0.1,0.1,0.1,0.3,0.2,0.4c0.1,0.1,0.1,0.3,0.2,0.4c0,0.1,0.1,0.3,0.1,0.4c0,0.1,0.1,0.3,0.1,0.4c0,0.1,0.1,0.3,0.1,0.4
			c0,0.1,0,0.3,0.1,0.4c0,0.1,0,0.3,0,0.5c0,0.1,0,0.3,0,0.5C31.1,21.3,31.1,21.5,31.1,21.6z"/>
	</g>
</g>
</svg>
