<?xml version="1.0" encoding="utf-8"?>
<!-- Generator: Adobe Illustrator 26.0.2, SVG Export Plug-In . SVG Version: 6.00 Build 0)  -->
<svg version="1.1" xmlns="http://www.w3.org/2000/svg" xmlns:xlink="http://www.w3.org/1999/xlink" x="0px" y="0px"
	 viewBox="0 0 18.8 18.8" style="enable-background:new 0 0 18.8 18.8;" xml:space="preserve">
<style type="text/css">
	.st0{display:none;}
	.st1{display:inline;}
	.st2{fill:#FFDC55;}
	.st3{fill:#2A2968;}
	.st4{fill:#FF5809;}
	.st5{fill:#FFFFFF;}
</style>
<g id="圖層_1" class="st0">
	<g id="RphlsE.tif" transform="translate(186.47 -173.084)" class="st1">
		<path id="Path_680" class="st2" d="M-177.1,191.7h3.2v-7.4h2.6v-2.6h-2.6v-2.4l2.6-0.3v-2l-2.2-0.5l-2.9,0.8l-0.6,4.3l-2.1,0.4
			l0.3,2.2h1.8L-177.1,191.7z"/>
		<path id="Path_676" class="st3" d="M-174.1,191.9c-0.2-0.1-0.3-0.3-0.3-0.5c0-2.3,0-4.6,0-6.9c0-0.4,0.1-0.5,0.5-0.5
			c0.6,0,1.2,0,1.8,0h0.2c0.1-0.6,0.1-1.3,0.2-1.9h-0.2c-0.7,0-1.4,0-2,0c-0.3,0-0.5-0.1-0.5-0.5c0-0.5,0-1.1,0-1.6
			c-0.1-0.6,0.3-1.1,0.9-1.1c0.1,0,0.2,0,0.2,0c0.5,0,1.1,0,1.6,0v-1.8c0,0-0.1,0-0.1,0c-0.8,0-1.6,0-2.5,0
			c-1.3-0.1-2.4,0.9-2.4,2.2c-0.1,0.6,0,1.2,0,1.9c0,0.1,0,0.3,0,0.4c0,0.4-0.1,0.5-0.5,0.5c-0.5,0-1,0-1.5,0h-0.2v1.9
			c0.1,0,0.1,0,0.2,0c0.5,0,1,0,1.5,0c0.4,0,0.5,0.1,0.5,0.5c0,0.4,0,0.8,0,1.3c0,0.2-0.1,0.4-0.3,0.4c0,0,0,0,0,0
			c-0.2,0-0.4-0.2-0.4-0.4c0-0.1,0-0.1,0-0.2v-0.8c-0.1,0-0.1,0-0.2,0c-0.5,0-1,0-1.5,0c-0.4,0-0.5-0.1-0.5-0.5c0-0.8,0-1.6,0-2.4
			c0-0.4,0.1-0.5,0.5-0.5c0.5,0,1,0,1.5,0h0.2c0-0.1,0-0.2,0-0.3c0-0.7,0-1.4,0.1-2.1c0.1-1.1,0.8-2,1.8-2.4
			c0.5-0.2,1.1-0.3,1.6-0.3c0.8,0,1.7,0,2.5,0c0.4,0,0.5,0.1,0.5,0.5c0,0.8,0,1.5,0,2.3c0,0.4-0.1,0.5-0.5,0.5c-0.6,0-1.2,0-1.9,0
			c-0.3,0-0.4,0.1-0.4,0.4c0,0.4,0,0.9,0,1.3h2.3c0.4,0,0.5,0.1,0.5,0.5c-0.1,0.8-0.2,1.6-0.2,2.4c0,0.3-0.1,0.4-0.5,0.4
			c-0.6,0-1.2,0-1.8,0h-0.2v6.5h0.5c0.6,0,1.2,0,1.7,0c1.6,0,2.9-1.2,2.9-2.8c0,0,0-0.1,0-0.1c0-3.8,0-7.7,0-11.5
			c0-1.6-1.2-2.9-2.8-2.9c0,0-0.1,0-0.1,0c-3.8,0-7.7,0-11.5,0c-1.6,0-2.9,1.2-2.9,2.8c0,0,0,0.1,0,0.1c0,3.8,0,7.7,0,11.5
			c0,1.6,1.2,2.9,2.8,2.9c0,0,0.1,0,0.1,0c1.7,0,3.5,0,5.2,0h0.2v-0.7c0-0.6,0-1.2,0-1.7c0-0.2,0.1-0.4,0.3-0.4
			c0.2,0,0.4,0.1,0.4,0.3c0,0,0,0.1,0,0.1c0,0.5,0,0.9,0,1.4c0,0.4,0,0.8,0,1.2c0,0.2-0.1,0.4-0.3,0.5h-6.3c0,0-0.1,0-0.1,0
			c-1.5-0.2-2.7-1.3-3-2.8c0-0.1-0.1-0.3-0.1-0.4v-12.4c0,0,0-0.1,0-0.1c0.2-1.8,1.8-3.1,3.6-3.1c3.9,0,7.7,0,11.6,0
			c2,0,3.6,1.6,3.6,3.5c0,0,0,0,0,0.1c0,3.9,0,7.7,0,11.6c0,1.7-1.1,3.1-2.8,3.5c-0.2,0-0.3,0.1-0.5,0.1L-174.1,191.9z"/>
		<path id="Path_677" class="st3" d="M-184,178.8c0,0.5,0,1,0,1.5c0,0.2-0.1,0.4-0.3,0.4c-0.1,0-0.1,0-0.2,0
			c-0.1-0.1-0.2-0.2-0.2-0.3c0-1,0-2,0-3c0-0.2,0.1-0.4,0.3-0.4c0,0,0,0,0,0c0.2,0,0.4,0.2,0.4,0.4c0,0,0,0,0,0
			C-184,177.8-184,178.3-184,178.8z"/>
		<path id="Path_678" class="st3" d="M-184,181.9c0,0.2-0.2,0.4-0.4,0.4c-0.2,0-0.4-0.2-0.4-0.4c0-0.2,0.2-0.4,0.4-0.4c0,0,0,0,0,0
			C-184.1,181.5-184,181.7-184,181.9z"/>
		<path id="Path_679" class="st3" d="M-177,187.6c-0.2,0-0.4-0.2-0.4-0.4c0-0.2,0.2-0.4,0.4-0.4c0,0,0,0,0,0c0.2,0,0.4,0.2,0.4,0.4
			C-176.7,187.5-176.8,187.6-177,187.6z"/>
	</g>
</g>
<g id="圖層_2">
	<g>
		<path class="st4" d="M14.4,18.7H4.5c-2.4,0-4.4-2-4.4-4.4V4.4C0.1,2,2,0,4.5,0h9.9c2.4,0,4.4,2,4.4,4.4v9.9
			C18.8,16.7,16.8,18.7,14.4,18.7z"/>
		<g>
			<path class="st5" d="M13.5,3c0,0.5-0.4,0.8-1.1,0.8c-1,0-1.5,0.2-1.8,0.5c-0.1,0.2-0.2,0.5-0.2,0.8c0,0.2,0,0.7,0,1.5h2.1
				c0.6,0,1,0.3,1,1c0,0.6-0.3,0.9-1,0.9h-2.1v6.8c0,0.3-0.1,0.6-0.4,0.9c-0.3,0.2-0.6,0.4-1,0.4c-0.3,0-0.6-0.1-0.8-0.3
				C8.1,16,8,15.7,8,15.3V8.5H6.3c-0.2,0-0.4-0.1-0.6-0.3C5.6,8,5.5,7.8,5.5,7.5c0-0.6,0.3-1,0.8-1H8c0-1.8,0.3-3,0.9-3.7
				c0.6-0.7,1.4-1,2.3-1c1,0,1.6,0.1,1.9,0.3C13.4,2.3,13.5,2.6,13.5,3z"/>
		</g>
	</g>
</g>
</svg>
