<svg xmlns="http://www.w3.org/2000/svg" width="60.438" height="66.976" viewBox="0 0 60.438 66.976">
  <g id="LEdtt4.tif" transform="translate(131.272 8.493)">
    <path id="Path_522" data-name="Path 522" d="M6.869,12.024l2.59-4.2L29.717,20.5l6.961.863-1.457,5.905-4.2,4.279L26.887,25.8Z" transform="translate(-130.705 -7.977)" fill="#ffdc55"/>
    <path id="Path_523" data-name="Path 523" d="M5.965,11.678l2.509-3.75L22.1,17.584l6.443-.036,1.3,5.236-7.729,4.51-3.181-5.946Z" transform="matrix(-0.454, -0.891, 0.891, -0.454, -105.868, 64.53)" fill="#ffdc55"/>
    <path id="Path_513" data-name="Path 513" d="M-84.734,57.983a1.349,1.349,0,0,1-.654-1.675q2.37-11.7,4.7-23.4A73.429,73.429,0,0,0-79.317,25.5,14.605,14.605,0,0,0-86.4,10.98c-5.178-3.32-10.477-6.452-15.725-9.665-3.911-2.4-7.829-4.781-11.729-7.2a1.747,1.747,0,0,1-.759-.912,1.262,1.262,0,0,1,.4-.955.928.928,0,0,1,1.218,0c1.56.958,3.125,1.906,4.686,2.862Q-96.965,2.057-85.626,9a17.116,17.116,0,0,1,8.395,12.965,19.726,19.726,0,0,1-.461,6.5q-2.877,14.16-5.679,28.333a1.488,1.488,0,0,1-.833,1.178Z" transform="translate(-4.362)" fill="#2a2968" stroke="#282767" stroke-width="1"/>
    <path id="Path_514" data-name="Path 514" d="M-89.713,18.586a4.279,4.279,0,0,1-1.567,3.05A4.532,4.532,0,0,0-92.7,23.889a4.573,4.573,0,0,1-4.754,3.336,4.527,4.527,0,0,1-4.212-3.675,6.771,6.771,0,0,0-3.271-4.658c-5.353-3.337-10.673-6.726-16.006-10.1-.922-.582-1.169-1.132-.774-1.729.381-.576.958-.585,1.85-.023q8.14,5.14,16.283,10.277a8.277,8.277,0,0,1,3.89,5.655,2.586,2.586,0,0,0,2.441,2.218,2.579,2.579,0,0,0,2.609-2.012,6.125,6.125,0,0,1,1.877-2.976,2.551,2.551,0,0,0,.621-3.387,2.566,2.566,0,0,0-3.3-.982,5.658,5.658,0,0,1-5.364-.542q-8.687-5.515-17.392-11a3.769,3.769,0,0,1-.493-.332.967.967,0,0,1-.227-1.309.97.97,0,0,1,1.261-.42,2.22,2.22,0,0,1,.46.26c5.725,3.615,11.463,7.209,17.164,10.863a4.26,4.26,0,0,0,4.121.477C-92.86,12.679-89.689,14.944-89.713,18.586Z" transform="translate(-2.39 -2.749)" fill="#2a2968" stroke="#282767" stroke-width="1"/>
    <path id="Path_515" data-name="Path 515" d="M-91.482,49.716A5.855,5.855,0,0,0-92.8,46.081a4.382,4.382,0,0,1,2.314-6.944,4.561,4.561,0,0,1,3.273.374c.466.222,1,.283,1.5.458a6.837,6.837,0,0,1,1.795.741,23.33,23.33,0,0,1,2.469,2.2,3.028,3.028,0,0,1,0,4.442,11.765,11.765,0,0,0-3.8,7.623c-.523,3.575-1.193,7.129-1.807,10.691-.133.768-.569,1.152-1.165,1.066a1.028,1.028,0,0,1-.84-1.337c.729-4.324,1.429-8.655,2.24-12.965a11.079,11.079,0,0,1,3.632-6.235c.853-.77.861-1.326.031-2.092-.34-.314-.706-.6-1.03-.933a3.55,3.55,0,0,0-2.5-1.287,3.93,3.93,0,0,1-1.469-.544,2.376,2.376,0,0,0-2.949.527,2.253,2.253,0,0,0-.044,2.978,7.774,7.774,0,0,1,1.53,6.657c-.778,4.384-1.5,8.777-2.241,13.167-.018.109-.041.216-.066.324a1.052,1.052,0,0,1-1.219.93,1.049,1.049,0,0,1-.8-1.314c.179-1.154.393-2.3.585-3.455q.917-5.478,1.828-10.957C-91.506,50-91.492,49.8-91.482,49.716Z" transform="translate(-9.963 -12.737)" fill="#2a2968" stroke="#282767" stroke-width="1"/>
    <path id="Path_516" data-name="Path 516" d="M-107.582,31.831c-1.208-.555-2.435-1.1-3.642-1.675A68.6,68.6,0,0,1-128.839,18.56c-.547-.513-1.06-1.063-1.556-1.625a1.018,1.018,0,0,1,.016-1.48,1.006,1.006,0,0,1,1.478.085c5.4,5.709,12.021,9.617,19.024,12.968,1.271.609,2.573,1.154,3.865,1.718,1.071.468,1.232.937.664,1.95a20.669,20.669,0,0,0-2.868,8.449,8.823,8.823,0,0,0,.053,2.24,23.318,23.318,0,0,1-.3,8.945c-.6,2.842-1.393,5.644-2.111,8.461-.131.518-.468.927-1.015.858a1.416,1.416,0,0,1-.92-.6,1.516,1.516,0,0,1,.012-1c.652-2.652,1.408-5.281,1.975-7.95a23.1,23.1,0,0,0,.3-8.543,15.542,15.542,0,0,1,1.34-8.265C-108.486,33.789-108.028,32.837-107.582,31.831Z" transform="translate(0 -6.278)" fill="#2a2968" stroke="#282767" stroke-width="1"/>
    <path id="Path_517" data-name="Path 517" d="M-75.507,37.258c-.923-.056-1.848-.1-2.77-.171a2.543,2.543,0,0,1-2.073-4.126c.506-.8,1.009-1.6,1.539-2.387a2.512,2.512,0,0,1,4.195-.174c.715.895,1.4,1.812,2.1,2.72a2.451,2.451,0,0,1,.286,2.895A2.492,2.492,0,0,1-74.848,37.3c-.219-.021-.439-.033-.659-.048Zm.558-2.018.034.1c.292-.106.732-.138.831-.34s-.1-.6-.273-.845c-.574-.807-1.186-1.588-1.8-2.366-.4-.506-.662-.5-1.015.034q-.749,1.127-1.463,2.278c-.351.569-.2.859.458.91C-77.1,35.094-76.026,35.164-74.949,35.24Z" transform="translate(-13.514 -10.125)" fill="#2a2968" stroke="#282767" stroke-width="1"/>
    <path id="Path_518" data-name="Path 518" d="M-61.506,21.176c-.251-.206-.689-.394-.781-.691a1.282,1.282,0,0,1,.2-1.121c1.448-1.257,2.951-2.453,4.464-3.634a.93.93,0,0,1,1.359.187.939.939,0,0,1-.08,1.37c-1.472,1.23-2.974,2.425-4.475,3.621A3.009,3.009,0,0,1-61.506,21.176Z" transform="translate(-18.545 -6.371)" fill="#2a2968" stroke="#282767" stroke-width="1"/>
    <path id="Path_519" data-name="Path 519" d="M-58.48,31.647c1.819.192,3.641.368,5.457.584a1,1,0,0,1,.952,1.132,1.006,1.006,0,0,1-1.165.912c-1.821-.176-3.641-.37-5.456-.592a.972.972,0,0,1-.95-1.124A1.014,1.014,0,0,1-58.48,31.647Z" transform="translate(-19.273 -10.747)" fill="#2a2968" stroke="#282767" stroke-width="1"/>
    <path id="Path_520" data-name="Path 520" d="M-59.177,27.214c-.28-.316-.678-.589-.813-.958a.9.9,0,0,1,.662-1.184c.848-.3,1.707-.574,2.562-.858s1.707-.576,2.565-.848a1.061,1.061,0,0,1,1.458.611,1.036,1.036,0,0,1-.775,1.32c-1.683.576-3.373,1.132-5.061,1.692-.145.048-.3.071-.448.106Z" transform="translate(-19.164 -8.479)" fill="#2a2968" stroke="#282767" stroke-width="1"/>
    <path id="Path_521" data-name="Path 521" d="M-74.183,36.007c-1.076-.076-2.153-.146-3.229-.23-.66-.051-.809-.341-.458-.91q.713-1.151,1.463-2.278c.353-.531.617-.54,1.015-.034.614.778,1.226,1.559,1.8,2.366.172.242.369.651.273.845s-.539.233-.831.34Z" transform="translate(-14.281 -10.893)" fill="#ffdc55"/>
  </g>
</svg>
