<svg xmlns="http://www.w3.org/2000/svg" width="60.839" height="66.194" viewBox="0 0 60.839 66.194">
  <g id="Group_328" data-name="Group 328" transform="translate(0.25 0.25)">
    <path id="Path_488" data-name="Path 488" d="M125.8,36.276a4.117,4.117,0,0,1,3.068-3.084,4.8,4.8,0,0,0,2.287-1.695q2.412-2.934,4.84-5.855a6.914,6.914,0,0,1,7.242-2.167q5.488,1.654,10.977,3.3c.092.027.186.051.364.1.013-.236.034-.437.034-.639,0-3.887-.006-7.774.011-11.662,0-.45-.1-.64-.583-.727-3.26-.593-6.511-1.23-9.768-1.839a4.719,4.719,0,0,1-2.566-1.336q-1.715-1.742-3.421-3.492a4.758,4.758,0,0,1-1.417-3.56c.012-.589,0-1.178,0-1.767a2.577,2.577,0,0,1,2.755-2.77c2.866-.015,5.734-.04,8.6.011a3.663,3.663,0,0,0,3.1-1.349,5.233,5.233,0,0,1,4.256-1.9c1.669.017,3.338-.01,5.006.009a3.54,3.54,0,0,0,2.472-.915c1.547-1.352,3.117-2.68,4.678-4.017h.824a1.665,1.665,0,0,1,.774,1.642c-.043.743.021,1.493-.016,2.237a15.487,15.487,0,0,0,.626,5.4,2.074,2.074,0,0,1,.1.752A1.155,1.155,0,0,1,169.007,2a1.139,1.139,0,0,1-1.264-.908,15.377,15.377,0,0,1-.778-5.149c.033-.361,0-.727,0-1.255-.821.7-1.539,1.268-2.2,1.89a5.952,5.952,0,0,1-4.4,1.639c-1.609-.037-3.22.005-4.829-.012a3.014,3.014,0,0,0-2.48,1.124,5.6,5.6,0,0,1-4.755,2.121c-1.334-.047-2.67-.009-4-.009h-.617c-.535,2.919-.916,3.3-3.868,3.872.106.132.187.255.288.358,1.04,1.07,2.052,2.17,3.142,3.186a3.307,3.307,0,0,0,1.507.812c3.65.74,7.314,1.418,10.973,2.113.916.174,1.243.542,1.243,1.484q.007,7.451,0,14.9c0,1.234-.657,1.716-1.826,1.363q-3.94-1.187-7.878-2.378c-.2-.061-.408-.112-.671-.184-.179,1.276-.353,2.511-.525,3.747a7.323,7.323,0,0,1-.162,1.164c-.183.594.031.853.576,1.1,2.792,1.246,5.559,2.548,8.348,3.8a1.476,1.476,0,0,1,1.016,1.594c-.034.464-.006.932-.006,1.361a24.125,24.125,0,0,1,2.561.186,6.961,6.961,0,0,1,4.677,3.093.653.653,0,0,0,.854.311,5.728,5.728,0,0,1,6.98,6.834,1.192,1.192,0,1,1-2.311-.5,3.36,3.36,0,0,0-4.34-3.989,2.512,2.512,0,0,1-2.994-1.143,4.97,4.97,0,0,0-4.917-2.366c-.4.035-.522.18-.519.58.018,2.238.009,4.476.009,6.714,0,.157,0,.314,0,.471a1.2,1.2,0,0,1-1.2,1.315,1.187,1.187,0,0,1-1.154-1.3c-.01-1.021,0-2.042,0-3.063,0-2.532-.007-5.065.008-7.6a.648.648,0,0,0-.422-.718c-2.716-1.225-5.4-2.515-8.134-3.705a6.2,6.2,0,0,0-6.837.895c-1.124.921-2.255,1.832-3.367,2.766a9.571,9.571,0,0,1-4.965,1.972,3.554,3.554,0,0,1-3.738-2.367c-.08-.22-.151-.443-.227-.664ZM139.586,25.9c.852,1.937,1.685,3.836,2.526,5.731a1.518,1.518,0,0,0,1.372.243.4.4,0,0,0,.082-.214c.245-1.785.486-3.57.731-5.382C142.764,25.775,141.279,25.153,139.586,25.9Zm-7.017,11.419L131.5,34.564c-.892.391-1.711.749-2.528,1.11a1.288,1.288,0,0,0-.785,1.472,1.218,1.218,0,0,0,1.334.99C130.525,37.928,131.5,37.611,132.569,37.319Zm5.077-9.975L135.451,30c1.022.724,2.015,1.385,2.955,2.114a.977.977,0,0,0,1.348.028Zm-3.8,4.41c-.171.424-.5.824-.419,1.112.258.935.666,1.829,1.043,2.811l2.278-1.869ZM141.2,1.437c-.277,0-.528-.005-.779,0-1.31.035-1.217-.284-1.181,1.283,0,.034.036.067.056.1C140.78,3.028,141.307,2.674,141.2,1.437Z" transform="translate(-125.801 9.076)" fill="#2a2968" stroke="#2a2968" stroke-width="0.5"/>
    <path id="Path_489" data-name="Path 489" d="M193.557,34.083a7.64,7.64,0,0,1,4.545-6.546c.415-.208.476-.4.363-.808-.219-.793-.39-1.6-.573-2.4a1.179,1.179,0,1,1,2.278-.553c1.064,4.44,2.21,8.864,3.15,13.331a26.194,26.194,0,0,0,4.74,10.642c1.811,2.391,3.459,4.906,5.179,7.366.09.128.181.256.268.386a1.189,1.189,0,1,1-1.92,1.36c-1.085-1.539-2.161-3.085-3.24-4.629-1.181-1.688-2.416-3.341-3.523-5.076-.819-1.284-1.491-2.663-2.182-4.024a.666.666,0,0,0-.74-.456C197.3,42.844,193.539,39.262,193.557,34.083Zm8.125,6.194q-1.264-5.308-2.53-10.622a5.566,5.566,0,0,0-3.055,6.528C196.779,38.694,199.346,40.59,201.682,40.277Z" transform="translate(-153.523 -3.947)" fill="#2a2968" stroke="#2a2968" stroke-width="0.5"/>
    <path id="Path_490" data-name="Path 490" d="M201.142,15.6a1.179,1.179,0,0,1-1.135,1.189A1.206,1.206,0,0,1,198.8,15.6a1.192,1.192,0,0,1,1.178-1.153A1.16,1.16,0,0,1,201.142,15.6Z" transform="translate(-155.669 -0.55)" fill="#2a2968" stroke="#2a2968" stroke-width="0.5"/>
    <path id="Path_491" data-name="Path 491" d="M177.2,9.208a1.171,1.171,0,1,1-2.342.006,1.171,1.171,0,0,1,2.342-.006Z" transform="translate(-145.872 2.064)" fill="#2a2968" stroke="#2a2968" stroke-width="0.5"/>
    <path id="Path_492" data-name="Path 492" d="M149.132,49.88c1.693-.747,3.178-.125,4.711.379-.245,1.812-.487,3.6-.731,5.382a.4.4,0,0,1-.082.214,1.518,1.518,0,0,1-1.372-.243C150.817,53.716,149.984,51.817,149.132,49.88Z" transform="translate(-135.347 -14.904)" fill="#ffdc55"/>
    <path id="Path_493" data-name="Path 493" d="M134.2,67.538c-1.065.292-2.044.61-3.045.817a1.218,1.218,0,0,1-1.334-.99,1.288,1.288,0,0,1,.785-1.472c.817-.36,1.636-.718,2.528-1.11Z" transform="translate(-127.432 -21.143)" fill="#ffdc55"/>
    <path id="Path_494" data-name="Path 494" d="M144.328,52.563l2.109,4.8a.977.977,0,0,1-1.348-.028c-.94-.729-1.933-1.39-2.955-2.114Z" transform="translate(-132.484 -16.143)" fill="#ffdc55"/>
    <path id="Path_495" data-name="Path 495" d="M139.111,60.027l2.9,2.054-2.278,1.869c-.378-.982-.785-1.876-1.043-2.811C138.613,60.851,138.94,60.451,139.111,60.027Z" transform="translate(-131.07 -19.197)" fill="#ffdc55"/>
    <path id="Path_456" data-name="Path 456" d="M74.4-146.1a7.973,7.973,0,0,1,.322-.985,11.722,11.722,0,0,1,1.763-2.659.713.713,0,0,1,1.126-.012,13.344,13.344,0,0,1,1.825,2.761,2.482,2.482,0,0,1-.479,2.873,2.555,2.555,0,0,1-2.83.644A2.71,2.71,0,0,1,74.4-146.1Zm2.652-2.926a10.715,10.715,0,0,0-1.591,2.5,1.767,1.767,0,0,0-.119.868,1.612,1.612,0,0,0,1.211,1.378,1.636,1.636,0,0,0,1.793-.507,1.534,1.534,0,0,0,.294-1.771A12.5,12.5,0,0,0,77.055-149.026Z" transform="translate(-61.795 198.614)" fill="#2a2968" stroke="#2a2968" stroke-width="2.5"/>
    <path id="Path_501" data-name="Path 501" d="M74.4-146.1a7.973,7.973,0,0,1,.322-.985,11.722,11.722,0,0,1,1.763-2.659.713.713,0,0,1,1.126-.012,13.344,13.344,0,0,1,1.825,2.761,2.482,2.482,0,0,1-.479,2.873,2.555,2.555,0,0,1-2.83.644A2.71,2.71,0,0,1,74.4-146.1Zm2.652-2.926a10.715,10.715,0,0,0-1.591,2.5,1.767,1.767,0,0,0-.119.868,1.612,1.612,0,0,0,1.211,1.378,1.636,1.636,0,0,0,1.793-.507,1.534,1.534,0,0,0,.294-1.771A12.5,12.5,0,0,0,77.055-149.026Z" transform="translate(-69.795 207.978)" fill="#2a2968" stroke="#2a2968" stroke-width="2.5"/>
    <path id="Path_459" data-name="Path 459" d="M79.323-146.589a12.5,12.5,0,0,1,1.588,2.468,1.534,1.534,0,0,1-.294,1.771,1.636,1.636,0,0,1-1.793.507,1.612,1.612,0,0,1-1.211-1.378,1.767,1.767,0,0,1,.119-.868A10.714,10.714,0,0,1,79.323-146.589Z" transform="translate(-64.063 196.178)" fill="#ffdc55"/>
    <path id="Path_502" data-name="Path 502" d="M79.323-146.589a12.5,12.5,0,0,1,1.588,2.468,1.534,1.534,0,0,1-.294,1.771,1.636,1.636,0,0,1-1.793.507,1.612,1.612,0,0,1-1.211-1.378,1.767,1.767,0,0,1,.119-.868A10.714,10.714,0,0,1,79.323-146.589Z" transform="translate(-72.063 205.54)" fill="#ffdc55"/>
  </g>
</svg>
