<svg id="Knowledge" xmlns="http://www.w3.org/2000/svg" width="63.156" height="56.737" viewBox="0 0 63.156 56.737">
  <rect id="Rectangle_35" data-name="Rectangle 35" width="8.078" height="8.078" transform="translate(43.534 45.942)" fill="#ffd639"/>
  <path id="Path_27" data-name="Path 27" d="M107.384,324.5a1.229,1.229,0,1,0-1.243,1.246A1.242,1.242,0,0,0,107.384,324.5Z" transform="translate(-92.216 -273.951)" fill="#2a2968"/>
  <path id="Path_28" data-name="Path 28" d="M90.8,74.227a1.672,1.672,0,0,1-1.678.877c-2.651-.035-5.3-.013-7.956-.013h-.728c0,1.178-.012,2.3,0,3.427a1.355,1.355,0,0,1-.663,1.355,1.323,1.323,0,0,1-1.492-.208c-.895-.62-1.8-1.223-2.734-1.854-.908.594-1.822,1.181-2.723,1.786a1.438,1.438,0,0,1-1.6.28c-.623-.336-.68-.912-.669-1.537.019-1.063.005-2.126.005-3.248-1.8,0-3.543,0-5.285.009a.5.5,0,0,0-.342.193,5.67,5.67,0,0,1-3.849,2.1,9.786,9.786,0,0,1-5.338-.444,5.01,5.01,0,0,1-2.227-1.593.875.875,0,0,0-.614-.253c-1.891-.019-3.783,0-5.674-.016a1.228,1.228,0,0,1-1.183-1.816,1.252,1.252,0,0,1,1.179-.647c2.323,0,4.646,0,6.969.005a1.315,1.315,0,0,1,1.3.942,1.585,1.585,0,0,0,.636.815,6.882,6.882,0,0,0,6.172,0,1.571,1.571,0,0,0,.631-.819,1.354,1.354,0,0,1,1.423-.941c2.035,0,4.07,0,6.155,0V70.157H34.3c-1.355,0-1.722-.365-1.722-1.715q0-16,0-32.009V35.66H30.149V72.624h.637c1.665,0,3.33,0,5,0,.906,0,1.468.465,1.484,1.207.016.764-.562,1.256-1.5,1.257q-3.33.005-6.661,0c-1.006,0-1.459-.462-1.459-1.482q0-19.489,0-38.978c0-1.019.452-1.471,1.464-1.476,1.128-.006,2.256,0,3.469,0,0-1.094,0-2.154,0-3.214,0-1.356.362-1.72,1.716-1.72q12,0,23.991-.013a2.869,2.869,0,0,0,1.226-.288,44.259,44.259,0,0,1,19.3-4.63c1.213-.016,1.624.4,1.626,1.622,0,1.084,0,2.167,0,3.308,1.248,0,2.435,0,3.622,0,1.132,0,1.556.43,1.559,1.569,0,1.089,0,2.178,0,3.365h1.715c.6,0,1.2.038,1.788-.009a1.593,1.593,0,0,1,1.678.873ZM77.946,25.8a2.622,2.622,0,0,0-.284-.021,42.894,42.894,0,0,0-16.838,4.248c-.368.178-.368.423-.368.738q0,17.789,0,35.577c0,.171.023.342.04.577a44.309,44.309,0,0,1,17.445-4.152ZM35.093,30.711V67.64H57.96V30.711ZM83.1,67.668V30.727H80.443V31.5q0,16.062,0,32.124c0,1.134-.412,1.589-1.469,1.6a41.145,41.145,0,0,0-9.337,1.132c-1.422.34-2.82.779-4.229,1.173l.035.141Zm5.223-32.011h-2.7v.769q0,14.642,0,29.284c-.007,5.024.588,4.418-4.412,4.446-.239,0-.479,0-.721,0v2.416h7.841Zm-10.4,40.771V70.205H73.1v6.26c.6-.393,1.133-.737,1.659-1.093a1.3,1.3,0,0,1,1.6,0C76.859,75.718,77.368,76.051,77.932,76.429Z" transform="translate(-27.648 -23.286)" fill="#2a2968"/>
  <path id="Path_29" data-name="Path 29" d="M107.384,324.5a1.229,1.229,0,1,1-1.215-1.212A1.242,1.242,0,0,1,107.384,324.5Z" transform="translate(-92.216 -273.951)" fill="#2a2968"/>
  <path id="Path_30" data-name="Path 30" d="M97.03,130.709c-2.5,0-5.009.013-7.513-.015a1.532,1.532,0,0,1-1.055-.344,1.775,1.775,0,0,1-.357-1.206,1.056,1.056,0,0,1,1.041-.89,7.082,7.082,0,0,1,.8-.012h14.288c.185,0,.37-.007.554,0a1.243,1.243,0,0,1,1.241,1.2,1.221,1.221,0,0,1-1.24,1.257c-1.19.023-2.381.008-3.572.008Z" transform="translate(-78.157 -110.976)" fill="#2a2968"/>
  <path id="Path_31" data-name="Path 31" d="M96.608,160.7c-2.5,0-5.009.016-7.513-.017a2.053,2.053,0,0,1-1.115-.38,1.021,1.021,0,0,1-.3-1.23,1.179,1.179,0,0,1,1.049-.827,9.674,9.674,0,0,1,.985-.013h14.1c.185,0,.37-.007.554,0a1.243,1.243,0,0,1,1.238,1.2,1.221,1.221,0,0,1-1.242,1.255c-1.211.023-2.422.008-3.633.008Z" transform="translate(-77.737 -136.037)" fill="#2a2968"/>
  <path id="Path_32" data-name="Path 32" d="M96.668,188.248c2.5,0,5.009-.013,7.513.015a1.54,1.54,0,0,1,1.056.339,1.814,1.814,0,0,1,.363,1.2,1.051,1.051,0,0,1-.975.889,3.106,3.106,0,0,1-.553.02H89.292c-.1,0-.205,0-.308,0a1.248,1.248,0,0,1-1.309-1.256,1.231,1.231,0,0,1,1.294-1.2c1.108-.016,2.217-.005,3.326-.005Z" transform="translate(-77.803 -161.114)" fill="#2a2968"/>
  <path id="Path_33" data-name="Path 33" d="M96.682,218.246c2.5,0,5.009-.016,7.513.017a2.044,2.044,0,0,1,1.114.382,1.019,1.019,0,0,1,.293,1.23,1.177,1.177,0,0,1-1.051.824c-.366.035-.738.014-1.108.014H89.463c-.185,0-.37.007-.554,0a1.24,1.24,0,0,1-1.234-1.206,1.219,1.219,0,0,1,1.247-1.249c1.334-.021,2.669-.007,4-.008Z" transform="translate(-77.803 -186.178)" fill="#2a2968"/>
  <path id="Path_34" data-name="Path 34" d="M96.73,248.248c2.484,0,4.968-.013,7.452.015a1.541,1.541,0,0,1,1.056.339,1.813,1.813,0,0,1,.363,1.2,1.051,1.051,0,0,1-.976.889,3.123,3.123,0,0,1-.553.02H89.292c-.1,0-.205,0-.308,0a1.248,1.248,0,0,1-1.308-1.257,1.231,1.231,0,0,1,1.295-1.2c1.088-.016,2.176-.005,3.264-.005Z" transform="translate(-77.803 -211.246)" fill="#2a2968"/>
  <path id="Path_35" data-name="Path 35" d="M94.243,98.26c1.683,0,3.365,0,5.048,0,.89,0,1.454.489,1.452,1.234s-.565,1.229-1.458,1.23q-5.078.005-10.157,0c-.891,0-1.453-.489-1.452-1.235s.563-1.226,1.457-1.229C90.837,98.257,92.54,98.26,94.243,98.26Z" transform="translate(-77.804 -85.929)" fill="#2a2968"/>
</svg>
