<svg width="48" height="48" viewBox="0 0 48 48" fill="none" xmlns="http://www.w3.org/2000/svg">
<g clip-path="url(#clip0_2014_12041)">
<g clip-path="url(#clip1_2014_12041)">
<path d="M38.52 0H9.48C4.24434 0 0 4.24434 0 9.48V38.52C0 43.7557 4.24434 48 9.48 48H38.52C43.7557 48 48 43.7557 48 38.52V9.48C48 4.24434 43.7557 0 38.52 0Z" fill="url(#paint0_linear_2014_12041)"/>
<mask id="mask0_2014_12041" style="mask-type:luminance" maskUnits="userSpaceOnUse" x="0" y="0" width="48" height="48">
<path d="M38.52 0H9.48C4.24434 0 0 4.24434 0 9.48V38.52C0 43.7557 4.24434 48 9.48 48H38.52C43.7557 48 48 43.7557 48 38.52V9.48C48 4.24434 43.7557 0 38.52 0Z" fill="white"/>
</mask>
<g mask="url(#mask0_2014_12041)">
<path d="M10.8375 46.44L37.1775 46.44C42.2917 46.44 46.4375 42.2942 46.4375 37.18L46.4375 10.84C46.4375 5.72585 42.2917 1.58001 37.1775 1.58001L10.8375 1.58001C5.72334 1.58001 1.5775 5.72585 1.5775 10.84L1.5775 37.18C1.5775 42.2942 5.72334 46.44 10.8375 46.44Z" fill="url(#paint1_linear_2014_12041)"/>
</g>
<g style="mix-blend-mode:color-burn">
<path d="M39.5008 42.58C39.7584 42.3268 39.963 42.0249 40.1027 41.6918C40.2424 41.3587 40.3143 41.0012 40.3143 40.64C40.3143 40.2788 40.2424 39.9212 40.1027 39.5882C39.963 39.2551 39.7584 38.9531 39.5008 38.7L28.0008 27.28C27.7418 27.0115 27.597 26.653 27.597 26.28C27.597 25.9069 27.7418 25.5484 28.0008 25.28L39.5008 13.8C40.0174 13.2825 40.3076 12.5812 40.3076 11.85C40.3076 11.1188 40.0174 10.4174 39.5008 9.89998C38.9678 9.40131 38.26 9.13229 37.5303 9.151C36.8007 9.16971 36.1076 9.47465 35.6008 9.99998L21.2208 24.4C20.7042 24.9174 20.4141 25.6188 20.4141 26.35C20.4141 27.0812 20.7042 27.7825 21.2208 28.3L35.6008 42.68C36.1314 43.1836 36.8403 43.4559 37.5715 43.4371C38.3028 43.4184 38.9967 43.1101 39.5008 42.58Z" fill="url(#paint2_linear_2014_12041)"/>
</g>
<g style="mix-blend-mode:color-burn">
<path d="M39.5008 38.1C40.0174 37.5825 40.3076 36.8812 40.3076 36.15C40.3076 35.4188 40.0174 34.7175 39.5008 34.2L28.0008 22.78C27.7418 22.5116 27.597 22.1531 27.597 21.78C27.597 21.4069 27.7418 21.0484 28.0008 20.78L39.4208 9.35999C39.6784 9.10683 39.883 8.8049 40.0227 8.47182C40.1624 8.13873 40.2343 7.78117 40.2343 7.41999C40.2343 7.05881 40.1624 6.70125 40.0227 6.36816C39.883 6.03508 39.6784 5.73315 39.4208 5.47999C38.9034 4.96338 38.202 4.67322 37.4708 4.67322C36.7396 4.67322 36.0383 4.96338 35.5208 5.47999L21.2208 19.8C20.7042 20.3175 20.4141 21.0188 20.4141 21.75C20.4141 22.4812 20.7042 23.1825 21.2208 23.7L35.6008 38.1C36.1208 38.6118 36.8212 38.8986 37.5508 38.8986C38.2804 38.8986 38.9808 38.6118 39.5008 38.1Z" fill="url(#paint3_linear_2014_12041)"/>
</g>
<g style="mix-blend-mode:color-burn">
<path d="M16.6812 43.38C16.0003 43.3438 15.3613 43.0394 14.9041 42.5335C14.4469 42.0275 14.2086 41.3611 14.2412 40.68V7.29998C14.2138 6.62017 14.454 5.9567 14.9101 5.45193C15.3663 4.94715 16.0021 4.64129 16.6812 4.59998C17.3587 4.64127 17.9925 4.94782 18.4455 5.4532C18.8985 5.95858 19.1341 6.6221 19.1012 7.29998V40.68C19.1201 41.0163 19.0725 41.353 18.961 41.6708C18.8495 41.9887 18.6764 42.2814 18.4516 42.5322C18.2268 42.7831 17.9547 42.9871 17.6509 43.1325C17.3471 43.278 17.0176 43.3621 16.6812 43.38Z" fill="url(#paint4_linear_2014_12041)"/>
</g>
<path d="M14.9195 42.4C14.5816 42.4 14.247 42.3331 13.9351 42.2032C13.6232 42.0733 13.3401 41.883 13.1022 41.6431C12.8642 41.4033 12.676 41.1187 12.5486 40.8058C12.4211 40.4929 12.3568 40.1578 12.3595 39.82V8.15998C12.3595 7.48102 12.6292 6.82988 13.1093 6.34978C13.5894 5.86969 14.2405 5.59998 14.9195 5.59998C15.5984 5.59998 16.2496 5.86969 16.7296 6.34978C17.2097 6.82988 17.4795 7.48102 17.4795 8.15998V39.82C17.4821 40.1578 17.4178 40.4929 17.2904 40.8058C17.1629 41.1187 16.9747 41.4033 16.7368 41.6431C16.4988 41.883 16.2157 42.0733 15.9038 42.2032C15.5919 42.3331 15.2573 42.4 14.9195 42.4Z" fill="white"/>
<path d="M39.5016 40.14C39.7592 39.8868 39.9638 39.5849 40.1035 39.2518C40.2432 38.9188 40.3151 38.5612 40.3151 38.2C40.3151 37.8388 40.2432 37.4813 40.1035 37.1482C39.9638 36.8151 39.7592 36.5132 39.5016 36.26L28.0016 24.82C27.7378 24.554 27.5898 24.1946 27.5898 23.82C27.5898 23.4454 27.7378 23.086 28.0016 22.82L39.4216 11.4C39.9382 10.8825 40.2284 10.1812 40.2284 9.45001C40.2284 8.7188 39.9382 8.01748 39.4216 7.50001C38.9041 6.9834 38.2028 6.69324 37.4716 6.69324C36.7404 6.69324 36.0391 6.9834 35.5216 7.50001L21.1416 21.9C20.884 22.1532 20.6794 22.4551 20.5397 22.7882C20.4001 23.1213 20.3281 23.4788 20.3281 23.84C20.3281 24.2012 20.4001 24.5588 20.5397 24.8918C20.6794 25.2249 20.884 25.5268 21.1416 25.78L35.5216 40.18C35.7818 40.4454 36.093 40.6555 36.4364 40.7978C36.7798 40.94 37.1484 41.0113 37.5201 41.0076C37.8918 41.0039 38.2589 40.9251 38.5994 40.776C38.9399 40.6269 39.2468 40.4106 39.5016 40.14Z" fill="white"/>
</g>
</g>
<defs>
<linearGradient id="paint0_linear_2014_12041" x1="-4.5" y1="-9.84" x2="63.68" y2="71.1" gradientUnits="userSpaceOnUse">
<stop stop-color="#9FA0A0"/>
<stop offset="0.15" stop-color="#BCBDBD"/>
<stop offset="0.36" stop-color="#E1E1E1"/>
<stop offset="0.48" stop-color="#EFEFEF"/>
<stop offset="1" stop-color="#727171"/>
</linearGradient>
<linearGradient id="paint1_linear_2014_12041" x1="55.4575" y1="-2.49999" x2="-19.7825" y2="60.88" gradientUnits="userSpaceOnUse">
<stop offset="0.09" stop-color="#9FA0A0"/>
<stop offset="0.17" stop-color="#C7C8C8"/>
<stop offset="0.23" stop-color="#E9EAEA"/>
<stop offset="0.36" stop-color="#C6C7C7"/>
<stop offset="0.53" stop-color="#A2A2A2"/>
<stop offset="0.69" stop-color="#888787"/>
<stop offset="0.83" stop-color="#787777"/>
<stop offset="0.94" stop-color="#727171"/>
</linearGradient>
<linearGradient id="paint2_linear_2014_12041" x1="40.3008" y1="26.24" x2="20.4008" y2="26.24" gradientUnits="userSpaceOnUse">
<stop stop-color="#EBEBEB"/>
<stop offset="1" stop-color="#A1A1A1"/>
</linearGradient>
<linearGradient id="paint3_linear_2014_12041" x1="40.3008" y1="21.76" x2="20.4008" y2="21.76" gradientUnits="userSpaceOnUse">
<stop stop-color="#EBEBEB"/>
<stop offset="1" stop-color="#A1A1A1"/>
</linearGradient>
<linearGradient id="paint4_linear_2014_12041" x1="14.2412" y1="24" x2="19.1012" y2="24" gradientUnits="userSpaceOnUse">
<stop stop-color="#EBEBEB"/>
<stop offset="1" stop-color="#A1A1A1"/>
</linearGradient>
<clipPath id="clip0_2014_12041">
<rect width="48" height="48" fill="white"/>
</clipPath>
<clipPath id="clip1_2014_12041">
<rect width="48" height="48" fill="white"/>
</clipPath>
</defs>
</svg>
