<?xml version="1.0" encoding="utf-8"?>
<!-- Generator: Adobe Illustrator 26.0.2, SVG Export Plug-In . SVG Version: 6.00 Build 0)  -->
<svg version="1.1" xmlns="http://www.w3.org/2000/svg" xmlns:xlink="http://www.w3.org/1999/xlink" x="0px" y="0px"
	 viewBox="0 0 16 10.7" style="enable-background:new 0 0 16 10.7;" xml:space="preserve">
<style type="text/css">
	.st0{display:none;}
	.st1{display:inline;fill:#2A2968;}
	.st2{fill:#FFFFFF;}
</style>
<g id="圖層_1" class="st0">
	<path id="Icon_ionic-ios-arrow-round-forward" class="st1" d="M10.2,0.2c-0.3,0.3-0.3,0.7,0,1l3.4,3.4H0.7C0.3,4.6,0,4.9,0,5.3
		s0.3,0.7,0.7,0.7h12.8l-3.4,3.4c-0.3,0.3-0.3,0.7,0,1c0.3,0.3,0.7,0.3,1,0l4.6-4.6l0,0c0.1-0.1,0.1-0.1,0.1-0.2
		C16,5.5,16,5.4,16,5.3c0-0.2-0.1-0.4-0.2-0.5l-4.6-4.6C10.9-0.1,10.5-0.1,10.2,0.2C10.2,0.2,10.2,0.2,10.2,0.2z"/>
</g>
<g id="圖層_2">
	<path class="st2" d="M12.8,4.6c-0.4-0.3-0.8-0.7-1.3-1.2s-0.9-1-1.2-1.4l1.2-0.7c0.4,0.5,0.8,1,1.3,1.5c0.5,0.5,1,0.9,1.5,1.4
		c0.5,0.4,1,0.8,1.6,1.1c-0.5,0.3-1,0.7-1.6,1.1c-0.5,0.4-1,0.9-1.5,1.4c-0.5,0.5-0.9,1-1.3,1.5l-1.2-0.7c0.4-0.5,0.8-1,1.2-1.4
		s0.9-0.9,1.3-1.2H0.1V4.6H12.8z"/>
</g>
</svg>
