<?xml version="1.0" encoding="utf-8"?>
<!-- Generator: Adobe Illustrator 26.0.2, SVG Export Plug-In . SVG Version: 6.00 Build 0)  -->
<svg version="1.1" xmlns="http://www.w3.org/2000/svg" xmlns:xlink="http://www.w3.org/1999/xlink" x="0px" y="0px"
	 viewBox="0 0 46.7 37.1" style="enable-background:new 0 0 46.7 37.1;" xml:space="preserve">
<style type="text/css">
	.st0{display:none;}
	.st1{display:inline;}
	.st2{fill:#FFDC55;}
	.st3{fill:#2A2968;stroke:#2A2968;}
	.st4{fill-rule:evenodd;clip-rule:evenodd;fill:#FF5809;}
</style>
<g id="圖層_1" class="st0">
	<g id="YbdtgT.tif" transform="translate(311.168 53.323)" class="st1">
		<path id="Path_672" class="st2" d="M-296.1-51.4l-3.9,8.2l-8.2,2.2l4.1,6.3l-4.1,6.2l8.2,2l3.4,7.6l8.6-5.3l9.6,5.9l3.6-8.2l9.1-2
			l-6.2-6.8l5.6-6.6l-9.5-1.4l-3.1-8.2l-8.6,5.5L-296.1-51.4z"/>
		<g id="Group_427" transform="translate(-310.678 -52.823)">
			<path id="Path_667" class="st3" d="M45.8,25.5c-0.3,0.4-0.7,0.6-1.2,0.6c-2.7,0.4-5.4,0.8-8.2,1.2c-0.3,0-0.3,0.2-0.4,0.4
				c-1,2.5-2,5-3,7.4c0,0.1-0.1,0.2-0.1,0.3c-0.1,0.5-0.6,0.8-1.1,0.6c-0.1,0-0.3-0.1-0.4-0.2c-1.3-0.8-2.6-1.7-3.8-2.5
				c-1.4-0.9-2.9-1.9-4.3-2.8c-0.2-0.2-0.6-0.2-0.8,0c-2.6,1.8-5.3,3.5-7.9,5.2c-0.9,0.6-1.4,0.4-1.7-0.6c-1-2.5-2-4.9-3-7.4
				c-0.1-0.3-0.4-0.5-0.7-0.6c-2.7-0.4-5.4-0.8-8.1-1.2c-0.4-0.1-0.8-0.1-1-0.6s0-0.8,0.3-1.1c1.6-2,3.1-4,4.7-6
				c0.2-0.2,0.2-0.4,0-0.6c0,0,0,0,0,0c-1.6-2-3.1-4-4.7-6c-0.3-0.3-0.5-0.7-0.3-1.1s0.6-0.5,1-0.6c2.7-0.4,5.4-0.8,8.2-1.2
				c0.3,0,0.5-0.2,0.6-0.5c1-2.5,2-5,3-7.4C13,0.6,13.2,0.3,13.5,0H14c0.4,0.3,0.8,0.5,1.3,0.8c0.6,0.4,0.7,0.9,0.4,1.3
				s-0.8,0.5-1.4,0.2c0,0-0.1,0-0.2-0.1c-0.1,0.1-0.1,0.3-0.2,0.4c-0.9,2.3-1.9,4.6-2.8,6.9c-0.2,0.5-0.6,0.9-1.1,0.9
				c-2.4,0.3-4.8,0.7-7.2,1.1c-0.1,0-0.1,0-0.3,0.1c0.1,0.2,0.2,0.3,0.3,0.4c1.4,1.8,2.8,3.5,4.1,5.3c0.4,0.3,0.5,1,0.1,1.4
				c0,0-0.1,0.1-0.1,0.1c-1.4,1.7-2.7,3.5-4.1,5.2c-0.1,0.1-0.2,0.3-0.3,0.5c0.8,0.1,1.5,0.2,2.2,0.3c1.8,0.3,3.7,0.5,5.5,0.8
				c0.4,0.1,0.7,0.3,0.9,0.7c0.9,2.3,1.8,4.6,2.8,6.9c0.1,0.2,0.1,0.4,0.2,0.6c0.2-0.1,0.4-0.2,0.5-0.3c2.5-1.6,4.9-3.2,7.4-4.9
				c0.4-0.4,1.1-0.4,1.5,0c0,0,0,0,0,0l7.4,4.9c0.2,0.1,0.3,0.2,0.5,0.3c0.1-0.2,0.2-0.4,0.3-0.6c0.9-2.3,1.8-4.5,2.8-6.8
				c0.2-0.5,0.6-0.8,1.1-0.8c2.4-0.3,4.9-0.7,7.3-1.1c0.1,0,0.2,0,0.3-0.1c-0.1-0.2-0.2-0.3-0.3-0.4c-1.4-1.8-2.8-3.5-4.1-5.3
				c-0.4-0.4-0.4-1-0.1-1.4c0,0,0.1-0.1,0.1-0.1c1.4-1.8,2.8-3.5,4.1-5.3c0.1-0.1,0.2-0.3,0.3-0.5c-0.8-0.1-1.5-0.2-2.2-0.3
				c-1.8-0.3-3.7-0.5-5.5-0.8c-0.4-0.1-0.7-0.3-0.9-0.7c-0.9-2.3-1.8-4.6-2.8-6.9c-0.1-0.2-0.1-0.3-0.2-0.6
				c-0.2,0.1-0.3,0.2-0.4,0.3l-7.5,4.9c-0.4,0.4-1.1,0.4-1.5,0c0,0,0,0,0,0c-0.3-0.2-0.6-0.4-0.9-0.6c-0.4-0.3-0.6-0.8-0.3-1.2
				c0,0,0,0,0,0c0.2-0.4,0.8-0.5,1.1-0.3c0,0,0.1,0,0.1,0.1c0.5,0.5,0.9,0.3,1.4,0c2.5-1.7,5.1-3.4,7.6-5L31.7,0h0.5
				c0.3,0.3,0.5,0.6,0.7,0.9c1,2.5,2,5,3,7.5c0.1,0.2,0.2,0.4,0.4,0.4c2.7,0.4,5.5,0.9,8.2,1.2c0.5,0,0.9,0.3,1.1,0.6v0.6l-0.5,0.6
				c-1.5,2-3.1,3.9-4.6,5.9c-0.2,0.2-0.2,0.4,0,0.6c1.7,2.2,3.4,4.3,5.1,6.5L45.8,25.5z"/>
			<path id="Path_668" class="st3" d="M31.2,17.3l-1.4,4.5c0,0.1-0.1,0.2-0.1,0.3c-0.2,0.4-0.6,0.7-1.1,0.7c-0.5,0-0.9-0.4-1-0.8
				c-0.5-2.5-1-5.1-1.5-7.7c-0.1-0.5,0.1-1,0.6-1.1c0,0,0.1,0,0.1,0c0.5-0.1,1,0.3,1,0.8c0,0,0,0,0,0c0.3,1.4,0.6,2.8,0.8,4.2
				c0,0.1,0.1,0.3,0.1,0.5c0.1-0.2,0.1-0.3,0.2-0.4c0.4-1.4,0.9-2.9,1.3-4.3c0.2-0.6,0.5-0.8,0.9-0.8c0.4,0,0.7,0.3,0.9,0.8
				c0.4,1.4,0.9,2.8,1.3,4.2c0,0.2,0.1,0.3,0.2,0.4c0.1-0.7,0.3-1.3,0.4-2c0.2-0.9,0.3-1.8,0.5-2.6c0-0.5,0.5-0.9,1-0.8
				c0,0,0.1,0,0.1,0c0.5,0.1,0.8,0.6,0.7,1.1c0,0,0,0.1,0,0.1c-0.5,2.5-1,5-1.5,7.4c0,0.5-0.5,1-1,1c-0.5,0-1-0.4-1.1-0.9
				C32.2,20.4,31.7,18.9,31.2,17.3L31.2,17.3z"/>
			<path id="Path_669" class="st3" d="M11.2,17.2c0,1.5,0,2.9,0,4.4c0,0.1,0,0.3,0,0.4c0,0.5-0.4,0.9-0.8,0.9
				c-0.5,0-0.9-0.4-0.9-0.8c0-0.3,0-0.5,0-0.8c0-2.3,0-4.6,0-6.8c0-0.2,0-0.4,0.1-0.7c0.2-0.4,0.7-0.6,1.2-0.4
				c0.2,0.1,0.3,0.2,0.4,0.4c1.2,1.7,2.3,3.4,3.5,5c0.1,0.1,0.2,0.3,0.4,0.3c0-0.8,0-1.6,0-2.3c0-0.8,0-1.7,0-2.5
				c0-0.5,0.3-0.9,0.8-1c0,0,0.1,0,0.1,0c0.5,0,0.9,0.4,0.9,0.9c0,0,0,0,0,0.1c0,0.9,0,1.8,0,2.7v4.5c0,0.1,0,0.2,0,0.4
				c0,0.5-0.3,0.9-0.7,1.1c-0.5,0.1-0.9-0.1-1.1-0.5c-1.1-1.6-2.2-3.2-3.3-4.7C11.4,17.4,11.3,17.3,11.2,17.2L11.2,17.2z"/>
			<path id="Path_670" class="st3" d="M20.6,18.9v2.1h1.9c0.2,0,0.3,0,0.5,0c0.5,0,0.9,0.4,0.9,0.9c0,0.5-0.4,0.9-0.9,0.9
				c-1.1,0-2.3,0-3.4,0c-0.6,0-0.8-0.4-0.8-1c0-2.5,0-5,0-7.5c0-0.1,0-0.1,0-0.2c0-0.5,0.4-0.9,0.9-0.9c0,0,0,0,0,0
				c1.1,0,2.2,0,3.3,0c0.5,0,0.9,0.4,0.9,0.9c0,0.5-0.4,0.9-0.9,0.9c0,0,0,0,0,0c-0.8,0-1.6,0-2.4,0v2.1c0.7,0,1.4,0,2,0
				c0.4,0,0.8,0.2,1,0.7c0.1,0.5-0.2,1-0.6,1.1c-0.1,0-0.2,0-0.3,0C22,19,21.4,18.9,20.6,18.9z"/>
			<path id="Path_671" class="st3" d="M18.3,3c0.5,0,0.9,0.4,0.9,0.9c0,0,0,0,0,0c0,0.5-0.4,0.9-0.9,0.9c-0.5,0-0.9-0.4-0.9-0.9
				c0,0,0,0,0,0C17.5,3.4,17.9,3,18.3,3C18.3,3,18.3,3,18.3,3z"/>
		</g>
	</g>
</g>
<g id="圖層_2">
	<g>
		<path class="st4" d="M36.3,4.4h-6.1c-0.5,0-0.2-1.2-3.4-1.2c-0.2-3.1-4.8-3.1-5,0c-3.2,0-2.9,1.2-3.4,1.2h-6.1L10.7,6V35l1.6,1.6
			h24.1l1.6-1.6V6L36.3,4.4z M30,21.6c-2.8,2.2-5.1,4.9-7.4,7.6c-1-1.1-1.9-2.2-2.5-3.5c-0.7-1.5-3.2,0.7-2.6,2.1
			c0.8,1.9,2.2,3.4,3.7,4.9c0.6,0.6,1.6-0.1,2-0.5c2.5-2.9,4.9-5.9,8-8.3C32.6,22.6,31.7,20.2,30,21.6L30,21.6z M16,19.6h15.3
			c0.5,0,0.9-0.3,0.9-0.7c0-0.4-0.4-0.7-0.9-0.7H16c-0.5,0-0.9,0.3-0.9,0.7C15.1,19.3,15.5,19.6,16,19.6L16,19.6z M16,16.1h15.3
			c0.5,0,0.9-0.3,0.9-0.7c0-0.4-0.4-0.7-0.9-0.7H16c-0.5,0-0.9,0.3-0.9,0.7C15.1,15.8,15.5,16.1,16,16.1L16,16.1z M16,12.6h15.3
			c0.5,0,0.9-0.3,0.9-0.7c0-0.4-0.4-0.7-0.9-0.7H16c-0.5,0-0.9,0.3-0.9,0.7C15.1,12.3,15.5,12.6,16,12.6L16,12.6z M35.5,32.6
			c0,0.9-0.7,1.6-1.6,1.6H14.7c-0.9,0-1.6-0.7-1.6-1.6V8.4c0-0.9,0.7-1.6,1.6-1.6h3.8c0.5,0,0.4,1.3,1.8,1.3h8
			c1.4,0,1.3-1.3,1.9-1.3h3.7c0.9,0,1.6,0.7,1.6,1.6V32.6z"/>
	</g>
</g>
</svg>
