<?xml version="1.0" encoding="utf-8"?>
<!-- Generator: Adobe Illustrator 26.0.2, SVG Export Plug-In . SVG Version: 6.00 Build 0)  -->
<svg version="1.1" xmlns="http://www.w3.org/2000/svg" xmlns:xlink="http://www.w3.org/1999/xlink" x="0px" y="0px"
	 viewBox="0 0 18.2 22.9" style="enable-background:new 0 0 18.2 22.9;" xml:space="preserve">
<style type="text/css">
	.st0{display:none;}
	.st1{display:inline;}
	.st2{fill:#2A2968;}
	.st3{fill:#FFDC55;}
	.st4{fill:#FF5809;}
	.st5{fill:#FFFFFF;stroke:#FF5809;stroke-miterlimit:10;}
</style>
<g id="圖層_1" class="st0">
	<g id="_7i6mJq.tif" transform="translate(0 0)" class="st1">
		<path id="Path_635" class="st2" d="M8.2,22.9c-0.5-0.1-0.9-0.2-1.4-0.4c-0.2-0.1-0.4-0.2-0.6-0.3C6,22.1,5.9,21.9,6,21.7
			c0,0,0,0,0-0.1c0.1-0.2,0.4-0.3,0.6-0.2c0,0,0,0,0.1,0c0.4,0.3,1,0.5,1.5,0.5c1.1,0.1,2.1-0.3,2.8-1.1c0.2-0.2,0.3-0.5,0.3-0.7
			c0.1-0.3,0-0.7-0.3-0.9c-1-0.9-2-1.9-3-2.8c-0.4-0.4-1-0.5-1.4-0.1c-0.4,0.3-1,0.3-1.3-0.2c0-0.1-0.1-0.1-0.1-0.2
			c-1.5-2.4-2-5.2-1.4-8c0.1-0.5,0.5-0.9,1.1-0.8c0,0,0.1,0,0.1,0c0.6,0.2,1.2-0.1,1.4-0.7c0.6-1.3,1.3-2.6,1.9-3.9
			C8.4,2.3,8.3,1.9,8,1.7c0,0,0,0,0,0C6.7,0.6,4.8,0.6,3.6,1.9C3.5,2,3.4,2.1,3.3,2.2c-1,1.4-1.8,2.9-2.1,4.6
			C0.3,11.1,1.3,15.6,4,19c0.1,0.1,0.2,0.3,0.1,0.5c-0.1,0.2-0.2,0.3-0.4,0.3c-0.2,0.1-0.4,0-0.4-0.2c-0.5-0.7-1-1.4-1.5-2.1
			C0.5,14.9-0.1,12,0,9.1C0.1,6.5,1,4,2.5,1.8c1.2-1.9,3.8-2.4,5.6-1.2c0.2,0.1,0.4,0.3,0.5,0.4C9.2,1.5,9.4,2.4,9,3
			C8.4,4.3,7.8,5.6,7.2,6.9c-0.4,1-1.4,1.5-2.4,1.2c0,0,0,0-0.1,0c-0.5,2.6-0.1,5.3,1.4,7.5c0.1,0,0.1-0.1,0.2-0.1
			c0.7-0.5,1.7-0.4,2.3,0.2c1.1,1,2.2,2,3.2,3.1c0.6,0.7,0.7,1.6,0.2,2.4c-0.6,1-1.7,1.7-2.9,1.8c-0.1,0-0.1,0-0.2,0L8.2,22.9z"/>
		<path id="Path_636" class="st2" d="M18.2,9.2c-0.1,0.3-0.1,0.7-0.2,1c-0.7,2.6-3.3,4.1-5.9,3.5c-0.5-0.1-0.9-0.3-1.3-0.6
			C10.7,13,10.5,13,10.4,13c-0.7,0-1.5-0.1-2.2-0.1c-0.3,0-0.5-0.2-0.5-0.4c0-0.1,0-0.2,0-0.3c0.2-0.8,0.5-1.5,0.7-2.3
			c0-0.1,0.1-0.3,0.1-0.4C8.2,6.9,10,4.6,12.6,4.2c2.6-0.4,5.1,1.4,5.5,4c0,0.2,0.1,0.4,0.1,0.6L18.2,9.2z M8.7,12
			c0.6,0,1.2,0.1,1.8,0.1c0.2,0,0.4,0.1,0.6,0.2c1.2,0.8,2.8,0.8,4,0.1c1.3-0.7,2.1-2,2-3.5c0-1.5-0.8-2.8-2.1-3.5
			c-1.3-0.7-2.8-0.6-4,0.2C9.9,6.5,9.2,7.9,9.4,9.4c0,0.2,0,0.5-0.1,0.7C9.1,10.7,8.9,11.3,8.7,12L8.7,12z"/>
		<path id="Path_637" class="st2" d="M5.4,20.7c0,0.2-0.2,0.4-0.4,0.5c-0.2,0-0.5-0.2-0.5-0.4c0,0,0,0,0,0c0-0.2,0.2-0.4,0.4-0.5
			C5.2,20.3,5.4,20.5,5.4,20.7C5.4,20.7,5.4,20.7,5.4,20.7z"/>
		<path id="Path_638" class="st3" d="M8.7,12c0.2-0.7,0.4-1.3,0.6-1.9c0.1-0.2,0.1-0.5,0.1-0.7c-0.2-1.4,0.5-2.9,1.7-3.6
			c1.2-0.9,2.8-1,4-0.2c1.3,0.6,2.2,2,2.1,3.5c0.1,1.5-0.7,2.8-2,3.5c-1.3,0.7-2.8,0.7-4-0.1c-0.2-0.1-0.4-0.2-0.6-0.2
			C9.9,12.1,9.3,12,8.7,12z M12.1,9.1c0-0.2-0.2-0.4-0.4-0.4c-0.2,0-0.5,0.2-0.5,0.4c0,0,0,0,0,0c0,0.3,0.2,0.5,0.5,0.5
			C11.9,9.5,12.1,9.3,12.1,9.1L12.1,9.1z M13.9,9.1c0-0.2-0.2-0.4-0.4-0.5c0,0,0,0,0,0c-0.2,0-0.4,0.2-0.4,0.4
			c0,0.3,0.2,0.5,0.5,0.5C13.7,9.5,13.9,9.4,13.9,9.1L13.9,9.1z M15.2,9.6c0.2,0,0.4-0.2,0.4-0.4c0-0.2-0.2-0.4-0.4-0.5c0,0,0,0,0,0
			c-0.2,0-0.4,0.2-0.4,0.4C14.8,9.3,15,9.5,15.2,9.6C15.2,9.5,15.2,9.5,15.2,9.6L15.2,9.6z"/>
		<path id="Path_639" class="st2" d="M12.1,9.1c0,0.2-0.2,0.4-0.4,0.4c-0.3,0-0.5-0.2-0.5-0.5c0-0.2,0.2-0.4,0.5-0.4c0,0,0,0,0,0
			C11.9,8.7,12.1,8.9,12.1,9.1z"/>
		<path id="Path_640" class="st2" d="M13.9,9.1c0,0.2-0.2,0.4-0.4,0.4c-0.3,0-0.5-0.2-0.5-0.5c0-0.2,0.2-0.4,0.4-0.4
			C13.7,8.7,13.9,8.8,13.9,9.1C13.9,9.1,13.9,9.1,13.9,9.1z"/>
		<path id="Path_641" class="st2" d="M15.2,9.6c-0.2,0-0.4-0.2-0.4-0.5c0,0,0,0,0,0c0-0.2,0.2-0.4,0.4-0.4c0.2,0,0.4,0.2,0.4,0.4
			c0,0,0,0,0,0C15.7,9.4,15.5,9.5,15.2,9.6z"/>
	</g>
</g>
<g id="圖層_2">
	<g>
		<path class="st4" d="M3.8,7.7c0,0-0.3,8.6,2.7,9.1c1.3,0.2,1.4-0.1,1.8-0.3c1.2-0.4,3,2.2,3.2,2.6c0.4,0.6-0.1,2.4-2,2.8
			c-1.8,0.4-5.8,0.4-8.2-5.8c-0.8-2.1-1.1-4-1.1-5.4C0.2,8,0.3,4.5,3.2,1.8c0,0,0.7-0.9,2.8-0.9s2.6,0.6,2.2,2.2
			C7.7,4.8,6.8,6.7,6.8,6.7S6.6,7.9,3.8,7.7z"/>
		<path class="st5" d="M13.2,4.2c-2.5,0-4.4,2-4.4,4.4c0,0.5,0.1,1.1,0.3,1.6l-1.3,2.1h2.9c0.7,0.5,1.6,0.8,2.5,0.8
			c2.5,0,4.4-2,4.4-4.4S15.7,4.2,13.2,4.2z"/>
	</g>
</g>
</svg>
