<svg width="48" height="48" viewBox="0 0 48 48" fill="none" xmlns="http://www.w3.org/2000/svg">
<g clip-path="url(#clip0_2014_10260)">
<path d="M22 38C30.8366 38 38 30.8366 38 22C38 13.1634 30.8366 6 22 6C13.1634 6 6 13.1634 6 22C6 30.8366 13.1634 38 22 38Z" stroke="#2A2968" stroke-width="2" stroke-linecap="round" stroke-linejoin="round"/>
<path d="M42.0008 42L33.3008 33.3" stroke="#2A2968" stroke-width="2" stroke-linecap="round" stroke-linejoin="round"/>
<path d="M38.52 0H9.48C4.24434 0 0 4.24434 0 9.48V38.52C0 43.7557 4.24434 48 9.48 48H38.52C43.7557 48 48 43.7557 48 38.52V9.48C48 4.24434 43.7557 0 38.52 0Z" fill="url(#paint0_linear_2014_10260)"/>
<mask id="mask0_2014_10260" style="mask-type:luminance" maskUnits="userSpaceOnUse" x="0" y="0" width="48" height="48">
<path d="M38.52 0H9.48C4.24434 0 0 4.24434 0 9.48V38.52C0 43.7557 4.24434 48 9.48 48H38.52C43.7557 48 48 43.7557 48 38.52V9.48C48 4.24434 43.7557 0 38.52 0Z" fill="white"/>
</mask>
<g mask="url(#mask0_2014_10260)">
<path d="M10.8375 46.44L37.1775 46.44C42.2917 46.44 46.4375 42.2942 46.4375 37.18L46.4375 10.84C46.4375 5.72585 42.2917 1.58 37.1775 1.58L10.8375 1.58C5.72334 1.58 1.5775 5.72585 1.5775 10.84L1.5775 37.18C1.5775 42.2942 5.72334 46.44 10.8375 46.44Z" fill="url(#paint1_linear_2014_10260)"/>
</g>
<path d="M39.7785 36.28L30.8585 27.34C32.7127 24.6097 33.482 21.2861 33.0162 18.0188C32.5503 14.7515 30.8828 11.7753 28.3395 9.67203C25.7961 7.56873 22.5599 6.48947 19.2632 6.64522C15.9665 6.80096 12.8464 8.1805 10.5127 10.5142C8.17898 12.8479 6.79943 15.968 6.64369 19.2647C6.48795 22.5614 7.5672 25.7977 9.6705 28.341C11.7738 30.8843 14.75 32.5519 18.0173 33.0177C21.2846 33.4835 24.6082 32.7142 27.3385 30.86L36.2985 39.84C36.7706 40.3015 37.4066 40.5565 38.0668 40.549C38.7269 40.5415 39.357 40.2721 39.8185 39.8C40.28 39.3279 40.535 38.6919 40.5275 38.0317C40.52 37.3716 40.2506 36.7415 39.7785 36.28ZM12.3185 27.5C10.8181 25.9974 9.79679 24.0836 9.38368 22.0007C8.97058 19.9178 9.1842 17.7592 9.99756 15.7976C10.8109 13.8361 12.1875 12.1597 13.9533 10.9803C15.7192 9.80085 17.795 9.17137 19.9185 9.17137C22.042 9.17137 24.1178 9.80085 25.8836 10.9803C27.6495 12.1597 29.0261 13.8361 29.8394 15.7976C30.6528 17.7592 30.8664 19.9178 30.4533 22.0007C30.0402 24.0836 29.0189 25.9974 27.5185 27.5C25.4987 29.5079 22.7665 30.6349 19.9185 30.6349C17.0705 30.6349 14.3383 29.5079 12.3185 27.5Z" fill="white"/>
<path d="M27.0201 14.78C26.8409 14.6053 26.6005 14.5075 26.3501 14.5075C26.0998 14.5075 25.8594 14.6053 25.6801 14.78C25.5887 14.866 25.5159 14.9698 25.4661 15.085C25.4163 15.2003 25.3906 15.3245 25.3906 15.45C25.3906 15.5755 25.4163 15.6997 25.4661 15.8149C25.5159 15.9301 25.5887 16.034 25.6801 16.12C26.1996 16.6383 26.6117 17.254 26.8929 17.9318C27.1741 18.6096 27.3188 19.3362 27.3188 20.07C27.3188 20.8038 27.1741 21.5304 26.8929 22.2082C26.6117 22.886 26.1996 23.5017 25.6801 24.02C25.5025 24.1977 25.4026 24.4387 25.4026 24.69C25.4026 24.9413 25.5025 25.1823 25.6801 25.36C25.8578 25.5377 26.0989 25.6375 26.3501 25.6375C26.6014 25.6375 26.8425 25.5377 27.0201 25.36C27.715 24.6654 28.2662 23.8407 28.6422 22.933C29.0183 22.0253 29.2118 21.0525 29.2118 20.07C29.2118 19.0875 29.0183 18.1146 28.6422 17.207C28.2662 16.2993 27.715 15.4746 27.0201 14.78Z" fill="white"/>
<path style="mix-blend-mode:color-burn" d="M40.9185 36L32.5585 27.62C34.3133 24.6496 34.9233 21.1408 34.274 17.7525C33.6246 14.3641 31.7605 11.3294 29.0319 9.21832C26.3032 7.10719 22.8977 6.06487 19.4549 6.28712C16.012 6.50937 12.7688 7.98089 10.3342 10.4253C7.89963 12.8698 6.44122 16.1189 6.23289 19.5626C6.02455 23.0063 7.08062 26.4076 9.20276 29.1277C11.3249 31.8478 14.3671 33.6996 17.758 34.3353C21.1489 34.9709 24.6553 34.3468 27.6185 32.58L35.9785 40.94C36.6407 41.5902 37.5305 41.9562 38.4585 41.96C39.1547 41.9621 39.8357 41.7565 40.4144 41.3696C40.9932 40.9826 41.4434 40.4319 41.7075 39.7878C41.9715 39.1436 42.0375 38.4354 41.897 37.7535C41.7565 37.0717 41.4158 36.4472 40.9185 35.96V36ZM20.3185 30C18.7877 30.0039 17.2776 29.6468 15.9105 28.9579C14.5435 28.2689 13.3581 27.2675 12.4505 26.0347C11.5429 24.802 10.9387 23.3727 10.6868 21.8627C10.4349 20.3528 10.5425 18.8047 11.0008 17.3441C11.4591 15.8835 12.2552 14.5515 13.3245 13.4561C14.3939 12.3607 15.7064 11.5328 17.1556 11.0395C18.6047 10.5463 20.1498 10.4015 21.6653 10.6171C23.1809 10.8326 24.6243 11.4023 25.8785 12.28C25.6059 12.1402 25.3049 12.065 24.9985 12.06C24.5954 12.0494 24.1985 12.1608 23.8598 12.3798C23.5212 12.5988 23.2566 12.915 23.1009 13.287C22.9452 13.659 22.9055 14.0694 22.9872 14.4643C23.0689 14.8593 23.268 15.2203 23.5585 15.5C23.8974 15.8442 24.3558 16.0447 24.8385 16.06C24.8853 16.4859 25.0676 16.8855 25.3585 17.2C26.2135 18.0616 26.6932 19.2262 26.6932 20.44C26.6932 21.6538 26.2135 22.8184 25.3585 23.68C25.0098 24.0509 24.8156 24.5409 24.8156 25.05C24.8156 25.5591 25.0098 26.0491 25.3585 26.42C25.5366 26.606 25.7509 26.7535 25.9883 26.8533C26.2257 26.953 26.4811 27.003 26.7385 27C26.9784 26.9957 27.2155 26.9483 27.4385 26.86C27.3695 26.9622 27.2889 27.0561 27.1985 27.14C26.3032 28.0593 25.2337 28.791 24.0524 29.2923C22.8711 29.7937 21.6018 30.0547 20.3185 30.06V30Z" fill="url(#paint2_linear_2014_10260)"/>
<path d="M25.3206 13C25.1781 12.857 24.9964 12.7595 24.7984 12.7199C24.6005 12.6802 24.3952 12.7002 24.2086 12.7773C24.022 12.8544 23.8625 12.9852 23.7503 13.153C23.638 13.3208 23.5781 13.5181 23.5781 13.72C23.5781 13.9219 23.638 14.1192 23.7503 14.2871C23.8625 14.4549 24.022 14.5856 24.2086 14.6627C24.3952 14.7398 24.6005 14.7598 24.7984 14.7202C24.9964 14.6805 25.1781 14.583 25.3206 14.44C25.5111 14.2488 25.6181 13.9899 25.6181 13.72C25.6181 13.4501 25.5111 13.1912 25.3206 13Z" fill="white"/>
</g>
<defs>
<linearGradient id="paint0_linear_2014_10260" x1="-4.5" y1="-9.84" x2="63.68" y2="71.1" gradientUnits="userSpaceOnUse">
<stop stop-color="#9FA0A0"/>
<stop offset="0.15" stop-color="#BCBDBD"/>
<stop offset="0.36" stop-color="#E1E1E1"/>
<stop offset="0.48" stop-color="#EFEFEF"/>
<stop offset="1" stop-color="#727171"/>
</linearGradient>
<linearGradient id="paint1_linear_2014_10260" x1="55.4775" y1="-2.48" x2="-19.7625" y2="60.88" gradientUnits="userSpaceOnUse">
<stop offset="0.09" stop-color="#9FA0A0"/>
<stop offset="0.17" stop-color="#C7C8C8"/>
<stop offset="0.23" stop-color="#E9EAEA"/>
<stop offset="0.36" stop-color="#C6C7C7"/>
<stop offset="0.53" stop-color="#A2A2A2"/>
<stop offset="0.69" stop-color="#888787"/>
<stop offset="0.83" stop-color="#787777"/>
<stop offset="0.94" stop-color="#727171"/>
</linearGradient>
<linearGradient id="paint2_linear_2014_10260" x1="6.03854" y1="24" x2="41.9385" y2="24" gradientUnits="userSpaceOnUse">
<stop stop-color="#EBEBEB"/>
<stop offset="1" stop-color="#A1A1A1"/>
</linearGradient>
<clipPath id="clip0_2014_10260">
<rect width="48" height="48" fill="white"/>
</clipPath>
</defs>
</svg>
