<?xml version="1.0" encoding="utf-8"?>
<!-- Generator: Adobe Illustrator 26.0.2, SVG Export Plug-In . SVG Version: 6.00 Build 0)  -->
<svg version="1.1" id="圖層_1" xmlns="http://www.w3.org/2000/svg" xmlns:xlink="http://www.w3.org/1999/xlink" x="0px" y="0px"
	 viewBox="0 0 59.1 65.5" style="enable-background:new 0 0 59.1 65.5;" xml:space="preserve">
<style type="text/css">
	.st0{display:none;}
	.st1{display:inline;}
	.st2{fill:#FFDC55;}
	.st3{fill:#2A2968;}
	.st4{fill:#FFFFFF;}
</style>
<g id="圖層_1_00000155863984438592907960000002425092258331017097_" class="st0">
	<g id="Group_802" transform="matrix(0.951, 0.309, -0.309, 0.951, 16.814, 0)" class="st1">
		<path id="Path_1212" class="st2" d="M6.4,18.9L1,25.6l0.5,4.6l22,22.2l3.9,1.5l8-5.6l8.1-8.7l-1-5.8L26.9,17.2
			c0,0,6.4,1.1,9.5-2.2S40,5.5,35.3,2S24,1,16.5,2.8S7.6,7.6,5.6,10.4c-0.9,1.3,0.5,9.5,1.6,10.3l3.2-3.4L9,14.5
			c0,0-0.8-5.1,5.4-7.2s15.8-3.6,19.1-1.5s2.4,5.2-0.5,6.6s-10.3,0-10.3,0c-2.2-1.4-4.9-1.7-7.3-0.7C11.3,13.2,6.4,18.9,6.4,18.9z"
			/>
		<path id="Path_1193" class="st3" d="M26.1,54.4c-0.3-0.1-0.5-0.1-0.8-0.2c-1.2-0.3-2.3-0.9-3.1-1.7c-0.6-0.6-1.2-1.1-1.7-1.7
			c-0.4-0.3-0.4-0.8-0.2-1.1l0.1-0.1c0.3-0.3,0.8-0.3,1.2,0.1l0,0c0.5,0.5,1,1,1.5,1.5c2.1,2.2,5.6,2.3,7.8,0.1
			c0.1-0.1,0.1-0.1,0.2-0.2c3.4-3.4,6.8-6.7,10.1-10.1c2.2-2.1,2.3-5.5,0.3-7.7c-0.1-0.1-0.2-0.2-0.2-0.2
			C34.6,26.5,28,19.9,21.4,13.3c-2.1-2.2-5.5-2.3-7.7-0.3c-0.1,0.1-0.2,0.2-0.3,0.3c-1,1-2,2-3,3c0.6,0.7,1.1,1.4,1.7,2
			c0.9,1,0.9,2.5,0.1,3.5c-0.9,1.1-2.6,1.2-3.7,0.3C8.4,22,8.4,22,8.3,21.9c-0.6-0.6-1.1-1.2-1.7-1.9c-1.3,1.4-2.8,2.7-4,4.2
			c-1.5,2-1.4,4.8,0.3,6.7c0.2,0.3,0.5,0.5,0.7,0.8c4.9,4.9,9.9,9.9,14.8,14.8c0.6,0.6,0.7,1.1,0.3,1.4s-0.8,0.3-1.4-0.3
			c-5-5-10.1-10.1-15.1-15.1c-2.9-2.7-3.1-7.2-0.4-10c0.1-0.1,0.3-0.3,0.4-0.4C3.3,21,4.3,20,5.4,18.9c0.2-0.2,0.3-0.3,0.2-0.6
			c-2.5-4.6-1-9.2,2.8-12.4c2.5-2,5.3-3.4,8.4-4.2C21.4,0.5,26.2-0.1,31,0c1.7,0,3.3,0.6,4.6,1.5c0.4,0.2,0.5,0.7,0.3,1.1l0,0
			c-0.2,0.4-0.7,0.5-1,0.3l0,0C33.1,1.8,31,1.4,29,1.6c-4.4,0-8.8,0.7-13,2c-2.7,0.8-5.1,2.2-7.2,4C7.2,9,6.2,11,6,13.2
			c-0.1,1.4,0.2,2.9,0.8,4.2s1.5,2.4,2.5,3.4c0.3,0.5,1,0.6,1.5,0.2l0.1-0.1c0.4-0.4,0.4-1-0.1-1.6c-0.8-0.9-1.4-1.8-2-2.8
			c-1.2-2.1-0.9-4.8,0.7-6.6c1.4-1.7,3.3-2.9,5.4-3.7c3-1.2,6.1-2,9.3-2.2c2.3-0.2,4.5-0.3,6.8-0.3c2.3,0,4.2,1.6,4.8,3.8
			c0.8,2.8-0.8,5.7-3.6,6.5c-0.6,0.2-1.2,0.2-1.9,0.2c-1.9-0.2-3.8-0.6-5.6-0.9c-0.3-0.1-0.7-0.1-1.2-0.2c0.2,0.2,0.2,0.3,0.3,0.4
			c0.2,0.2,0.4,0.4,0.6,0.6c1,1.3,2.5,2.1,4.2,2.2c1.5,0.2,3.1,0.2,4.6-0.2c3.8-1.3,5.9-5.5,4.6-9.4c-0.1-0.3-0.2-0.5-0.3-0.7
			c-0.1-0.1-0.1-0.2-0.2-0.4c-0.4-0.6-0.3-1,0.1-1.2l0,0c0.4-0.2,0.8,0,1,0.3l0,0c0.6,1,0.9,2.1,1,3.3c0.6,4.8-2.9,9.2-7.7,9.8
			c-1.1,0.1-2.3,0.1-3.4-0.1c-0.1,0-0.2,0-0.2,0L28,17.9c0.2,0.1,0.4,0.2,0.5,0.3c4.5,4.5,9,8.9,13.4,13.4c1.3,1.2,2.2,2.8,2.4,4.6
			c0,0,0,0.1,0.1,0.1v1.3c0,0.1-0.1,0.2-0.1,0.4c-0.2,1.5-0.9,2.9-1.9,4c-3.5,3.5-7,7-10.5,10.5c-0.8,0.8-1.8,1.4-3,1.7
			c-0.4,0.1-0.7,0.2-1.1,0.3L26.1,54.4z M9.8,14.8c1-1,1.8-2,2.8-2.8c2.2-2.1,5.5-2.5,8.2-1.1c0.2,0.1,0.5,0.2,0.7,0.2
			c1.2,0.2,2.5,0.4,3.7,0.6c1.7,0.3,3.4,0.7,5.1,0.8c2,0.2,3.8-1.3,4-3.3c0-0.4,0-0.8-0.1-1.2c-0.3-1.6-1.8-2.8-3.4-2.8
			c-2.5,0.1-5,0.2-7.5,0.5c-3,0.3-5.9,1.1-8.6,2.3c-1.6,0.7-3.1,1.8-4.2,3.2C9.8,12.2,9.5,13.6,9.8,14.8L9.8,14.8z"/>
		<path id="Path_1194" class="st3" d="M14.5,28.2c-0.4-0.4-0.8-0.8-1.2-1.1c-1.1-1-1.1-2.7-0.1-3.7l0,0c1-1,2.7-1.1,3.7,0l0,0
			c0.4,0.4,0.7,0.8,1.2,1.2c0.4-0.4,0.7-0.7,1.1-1.1c1-1.1,2.6-1.2,3.7-0.3l0.1,0.1c1,1,1,2.7,0,3.8l-0.1,0.1
			c-0.3,0.3-0.7,0.7-1.2,1.1c0.5,0.4,0.9,0.7,1.3,1.1c0.7,0.7,1,1.8,0.6,2.8c-0.3,1-1.2,1.7-2.2,1.7c-0.8,0.1-1.6-0.2-2.1-0.8
			c-0.4-0.4-0.7-0.8-1.2-1.3c-0.4,0.5-0.7,0.9-1.1,1.2c-1,1.1-2.7,1.1-3.7,0.2l-0.1-0.1c-1-1-1-2.7,0-3.8c0,0,0,0,0.1-0.1
			C13.7,29,14.1,28.7,14.5,28.2z M18.3,30c0.2,0.1,0.5,0.3,0.7,0.5c0.5,0.5,1,1,1.5,1.5c0.4,0.5,1,0.5,1.5,0.2c0,0,0.1,0,0.1-0.1
			c0.4-0.4,0.4-1.1,0-1.5c0,0,0,0-0.1-0.1c-0.5-0.5-1-1-1.5-1.5s-0.5-0.9,0-1.4c0.5-0.5,1-1,1.5-1.5c0.5-0.4,0.5-1.1,0.1-1.5l0,0
			c-0.4-0.4-1.1-0.4-1.5,0l-0.1,0.1c-0.5,0.5-1,1-1.5,1.5s-0.9,0.5-1.4,0s-1-1-1.5-1.5c-0.4-0.5-1-0.5-1.5-0.2l-0.1,0.1
			c-0.4,0.4-0.4,1.1,0,1.5l0.1,0.1c0.5,0.5,1,1,1.5,1.5c0.4,0.3,0.5,0.8,0.2,1.2c-0.1,0.1-0.1,0.1-0.2,0.2c-0.5,0.5-1,1-1.5,1.5
			c-0.5,0.4-0.6,1-0.2,1.5l0.1,0.1c0.4,0.4,1.1,0.4,1.5,0l0.1-0.1c0.5-0.5,1-1,1.5-1.5C17.8,30.3,18,30.1,18.3,30L18.3,30z"/>
		<path id="Path_1195" class="st3" d="M32,30.3c-0.1,0.3-0.3,0.5-0.5,0.7c-3.5,3.5-7,7-10.5,10.5c-0.4,0.4-0.9,0.5-1.3,0.1
			s-0.3-0.8,0.1-1.3c2.9-2.9,5.8-5.8,8.8-8.8c0.6-0.6,1.2-1.3,1.9-1.8c0.3-0.2,0.6-0.3,0.9-0.2C31.6,29.7,31.8,30,32,30.3z"/>
		<path id="Path_1196" class="st3" d="M35.1,33.4c-0.1,0.3-0.3,0.5-0.5,0.8c-3.5,3.5-7,7-10.5,10.5c-0.4,0.4-0.9,0.5-1.3,0.1
			s-0.3-0.8,0.1-1.3c2.9-2.9,5.8-5.8,8.6-8.6c0.7-0.7,1.3-1.3,2-1.9c0.3-0.2,0.6-0.3,0.9-0.2C34.7,32.8,34.9,33.1,35.1,33.4z"/>
		<path id="Path_1197" class="st3" d="M26.5,48.2c-0.2-0.2-0.6-0.3-0.7-0.6s0-0.6,0.1-0.9c0.3-0.4,0.7-0.7,1-1.1
			c1.4-1.4,2.8-2.8,4.2-4.2c0.2-0.3,0.7-0.4,1.1-0.2c0.3,0.1,0.5,0.5,0.4,0.9c-0.1,0.2-0.2,0.4-0.3,0.5c-1.7,1.7-3.5,3.5-5.2,5.2
			C26.9,47.9,26.7,48,26.5,48.2z"/>
	</g>
</g>
<g id="圖層_2_00000046297381552950385060000001472152476059145634_">
	<g>
		<path class="st4" d="M24,17.3c0.1-0.8,0.2-1.6,0.5-2.3c0.3-0.8,0.8-1,1.6-1.3c1.7-0.2,6.9-0.4,8.1,0.6c0.9,0.7,0.9,2.1,1,3
			c2.1,0,6.2-0.3,8.1,0.2c0.5,0.1,1,0.3,1.3,0.8c0.7,0.7,0.8,1.3,0.8,2.3v14.4c0,1.8,0.3,4.8-0.1,6.5c-0.1,0.6-0.5,1.3-1,1.7
			c-0.5,0.5-1.2,0.7-1.8,0.8c-1.2,0.2-2.4,0.1-3.5,0.1h-5.9c-3.5,0-7,0-10.5,0c-1.9,0-4.1,0.2-6-0.1c-0.7-0.1-1.3-0.3-1.9-0.8
			c-0.9-0.8-1.1-1.7-1.1-2.9c-0.1-4,0-8.1,0-12.3c0-2.5-0.3-5.2,0-7.6c0.1-0.6,0.2-1.5,0.6-1.9c0.4-0.4,1.1-0.8,1.7-0.8
			C17.7,17,22.1,17.3,24,17.3z M16,19.5c-0.1,6.4-0.1,12.8,0,19.1h27.6l-0.2-19.1c-5.1-0.1-10.3-0.1-15.4-0.1
			C23.9,19.5,19.9,19.4,16,19.5z"/>
		<path class="st4" d="M28.1,33.5c0.4-1.7,2.1-8.5,3.1-9.5c0.2,0,0.3,0,0.5,0.1c0.8,0.3,2.4,6.3,2.8,7.4c1.3,0.1,3.1-0.3,4.3,0.2
			c0.3,0.1,0.5,0.3,0.6,0.5c0,0.3,0,0.3-0.2,0.6c-1.1,0.5-4.4,0.3-5.8,0.2c-0.9-1.5-1.3-3.6-1.9-5.3c-0.6,1.9-1.2,3.9-1.8,5.8
			c-0.3,1-0.5,2.1-1,3c-0.3,0.3-0.5,0.3-0.9,0.3c-0.8-0.8-1.5-3.4-2-4.7c-0.3,0.3-0.5,0.6-0.8,0.8c-1.3,0.1-2.6,0.2-3.9,0.2
			c-0.6,0-1.1-0.3-1.4-0.8c-0.1-0.2-0.2-0.3,0-0.4c0.6-0.8,3.4-0.4,4.3-0.3c0.3-0.7,0.7-1.9,1.2-2.4c0.3-0.3,0.3-0.3,0.7-0.3
			C27,29.5,27.6,32.3,28.1,33.5z"/>
		<path class="st4" d="M26,48.6c0.1-1.3,0.2-2.7,0.3-4c2.4,0,4.9,0,7.3,0c0.1,1.1,0.3,2.3,0.2,3.4c0,0.3,0,0.4-0.2,0.6L26,48.6z"/>
		<path class="st4" d="M21.7,51.9c0.1-0.6,0.2-1.3,0.5-1.7c0.4-0.7,0.9-0.8,1.6-1.1c1.9-0.1,11.2-0.3,12.2,0.3
			c0.6,0.3,0.9,0.8,1.2,1.4c0.1,0.4,0.2,0.7,0,1c-0.4,0.3-1.3,0.2-1.9,0.2C30.7,51.9,26.2,51.9,21.7,51.9z"/>
	</g>
</g>
</svg>
