<svg width="21" height="20" viewBox="0 0 21 20" fill="none" xmlns="http://www.w3.org/2000/svg">
<path d="M20.3503 18.4893C20.303 18.5572 20.238 18.6107 20.1623 18.6441C20.0866 18.6774 20.0032 18.6892 19.9213 18.6783C18.5733 18.6783 17.2213 18.6493 15.8793 18.6983C15.1103 18.7263 14.3453 18.8803 13.5793 18.9833C12.3373 19.15 11.0956 19.3186 9.85426 19.4893C9.39826 19.5513 8.94225 19.6113 8.48725 19.6773C8.12925 19.7293 8.02326 19.6403 8.02226 19.2773C8.02226 19.0973 8.02226 18.9173 8.02226 18.7373C8.01677 18.7164 8.00871 18.6962 7.99826 18.6773H1.43226C1.34626 18.6773 1.23726 18.6933 1.17926 18.6493C1.09526 18.5843 0.994255 18.4683 1.00026 18.3813C1.00626 18.2943 1.12425 18.1983 1.21325 18.1373C1.26425 18.1023 1.35626 18.1253 1.42926 18.1243H3.92926V1.72929C3.92926 1.66229 3.92926 1.59629 3.92926 1.52929C3.93726 1.28529 4.02926 1.19529 4.27426 1.19529C5.32159 1.19529 6.36892 1.19529 7.41626 1.19529H8.02926C8.02926 1.02529 8.02926 0.862292 8.02926 0.695292C8.02926 0.380292 8.12926 0.284292 8.44226 0.314292C9.27826 0.395292 10.1143 0.482294 10.9503 0.567294L14.7313 0.950293C15.5313 1.03129 16.3363 1.11129 17.1393 1.19429C17.3483 1.21629 17.4313 1.31829 17.4313 1.54829C17.4313 3.00963 17.4313 4.47063 17.4313 5.93129C17.4313 6.14529 17.3213 6.27429 17.1523 6.27429C16.9833 6.27429 16.8763 6.14429 16.8763 5.92929C16.8763 4.61529 16.8763 3.30096 16.8763 1.98629V1.72529L8.60125 0.888293V19.0983L16.8763 17.9763V13.6113C16.8728 13.5513 16.8728 13.4912 16.8763 13.4313C16.8768 13.3959 16.8844 13.361 16.8986 13.3287C16.9129 13.2963 16.9335 13.2671 16.9592 13.2429C16.985 13.2186 17.0153 13.1998 17.0485 13.1875C17.0816 13.1752 17.1169 13.1697 17.1523 13.1713C17.1876 13.1701 17.2229 13.176 17.256 13.1886C17.289 13.2013 17.3192 13.2204 17.3448 13.245C17.3703 13.2695 17.3907 13.2989 17.4047 13.3314C17.4187 13.3639 17.426 13.3989 17.4263 13.4343C17.43 13.4942 17.43 13.5543 17.4263 13.6143V18.1143H17.6573C18.4243 18.1143 19.1923 18.1143 19.9573 18.1143C20.0364 18.1042 20.1168 18.1192 20.1871 18.157C20.2574 18.1948 20.314 18.2537 20.3493 18.3253L20.3503 18.4893ZM6.05026 3.37329V18.1073H8.00825V3.37329H6.05026ZM5.48626 18.1103V17.8453C5.48626 12.9786 5.48626 8.10996 5.48626 3.23929C5.48626 2.87629 5.55325 2.80929 5.91825 2.80929H7.79925C7.86925 2.80929 7.93926 2.80329 8.00926 2.80029V1.76529H4.48826V18.1113L5.48626 18.1103Z" fill="#FFDC55" stroke="#FFDC55" stroke-width="0.5"/>
<path d="M10.2383 9.00232C10.3703 9.00375 10.5007 9.0313 10.622 9.08339C10.7433 9.13548 10.8531 9.21107 10.945 9.3058C11.037 9.40053 11.1093 9.51253 11.1577 9.63534C11.2061 9.75815 11.2298 9.88933 11.2273 10.0213C11.222 10.2844 11.1132 10.5349 10.9246 10.7184C10.7359 10.9018 10.4824 11.0035 10.2193 11.0013C10.0872 10.9995 9.95671 10.9717 9.83535 10.9194C9.71399 10.8672 9.60412 10.7915 9.512 10.6968C9.41988 10.6021 9.34732 10.4901 9.29847 10.3674C9.24962 10.2446 9.22542 10.1134 9.22727 9.98132C9.23279 9.71785 9.34209 9.4672 9.53141 9.28387C9.72073 9.10055 9.97476 8.99936 10.2383 9.00232ZM10.6703 9.99432C10.6698 9.93598 10.6576 9.87833 10.6346 9.82474C10.6115 9.77115 10.578 9.72268 10.536 9.68218C10.4941 9.64168 10.4444 9.60996 10.39 9.58886C10.3356 9.56777 10.2776 9.55772 10.2193 9.55932C10.161 9.55997 10.1034 9.57219 10.0499 9.59528C9.99633 9.61837 9.94792 9.65187 9.90745 9.69384C9.86697 9.7358 9.83524 9.78539 9.81409 9.83972C9.79295 9.89405 9.78282 9.95204 9.78428 10.0103C9.78505 10.0687 9.79739 10.1263 9.82059 10.1798C9.8438 10.2333 9.87738 10.2818 9.91943 10.3222C9.96147 10.3627 10.0111 10.3944 10.0655 10.4155C10.1199 10.4367 10.1779 10.4468 10.2363 10.4453C10.2943 10.4444 10.3515 10.432 10.4046 10.4087C10.4578 10.3855 10.5058 10.3519 10.5458 10.3099C10.5858 10.2679 10.6171 10.2184 10.6378 10.1642C10.6585 10.1101 10.6681 10.0523 10.6663 9.99432H10.6703Z" fill="#FFDC55" stroke="#FFDC55" stroke-width="0.5"/>
<path d="M17.4243 11.1143C17.4243 11.2403 17.4243 11.3673 17.4243 11.4933C17.4269 11.5302 17.4218 11.5673 17.4094 11.6022C17.397 11.637 17.3775 11.669 17.3521 11.6959C17.3268 11.7229 17.2961 11.7443 17.262 11.7588C17.228 11.7733 17.1913 11.7806 17.1543 11.7803C17.1157 11.7828 17.077 11.7769 17.0409 11.7629C17.0048 11.749 16.9722 11.7274 16.9453 11.6997C16.9184 11.6719 16.8978 11.6386 16.885 11.6021C16.8723 11.5656 16.8676 11.5268 16.8713 11.4883C16.8653 11.2293 16.8653 10.9693 16.8713 10.7103C16.8688 10.672 16.8742 10.6336 16.8871 10.5975C16.9 10.5614 16.9201 10.5283 16.9462 10.5002C16.9723 10.4721 17.0039 10.4497 17.039 10.4342C17.074 10.4188 17.1119 10.4106 17.1503 10.4103C17.1886 10.4119 17.2262 10.4212 17.2609 10.4375C17.2956 10.4539 17.3267 10.477 17.3524 10.5054C17.3781 10.5339 17.3978 10.5672 17.4105 10.6034C17.4232 10.6396 17.4286 10.678 17.4263 10.7163C17.4263 10.7293 17.4263 10.7433 17.4263 10.7563V11.1153L17.4243 11.1143Z" fill="#FFDC55" stroke="#FFDC55" stroke-width="0.5"/>
<path d="M17.4243 8.35528C17.4243 8.48128 17.4293 8.60828 17.4243 8.73428C17.4266 8.77122 17.4213 8.80824 17.4086 8.84302C17.396 8.8778 17.3762 8.90957 17.3507 8.93635C17.3251 8.96312 17.2943 8.98432 17.2602 8.99859C17.226 9.01286 17.1893 9.01991 17.1523 9.01928C17.1132 9.02112 17.0742 9.01446 17.038 8.99976C17.0018 8.98506 16.9692 8.96268 16.9425 8.93415C16.9158 8.90563 16.8956 8.87164 16.8833 8.83454C16.871 8.79744 16.8669 8.75812 16.8713 8.71928C16.8653 8.46661 16.8653 8.21361 16.8713 7.96028C16.8676 7.92188 16.8723 7.88314 16.885 7.8467C16.8976 7.81027 16.9179 7.77698 16.9446 7.74909C16.9713 7.72121 17.0036 7.69938 17.0394 7.68509C17.0752 7.6708 17.1137 7.66439 17.1523 7.66628C17.3153 7.66628 17.4153 7.77928 17.4263 7.96628C17.4263 7.97328 17.4263 7.97928 17.4263 7.98628C17.4263 8.10628 17.4263 8.22628 17.4263 8.34628L17.4243 8.35528Z" fill="#FFDC55" stroke="#FFDC55" stroke-width="0.5"/>
</svg>
