<svg width="13" height="11" viewBox="0 0 13 11" fill="none" xmlns="http://www.w3.org/2000/svg">
<path d="M7.3 9.7665C7.20685 9.8907 7.08607 9.9915 6.94721 10.0609C6.80836 10.1304 6.65524 10.1665 6.5 10.1665C6.34475 10.1665 6.19164 10.1304 6.05279 10.0609C5.91393 9.9915 5.79315 9.8907 5.7 9.7665L0.2 2.4335C0.0885725 2.28493 0.0207186 2.10827 0.00404072 1.92331C-0.0126371 1.73835 0.0225201 1.5524 0.105573 1.38629C0.188625 1.22018 0.316293 1.08049 0.474269 0.982853C0.632245 0.885219 0.814288 0.833504 1 0.833504L12 0.833504C12.1857 0.833504 12.3678 0.885219 12.5257 0.982853C12.6837 1.08049 12.8114 1.22018 12.8944 1.38629C12.9775 1.5524 13.0126 1.73835 12.996 1.92331C12.9793 2.10827 12.9114 2.28493 12.8 2.4335L7.3 9.7665Z" fill="#9A9AB9"/>
</svg>
