<?xml version="1.0" encoding="utf-8"?>
<!-- Generator: Adobe Illustrator 26.0.2, SVG Export Plug-In . SVG Version: 6.00 Build 0)  -->
<svg version="1.1" xmlns="http://www.w3.org/2000/svg" xmlns:xlink="http://www.w3.org/1999/xlink" x="0px" y="0px"
	 viewBox="0 0 47.9 46.8" style="enable-background:new 0 0 47.9 46.8;" xml:space="preserve">
<style type="text/css">
	.st0{display:none;}
	.st1{display:inline;}
	.st2{fill:#FFDC55;}
	.st3{fill:#2A2968;stroke:#2A2968;}
	.st4{fill-rule:evenodd;clip-rule:evenodd;fill:#FF5809;}
</style>
<g id="圖層_1" class="st0">
	<g id="gUTxPx.tif" transform="translate(0.5 0.5)" class="st1">
		<g id="Group_512" transform="translate(0 0)">
			<path id="Path_684" class="st2" d="M31.5,7.3c0.4,0.4-1.8-4.5-1.2-4C31,4,30.7-0.7,32,1c1,1.4,10.7,9.5,13.6,13.8
				c1.1,1.6-3.3,1.1-3.3,1.1s-3.2-1.2-2.7-0.8c-5.1,3.8-8.9,8.9-11.1,14.9c1.2,1.6,2.1,3.4,2.4,5.4c0.3,2.1-0.8,4.9-2.4,5
				c-1.2,0.1-8.7-10.5-10.3-9.6c-4.8,2.9-9.4,10.9-13.7,13.3C0.7,46.3,4,44,1.3,45.1c-2.5,1,1.6-3.5,0.5-3.7
				C0.4,41.3,16.6,28.6,15.4,28c-5.1-2.5-6.3-7.8-9-9.8c-2.3-1.8,3.9-2.2,3.9-2.2s7.1,3.2,6.1,2.2C22.4,16.1,27.7,12.4,31.5,7.3z"/>
			<path id="Path_683" class="st3" d="M0,44.8C0.2,43.9,0.4,43,0.5,42c0.1-0.5,0.3-0.9,0.6-1.2C2,40,2.9,39.1,3.7,38.3
				C3.9,38,4.4,38,4.7,38.2c0.1,0.1,0.2,0.2,0.2,0.3c0.1,0.3,0,0.7-0.2,0.9c-0.8,0.8-1.6,1.6-2.4,2.4c-0.2,0.2-0.3,0.4-0.3,0.7
				c-0.1,0.6-0.2,1.3-0.4,2c0.8-0.1,1.5-0.3,2.3-0.4c0.1,0,0.2-0.1,0.3-0.2c4.3-4.2,8.6-8.5,12.9-12.7c0.1-0.1,0.1-0.1,0.2-0.2
				l-1.9-1.9c-0.1,0.1-0.3,0.3-0.4,0.4l-7.6,7.5c-0.1,0.1-0.1,0.1-0.2,0.2c-0.3,0.3-0.7,0.3-0.9,0c0,0,0,0,0,0
				C5.8,36.7,5.8,36.3,6,36c0,0,0,0,0,0c0.2-0.2,0.5-0.5,0.7-0.7c2.4-2.4,4.8-4.7,7.2-7.1c0.1-0.1,0.2-0.2,0.4-0.3
				c-1-1-1.9-2-2.8-2.9c-2.2-2.2-4.4-4.3-6.5-6.5c-0.6-0.6-0.6-0.9,0-1.4c2.8-2.5,7-2.6,9.9-0.3c0.2,0.1,0.4,0.2,0.6,0.2
				c5.9-1.9,11.1-5.6,14.9-10.5c0,0,0.1-0.1,0-0.1c-0.3-0.8-0.6-1.5-0.7-2.3c-0.2-1.3,0.2-2.7,1.2-3.7c0.2-0.3,0.6-0.4,1-0.2
				c0.1,0,0.1,0.1,0.2,0.2c0.8,0.8,1.6,1.5,2.3,2.3c0.3,0.2,0.4,0.6,0.2,0.9c0,0-0.1,0.1-0.1,0.1c-0.2,0.3-0.6,0.3-0.9,0.1
				c0,0-0.1-0.1-0.1-0.1c-0.6-0.6-1.2-1.3-1.9-2c-0.6,0.8-0.7,1.8-0.4,2.7c0.2,0.5,0.5,1,0.8,1.4c3,3,6,6,9.1,9
				c1.1,1.1,2.8,1.3,4.1,0.4c-0.7-0.7-1.4-1.4-2.1-2.1c-2.4-2.4-4.8-4.7-7.2-7.1c-0.2-0.2-0.5-0.5-0.3-0.8c0.1-0.4,0.5-0.6,0.9-0.4
				c0.1,0,0.2,0.1,0.3,0.2c1.2,1.2,2.5,2.4,3.7,3.7c2,2,4,4,6,5.9c0.6,0.6,0.6,0.9-0.1,1.5c-1.5,1.3-3.7,1.4-5.4,0.4
				c-0.2-0.2-0.6-0.2-0.8,0.1c-4.1,3-7.3,7.1-9.4,11.7c-0.4,0.9-0.7,1.8-1.1,2.7c-0.1,0.2-0.1,0.5,0.1,0.7c0.8,1,1.4,2.2,1.6,3.5
				c0,0.1,0,0.3,0,0.4c0,0.3-0.2,0.6-0.5,0.7c0,0,0,0,0,0c-0.3,0.1-0.7-0.1-0.8-0.4c0,0,0,0,0,0C30,35.3,30,35,29.9,34.7
				c-0.3-1.1-0.9-2.2-1.7-3c-4.5-4.5-9-8.9-13.6-13.4c-2.1-2.1-5.3-2.5-7.8-0.9c-0.2,0.1-0.3,0.2-0.6,0.4l22.5,22.2
				c0.5-0.6,0.9-1.3,1.1-2c0.1-0.3,0.4-0.6,0.7-0.5c0,0,0,0,0,0c0.3,0,0.6,0.3,0.6,0.7c0,0,0,0.1,0,0.1c-0.3,1.2-1,2.3-1.9,3.1
				c-0.4,0.4-0.7,0.3-1.1-0.1c-1-0.9-1.9-1.9-2.9-2.9l-7.1-7c-0.1,0.2-0.3,0.4-0.4,0.6c-4.2,4.2-8.4,8.3-12.6,12.5
				c-0.3,0.4-0.8,0.6-1.3,0.7c-1,0.1-1.9,0.3-2.8,0.5c-0.4,0.1-0.9-0.1-1-0.5L0,44.8z M31.5,7.3c-3.9,5-9.1,8.8-15.1,10.9l12,11.9
				c2.2-5.9,6-11.1,11.1-14.9L31.5,7.3z"/>
		</g>
	</g>
</g>
<g id="圖層_2">
	<g>
		<path class="st4" d="M37.6,7.2h-7c-0.6,0-0.2-1.4-3.9-1.4c-0.2-3.5-5.4-3.5-5.6,0c-3.7,0-3.3,1.4-3.9,1.4h-7L8.4,9v32.9l1.8,1.8
			h27.3l1.8-1.8V9L37.6,7.2z M30.4,26.7c-3.2,2.5-5.8,5.5-8.5,8.6c-1.1-1.2-2.2-2.5-2.8-4c-0.8-1.7-3.6,0.8-2.9,2.4
			c0.9,2.1,2.6,3.9,4.2,5.5c0.7,0.7,1.8-0.1,2.3-0.6c2.9-3.3,5.6-6.7,9.1-9.5C33.3,27.8,32.4,25.1,30.4,26.7L30.4,26.7z M14.5,24.4
			h17.3c0.5,0,1-0.3,1-0.8c0-0.4-0.4-0.8-1-0.8H14.5c-0.5,0-1,0.3-1,0.8C13.5,24.1,14,24.4,14.5,24.4L14.5,24.4z M14.5,20.4h17.3
			c0.5,0,1-0.3,1-0.8c0-0.4-0.4-0.8-1-0.8H14.5c-0.5,0-1,0.3-1,0.8C13.5,20.1,14,20.4,14.5,20.4L14.5,20.4z M14.5,16.5h17.3
			c0.5,0,1-0.3,1-0.8c0-0.4-0.4-0.8-1-0.8H14.5c-0.5,0-1,0.3-1,0.8C13.5,16.1,14,16.5,14.5,16.5L14.5,16.5z M36.7,39.1
			c0,1-0.8,1.8-1.8,1.8H13c-1,0-1.8-0.8-1.8-1.8V11.7c0-1,0.8-1.8,1.8-1.8h4.3c0.5,0,0.5,1.4,2.1,1.4h9.1c1.6,0,1.5-1.4,2.1-1.4h4.2
			c1,0,1.8,0.8,1.8,1.8V39.1z"/>
	</g>
</g>
</svg>
