<?xml version="1.0" encoding="utf-8"?>
<!-- Generator: Adobe Illustrator 26.0.2, SVG Export Plug-In . SVG Version: 6.00 Build 0)  -->
<svg version="1.1" xmlns="http://www.w3.org/2000/svg" xmlns:xlink="http://www.w3.org/1999/xlink" x="0px" y="0px"
	 viewBox="0 0 140 140" style="enable-background:new 0 0 140 140;" xml:space="preserve">
<style type="text/css">
	.st0{display:none;}
	.st1{display:inline;fill:#2A2968;}
	.st2{display:inline;fill:#FFDC55;}
	.st3{fill:#FF5809;}
	.st4{fill:#FEDC56;}
	.st5{fill:#FFFFFF;}
	.st6{fill:#FEDC57;}
</style>
<g id="圖層_1" class="st0">
	<path class="st1" d="M30.2,35.7c-4.1-6.2-4.1-12.4,0.3-19c-0.7-0.6-1.6-1.2-2.3-1.9c-1-1-1-2.2-0.2-3c0.8-0.8,2-0.8,2.9,0.2
		c0.4,0.4,0.8,0.8,1.2,1.2c0.3,0.4,0.6,0.8,0.9,1.2c0.1-0.2,0.1-0.4,0.2-0.6c2.3-0.8,4.4-1.8,6.8-2.3c4.7-0.9,8.9,0.5,12.6,3.6
		c1.5,1.4,1.6,2.4,0.1,3.8c-5.7,5.8-11.5,11.5-17.2,17.2c-1.1,1.1-2.3,2.3-3.3,3.5c-0.4,0.4-0.6,1-0.6,1.5c0,16,0,32,0,48
		c0,0.3,0.1,0.7,0.1,1c0.4,0,0.7,0.1,1,0.1c5.4,0,10.8,0,16.3,0c0.5,0,1.1-0.4,1.4-0.8c1.1-1.5,2.3-3.1,3.3-4.7
		c0.5-0.8,0.8-1.8,1.1-2.7c0.2-0.9-0.1-1.5-1.2-1.5c-3.2-0.2-6.2-1.1-9-2.7c-4-2.3-5.4-5.7-4.3-10.1c0.7-2.7,2.3-4.5,5.1-4.9
		c1.8-0.2,2.4-0.9,2.8-2.8c0.8-4.3,3.5-7.4,7.5-9.3c0.9-0.4,1.1-0.9,0.9-1.8c-0.6-2.5-1-5.1-1.7-7.6c-0.4-1.8,0.8-3,2.7-2.7
		c4.6,0.8,8,3.3,10.4,7.2c0.6,1,1.2,1.5,2.5,1.7c4.6,0.7,7.9,3.4,10.3,7.3c2.3,3.6,3.1,7.7,4.1,11.8c1,4.2,2,8.4,3,12.6
		c1,4.1,3.4,6.7,7.5,8c2.6,0.8,5.1,1.9,7.7,2.9c0.4,0.2,0.9,0.2,1.4,0.2c5.3,0,10.6,0,15.9,0c6.4,0,10,4.9,8.2,11
		c-1.7,5.6-3.4,11.2-5,16.7c-2,6.8-7.2,10.7-14.3,10.7c-6.3,0-12.6,0-18.9,0c-19.6,0-39.2,0-58.8,0c-7.5,0-12.6-3.9-14.8-11.1
		c-1-3.4-2-6.7-3-10.1c-0.7-2.2-1.3-4.4-2-6.5c-1.7-5.6,2-10.6,7.8-10.8c2.2-0.1,4.5-0.1,6.7,0c1,0,1.3-0.3,1.3-1.3
		c0-9.9,0-19.8,0-29.7c0-6,0.1-12.1,0-18.1c0-1.8,0.4-3.2,1.8-4.4C29.5,36.5,29.9,36.1,30.2,35.7z M122.5,106.5c-35.1,0-70,0-105,0
		c1,3.2,2.1,6.4,2.8,9.6c1.2,5,5.1,8.7,11.6,8.7c25.4-0.1,50.9,0,76.3,0c0.6,0,1.2,0,1.8,0c4.4-0.3,7.5-2.5,9-6.6
		C120.4,114.3,121.3,110.4,122.5,106.5z M110.9,102.4c0.1-0.1,0.2-0.3,0.3-0.4c-2-1.9-3.9-3.8-6-5.6c-3-2.5-6.6-4-10.3-5
		c-6.2-1.6-9.9-5.7-11.3-11.9c-1.1-4.9-2.4-9.8-3.5-14.8c-0.8-3.5-1.9-6.8-4.3-9.6c-1.4-1.6-3.1-2.8-5.3-3.3c0.3,2,0.6,3.9,0.8,5.9
		c0.2,1.5-0.5,2.6-1.7,2.8c-1.3,0.2-2.1-0.7-2.3-2.3c-0.4-3.4-1-6.7-2.7-9.7c-1.1-2-2.6-3.6-4.8-4.7c0.2,1.7,0.5,3.3,0.6,4.8
		c0.3,3,0.5,6.1-0.3,9.1c-0.4,1.2-1.3,1.8-2.4,1.5C56.6,59,56,58,56.2,56.7c0.1-0.6,0.2-1.1,0.4-2c-2.9,1.8-4.5,4.2-4.9,7.4
		c-0.3,2.3-1.5,3.6-3.7,4.2c-0.7,0.2-1.4,0.2-2.1,0.5c-0.5,0.2-1.1,0.4-1.4,0.8c-1.3,1.6-0.9,5.1,0.9,6.1c1.8,1,3.7,2,5.7,2.4
		c3.3,0.6,6.7,0.6,10.1,0.8c1.4,0.1,2.2,0.9,2.2,2.1c-0.1,1.2-0.9,1.9-2.2,2c-0.8,0-1.6,0-2.4,0c0.1,2.7-0.9,4.9-2.4,7
		c-0.6,0.9-1.2,1.7-1.9,2.6c-2.5,3.6-2.7,7.6-2.5,11.8C71.7,102.4,91.3,102.4,110.9,102.4z M33.1,32.4c5.1-5.1,10.2-10.2,15.3-15.2
		c-4.2-3.1-10.5-2.3-14.3,1.8C30.7,22.7,30.2,29.1,33.1,32.4z M48.2,94.4c-5.5,0-11,0-16.6,0c0,2.7,0,5.3,0,7.9c5.4,0,10.8,0,16.1,0
		C47.8,99.7,48,97.1,48.2,94.4z M27.3,94.5c-0.3-0.1-0.4-0.1-0.5-0.1c-2.4,0-4.8,0-7.2,0c-2.6,0-4.3,1.6-4.3,3.9
		c-0.1,2.4,1.7,4.1,4.3,4.1c2.3,0,4.6,0,7,0c0.3,0,0.6-0.1,0.8-0.2C27.3,99.7,27.3,97.1,27.3,94.5z M109.5,94.4
		c1.6,1.8,3.5,3.2,4.6,5.2c1.6,2.6,3.6,3.1,6.3,2.9c2.7-0.3,4.4-1.8,4.4-4.3c-0.1-2.3-1.8-3.9-4.4-3.9c-3.3,0-6.6,0-9.9,0
		C110.1,94.3,109.8,94.4,109.5,94.4z"/>
	<path class="st1" d="M52.5,34.9c-0.2,0.3-0.5,1.1-1,1.3c-0.6,0.3-1.5,0.2-2.1-0.1c-0.8-0.5-1.5-1.3-2.2-2.1
		c-0.7-0.9-0.6-1.8,0.2-2.6c0.8-0.8,1.7-0.8,2.6-0.2C51.4,32.2,52.5,33.6,52.5,34.9z"/>
	<path class="st1" d="M41.3,37.8c1.7,0,4.3,2.5,4.2,3.7c-0.1,0.6-0.5,1.4-1.1,1.7c-0.6,0.3-1.5,0.2-2.1-0.1
		c-0.8-0.5-1.6-1.3-2.1-2.1c-0.3-0.5-0.4-1.5-0.2-2.1C40.3,38.3,41.1,38,41.3,37.8z"/>
	<path class="st1" d="M65.9,34.9c-0.2,0.3-0.6,1-1.1,1.2c-0.6,0.2-1.5,0.2-2.1-0.2c-0.8-0.5-1.5-1.2-2-2c-0.3-0.6-0.4-1.5-0.2-2.1
		c0.2-0.5,1-1,1.7-1.1C63.4,30.5,65.9,33.1,65.9,34.9z"/>
	<path class="st1" d="M51.6,48.7c-0.2,0.3-0.5,1-1.1,1.2c-0.6,0.2-1.5,0.2-2.1-0.2c-0.8-0.5-1.6-1.3-2.1-2.1
		c-0.3-0.5-0.4-1.5-0.2-2.1c0.2-0.5,1.1-1,1.7-1.1C49.1,44.3,51.6,46.9,51.6,48.7z"/>
	<path class="st1" d="M55.3,23.8c1.7,0,4.3,2.5,4.1,3.7c-0.1,0.7-0.6,1.5-1.1,1.8c-0.6,0.3-1.5,0.1-2.1-0.2c-0.8-0.5-1.5-1.2-2-2
		c-0.3-0.6-0.5-1.5-0.2-2.1C54.2,24.4,55,24,55.3,23.8z"/>
	<path class="st1" d="M83.4,47c0,1.2-1,2.3-2.3,2.3c-1.2,0-2.2-1-2.2-2.2c0-1.2,1-2.3,2.3-2.3C82.4,44.8,83.4,45.8,83.4,47z"/>
	<path class="st1" d="M90.9,67.3c-1.2,0-2.2-1-2.2-2.2c0-1.2,1-2.2,2.3-2.2c1.2,0,2.2,1,2.2,2.2C93.2,66.3,92.2,67.3,90.9,67.3z"/>
	<path class="st1" d="M95.4,47.7c1.2,0,2.2,1,2.2,2.2c0,1.2-1,2.2-2.3,2.2c-1.2,0-2.2-1-2.2-2.2C93.1,48.7,94.1,47.7,95.4,47.7z"/>
	<path class="st1" d="M43.6,86.2c-1.2,0-2.2-0.9-2.2-2.1c-0.1-1.3,0.9-2.3,2.2-2.3c1.2,0,2.2,0.9,2.2,2.1
		C45.9,85.1,44.9,86.2,43.6,86.2z"/>
	<path class="st1" d="M43.3,56.6c0,1.2-1,2.3-2.2,2.2c-1.2,0-2.1-1-2.1-2.2c0-1.2,1-2.3,2.2-2.2C42.3,54.4,43.3,55.4,43.3,56.6z"/>
	<path class="st2" d="M33.1,32.4c-2.9-3.3-2.4-9.7,1-13.5c3.8-4.1,10-4.8,14.3-1.8C43.3,22.2,38.2,27.3,33.1,32.4z"/>
	<path class="st1" d="M56.6,62.3c1.2,0,2.1,1,2.1,2.2c0,1.2-1,2.2-2.2,2.2c-1.2,0-2.2-1.1-2.2-2.3C54.5,63.2,55.5,62.3,56.6,62.3z"
		/>
</g>
<g id="圖層_2">
	<g>
		<path class="st3" d="M31.9,90.6c5.7,0,11.3,0.1,16.9,0c1.8,0,6.5-6.7,6-8.5c-0.2-0.6-1.2-1.1-1.9-1.3c-2.5-0.9-5.1-1.4-7.5-2.4
			c-3.6-1.6-5.4-4.3-5.1-8.4c0.3-3.7,2.1-5.8,5.6-6.8c0.9-0.3,2.1-1.5,2.3-2.4c1.1-4,3.3-6.9,6.8-9c0.8-0.5,1.4-2.1,1.4-3.2
			c-0.1-2-0.8-3.9-1.2-5.8c-0.5-2.8,0.6-4.1,3.2-2.9c3,1.4,5.6,3.6,8.4,5.4c1.7,1.1,3.2,2.6,5.1,3.3c5.5,1.9,8.9,5.8,10.6,11.1
			c1.9,6.1,3.5,12.4,4.8,18.6c1.1,5.2,4.2,8,9,10.1c6.7,3.1,13.6,2.6,20.6,2.6c11.1,0,13.8,3.8,10.5,14.2c-1.4,4.2-2.5,8.5-3.9,12.7
			c-2.6,7.9-7,11.1-15.3,11.1c-25.3,0-50.6,0-75.9,0c-8.3,0-12.9-3.4-15.4-11.4c-1.6-5.3-3.2-10.6-4.8-15.9
			c-1.8-6.1,1.6-10.6,8-10.8c7.6-0.2,7.6-0.2,7.6-7.8c0-13.1-0.1-26.2,0-39.2c0-2.6,1.1-5.2,2.2-7.7c-3.5-6.2-3.3-12.5,1.2-19.4
			c-0.9-0.6-2-1-2.7-1.8c-0.4-0.5-0.4-1.8-0.1-2.3c0.3-0.4,2-0.6,2.2-0.3c2.2,3.1,4.6,1.4,7,0.6c4.9-1.8,9.4-1.2,13.6,1.8
			c3.1,2.2,3.1,3,0.5,5.7c-6.1,6.1-12.2,12.2-18.2,18.5c-1,1-1.9,2.6-1.9,4c-0.1,15.3-0.1,30.6-0.1,45.9
			C31.7,89.1,31.8,89.7,31.9,90.6z M17.8,106.7c0.8,2.8,1.4,5,2,7.2c2.5,8.9,5.4,11.1,14.6,11.1c14,0,27.9-0.1,41.9-0.1
			c10.9,0,21.7,0,32.6,0c4.6,0,8.4-1.6,10.1-6.1c1.5-3.9,2.6-7.9,3.9-12.2C87.7,106.7,52.9,106.7,17.8,106.7z M56.5,55.5
			c-2.6,1.5-4,3.6-4.4,6.3c-0.4,2.7-2,4.2-4.6,5.1c-1.3,0.4-2.8,1.7-3.2,3c-0.7,2.1,0.3,4.2,2.5,4.8c3.9,1,7.9,1.6,11.9,2.5
			c1.7,0.4,3.2,1.2,4.8,1.8c-1.3,0.9-2.5,1.9-3.9,2.9c-1.4,2.6-2.8,5.6-4.6,8.3c-2.4,3.8-3.5,7.8-2.5,12.3c19.6,0,39,0,59,0
			c-4.4-5-9-9-15.1-10.6c-7-1.8-11.2-6.2-12.7-13.4c-1.2-5.6-2.5-11.2-4.2-16.7c-1.3-4.3-3.5-8.1-8.7-9.6c0.3,2.2,0.7,4.1,0.6,5.9
			c0,0.8-1.1,1.6-1.7,2.4c-0.6-0.6-1.6-1.1-1.9-1.9c-0.5-1.6-0.5-3.3-1-4.9c-1.1-3.7-2.6-7.2-6.8-9.4c0.2,1.9,0.4,3.3,0.4,4.7
			c0,2.5,0.1,5.1-0.2,7.6c-0.1,0.9-1.4,1.7-2.1,2.5c-0.5-0.8-1.1-1.7-1.5-2.6C56.6,56.3,56.6,56,56.5,55.5z M48.3,17.3
			c-4.7-2.8-10.3-1.9-14,2.1c-3.2,3.6-3.6,9.2-0.9,13C38.3,27.4,43.2,22.4,48.3,17.3z M31.9,102.8c3.4,0,6.4,0,9.4,0
			c7.3,0,7.3,0,7.1-7.3c0-0.2-0.2-0.4-0.3-0.6c-5.3,0-10.7,0-16.1,0C31.9,97.5,31.9,99.9,31.9,102.8z M27.6,102.7c0-2.7,0-5.2,0-8
			c-2.9,0-5.7-0.2-8.5,0.1c-2.2,0.2-3.5,1.6-3.5,4c0,2.5,1.6,3.7,3.7,3.9C22,102.9,24.7,102.7,27.6,102.7z M110.5,94.7
			c0,0.2-0.1,0.4-0.1,0.4c1.4,1.8,2.8,3.6,4.3,5.4c2,2.4,5.1,3.3,7.7,1.6c1.2-0.8,2.4-2.7,2.4-4.1c0-1.1-1.8-3.1-3-3.2
			C118.1,94.5,114.2,94.7,110.5,94.7z"/>
		<path class="st3" d="M53.4,34.6c-1.3,1-2.2,1.9-2.4,1.7c-1.3-0.8-2.4-1.9-3.6-2.9c0.6-0.7,1.5-2,1.7-1.9
			C50.4,32.2,51.6,33.2,53.4,34.6z"/>
		<path class="st3" d="M49.8,51.1c-1.3-1.7-2.4-2.9-3.1-4.2c-0.1-0.1,1.7-1.6,1.8-1.6c1.1,1,2.2,2.2,3.1,3.4
			C51.6,48.9,50.7,49.9,49.8,51.1z"/>
		<path class="st3" d="M46.5,41.6c-1.5,0.9-2.6,1.9-2.9,1.7c-1.2-0.9-2.2-2.2-3.2-3.4c0-0.1,1.4-1.6,1.6-1.4
			C43.4,39.3,44.6,40.3,46.5,41.6z"/>
		<path class="st3" d="M60.4,27.9c-1.4,0.8-2.7,1.8-2.9,1.6c-1.2-1-2.1-2.3-3-3.5c0-0.1,1.4-1.5,1.6-1.4
			C57.5,25.4,58.6,26.5,60.4,27.9z"/>
		<path class="st3" d="M66.7,34.8c-1.3,0.8-2.4,1.6-2.6,1.5C63,35.3,62,34.1,61,32.9c-0.1-0.1,1.4-1.6,1.5-1.5
			C63.8,32.3,65,33.3,66.7,34.8z"/>
		<path class="st3" d="M91.1,68.2c-0.9-1.3-1.8-2.2-1.8-3c0-0.5,1.4-1.6,2-1.5c0.8,0.2,1.7,1.2,1.8,2C93.2,66.3,92.1,67.1,91.1,68.2
			z"/>
		<path class="st3" d="M98.5,50c-1.3,1-2.1,2-2.9,2c-0.6,0-1.3-1.1-1.9-1.7c0.6-0.7,1.2-1.7,2-1.9C96.2,48.3,97.1,49.2,98.5,50z"/>
		<path class="st3" d="M84.3,47.6c-1.4,0.8-2.3,1.7-3.1,1.7c-0.5,0-1.5-1.4-1.4-2c0.1-0.7,1.2-1.9,1.7-1.8
			C82.3,45.5,83,46.5,84.3,47.6z"/>
		<path class="st3" d="M46.7,84.3c-1.3,0.9-2.1,1.9-2.7,1.8c-0.8-0.2-1.4-1.3-2.1-2c0.7-0.6,1.3-1.7,2-1.7
			C44.7,82.5,45.4,83.4,46.7,84.3z"/>
		<path class="st3" d="M41.5,54.2c0.9,1.2,1.9,2.1,1.8,2.6c-0.3,0.8-1.3,1.4-2,2.1c-0.6-0.7-1.5-1.4-1.6-2.1
			C39.6,56.2,40.6,55.4,41.5,54.2z"/>
		<path class="st4" d="M17.8,106.7c35.1,0,69.8,0,105.1,0c-1.4,4.3-2.4,8.4-3.9,12.2c-1.7,4.5-5.5,6.1-10.1,6.1
			c-10.9,0-21.7,0-32.6,0c-14,0-27.9,0.1-41.9,0.1c-9.2,0-12.1-2.2-14.6-11.1C19.2,111.7,18.6,109.5,17.8,106.7z"/>
		<path class="st5" d="M56.5,55.5c0.1,0.5,0.1,0.9,0.2,1.1c0.5,0.9,1,1.7,1.5,2.6c0.7-0.8,2-1.6,2.1-2.5c0.3-2.5,0.2-5,0.2-7.6
			c0-1.4-0.2-2.8-0.4-4.7c4.2,2.2,5.7,5.7,6.8,9.4c0.5,1.6,0.4,3.3,1,4.9c0.3,0.8,1.2,1.3,1.9,1.9c0.6-0.8,1.6-1.6,1.7-2.4
			c0.1-1.8-0.4-3.7-0.6-5.9c5.3,1.5,7.4,5.4,8.7,9.6c1.7,5.5,3,11.1,4.2,16.7c1.5,7.2,5.6,11.5,12.7,13.4
			c6.1,1.6,10.7,5.5,15.1,10.6c-19.9,0-39.4,0-59,0c-0.9-4.5,0.2-8.5,2.5-12.3c1.7-2.8,3.1-5.7,4.6-8.3c1.3-1,2.6-1.9,3.9-2.9
			c-1.6-0.6-3.2-1.5-4.8-1.8c-3.9-0.9-8-1.5-11.9-2.5c-2.2-0.6-3.2-2.7-2.5-4.8c0.4-1.2,1.9-2.5,3.2-3c2.6-0.9,4.2-2.4,4.6-5.1
			C52.5,59,53.9,57,56.5,55.5z M59.7,64.8c-1.2-0.8-2-1.7-2.7-1.7c-0.7,0-1.3,1-2,1.6c0.7,0.7,1.2,1.8,2,2
			C57.6,66.8,58.4,65.7,59.7,64.8z"/>
		<path class="st6" d="M48.3,17.3c-5.1,5.1-10,10.2-14.9,15.2c-2.7-3.8-2.3-9.5,0.9-13C38,15.3,43.6,14.5,48.3,17.3z"/>
		<path class="st5" d="M31.9,102.8c0-2.9,0-5.3,0-8c5.5,0,10.8,0,16.1,0c0.2,0.3,0.3,0.5,0.3,0.6c0.2,7.3,0.2,7.3-7.1,7.3
			C38.3,102.8,35.3,102.8,31.9,102.8z"/>
		<path class="st5" d="M27.6,102.7c-2.9,0-5.6,0.2-8.3-0.1c-2.1-0.2-3.7-1.4-3.7-3.9c0-2.4,1.3-3.8,3.5-4c2.8-0.2,5.6-0.1,8.5-0.1
			C27.6,97.5,27.6,100,27.6,102.7z"/>
		<path class="st5" d="M110.5,94.7c3.8,0,7.6-0.3,11.4,0.2c1.2,0.1,3,2,3,3.2c0,1.4-1.2,3.3-2.4,4.1c-2.6,1.6-5.7,0.8-7.7-1.6
			c-1.5-1.8-2.9-3.6-4.3-5.4C110.4,95.1,110.4,95,110.5,94.7z"/>
		<path class="st3" d="M59.7,64.8c-1.2,0.9-2.1,2-2.6,1.9c-0.8-0.2-1.4-1.3-2-2c0.7-0.6,1.3-1.5,2-1.6C57.7,63,58.4,63.9,59.7,64.8z
			"/>
	</g>
</g>
</svg>
