<?xml version="1.0" encoding="utf-8"?>
<!-- Generator: Adobe Illustrator 26.0.2, SVG Export Plug-In . SVG Version: 6.00 Build 0)  -->
<svg version="1.1" xmlns="http://www.w3.org/2000/svg" xmlns:xlink="http://www.w3.org/1999/xlink" x="0px" y="0px"
	 viewBox="0 0 140 140" style="enable-background:new 0 0 140 140;" xml:space="preserve">
<style type="text/css">
	.st0{display:none;}
	.st1{display:inline;fill:#2A2968;}
	.st2{display:inline;fill:#FFDC55;}
	.st3{fill:#FF5809;}
	.st4{fill:#FFFFFF;}
	.st5{fill:#F2E600;}
</style>
<g id="圖層_1" class="st0">
	<path class="st1" d="M96,125c-0.7-0.2-1.4-0.3-2-0.5c-9.9-2.8-13.8-14.5-7.6-22.7c0.2-0.3,0.4-0.5,0.6-0.8c-1.7-3-3.5-6-5.2-9
		c-3.3-5.7-6.6-11.5-10-17.2c-0.7-1.2-0.7-2.2,0.1-3.4c1-1.3,1.9-2.7,2.8-4c1-1.4,1.7-1.6,3.3-1.1c1.8,0.6,3.7,1.2,5.5,1.8
		c0.7,0.3,1,0.1,1.4-0.5c1.1-1.7,2.3-3.5,3.5-5.2c1.2-1.8,3-1.7,4.1,0.2c4.9,8.5,9.8,17,14.8,25.6c0.3,0.6,0.7,0.8,1.4,0.8
		c7.7-1.1,15.1,4.3,16.2,12.1c0,0.1,0.1,0.3,0.2,0.4c0,1.1,0,2.3,0,3.4c-0.1,0.2-0.2,0.3-0.2,0.5c-0.8,6.2-6.1,11.9-13.7,12.4
		c-0.4,0-1,0.4-1.2,0.8c-2.1,3-4.8,5.1-8.3,6.1c-0.7,0.2-1.5,0.3-2.2,0.5C98.3,125,97.2,125,96,125z M105.8,116.9
		c-0.8-0.4-1.5-0.7-2.1-1c-2.3-1.2-4.1-3-5.5-5.2c-0.7-1.2-0.5-2.4,0.5-3.1c1.1-0.7,2.3-0.4,3.1,0.8c0.1,0.2,0.2,0.3,0.3,0.5
		c2.9,4.4,8.6,5.8,13.2,3.4c4.6-2.4,6.6-7.8,4.8-12.6c-1.9-4.9-7.1-7.5-12.1-6.2c-1.9,0.5-2.5,0.3-3.5-1.5
		c-3.5-6.1-7.1-12.2-10.6-18.3c-1.2-2-2.3-4.1-3.6-6.2c-1,1.5-2,3-2.9,4.4c-0.9,1.3-1.6,1.6-3.1,1.1c-1.9-0.6-3.8-1.2-5.7-1.9
		c-0.6-0.2-1-0.2-1.3,0.4c-0.2,0.3-0.4,0.6-0.6,0.9c-0.7,0.7-0.5,1.3-0.1,2.1c4.9,8.4,9.8,16.8,14.6,25.3c1,1.7,0.9,2.4-0.5,3.8
		c-2.7,2.8-3.7,6.2-2.6,10c1.1,3.9,3.8,6.3,7.8,7.1C99.8,121.3,103.1,119.9,105.8,116.9z"/>
	<path class="st1" d="M38.6,14.9c2,0.8,4.1,1.2,5.9,2.3c4.9,3.1,7.1,7.8,6.6,13.6c-0.1,1,0,1.6,1,2c1,0.5,2,1.1,3,1.7
		c1.2,0.7,1.6,1.9,0.9,3c-0.6,1.1-1.8,1.4-3.1,0.7c-1.8-1-3.5-2-5.3-3.1c-1.3-0.8-1.5-1.5-1.1-3.1c1.5-5.6-1.7-11.1-7.2-12.6
		c-5.5-1.5-11.4,2.1-12.5,7.8c0,0.2,0,0.3,0,0.6c2.4-0.3,4.8-0.3,7,0.5c0.8,0.3,1.6,0.6,2.4,1c1.4,0.7,1.8,1.9,1.2,3.1
		c-0.6,1.1-1.8,1.4-3.2,0.7c-5.8-2.9-12.3-0.4-14.4,5.5c-1.6,4.4,0.1,9.3,4.1,12c3.8,2.5,9.1,2.1,12.4-1.1c1.8-1.7,2.2-1.8,4.3-0.5
		c7.8,4.5,15.6,9,23.4,13.5c0.2,0.1,0.4,0.2,0.8,0.4c0.1-1.7,0.3-3.3,0.3-4.9c0.1-2,0.6-2.5,2.5-2.9c1.8-0.4,3.6-0.8,5.5-1.1
		c0.7-0.1,1-0.4,1.1-1.2c0.3-1.6-0.1-2.6-1.7-3.2c-0.9-0.3-1.8-1-2.6-1.5c-1.2-0.7-1.5-2-0.9-3c0.6-1,1.8-1.3,3-0.7
		c1.8,1,3.7,2.1,5.5,3.2c0.9,0.5,1.3,1.2,1.2,2.2c-0.2,1.9-0.3,3.8-0.5,5.8c-0.1,1.2-0.8,1.9-1.9,2.1c-2,0.4-3.9,0.9-5.9,1.2
		c-0.8,0.2-1.1,0.5-1.1,1.3c-0.1,2-0.2,4.1-0.4,6.1c-0.2,2.1-1.7,2.9-3.5,1.8c-8.5-4.9-17-9.8-25.5-14.7c-0.3-0.2-0.6-0.3-1-0.5
		c-2.3,1.9-4.9,3.1-7.8,3.5c-7.6,0.9-14.6-4.3-16-11.8c0-0.2-0.2-0.5-0.2-0.7c0-1.2,0-2.4,0-3.7c0.1-0.2,0.2-0.4,0.2-0.6
		c0.8-4.1,2.9-7.4,6.4-9.7c0.6-0.4,0.8-0.8,0.8-1.4c0.5-6.5,4.5-11.5,10.5-13.2c0.7-0.2,1.4-0.4,2.1-0.6
		C36.2,14.9,37.4,14.9,38.6,14.9z"/>
	<path class="st2" d="M97.2,43.6c-0.4,1.4-0.7,2.8-1.1,4.1c-0.3,1.1-1.3,1.7-2.3,1.6c-1-0.1-1.8-0.9-1.9-1.9c0-0.4,0-0.9,0.2-1.3
		c0.5-1.8,1-3.7,1.5-5.5c0.4-1.6,1.4-2.2,3-1.7c0.9,0.2,1.7,0.5,2.7,0.7c0.4-1.4,0.7-2.7,1.1-4c0.4-1.5,1.5-2.2,2.8-1.9
		c1.2,0.3,1.8,1.5,1.4,2.9c-0.5,2-1,3.9-1.6,5.9c-0.4,1.5-1.4,2.1-3,1.7C99,44,98.1,43.8,97.2,43.6z"/>
	<path class="st2" d="M103,56.9c-1.1,0.6-2.2,1.2-3.3,1.9c-1.4,0.8-2.6,0.5-3.3-0.6c-0.6-1.2-0.2-2.3,1.1-3.1c1.7-1,3.3-1.9,5-2.9
		c1.4-0.8,2.5-0.5,3.3,0.9c0.5,0.8,0.9,1.6,1.4,2.5c1.2-0.7,2.4-1.4,3.6-2.1c1.4-0.8,2.6-0.6,3.3,0.5c0.7,1.1,0.3,2.3-1.1,3.1
		c-1.8,1-3.5,2-5.3,3.1c-1.4,0.8-2.5,0.5-3.3-0.9c-0.5-0.8-0.9-1.5-1.4-2.3C103.2,56.9,103.1,56.9,103,56.9z"/>
	<path class="st2" d="M82.2,34.2c-0.8-1.3-1.5-2.5-2.1-3.7c-0.7-1.3-0.5-2.5,0.7-3.2c1.1-0.6,2.3-0.3,3.1,1.1c1,1.8,2.1,3.5,3.1,5.3
		c0.8,1.4,0.5,2.5-0.9,3.4c-0.8,0.5-1.5,0.9-2.4,1.4c0.7,1.2,1.3,2.3,2,3.4c0.8,1.4,0.5,2.6-0.7,3.2c-1.1,0.6-2.3,0.2-3.1-1.1
		c-0.9-1.6-1.9-3.3-2.8-4.9c-0.9-1.6-0.6-2.6,1-3.5C80.7,35.1,81.4,34.7,82.2,34.2z"/>
	<path class="st1" d="M64.7,41.4c0,1.2-0.9,2.1-2.1,2.1c-1.2,0-2.1-0.9-2.2-2.1c0-1.2,1-2.2,2.2-2.2C63.7,39.3,64.7,40.2,64.7,41.4z
		"/>
</g>
<g id="圖層_2">
	<path class="st3" d="M97.8,125c-5-0.3-9.4-2.4-12.1-7.1c-2.7-4.7-2.9-9.6,0-14.2c1.3-2,1.1-3.5,0-5.4c-4.3-7.3-8.3-14.7-12.8-21.8
		c-2.4-3.9,0.2-5.9,1.9-8.5c1.6-2.6,3.8-1.6,5.6-0.7c3.6,1.8,5.4,0.3,7.2-2.7c2.7-4.4,3.8-4.3,6.3,0.2c4.1,7.2,8.4,14.4,12.4,21.7
		c1.1,2,2.4,2.7,4.7,2.7c7.6,0,13.8,6,14.3,13.5c0.5,7.3-4.7,13.5-12.1,14.9c-1.5,0.3-3,1.3-4.1,2.5C106,123,102.6,124.9,97.8,125z
		 M105.8,117.1c-1.9-1.4-3.8-2.5-5.1-4c-1.2-1.3-3.8-2.9-1.7-4.9c2.2-2.1,3.1,0.9,4.3,2.1c3.5,3.6,8.6,4.4,12.8,1.9
		c4.1-2.4,6-7.3,4.7-11.8c-1.4-4.6-5.6-7.9-10.4-7.1c-3.9,0.6-5.5-1-7.2-4c-4-7.3-8.3-14.4-12.6-21.8c-1.4,1.9-2.4,4.2-3.9,4.8
		c-1.7,0.6-4-0.5-6-0.7c-1.2-0.1-2.4,0.1-3.6,0.1c0.1,1.4-0.3,3,0.3,4.1C81.6,83.4,86,91,90.5,98.6c1.3,2.1,1.2,3.7-0.4,5.7
		c-3.7,4.7-3,10.7,1.2,14.3C95.7,122.1,101.5,121.6,105.8,117.1z"/>
	<path class="st3" d="M25.9,27.4c3.7,0.6,6.3,0.7,8.6,1.5c1.1,0.4,1.8,2,2.7,3.1c-1.3,0.2-2.8,0.9-4,0.6c-7.3-2.3-14,2.1-14.1,9.5
		c0,4,1.9,7.1,5.3,9c3.3,1.8,7.1,2.1,10.1-0.3c3.2-2.6,5.7-2,8.9,0c6.9,4.3,14,8.1,21.3,12.3c0.3-1.1,0.6-1.8,0.5-2.5
		c-0.6-4.2,1.8-5.4,5.4-5.9c1.3-0.2,2.6-1.3,3.9-1.9c-1-1.3-2.1-2.5-3-3.9c-0.8-1.1-2.2-2.7-1.9-3.5c0.9-2.1,2.6-0.7,3.9,0
		c5.7,3.1,5.8,3.4,5,8.9c-0.3,2.4-1.5,3.4-3.8,3.8c-5.1,0.9-5.1,1-5.7,6.1c-0.6,5.1-1.1,5.4-5.7,2.7c-7.3-4.2-14.7-8.4-22-12.7
		c-1.6-0.9-2.8-1.1-4.5,0c-6.8,4.2-14.9,2.3-19.5-4.1c-4.2-6-2.8-14.1,3-19.2c1.1-1,1.9-2.7,2.2-4.2c1.6-7.1,7.7-12.1,14.6-11.8
		c7.2,0.3,13.1,6.1,13.6,13.5c0.2,2.8,0.8,4.8,3.6,6.1c0.8,0.3,0.9,2.1,1.4,3.1c-1.1,0.1-2.2,0.3-3.2,0.2c-0.7-0.1-1.3-0.8-2.1-1.1
		c-3.1-1.2-4.2-3.2-3.7-6.7c0.6-4.2-1.3-7.6-5.2-9.6c-3.8-2.1-7.6-1.9-10.9,0.8C28.9,22.7,27.7,25,25.9,27.4z"/>
	<path class="st3" d="M65.4,41.6c-1.3,0.7-2.1,1.6-2.8,1.5c-0.7-0.1-1.2-1.1-1.8-1.8c0.7-0.6,1.4-1.7,2.1-1.8
		C63.5,39.5,64.2,40.6,65.4,41.6z"/>
	<path class="st4" d="M105.8,117.1c-4.3,4.5-10.1,5-14.4,1.4c-4.3-3.6-4.9-9.6-1.2-14.3c1.6-2,1.6-3.5,0.4-5.7
		C86,91,81.6,83.4,77.4,75.8c-0.6-1.1-0.2-2.7-0.3-4.1c1.2,0,2.4-0.2,3.6-0.1c2,0.2,4.3,1.3,6,0.7c1.6-0.6,2.5-2.9,3.9-4.8
		c4.3,7.5,8.6,14.6,12.6,21.8c1.7,3,3.3,4.7,7.2,4c4.8-0.8,9,2.5,10.4,7.1c1.4,4.5-0.6,9.4-4.7,11.8c-4.3,2.5-9.3,1.7-12.8-1.9
		c-1.2-1.2-2.1-4.2-4.3-2.1c-2.1,2,0.5,3.6,1.7,4.9C102,114.7,103.9,115.7,105.8,117.1z"/>
	<g>
		<g>
			<path class="st5" d="M86.6,46.2c-0.8,0-1.6-0.4-2.1-1.2l-4.3-6.7c-0.7-1.1-0.4-2.6,0.6-3.4l2.4-1.7l-3.5-5.6
				c-0.7-1.2-0.4-2.7,0.8-3.5c1.2-0.7,2.7-0.4,3.5,0.8l4.8,7.6c0.7,1.1,0.4,2.6-0.7,3.4l-2.4,1.7l3,4.7c0.8,1.2,0.4,2.7-0.8,3.5
				C87.5,46.1,87.1,46.2,86.6,46.2z"/>
		</g>
		<g>
			<path class="st5" d="M94.8,48.8c-0.3,0-0.6-0.1-1-0.2c-1.3-0.5-1.9-2-1.4-3.3l3-7.3c0.5-1.2,1.9-1.9,3.2-1.4l2.8,1l2.6-6.1
				c0.5-1.3,2-1.9,3.3-1.3c1.3,0.5,1.9,2,1.3,3.3l-3.5,8.3c-0.5,1.2-1.9,1.8-3.1,1.4l-2.7-1l-2.1,5.1C96.7,48.2,95.8,48.8,94.8,48.8
				z"/>
		</g>
		<g>
			<path class="st5" d="M106.5,60.4c-1.1,0-2.1-0.7-2.4-1.8l-0.8-2.8L97.9,57c-1.4,0.3-2.7-0.5-3-1.9c-0.3-1.4,0.5-2.7,1.9-3
				l7.7-1.8c1.3-0.3,2.6,0.5,3,1.8l0.8,2.8l6.5-1.4c1.3-0.3,2.7,0.6,3,1.9c0.3,1.4-0.6,2.7-1.9,3l-8.8,1.9
				C106.9,60.4,106.7,60.4,106.5,60.4z"/>
		</g>
	</g>
</g>
</svg>
