<?xml version="1.0" encoding="utf-8"?>
<!-- Generator: Adobe Illustrator 26.0.2, SVG Export Plug-In . SVG Version: 6.00 Build 0)  -->
<svg version="1.1" xmlns="http://www.w3.org/2000/svg" xmlns:xlink="http://www.w3.org/1999/xlink" x="0px" y="0px"
	 viewBox="0 0 32.5 39.5" style="enable-background:new 0 0 32.5 39.5;" xml:space="preserve">
<style type="text/css">
	.st0{display:none;}
	.st1{display:inline;}
	.st2{fill:#FFDC55;}
	.st3{fill:#2A2968;stroke:#2A2968;stroke-width:0.5;}
	.st4{fill:#2A2968;}
	.st5{fill:#FF5809;}
</style>
<g id="圖層_1" class="st0">
	<g id="WdIlrx.tif" transform="translate(194.029 43.002)" class="st1">
		<path id="Path_755" class="st2" d="M-192.7-30.1c-0.3,2.6,0.3,5.1,1.8,7.3c2.4,3.2,8,4.8,8,4.8s-0.6,7.3,0.9,10.7s5.5,2.4,5.5,2.4
			c1.7-0.5,3.1-1.7,3.8-3.3c1.1-2.7,0-5.2,1-7.3s5.2,0,5.2,0l0.3,5.6l2.1-0.4c0,0,1.2-3.7-0.2-5.8s-2.9-3.3-5.1-2.8s-3.2,0.4-4.6,3
			s0.1,5-0.9,7.2c-0.5,1.2-1.8,1.8-3,1.4c0,0-1.9,0.1-2.6-2.6s0-8.1,0-8.1c2.7-0.5,5.2-1.9,7.1-3.9c2.7-3.2,2.9-8.8,2.9-8.8
			l-2.1,0.7c0,2.2-0.8,4.3-2.2,5.9c-2.3,2.6-3.7,3.7-7.1,3.7s-3.9-1.1-6.5-3.7c-1.1-1.1-2-4.7-2.8-6.1
			C-192.2-31.7-192.7-30.1-192.7-30.1z"/>
		<path id="Path_750" class="st3" d="M-165.7-3.8c-0.4-0.1-0.7-0.2-1-0.4c-1.7-0.8-2.4-2.8-1.6-4.5c0.2-0.5,0.6-1,1.1-1.3
			c0.2-0.1,0.3-0.4,0.3-0.6c0-1,0-2.1,0-3.1c-0.1-1.1-0.8-1.9-1.8-2.2c-1-0.3-2.1,0.1-2.6,1c-0.3,0.4-0.4,1-0.4,1.5c0,1,0,2.1,0,3.1
			c0.1,3.2-2.5,5.9-5.8,6c-0.2,0-0.4,0-0.5,0c-3-0.2-5.4-2.7-5.4-5.7c0-2.5,0-5,0-7.5c0-0.3,0-0.4-0.4-0.5
			c-5.2-0.9-9.2-5.2-9.7-10.5c0-0.1,0-0.2-0.1-0.3v-1.3c0.2-0.5,0.5-1,1-1.2c0.1,0,0.1-0.2,0.1-0.3c0-1.7,0-3.3,0-5
			c-0.1-1.9,1.1-3.7,3-4.3c0.1-0.1,0.2-0.2,0.3-0.3c0.3-0.9,1.2-1.5,2.1-1.5c0.4,0,0.7,0,1.1,0c1.1,0,2.1,1,2.1,2.1
			c0,1.2-0.9,2.1-2.1,2.1c-0.3,0-0.6,0-0.8,0c-1,0.1-1.9-0.4-2.3-1.3c-1.2,0.4-2.1,1.5-2.1,2.8c0,1.8,0,3.6,0,5.4
			c0,0.1,0.1,0.3,0.2,0.3c0.6,0.3,0.9,0.9,0.9,1.5c0,1.6,0.5,3.3,1.4,4.6c0.2,0.2,0.2,0.6,0,0.8c0,0,0,0-0.1,0
			c-0.3,0.2-0.6,0.1-0.9-0.3c-1-1.5-1.5-3.2-1.6-4.9c0-0.1,0-0.2,0-0.3c0-0.4-0.3-0.7-0.6-0.7c-0.3,0-0.6,0.3-0.6,0.6c0,0,0,0,0,0
			c0,1.6,0.4,3.3,1.1,4.7c1.6,3.2,4.7,5.4,8.2,5.8c0.5,0,0.8,0.4,0.8,0.8c0,0,0,0.1,0,0.1c0,1.4,0,2.9,0,4.3c0,0.1,0,0.2,0,0.3
			c0,0.3,0.3,0.6,0.6,0.6c0.3,0,0.6-0.3,0.6-0.6c0,0,0,0,0,0c0-0.6,0-1.2,0-1.8c0-0.9,0-1.9,0-2.8c-0.1-0.5,0.3-0.9,0.7-0.9
			c0,0,0.1,0,0.1,0c4.6-0.6,8.4-4.1,9.2-8.7c0.1-0.6,0.2-1.2,0.2-1.8c0-0.5-0.2-0.8-0.6-0.8c-0.3,0-0.6,0.3-0.6,0.8
			c0,2.7-1.3,5.3-3.4,7.1c-3.5,3-8.6,3.1-12.2,0.3c-0.3-0.3-0.4-0.6-0.3-0.8c0.2-0.3,0.6-0.4,0.9-0.1c0.9,0.7,2,1.3,3.1,1.6
			c4.5,1.2,9.2-1.5,10.4-6c0.1-0.4,0.2-0.8,0.2-1.2c0-0.3,0.1-0.6,0.1-0.9c0-0.6,0.3-1.2,0.9-1.5c0.2-0.1,0.3-0.2,0.2-0.4
			c0-1.8,0-3.5,0-5.3c0-1.3-0.9-2.5-2.1-2.9c-0.4,1-1.4,1.5-2.4,1.3c-0.4,0-0.8,0-1.2-0.1c-1.1-0.2-1.8-1.2-1.6-2.3
			c0.1-1.1,1-1.9,2-1.9c0.4,0,0.8,0,1.2,0c0.9,0,1.8,0.6,2.1,1.5c0.1,0.2,0.2,0.3,0.3,0.3c1.8,0.6,2.9,2.3,2.9,4.2c0,1.7,0,3.4,0,5
			c0,0.2,0.1,0.4,0.3,0.5c0.6,0.3,0.9,0.9,0.9,1.6c0,4.9-3.1,9.3-7.7,11c-0.8,0.3-1.6,0.5-2.5,0.7c0,0,0,0.1,0,0.1
			c0,2.6,0,5.1,0,7.7c0,0.9,0.5,1.8,1.3,2.1c0.8,0.4,1.8,0.4,2.5-0.2c0.6-0.4,1-1.1,1-1.9c0-1.1,0-2.2,0-3.3c-0.1-3,2.1-5.5,5-5.9
			c1.2-0.2,2.4,0,3.5,0.5c0.4,0.2,0.5,0.5,0.4,0.8s-0.5,0.4-0.9,0.2c-1.6-0.8-3.6-0.6-5,0.5c-1.2,0.9-1.9,2.3-1.8,3.7
			c0,1.1,0,2.3,0,3.4c0,1.8-1.3,3.2-3.1,3.5c-1.7,0.2-3.3-0.8-3.9-2.4c-0.1-0.4-0.2-0.8-0.2-1.2c0-0.5,0-1,0-1.5h-1.1
			c-0.1,1.6-0.1,3.2,1,4.5c1.2,1.6,3.3,2.2,5.2,1.6c1.9-0.6,3.2-2.3,3.3-4.3c0-1.1,0-2.3,0-3.4c0-1.5,0.8-2.8,2.2-3.3
			c1.3-0.6,2.8-0.3,3.9,0.7c0.8,0.7,1.2,1.7,1.1,2.8c0,0.9,0,1.8,0,2.7h1.1c0,0,0-0.1,0-0.1c0-1.1,0-2.2,0-3.3
			c-0.1-0.7-0.3-1.3-0.7-1.9c-0.2-0.4-0.2-0.7,0.1-0.9s0.6-0.1,0.8,0.3c0.6,1,0.9,2.1,0.9,3.3c0,0.9,0,1.9,0,2.8
			c0,0.2,0.1,0.3,0.2,0.4c1.2,0.8,1.7,2.2,1.4,3.6c-0.3,1.4-1.4,2.4-2.7,2.6c0,0-0.1,0-0.1,0.1L-165.7-3.8z M-162.9-7.2
			c0-1.3-1-2.3-2.3-2.3c-1.3,0-2.3,1-2.3,2.3c0,1.3,1,2.3,2.3,2.3c0,0,0,0,0,0C-164-4.9-162.9-5.9-162.9-7.2L-162.9-7.2z
			 M-186.8-41.6c-0.2,0-0.4,0-0.6,0c-0.5,0-0.9,0.5-0.9,1c0,0.5,0.4,1,0.9,1c0.4,0,0.9,0,1.3,0c0.5,0,0.9-0.5,0.9-1
			c0-0.5-0.4-0.9-0.9-1C-186.4-41.6-186.6-41.6-186.8-41.6z M-176.9-39.6L-176.9-39.6c0.2,0,0.4,0,0.6,0c0.5,0,1-0.4,1-1
			c0-0.5-0.4-1-1-1c-0.4,0-0.8,0-1.2,0c-0.5,0-1,0.5-0.9,1c0,0.5,0.4,0.9,0.9,1C-177.3-39.6-177.1-39.6-176.9-39.6L-176.9-39.6z"/>
		<path id="Path_751" class="st2" d="M-162.9-7.2c0,1.3-1,2.3-2.3,2.3c-1.3,0-2.3-1-2.3-2.3c0,0,0,0,0,0c0-1.3,1-2.3,2.3-2.3
			C-163.9-9.4-162.9-8.4-162.9-7.2z M-165.2-7.7c-0.3,0-0.6,0.2-0.6,0.5c0,0,0,0,0,0c0,0.3,0.2,0.6,0.5,0.6c0,0,0,0,0,0
			c0.3,0,0.6-0.2,0.6-0.5c0,0,0,0,0,0C-164.6-7.5-164.9-7.7-165.2-7.7C-165.2-7.7-165.2-7.7-165.2-7.7z"/>
		<path id="Path_752" class="st2" d="M-186.8-41.6c0.2,0,0.4,0,0.6,0c0.5,0,0.9,0.5,0.9,1c0,0.5-0.4,1-0.9,1c-0.4,0-0.9,0-1.3,0
			c-0.5,0-0.9-0.5-0.9-1c0-0.5,0.4-0.9,0.9-1C-187.2-41.6-187-41.6-186.8-41.6z"/>
		<path id="Path_753" class="st2" d="M-176.9-39.6c-0.2,0-0.4,0-0.6,0c-0.5,0-0.9-0.5-0.9-1c0-0.5,0.4-1,0.9-1c0.4,0,0.8,0,1.2,0
			c0.5,0,1,0.5,1,1c0,0.5-0.4,1-1,1C-176.5-39.6-176.7-39.6-176.9-39.6L-176.9-39.6z"/>
		<path id="Path_754" class="st4" d="M-165.2-7.7c0.3,0,0.6,0.2,0.6,0.5c0,0,0,0,0,0c0,0.3-0.3,0.5-0.6,0.5c0,0,0,0,0,0
			c-0.3,0-0.6-0.2-0.6-0.5c0,0,0,0,0,0C-165.8-7.5-165.5-7.7-165.2-7.7C-165.2-7.7-165.2-7.7-165.2-7.7z"/>
	</g>
</g>
<g id="圖層_2">
	<g>
		<g>
			<path class="st5" d="M16.1,20.5c-3.2,0-5.9-2.6-5.9-5.8V9.9c0-0.2,0.2-0.4,0.4-0.4c0.2,0,0.4,0.2,0.4,0.4v4.8
				c0,2.8,2.3,5.1,5.1,5.1c2.8,0,5.1-2.3,5.1-5.1V9.9c0-1.4-0.5-2.6-1.5-3.6c-0.2-0.2-0.2-0.4,0-0.5c0.2-0.2,0.4-0.2,0.5,0
				C21.3,6.8,22,8.3,22,9.9v4.8C22,17.9,19.3,20.5,16.1,20.5z"/>
		</g>
		<g>
			<path class="st5" d="M10.6,14.7c-1.3,0-2.4-1.1-2.4-2.4c0-0.5,0.2-1.1,0.5-1.5c0.5-0.6,1.1-0.9,1.9-0.9c0.2,0,0.4,0.2,0.4,0.4
				v4.1C11,14.5,10.9,14.7,10.6,14.7z M10.3,10.7c-0.4,0.1-0.7,0.3-0.9,0.6c-0.2,0.3-0.4,0.7-0.4,1c0,0.8,0.5,1.4,1.3,1.6V10.7z"/>
		</g>
		<g>
			<path class="st5" d="M21.6,14.7c-0.2,0-0.4-0.2-0.4-0.4v-4.1c0-0.2,0.2-0.4,0.4-0.4c0.7,0,1.3,0.3,1.8,0.8c0.4,0.4,0.7,1,0.7,1.7
				C24,13.6,22.9,14.7,21.6,14.7z M22,10.7v3.2c0.7-0.2,1.3-0.8,1.3-1.6c0-0.4-0.2-0.8-0.5-1.1C22.5,10.9,22.3,10.8,22,10.7z"/>
		</g>
		<g>
			<path class="st5" d="M9.1,11.4c0,0-0.1,0-0.1,0c-0.2-0.1-0.3-0.2-0.3-0.4V9.8c0-0.2,0-0.5,0-0.8c0-1.4-0.1-3,0.8-3.8
				c0.3-0.3,0.7-0.5,1.1-0.6c-0.1-0.6-0.2-1.5,0.3-2.2c0.3-0.5,0.9-0.7,1.6-0.7c0,0,0,0,0,0c1.9,0,4.3,0.6,5.3,0.9l0.2,0
				c0.1,0,0.2,0.1,0.2,0.1c0.1,0,0.1,0,0.1,0C18.6,2.9,19,3,19.4,3.2c0.6,0.3,1.5,1,1.8,1.3c0.5,0,1,0.2,1.3,0.6c1,1,1,2.9,1,4.4
				l0,1.4c0,0.2-0.1,0.3-0.2,0.4c-0.1,0.1-0.3,0-0.4-0.1c-0.3-0.3-0.7-0.5-1.2-0.5c-0.2,0-0.4-0.2-0.4-0.4V9.9
				c0-1.2-0.4-2.4-1.3-3.3c-0.6,0.4-1.9,1-4.5,1c-2.3,0-3.4-0.5-3.9-0.9C11.3,7,11,8,11,9.9v0.4c0,0.2-0.2,0.4-0.4,0.4
				c-0.5,0-1,0.2-1.3,0.6C9.3,11.3,9.2,11.4,9.1,11.4z M12.4,2.5c-0.5,0-0.8,0.1-1,0.4c-0.4,0.5-0.2,1.6-0.1,2c0,0.1,0,0.2-0.1,0.3
				c-0.1,0.1-0.2,0.2-0.3,0.2c-0.5,0-0.8,0.1-1,0.4C9.4,6.4,9.4,7.8,9.4,9c0,0.3,0,0.5,0,0.8v0.4C9.7,10,10,9.9,10.3,9.9v0
				c0-3.3,0.9-4.1,1-4.2c0.1-0.1,0.2-0.1,0.3-0.1c0.1,0,0.2,0.1,0.3,0.2c0,0,0,0,0,0c0,0,0.6,0.9,3.6,0.9c3.1,0,4.3-1,4.3-1
				c0.2-0.1,0.4-0.1,0.5,0c1.1,1.1,1.7,2.6,1.7,4.1v0c0.2,0,0.5,0.1,0.7,0.2l0-0.6c0-1.3,0-3.1-0.7-3.9c-0.2-0.2-0.5-0.4-0.9-0.4
				c-0.1,0-0.2,0-0.3-0.1c0,0-1.1-0.9-1.7-1.3c-0.3-0.2-0.6-0.3-1-0.4c0,0,0,0-0.1,0c-0.1,0-0.1,0-0.2-0.1l-0.2,0
				C16.6,3.1,14.2,2.5,12.4,2.5C12.4,2.5,12.4,2.5,12.4,2.5z"/>
		</g>
		<g>
			<path class="st5" d="M18.1,3.5c0,0-0.1,0-0.1,0c-0.1,0-0.1,0-0.2-0.1c-0.2-0.1-0.3-0.3-0.3-0.5c0.1-0.2,0.3-0.3,0.5-0.3
				c0.1,0,0.2,0,0.3,0.1c0.2,0.1,0.3,0.3,0.3,0.5C18.4,3.4,18.2,3.5,18.1,3.5z"/>
		</g>
		<g>
			<path class="st5" d="M16.1,24.6c-3.3,0-3.6-2.5-3.6-2.6c0,0,0,0,0,0v-2.8c0-0.2,0.2-0.4,0.4-0.4s0.4,0.2,0.4,0.4v2.8
				c0,0.2,0.3,1.8,2.8,1.8c2.5,0,2.8-1.7,2.8-1.8v-2.8c0-0.2,0.2-0.4,0.4-0.4c0.2,0,0.4,0.2,0.4,0.4V22c0,0,0,0,0,0
				C19.7,22,19.4,24.6,16.1,24.6z"/>
		</g>
		<g>
			<path class="st5" d="M27,37.8H0.5c-0.1,0-0.2-0.1-0.3-0.1c-0.1-0.1-0.1-0.2-0.1-0.3L2,27.8c0.4-2.3,2.2-4.1,4.4-4.7l6.4-1.6
				c0.1,0,0.2,0,0.3,0c0.1,0.1,0.2,0.1,0.2,0.2l3.2,15c0,0,0,0.1,0,0.1H27c0.2,0,0.4,0.2,0.4,0.4S27.2,37.8,27,37.8z M1,37h14.6
				l-4.4-6.1c-0.1-0.1-0.1-0.3,0-0.5l1.2-1.3l-3-2.6c-0.1-0.1-0.2-0.3-0.1-0.5l1.5-3.1l-4.2,1c-2,0.5-3.5,2.1-3.9,4.1L1,37z
				 M12,30.6l3.3,4.6l-2.7-12.8l-0.9,0.2L10.1,26l3.1,2.7c0.1,0.1,0.1,0.2,0.1,0.3c0,0.1,0,0.2-0.1,0.3L12,30.6z"/>
		</g>
		<g>
			<path class="st5" d="M9.9,31.2H5.2c-0.2,0-0.4-0.2-0.4-0.4v-2.5C4.8,28.2,5,28,5.2,28h4.6c0.2,0,0.4,0.2,0.4,0.4v2.5
				C10.3,31.1,10.1,31.2,9.9,31.2z M5.6,30.5h3.9v-1.7H5.6V30.5z"/>
		</g>
		<g>
			<path class="st5" d="M27,37.8c-3,0-5.4-2.4-5.4-5.4c0-3,2.4-5.4,5.4-5.4s5.4,2.4,5.4,5.4C32.4,35.3,30,37.8,27,37.8z M27,27.8
				c-2.5,0-4.6,2.1-4.6,4.6c0,2.5,2.1,4.6,4.6,4.6c2.5,0,4.6-2.1,4.6-4.6C31.6,29.8,29.5,27.8,27,27.8z"/>
		</g>
		<g>
			<g>
				<path class="st5" d="M25.5,36c-0.5,0-1.1-0.2-1.5-0.6c-0.8-0.8-0.8-2.2,0-3l1.5-1.5c0.2-0.2,0.4-0.2,0.5,0l2.5,2.5
					c0.1,0.1,0.1,0.2,0.1,0.3c0,0.1,0,0.2-0.1,0.3L27,35.4C26.6,35.8,26,36,25.5,36z M25.7,31.7l-1.2,1.2c-0.5,0.5-0.5,1.4,0,1.9
					c0.5,0.5,1.4,0.5,1.9,0l1.2-1.2L25.7,31.7z"/>
			</g>
			<g>
				<path class="st5" d="M28.2,34c-0.1,0-0.2,0-0.3-0.1l-2.5-2.5c-0.1-0.1-0.1-0.2-0.1-0.3c0-0.1,0-0.2,0.1-0.3l1.5-1.5
					c0.4-0.4,0.9-0.6,1.5-0.6c0.6,0,1.1,0.2,1.5,0.6c0.4,0.4,0.6,0.9,0.6,1.5c0,0.6-0.2,1.1-0.6,1.5l-1.5,1.5
					C28.4,34,28.3,34,28.2,34z M26.3,31.1l1.9,1.9l1.2-1.2c0.5-0.5,0.5-1.4,0-1.9c-0.3-0.3-0.6-0.4-1-0.4c-0.4,0-0.7,0.1-1,0.4
					L26.3,31.1z"/>
			</g>
		</g>
		<g>
			<path class="st5" d="M16.4,15h-1.9c-0.1,0-0.2-0.1-0.3-0.2c-0.1-0.1-0.1-0.2-0.1-0.3l0.8-3.2c0.1-0.2,0.3-0.3,0.5-0.3
				c0.2,0.1,0.3,0.3,0.3,0.5L15,14.2h1.4c0.2,0,0.4,0.2,0.4,0.4C16.8,14.8,16.6,15,16.4,15z"/>
		</g>
		<g>
			<path class="st5" d="M16.2,17.1c-0.1,0-0.3,0-0.4,0c-0.2,0-0.4-0.2-0.3-0.4c0-0.2,0.2-0.4,0.4-0.3l0,0c0.1,0,1.6,0.2,2.2-1.2
				c0.1-0.2,0.3-0.3,0.5-0.2c0.2,0.1,0.3,0.3,0.2,0.5C18.2,16.7,17,17.1,16.2,17.1z"/>
		</g>
		<g>
			<path class="st5" d="M16.1,37.4"/>
		</g>
		<g>
			<path class="st5" d="M16.4,37.4c-0.1,0-0.1,0-0.2,0c-0.2-0.1-0.3-0.3-0.2-0.4l3.2-15c0-0.1,0.1-0.2,0.2-0.2
				c0.1-0.1,0.2-0.1,0.3,0l6.4,1.6c2.3,0.6,4,2.4,4.4,4.7l0.1,0.8c0,0.2-0.1,0.4-0.3,0.5c-0.2,0-0.4-0.1-0.5-0.3L29.8,28
				c-0.4-2-1.9-3.6-3.9-4.1l-4.2-1l1.5,3.1c0.1,0.2,0,0.3-0.1,0.5l-3,2.6l1.2,1.3c0.1,0.1,0.1,0.3,0,0.5l-4.6,6.4
				C16.7,37.3,16.6,37.4,16.4,37.4z M19.9,22.4l-2.7,12.8l3.3-4.6l-1.2-1.4c-0.1-0.1-0.1-0.2-0.1-0.3c0-0.1,0.1-0.2,0.1-0.3l3.1-2.7
				l-1.6-3.4L19.9,22.4z"/>
		</g>
	</g>
</g>
</svg>
