<?xml version="1.0" encoding="utf-8"?>
<!-- Generator: Adobe Illustrator 26.0.2, SVG Export Plug-In . SVG Version: 6.00 Build 0)  -->
<svg version="1.1" xmlns="http://www.w3.org/2000/svg" xmlns:xlink="http://www.w3.org/1999/xlink" x="0px" y="0px"
	 viewBox="0 0 50 50" style="enable-background:new 0 0 50 50;" xml:space="preserve">
<style type="text/css">
	.st0{display:none;}
	.st1{display:inline;fill:#2A2968;}
	.st2{display:inline;fill:#FFFFFF;filter:url(#Adobe_OpacityMaskFilter);}
	.st3{display:inline;}
	
		.st4{display:inline;mask:url(#path-1-outside-1_306_352_00000111192157549669763950000007644740624413524867_);fill:none;stroke:#2A2968;stroke-width:0.4;}
	.st5{display:inline;fill:#FFDC55;stroke:#2A2968;stroke-width:0.2;}
	.st6{display:inline;fill:#2A2968;stroke:#2A2968;stroke-width:0.2;}
	.st7{fill:#FF5809;}
</style>
<g id="圖層_1" class="st0">
	<path class="st1" d="M5,9.1c0.1-0.4,0.2-0.7,0.4-1.1c0.5-0.9,1.3-1.3,2.2-1.4c0.2,0,0.3,0,0.5-0.1c0-0.3,0-0.5,0-0.8
		C8.2,5.4,8.5,5,8.9,5c0.7,0,1.4-0.1,2,0c1.2,0.2,2,1.2,2,2.4c-0.1,1.2-1,2.2-2.2,2.2c-0.5,0-1.1,0-1.6,0c-0.6,0-0.8-0.3-0.8-0.8
		c0-0.2,0-0.4,0-0.7C7.4,8,6.3,8.8,6.6,9.9c0.4,1.5,0.9,2.9,1.3,4.4c0,0.1,0.1,0.2,0.3,0.3c1.1,0.4,1.6,1.2,1.6,2.4
		c0,1.4,0,2.7,0,4.1c0,2.5,2,4.4,4.4,4.4c2.2,0,4.1-1.9,4.2-4.1c0-1.4,0-2.9,0-4.3c0-1.1,0.5-1.9,1.5-2.4c0.1,0,0.2-0.2,0.3-0.3
		c0.4-1.4,0.9-2.8,1.3-4.3c0.3-1-0.4-1.9-1.5-1.9c0,0.2,0,0.5,0,0.7c0,0.5-0.3,0.8-0.8,0.8c-0.5,0-1,0-1.5,0c-1.3,0-2.4-1-2.4-2.3
		c0-1.3,1-2.4,2.3-2.4c0.5,0,1,0,1.4,0c0.6,0,0.9,0.3,0.9,0.9c0,0.2,0,0.4,0,0.6c0.4,0.1,0.7,0.1,1.1,0.2c1.6,0.5,2.4,2.1,1.9,3.8
		c-0.4,1.3-0.8,2.6-1.2,3.9c0,0.1,0,0.1-0.1,0.2c0.7,0.4,1.1,0.9,1.3,1.6c0,0.2,0.1,0.4,0.1,0.6c0,1.4,0,2.8,0,4.2
		c0,4-2.5,7.4-6.3,8.6c-0.1,0-0.2,0.1-0.3,0.1c0,0.3,0,0.7,0,1c0,1-0.4,1.7-1.3,2.1c-0.2,0.1-0.3,0.2-0.2,0.5c0.3,4.1,2.2,7.2,5.9,9
		c6.2,3,13.4-0.8,14.7-7.6c0.1-0.7,0.1-1.4,0.2-2.1c0-1.3,0-2.7,0-4c0-0.2-0.1-0.4-0.3-0.5c-0.8-0.4-1.3-1.1-1.3-2.1
		c0-0.5,0-1,0-1.6c0-0.3-0.1-0.4-0.3-0.5c-3.1-1.1-5.1-3.3-5.8-6.5c-1.1-4.9,2.6-9.8,7.6-10.3c4.6-0.4,8.6,2.7,9.3,7.3
		c0.7,4.1-1.8,8.1-5.8,9.5c-0.3,0.1-0.4,0.2-0.4,0.6c0,0.6,0,1.2,0,1.8c-0.1,0.8-0.5,1.4-1.2,1.7c-0.3,0.1-0.3,0.3-0.3,0.5
		c0,1.7,0.1,3.5-0.1,5.2c-0.4,4.9-3,8.3-7.5,10.2c-1.1,0.5-2.3,0.7-3.5,0.8c-0.1,0-0.2,0-0.3,0.1c-0.4,0-0.9,0-1.3,0
		c-0.3,0-0.6-0.1-1-0.1c-5.8-0.8-10.1-5.7-10.3-11.5c0-0.2-0.1-0.3-0.3-0.4c-0.7-0.4-1.2-1-1.3-1.8c0-0.3,0-0.6,0-0.9
		c0-0.3-0.1-0.4-0.4-0.5c-3.5-1.1-6.1-4.3-6.3-8C5,20,5,18.3,5,16.7c0-0.5,0.2-0.9,0.4-1.3C5.7,15,6,14.8,6.3,14.5
		c-0.4-1.4-0.9-2.9-1.3-4.5C5,9.8,5,9.4,5,9.1z M43.4,16c0-3.9-3.2-7.1-7.1-7.1s-7.1,3.2-7.1,7.1c0,3.9,3.2,7.1,7.1,7.1
		C40.3,23,43.5,19.9,43.4,16z M21.6,19.3c0,0-0.1,0-0.1,0c0-0.8,0-1.6,0-2.5c0-0.5-0.4-0.8-0.9-0.8c-0.4,0-0.7,0.4-0.7,0.9
		c0,1.5,0,2.9,0,4.4c-0.1,3.6-3.6,6.3-7.1,5.5c-2.8-0.6-4.6-2.9-4.7-5.7c0-1.4,0-2.8,0-4.2c0-0.5-0.3-0.9-0.7-0.9
		c-0.5-0.1-0.9,0.3-0.9,0.9c0,1.4,0,2.8,0,4.3c0.1,3.6,2.4,6.4,5.9,7.2c0.5,0.1,0.7,0.4,0.8,0.9c0,0.5,0,1,0,1.5
		c0,0.5,0.3,0.9,0.8,0.9c0.5,0,0.8-0.3,0.8-0.9c0-0.5,0-0.9,0-1.4c0-0.7,0.2-0.9,0.8-1c2.9-0.7,4.8-2.5,5.6-5.4
		C21.5,21.7,21.5,20.5,21.6,19.3z M35.6,24.6c0,0.6,0,1.1,0,1.6c0,0.4,0.3,0.7,0.7,0.7c0.4,0,0.8-0.2,0.8-0.6c0-0.6,0-1.2,0-1.7
		C36.6,24.6,36.2,24.6,35.6,24.6z M18.4,6.6c-0.5,0-1.1-0.2-1.4,0.4c-0.2,0.3-0.2,0.6,0,0.8c0.4,0.5,0.9,0.3,1.4,0.3
		C18.4,7.6,18.4,7.1,18.4,6.6z M9.8,8.1c0.5,0,1.1,0.2,1.4-0.4c0.2-0.3,0.2-0.6-0.1-0.9c-0.4-0.5-0.9-0.3-1.4-0.3
		C9.8,7.1,9.8,7.6,9.8,8.1z"/>
	<defs>
		<filter id="Adobe_OpacityMaskFilter" filterUnits="userSpaceOnUse" x="4.8" y="4.8" width="40.4" height="40.4">
			<feColorMatrix  type="matrix" values="1 0 0 0 0  0 1 0 0 0  0 0 1 0 0  0 0 0 1 0"/>
		</filter>
	</defs>
	
		<mask maskUnits="userSpaceOnUse" x="4.8" y="4.8" width="40.4" height="40.4" id="path-1-outside-1_306_352_00000111192157549669763950000007644740624413524867_" class="st3">
		<rect x="4" y="4" style="fill:#FFFFFF;filter:url(#Adobe_OpacityMaskFilter);" width="42" height="42"/>
		<path d="M5,9.1c0.1-0.4,0.2-0.7,0.4-1.1c0.5-0.9,1.3-1.3,2.2-1.4c0.2,0,0.3,0,0.5-0.1c0-0.3,0-0.5,0-0.8C8.2,5.4,8.5,5,8.9,5
			c0.7,0,1.4-0.1,2,0c1.2,0.2,2,1.2,2,2.4c-0.1,1.2-1,2.2-2.2,2.2c-0.5,0-1.1,0-1.6,0c-0.6,0-0.8-0.3-0.8-0.8c0-0.2,0-0.4,0-0.7
			C7.4,8,6.3,8.8,6.6,9.9c0.4,1.5,0.9,2.9,1.3,4.4c0,0.1,0.1,0.2,0.3,0.3c1.1,0.4,1.6,1.2,1.6,2.4c0,1.4,0,2.7,0,4.1
			c0,2.5,2,4.4,4.4,4.4c2.2,0,4.1-1.9,4.2-4.1c0-1.4,0-2.9,0-4.3c0-1.1,0.5-1.9,1.5-2.4c0.1,0,0.2-0.2,0.3-0.3
			c0.4-1.4,0.9-2.8,1.3-4.3c0.3-1-0.4-1.9-1.5-1.9c0,0.2,0,0.5,0,0.7c0,0.5-0.3,0.8-0.8,0.8c-0.5,0-1,0-1.5,0c-1.3,0-2.4-1-2.4-2.3
			c0-1.3,1-2.4,2.3-2.4c0.5,0,1,0,1.4,0c0.6,0,0.9,0.3,0.9,0.9c0,0.2,0,0.4,0,0.6c0.4,0.1,0.7,0.1,1.1,0.2c1.6,0.5,2.4,2.1,1.9,3.8
			c-0.4,1.3-0.8,2.6-1.2,3.9c0,0.1,0,0.1-0.1,0.2c0.7,0.4,1.1,0.9,1.3,1.6c0,0.2,0.1,0.4,0.1,0.6c0,1.4,0,2.8,0,4.2
			c0,4-2.5,7.4-6.3,8.6c-0.1,0-0.2,0.1-0.3,0.1c0,0.3,0,0.7,0,1c0,1-0.4,1.7-1.3,2.1c-0.2,0.1-0.3,0.2-0.2,0.5
			c0.3,4.1,2.2,7.2,5.9,9c6.2,3,13.4-0.8,14.7-7.6c0.1-0.7,0.1-1.4,0.2-2.1c0-1.3,0-2.7,0-4c0-0.2-0.1-0.4-0.3-0.5
			c-0.8-0.4-1.3-1.1-1.3-2.1c0-0.5,0-1,0-1.6c0-0.3-0.1-0.4-0.3-0.5c-3.1-1.1-5.1-3.3-5.8-6.5c-1.1-4.9,2.6-9.8,7.6-10.3
			c4.6-0.4,8.6,2.7,9.3,7.3c0.7,4.1-1.8,8.1-5.8,9.5c-0.3,0.1-0.4,0.2-0.4,0.6c0,0.6,0,1.2,0,1.8c-0.1,0.8-0.5,1.4-1.2,1.7
			c-0.3,0.1-0.3,0.3-0.3,0.5c0,1.7,0.1,3.5-0.1,5.2c-0.4,4.9-3,8.3-7.5,10.2c-1.1,0.5-2.3,0.7-3.5,0.8c-0.1,0-0.2,0-0.3,0.1
			c-0.4,0-0.9,0-1.3,0c-0.3,0-0.6-0.1-1-0.1c-5.8-0.8-10.1-5.7-10.3-11.5c0-0.2-0.1-0.3-0.3-0.4c-0.7-0.4-1.2-1-1.3-1.8
			c0-0.3,0-0.6,0-0.9c0-0.3-0.1-0.4-0.4-0.5c-3.5-1.1-6.1-4.3-6.3-8C5,20,5,18.3,5,16.7c0-0.5,0.2-0.9,0.4-1.3
			C5.7,15,6,14.8,6.3,14.5c-0.4-1.4-0.9-2.9-1.3-4.5C5,9.8,5,9.4,5,9.1z M43.4,16c0-3.9-3.2-7.1-7.1-7.1s-7.1,3.2-7.1,7.1
			c0,3.9,3.2,7.1,7.1,7.1C40.3,23,43.5,19.9,43.4,16z M21.6,19.3c0,0-0.1,0-0.1,0c0-0.8,0-1.6,0-2.5c0-0.5-0.4-0.8-0.9-0.8
			c-0.4,0-0.7,0.4-0.7,0.9c0,1.5,0,2.9,0,4.4c-0.1,3.6-3.6,6.3-7.1,5.5c-2.8-0.6-4.6-2.9-4.7-5.7c0-1.4,0-2.8,0-4.2
			c0-0.5-0.3-0.9-0.7-0.9c-0.5-0.1-0.9,0.3-0.9,0.9c0,1.4,0,2.8,0,4.3c0.1,3.6,2.4,6.4,5.9,7.2c0.5,0.1,0.7,0.4,0.8,0.9
			c0,0.5,0,1,0,1.5c0,0.5,0.3,0.9,0.8,0.9c0.5,0,0.8-0.3,0.8-0.9c0-0.5,0-0.9,0-1.4c0-0.7,0.2-0.9,0.8-1c2.9-0.7,4.8-2.5,5.6-5.4
			C21.5,21.7,21.5,20.5,21.6,19.3z M35.6,24.6c0,0.6,0,1.1,0,1.6c0,0.4,0.3,0.7,0.7,0.7c0.4,0,0.8-0.2,0.8-0.6c0-0.6,0-1.2,0-1.7
			C36.6,24.6,36.2,24.6,35.6,24.6z M18.4,6.6c-0.5,0-1.1-0.2-1.4,0.4c-0.2,0.3-0.2,0.6,0,0.8c0.4,0.5,0.9,0.3,1.4,0.3
			C18.4,7.6,18.4,7.1,18.4,6.6z M9.8,8.1c0.5,0,1.1,0.2,1.4-0.4c0.2-0.3,0.2-0.6-0.1-0.9c-0.4-0.5-0.9-0.3-1.4-0.3
			C9.8,7.1,9.8,7.6,9.8,8.1z"/>
	</mask>
	<path class="st4" d="M5,9.1c0.1-0.4,0.2-0.7,0.4-1.1c0.5-0.9,1.3-1.3,2.2-1.4c0.2,0,0.3,0,0.5-0.1c0-0.3,0-0.5,0-0.8
		C8.2,5.4,8.5,5,8.9,5c0.7,0,1.4-0.1,2,0c1.2,0.2,2,1.2,2,2.4c-0.1,1.2-1,2.2-2.2,2.2c-0.5,0-1.1,0-1.6,0c-0.6,0-0.8-0.3-0.8-0.8
		c0-0.2,0-0.4,0-0.7C7.4,8,6.3,8.8,6.6,9.9c0.4,1.5,0.9,2.9,1.3,4.4c0,0.1,0.1,0.2,0.3,0.3c1.1,0.4,1.6,1.2,1.6,2.4
		c0,1.4,0,2.7,0,4.1c0,2.5,2,4.4,4.4,4.4c2.2,0,4.1-1.9,4.2-4.1c0-1.4,0-2.9,0-4.3c0-1.1,0.5-1.9,1.5-2.4c0.1,0,0.2-0.2,0.3-0.3
		c0.4-1.4,0.9-2.8,1.3-4.3c0.3-1-0.4-1.9-1.5-1.9c0,0.2,0,0.5,0,0.7c0,0.5-0.3,0.8-0.8,0.8c-0.5,0-1,0-1.5,0c-1.3,0-2.4-1-2.4-2.3
		c0-1.3,1-2.4,2.3-2.4c0.5,0,1,0,1.4,0c0.6,0,0.9,0.3,0.9,0.9c0,0.2,0,0.4,0,0.6c0.4,0.1,0.7,0.1,1.1,0.2c1.6,0.5,2.4,2.1,1.9,3.8
		c-0.4,1.3-0.8,2.6-1.2,3.9c0,0.1,0,0.1-0.1,0.2c0.7,0.4,1.1,0.9,1.3,1.6c0,0.2,0.1,0.4,0.1,0.6c0,1.4,0,2.8,0,4.2
		c0,4-2.5,7.4-6.3,8.6c-0.1,0-0.2,0.1-0.3,0.1c0,0.3,0,0.7,0,1c0,1-0.4,1.7-1.3,2.1c-0.2,0.1-0.3,0.2-0.2,0.5c0.3,4.1,2.2,7.2,5.9,9
		c6.2,3,13.4-0.8,14.7-7.6c0.1-0.7,0.1-1.4,0.2-2.1c0-1.3,0-2.7,0-4c0-0.2-0.1-0.4-0.3-0.5c-0.8-0.4-1.3-1.1-1.3-2.1
		c0-0.5,0-1,0-1.6c0-0.3-0.1-0.4-0.3-0.5c-3.1-1.1-5.1-3.3-5.8-6.5c-1.1-4.9,2.6-9.8,7.6-10.3c4.6-0.4,8.6,2.7,9.3,7.3
		c0.7,4.1-1.8,8.1-5.8,9.5c-0.3,0.1-0.4,0.2-0.4,0.6c0,0.6,0,1.2,0,1.8c-0.1,0.8-0.5,1.4-1.2,1.7c-0.3,0.1-0.3,0.3-0.3,0.5
		c0,1.7,0.1,3.5-0.1,5.2c-0.4,4.9-3,8.3-7.5,10.2c-1.1,0.5-2.3,0.7-3.5,0.8c-0.1,0-0.2,0-0.3,0.1c-0.4,0-0.9,0-1.3,0
		c-0.3,0-0.6-0.1-1-0.1c-5.8-0.8-10.1-5.7-10.3-11.5c0-0.2-0.1-0.3-0.3-0.4c-0.7-0.4-1.2-1-1.3-1.8c0-0.3,0-0.6,0-0.9
		c0-0.3-0.1-0.4-0.4-0.5c-3.5-1.1-6.1-4.3-6.3-8C5,20,5,18.3,5,16.7c0-0.5,0.2-0.9,0.4-1.3C5.7,15,6,14.8,6.3,14.5
		c-0.4-1.4-0.9-2.9-1.3-4.5C5,9.8,5,9.4,5,9.1z M43.4,16c0-3.9-3.2-7.1-7.1-7.1s-7.1,3.2-7.1,7.1c0,3.9,3.2,7.1,7.1,7.1
		C40.3,23,43.5,19.9,43.4,16z M21.6,19.3c0,0-0.1,0-0.1,0c0-0.8,0-1.6,0-2.5c0-0.5-0.4-0.8-0.9-0.8c-0.4,0-0.7,0.4-0.7,0.9
		c0,1.5,0,2.9,0,4.4c-0.1,3.6-3.6,6.3-7.1,5.5c-2.8-0.6-4.6-2.9-4.7-5.7c0-1.4,0-2.8,0-4.2c0-0.5-0.3-0.9-0.7-0.9
		c-0.5-0.1-0.9,0.3-0.9,0.9c0,1.4,0,2.8,0,4.3c0.1,3.6,2.4,6.4,5.9,7.2c0.5,0.1,0.7,0.4,0.8,0.9c0,0.5,0,1,0,1.5
		c0,0.5,0.3,0.9,0.8,0.9c0.5,0,0.8-0.3,0.8-0.9c0-0.5,0-0.9,0-1.4c0-0.7,0.2-0.9,0.8-1c2.9-0.7,4.8-2.5,5.6-5.4
		C21.5,21.7,21.5,20.5,21.6,19.3z M35.6,24.6c0,0.6,0,1.1,0,1.6c0,0.4,0.3,0.7,0.7,0.7c0.4,0,0.8-0.2,0.8-0.6c0-0.6,0-1.2,0-1.7
		C36.6,24.6,36.2,24.6,35.6,24.6z M18.4,6.6c-0.5,0-1.1-0.2-1.4,0.4c-0.2,0.3-0.2,0.6,0,0.8c0.4,0.5,0.9,0.3,1.4,0.3
		C18.4,7.6,18.4,7.1,18.4,6.6z M9.8,8.1c0.5,0,1.1,0.2,1.4-0.4c0.2-0.3,0.2-0.6-0.1-0.9c-0.4-0.5-0.9-0.3-1.4-0.3
		C9.8,7.1,9.8,7.6,9.8,8.1z"/>
	<path class="st5" d="M40.9,13.5L40.9,13.5C40.9,13.5,40.9,13.5,40.9,13.5c0-0.1,0-0.2,0-0.3L40.9,13.5z M40.9,13.5L40.9,13.5
		 M40.9,13.5L40.9,13.5 M40.9,13.6v0.1h0 M40.9,13.6l0,0.1 M40.9,13.7C40.9,13.8,40.9,13.8,40.9,13.7c0,0.1,0,0.1,0,0.2
		c0,0.1,0,0.2,0,0.2l0,0l0,0c0,0.4-0.3,0.6-0.6,0.6l0,0c-0.3,0-0.6-0.2-0.7-0.5l0,0c0-0.4,0-0.7,0-1.1L40.9,13.7z M40.3,14.8
		c-0.4,0-0.7-0.2-0.8-0.6L40.3,14.8z M40.3,14.8c0.4,0,0.7-0.3,0.7-0.7L40.3,14.8z M29.2,16L29.2,16c0,3.9,3.2,7.2,7.2,7.2h0
		c3.9,0,7.2-3.2,7.2-7.2s-3.2-7.2-7.2-7.2C32.4,8.8,29.2,12,29.2,16z M36.5,21L36.5,21L36.5,21c-0.3,0-0.5,0-0.8,0
		c-0.4,0-0.8,0-1.2,0c-1-0.1-1.7-0.9-1.9-1.8l0,0c-0.2-1,0.3-2,1.2-2.4c0.2-0.1,0.4-0.3,0.5-0.5c0.2-0.4,0.5-0.7,0.8-1
		c0.3-0.2,0.7-0.3,1.2-0.3c0.5,0,0.9,0.1,1.2,0.3c0.3,0.2,0.6,0.5,0.8,1l0,0c0.1,0.2,0.2,0.4,0.4,0.4c1,0.5,1.5,1.5,1.3,2.5l0,0
		c-0.2,1-1.1,1.8-2.2,1.8c-0.4,0-0.7,0-1.1,0C36.8,21,36.6,21,36.5,21z M31.8,13.1L31.8,13.1L31.8,13.1c0-0.3,0.3-0.6,0.7-0.6
		c0.4,0,0.6,0.3,0.7,0.6c0,0.1,0,0.2,0,0.3c0,0.1,0,0.1,0,0.2c0,0,0,0.1,0,0.1c0,0.1,0,0.2,0,0.3h0l0,0c0,0.4-0.3,0.6-0.6,0.6v0l0,0
		c-0.3,0-0.7-0.2-0.7-0.6l0,0l0,0C31.8,13.8,31.8,13.5,31.8,13.1z M36.3,13.1L36.3,13.1c-0.3,0-0.6-0.3-0.6-0.6c0-0.1,0-0.2,0-0.3
		c0-0.1,0-0.1,0-0.2c0-0.1,0-0.1,0-0.2c0-0.1,0-0.2,0-0.3h0l0,0c0-0.3,0.3-0.6,0.6-0.6l0,0c0.3,0,0.6,0.2,0.7,0.5v0
		c0,0.4,0.1,0.8,0,1.1C37,13,36.7,13.1,36.3,13.1z"/>
	<path class="st5" d="M21.6,19.2L21.6,19.2l0.1,0.1c0,0.4-0.1,0.7-0.1,1.1c0,0.2,0,0.5,0,0.7c0,0.6-0.1,1.2-0.3,1.8
		c-0.7,2.9-2.7,4.8-5.6,5.5c-0.3,0.1-0.5,0.2-0.6,0.3C15,28.9,15,29.1,15,29.4v0v0v0v0v0v0v0v0v0v0v0v0v0v0v0v0v0v0v0v0v0v0v0v0v0v0
		v0v0v0v0v0v0v0v0v0v0v0v0v0v0v0v0v0v0v0v0v0v0v0v0v0v0v0v0v0v0v0v0v0v0v0v0v0v0v0v0v0v0v0v0v0v0v0v0v0v0v0v0v0v0v0v0v0v0v0v0v0v0v0
		v0v0v0v0v0v0v0v0v0v0v0v0v0v0v0v0v0v0v0v0v0v0v0v0v0v0v0v0v0v0v0v0v0v0v0v0v0v0v0v0v0v0v0v0v0v0v0v0v0v0v0v0v0v0v0v0v0v0v0v0v0v0v0
		v0v0v0v0v0v0v0v0v0v0v0v0v0v0v0v0v0v0v0v0v0v0v0v0v0v0v0v0v0v0v0v0v0v0v0v0v0v0v0v0v0v0v0v0v0v0v0v0v0v0v0v0v0v0v0v0v0v0v0v0v0v0v0
		v0v0v0v0v0v0v0v0v0v0v0v0v0v0v0v0v0v0v0v0v0v0v0v0v0v0v0v0v0v0v0v0v0v0v0v0v0v0v0v0v0v0v0v0v0v0v0v0v0v0v0v0v0v0v0v0v0v0v0v0v0v0v0
		v0v0v0v0v0v0v0v0v0v0v0v0v0v0v0v0v0v0v0v0v0v0v0v0v0v0v0v0v0v0v0v0v0v0v0v0v0v0v0v0v0v0v0v0v0v0v0v0v0v0v0v0v0v0v0v0v0v0v0v0v0v0v0
		v0v0v0v0v0v0v0v0v0v0v0v0v0v0v0v0v0v0v0v0v0v0v0v0v0v0v0v0v0v0v0v0v0v0v0v0v0v0v0v0v0v0v0v0v0v0v0v0v0v0v0v0v0v0v0v0v0v0v0v0v0v0v0
		v0v0v0v0v0v0v0v0v0v0v0v0v0v0v0v0v0v0v0v0v0v0v0v0v0v0v0v0v0v0v0v0v0v0v0v0v0v0v0v0v0v0v0v0v0v0v0v0v0v0v0v0v0v0v0v0v0v0v0v0v0v0v0
		v0v0v0v0v0v0v0v0v0v0v0v0v0v0v0v0v0v0v0v0v0v0v0v0v0v0v0v0v0v0v0v0v0v0v0v0v0v0v0v0v0v0v0v0v0v0h0c0,0.3-0.1,0.5-0.2,0.7
		c-0.2,0.2-0.4,0.3-0.6,0.3c-0.3,0-0.5-0.1-0.6-0.3c-0.2-0.2-0.2-0.4-0.2-0.7 M21.6,19.2l-15,2l-0.1,0c0,0,0,0,0,0
		c0.1,3.6,2.4,6.5,6,7.3l0,0c0.3,0.1,0.4,0.1,0.5,0.3c0.1,0.1,0.2,0.3,0.2,0.6c0,0.2,0,0.3,0,0.5c0,0.3,0,0.7,0,1 M21.6,19.2
		C21.6,19.2,21.6,19.2,21.6,19.2 M21.6,19.2L21.6,19.2 M13.2,30.8L13.2,30.8L13.2,30.8L13.2,30.8L13.2,30.8z M21.6,19.2
		c0-0.2,0-0.5,0-0.7c0-0.5,0-1.1,0-1.6c0-0.3-0.1-0.5-0.3-0.7c-0.2-0.2-0.4-0.2-0.7-0.2l0,0l0,0c-0.2,0-0.4,0.1-0.6,0.3
		c-0.1,0.2-0.2,0.4-0.2,0.7 M19.8,16.9C19.8,16.9,19.8,16.9,19.8,16.9l0.1,0L19.8,16.9C19.8,16.9,19.8,16.9,19.8,16.9z"/>
	<path class="st5" d="M35.6,24.5h-0.1v0.1c0,0.2,0,0.4,0,0.5c0,0.4,0,0.7,0,1.1h0l0,0c0,0.5,0.4,0.8,0.8,0.8c0.4,0,0.9-0.2,0.9-0.7
		v0c0-0.4,0-0.8,0-1.2c0-0.2,0-0.3,0-0.5v-0.1h-0.1h0h0h0h0h0h0h0h0h0h0h0h0h0h0h0h0h0h0h0h0h0h0h0h0h0h0h0h0h0h0h0h0h0h0h0h0h0h0h0
		h0h0h0h0h0h0h0h0h0h0h0h0h0h0h0h0h0h0h0h0h0h0h0h0h0h0h0h0h0h0h0h0h0h0h0h0h0h0h0h0h0h0h0h0h0h0h0h0h0h0h0h0h0h0h0h0h0h0h0h0h0h0h0
		h0h0h0h0h0h0h0h0h0h0h0h0h0h0h0h0h0h0h0h0h0h0h0h0h0h0h0h0h0h0h0h0h0h0h0h0h0h0h0h0h0h0h0h0h0h0h0h0h0h0h0h0h0h0h0h0h0h0h0h0h0h0h0
		h0h0h0h0h0h0h0h0h0h0h0h0h0h0h0h0h0h0h0h0h0h0h0h0h0h0h0h0h0h0h0h0h0h0h0h0h0h0h0h0h0h0h0h0h0h0h0h0h0h0h0h0h0h0h0h0h0h0h0h0h0h0h0
		h0h0h0h0h0h0h0h0h0h0h0h0h0h0h0h0h0h0h0h0h0h0h0h0h0h0h0h0h0h0h0h0h0h0h0h0h0h0h0h0h0h0h0h0h0h0h0h0h0h0h0h0h0h0h0h0h0h0h0h0h0h0h0
		h0h0h0h0h0h0h0h0h0h0h0h0h0h0h0h0h0h0h0h0h0h0h0h0h0h0h0h0h0h0h0h0h0h0h0h0h0h0h0h0h0h0h0h0h0h0h0h0h0h0h0h0h0h0h0h0h0h0h0h0h0h0h0
		h0h0h0h0h0h0h0h0h0h0h0h0h0h0h0h0h0h0h0h0h0h0h0h0h0h0h0h0h0h0h0h0h0h0h0h0h0h0h0h0h0h0h0h0h0h0h0h0h0h0h0h0h0h0h0h0h0h0h0h0h0h0h0
		h0h0h0h0h0h0h0h0h0h0h0h0h0h0h0h0h0h0h0h0h0h0h0h0h0h0h0h0h0h0h0h0h0h0h0h0h0h0h0h0h0h0h0h0h0h0h0h0h0h0h0h0h0h0h0h0h0h0h0h0h0h0
		H35.6L35.6,24.5L35.6,24.5L35.6,24.5L35.6,24.5L35.6,24.5L35.6,24.5L35.6,24.5L35.6,24.5L35.6,24.5L35.6,24.5L35.6,24.5L35.6,24.5
		L35.6,24.5L35.6,24.5L35.6,24.5L35.6,24.5L35.6,24.5L35.6,24.5L35.6,24.5L35.6,24.5L35.6,24.5L35.6,24.5L35.6,24.5L35.6,24.5
		L35.6,24.5L35.6,24.5L35.6,24.5L35.6,24.5L35.6,24.5L35.6,24.5L35.6,24.5L35.6,24.5z"/>
	<path class="st5" d="M18.5,6.6V6.5l-0.1,0c-0.1,0-0.2,0-0.4,0c0,0,0,0,0,0c-0.1,0-0.3,0-0.4,0c-0.1,0-0.3,0-0.4,0.1
		c-0.1,0.1-0.2,0.2-0.3,0.3c-0.2,0.3-0.2,0.7,0,1v0l0,0c0.2,0.3,0.5,0.4,0.7,0.4c0.1,0,0.2,0,0.4,0c0,0,0,0,0,0c0.1,0,0.2,0,0.4,0
		l0.1,0V8.1v0v0v0v0v0v0v0v0v0v0v0v0v0v0v0v0v0v0v0v0v0v0v0v0v0v0v0v0v0v0v0v0v0v0v0v0v0v0v0v0v0v0v0v0v0v0v0v0v0v0v0v0v0v0v0v0v0v0
		v0v0v0v0v0v0v0v0v0v0v0v0v0v0v0v0v0v0v0v0v0v0v0v0v0v0v0v0v0v0v0v0v0v0v0v0v0v0v0v0v0v0v0v0v0v0v0v0v0v0v0v0v0v0v0v0v0v0v0v0v0v0v0
		v0v0v0v0v0v0v0v0v0v0v0v0v0v0v0v0v0v0v0v0v0v0v0v0v0v0v0v0v0v0v0v0v0v0v0v0v0v0v0v0v0v0v0v0v0v0v0v0v0v0v0v0v0v0v0v0v0v0v0v0v0v0v0
		v0v0v0v0v0v0v0v0v0v0v0v0v0v0v0v0v0v0v0v0v0v0v0v0v0v0v0v0v0v0v0v0v0v0v0v0v0v0v0v0v0v0v0v0v0v0v0v0v0v0v0v0v0v0v0v0v0v0v0v0v0v0v0
		v0v0v0v0v0v0v0v0v0v0v0v0v0v0v0v0v0v0v0v0v0v0v0v0v0v0v0v0v0v0v0v0v0v0v0v0v0v0v0v0v0v0v0v0v0v0v0v0v0v0v0v0v0v0v0v0v0v0v0v0v0v0v0
		v0v0v0v0v0v0v0v0v0v0v0v0v0v0v0v0v0v0v0v0v0v0v0v0v0v0v0v0v0v0v0v0v0v0v0v0v0v0v0v0v0v0v0v0v0v0v0v0v0v0v0v0v0v0v0v0v0v0v0v0v0v0v0
		v0v0v0v0v0v0v0v0v0v0v0v0v0v0v0v0v0v0v0v0v0v0v0v0v0v0v0v0v0v0v0v0v0v0v0v0v0v0v0v0v0v0v0v0v0v0v0v0v0v0v0v0v0v0v0v0v0v0v0v0v0v0v0
		v0v0v0v0v0v0v0v0v0v0v0v0v0v0v0v0v0v0v0v0v0v0v0v0v0v0v0v0v0v0v0v0v0v0v0v0v0v0v0v0v0v0v0v0V6.6L18.5,6.6L18.5,6.6L18.5,6.6
		L18.5,6.6L18.5,6.6L18.5,6.6L18.5,6.6L18.5,6.6L18.5,6.6L18.5,6.6L18.5,6.6L18.5,6.6L18.5,6.6L18.5,6.6L18.5,6.6L18.5,6.6L18.5,6.6
		L18.5,6.6L18.5,6.6L18.5,6.6L18.5,6.6L18.5,6.6L18.5,6.6L18.5,6.6L18.5,6.6L18.5,6.6L18.5,6.6L18.5,6.6L18.5,6.6L18.5,6.6L18.5,6.6
		z"/>
	<path class="st5" d="M9.7,8.1v0.1l0.1,0c0.1,0,0.3,0,0.4,0l0,0c0.1,0,0.3,0,0.4,0c0.1,0,0.3,0,0.4-0.1c0.1-0.1,0.2-0.2,0.3-0.3
		c0.2-0.3,0.2-0.7-0.1-1l0,0l0,0c-0.2-0.3-0.5-0.3-0.7-0.3c-0.1,0-0.3,0-0.4,0c0,0,0,0,0,0c-0.1,0-0.2,0-0.3,0l-0.1,0v0.1v0v0v0v0v0
		v0v0v0v0v0v0v0v0v0v0v0v0v0v0v0v0v0v0v0v0v0v0v0v0v0v0v0v0v0v0v0v0v0v0v0v0v0v0v0v0v0v0v0v0v0v0v0v0v0v0v0v0v0v0v0v0v0v0v0v0v0v0v0
		v0v0v0v0v0v0v0v0v0v0v0v0v0v0v0v0v0v0v0v0v0v0v0v0v0v0v0v0v0v0v0v0v0v0v0v0v0v0v0v0v0v0v0v0v0v0v0v0v0v0v0v0v0v0v0v0v0v0v0v0v0v0v0
		v0v0v0v0v0v0v0v0v0v0v0v0v0v0v0v0v0v0v0v0v0v0v0v0v0v0v0v0v0v0v0v0v0v0v0v0v0v0v0v0v0v0v0v0v0v0v0v0v0v0v0v0v0v0v0v0v0v0v0v0v0v0v0
		v0v0v0v0v0v0v0v0v0v0v0v0v0v0v0v0v0v0v0v0v0v0v0v0v0v0v0v0v0v0v0v0v0v0v0v0v0v0v0v0v0v0v0v0v0v0v0v0v0v0v0v0v0v0v0v0v0v0v0v0v0v0v0
		v0v0v0v0v0v0v0v0v0v0v0v0v0v0v0v0v0v0v0v0v0v0v0v0v0v0v0v0v0v0v0v0v0v0v0v0v0v0v0v0v0v0v0v0v0v0v0v0v0v0v0v0v0v0v0v0v0v0v0v0v0v0v0
		v0v0v0v0v0v0v0v0v0v0v0v0v0v0v0v0v0v0v0v0v0v0v0v0v0v0v0v0v0v0v0v0v0v0v0v0v0v0v0v0v0v0v0v0v0v0v0v0v0v0v0v0v0v0v0v0v0v0v0v0v0v0v0
		v0v0v0v0v0v0v0v0v0v0v0v0v0v0v0v0v0v0v0v0v0v0v0v0v0v0v0v0v0v0v0v0v0v0v0v0v0v0v0v0v0v0v0v0v0v0v0v0v0v0v0v0v0v0v0v0v0v0v0v0v0v0v0
		v0v0v0v0v0v0v0v0v0v0v0v0v0v0v0v0v0v0v0v0v0v0v0v0v0v0v0v0v0v0v0v0v0v0V8.1L9.7,8.1L9.7,8.1L9.7,8.1L9.7,8.1L9.7,8.1L9.7,8.1
		L9.7,8.1L9.7,8.1L9.7,8.1L9.7,8.1L9.7,8.1L9.7,8.1L9.7,8.1L9.7,8.1L9.7,8.1L9.7,8.1L9.7,8.1L9.7,8.1L9.7,8.1L9.7,8.1L9.7,8.1
		L9.7,8.1L9.7,8.1L9.7,8.1L9.7,8.1L9.7,8.1L9.7,8.1L9.7,8.1L9.7,8.1L9.7,8.1L9.7,8.1z"/>
	<path class="st6" d="M38,21.2c1.2-0.1,2.1-0.8,2.4-2v0c0.2-1.1-0.3-2.2-1.4-2.7c-0.1-0.1-0.2-0.2-0.3-0.4c-0.2-0.4-0.5-0.8-0.9-1
		c-0.4-0.2-0.8-0.4-1.3-0.4c-1,0-1.8,0.5-2.2,1.4c-0.1,0.2-0.2,0.3-0.4,0.4l0,0l0,0c-1,0.5-1.5,1.5-1.3,2.6c0.2,1,1,1.9,2.1,2
		c0.4,0.1,0.9,0,1.3,0c0.2,0,0.4,0,0.6,0v0c0.2,0,0.4,0,0.5,0C37.3,21.2,37.6,21.2,38,21.2z M38,21.2C38,21.2,38,21.2,38,21.2
		L38,21.2L38,21.2L38,21.2z M37.9,19.4L37.9,19.4c-0.3,0-0.7,0-1,0c-0.2,0-0.3,0-0.5,0c-0.2,0-0.5,0-0.7,0l0,0c-0.2,0-0.5,0-0.7,0
		c-0.2,0-0.4-0.1-0.5-0.2c-0.1-0.1-0.2-0.3-0.2-0.5c0-0.2,0-0.4,0.1-0.5c0.1-0.1,0.3-0.2,0.5-0.3c0.3,0,0.5-0.1,0.6-0.3
		c0.1-0.1,0.2-0.3,0.3-0.6c0-0.2,0.1-0.4,0.2-0.5c0.1-0.1,0.3-0.2,0.4-0.2c0.2,0,0.3,0.1,0.5,0.2c0.1,0.1,0.2,0.3,0.2,0.5l0,0
		c0,0.3,0.1,0.5,0.3,0.6c0.1,0.1,0.3,0.2,0.6,0.3l0,0l0,0c0.2,0,0.4,0.1,0.5,0.2c0.1,0.1,0.2,0.3,0.2,0.5h0l0,0
		C38.6,19.1,38.3,19.4,37.9,19.4z"/>
	<path class="st6" d="M33.4,14.1L33.4,14.1L33.4,14.1c0-0.1,0-0.2,0-0.3c0-0.1,0-0.1,0-0.1c0-0.1,0-0.2,0-0.2l0,0c0-0.1,0-0.2,0-0.2
		h0l0,0c0-0.5-0.4-0.8-0.9-0.8c-0.4,0-0.8,0.3-0.9,0.8l0,0l0,0c0,0.3,0,0.7,0,1l0,0l0,0c0,0.5,0.5,0.8,0.9,0.8h0
		C33,14.9,33.4,14.6,33.4,14.1z"/>
	<path class="st6" d="M40.3,14.9c0.4,0,0.8-0.4,0.8-0.8l0,0l0,0c0-0.1,0-0.2,0-0.4c0-0.1,0-0.1,0-0.2l0,0c0-0.1,0-0.3,0-0.4
		c0-0.5-0.4-0.8-0.8-0.8c-0.4,0-0.9,0.3-0.9,0.7h0l0,0c0,0.4,0,0.8,0,1.1C39.5,14.7,39.9,15,40.3,14.9z M40.3,14.9L40.3,14.9
		L40.3,14.9L40.3,14.9L40.3,14.9z"/>
	<path class="st6" d="M35.5,11.6L35.5,11.6L35.5,11.6c0,0.1,0,0.2,0,0.3c0,0,0,0.1,0,0.1c0,0,0,0.1,0,0.1c0,0.1,0,0.2,0,0.3
		c0,0.4,0.3,0.8,0.8,0.8h0c0.4,0,0.8-0.2,0.9-0.7h0l0,0c0-0.4,0-0.8,0-1.2c-0.1-0.5-0.5-0.7-0.9-0.7C35.9,10.8,35.6,11.1,35.5,11.6z
		"/>
	<path class="st5" d="M35.5,17.1L35.5,17.1c0-0.3,0.1-0.5,0.3-0.6c0.2-0.1,0.4-0.2,0.6-0.2c0.2,0,0.4,0.1,0.6,0.2
		c0.2,0.1,0.3,0.4,0.3,0.6c0,0.3,0.1,0.4,0.2,0.5c0.1,0.1,0.2,0.2,0.5,0.2c0.3,0,0.5,0.1,0.6,0.3c0.2,0.2,0.2,0.4,0.2,0.6
		c0,0,0,0,0,0l-0.1,0c0,0.4-0.4,0.7-0.9,0.8L35.5,17.1z M35.5,17.1L35.5,17.1 M35.5,17.1L35.5,17.1 M35.5,17.1
		c0,0.3-0.1,0.4-0.2,0.5c-0.1,0.1-0.3,0.2-0.5,0.2c-0.3,0.1-0.5,0.2-0.6,0.3c-0.1,0.2-0.2,0.4-0.2,0.6c0,0.2,0.1,0.4,0.3,0.6
		c0.2,0.1,0.4,0.2,0.7,0.2L35.5,17.1z M36.8,19.6c0.4,0,0.7,0,1.1,0l-2,0c0.2,0,0.3,0,0.5,0C36.5,19.6,36.6,19.6,36.8,19.6z"/>
</g>
<g id="圖層_2">
	<g id="XMLID_6533_">
		<path id="XMLID_6537_" class="st7" d="M36.8,11V8.8c0-3-2.8-5.5-6.3-5.5h-11c-3.5,0-6.3,2.5-6.3,5.5V11H6.4c-3,0-5.4,2.4-5.4,5.4
			v24.9c0,3,2.4,5.4,5.4,5.4h37.3c3,0,5.4-2.4,5.4-5.4V16.4c0-3-2.4-5.4-5.4-5.4H36.8z M46.8,41.3c0,1.8-1.4,3.2-3.2,3.2H6.4
			c-1.8,0-3.2-1.4-3.2-3.2V16.4c0-1.8,1.4-3.2,3.2-3.2h37.3c1.8,0,3.2,1.4,3.2,3.2V41.3z M19.5,5.5h11c2.3,0,4.1,1.5,4.1,3.3V11
			h-3.3V10c0-1.8-1.6-3.2-3.6-3.2h-5.3c-2,0-3.6,1.5-3.6,3.2V11h-3.3V8.8C15.4,7,17.3,5.5,19.5,5.5z M29.1,11h-8.2V10
			c0-0.5,0.6-1,1.4-1h5.3c0.8,0,1.4,0.5,1.4,1V11z"/>
		<path id="XMLID_6534_" class="st7" d="M33.9,25.3H29v-4.9c0-0.4-0.3-0.7-0.7-0.7h-5.7c-0.4,0-0.7,0.3-0.7,0.7v4.9H17
			c-0.4,0-0.7,0.3-0.7,0.7v5.7c0,0.4,0.3,0.7,0.7,0.7h4.9v4.9c0,0.4,0.3,0.7,0.7,0.7h5.7c0.4,0,0.7-0.3,0.7-0.7v-4.9h4.9
			c0.4,0,0.7-0.3,0.7-0.7V26C34.6,25.6,34.3,25.3,33.9,25.3z M33.2,31h-4.9c-0.4,0-0.7,0.3-0.7,0.7v4.9h-4.4v-4.9
			c0-0.4-0.3-0.7-0.7-0.7h-4.9v-4.4h4.9c0.4,0,0.7-0.3,0.7-0.7v-4.9h4.4V26c0,0.4,0.3,0.7,0.7,0.7h4.9V31z"/>
	</g>
</g>
</svg>
