<svg xmlns="http://www.w3.org/2000/svg" width="27.418" height="27.27" viewBox="0 0 27.418 27.27">
  <g id="FLuKyw.tif" transform="translate(0.306 0.25)">
    <path id="Path_721" data-name="Path 721" d="M-567.073,5.662l-10.87,11.407s-4.659.73-5.813,2.645,1.106,5.459,1.106,5.459,3.424,1.3,5.3-.3,2.373-5.732,2.373-5.732l10.547-10.2,4.089-.659,1.721-3.171-.336-.941-3.156,1.906-1.9-.688-.414-2.13,1.872-2.58s-2.987-.115-4.295,1.489A3.237,3.237,0,0,0-567.073,5.662Z" transform="translate(584.948 0.207)" fill="#ffdc55"/>
    <path id="Path_711" data-name="Path 711" d="M-557.9,24.2a2.863,2.863,0,0,1-.91,1.34c-.337.317-.654.657-.986.979a1.764,1.764,0,0,1-2.683-.076q-4.905-5.3-9.809-10.609c-.058-.063-.118-.124-.187-.2-.082.077-.152.14-.219.207l-2.8,2.8a1.171,1.171,0,0,1-.193.176.361.361,0,0,1-.5-.064.359.359,0,0,1-.03-.48,1.43,1.43,0,0,1,.177-.192q1.409-1.409,2.82-2.817a1.826,1.826,0,0,1,.244-.174l-4.333-4.686a1.086,1.086,0,0,1-1.557-.051l-.533.544a4.759,4.759,0,0,1,.278.783.906.906,0,0,1-.281.788c-.286.3-.573.59-.871.872a1.033,1.033,0,0,1-1.486,0q-1.356-1.332-2.689-2.689a1.034,1.034,0,0,1,0-1.485c.221-.236.455-.459.684-.688a1.119,1.119,0,0,1,1.635-.225l.572-.594c-.019-.032-.05-.082-.079-.133a1.043,1.043,0,0,1,.153-1.324c1.233-1.24,2.462-2.483,3.715-3.7A5.931,5.931,0,0,1-574.764.834a4.294,4.294,0,0,1,3.67.974.6.6,0,0,1,.218.659.682.682,0,0,1-.556.492,9.19,9.19,0,0,0-1.476.428,1.685,1.685,0,0,0-1.064,2.145,2.4,2.4,0,0,1-.619,2.156l4.683,4.331a3.8,3.8,0,0,1,.265-.334q1.489-1.5,2.984-2.987a1.2,1.2,0,0,1,.194-.175.362.362,0,0,1,.48.042.366.366,0,0,1,.05.5,1.211,1.211,0,0,1-.177.192l-3.04,3.042c-.067.067-.13.137-.211.221l1.932,1.789Q-563,18.4-558.572,22.5a2.267,2.267,0,0,1,.669,1.128Zm-7.2-6.673-2.36,2.363a.409.409,0,0,0,.035.045q2.785,3.012,5.571,6.023a.971.971,0,0,0,1.482.032c.439-.426.868-.862,1.3-1.3a1,1,0,0,0-.034-1.628q-2.5-2.316-5-4.628C-564.451,18.13-564.784,17.824-565.107,17.527ZM-571.882,2.2a3.49,3.49,0,0,0-2.526-.629A4.972,4.972,0,0,0-577.19,3.03c-1.236,1.2-2.443,2.424-3.662,3.639-.234.234-.231.348.011.59q1.241,1.243,2.483,2.484c.245.244.333.243.582-.006.841-.84,1.674-1.687,2.523-2.518a1.714,1.714,0,0,0,.5-1.644,3.333,3.333,0,0,1,.008-1.239,2.455,2.455,0,0,1,1.605-1.7C-572.742,2.461-572.321,2.346-571.882,2.2Zm4.925,13.618-8.171-7.553-1.61,1.61,7.552,8.168Zm-12.91-4.068a1.4,1.4,0,0,0-.157-.247q-1.291-1.3-2.589-2.593a.3.3,0,0,0-.477,0q-.377.381-.759.759a.3.3,0,0,0,.009.5q1.289,1.284,2.573,2.572a.305.305,0,0,0,.5,0c.245-.248.5-.491.738-.743A1.709,1.709,0,0,0-579.867,11.745Zm13.552,4.661-2.281,2.268.534.578,2.318-2.315Zm-15.21-7.592L-580,10.34l.532-.531-1.519-1.521Z" transform="translate(584.765 -0.544)" fill="#2a2968" stroke="#2a2968" stroke-width="0.5"/>
    <path id="Path_712" data-name="Path 712" d="M-523.292-.02c.082.025.163.052.246.074a1.111,1.111,0,0,1,.567,1.849c-.119.139-.255.264-.384.394-.432.433-.867.864-1.3,1.3a1.107,1.107,0,0,0-.024,1.235c.338.354.686.7,1.039,1.037a1,1,0,0,0,1.139-.055c.541-.534,1.061-1.091,1.622-1.6a1.576,1.576,0,0,1,.747-.384,1.025,1.025,0,0,1,1.217.876,2.134,2.134,0,0,1-.241,1.568c-.344.588-.689,1.176-1.053,1.751a2.924,2.924,0,0,1-3.146,1.329,2.286,2.286,0,0,0-2.264.687c-.669.69-1.357,1.362-2.037,2.042-.056.055-.109.114-.169.165a.386.386,0,0,1-.544.006.38.38,0,0,1,0-.562c.227-.242.468-.472.7-.707.532-.532,1.059-1.067,1.6-1.594a2.923,2.923,0,0,1,2.765-.82,2.208,2.208,0,0,0,2.533-1.119c.307-.508.614-1.017.917-1.528a1.314,1.314,0,0,0,.171-1.031c-.082-.32-.321-.4-.584-.193a1.918,1.918,0,0,0-.151.145c-.507.507-1.011,1.016-1.521,1.52a1.71,1.71,0,0,1-2.324-.006c-.316-.314-.627-.634-.947-.944a1.269,1.269,0,0,1-.4-.96c0-.148,0-.3-.007-.446a1.239,1.239,0,0,1,.387-.94c.517-.509,1.028-1.025,1.54-1.538a1.129,1.129,0,0,0,.171-.2.316.316,0,0,0-.213-.514,1.274,1.274,0,0,0-1.01.143c-.594.35-1.2.688-1.77,1.072a2.023,2.023,0,0,0-.944,2.195,3.229,3.229,0,0,1-1.017,3.2c-.711.672-1.389,1.38-2.081,2.072-.031.031-.061.063-.093.093a.407.407,0,0,1-.6.03.4.4,0,0,1,.051-.582c.751-.756,1.5-1.518,2.263-2.261a2.346,2.346,0,0,0,.716-2.331,2.915,2.915,0,0,1,1.339-3.117c.576-.364,1.16-.716,1.753-1.049a5.772,5.772,0,0,1,.771-.3Z" transform="translate(545.171 0.02)" fill="#2a2968" stroke="#2a2968" stroke-width="0.5"/>
    <path id="Path_713" data-name="Path 713" d="M-584.607,60.731a4.716,4.716,0,0,1,3.993-4.609c.544-.081,1.089-.153,1.63-.251a2.892,2.892,0,0,0,1.556-.863c.676-.683,1.358-1.361,2.039-2.041a2.047,2.047,0,0,1,.17-.163.363.363,0,0,1,.521.014.361.361,0,0,1,.034.519,1.563,1.563,0,0,1-.161.172c-.593.593-1.216,1.16-1.773,1.786a4.6,4.6,0,0,1-3.23,1.516,6.093,6.093,0,0,0-1.457.294,3.883,3.883,0,0,0-2.511,3.9,3.948,3.948,0,0,0,3.028,3.558,3.914,3.914,0,0,0,4.785-3.447c.046-.469.117-.936.2-1.4a3.37,3.37,0,0,1,.94-1.809c.722-.736,1.454-1.463,2.185-2.191a.392.392,0,0,1,.6-.048.4.4,0,0,1-.048.6c-.59.6-1.16,1.217-1.785,1.774a3.859,3.859,0,0,0-1.257,2.65,8.97,8.97,0,0,1-.227,1.368,4.658,4.658,0,0,1-4.945,3.36,4.662,4.662,0,0,1-4.185-3.838C-584.562,61.307-584.575,61.017-584.607,60.731Z" transform="translate(584.648 -38.708)" fill="#2a2968" stroke="#2a2968" stroke-width="0.5"/>
    <path id="Path_714" data-name="Path 714" d="M-571.186,76.18c0,.175,0,.35,0,.524a1.128,1.128,0,0,1-.336.826c-.257.262-.519.519-.778.778a1.135,1.135,0,0,1-.826.338c-.358,0-.716,0-1.075,0a1.175,1.175,0,0,1-.866-.371q-.348-.356-.7-.7a1.171,1.171,0,0,1-.373-.864q0-.537,0-1.074a1.162,1.162,0,0,1,.373-.864c.251-.243.494-.494.742-.74a1.133,1.133,0,0,1,.825-.34c.349,0,.7,0,1.049,0a1.19,1.19,0,0,1,.891.373c.19.193.373.394.576.572a1.367,1.367,0,0,1,.5,1.206C-571.195,75.952-571.186,76.066-571.186,76.18Zm-.81-.009c.16-.53-.123-.868-.472-1.228a1.488,1.488,0,0,0-1.165-.488,1.583,1.583,0,0,0-1.259.516,1.557,1.557,0,0,0-.49,1.192,1.547,1.547,0,0,0,.5,1.215,1.569,1.569,0,0,0,1.211.508,1.538,1.538,0,0,0,1.212-.5C-572.117,77.027-571.847,76.694-572,76.171Z" transform="translate(578.433 -54.124)" fill="#2a2968" stroke="#2a2968" stroke-width="0.5"/>
    <path id="Path_715" data-name="Path 715" d="M-517.236,63.964c.323.3.656.6.989.911q2.5,2.314,5,4.628a1,1,0,0,1,.034,1.628c-.431.434-.86.87-1.3,1.3a.971.971,0,0,1-1.482-.032q-2.789-3.009-5.571-6.023a.425.425,0,0,1-.035-.045Z" transform="translate(536.894 -46.981)" fill="#ffdc55" stroke="#2a2968" stroke-width="0.5"/>
    <path id="Path_716" data-name="Path 716" d="M-561.53,4.363c-.439.151-.86.266-1.256.438a2.454,2.454,0,0,0-1.605,1.7,3.328,3.328,0,0,0-.008,1.239,1.713,1.713,0,0,1-.5,1.644c-.849.831-1.682,1.678-2.523,2.518-.249.249-.338.25-.582.006q-1.243-1.241-2.483-2.484c-.242-.242-.245-.356-.011-.59,1.218-1.216,2.426-2.442,3.662-3.639a4.971,4.971,0,0,1,2.781-1.464A3.491,3.491,0,0,1-561.53,4.363Z" transform="translate(574.413 -2.712)" fill="#ffdc55" stroke="#2a2968" stroke-width="0.5"/>
    <path id="Path_717" data-name="Path 717" d="M-544.744,36.606l-2.228,2.225-7.553-8.168,1.61-1.61Z" transform="translate(562.551 -21.336)" fill="#ffdc55" stroke="#2a2968" stroke-width="0.5"/>
    <path id="Path_718" data-name="Path 718" d="M-577.672,33.988a1.725,1.725,0,0,1-.165.246c-.242.251-.492.494-.738.743a.305.305,0,0,1-.5,0q-1.284-1.288-2.573-2.572a.3.3,0,0,1-.009-.5q.382-.377.759-.759a.3.3,0,0,1,.476,0q1.3,1.3,2.589,2.593A1.4,1.4,0,0,1-577.672,33.988Z" transform="translate(582.569 -22.787)" fill="#ffdc55" stroke="#2a2968" stroke-width="0.5"/>
    <path id="Path_719" data-name="Path 719" d="M-521.568,59.742l.57.53-2.318,2.315-.533-.578Z" transform="translate(540.018 -43.879)" fill="#ffdc55" stroke="#2a2968" stroke-width="0.5"/>
    <path id="Path_720" data-name="Path 720" d="M-572.557,29.684l.535-.525,1.518,1.521-.532.531Z" transform="translate(575.797 -21.414)" fill="#ffdc55" stroke="#2a2968" stroke-width="0.5"/>
  </g>
</svg>
