<svg width="48" height="48" viewBox="0 0 48 48" fill="none" xmlns="http://www.w3.org/2000/svg">
<g clip-path="url(#clip0_2014_12288)">
<g clip-path="url(#clip1_2014_12288)">
<path d="M38.52 0H9.48C4.24434 0 0 4.24434 0 9.48V38.52C0 43.7557 4.24434 48 9.48 48H38.52C43.7557 48 48 43.7557 48 38.52V9.48C48 4.24434 43.7557 0 38.52 0Z" fill="url(#paint0_linear_2014_12288)"/>
<mask id="mask0_2014_12288" style="mask-type:luminance" maskUnits="userSpaceOnUse" x="0" y="0" width="48" height="48">
<path d="M38.52 0H9.48C4.24434 0 0 4.24434 0 9.48V38.52C0 43.7557 4.24434 48 9.48 48H38.52C43.7557 48 48 43.7557 48 38.52V9.48C48 4.24434 43.7557 0 38.52 0Z" fill="white"/>
</mask>
<g mask="url(#mask0_2014_12288)">
<path d="M10.8375 46.44L37.1775 46.44C42.2917 46.44 46.4375 42.2942 46.4375 37.18L46.4375 10.84C46.4375 5.72585 42.2917 1.58001 37.1775 1.58001L10.8375 1.58001C5.72334 1.58001 1.5775 5.72585 1.5775 10.84L1.5775 37.18C1.5775 42.2942 5.72334 46.44 10.8375 46.44Z" fill="url(#paint1_linear_2014_12288)"/>
</g>
<path style="mix-blend-mode:color-burn" d="M24.7008 41.06C24.2698 41.0613 23.8428 40.9771 23.4446 40.8123C23.0464 40.6475 22.6848 40.4054 22.3808 40.1L6.96076 24.68C6.35484 24.0597 6.01562 23.2271 6.01562 22.36C6.01562 21.4929 6.35484 20.6602 6.96076 20.04C7.26547 19.7355 7.62719 19.4939 8.02526 19.3292C8.42333 19.1645 8.84995 19.0798 9.28076 19.08C10.1508 19.0701 10.9904 19.4002 11.6208 20L21.4208 29.8V10.52C21.4208 9.65008 21.7663 8.8158 22.3814 8.20068C22.9966 7.58556 23.8308 7.23999 24.7008 7.23999C25.5707 7.23999 26.4049 7.58556 27.0201 8.20068C27.6352 8.8158 27.9808 9.65008 27.9808 10.52V29.84L37.8008 20C38.1054 19.6953 38.4671 19.4536 38.8652 19.2888C39.2632 19.1239 39.6899 19.039 40.1208 19.039C40.5516 19.039 40.9783 19.1239 41.3763 19.2888C41.7744 19.4536 42.1361 19.6953 42.4408 20C42.7454 20.3047 42.9871 20.6663 43.152 21.0644C43.3169 21.4625 43.4017 21.8891 43.4017 22.32C43.4017 22.7509 43.3169 23.1775 43.152 23.5756C42.9871 23.9736 42.7454 24.3353 42.4408 24.64L27.0208 40.06C26.72 40.3727 26.3599 40.6221 25.9616 40.7939C25.5632 40.9656 25.1345 41.0561 24.7008 41.06Z" fill="url(#paint2_linear_2014_12288)"/>
<path d="M41.7218 19.46C41.5115 19.2465 41.2609 19.077 40.9845 18.9613C40.7081 18.8456 40.4114 18.786 40.1118 18.786C39.8121 18.786 39.5155 18.8456 39.2391 18.9613C38.9627 19.077 38.7121 19.2465 38.5018 19.46L26.9818 30.98V9.24C26.9818 8.63345 26.7422 8.05145 26.3152 7.62069C25.8882 7.18992 25.3083 6.94528 24.7018 6.94C24.0953 6.94528 23.5154 7.18992 23.0883 7.62069C22.6613 8.05145 22.4218 8.63345 22.4218 9.24V30.98L10.9018 19.46C10.6915 19.2465 10.4409 19.077 10.1645 18.9613C9.88807 18.8456 9.59142 18.786 9.29178 18.786C8.99214 18.786 8.69549 18.8456 8.41909 18.9613C8.14269 19.077 7.89206 19.2465 7.68178 19.46C7.46832 19.6703 7.29881 19.9209 7.1831 20.1973C7.0674 20.4737 7.00781 20.7704 7.00781 21.07C7.00781 21.3696 7.0674 21.6663 7.1831 21.9427C7.29881 22.2191 7.46832 22.4697 7.68178 22.68L23.0818 38.1C23.5151 38.5227 24.0965 38.7593 24.7018 38.7593C25.3071 38.7593 25.8885 38.5227 26.3218 38.1L41.7218 22.68C41.9352 22.4697 42.1048 22.2191 42.2205 21.9427C42.3362 21.6663 42.3957 21.3696 42.3957 21.07C42.3957 20.7704 42.3362 20.4737 42.2205 20.1973C42.1048 19.9209 41.9352 19.6703 41.7218 19.46Z" fill="white"/>
</g>
</g>
<defs>
<linearGradient id="paint0_linear_2014_12288" x1="-4.5" y1="-9.84" x2="63.68" y2="71.1" gradientUnits="userSpaceOnUse">
<stop stop-color="#9FA0A0"/>
<stop offset="0.15" stop-color="#BCBDBD"/>
<stop offset="0.36" stop-color="#E1E1E1"/>
<stop offset="0.48" stop-color="#EFEFEF"/>
<stop offset="1" stop-color="#727171"/>
</linearGradient>
<linearGradient id="paint1_linear_2014_12288" x1="55.4375" y1="-2.49999" x2="-19.7825" y2="60.88" gradientUnits="userSpaceOnUse">
<stop offset="0.09" stop-color="#9FA0A0"/>
<stop offset="0.17" stop-color="#C7C8C8"/>
<stop offset="0.23" stop-color="#E9EAEA"/>
<stop offset="0.36" stop-color="#C6C7C7"/>
<stop offset="0.53" stop-color="#A2A2A2"/>
<stop offset="0.69" stop-color="#888787"/>
<stop offset="0.83" stop-color="#787777"/>
<stop offset="0.94" stop-color="#727171"/>
</linearGradient>
<linearGradient id="paint2_linear_2014_12288" x1="6.02076" y1="24.14" x2="43.4008" y2="24.14" gradientUnits="userSpaceOnUse">
<stop stop-color="#EBEBEB"/>
<stop offset="1" stop-color="#A1A1A1"/>
</linearGradient>
<clipPath id="clip0_2014_12288">
<rect width="48" height="48" fill="white"/>
</clipPath>
<clipPath id="clip1_2014_12288">
<rect width="48" height="48" fill="white"/>
</clipPath>
</defs>
</svg>
