<svg width="48" height="48" viewBox="0 0 48 48" fill="none" xmlns="http://www.w3.org/2000/svg">
<g clip-path="url(#clip0_1990_13686)">
<path d="M39.2581 15.76C39.1058 15.6077 38.9249 15.4868 38.7259 15.4044C38.5269 15.3219 38.3136 15.2795 38.0981 15.2795C37.8827 15.2795 37.6694 15.3219 37.4703 15.4044C37.2713 15.4868 37.0905 15.6077 36.9381 15.76C36.7858 15.9123 36.665 16.0932 36.5825 16.2922C36.5001 16.4912 36.4576 16.7046 36.4576 16.92C36.4576 17.1354 36.5001 17.3488 36.5825 17.5478C36.665 17.7468 36.7858 17.9277 36.9381 18.08L41.2181 22.36H30.2181C29.7832 22.36 29.366 22.5328 29.0585 22.8403C28.7509 23.1479 28.5781 23.565 28.5781 24C28.5781 24.435 28.7509 24.8521 29.0585 25.1597C29.366 25.4672 29.7832 25.64 30.2181 25.64H41.2181L36.9381 29.92C36.7858 30.0723 36.665 30.2532 36.5825 30.4522C36.5001 30.6512 36.4576 30.8646 36.4576 31.08C36.4576 31.2954 36.5001 31.5088 36.5825 31.7078C36.665 31.9068 36.7858 32.0877 36.9381 32.24C37.0905 32.3923 37.2713 32.5132 37.4703 32.5956C37.6694 32.6781 37.8827 32.7205 38.0981 32.7205C38.3136 32.7205 38.5269 32.6781 38.7259 32.5956C38.9249 32.5132 39.1058 32.3923 39.2581 32.24L47.4981 24L39.2581 15.76Z" fill="white"/>
<path d="M11.06 29.92L6.78 25.64H17.78C18.215 25.64 18.6321 25.4672 18.9397 25.1597C19.2472 24.8521 19.42 24.435 19.42 24C19.42 23.565 19.2472 23.1479 18.9397 22.8403C18.6321 22.5328 18.215 22.36 17.78 22.36H6.78L11.06 18.08C11.3677 17.7723 11.5405 17.3551 11.5405 16.92C11.5405 16.4849 11.3677 16.0676 11.06 15.76C10.7523 15.4523 10.3351 15.2795 9.9 15.2795C9.46492 15.2795 9.04765 15.4523 8.74 15.76L0.5 24L8.74 32.24C9.04765 32.5477 9.46492 32.7205 9.9 32.7205C10.3351 32.7205 10.7523 32.5477 11.06 32.24C11.3677 31.9323 11.5405 31.5151 11.5405 31.08C11.5405 30.6449 11.3677 30.2276 11.06 29.92Z" fill="white"/>
<path d="M18.0817 11.06L22.3617 6.78V17.78C22.3617 18.215 22.5345 18.6321 22.8421 18.9397C23.1496 19.2472 23.5668 19.42 24.0017 19.42C24.4367 19.42 24.8538 19.2472 25.1614 18.9397C25.469 18.6321 25.6417 18.215 25.6417 17.78V6.78L29.9217 11.06C30.2294 11.3677 30.6467 11.5405 31.0817 11.5405C31.5168 11.5405 31.9341 11.3677 32.2417 11.06C32.5494 10.7523 32.7222 10.3351 32.7222 9.9C32.7222 9.46492 32.5494 9.04765 32.2417 8.74L24.0017 0.5L15.7617 8.74C15.6094 8.89233 15.4886 9.07318 15.4061 9.27221C15.3237 9.47125 15.2813 9.68457 15.2813 9.9C15.2812 10.1154 15.3237 10.3288 15.4061 10.5278C15.4886 10.7268 15.6094 10.9077 15.7617 11.06C15.9141 11.2123 16.0949 11.3332 16.294 11.4156C16.493 11.4981 16.7063 11.5405 16.9217 11.5405C17.1372 11.5405 17.3505 11.4981 17.5495 11.4156C17.7486 11.3332 17.9294 11.2123 18.0817 11.06Z" fill="white"/>
<path d="M29.9217 36.94L25.6417 41.22V30.22C25.6417 29.785 25.469 29.3679 25.1614 29.0603C24.8538 28.7528 24.4367 28.58 24.0017 28.58C23.5668 28.58 23.1496 28.7528 22.8421 29.0603C22.5345 29.3679 22.3617 29.785 22.3617 30.22V41.22L18.0817 36.94C17.9294 36.7877 17.7486 36.6668 17.5495 36.5844C17.3505 36.5019 17.1372 36.4595 16.9217 36.4595C16.7063 36.4595 16.493 36.5019 16.294 36.5844C16.0949 36.6668 15.9141 36.7877 15.7617 36.94C15.6094 37.0923 15.4886 37.2732 15.4061 37.4722C15.3237 37.6712 15.2812 37.8846 15.2812 38.1C15.2812 38.3154 15.3237 38.5287 15.4061 38.7278C15.4886 38.9268 15.6094 39.1077 15.7617 39.26L24.0017 47.5L32.2417 39.26C32.3941 39.1077 32.5149 38.9268 32.5973 38.7278C32.6798 38.5287 32.7222 38.3154 32.7222 38.1C32.7222 37.8846 32.6798 37.6712 32.5973 37.4722C32.5149 37.2732 32.3941 37.0923 32.2417 36.94C32.0894 36.7877 31.9086 36.6668 31.7095 36.5844C31.5105 36.5019 31.2972 36.4595 31.0817 36.4595C30.8663 36.4595 30.653 36.5019 30.454 36.5844C30.2549 36.6668 30.0741 36.7877 29.9217 36.94Z" fill="white"/>
</g>
<defs>
<clipPath id="clip0_1990_13686">
<rect width="48" height="48" fill="white"/>
</clipPath>
</defs>
</svg>
