<svg xmlns="http://www.w3.org/2000/svg" width="25.944" height="23.122" viewBox="0 0 25.944 23.122">
  <g id="_24H_icon" data-name="24H icon" transform="translate(0.5 0.622)">
    <path id="Path_435" data-name="Path 435" d="M-396.754-26.615c.066-.39.108-.785.2-1.169a6.37,6.37,0,0,1,3.4-4.443,6.014,6.014,0,0,1,3.575-.548,7.258,7.258,0,0,1,5.1,3.2c.056.079.113.156.195.268l.247-.343a7.361,7.361,0,0,1,3.736-2.83,6.172,6.172,0,0,1,7.879,3.47,7.41,7.41,0,0,1-.387,6.654,19.453,19.453,0,0,1-3.477,4.484c-2.081,2.113-4.353,4.015-6.586,5.961-.287.251-.574.5-.867.746-.142.118-.3.217-.448.325h-.195a2.407,2.407,0,0,1-.3-.2c-2.24-1.984-4.5-3.946-6.707-5.964a22.549,22.549,0,0,1-3.825-4.423,9.463,9.463,0,0,1-1.369-3.146c-.065-.307-.11-.618-.164-.926Zm12.465,14.635c.65-.56,1.278-1.1,1.9-1.639a76.814,76.814,0,0,0,6.035-5.587,15.6,15.6,0,0,0,2.933-4.155,6.48,6.48,0,0,0,.469-4.13,5.414,5.414,0,0,0-1.834-3.158,5.281,5.281,0,0,0-5.759-.7,6.679,6.679,0,0,0-3.261,3.151.547.547,0,0,1-.476.358.526.526,0,0,1-.486-.342,7.194,7.194,0,0,0-2.219-2.575,5.665,5.665,0,0,0-4.6-.987,5.035,5.035,0,0,0-3.812,3.439,6.567,6.567,0,0,0,.563,5.622,17.154,17.154,0,0,0,3.276,4.149c1.751,1.666,3.56,3.272,5.352,4.894C-385.583-13.074-384.94-12.541-384.289-11.979Z" transform="translate(396.754 32.839)" fill="#2a2968" stroke="#25235a" stroke-width="1"/>
    <path id="Path_436" data-name="Path 436" d="M-381.34-9.068c-.651-.562-1.294-1.095-1.913-1.655-1.792-1.622-3.6-3.228-5.352-4.894a17.153,17.153,0,0,1-3.276-4.149,6.567,6.567,0,0,1-.563-5.622,5.035,5.035,0,0,1,3.812-3.439,5.666,5.666,0,0,1,4.6.987,7.2,7.2,0,0,1,2.219,2.575.525.525,0,0,0,.486.342.546.546,0,0,0,.476-.358,6.679,6.679,0,0,1,3.262-3.151,5.281,5.281,0,0,1,5.759.7A5.414,5.414,0,0,1-370-24.578a6.479,6.479,0,0,1-.469,4.13,15.6,15.6,0,0,1-2.933,4.155,76.831,76.831,0,0,1-6.035,5.587C-380.061-10.165-380.69-9.628-381.34-9.068Zm1.947-11.524v-.287c0-.771,0-1.541,0-2.312,0-.436-.172-.613-.6-.614q-1.35,0-2.7,0c-.415,0-.593.179-.594.593,0,.779,0,1.557,0,2.336v.284h-.288q-1.144,0-2.287,0c-.476,0-.638.165-.638.648q0,1.314,0,2.628c0,.438.182.618.625.619.771,0,1.541,0,2.312,0h.277v.293q0,1.144,0,2.287c0,.458.175.632.635.633q1.314,0,2.628,0c.456,0,.631-.178.632-.637q0-1.156,0-2.312V-16.7c.889,0,1.741,0,2.592,0,.44,0,.62-.183.621-.622q0-1.314,0-2.628c0-.48-.164-.644-.642-.644Zm8.569-2.638a5.383,5.383,0,0,0-.573-2.364.492.492,0,0,0-.65-.3.493.493,0,0,0-.235.7c.077.2.171.385.239.584a4.872,4.872,0,0,1-.318,3.751,12.484,12.484,0,0,1-1.488,2.331.506.506,0,0,0,.035.755.494.494,0,0,0,.734-.167c.444-.637.907-1.266,1.3-1.935A6.7,6.7,0,0,0-370.824-23.23Zm-1.836-3.684a.477.477,0,0,0-.465-.491.479.479,0,0,0-.488.47.489.489,0,0,0,.466.495A.487.487,0,0,0-372.659-26.914Z" transform="translate(393.805 29.928)" fill="#e94d16"/>
    <path id="Path_437" data-name="Path 437" d="M-360.083-4.847h2.571c.479,0,.642.164.642.644q0,1.314,0,2.628c0,.439-.181.621-.621.622-.851,0-1.7,0-2.592,0v.265q0,1.156,0,2.312c0,.459-.175.636-.632.637q-1.314,0-2.628,0c-.46,0-.634-.175-.635-.633q0-1.144,0-2.287V-.952h-.277c-.771,0-1.541,0-2.312,0-.443,0-.624-.181-.625-.619q0-1.314,0-2.628c0-.482.163-.647.638-.648q1.144,0,2.287,0h.288v-.284c0-.779,0-1.557,0-2.336,0-.414.18-.592.594-.593q1.351,0,2.7,0c.426,0,.6.178.6.614,0,.771,0,1.541,0,2.312ZM-363-7.082V-6.8q0,1.144,0,2.287c0,.459-.175.634-.633.635-.771,0-1.541,0-2.312,0h-.255v1.947h.274q1.144,0,2.287,0c.476,0,.637.165.638.648q0,1.144,0,2.287v.259h1.948c0-.886,0-1.754,0-2.621a.5.5,0,0,1,.567-.572c.657,0,1.314,0,1.971,0h.659V-3.873c-.866,0-1.716,0-2.567,0-.455,0-.63-.179-.63-.638q0-1.156,0-2.312v-.259Z" transform="translate(374.495 14.183)" fill="#2a2968" stroke="#25235a" stroke-width="1"/>
    <path id="Path_438" data-name="Path 438" d="M-313.409-13.967a6.7,6.7,0,0,1-.956,3.351c-.394.668-.856,1.3-1.3,1.935a.494.494,0,0,1-.734.167.506.506,0,0,1-.035-.755,12.489,12.489,0,0,0,1.488-2.331,4.871,4.871,0,0,0,.318-3.751c-.068-.2-.162-.388-.239-.584a.493.493,0,0,1,.235-.7.492.492,0,0,1,.65.3A5.383,5.383,0,0,1-313.409-13.967Z" transform="translate(336.39 20.665)" fill="#2a2968" stroke="#25235a" stroke-width="1"/>
    <path id="Path_439" data-name="Path 439" d="M-314.065-22.137a.487.487,0,0,1-.487.473.489.489,0,0,1-.466-.495.479.479,0,0,1,.488-.47A.477.477,0,0,1-314.065-22.137Z" transform="translate(335.211 25.151)" fill="#2a2968" stroke="#25235a" stroke-width="1"/>
    <path id="Path_440" data-name="Path 440" d="M-359.993-4.094h1.948v.259q0,1.156,0,2.312c0,.459.175.636.63.638.851,0,1.7,0,2.567,0V1.062h-.659c-.657,0-1.314,0-1.971,0a.5.5,0,0,0-.567.572c0,.867,0,1.735,0,2.621h-1.948V4q0-1.144,0-2.287c0-.483-.162-.648-.638-.648q-1.144,0-2.287,0h-.274V-.886h.255c.771,0,1.541,0,2.312,0,.459,0,.632-.176.633-.635q0-1.144,0-2.287Z" transform="translate(371.484 11.195)" fill="#ffdc55"/>
  </g>
</svg>
