<?xml version="1.0" encoding="utf-8"?>
<!-- Generator: Adobe Illustrator 26.0.2, SVG Export Plug-In . SVG Version: 6.00 Build 0)  -->
<svg version="1.1" xmlns="http://www.w3.org/2000/svg" xmlns:xlink="http://www.w3.org/1999/xlink" x="0px" y="0px"
	 viewBox="0 0 140 140" style="enable-background:new 0 0 140 140;" xml:space="preserve">
<style type="text/css">
	.st0{display:none;}
	.st1{display:inline;fill:#FFDC55;stroke:#2A2968;stroke-width:0.25;}
	.st2{display:inline;fill:#2A2968;}
	.st3{display:inline;fill:#FFFFFF;filter:url(#Adobe_OpacityMaskFilter);}
	.st4{display:inline;}
	
		.st5{display:inline;mask:url(#path-2-outside-1_326_6218_00000120549143009652023780000004783045180652711612_);fill:none;stroke:#2A2968;stroke-width:0.5;}
	.st6{display:inline;fill:#2A2968;stroke:#2A2968;stroke-width:0.25;}
	.st7{display:inline;fill:#2A2968;stroke:#2A2968;stroke-width:0.5;}
	.st8{display:inline;fill:#2A2968;stroke:#2A2968;stroke-width:0.4;}
	.st9{fill:#FFFFFF;}
	.st10{fill:#FEDC56;}
	.st11{fill:#FF5809;}
</style>
<g id="圖層_1" class="st0">
	<path class="st1" d="M65,95.9c-5.3,0-10.6,0-16,0H65z M65,95.9c0.5,0,1.5-0.1,1.9-0.7L65,95.9z M78.5,118.5c0.2,3.6-3.2,6-6.7,4.7
		h0c-1.5-0.6-2.9-0.6-4.4,0c-1.7,0.7-3.4,0.4-4.7-0.5c-1.3-0.9-2.1-2.5-2.1-4.6c0-1.2,0.7-2.7,1.9-3.9l0,0c1.2-1.1,2.4-2.3,3.6-3.3
		c1.1-1,2.2-1.5,3.4-1.5c1.1,0,2.3,0.4,3.4,1.4l0,0c1.3,1.1,2.6,2.3,3.8,3.5C77.8,115.4,78.4,116.9,78.5,118.5z M78.5,118.5
		L78.5,118.5l0.1,0 M78.5,118.5C78.5,118.5,78.5,118.5,78.5,118.5l0.1,0 M78.6,118.5c-0.1-1.7-0.7-3.2-1.9-4.4
		c-1.2-1.2-2.5-2.4-3.8-3.5l-5.5,12.7c1.5-0.6,2.8-0.6,4.3,0C75.3,124.7,78.8,122.2,78.6,118.5z M95.8,127.7h0.1l0-0.1
		c0-0.5,0-0.9-0.1-1.2c-0.4-2.7-0.8-5.4-1.2-8.1c-1-7-2.1-14.1-3-21.1c-0.1-0.5-0.2-0.8-0.5-1.1c-0.3-0.2-0.6-0.3-1.1-0.3h0
		c-5.3,0-10.6,0-16,0h0c-0.2,0-0.5,0-0.8-0.1c-0.3-0.1-0.6-0.3-0.7-0.5c-0.1-0.2,0-0.3,0-0.5l0,0c0-0.2,0.1-0.4,0-0.6l0,0l0,0
		c-0.2-0.3-0.5-0.3-0.9-0.3c-0.2,0-0.4,0-0.7,0c0,0-0.1,0-0.1,0c-0.3,0-0.7,0-1.1,0c-0.4,0-0.7,0-0.9,0l0,0c-0.3,0-0.5,0-0.7,0
		c-0.4,0-0.6,0.1-0.8,0.3l0,0l0,0C67,94.2,67,94.4,67,94.6l0,0c0,0.2,0,0.4-0.2,0.6l0,0c-0.2,0.3-0.5,0.4-0.8,0.5
		c-0.3,0.1-0.7,0.1-0.9,0.1h0c-5.3,0-10.6,0-16,0l0,0h0c-0.5,0-0.9,0.1-1.1,0.3c-0.3,0.2-0.4,0.6-0.5,1.1l0,0l0,0
		c-0.6,4.6-1.3,9.3-2,13.9c-0.3,2.3-0.7,4.6-1,7c-0.4,2.4-0.7,4.8-1,7.3c-0.1,0.8-0.2,1.5-0.3,2.3l0,0.1h0.1h0.1h0.1h0.1h0.1h0.1
		h0.1H44h0.1h0.1h0.1h0.1h0.1h0.1h0.1h0.1h0.1H45h0.1h0.1h0.1h0.1h0.1h0.1h0.1h0.1h0.1H46h0.1h0.1h0.1h0.1h0.1h0.1h0.1h0.1h0.1H47
		h0.1h0.1h0.1h0.1h0.1h0.1h0.1h0.1H48h0.1h0.1h0.1h0.1h0.1h0.1h0.1h0.1h0.1H49h0.1h0.1h0.1h0.1h0.1h0.1h0.1h0.1h0.1H50h0.1h0.1h0.1
		h0.1h0.1h0.1h0.1h0.1H51h0.1h0.1h0.1h0.1h0.1h0.1h0.1h0.1h0.1H52h0.1h0.1h0.1h0.1h0.1h0.1h0.1h0.1h0.1H53h0.1h0.1h0.1h0.1h0.1h0.1
		h0.1h0.1h0.1H54h0.1h0.1h0.1h0.1h0.1h0.1h0.1h0.1H55h0.1h0.1h0.1h0.1h0.1h0.1h0.1h0.1h0.1H56h0.1h0.1h0.1h0.1h0.1h0.1h0.1h0.1h0.1
		H57h0.1h0.1h0.1h0.1h0.1h0.1h0.1h0.1h0.1H58h0.1h0.1h0.1h0.1h0.1h0.1h0.1h0.1H59h0.1h0.1h0.1h0.1h0.1h0.1h0.1h0.1h0.1H60h0.1h0.1
		h0.1h0.1h0.1h0.1h0.1h0.1h0.1H61h0.1h0.1h0.1h0.1h0.1h0.1h0.1h0.1h0.1H62h0.1h0.1h0.1h0.1h0.1h0.1h0.1h0.1H63h0.1h0.1h0.1h0.1h0.1
		h0.1h0.1h0.1h0.1H64h0.1h0.1h0.1h0.1h0.1h0.1h0.1h0.1h0.1H65h0.1h0.1h0.1h0.1h0.1h0.1h0.1h0.1h0.1H66h0.1h0.1h0.1h0.1h0.1h0.1h0.1
		h0.1H67h0.1h0.1h0.1h0.1h0.1h0.1h0.1h0.1h0.1H68h0.1h0.1h0.1h0.1h0.1h0.1h0.1h0.1h0.1H69h0.1h0.1h0.1h0.1h0.1h0.1h0.1h0.1h0.1H70
		h0.1h0.1h0.1h0.1h0.1h0.1h0.1h0.1H71h0.1h0.1h0.1h0.1h0.1h0.1h0.1h0.1h0.1H72h0.1h0.1h0.1h0.1h0.1h0.1h0.1h0.1h0.1H73h0.1h0.1h0.1
		h0.1h0.1h0.1h0.1h0.1h0.1H74h0.1h0.1h0.1h0.1h0.1h0.1h0.1h0.1H75h0.1h0.1h0.1h0.1h0.1h0.1h0.1h0.1h0.1H76h0.1h0.1h0.1h0.1h0.1h0.1
		h0.1h0.1h0.1H77h0.1h0.1h0.1h0.1h0.1h0.1h0.1h0.1h0.1H78h0.1h0.1h0.1h0.1h0.1h0.1h0.1h0.1H79h0.1h0.1h0.1h0.1h0.1h0.1h0.1h0.1h0.1
		H80h0.1h0.1h0.1h0.1h0.1h0.1h0.1h0.1h0.1H81h0.1h0.1h0.1h0.1h0.1h0.1h0.1h0.1h0.1H82h0.1h0.1h0.1h0.1h0.1h0.1h0.1h0.1H83h0.1h0.1
		h0.1h0.1h0.1h0.1h0.1h0.1h0.1H84h0.1h0.1h0.1h0.1h0.1h0.1h0.1h0.1h0.1H85h0.1h0.1h0.1h0.1h0.1h0.1h0.1h0.1h0.1H86h0.1h0.1h0.1h0.1
		h0.1h0.1h0.1h0.1H87h0.1h0.1h0.1h0.1h0.1h0.1h0.1h0.1h0.1H88h0.1h0.1h0.1h0.1h0.1h0.1h0.1h0.1h0.1H89h0.1h0.1h0.1h0.1h0.1h0.1h0.1
		h0.1h0.1H90h0.1h0.1h0.1h0.1h0.1h0.1h0.1h0.1H91h0.1h0.1h0.1h0.1h0.1h0.1h0.1h0.1h0.1H92h0.1h0.1h0.1h0.1h0.1h0.1h0.1h0.1h0.1H93
		h0.1h0.1h0.1h0.1h0.1h0.1h0.1h0.1h0.1H94h0.1h0.1h0.1h0.1h0.1h0.1h0.1h0.1h0.1h0.1h0.1h0.1h0.1h0.1h0.1h0.1H95.8z M81.2,105.6
		L81.2,105.6c0.2,0.1,0.4,0.3,0.5,0.5c0.1,0.1,0.1,0.2,0.2,0.3l0,0c0.1,0.1,0.1,0.2,0.1,0.2c0,0.3-0.1,0.7-0.3,1.1
		c-0.2,0.4-0.5,0.8-0.9,1.2c-0.3,0.4-0.7,0.7-1.1,0.9c-0.4,0.2-0.7,0.3-0.9,0.3c-0.3,0-0.6-0.1-0.8-0.3c-0.3-0.2-0.5-0.3-0.6-0.5h0
		c-0.1-0.2-0.2-0.6-0.1-0.9c0-0.3,0.1-0.7,0.2-0.9l0,0c0.4-0.7,1.1-1.4,1.8-1.8l0,0c0.2-0.1,0.5-0.2,0.9-0.3
		C80.7,105.4,81,105.5,81.2,105.6z M69.6,100.6L69.6,100.6c0.5,0,0.9,0.2,1.1,0.5c0.2,0.3,0.4,0.6,0.4,1.1c0,0.3,0,0.5,0,0.8
		c0,0.1,0,0.3,0,0.4c0,0.9-0.1,1.6-0.4,2c-0.3,0.4-0.6,0.6-1.2,0.6l0,0.1l0-0.1c-0.6,0-1-0.2-1.3-0.6c-0.3-0.4-0.4-1.1-0.4-2
		c0-0.1,0-0.2,0-0.3c0-0.4,0-0.7,0-1h0l0,0c0.1-0.5,0.3-0.9,0.6-1.1C68.8,100.7,69.2,100.6,69.6,100.6z M57.1,107.7L57.1,107.7
		L57.1,107.7c-0.7-1,0.1-2.4,1.4-2.4c0.2,0,0.6,0.1,0.9,0.3c0.3,0.2,0.7,0.5,1.1,0.9c0.3,0.3,0.6,0.7,0.9,1c0.2,0.4,0.4,0.7,0.4,0.9
		c0,0.6-0.3,1.2-0.8,1.5c-0.5,0.3-1.1,0.3-1.6,0h0C58.5,109.3,57.7,108.6,57.1,107.7z"/>
	<path class="st2" d="M71.7,8.4c2.1,0.6,4.3,1,6.3,1.7c2.2,0.7,4,2.2,5.4,4c0.3,0.4,0.8,0.6,1.2,0.8c6.4,1.8,10.6,6.9,10.7,13.6
		c0,3.3-0.5,6.5-0.8,9.8c0,0.7-0.2,1.3-0.2,2.1c0.3,0.1,0.6,0.2,0.9,0.2c5.4,0.8,8.4,5.9,6.3,11c-1.5,3.8-4.5,5.7-8.5,6
		c-0.8,0.1-1.2,0.3-1.6,1.1c-2,3.9-4.8,7.2-8.3,9.8c-0.7,0.6-1,1.1-0.9,2c0.1,1.2-0.3,2.6,0.2,3.4c0.5,0.7,2,0.9,3,1.2
		c4.8,1.7,9.5,3.4,14.2,5c6.7,2.3,10.3,7.2,11,14c0.5,4.2,0.2,8.5,0.3,12.7c0,1.1-0.8,1.8-1.8,1.8c-1,0-1.7-0.7-1.7-1.9
		c0-3.4,0-6.7,0-10.1c0-2.8-0.7-5.5-2.1-7.9c-1.3-2.2-3.1-3.8-5.4-4.7c-3.3-1.2-6.5-2.3-9.8-3.5c-0.1,0-0.3,0-0.5-0.1
		c0,4,0,7.9,0,11.9c0.3,0,0.6,0,0.9,0c2.5,0,4.1,1.3,4.4,3.8c1.2,8.4,2.4,16.8,3.6,25.1c0.3,2.1,0.6,4.2,0.9,6.3c2.7,0,5.2,0,8,0
		c0-0.4,0-0.8,0-1.2c0-3.6,0-7.2,0-10.8c0-1.5,0.7-2.3,1.8-2.3c1.1,0,1.8,0.8,1.8,2.3c0,4.1,0,8.2,0,12.4c0,2.2-1.2,3.4-3.4,3.4
		c-25.4,0-50.8,0-76.2,0c-2.2,0-3.4-1.2-3.4-3.3c0-10.5-0.1-21,0-31.5c0-5.2,1.7-9.9,5.8-13.3c1.5-1.2,3.3-2.2,5.2-2.9
		c5.6-2.1,11.2-4,16.8-5.9c0.8-0.3,0.9-0.6,1-1.4c0.3-2.5-0.5-4.2-2.6-5.9c-2.9-2.2-5-5.2-6.7-8.5c-0.3-0.6-0.7-0.9-1.4-1
		c-5.4-0.4-9.2-4.2-9.3-9.1c0-4,2.4-7,6.4-7.8c0.3,0,0.6-0.1,0.9-0.1c-0.2-1.4-0.5-2.8-0.6-4.2c-1.2-11,5.1-21.9,14.5-25.6
		c2.4-1,5.1-1.4,7.7-2c0.3-0.1,0.6-0.1,0.9-0.2C68.3,8.4,70,8.4,71.7,8.4z M95.8,127.6c0-0.5,0-0.8-0.1-1.2
		c-1.4-9.7-2.9-19.4-4.2-29.2c-0.1-1-0.5-1.2-1.4-1.2c-5.3,0-10.6,0-16,0c-1.2,0-2-0.7-2-1.8c0-1,0.8-1.8,2-1.8c1.4,0,2.8,0,4.2,0
		c2.5,0,5,0,7.6,0c0-4.4,0-8.7,0-12.9c0-0.2-0.2-0.6-0.4-0.6c-1.1-0.4-2.2-0.8-3.4-1.2c-1.3,4-4.2,5.8-7.9,6.7
		c-2.7,0.7-5.4,0.8-8.1,0.2c-4.1-0.8-7.5-2.5-9-6.8c0,0-0.1-0.1-0.2-0.2c-1.2,0.4-2.4,0.8-3.6,1.3c0,4.5,0,8.9,0,13.4
		c1,0,1.9,0,2.8,0c3.1,0,6.2,0,9.2,0c0.6,0,1.4,0.6,1.8,1.1c0.3,0.4,0.1,1.4-0.2,1.7c-0.4,0.5-1.2,0.7-1.9,0.7c-5.3,0-10.6,0-16,0
		c-1,0-1.3,0.3-1.4,1.2c-1,7-2,13.9-3,20.9c-0.5,3.1-0.9,6.3-1.4,9.5C60.8,127.6,78.3,127.6,95.8,127.6z M79.5,33.4
		c-2.2,1.1-4.2,2.3-6.3,3.3c-7.5,3.5-15.4,5.9-23.7,7c-0.3,0-0.8,0.4-0.8,0.6c0.1,2.7-0.2,5.5,0.5,8.1c2.1,7.7,7.2,13.1,14.4,16.5
		c4,1.9,8,1.8,12,0c1.5-0.7,3-1.5,4.3-2.5c6.7-5.1,11.2-11.4,10.5-20.3c0-0.6-0.1-1.1,0-1.7c0.1-0.9-0.3-1.4-1.1-1.8
		C85.4,40.2,81.4,37.8,79.5,33.4z M48.1,40.4c3.2-0.7,6.4-1.2,9.5-2c7.3-1.9,14.3-4.5,20.7-8.7c1.8-1.2,2.9-2.8,3.2-4.8
		c0.3-1.4,0.3-2.9,0.3-4.4c-0.1-3.5-1.9-5.8-5-7c-4.8-1.9-9.7-1.7-14.6-0.4C49.8,16.2,44.6,30,48.1,40.4z M49.6,80.2
		c-3.6,1.3-7,2.4-10.4,3.7c-2.7,1-4.6,3-5.9,5.5c-1.2,2.5-1.7,5.2-1.7,8c0,9.6,0,19.3,0,28.9c0,0.4,0,0.8,0,1.2c2.7,0,5.3,0,7.8,0
		c0.1-0.3,0.2-0.5,0.2-0.7c1.1-7.4,2.1-14.8,3.2-22.2c0.4-2.8,0.8-5.6,1.2-8.4c0.4-2.5,1.9-3.8,4.5-3.9c0.3,0,0.6,0,0.9-0.1
		C49.6,88.3,49.6,84.4,49.6,80.2z M78.6,71.3c-6.1,3.4-12.1,3.3-18.2,0c0,1.5,0,2.7,0,3.9c-0.1,1.9,0.8,3.5,2.4,4.3
		c4.4,2.4,8.9,2.4,13.3,0c1.7-0.9,2.6-2.4,2.5-4.4C78.6,74.1,78.6,72.9,78.6,71.3z M91,39.3c0.3-3.7,0.7-7.2,0.8-10.7
		c0-2.8-1-5.4-3.1-7.4c-0.9-0.9-2.1-1.6-3.1-2.3c-0.2,0.9-0.1,1.6-0.1,2.2c0.1,3.3-0.4,6.4-2.4,9.1c-0.5,0.7-0.6,1.3-0.2,2.1
		C84.5,35.6,87.6,37.3,91,39.3z M44.9,44.1c-2.5-0.1-4.3,1.5-4.4,4c-0.1,3,2.3,5.6,4.9,5.6C45.2,50.5,45,47.3,44.9,44.1z M93.7,53.8
		c1.5-0.2,2.8-0.9,3.8-2.2c1.2-1.7,1.6-3.5,0.6-5.4c-0.8-1.5-2.2-2.1-3.9-2.1C94,47.3,93.9,50.4,93.7,53.8z"/>
	<defs>
		<filter id="Adobe_OpacityMaskFilter" filterUnits="userSpaceOnUse" x="27.7" y="8.2" width="83.6" height="123.3">
			<feColorMatrix  type="matrix" values="1 0 0 0 0  0 1 0 0 0  0 0 1 0 0  0 0 0 1 0"/>
		</filter>
	</defs>
	
		<mask maskUnits="userSpaceOnUse" x="27.7" y="8.2" width="83.6" height="123.3" id="path-2-outside-1_326_6218_00000120549143009652023780000004783045180652711612_" class="st4">
		<rect x="27" y="7.4" style="fill:#FFFFFF;filter:url(#Adobe_OpacityMaskFilter);" width="85" height="125"/>
		<path d="M71.7,8.4c2.1,0.6,4.3,1,6.3,1.7c2.2,0.7,4,2.2,5.4,4c0.3,0.4,0.8,0.6,1.2,0.8c6.4,1.8,10.6,6.9,10.7,13.6
			c0,3.3-0.5,6.5-0.8,9.8c0,0.7-0.2,1.3-0.2,2.1c0.3,0.1,0.6,0.2,0.9,0.2c5.4,0.8,8.4,5.9,6.3,11c-1.5,3.8-4.5,5.7-8.5,6
			c-0.8,0.1-1.2,0.3-1.6,1.1c-2,3.9-4.8,7.2-8.3,9.8c-0.7,0.6-1,1.1-0.9,2c0.1,1.2-0.3,2.6,0.2,3.4c0.5,0.7,2,0.9,3,1.2
			c4.8,1.7,9.5,3.4,14.2,5c6.7,2.3,10.3,7.2,11,14c0.5,4.2,0.2,8.5,0.3,12.7c0,1.1-0.8,1.8-1.8,1.8c-1,0-1.7-0.7-1.7-1.9
			c0-3.4,0-6.7,0-10.1c0-2.8-0.7-5.5-2.1-7.9c-1.3-2.2-3.1-3.8-5.4-4.7c-3.3-1.2-6.5-2.3-9.8-3.5c-0.1,0-0.3,0-0.5-0.1
			c0,4,0,7.9,0,11.9c0.3,0,0.6,0,0.9,0c2.5,0,4.1,1.3,4.4,3.8c1.2,8.4,2.4,16.8,3.6,25.1c0.3,2.1,0.6,4.2,0.9,6.3c2.7,0,5.2,0,8,0
			c0-0.4,0-0.8,0-1.2c0-3.6,0-7.2,0-10.8c0-1.5,0.7-2.3,1.8-2.3c1.1,0,1.8,0.8,1.8,2.3c0,4.1,0,8.2,0,12.4c0,2.2-1.2,3.4-3.4,3.4
			c-25.4,0-50.8,0-76.2,0c-2.2,0-3.4-1.2-3.4-3.3c0-10.5-0.1-21,0-31.5c0-5.2,1.7-9.9,5.8-13.3c1.5-1.2,3.3-2.2,5.2-2.9
			c5.6-2.1,11.2-4,16.8-5.9c0.8-0.3,0.9-0.6,1-1.4c0.3-2.5-0.5-4.2-2.6-5.9c-2.9-2.2-5-5.2-6.7-8.5c-0.3-0.6-0.7-0.9-1.4-1
			c-5.4-0.4-9.2-4.2-9.3-9.1c0-4,2.4-7,6.4-7.8c0.3,0,0.6-0.1,0.9-0.1c-0.2-1.4-0.5-2.8-0.6-4.2c-1.2-11,5.1-21.9,14.5-25.6
			c2.4-1,5.1-1.4,7.7-2c0.3-0.1,0.6-0.1,0.9-0.2C68.3,8.4,70,8.4,71.7,8.4z M95.8,127.6c0-0.5,0-0.8-0.1-1.2
			c-1.4-9.7-2.9-19.4-4.2-29.2c-0.1-1-0.5-1.2-1.4-1.2c-5.3,0-10.6,0-16,0c-1.2,0-2-0.7-2-1.8c0-1,0.8-1.8,2-1.8c1.4,0,2.8,0,4.2,0
			c2.5,0,5,0,7.6,0c0-4.4,0-8.7,0-12.9c0-0.2-0.2-0.6-0.4-0.6c-1.1-0.4-2.2-0.8-3.4-1.2c-1.3,4-4.2,5.8-7.9,6.7
			c-2.7,0.7-5.4,0.8-8.1,0.2c-4.1-0.8-7.5-2.5-9-6.8c0,0-0.1-0.1-0.2-0.2c-1.2,0.4-2.4,0.8-3.6,1.3c0,4.5,0,8.9,0,13.4
			c1,0,1.9,0,2.8,0c3.1,0,6.2,0,9.2,0c0.6,0,1.4,0.6,1.8,1.1c0.3,0.4,0.1,1.4-0.2,1.7c-0.4,0.5-1.2,0.7-1.9,0.7c-5.3,0-10.6,0-16,0
			c-1,0-1.3,0.3-1.4,1.2c-1,7-2,13.9-3,20.9c-0.5,3.1-0.9,6.3-1.4,9.5C60.8,127.6,78.3,127.6,95.8,127.6z M79.5,33.4
			c-2.2,1.1-4.2,2.3-6.3,3.3c-7.5,3.5-15.4,5.9-23.7,7c-0.3,0-0.8,0.4-0.8,0.6c0.1,2.7-0.2,5.5,0.5,8.1c2.1,7.7,7.2,13.1,14.4,16.5
			c4,1.9,8,1.8,12,0c1.5-0.7,3-1.5,4.3-2.5c6.7-5.1,11.2-11.4,10.5-20.3c0-0.6-0.1-1.1,0-1.7c0.1-0.9-0.3-1.4-1.1-1.8
			C85.4,40.2,81.4,37.8,79.5,33.4z M48.1,40.4c3.2-0.7,6.4-1.2,9.5-2c7.3-1.9,14.3-4.5,20.7-8.7c1.8-1.2,2.9-2.8,3.2-4.8
			c0.3-1.4,0.3-2.9,0.3-4.4c-0.1-3.5-1.9-5.8-5-7c-4.8-1.9-9.7-1.7-14.6-0.4C49.8,16.2,44.6,30,48.1,40.4z M49.6,80.2
			c-3.6,1.3-7,2.4-10.4,3.7c-2.7,1-4.6,3-5.9,5.5c-1.2,2.5-1.7,5.2-1.7,8c0,9.6,0,19.3,0,28.9c0,0.4,0,0.8,0,1.2c2.7,0,5.3,0,7.8,0
			c0.1-0.3,0.2-0.5,0.2-0.7c1.1-7.4,2.1-14.8,3.2-22.2c0.4-2.8,0.8-5.6,1.2-8.4c0.4-2.5,1.9-3.8,4.5-3.9c0.3,0,0.6,0,0.9-0.1
			C49.6,88.3,49.6,84.4,49.6,80.2z M78.6,71.3c-6.1,3.4-12.1,3.3-18.2,0c0,1.5,0,2.7,0,3.9c-0.1,1.9,0.8,3.5,2.4,4.3
			c4.4,2.4,8.9,2.4,13.3,0c1.7-0.9,2.6-2.4,2.5-4.4C78.6,74.1,78.6,72.9,78.6,71.3z M91,39.3c0.3-3.7,0.7-7.2,0.8-10.7
			c0-2.8-1-5.4-3.1-7.4c-0.9-0.9-2.1-1.6-3.1-2.3c-0.2,0.9-0.1,1.6-0.1,2.2c0.1,3.3-0.4,6.4-2.4,9.1c-0.5,0.7-0.6,1.3-0.2,2.1
			C84.5,35.6,87.6,37.3,91,39.3z M44.9,44.1c-2.5-0.1-4.3,1.5-4.4,4c-0.1,3,2.3,5.6,4.9,5.6C45.2,50.5,45,47.3,44.9,44.1z
			 M93.7,53.8c1.5-0.2,2.8-0.9,3.8-2.2c1.2-1.7,1.6-3.5,0.6-5.4c-0.8-1.5-2.2-2.1-3.9-2.1C94,47.3,93.9,50.4,93.7,53.8z"/>
	</mask>
	<path class="st5" d="M71.7,8.4c2.1,0.6,4.3,1,6.3,1.7c2.2,0.7,4,2.2,5.4,4c0.3,0.4,0.8,0.6,1.2,0.8c6.4,1.8,10.6,6.9,10.7,13.6
		c0,3.3-0.5,6.5-0.8,9.8c0,0.7-0.2,1.3-0.2,2.1c0.3,0.1,0.6,0.2,0.9,0.2c5.4,0.8,8.4,5.9,6.3,11c-1.5,3.8-4.5,5.7-8.5,6
		c-0.8,0.1-1.2,0.3-1.6,1.1c-2,3.9-4.8,7.2-8.3,9.8c-0.7,0.6-1,1.1-0.9,2c0.1,1.2-0.3,2.6,0.2,3.4c0.5,0.7,2,0.9,3,1.2
		c4.8,1.7,9.5,3.4,14.2,5c6.7,2.3,10.3,7.2,11,14c0.5,4.2,0.2,8.5,0.3,12.7c0,1.1-0.8,1.8-1.8,1.8c-1,0-1.7-0.7-1.7-1.9
		c0-3.4,0-6.7,0-10.1c0-2.8-0.7-5.5-2.1-7.9c-1.3-2.2-3.1-3.8-5.4-4.7c-3.3-1.2-6.5-2.3-9.8-3.5c-0.1,0-0.3,0-0.5-0.1
		c0,4,0,7.9,0,11.9c0.3,0,0.6,0,0.9,0c2.5,0,4.1,1.3,4.4,3.8c1.2,8.4,2.4,16.8,3.6,25.1c0.3,2.1,0.6,4.2,0.9,6.3c2.7,0,5.2,0,8,0
		c0-0.4,0-0.8,0-1.2c0-3.6,0-7.2,0-10.8c0-1.5,0.7-2.3,1.8-2.3c1.1,0,1.8,0.8,1.8,2.3c0,4.1,0,8.2,0,12.4c0,2.2-1.2,3.4-3.4,3.4
		c-25.4,0-50.8,0-76.2,0c-2.2,0-3.4-1.2-3.4-3.3c0-10.5-0.1-21,0-31.5c0-5.2,1.7-9.9,5.8-13.3c1.5-1.2,3.3-2.2,5.2-2.9
		c5.6-2.1,11.2-4,16.8-5.9c0.8-0.3,0.9-0.6,1-1.4c0.3-2.5-0.5-4.2-2.6-5.9c-2.9-2.2-5-5.2-6.7-8.5c-0.3-0.6-0.7-0.9-1.4-1
		c-5.4-0.4-9.2-4.2-9.3-9.1c0-4,2.4-7,6.4-7.8c0.3,0,0.6-0.1,0.9-0.1c-0.2-1.4-0.5-2.8-0.6-4.2c-1.2-11,5.1-21.9,14.5-25.6
		c2.4-1,5.1-1.4,7.7-2c0.3-0.1,0.6-0.1,0.9-0.2C68.3,8.4,70,8.4,71.7,8.4z M95.8,127.6c0-0.5,0-0.8-0.1-1.2
		c-1.4-9.7-2.9-19.4-4.2-29.2c-0.1-1-0.5-1.2-1.4-1.2c-5.3,0-10.6,0-16,0c-1.2,0-2-0.7-2-1.8c0-1,0.8-1.8,2-1.8c1.4,0,2.8,0,4.2,0
		c2.5,0,5,0,7.6,0c0-4.4,0-8.7,0-12.9c0-0.2-0.2-0.6-0.4-0.6c-1.1-0.4-2.2-0.8-3.4-1.2c-1.3,4-4.2,5.8-7.9,6.7
		c-2.7,0.7-5.4,0.8-8.1,0.2c-4.1-0.8-7.5-2.5-9-6.8c0,0-0.1-0.1-0.2-0.2c-1.2,0.4-2.4,0.8-3.6,1.3c0,4.5,0,8.9,0,13.4
		c1,0,1.9,0,2.8,0c3.1,0,6.2,0,9.2,0c0.6,0,1.4,0.6,1.8,1.1c0.3,0.4,0.1,1.4-0.2,1.7c-0.4,0.5-1.2,0.7-1.9,0.7c-5.3,0-10.6,0-16,0
		c-1,0-1.3,0.3-1.4,1.2c-1,7-2,13.9-3,20.9c-0.5,3.1-0.9,6.3-1.4,9.5C60.8,127.6,78.3,127.6,95.8,127.6z M79.5,33.4
		c-2.2,1.1-4.2,2.3-6.3,3.3c-7.5,3.5-15.4,5.9-23.7,7c-0.3,0-0.8,0.4-0.8,0.6c0.1,2.7-0.2,5.5,0.5,8.1c2.1,7.7,7.2,13.1,14.4,16.5
		c4,1.9,8,1.8,12,0c1.5-0.7,3-1.5,4.3-2.5c6.7-5.1,11.2-11.4,10.5-20.3c0-0.6-0.1-1.1,0-1.7c0.1-0.9-0.3-1.4-1.1-1.8
		C85.4,40.2,81.4,37.8,79.5,33.4z M48.1,40.4c3.2-0.7,6.4-1.2,9.5-2c7.3-1.9,14.3-4.5,20.7-8.7c1.8-1.2,2.9-2.8,3.2-4.8
		c0.3-1.4,0.3-2.9,0.3-4.4c-0.1-3.5-1.9-5.8-5-7c-4.8-1.9-9.7-1.7-14.6-0.4C49.8,16.2,44.6,30,48.1,40.4z M49.6,80.2
		c-3.6,1.3-7,2.4-10.4,3.7c-2.7,1-4.6,3-5.9,5.5c-1.2,2.5-1.7,5.2-1.7,8c0,9.6,0,19.3,0,28.9c0,0.4,0,0.8,0,1.2c2.7,0,5.3,0,7.8,0
		c0.1-0.3,0.2-0.5,0.2-0.7c1.1-7.4,2.1-14.8,3.2-22.2c0.4-2.8,0.8-5.6,1.2-8.4c0.4-2.5,1.9-3.8,4.5-3.9c0.3,0,0.6,0,0.9-0.1
		C49.6,88.3,49.6,84.4,49.6,80.2z M78.6,71.3c-6.1,3.4-12.1,3.3-18.2,0c0,1.5,0,2.7,0,3.9c-0.1,1.9,0.8,3.5,2.4,4.3
		c4.4,2.4,8.9,2.4,13.3,0c1.7-0.9,2.6-2.4,2.5-4.4C78.6,74.1,78.6,72.9,78.6,71.3z M91,39.3c0.3-3.7,0.7-7.2,0.8-10.7
		c0-2.8-1-5.4-3.1-7.4c-0.9-0.9-2.1-1.6-3.1-2.3c-0.2,0.9-0.1,1.6-0.1,2.2c0.1,3.3-0.4,6.4-2.4,9.1c-0.5,0.7-0.6,1.3-0.2,2.1
		C84.5,35.6,87.6,37.3,91,39.3z M44.9,44.1c-2.5-0.1-4.3,1.5-4.4,4c-0.1,3,2.3,5.6,4.9,5.6C45.2,50.5,45,47.3,44.9,44.1z M93.7,53.8
		c1.5-0.2,2.8-0.9,3.8-2.2c1.2-1.7,1.6-3.5,0.6-5.4c-0.8-1.5-2.2-2.1-3.9-2.1C94,47.3,93.9,50.4,93.7,53.8z"/>
	<path class="st6" d="M60.3,118.1L60.3,118.1L60.3,118.1c0,2.2,0.8,3.9,2.2,4.8c1.3,1,3.1,1.2,4.9,0.5c1.5-0.6,2.7-0.6,4.3,0
		c3.7,1.4,7.3-1.2,7.1-4.9l0,0c-0.1-1.7-0.7-3.2-2-4.5l0,0c-1.2-1.2-2.5-2.4-3.8-3.5c-1.1-1-2.3-1.5-3.5-1.5c-1.2,0-2.4,0.5-3.5,1.5
		c-1.2,1.1-2.4,2.2-3.6,3.3l0,0l0,0C61,115.2,60.3,116.8,60.3,118.1z M69.6,118.8L69.6,118.8L69.6,118.8c-0.5,0.1-0.9,0.2-1.2,0.4
		c-0.1,0-0.2,0.1-0.3,0.1c-0.5,0.1-1,0.3-1.4,0.4c-0.4,0-0.8,0.1-1.2,0.1c-0.2,0-0.4,0-0.5-0.1c-0.1,0-0.2-0.1-0.3-0.1
		c-0.2-0.2-0.3-0.7-0.3-1.1c0-0.2,0-0.4,0.1-0.6c0-0.2,0.1-0.3,0.2-0.4l0,0l0,0c1.3-1.6,2.9-2.9,4.5-4.3c0,0,0.1-0.1,0.2-0.1
		c0.1,0,0.2,0,0.4,0c0.3,0,0.6,0.1,0.7,0.3l0,0l0,0c1.2,1,2.3,2,3.4,3.1c0.1,0.1,0.2,0.2,0.4,0.4l0,0l0,0c0.1,0.1,0.2,0.3,0.3,0.4
		c0.1,0.2,0.2,0.3,0.2,0.4c0,0.1,0,0.1,0,0.2c0,0.3,0,0.6,0,0.9c0,0.2,0,0.3-0.1,0.5c0,0.1-0.1,0.2-0.2,0.3
		c-0.1,0.1-0.2,0.1-0.3,0.2c-0.1,0-0.3,0.1-0.5,0.1c-0.4,0-0.7,0-1.1-0.1h0c-0.7-0.1-1.4-0.4-2.2-0.6
		C70.2,119,69.9,118.9,69.6,118.8z"/>
	<path class="st6" d="M81.3,105.5l0-0.1c-0.3-0.1-0.7-0.2-1-0.1c-0.4,0-0.7,0.1-1,0.3l0,0h0c-0.8,0.4-1.5,1.2-1.9,1.9h0l0,0
		c-0.2,0.3-0.2,0.6-0.3,1c0,0.4,0,0.7,0.2,1c0.1,0.3,0.4,0.5,0.7,0.7c0.3,0.2,0.6,0.3,0.9,0.3v0h0c0.3,0,0.7-0.1,1-0.3
		c0.4-0.2,0.8-0.6,1.1-0.9c0.3-0.4,0.7-0.8,0.9-1.2c0.2-0.4,0.4-0.9,0.4-1.3v0l0,0c0-0.1-0.1-0.1-0.2-0.2c0,0,0,0,0,0
		c-0.1-0.1-0.1-0.2-0.2-0.3c-0.2-0.2-0.4-0.5-0.6-0.6L81.3,105.5z M81.3,105.5c-0.5-0.2-1.4-0.1-1.9,0.1l2.8,1
		c-0.1-0.1-0.1-0.2-0.2-0.3C81.9,106,81.6,105.6,81.3,105.5z"/>
	<path class="st6" d="M69.5,106.3L69.5,106.3c0.6,0,1.1-0.2,1.4-0.7c0.3-0.5,0.4-1.2,0.4-2.1c0-0.1,0-0.2,0-0.3c0-0.3,0-0.6,0-1
		c0-0.5-0.2-1-0.5-1.3c-0.3-0.3-0.7-0.5-1.3-0.6c-0.5-0.1-1,0.1-1.3,0.4c-0.4,0.3-0.6,0.7-0.7,1.3c-0.1,0.4-0.1,0.7-0.1,1.1
		c0,0.1,0,0.2,0,0.3c0,1,0.2,1.7,0.5,2.2C68.4,106.1,68.9,106.3,69.5,106.3z"/>
	<path class="st6" d="M62,108.4L62,108.4c0-0.3-0.2-0.7-0.4-1c-0.2-0.4-0.6-0.7-0.9-1.1c-0.4-0.3-0.7-0.7-1.1-0.9
		c-0.4-0.2-0.7-0.4-1-0.4c-1.4,0-2.4,1.6-1.6,2.8h0c0.6,0.9,1.4,1.6,2.2,2.2c0.6,0.4,1.3,0.4,1.9,0C61.6,109.8,62,109.2,62,108.4z"
		/>
	<path class="st6" d="M69.9,63.5L69.9,63.5c-2.3,0-4-0.7-5.5-2l0,0c-0.4-0.4-0.7-0.9-0.7-1.4c0-0.5,0.1-1,0.5-1.4
		c0.3-0.4,0.8-0.6,1.3-0.7c0.5,0,1,0.1,1.5,0.5l0,0l0,0c1.1,0.8,1.9,1.2,2.7,1.2c0.8,0,1.6-0.4,2.8-1.2c0.5-0.3,0.9-0.5,1.4-0.4
		c0.5,0,0.9,0.2,1.2,0.6L69.9,63.5z M69.9,63.5c1.7,0,3.4-0.7,4.8-2.1 M69.9,63.5l4.8-2.1 M74.7,61.4c0.4-0.4,0.7-0.9,0.7-1.4
		c0-0.5-0.1-1-0.5-1.4L74.7,61.4z"/>
	<path class="st6" d="M62.1,46.3L62.1,46.3L62.1,46.3c-0.2-1.1-1-1.8-2-1.7c-0.5,0.1-0.9,0.2-1.3,0.6c-0.3,0.3-0.5,0.7-0.5,1.3
		c0,0.2,0,0.5,0,0.7c0,0.1,0,0.2,0,0.3v0v0v0v0v0v0v0v0v0v0v0v0v0v0v0v0v0v0v0v0v0v0v0v0v0v0v0v0v0v0v0v0v0v0v0v0v0v0v0v0v0v0v0v0v0
		v0v0v0v0v0v0v0v0v0v0v0v0v0v0v0v0v0v0v0v0v0v0v0v0v0v0v0v0v0v0v0v0v0v0v0v0v0v0v0v0v0v0v0v0v0v0v0v0v0v0v0v0v0v0v0v0v0v0v0v0v0v0v0
		v0v0v0v0v0v0v0v0v0v0v0v0v0v0v0v0v0v0v0v0v0v0v0v0v0v0v0v0v0v0v0v0v0v0v0v0v0v0v0v0v0v0v0v0v0v0v0v0v0v0v0v0v0v0v0v0v0v0v0v0v0v0v0
		v0v0v0v0v0v0v0v0v0v0v0v0v0v0v0v0v0v0v0v0v0v0v0v0v0v0v0v0v0v0v0v0v0v0v0v0v0v0v0v0v0v0v0v0v0v0v0v0v0v0v0v0v0v0v0v0v0v0v0v0v0v0v0
		v0v0v0v0v0v0v0v0v0v0v0v0v0v0v0v0v0v0v0v0v0v0v0v0v0v0v0v0v0v0v0v0v0v0v0v0v0v0v0v0v0v0v0v0v0v0v0v0v0v0v0v0v0v0v0v0v0v0v0v0v0v0v0
		v0v0v0v0v0v0v0v0v0v0v0v0v0v0v0v0v0v0v0v0v0v0v0v0v0v0v0v0v0v0v0v0v0v0v0v0v0v0v0v0v0v0v0v0v0v0v0v0v0v0v0v0v0v0v0v0v0v0v0v0v0v0v0
		v0v0v0v0v0v0v0v0v0v0v0v0v0v0v0v0v0v0v0v0v0v0v0v0v0v0v0v0v0v0v0v0v0v0v0v0v0v0v0v0v0v0v0v0v0v0v0v0v0v0v0v0v0v0v0v0v0v0v0v0v0v0v0
		v0v0v0v0v0v0v0v0v0v0v0v0v0v0v0v0v0v0v0v0v0v0v0v0v0v0v0v0v0v0v0v0v0v0v0v0v0v0v0v0v0v0v0v0v0v0v0v0v0v0v0v0v0v0v0v0v0v0v0v0v0v0v0
		v0v0v0v0v0v0v0v0v0v0v0v0v0v0v0v0v0v0v0v0v0v0v0v0v0v0h0l0,0c0,0.6,0.2,1.2,0.5,1.5c0.3,0.4,0.8,0.6,1.3,0.6c0.5,0,1-0.2,1.4-0.5
		c0.3-0.4,0.6-0.9,0.6-1.5l0,0l0,0C62.2,47.5,62.2,46.9,62.1,46.3z"/>
	<path class="st6" d="M80.8,47.2l0,0.1c0,0.1,0,0.3,0,0.4c0,0.1,0,0.1,0,0.2c0,0.2,0,0.4-0.1,0.6l0,0c-0.2,0.3-0.4,0.6-0.7,0.8
		c-0.3,0.3-0.5,0.5-0.9,0.6l0,0c-0.9,0.3-1.8-0.2-2-1.2l0,0l0,0c-0.2-1-0.2-2,0-3c0.1-0.5,0.3-0.8,0.7-1c0.4-0.2,0.8-0.3,1.3-0.2
		c0.5,0.1,0.9,0.2,1.1,0.5c0.3,0.3,0.5,0.7,0.5,1.1c0,0,0,0,0,0l-0.1,0c0,0.2,0,0.5,0,0.7c0,0.1,0,0.2,0,0.2H80.8z M80.8,47.2
		L80.8,47.2L80.8,47.2z"/>
	<path class="st1" d="M74.8,117.7c0-0.3-0.3-0.7-0.6-0.9c-0.1-0.1-0.3-0.2-0.4-0.4c-1.1-1.1-2.2-2.1-3.4-3.1
		c-0.4-0.3-1.2-0.4-1.5-0.2L74.8,117.7z M74.8,117.7c0,0.1,0,0.2,0,0.3c0.1,0.6,0.1,1.4-0.2,1.7c-0.4,0.4-1.3,0.3-2,0.2 M74.8,117.7
		l-2.2,2.2 M72.6,119.8l0,0.1c0,0,0,0,0,0c0.3,0.1,0.7,0.1,1.1,0.1c0.4,0,0.7-0.1,1-0.3c0.1-0.1,0.2-0.3,0.2-0.4
		c0-0.2,0.1-0.3,0.1-0.5c0-0.3,0-0.6,0-0.8c0-0.1,0-0.2,0-0.3v0c0-0.2-0.1-0.4-0.2-0.5c-0.1-0.2-0.2-0.3-0.4-0.4l0,0l0,0
		c-0.1-0.1-0.3-0.2-0.4-0.4c-1.1-1.1-2.2-2.1-3.4-3.1l0,0l0,0c-0.2-0.2-0.5-0.3-0.8-0.3c-0.2,0-0.3,0-0.4,0c-0.1,0-0.3,0-0.4,0.1
		l0,0l0,0c-1.6,1.3-3.2,2.7-4.5,4.3 M72.6,119.8c-0.7-0.1-1.4-0.3-2-0.6c-0.3-0.1-0.7-0.2-1-0.3c-0.3,0.1-0.6,0.2-0.9,0.3
		c-0.7,0.2-1.4,0.4-2.1,0.5c-0.7,0.1-1.9,0.2-2.2-0.1c-0.4-0.6-0.4-1.8,0-2.3l-0.1-0.1c0,0,0,0,0,0 M64.4,117.3
		c-0.1,0.1-0.2,0.3-0.3,0.5c-0.1,0.2-0.1,0.4-0.1,0.7c0,0.4,0.1,0.9,0.3,1.2c0.1,0.1,0.2,0.2,0.4,0.3c0.2,0,0.4,0.1,0.6,0.1
		c0.4,0,0.9-0.1,1.3-0.1c0.7-0.1,1.4-0.3,2.1-0.6c0.3-0.1,0.5-0.2,0.8-0.3L64.4,117.3z"/>
	<path class="st7" d="M113.8,21.2L113.8,21.2L113.8,21.2L113.8,21.2L113.8,21.2L113.8,21.2L113.8,21.2L113.8,21.2L113.8,21.2
		L113.8,21.2L113.8,21.2L113.8,21.2L113.8,21.2l-0.1,0h0h0h0h0h0h0h0h0h0h0h0h0h0h0h0h0h0h0h0h0h0h0h0h0h0h0h0h0h0h0h0h0h0h0h0h0h0
		h0h0h0h0h0h0h0h0h0h0h0h0h0h0h0h0h0h0h0h0h0h0h0h0h0h0h0h0h0h0h0h0h0h0h0h0h0h0h0h0h0h0h0h0h0h0h0h0h0h0h0h0h0h0h0h0h0h0h0h0h0h0h0
		h0h0h0h0h0h0h0h0h0h0h0h0h0h0h0h0h0h0h0h0h0h0h0h0h0h0h0h0h0h0h0h0h0h0h0h0h0h0h0h0h0h0h0h0h0h0h0h0h0h0h0h0h0h0h0h0h0h0h0h0h0h0h0
		h0h0h0h0h0h0h0h0h0h0h0h0h0h0h0h0h0h0h0h0h0h0h0h0h0h0h0h0h0h0h0h0h0h0h0h0h0h0h0h0h0h0h0h0h0h0h0h0h0h0h0h0h0h0h0h0h0h0h0h0h0h0h0
		h0h0h0h0h0h0h0h0h0h0h0h0h0h0h0h0h0h0h0h0h0h0h0h0h0h0h0h0h0h0h0h0h0h0h0h0h0h0h0h0h0h0h0h0h0h0h0h0h0h0h0h0h0h0h0h0h0h0h0h0h0h0h0
		h0h0h0h0h0h0h0h0h0h0h0h0h0h0h0h0h0h0h0h0h0h0h0h0h0h0h0h0h0h0h0h0h0h0h0h0h0h0h0h0h0h0h0h0h0h0h0h0h0h0h0h0h0h0h0h0h0h0h0h0h0h0h0
		h0h0h0h0h0h0h0h0h0h0h0h0h0h0h0h0h0h0h0h0h0h0h0h0h0h0h0h0h0h0h0h0h0h0h0h0h0h0h0h0h0h0h0h0h0h0h0h0h0h0h0h0h0h0h0h0h0h0h0h0h0h0h0
		h0h0h0h0h0h0h0h0h0h0h0h0h0h0h0h0h0h0h0h0h0h0h0h0h0h0h0h0h0h0h0h0h0h0h0h0h0h0h0h0h0h0h0h0h0h0h0h0h0h0h0h0h0h0h0h0h0h0h0h0h0h0h0
		h0h0h0h0h0h0h0h0h0h0h0h0h0h0h0h0h0h0h0h0h0h0h0h0l0,0c-0.8,0.3-1.1,0.9-1.2,1.6c-0.9,3.5-3,6.2-6.2,7.8l0,0
		c-0.7,0.3-1.4,0.6-2.1,0.8c-0.3,0.1-0.6,0.2-0.9,0.3c-1,0.3-1.5,1.5-0.8,2.4c0.3,0.4,0.8,0.5,1.1,0.6c0,0,0,0,0.1,0l0,0
		c3.6,0.9,6.2,3,7.9,6.3c0.3,0.7,0.6,1.4,0.8,2.2c0.1,0.2,0.1,0.4,0.2,0.7c0.2,0.5,0.5,0.9,1,1.1c0.4,0.2,1,0.1,1.4-0.2
		c0.5-0.3,0.6-0.8,0.7-1.2c0-0.1,0-0.1,0-0.2v0c0.9-3.5,3-6.1,6.2-7.8l0,0l0,0c0.7-0.4,1.4-0.6,2.2-0.8c0.3-0.1,0.5-0.2,0.8-0.2
		c0.4-0.1,0.7-0.3,0.9-0.6c0.2-0.3,0.3-0.7,0.3-1.1v0c-0.1-0.7-0.6-1.1-1.4-1.3c-4.7-1.2-7.7-4.2-9-8.9
		C114.8,22,114.4,21.5,113.8,21.2z M113.4,27.1c1.5,2.6,3.5,4.6,6.1,6.1c-2.6,1.4-4.7,3.5-6.1,6.1c-1.4-2.6-3.5-4.6-6.1-6.1
		C109.9,31.7,112,29.7,113.4,27.1z"/>
	<path class="st8" d="M24.7,65.9c1.7-1.2,2.8-2.8,3.3-4.8c0.2-1,0.7-1.4,1.4-1.4c0.7,0,1.1,0.5,1.4,1.4c0.9,3.2,2.9,5.2,6.1,6.1
		 M24.7,65.9l-0.1-0.2c0,0,0,0,0,0 M24.7,65.9l-0.1-0.2c0,0,0,0,0,0 M24.7,65.9c-0.9,0.7-2,1.1-3.1,1.3c-0.8,0.2-1.3,0.9-1.1,1.6
		c0.2,0.6,0.6,0.9,1.3,1.1L37,70c0.9-0.2,1.3-0.7,1.2-1.5 M24.6,65.8c1.6-1.2,2.7-2.7,3.2-4.6v0c0.1-0.5,0.3-0.9,0.6-1.2
		c0.3-0.3,0.6-0.4,1-0.4c0.4,0,0.7,0.1,1,0.4c0.3,0.3,0.4,0.7,0.6,1.1l0,0l0,0c0.9,3.1,2.9,5.1,6,5.9 M24.6,65.8
		c-0.9,0.6-1.9,1.1-3,1.3l0,0c-0.9,0.2-1.4,1-1.2,1.9c0.2,0.7,0.8,1.1,1.4,1.2l0,0c2.1,0.5,3.7,1.6,4.9,3.3l0,0l0,0
		c0.6,0.9,1,1.8,1.2,2.8c0.2,0.8,0.8,1.3,1.5,1.3c0.4,0,0.7-0.1,1-0.4c0.3-0.2,0.4-0.6,0.5-1c0.5-1.9,1.4-3.4,3-4.6
		c0.9-0.7,2-1.2,3.1-1.5c0.5-0.1,0.8-0.3,1.1-0.6c0.2-0.3,0.4-0.7,0.3-1.1 M37,67C37,67,37,67,37,67l-0.1,0.2 M37,67
		C37,67,37,67,37,67l-0.1,0.2 M37,67c0.4,0.1,0.8,0.3,1,0.5c0.3,0.2,0.4,0.5,0.4,0.9 M36.9,67.2c0.8,0.2,1.3,0.6,1.3,1.2 M38.3,68.5
		l0.2,0c0,0,0,0,0,0 M38.3,68.5l0.2,0c0,0,0,0,0,0 M32.9,68.6c-1.4,0.9-2.6,2-3.5,3.5c-0.9-1.4-2-2.6-3.5-3.5c1.4-0.9,2.5-2,3.5-3.5
		C30.3,66.5,31.5,67.7,32.9,68.6z"/>
</g>
<g id="圖層_2">
	<g>
		<path class="st9" d="M53,92.1c0-4.1-0.2-8,0.1-11.8c0.1-1,1.9-1.9,2.9-2.9c5.4,7.1,12.3,9.3,19.5,6.2c2.1-0.9,3.7-3,5.6-4.4
			c0.7-0.5,1.7-1.2,2.3-1c0.9,0.3,2,1.3,2.1,2c0.2,3.9,0.1,7.7,0.1,12c-3.7,0-7-0.2-10.3,0.1c-1.2,0.1-2.3,1.3-3.5,2
			c1.1,0.6,2.3,1.7,3.4,1.8c4.3,0.2,8.7,0,13,0.2c1,0,2.7,1,2.8,1.8c1.5,9.5,2.8,19.1,4.2,28.9c-17.3,0-34.2,0-52,0
			c1.4-10.2,2.9-20.2,4.4-30.7c4.1,0,8.1,0,12,0c1.7,0,3.4,0.2,5-0.1c0.9-0.2,1.5-1.3,2.3-2c-0.8-0.7-1.5-1.8-2.4-1.9
			c-2.5-0.3-5.1-0.1-7.7-0.2C55.8,92.2,54.6,92.1,53,92.1z M78.7,118.7c0-3.2-3.2-7.5-7.2-9.1c-1.3-0.5-3.5-0.5-4.6,0.2
			c-2.3,1.5-4.6,3.4-5.9,5.7c-0.9,1.6-0.9,4.5,0.1,6c0.8,1.4,3.4,1.9,5.3,2.3c2,0.4,4.1,0,6.2,0.2C76.1,124.3,78.7,122.2,78.7,118.7
			z M58.3,103.7c-1,1.7-2.1,3-1.8,3.3c1,1.3,2.4,2.3,3.6,3.4c0.6-0.7,1.7-1.7,1.6-2.1C60.9,106.9,59.8,105.6,58.3,103.7z M83.4,107
			c-1.5-1.1-2.7-2.3-3-2.1c-1.3,0.8-2.4,2-3.3,3.2c-0.1,0.2,1.5,2.2,1.7,2.1C80.1,109.5,81.4,108.4,83.4,107z M72.2,103.1
			c-1.2-1.2-2-2-2.9-2.9c-0.7,1-2.1,2-2.1,3c0,1,1.3,2.1,2,3.1C70.2,105.4,71,104.4,72.2,103.1z"/>
		<path class="st10" d="M86.4,94.1H46.6l-6.3,35.4h58.1l-5.6-34.2C92.8,95.3,91.6,94.1,86.4,94.1z"/>
		<path class="st11" d="M94.5,39.8c0.7,0.3,1.2,0.5,1.7,0.7c4,1.5,6.1,4,6.1,7.4c0,3.8-2.7,7.9-6.6,8.7c-3,0.7-4.7,2.3-6.3,4.8
			c-1.4,2.2-3.4,4.1-5.3,6c-3.3,3.2-2.8,6.1,1.5,7.5c4.5,1.6,9,3.2,13.6,4.7c7.4,2.5,11.3,7.7,11.7,15.4c0.2,3.6,0.3,7.1,0.1,10.7
			c0,0.9-1.2,1.7-1.8,2.5c-0.5-0.8-1.5-1.6-1.5-2.5c-0.2-2.8-0.1-5.6-0.2-8.3c-0.2-8.2-2.9-11.9-10.5-14.7c-2.2-0.8-4.4-1.5-7-2.5
			c0,4,0,7.7,0,11.8c4.3-0.1,5,3.2,5.5,6.7c1.2,8.5,2.4,17,3.6,25.5c0.5,3.5,0.9,3.6,6,3.4c2.9-0.1,2.4-2.1,2.4-3.8
			c0.1-2.7-0.1-5.4,0.1-8c0.1-0.9,1.2-1.7,1.9-2.6c0.5,0.9,1.4,1.7,1.5,2.6c0.2,4,0.1,8,0.1,12c0,2.2-1.2,3.2-3.3,3.3
			c-0.7,0-1.3,0-2,0c-24,0-48,0-71.9,0c-5.6,0-6-0.4-6-5.8c0-10.2,0-20.5,0.3-30.7C28.1,87.5,32,82.6,38.7,80
			c4.9-1.9,9.9-3.5,14.8-5.3c3.6-1.3,4.2-3.8,1.8-6.8c-2.6-3.2-5.1-6.4-7.9-9.4c-0.9-1-2.7-1.3-4.1-1.8c-3.5-1.1-5.8-3.4-6.5-7
			c-0.6-3.1,0.1-6,2.9-8c0.4-0.3,0.7-0.6,1.1-0.7c2.9-0.5,2.8-2.4,2.5-4.7c-0.9-8.1,1.4-15.2,7.1-21.1c6.7-7,20-9.4,28.6-5
			c3.8,2,7.4,4.4,10.9,6.9c4.2,3,5.6,7.3,5.4,12.3C95.1,32.9,94.7,36.3,94.5,39.8z M53,92.1c1.6,0.1,2.8,0.2,4,0.2
			c2.6,0,5.1-0.1,7.7,0.2c0.8,0.1,1.6,1.2,2.4,1.9c-0.7,0.7-1.4,1.8-2.3,2c-1.6,0.3-3.3,0.1-5,0.1c-4,0-8,0-12,0
			c-1.5,10.5-2.9,20.5-4.4,30.7c17.7,0,34.7,0,52,0c-1.4-9.8-2.7-19.4-4.2-28.9c-0.1-0.8-1.8-1.8-2.8-1.8c-4.3-0.2-8.7,0-13-0.2
			c-1.2-0.1-2.3-1.2-3.4-1.8c1.2-0.7,2.3-1.9,3.5-2c3.3-0.3,6.6-0.1,10.3-0.1c0-4.3,0.1-8.2-0.1-12c0-0.7-1.2-1.7-2.1-2
			c-0.6-0.2-1.6,0.5-2.3,1c-1.9,1.4-3.5,3.5-5.6,4.4c-7.2,3.1-14,0.9-19.5-6.2c-1,1-2.8,1.8-2.9,2.9C52.8,84.1,53,87.9,53,92.1z
			 M78.2,33.7c-8.3,4.6-17.7,7.9-27.7,9.6c-0.9,0.2-2,1.9-2,3C47.9,57,56.7,68,67.2,69.7c2,0.3,4.3,0.1,6.2-0.4
			c10.3-3.1,17.5-13.4,16.9-24.1c-0.1-1.2-1-2.6-1.9-3.4C85.3,39.1,82,36.7,78.2,33.7z M47.9,40c10.7-1.8,20.5-4.7,29.5-10.2
			c4-2.4,4.4-6.1,4.2-10.2c-0.2-3.3-1.9-5.5-4.9-6.5c-8.3-2.9-16.2-1.9-22.8,4C47.2,23.2,45.4,31,47.9,40z M31.4,127.4
			c1.4,0.1,2.5,0,3.5,0.2c3.3,0.5,4.6-0.8,5-4.2c0.9-8.2,2.3-16.3,3.4-24.4c0.5-3.6,1-7.1,5.7-6.9c0-4.1,0-7.7,0-11.8
			c-2.8,1-5.3,1.8-7.8,2.7c-6.7,2.2-9.7,5.7-9.9,12.6C31.2,106,31.4,116.5,31.4,127.4z M60.6,71.5c-0.8,4.7-0.3,6.6,2.1,7.9
			c4.6,2.5,9.3,2.4,13.7-0.3c2.7-1.7,2.3-4.5,1.6-7.6C72.2,74.3,66.5,74.2,60.6,71.5z M90.4,38.8c2.3-9.5,1.9-18.3-4.5-19.1
			c-0.6,2.8-0.7,5.9-2.1,8.3c-1.8,3.2-0.8,5.2,1.5,7.2C86.7,36.4,88.4,37.4,90.4,38.8z M44.6,44.1c-3,0-4.3,1.4-4.3,3.6
			c0,2.7,1.1,4.9,4.3,5.4C44.6,50.1,44.6,47.2,44.6,44.1z M93.7,53.4c3.4-1.2,5.1-2.9,4.7-5.9c-0.3-2-1.3-3.8-4.2-3.3
			C94,47.2,93.9,50,93.7,53.4z"/>
		<path class="st11" d="M125.8,32.9c-1,0.7-1.6,1.4-2.3,1.7c-4.2,1.4-7.1,4-8.4,8.3c-0.2,0.7-1.1,1.6-1.7,1.7
			c-0.5,0.1-1.5-0.9-1.7-1.6c-1.4-4.3-4.2-7.2-8.6-8.6c-0.7-0.2-1.1-1.1-1.7-1.8c0.6-0.6,1.1-1.4,1.8-1.6c4.2-1.5,7.1-4.1,8.4-8.4
			c0.2-0.7,1.1-1.4,1.8-1.5c0.4-0.1,1.4,0.7,1.6,1.3c1.4,4.5,4.4,7.4,8.9,8.8C124.5,31.4,124.9,32.2,125.8,32.9z M109.2,32.6
			c1.2,1.6,2.7,3.6,3.7,4.9c1.9-1.6,3.7-3.2,5-4.4c-1.4-1.7-3.1-3.5-4.3-4.9C112,29.8,110.3,31.4,109.2,32.6z"/>
		<path class="st11" d="M38.9,68.3c-1.1,0.8-1.8,1.3-2.4,1.8c-1.9,1.7-3.7,3.5-5.6,5.3c-0.7,0.6-1.3,1.3-1.9,2
			c-0.6-0.6-1.1-1.3-1.7-1.9c-1.8-1.8-3.7-3.6-5.5-5.3c-0.6-0.6-1.2-1.2-1.9-1.7c0.6-0.7,1.3-1.3,1.9-2c1.8-1.7,3.5-3.4,5.3-5.2
			c0.7-0.7,1.2-1.4,1.9-2.1c0.6,0.6,1.3,1.3,1.9,1.9c1.8,1.8,3.7,3.6,5.5,5.4C37,67.2,37.7,67.6,38.9,68.3z"/>
		<path class="st9" d="M47.9,40c-2.4-9-0.7-16.8,6-22.8c6.6-5.9,14.5-6.9,22.8-4c3,1,4.8,3.2,4.9,6.5c0.2,4-0.2,7.7-4.2,10.2
			C68.4,35.3,58.5,38.2,47.9,40z"/>
		<path class="st9" d="M31.4,127.4c0-10.9-0.2-21.4,0.1-31.8c0.2-6.9,3.2-10.4,9.9-12.6c2.5-0.8,5-1.7,7.8-2.7c0,4.1,0,7.8,0,11.8
			c-4.8-0.2-5.3,3.3-5.7,6.9c-1.1,8.2-2.5,16.3-3.4,24.4c-0.4,3.4-1.7,4.7-5,4.2C33.9,127.4,32.8,127.5,31.4,127.4z"/>
		<path class="st9" d="M60.6,71.5c5.9,2.7,11.6,2.7,17.4,0c0.7,3.1,1.1,5.9-1.6,7.6c-4.4,2.8-9.1,2.8-13.7,0.3
			C60.3,78.1,59.8,76.2,60.6,71.5z"/>
		<path class="st9" d="M90.4,38.8c-1.9-1.4-3.6-2.4-5.1-3.7c-2.3-2-3.3-4-1.5-7.2c1.3-2.4,1.4-5.5,2.1-8.3
			C92.2,20.5,92.7,29.3,90.4,38.8z"/>
		<path class="st9" d="M44.6,44.1c0,3.2,0,6,0,9c-3.2-0.5-4.4-2.7-4.3-5.4C40.3,45.5,41.6,44,44.6,44.1z"/>
		<path class="st9" d="M93.7,53.4c0.2-3.3,0.3-6.2,0.5-9.1c2.9-0.5,3.9,1.2,4.2,3.3C98.7,50.5,97.1,52.2,93.7,53.4z"/>
		<path class="st10" d="M109.2,32.6c1.1-1.1,2.8-2.7,4.5-4.4c1.2,1.4,2.8,3.3,4.3,4.9c-1.3,1.2-3.2,2.7-5,4.4
			C111.9,36.1,110.4,34.1,109.2,32.6z"/>
		<path class="st11" d="M78.7,118.7c0,3.5-2.6,5.6-6.1,5.3c-2-0.2-4.2,0.2-6.2-0.2c-1.9-0.4-4.5-0.9-5.3-2.3c-0.9-1.5-1-4.5-0.1-6
			c1.3-2.3,3.6-4.2,5.9-5.7c1.1-0.7,3.3-0.7,4.6-0.2C75.5,111.2,78.7,115.5,78.7,118.7z M64.6,119.1c3.2,0,6.3,0,9.6,0
			c-0.8-2.9-3.6-5.8-5.2-5.7C67.2,113.5,64.7,116.8,64.6,119.1z"/>
		<path class="st11" d="M58.3,103.7c1.5,2,2.6,3.2,3.4,4.6c0.2,0.3-1,1.4-1.6,2.1c-1.2-1.1-2.6-2.1-3.6-3.4
			C56.2,106.7,57.3,105.3,58.3,103.7z"/>
		<path class="st11" d="M83.4,107c-1.9,1.4-3.2,2.4-4.7,3.2c-0.2,0.1-1.8-1.9-1.7-2.1c0.9-1.3,2.1-2.4,3.3-3.2
			C80.7,104.7,81.9,105.9,83.4,107z"/>
		<path class="st11" d="M72.2,103.1c-1.2,1.4-2,2.3-2.9,3.2c-0.7-1-2-2.1-2-3.1c0-1,1.3-2,2.1-3C70.2,101,71,101.8,72.2,103.1z"/>
		<path class="st11" d="M63.1,46.6c0,1.2-0.9,2.1-2.1,2.1c-1.2,0-2.1-0.9-2.1-2.1c0-1.2,0.9-2.1,2.1-2.1
			C62.2,44.5,63.1,45.5,63.1,46.6z"/>
		<path class="st11" d="M81.6,46.6c0,1.2-0.9,2.1-2.1,2.1c-1.2,0-2.1-0.9-2.1-2.1c0-1.2,0.9-2.1,2.1-2.1
			C80.6,44.5,81.6,45.5,81.6,46.6z"/>
		<g>
			<path class="st11" d="M69.7,63.5c-3.6,0-6.5-2.4-6.5-5.4c0-0.7,0.6-1.3,1.3-1.3c0.7,0,1.3,0.6,1.3,1.3c0,1.5,1.7,2.8,3.8,2.8
				c2.1,0,3.8-1.3,3.8-2.8c0-0.7,0.6-1.3,1.3-1.3c0.7,0,1.3,0.6,1.3,1.3C76.2,61,73.3,63.5,69.7,63.5z"/>
		</g>
	</g>
</g>
</svg>
