<svg id="tag_icon" data-name="tag icon" xmlns="http://www.w3.org/2000/svg" width="10.835" height="14.599" viewBox="0 0 10.835 14.599">
  <path id="Path_685" data-name="Path 685" d="M-78.868,3.151c.024-.1.045-.2.073-.3a1.994,1.994,0,0,1,1.918-1.464c.408,0,.817,0,1.226,0,.216,0,.349.114.346.29s-.133.279-.343.279c-.4,0-.8,0-1.2,0A1.421,1.421,0,0,0-78.3,3.407q0,5.794,0,11.588v.125c.063-.045.108-.075.151-.108l2.713-2.035c.245-.184.3-.183.55,0L-72.193,15c.048.036.1.07.167.12V14.93q0-5.659,0-11.317a2.288,2.288,0,0,1,.573-1.608.315.315,0,0,0,.027-.051H-72.96c-.218,0-.35-.111-.348-.289s.131-.281.34-.281c.983,0,1.967,0,2.951,0a1.989,1.989,0,0,1,1.981,1.978c.006,1.468,0,2.936,0,4.4,0,.242-.1.344-.35.344h-3.071v.17q0,3.656,0,7.312a.385.385,0,0,1-.2.387h-.171c-.076-.055-.154-.109-.229-.165q-1.5-1.122-2.991-2.247a.154.154,0,0,0-.23,0c-.149.124-.309.236-.465.352L-78.5,15.981h-.37Q-78.868,9.566-78.868,3.151Zm10.25,4.384a.18.18,0,0,0,.011-.038c0-1.4.018-2.8-.007-4.2a1.4,1.4,0,0,0-1.951-1.229,1.445,1.445,0,0,0-.888,1.421c-.01,1.316,0,2.631,0,3.947,0,.032,0,.064,0,.1Z" transform="translate(78.868 -1.382)" fill="#fff"/>
  <path id="Path_686" data-name="Path 686" d="M-68.336,26.061a1.142,1.142,0,0,1,1.156-.337,1.081,1.081,0,0,1,.79,1.375,2.731,2.731,0,0,1-.765,1.2c-.31.306-.649.582-.979.868a.271.271,0,0,1-.366.028,5.82,5.82,0,0,1-1.534-1.548,2.18,2.18,0,0,1-.267-.637,1.041,1.041,0,0,1,.521-1.172,1.171,1.171,0,0,1,1.331.121Zm0,2.543a5.248,5.248,0,0,0,1.167-1.188,1.934,1.934,0,0,0,.237-.511.494.494,0,0,0-.355-.62.605.605,0,0,0-.76.379c-.059.132-.134.23-.291.229s-.231-.1-.289-.233a.83.83,0,0,0-.157-.234.59.59,0,0,0-.721-.089.5.5,0,0,0-.224.627,1.836,1.836,0,0,0,.21.432A5.386,5.386,0,0,0-68.338,28.6Z" transform="translate(72.044 -20.809)" fill="#fff"/>
  <path id="Path_687" data-name="Path 687" d="M-56.979,1.681a.287.287,0,0,1-.294.282.287.287,0,0,1-.274-.286.287.287,0,0,1,.293-.281A.287.287,0,0,1-56.979,1.681Z" transform="translate(61.825 -1.392)" fill="#fff"/>
  <path id="Path_688" data-name="Path 688" d="M-66.073,30.873a5.386,5.386,0,0,1-1.182-1.208,1.836,1.836,0,0,1-.21-.432.5.5,0,0,1,.223-.627.59.59,0,0,1,.721.089.831.831,0,0,1,.157.234c.058.132.132.232.288.233s.232-.1.291-.229a.6.6,0,0,1,.76-.379.494.494,0,0,1,.355.62,1.933,1.933,0,0,1-.237.511A5.248,5.248,0,0,1-66.073,30.873Z" transform="translate(69.779 -23.078)" fill="#2a2968"/>
</svg>
