<?xml version="1.0" encoding="utf-8"?>
<!-- Generator: Adobe Illustrator 26.0.2, SVG Export Plug-In . SVG Version: 6.00 Build 0)  -->
<svg version="1.1" xmlns="http://www.w3.org/2000/svg" xmlns:xlink="http://www.w3.org/1999/xlink" x="0px" y="0px"
	 viewBox="0 0 21 21" style="enable-background:new 0 0 21 21;" xml:space="preserve">
<style type="text/css">
	.st0{display:none;}
	.st1{display:inline;}
	.st2{fill:#2A2968;}
	.st3{fill:#FFDC55;}
	.st4{fill:#FF5809;}
	.st5{fill:#FFFFFF;}
</style>
<g id="圖層_1" class="st0">
	<g id="vjsjCl.tif" transform="translate(367.764 204.548)" class="st1">
		<g id="Group_393" transform="translate(-367.764 -204.548)">
			<path id="Path_624" class="st2" d="M0,9.6c0.1-0.4,0.1-0.8,0.2-1.2c0.6-3.5,3-6.3,6.3-7.6c4.1-1.7,8.9-0.5,11.7,3
				c1.4,1.6,2.2,3.6,2.4,5.7c0.2,1.7-0.1,3.5-0.9,5.1c0,0,0,0.1,0,0.1c0.5,0.4,0.8,0.8,1,1.4c0.8,1.8,0,3.9-1.8,4.7
				c-0.3,0.1-0.6,0.2-0.9,0.3c0,0-0.1,0-0.1,0H17c-0.3-0.1-0.6-0.1-0.9-0.3c-0.6-0.2-1.1-0.6-1.5-1.1c-0.1,0-0.1,0-0.2,0.1
				c-2.2,1-4.7,1.2-7,0.5c-3.8-1-6.6-4.1-7.3-8C0.1,11.8,0.1,11.4,0,11L0,9.6z M15.2,14.7c0.6-0.4,1.3-0.7,2-0.8
				c0.1,0,0.2-0.1,0.3-0.2c0.7-1.5,0.9-3.2,0.6-4.8c-0.8-4.3-5-7.1-9.3-6.3c0,0-0.1,0-0.1,0c-4.3,0.9-7,5.1-6.1,9.4
				c0.2,1,0.6,1.9,1.1,2.7c2.2,3.3,6.4,4.5,10,2.8c0.1,0,0.2-0.2,0.2-0.3c0-0.3,0.1-0.6,0.2-0.9c0.1-0.4,0.3-0.7,0.6-1.1
				c-0.1-0.1-0.2-0.2-0.4-0.3c-0.2-0.1-0.2-0.4-0.1-0.6c0,0,0,0,0,0c0.2-0.2,0.4-0.1,0.6,0c0,0,0,0,0,0
				C14.9,14.4,15.1,14.5,15.2,14.7L15.2,14.7z M19,14.2c1.9-4.1,0.6-9-3.1-11.6C11.8-0.3,6.2,0.4,3,4.2c-3.1,3.7-3,9.1,0.3,12.6
				c2.8,3,7.1,3.8,10.8,2.1L14,18.3c-4,1.8-8.8,0.4-11.1-3.4C0.8,11.4,1.3,7.1,4.1,4.2c2.8-2.9,7.2-3.4,10.6-1.4
				c1.6,0.9,2.9,2.4,3.6,4.2c0.9,2.2,0.9,4.8-0.1,7L19,14.2z M14.7,17.5c0,1.5,1.2,2.8,2.8,2.8c1.5,0,2.8-1.3,2.8-2.8c0,0,0,0,0,0
				c0-1.5-1.2-2.7-2.8-2.8C15.9,14.7,14.7,15.9,14.7,17.5C14.7,17.4,14.7,17.4,14.7,17.5L14.7,17.5z"/>
			<path id="Path_625" class="st3" d="M14.7,17.5c0-1.5,1.2-2.8,2.8-2.8c0,0,0,0,0,0c1.5,0,2.7,1.2,2.8,2.8c0,1.5-1.2,2.8-2.8,2.8
				c0,0,0,0,0,0C15.9,20.2,14.7,19,14.7,17.5z M17.8,17.1v-0.4c0-0.1,0-0.2,0-0.3c0-0.3-0.2-0.5-0.4-0.5S17,16,17,16.3
				c0,0.2,0,0.5,0,0.7c-0.2,0-0.5,0-0.7,0c-0.3,0-0.5,0.1-0.5,0.4s0.2,0.4,0.5,0.4c0.2,0,0.4,0,0.7,0c0,0.3,0,0.5,0,0.7
				c0,0.3,0.2,0.5,0.4,0.5s0.4-0.2,0.4-0.5c0-0.2,0-0.5,0-0.7h0.5c0.5,0,0.7-0.1,0.7-0.4s-0.2-0.4-0.7-0.4L17.8,17.1z"/>
			<path id="Path_626" class="st2" d="M10.7,8.1c0,0.1,0,0.3,0,0.4c-0.1,0.4,0.1,0.7,0.4,0.9c0.4,0.3,0.5,0.8,0.4,1.2
				c-0.1,0.1,0,0.3,0.1,0.3c0.7,0.7,1.4,1.4,2.1,2.1c0.1,0.1,0.2,0.2,0.2,0.4c0,0.1-0.1,0.3-0.2,0.3c-0.1,0-0.3,0-0.4,0
				c-0.1,0-0.2-0.1-0.3-0.2c-0.7-0.7-1.4-1.4-2-2c-0.1-0.1-0.2-0.1-0.3-0.1c-0.6,0.2-1.2-0.1-1.4-0.7c-0.2-0.6,0-1.2,0.5-1.5
				c0.1,0,0.2-0.2,0.2-0.3c0-0.6,0-1.2,0-1.8c0-0.3,0.1-0.5,0.4-0.5s0.4,0.2,0.4,0.5S10.7,7.8,10.7,8.1z M10.7,10.3
				c0-0.2-0.2-0.4-0.4-0.4c-0.2,0-0.4,0.2-0.4,0.4c0,0.2,0.2,0.4,0.4,0.4c0,0,0,0,0,0C10.5,10.7,10.7,10.5,10.7,10.3L10.7,10.3z"/>
			<path id="Path_627" class="st2" d="M10.7,4c0,0.1,0,0.3,0,0.4c0,0.2-0.2,0.4-0.4,0.4c0,0,0,0,0,0c-0.2,0-0.4-0.2-0.4-0.4
				c0-0.3,0-0.5,0-0.8c0-0.2,0.2-0.4,0.4-0.4c0,0,0,0,0,0c0.2,0,0.4,0.2,0.4,0.4C10.7,3.7,10.7,3.9,10.7,4z"/>
			<path id="Path_628" class="st2" d="M4,10.7c-0.1,0-0.3,0-0.4,0c-0.2,0-0.4-0.2-0.4-0.4c0,0,0,0,0,0c0-0.2,0.2-0.4,0.4-0.4
				c0,0,0,0,0,0c0.3,0,0.5,0,0.8,0c0.2,0,0.4,0.2,0.4,0.4c0,0,0,0,0,0c0,0.2-0.2,0.4-0.4,0.4C4.2,10.7,4.1,10.7,4,10.7z"/>
			<path id="Path_629" class="st2" d="M16.6,10.7c-0.1,0-0.3,0-0.4,0c-0.2,0-0.4-0.2-0.4-0.4c0,0,0,0,0,0c0-0.2,0.2-0.4,0.4-0.4
				c0.3,0,0.5,0,0.8,0c0.2,0,0.4,0.2,0.4,0.4c0,0.2-0.2,0.4-0.4,0.4C16.9,10.7,16.8,10.7,16.6,10.7z"/>
			<path id="Path_630" class="st2" d="M10.7,16.7c0,0.1,0,0.3,0,0.4c0,0.2-0.2,0.4-0.4,0.4c-0.2,0-0.4-0.2-0.4-0.4
				c0-0.3,0-0.6,0-0.8c0-0.2,0.2-0.4,0.4-0.4c0.2,0,0.4,0.2,0.4,0.4c0,0,0,0,0,0.1C10.7,16.4,10.7,16.5,10.7,16.7L10.7,16.7z"/>
			<path id="Path_631" class="st2" d="M6.2,6.5c-0.3,0-1.1-0.7-1-1c0-0.1,0.1-0.3,0.2-0.3c0.1-0.1,0.3,0,0.4,0
				C6,5.4,6.2,5.7,6.4,5.9c0.1,0.1,0.1,0.3,0,0.4C6.4,6.4,6.2,6.5,6.2,6.5z"/>
			<path id="Path_632" class="st2" d="M6.5,14.4c0,0.3-0.7,1.1-1,1c-0.1,0-0.3-0.1-0.3-0.2c0-0.1,0-0.3,0-0.4
				c0.2-0.2,0.4-0.4,0.6-0.6c0.1-0.1,0.3-0.1,0.4,0C6.4,14.2,6.5,14.4,6.5,14.4z"/>
			<path id="Path_633" class="st2" d="M14.5,6.5c-0.3,0-0.6-0.3-0.4-0.6c0.2-0.3,0.4-0.5,0.7-0.7c0.1-0.1,0.4-0.1,0.5,0.1
				c0.1,0.1,0.2,0.3,0.1,0.4c-0.2,0.3-0.5,0.5-0.7,0.7C14.7,6.5,14.6,6.5,14.5,6.5z"/>
			<path id="Path_634" class="st2" d="M17.8,17h0.5c0.5,0,0.7,0.1,0.7,0.4s-0.2,0.4-0.7,0.4h-0.5c0,0.2,0,0.5,0,0.7
				c0,0.3-0.2,0.5-0.4,0.5S17,18.8,17,18.6c0-0.2,0-0.5,0-0.7c-0.2,0-0.5,0-0.7,0c-0.3,0-0.5-0.1-0.5-0.4s0.2-0.4,0.5-0.4
				c0.2,0,0.4,0,0.7,0c0-0.3,0-0.5,0-0.7c0-0.3,0.2-0.4,0.4-0.5s0.4,0.2,0.4,0.5c0,0.1,0,0.2,0,0.3L17.8,17z"/>
		</g>
	</g>
</g>
<g id="圖層_2">
	<g>
		<circle class="st4" cx="10.6" cy="10.4" r="10.4"/>
		<ellipse transform="matrix(0.7071 -0.7071 0.7071 0.7071 -4.2308 10.5596)" class="st5" cx="10.6" cy="10.4" rx="8.4" ry="8.4"/>
		<g>
			<rect x="10" y="6.7" class="st4" width="1.2" height="2.7"/>
		</g>
		<g>
			<rect x="11.8" y="11.3" transform="matrix(0.7071 -0.7071 0.7071 0.7071 -5.73 12.682)" class="st4" width="1.2" height="4"/>
		</g>
		<g>
			<path class="st4" d="M10.6,12.7c-1,0-1.8-0.8-1.8-1.8c0-1,0.8-1.8,1.8-1.8c1,0,1.8,0.8,1.8,1.8C12.4,11.9,11.6,12.7,10.6,12.7z
				 M10.6,10.2c-0.3,0-0.6,0.3-0.6,0.6c0,0.3,0.3,0.6,0.6,0.6c0.3,0,0.6-0.3,0.6-0.6C11.2,10.5,10.9,10.2,10.6,10.2z"/>
		</g>
		<g>
			<g>
				<rect x="10.1" y="1.7" class="st4" width="1.3" height="2.1"/>
			</g>
			<g>
				<rect x="4.6" y="3.9" transform="matrix(0.7068 -0.7074 0.7074 0.7068 -1.9336 5.1503)" class="st4" width="1.3" height="2.1"/>
			</g>
			<g>
				<rect x="1.9" y="9.7" class="st4" width="2.1" height="1.3"/>
			</g>
			<g>
				
					<rect x="4.1" y="15.1" transform="matrix(0.7071 -0.7071 0.7071 0.7071 -9.6428 8.2624)" class="st4" width="2.1" height="1.3"/>
			</g>
			<g>
				<rect x="9.9" y="17" class="st4" width="1.3" height="2.1"/>
			</g>
			<g>
				<rect x="15.4" y="14.8" transform="matrix(0.7068 -0.7074 0.7074 0.7068 -6.528 15.98)" class="st4" width="1.3" height="2.1"/>
			</g>
			<g>
				<rect x="17.3" y="9.8" class="st4" width="2.1" height="1.3"/>
			</g>
			<g>
				
					<rect x="15.1" y="4.4" transform="matrix(0.7071 -0.7071 0.7071 0.7071 1.1811 12.8568)" class="st4" width="2.1" height="1.3"/>
			</g>
		</g>
	</g>
</g>
</svg>
