<?xml version="1.0" encoding="utf-8"?>
<!-- Generator: Adobe Illustrator 26.0.2, SVG Export Plug-In . SVG Version: 6.00 Build 0)  -->
<svg version="1.1" xmlns="http://www.w3.org/2000/svg" xmlns:xlink="http://www.w3.org/1999/xlink" x="0px" y="0px"
	 viewBox="0 0 140 140" style="enable-background:new 0 0 140 140;" xml:space="preserve">
<style type="text/css">
	.st0{display:none;}
	.st1{display:inline;fill:#2A2968;}
	.st2{display:inline;fill:#FFFFFF;filter:url(#Adobe_OpacityMaskFilter);}
	.st3{display:inline;}
	
		.st4{display:inline;mask:url(#path-1-outside-1_326_6197_00000085934470231392096490000008038455587419414203_);fill:none;stroke:#2A2968;stroke-width:0.8;}
	.st5{display:inline;fill:#FFDC55;stroke:#2A2968;stroke-width:0.4;}
	.st6{display:inline;fill:#2A2968;stroke:#2A2968;stroke-width:0.4;}
	.st7{fill:#FF5809;}
	.st8{fill:#FFFFFF;}
	.st9{fill:#FEDC56;}
</style>
<g id="圖層_1" class="st0">
	<path class="st1" d="M81.7,14.9c2.1,0.5,4,1.4,5.2,3.1c0.7,1,1.3,2.2,1.8,3.3c2.1,0.2,4.2,0.2,6.3,0.7c8.4,1.7,14.6,9.2,14.9,17.7
		c0.1,3.6,0,7.1,0,10.7c0,0.4,0,0.8,0,1.4c0.5-0.4,0.7-0.7,1-0.9c2.9-2.7,7.1-2.7,10,0c0.8,0.7,1.5,1.4,2.2,2.2
		c0.7,0.8,0.7,1.7,0,2.4c-0.6,0.6-1.6,0.6-2.3-0.1s-1.4-1.4-2.2-2.1c-1.1-1.1-2.5-1.4-3.8-1c3.5,3.5,7.1,7.1,10.6,10.6
		c0-0.6,0-1.3,0-2.1c0-0.3-0.3-0.7-0.4-1c-0.4-0.9-0.1-1.8,0.8-2.2c0.8-0.4,1.6-0.1,2.1,0.8c1.1,2,1.2,4.2,0.4,6.3
		c-0.1,0.3-0.3,0.6-0.5,1c1.3,1.3,2.1,2.8,1.7,4.6c-0.3,1.1-0.8,2.2-1.5,3c-3.7,3.8-7.4,7.5-11.2,11.2c-0.8,0.8-1.8,0.9-2.5,0.2
		c-0.7-0.7-0.6-1.7,0.2-2.5c3.6-3.6,7.3-7.3,10.9-10.9c1.2-1.2,1.2-2.1,0.1-3.2c-0.3,0.2-0.5,0.5-0.8,0.7
		c-4.7,4.7-9.4,9.5-14.2,14.2c-0.5,0.5-0.7,1.1-0.7,1.8c0,7.1,0,14.1,0,21.1c0,8.6-5.1,15.7-13.1,18.3c-1.8,0.6-3.7,0.9-5.6,1
		c-16.7,0.1-33.4,0.1-50.2,0c-10.4,0-18.7-8.7-18.8-19.4c0-12.8,0-25.7,0-38.5c0-8.8,0-17.7,0-26.5c0-9,5.7-16.6,14.3-18.7
		c2.3-0.5,4.7-0.6,7.2-0.9c0.2-0.5,0.5-1.3,0.8-2c1.2-2.5,3.4-3.7,5.9-4.4C61,14.9,71.4,14.9,81.7,14.9z M98.2,88.8c0,0.6,0,1,0,1.4
		c0,4.6,0,9.1,0,13.7c0,1,0,2-0.3,3c-1.1,5.1-5.3,8.2-10.8,8.2c-14,0-27.9,0-41.8,0c-1,0-1.9-0.1-2.9-0.3c-5-1.1-8.2-5.3-8.2-10.6
		c0-18,0-35.9,0-53.9c0-0.3,0-0.6,0-0.9c0.2-0.9,0.9-1.5,1.7-1.4c0.9,0.1,1.4,0.6,1.5,1.6c0,0.4,0,0.7,0,1.1c0,17.8,0,35.5,0,53.3
		c0,5,2.9,7.9,7.9,7.9c13.9,0,27.8,0,41.7,0c4.9,0,7.8-3,7.9-7.9c0-4,0-8,0-12.1c0-0.4,0-0.8-0.1-1.2c-0.5,0.2-0.8,0.3-1.1,0.4
		c-2,0.5-3.8,0.2-5.3-1.2c-2.5-2.2-2.6-5.9-0.1-8.4c0.7-0.7,0.9-1.2,0.8-2.2c-0.6-3.7,0.5-6.9,3.1-9.7c0.7-0.7,1.4-1.3,2-2.1
		c0.4-0.5,0.7-1.1,0.7-1.7c0-8.2,0-16.5,0-24.7c0-0.5,0-1.1-0.1-1.6c-0.3-3.1-2.9-5.7-5.9-6.1c-0.8-0.1-1.3,0-1.8,0.8
		C86,36,84.3,37,82.2,37.5c-0.5,0.1-0.9,0.2-1.4,0.2c0,0.4,0,0.8-0.1,1.1c-0.2,3.1-2.5,5.4-5.6,5.4c-6,0-11.9,0-17.9,0
		c-2.8,0-5-2-5.5-4.7c-0.1-0.6-0.1-1.1-0.1-1.7c-0.1,0-0.2-0.1-0.3-0.1c-2.7-0.3-4.8-1.6-6.3-3.8c-0.2-0.3-0.7-0.4-1.1-0.4
		c-2.9,0.1-5.7,2.6-6.2,5.6c-0.2,1.3-0.1,2.7-0.2,4.1c0,0.9-0.6,1.5-1.5,1.5c-0.9,0.1-1.6-0.5-1.7-1.3c-0.2-3-0.1-6,1.7-8.7
		c1.9-2.7,4.4-4.1,7.7-4.6c0-0.9,0-1.8,0-2.6c0-0.9,0-1.8,0-2.6c-9.7-1.3-18.1,6.1-18.1,16c0,21.7,0,43.4,0,65.1
		c0,9.1,7,16.1,16.2,16.1c16.3,0,32.6,0,48.9,0c1.1,0,2.3-0.1,3.4-0.3c7.5-1.6,12.6-7.9,12.7-15.7c0-6,0-12.1,0-18.1
		c0-0.3,0-0.6-0.1-1.1C104.1,88.7,101.4,89.2,98.2,88.8z M66.2,34.5c4.6,0,9.3,0,13.9,0c3.2,0,5.3-2,5.4-5c0.1-2.1,0.1-4.2,0-6.3
		c-0.1-3-2.2-5-5.2-5c-9.4,0-18.7,0-28.1,0c-3,0-5.1,2.2-5.2,5.2c0,1.8,0,3.6,0,5.4c0,3.7,2,5.7,5.7,5.7
		C57.2,34.5,61.7,34.5,66.2,34.5z M111.9,54.6c-3,3-6,6-9,9.1c-2.8,2.8-5.6,5.5-8.3,8.3c-2.9,2.9-3.2,7.2-0.9,10.4
		c3,4.1,8.7,4.5,12.3,0.9c5.7-5.6,11.3-11.3,16.9-16.9c0.2-0.2,0.3-0.3,0.4-0.4C119.5,62.2,115.8,58.4,111.9,54.6z M88.8,24.9
		c0,1.8,0,3.5,0,5.3c0.7,0.2,1.3,0.3,1.9,0.4c4.6,1.3,7.5,5.3,7.5,10.5c0,7,0,14.1,0,21.1c0,0.4,0,0.8,0,1.3
		c0.2-0.1,0.3-0.1,0.4-0.1c2.6-2.6,5.2-5.2,7.9-7.9c0.2-0.2,0.3-0.6,0.4-0.9c0-4.8,0.1-9.6,0-14.4C106.5,30.7,98.2,23.8,88.8,24.9z
		 M77.5,37.8c-7.5,0-14.9,0-22.4,0C54.8,40,55.7,41,57.8,41c5.7,0,11.3,0,17,0C76.8,41,77.8,39.9,77.5,37.8z M93.7,87.6
		c-1.1-1.1-2.3-2.2-3.4-3.3c-0.8,0.8-0.8,2.2,0.2,3.2C91.5,88.4,92.9,88.4,93.7,87.6z"/>
	<defs>
		<filter id="Adobe_OpacityMaskFilter" filterUnits="userSpaceOnUse" x="22" y="14.5" width="108.1" height="111.2">
			<feColorMatrix  type="matrix" values="1 0 0 0 0  0 1 0 0 0  0 0 1 0 0  0 0 0 1 0"/>
		</filter>
	</defs>
	
		<mask maskUnits="userSpaceOnUse" x="22" y="14.5" width="108.1" height="111.2" id="path-1-outside-1_326_6197_00000085934470231392096490000008038455587419414203_" class="st3">
		<rect x="21.4" y="13.9" style="fill:#FFFFFF;filter:url(#Adobe_OpacityMaskFilter);" width="109" height="112"/>
		<path d="M81.7,14.9c2.1,0.5,4,1.4,5.2,3.1c0.7,1,1.3,2.2,1.8,3.3c2.1,0.2,4.2,0.2,6.3,0.7c8.4,1.7,14.6,9.2,14.9,17.7
			c0.1,3.6,0,7.1,0,10.7c0,0.4,0,0.8,0,1.4c0.5-0.4,0.7-0.7,1-0.9c2.9-2.7,7.1-2.7,10,0c0.8,0.7,1.5,1.4,2.2,2.2
			c0.7,0.8,0.7,1.7,0,2.4c-0.6,0.6-1.6,0.6-2.3-0.1s-1.4-1.4-2.2-2.1c-1.1-1.1-2.5-1.4-3.8-1c3.5,3.5,7.1,7.1,10.6,10.6
			c0-0.6,0-1.3,0-2.1c0-0.3-0.3-0.7-0.4-1c-0.4-0.9-0.1-1.8,0.8-2.2c0.8-0.4,1.6-0.1,2.1,0.8c1.1,2,1.2,4.2,0.4,6.3
			c-0.1,0.3-0.3,0.6-0.5,1c1.3,1.3,2.1,2.8,1.7,4.6c-0.3,1.1-0.8,2.2-1.5,3c-3.7,3.8-7.4,7.5-11.2,11.2c-0.8,0.8-1.8,0.9-2.5,0.2
			c-0.7-0.7-0.6-1.7,0.2-2.5c3.6-3.6,7.3-7.3,10.9-10.9c1.2-1.2,1.2-2.1,0.1-3.2c-0.3,0.2-0.5,0.5-0.8,0.7
			c-4.7,4.7-9.4,9.5-14.2,14.2c-0.5,0.5-0.7,1.1-0.7,1.8c0,7.1,0,14.1,0,21.1c0,8.6-5.1,15.7-13.1,18.3c-1.8,0.6-3.7,0.9-5.6,1
			c-16.7,0.1-33.4,0.1-50.2,0c-10.4,0-18.7-8.7-18.8-19.4c0-12.8,0-25.7,0-38.5c0-8.8,0-17.7,0-26.5c0-9,5.7-16.6,14.3-18.7
			c2.3-0.5,4.7-0.6,7.2-0.9c0.2-0.5,0.5-1.3,0.8-2c1.2-2.5,3.4-3.7,5.9-4.4C61,14.9,71.4,14.9,81.7,14.9z M98.2,88.8
			c0,0.6,0,1,0,1.4c0,4.6,0,9.1,0,13.7c0,1,0,2-0.3,3c-1.1,5.1-5.3,8.2-10.8,8.2c-14,0-27.9,0-41.8,0c-1,0-1.9-0.1-2.9-0.3
			c-5-1.1-8.2-5.3-8.2-10.6c0-18,0-35.9,0-53.9c0-0.3,0-0.6,0-0.9c0.2-0.9,0.9-1.5,1.7-1.4c0.9,0.1,1.4,0.6,1.5,1.6
			c0,0.4,0,0.7,0,1.1c0,17.8,0,35.5,0,53.3c0,5,2.9,7.9,7.9,7.9c13.9,0,27.8,0,41.7,0c4.9,0,7.8-3,7.9-7.9c0-4,0-8,0-12.1
			c0-0.4,0-0.8-0.1-1.2c-0.5,0.2-0.8,0.3-1.1,0.4c-2,0.5-3.8,0.2-5.3-1.2c-2.5-2.2-2.6-5.9-0.1-8.4c0.7-0.7,0.9-1.2,0.8-2.2
			c-0.6-3.7,0.5-6.9,3.1-9.7c0.7-0.7,1.4-1.3,2-2.1c0.4-0.5,0.7-1.1,0.7-1.7c0-8.2,0-16.5,0-24.7c0-0.5,0-1.1-0.1-1.6
			c-0.3-3.1-2.9-5.7-5.9-6.1c-0.8-0.1-1.3,0-1.8,0.8C86,36,84.3,37,82.2,37.5c-0.5,0.1-0.9,0.2-1.4,0.2c0,0.4,0,0.8-0.1,1.1
			c-0.2,3.1-2.5,5.4-5.6,5.4c-6,0-11.9,0-17.9,0c-2.8,0-5-2-5.5-4.7c-0.1-0.6-0.1-1.1-0.1-1.7c-0.1,0-0.2-0.1-0.3-0.1
			c-2.7-0.3-4.8-1.6-6.3-3.8c-0.2-0.3-0.7-0.4-1.1-0.4c-2.9,0.1-5.7,2.6-6.2,5.6c-0.2,1.3-0.1,2.7-0.2,4.1c0,0.9-0.6,1.5-1.5,1.5
			c-0.9,0.1-1.6-0.5-1.7-1.3c-0.2-3-0.1-6,1.7-8.7c1.9-2.7,4.4-4.1,7.7-4.6c0-0.9,0-1.8,0-2.6c0-0.9,0-1.8,0-2.6
			c-9.7-1.3-18.1,6.1-18.1,16c0,21.7,0,43.4,0,65.1c0,9.1,7,16.1,16.2,16.1c16.3,0,32.6,0,48.9,0c1.1,0,2.3-0.1,3.4-0.3
			c7.5-1.6,12.6-7.9,12.7-15.7c0-6,0-12.1,0-18.1c0-0.3,0-0.6-0.1-1.1C104.1,88.7,101.4,89.2,98.2,88.8z M66.2,34.5
			c4.6,0,9.3,0,13.9,0c3.2,0,5.3-2,5.4-5c0.1-2.1,0.1-4.2,0-6.3c-0.1-3-2.2-5-5.2-5c-9.4,0-18.7,0-28.1,0c-3,0-5.1,2.2-5.2,5.2
			c0,1.8,0,3.6,0,5.4c0,3.7,2,5.7,5.7,5.7C57.2,34.5,61.7,34.5,66.2,34.5z M111.9,54.6c-3,3-6,6-9,9.1c-2.8,2.8-5.6,5.5-8.3,8.3
			c-2.9,2.9-3.2,7.2-0.9,10.4c3,4.1,8.7,4.5,12.3,0.9c5.7-5.6,11.3-11.3,16.9-16.9c0.2-0.2,0.3-0.3,0.4-0.4
			C119.5,62.2,115.8,58.4,111.9,54.6z M88.8,24.9c0,1.8,0,3.5,0,5.3c0.7,0.2,1.3,0.3,1.9,0.4c4.6,1.3,7.5,5.3,7.5,10.5
			c0,7,0,14.1,0,21.1c0,0.4,0,0.8,0,1.3c0.2-0.1,0.3-0.1,0.4-0.1c2.6-2.6,5.2-5.2,7.9-7.9c0.2-0.2,0.3-0.6,0.4-0.9
			c0-4.8,0.1-9.6,0-14.4C106.5,30.7,98.2,23.8,88.8,24.9z M77.5,37.8c-7.5,0-14.9,0-22.4,0C54.8,40,55.7,41,57.8,41
			c5.7,0,11.3,0,17,0C76.8,41,77.8,39.9,77.5,37.8z M93.7,87.6c-1.1-1.1-2.3-2.2-3.4-3.3c-0.8,0.8-0.8,2.2,0.2,3.2
			C91.5,88.4,92.9,88.4,93.7,87.6z"/>
	</mask>
	<path class="st4" d="M81.7,14.9c2.1,0.5,4,1.4,5.2,3.1c0.7,1,1.3,2.2,1.8,3.3c2.1,0.2,4.2,0.2,6.3,0.7c8.4,1.7,14.6,9.2,14.9,17.7
		c0.1,3.6,0,7.1,0,10.7c0,0.4,0,0.8,0,1.4c0.5-0.4,0.7-0.7,1-0.9c2.9-2.7,7.1-2.7,10,0c0.8,0.7,1.5,1.4,2.2,2.2
		c0.7,0.8,0.7,1.7,0,2.4c-0.6,0.6-1.6,0.6-2.3-0.1s-1.4-1.4-2.2-2.1c-1.1-1.1-2.5-1.4-3.8-1c3.5,3.5,7.1,7.1,10.6,10.6
		c0-0.6,0-1.3,0-2.1c0-0.3-0.3-0.7-0.4-1c-0.4-0.9-0.1-1.8,0.8-2.2c0.8-0.4,1.6-0.1,2.1,0.8c1.1,2,1.2,4.2,0.4,6.3
		c-0.1,0.3-0.3,0.6-0.5,1c1.3,1.3,2.1,2.8,1.7,4.6c-0.3,1.1-0.8,2.2-1.5,3c-3.7,3.8-7.4,7.5-11.2,11.2c-0.8,0.8-1.8,0.9-2.5,0.2
		c-0.7-0.7-0.6-1.7,0.2-2.5c3.6-3.6,7.3-7.3,10.9-10.9c1.2-1.2,1.2-2.1,0.1-3.2c-0.3,0.2-0.5,0.5-0.8,0.7
		c-4.7,4.7-9.4,9.5-14.2,14.2c-0.5,0.5-0.7,1.1-0.7,1.8c0,7.1,0,14.1,0,21.1c0,8.6-5.1,15.7-13.1,18.3c-1.8,0.6-3.7,0.9-5.6,1
		c-16.7,0.1-33.4,0.1-50.2,0c-10.4,0-18.7-8.7-18.8-19.4c0-12.8,0-25.7,0-38.5c0-8.8,0-17.7,0-26.5c0-9,5.7-16.6,14.3-18.7
		c2.3-0.5,4.7-0.6,7.2-0.9c0.2-0.5,0.5-1.3,0.8-2c1.2-2.5,3.4-3.7,5.9-4.4C61,14.9,71.4,14.9,81.7,14.9z M98.2,88.8c0,0.6,0,1,0,1.4
		c0,4.6,0,9.1,0,13.7c0,1,0,2-0.3,3c-1.1,5.1-5.3,8.2-10.8,8.2c-14,0-27.9,0-41.8,0c-1,0-1.9-0.1-2.9-0.3c-5-1.1-8.2-5.3-8.2-10.6
		c0-18,0-35.9,0-53.9c0-0.3,0-0.6,0-0.9c0.2-0.9,0.9-1.5,1.7-1.4c0.9,0.1,1.4,0.6,1.5,1.6c0,0.4,0,0.7,0,1.1c0,17.8,0,35.5,0,53.3
		c0,5,2.9,7.9,7.9,7.9c13.9,0,27.8,0,41.7,0c4.9,0,7.8-3,7.9-7.9c0-4,0-8,0-12.1c0-0.4,0-0.8-0.1-1.2c-0.5,0.2-0.8,0.3-1.1,0.4
		c-2,0.5-3.8,0.2-5.3-1.2c-2.5-2.2-2.6-5.9-0.1-8.4c0.7-0.7,0.9-1.2,0.8-2.2c-0.6-3.7,0.5-6.9,3.1-9.7c0.7-0.7,1.4-1.3,2-2.1
		c0.4-0.5,0.7-1.1,0.7-1.7c0-8.2,0-16.5,0-24.7c0-0.5,0-1.1-0.1-1.6c-0.3-3.1-2.9-5.7-5.9-6.1c-0.8-0.1-1.3,0-1.8,0.8
		C86,36,84.3,37,82.2,37.5c-0.5,0.1-0.9,0.2-1.4,0.2c0,0.4,0,0.8-0.1,1.1c-0.2,3.1-2.5,5.4-5.6,5.4c-6,0-11.9,0-17.9,0
		c-2.8,0-5-2-5.5-4.7c-0.1-0.6-0.1-1.1-0.1-1.7c-0.1,0-0.2-0.1-0.3-0.1c-2.7-0.3-4.8-1.6-6.3-3.8c-0.2-0.3-0.7-0.4-1.1-0.4
		c-2.9,0.1-5.7,2.6-6.2,5.6c-0.2,1.3-0.1,2.7-0.2,4.1c0,0.9-0.6,1.5-1.5,1.5c-0.9,0.1-1.6-0.5-1.7-1.3c-0.2-3-0.1-6,1.7-8.7
		c1.9-2.7,4.4-4.1,7.7-4.6c0-0.9,0-1.8,0-2.6c0-0.9,0-1.8,0-2.6c-9.7-1.3-18.1,6.1-18.1,16c0,21.7,0,43.4,0,65.1
		c0,9.1,7,16.1,16.2,16.1c16.3,0,32.6,0,48.9,0c1.1,0,2.3-0.1,3.4-0.3c7.5-1.6,12.6-7.9,12.7-15.7c0-6,0-12.1,0-18.1
		c0-0.3,0-0.6-0.1-1.1C104.1,88.7,101.4,89.2,98.2,88.8z M66.2,34.5c4.6,0,9.3,0,13.9,0c3.2,0,5.3-2,5.4-5c0.1-2.1,0.1-4.2,0-6.3
		c-0.1-3-2.2-5-5.2-5c-9.4,0-18.7,0-28.1,0c-3,0-5.1,2.2-5.2,5.2c0,1.8,0,3.6,0,5.4c0,3.7,2,5.7,5.7,5.7
		C57.2,34.5,61.7,34.5,66.2,34.5z M111.9,54.6c-3,3-6,6-9,9.1c-2.8,2.8-5.6,5.5-8.3,8.3c-2.9,2.9-3.2,7.2-0.9,10.4
		c3,4.1,8.7,4.5,12.3,0.9c5.7-5.6,11.3-11.3,16.9-16.9c0.2-0.2,0.3-0.3,0.4-0.4C119.5,62.2,115.8,58.4,111.9,54.6z M88.8,24.9
		c0,1.8,0,3.5,0,5.3c0.7,0.2,1.3,0.3,1.9,0.4c4.6,1.3,7.5,5.3,7.5,10.5c0,7,0,14.1,0,21.1c0,0.4,0,0.8,0,1.3
		c0.2-0.1,0.3-0.1,0.4-0.1c2.6-2.6,5.2-5.2,7.9-7.9c0.2-0.2,0.3-0.6,0.4-0.9c0-4.8,0.1-9.6,0-14.4C106.5,30.7,98.2,23.8,88.8,24.9z
		 M77.5,37.8c-7.5,0-14.9,0-22.4,0C54.8,40,55.7,41,57.8,41c5.7,0,11.3,0,17,0C76.8,41,77.8,39.9,77.5,37.8z M93.7,87.6
		c-1.1-1.1-2.3-2.2-3.4-3.3c-0.8,0.8-0.8,2.2,0.2,3.2C91.5,88.4,92.9,88.4,93.7,87.6z"/>
	<path class="st5" d="M93.8,87.7l0.1-0.1l-0.1-0.1c-0.6-0.6-1.1-1.1-1.7-1.7l0,0c-0.6-0.6-1.1-1.1-1.7-1.7l-0.1-0.1l-0.1,0.1
		c-0.9,0.9-0.9,2.4,0.2,3.5C91.4,88.6,93,88.6,93.8,87.7z"/>
	<path class="st6" d="M59.6,63.2L59.6,63.2L59.6,63.2L59.6,63.2L59.6,63.2h0.1h0h0h0h0h0h0h0h0h0h0h0h0h0h0h0h0h0h0h0h0h0h0h0h0h0h0
		h0h0h0h0h0h0h0h0h0h0h0h0h0h0h0h0h0h0h0h0h0h0h0h0h0h0h0h0h0h0h0h0h0h0h0h0h0h0h0h0h0h0h0h0h0h0h0h0h0h0h0h0h0h0h0h0h0h0h0h0h0h0h0
		h0h0h0h0h0h0h0h0h0h0h0h0h0h0h0h0h0h0h0h0h0h0h0h0h0h0h0h0h0h0h0h0h0h0h0h0h0h0h0h0h0h0h0h0h0h0h0h0h0h0h0h0h0h0h0h0h0h0h0h0h0h0h0
		h0h0h0h0h0h0h0h0h0h0h0h0h0h0h0h0h0h0h0h0h0h0h0h0h0h0h0h0h0h0h0h0h0h0h0h0h0h0h0h0h0h0h0h0h0h0h0h0h0h0h0h0h0h0h0h0h0h0h0h0h0h0h0
		h0h0h0h0h0h0h0h0h0h0h0h0h0h0h0h0h0h0h0h0h0h0h0h0h0h0h0h0h0h0h0h0h0h0h0h0h0h0h0h0h0h0h0h0h0h0h0h0h0h0h0h0h0h0h0h0h0h0h0h0h0h0h0
		h0h0h0h0h0h0h0h0h0h0h0h0h0h0h0h0h0h0h0h0h0h0h0h0h0h0h0h0h0h0h0h0h0h0h0h0h0h0h0h0h0h0h0h0h0h0h0h0h0h0h0h0h0h0h0h0h0h0h0h0h0h0h0
		h0h0h0h0h0h0h0h0h0h0h0h0h0h0h0h0h0h0h0h0h0h0h0h0h0h0h0h0h0h0h0h0h0h0h0h0h0h0h0h0h0h0h0h0h0h0h0h0h0h0h0h0h0h0h0h0h0h0h0h0h0h0h0
		h0h0h0h0h0h0h0h0h0h0h0h0h0h0h0h0h0h0h0h0h0h0h0h0h0h0h0h0h0h0h0h0h0h0h0h0h0h0h0h0h0h0h0h0h0h0h0h0h0h0h0h0h0h0h0h0h0h0h0h0h0h0h0
		h0h0h0h0h0h0h0h0h0h0h0h0h0h0h0h0h0h0h0h0h0h0h0h0h0h0h0h0h0h0h0h0h0h0h0h0h0h0h0h0h0h0h0h0h0h0h0h0h0h0h0h0h0h0h0h0h0h0h0h0h0h0h0
		h0h0h0h0h0h0h0h0h0h0h0h0h0h0h0h0h0h0h0h0h0h0h0h0h0h0h0h0h0h0h0h0h0h0h0h0h0h0h0h0h0h0h0h0h0h0h0h0h0h0h0h0h0h0h0h0h0h0h0h0h0h0h0
		h0h0h0h0h0h0h0h0h0h0h0h0h0h0h0h0h0h0h0h0h0h0h0h0h0h0h0h0h0h0h0h0h0h0h0h0h0h0h0h0h0h0h0h0h0h0h0h0h0h0h0h0h0h0h0h0h0h0h0h0h0h0h0
		h0h0h0h0h0h0h0h0h0h0h0h0h0h0h0h0h0h0h0h0h0h0h0h0h0h0h0h0h0h0h0h0h0h0h0h0h0h0h0h0h0h0h0h0h0h0h0h0h0h0h0h0h0h0h0h0h0h0h0h0h0h0h0
		h0h0h0h0h0h0h0h0h0h0h0h0h0h0h0h0h0h0h0h0h0h0h0h0h0h0h0h0h0h0h0h0h0h0h0h0h0h0h0h0h0h0h0h0h0h0h0h0h0h0h0h0h0h0h0h0h0h0h0h0h0h0h0
		h0h0h0h0h0h0h0h0h0h0h0h0h0h0h0h0h0h0h0h0h0h0h0h0h0h0h0h0h0h0h0h0h0h0h0h0h0h0h0h0h0h0h0h0h0h0h0h0h0h0h0h0h0h0h0h0h0h0h0h0h0h0h0
		h0h0h0h0h0h0h0h0h0h0h0h0h0h0h0h0h0h0h0h0h0h0h0h0h0h0h0h0h0h0h0h0h0h0h0h0h0h0h0h0h0h0h0h0h0h0h0h0h0h0h0h0h0h0h0h0h0h0h0h0h0h0h0
		h0h0h0h0h0h0h0h0h0h0h0h0h0h0h0h0h0h0h0h0h0h0h0h0h0h0h0h0h0h0h0h0h0h0h0h0h0h0h0h0h0h0h0h0h0h0h0h0h0h0h0h0h0h0h0h0h0h0h0h0h0h0h0
		h0h0h0h0h0h0h0h0h0h0h0h0h0h0h0h0h0h0h0h0h0h0h0h0h0h0h0h0h0h0h0h0h0h0h0h0h0h0h0h0h0h0h0h0h0h0h0h0c0.1,0,0.1,0,0.2,0
		c0.3,0,0.6,0,0.8,0c0.5-0.1,0.9-0.3,1.2-0.6c0.3-0.3,0.4-0.7,0.4-1.2c0-0.5-0.2-0.9-0.5-1.2c-0.3-0.3-0.7-0.5-1.2-0.5
		c-0.2,0-0.4,0-0.6,0c-0.1,0-0.1,0-0.2,0h0h0h0h0h0h0h0h0h0h0h0h0h0h0h0h0h0h0h0h0h0h0h0h0h0h0h0h0h0h0h0h0h0h0h0h0h0h0h0h0h0h0h0h0
		h0h0h0h0h0h0h0h0h0h0h0h0h0h0h0h0h0h0h0h0h0h0h0h0h0h0h0h0h0h0h0h0h0h0h0h0h0h0h0h0h0h0h0h0h0h0h0h0h0h0h0h0h0h0h0h0h0h0h0h0h0h0h0
		h0h0h0h0h0h0h0h0h0h0h0h0h0h0h0h0h0h0h0h0h0h0h0h0h0h0h0h0h0h0h0h0h0h0h0h0h0h0h0h0h0h0h0h0h0h0h0h0h0h0h0h0h0h0h0h0h0h0h0h0h0h0h0
		h0h0h0h0h0h0h0h0h0h0h0h0h0h0h0h0h0h0h0h0h0h0h0h0h0h0h0h0h0h0h0h0h0h0h0h0h0h0h0h0h0h0h0h0h0h0h0h0h0h0h0h0h0h0h0h0h0h0h0h0h0h0h0
		h0h0h0h0h0h0h0h0h0h0h0h0h0h0h0h0h0h0h0h0h0h0h0h0h0h0h0h0h0h0h0h0h0h0h0h0h0h0h0h0h0h0h0h0h0h0h0h0h0h0h0h0h0h0h0h0h0h0h0h0h0h0h0
		h0h0h0h0h0h0h0h0h0h0h0h0h0h0h0h0h0h0h0h0h0h0h0h0h0h0h0h0h0h0h0h0h0h0h0h0h0h0h0h0h0h0h0h0h0h0h0h0h0h0h0h0h0h0h0h0h0h0h0h0h0h0h0
		h0h0h0h0h0h0h0h0h0h0h0h0h0h0h0h0h0h0h0h0h0h0h0h0h0h0h0h0h0h0h0h0h0h0h0h0h0h0h0h0h0h0h0h0h0h0h0h0h0h0h0h0h0h0h0h0h0h0h0h0h0h0h0
		h0h0h0h0h0h0h0h0h0h0h0h0h0h0h0h0h0h0h0h0h0h0h0h0h0h0h0h0h0h0h0h0h0h0h0h0h0h0h0h0h0h0h0h0h0h0h0h0h0h0h0h0h0h0h0h0h0h0h0h0h0h0h0
		h0h0h0h0h0h0h0h0h0h0h0h0h0h0h0h0h0h0h0h0h0h0h0h0h0h0h0c-0.1,0-0.2,0-0.2,0c0,0,0,0,0,0c-0.1,0-0.2,0-0.2,0c-0.2,0-0.4,0-0.6,0.1
		c-0.1,0.1-0.1,0.1-0.2,0.2c-0.2,0.2-0.4,0.3-0.6,0.5c-0.2,0.2-0.5,0.5-0.5,0.9c0,0.3,0.1,0.7,0.3,1c0.2,0.3,0.5,0.6,0.7,0.8
		c0.2,0.2,0.4,0.2,0.7,0.2c0.2,0,0.4,0,0.5,0C59.5,63.2,59.5,63.2,59.6,63.2z"/>
	<path class="st6" d="M57.3,80.1c0,1.1,0.7,1.7,2,1.7h24.4c1.3,0,2.1-0.6,2-1.7l0.2,0c0,0,0,0,0,0 M57.3,80.1l28.7,0 M57.3,80.1
		c0-1,0.7-1.6,2-1.6L57.3,80.1z M86,80.1c0,0.6-0.2,1.1-0.6,1.4c-0.4,0.3-1,0.5-1.7,0.5h0h0h0h0h0h0h0h0h0h0h0h0h0h0h0h0h0h0h0h0h0
		h0h0h0h0h0h0h0h0h0h0h0h0h0h0h0h0h0h0h0h0h0h0h0h0h0h0h0h0h0h0h0h0h0h0h0h0h0h0h0h0h0h0h0h0h0h0h0h0h0h0h0h0h0h0h0h0h0h0h0h0h0h0h0
		h0h0h0h0h0h0h0h0h0h0h0h0h0h0h0h0h0h0h0h0h0h0h0h0h0h0h0h0h0h0h0h0h0h0h0h0h0h0h0h0h0h0h0h0h0h0h0h0h0h0h0h0h0h0h0h0h0h0h0h0h0h0h0
		h0h0h0h0h0h0h0h0h0h0h0h0h0h0h0h0h0h0h0h0h0h0h0h0h0h0h0h0h0h0h0h0h0h0h0h0h0h0h0h0h0h0h0h0h0h0h0h0h0h0h0h0h0h0h0h0h0h0h0h0h0h0h0
		h0h0h0h0h0h0h0h0h0h0h0h0h0h0h0h0h0h0h0h0h0h0h0h0h0h0h0h0h0h0h0h0h0h0h0h0h0h0h0h0h0h0h0h0h0h0h0h0h0h0h0h0h0h0h0h0h0h0h0h0h0h0h0
		h0h0h0h0h0h0h0h0h0h0h0h0h0h0h0h0h0h0h0h0h0h0h0h0h0h0h0h0h0h0h0h0h0h0h0h0h0h0h0h0h0h0h0h0h0h0h0h0h0h0h0h0h0h0h0h0h0h0h0h0h0h0h0
		h0h0h0h0h0h0h0h0h0h0h0h0h0h0h0h0h0h0h0h0h0h0h0h0h0h0h0h0h0h0h0h0h0h0h0h0h0h0h0h0h0h0h0h0h0h0h0h0h0h0h0h0h0h0h0h0h0h0h0h0h0h0h0
		h0h0h0h0h0h0h0h0h0h0h0h0h0h0h0h0h0h0h0h0h0h0h0h0h0h0h0h0h0h0h0h0h0h0h0h0h0h0h0h0h0h0h0h0h0h0h0h0h0h0h0h0h0h0h0h0h0h0h0h0h0h0h0
		h0h0h0h0h0h0h0h0h0h0h0h0h0h0h0h0h0h0h0h0h0h0h0h0h0h0h0h0h0h0h0h0h0h0h0h0h0h0h0h0h0h0h0h0h0h0h0h0h0h0c-0.7,0-1.3-0.2-1.7-0.5
		c-0.4-0.3-0.6-0.8-0.6-1.4v0c0-0.6,0.2-1,0.6-1.3c0.4-0.3,0.9-0.4,1.6-0.4h0l0,0c4.1,0,8.1,0,12.2,0h0h0h0h0h0h0h0h0h0h0h0h0h0h0h0
		h0h0h0h0h0h0h0h0h0h0h0h0h0h0h0h0h0h0h0h0h0h0h0h0h0h0h0h0h0h0h0h0h0h0h0h0h0h0h0h0h0h0h0h0h0h0h0h0h0h0h0h0h0h0h0h0h0h0h0h0h0h0h0
		h0h0h0h0h0h0h0h0h0h0h0h0h0h0h0h0h0h0h0h0h0h0h0h0h0h0h0h0h0h0h0h0h0h0h0h0h0h0h0h0h0h0h0h0h0h0h0h0h0h0h0h0h0h0h0h0h0h0h0h0h0h0h0
		h0h0h0h0h0h0h0h0h0h0h0h0h0h0h0h0h0h0h0h0h0h0h0h0h0h0h0h0h0h0h0h0h0h0h0h0h0h0h0h0h0h0h0h0h0h0h0h0h0h0h0h0h0h0h0h0h0h0h0h0h0h0h0
		h0h0h0h0h0h0h0h0h0h0h0h0h0h0h0h0h0h0h0h0h0h0h0h0h0h0h0h0h0h0h0h0h0h0h0h0h0h0h0h0h0h0h0h0h0h0h0h0h0h0h0h0h0h0h0h0h0h0h0h0h0h0h0
		h0h0h0h0h0h0h0h0h0h0h0h0h0h0h0h0h0h0h0h0h0h0h0h0h0h0h0h0h0h0h0h0h0h0h0h0h0h0h0h0h0h0h0h0h0h0h0h0h0h0h0h0h0h0h0h0h0h0h0h0h0h0h0
		h0h0h0h0h0h0h0h0h0h0h0h0h0h0h0h0h0h0h0h0h0h0h0h0h0h0h0h0h0h0h0h0h0h0h0h0h0h0h0h0h0h0h0h0h0h0h0h0h0h0h0h0h0h0h0h0h0h0h0h0h0h0h0
		h0h0h0h0h0h0h0h0h0h0h0h0h0h0h0h0h0h0h0h0h0h0h0h0h0h0h0h0h0h0h0h0h0h0h0h0h0h0h0h0h0h0h0h0h0h0h0h0h0h0h0h0h0h0h0h0h0h0h0h0h0h0h0
		h0h0h0h0h0h0h0h0h0h0h0h0h0h0h0h0h0h0h0h0h0h0h0h0h0h0h0h0h0h0h0h0h0h0h0h0h0h0h0h0h0h0h0h0h0h0h0h0h0h0h0h0h0h0h0h0
		c0.7,0,1.2,0.1,1.6,0.4C85.8,79.1,86,79.5,86,80.1z"/>
	<path class="st6" d="M84,68.9L84,68.9L84,68.9L84,68.9L84,68.9L84,68.9L84,68.9L84,68.9L84,68.9L84,68.9L84,68.9L84,68.9L84,68.9
		L84,68.9L84,68.9L84,68.9L84,68.9L84,68.9L84,68.9L84,68.9L84,68.9L84,68.9L84,68.9L84,68.9L84,68.9L84,68.9L84,68.9L84,68.9
		L84,68.9L84,68.9L84,68.9L84,68.9L84,68.9L84,68.9L84,68.9L84,68.9L84,68.9L84,68.9L84,68.9L84,68.9L84,68.9L84,68.9L84,68.9
		L84,68.9L84,68.9L84,68.9L84,68.9L84,68.9L84,68.9L84,68.9L84,68.9L84,68.9L84,68.9L84,68.9L84,68.9L84,68.9L84,68.9L84,68.9
		L84,68.9L84,68.9L84,68.9L84,68.9L84,68.9L84,68.9L84,68.9L84,68.9L84,68.9L84,68.9L84,68.9L84,68.9L84,68.9L84,68.9L84,68.9
		l-0.1,0h0h0h0h0h0h0h0h0h0h0h0h0h0h0h0h0h0h0h0h0h0h0h0h0h0h0h0h0h0h0h0h0h0h0h0h0h0h0h0h0h0h0h0h0h0h0h0h0h0h0h0h0h0h0h0h0h0h0h0
		h0h0h0h0h0h0h0h0h0h0h0h0h0h0h0h0h0h0h0h0h0h0h0h0h0h0h0h0h0h0h0h0h0h0h0h0h0h0h0h0h0h0h0h0h0h0h0h0h0h0h0h0h0h0h0h0h0h0h0h0h0h0h0
		h0h0h0h0h0h0h0h0h0h0h0h0h0h0h0h0h0h0h0h0h0h0h0h0h0h0h0h0h0h0h0h0h0h0h0h0h0h0h0h0h0h0h0h0h0h0h0h0h0h0h0h0h0h0h0h0h0h0h0h0h0h0h0
		h0h0h0h0h0h0h0h0h0h0h0h0h0h0h0h0h0h0h0h0h0h0h0h0h0h0h0h0h0h0h0h0h0h0h0h0h0h0h0h0h0h0h0h0h0h0h0h0h0h0h0h0h0h0h0h0h0h0h0h0h0h0h0
		h0h0h0h0h0h0h0h0h0h0h0h0h0h0h0h0h0h0h0h0h0h0h0h0h0h0h0h0h0h0h0h0h0h0h0h0h0h0h0h0h0h0h0h0h0h0h0h0h0h0h0h0h0h0h0h0h0h0h0h0h0h0h0
		h0h0h0h0h0h0h0h0h0h0h0h0h0h0h0h0h0h0h0h0h0h0h0h0h0h0h0h0h0h0h0h0h0h0h0h0h0h0h0h0h0h0h0h0h0h0h0h0h0h0h0h0h0h0h0h0h0h0h0h0h0h0h0
		h0h0h0h0h0h0h0h0h0h0h0h0h0h0h0h0h0h0h0h0h0h0h0h0h0h0h0h0h0h0h0h0h0h0h0h0h0h0h0h0h0h0h0h0h0h0h0h0h0h0h0h0h0h0h0h0h0h0h0h0h0h0h0
		h0h0h0h0h0h0h0h0h0h0h0h0h0h0h0h0h0h0h0h0h0h0h0h0h0h0h0h0h0h0h0h0h0h0h0h0h0h0h0h0h0h0h0h0h0h0h0h0h0h0h0h0h0h0h0h0h0h0h0h0h0h0h0
		h0h0h0h0h0h0h0h0h0h0h0h0h0h0h0h0h0h0h0h0h0h0h0h0h0h0h0h0h0h0h0h0h0h0h0h0h0h0h0h0h0h0h0h0h0h0h0h0h0h0h0h0h0h0h0h0h0h0h0h0h0h0h0
		h0h0h0h0h0h0h0h0h0h0h0h0h0h0h0h0h0h0h0h0h0h0h0h0h0h0h0h0h0h0h0h0h0h0h0h0h0h0h0h0h0h0h0h0h0h0h0h0h0h0h0h0h0h0h0h0h0h0h0h0h0h0h0
		h0h0h0h0h0h0h0h0h0h0h0h0h0h0h0h0h0h0h0h0h0h0h0h0h0h0h0h0h0h0h0h0h0h0h0h0h0h0h0h0h0h0h0h0h0h0h0h0h0h0h0h0h0h0h0h0h0h0h0h0h0h0h0
		h0h0h0h0h0h0h0h0h0h0h0h0h0h0h0h0h0h0h0h0h0h0h0h0h0h0h0h0h0h0h0h0h0h0h0h0h0h0h0h0h0h0h0h0h0h0h0h0h0h0h0h0h0h0h0h0h0h0h0h0h0h0h0
		h0h0h0h0h0h0h0h0h0h0h0h0h0h0h0h0h0h0h0h0h0h0h0h0h0h0h0h0h0h0h0h0h0h0h0h0h0h0h0h0h0h0h0h0h0h0h0h0h0h0h0h0h0h0h0h0h0h0h0h0h0h0h0
		h0h0h0h0h0h0h0h0h0h0h0h0h0h0h0h0h0h0h0h0h0h0h0h0h0h0h0h0h0h0h0h0h0h0h0h0h0h0h0h0h0h0h0h0h0h0h0h0h0h0h0h0h0h0h0h0h0h0h0h0h0h0h0
		h0h0h0h0h0h0h0h0h0h0h0h0h0h0h0h0h0h0h0h0h0h0h0h0h0h0h0h0h0h0h0h0h0h0h0h0h0h0h0h0h0h0h0h0h0h0h0h0h0h0h0h0h0h0h0h0h0h0h0h0h0h0h0
		h0h0h0h0h0h0h0h0h0h0h0h0h0c-0.4,0-0.9,0-1.3,0.1c-1,0.3-1.6,1.3-1.3,2.3c0.2,0.5,0.4,0.8,0.8,1c0.4,0.2,0.8,0.3,1.2,0.3h0h0h0h0h0
		h0h0h0h0h0h0h0h0h0h0h0h0h0h0h0h0h0h0h0h0h0h0h0h0h0h0h0h0h0h0h0h0h0h0h0h0h0h0h0h0h0h0h0h0h0h0h0h0h0h0h0h0h0h0h0h0h0h0h0h0h0h0h0
		h0h0h0h0h0h0h0h0h0h0h0h0h0h0h0h0h0h0h0h0h0h0h0h0h0h0h0h0h0h0h0h0h0h0h0h0h0h0h0h0h0h0h0h0h0h0h0h0h0h0h0h0h0h0h0h0h0h0h0h0h0h0h0
		h0h0h0h0h0h0h0h0h0h0h0h0h0h0h0h0h0h0h0h0h0h0h0h0h0h0h0h0h0h0h0h0h0h0h0h0h0h0h0h0h0h0h0h0h0h0h0h0h0h0h0h0h0h0h0h0h0h0h0h0h0h0h0
		h0h0h0h0h0h0h0h0h0h0h0h0h0h0h0h0h0h0h0h0h0h0h0h0h0h0h0h0h0h0h0h0h0h0h0h0h0h0h0h0h0h0h0h0h0h0h0h0h0h0h0h0h0h0h0h0h0h0h0h0h0h0h0
		h0h0h0h0h0h0h0h0h0h0h0h0h0h0h0h0h0h0h0h0h0h0h0h0h0h0h0h0h0h0h0h0h0h0h0h0h0h0h0h0h0h0h0h0h0h0h0h0h0h0h0h0h0h0h0h0h0h0h0h0h0h0h0
		h0h0h0h0h0h0h0h0h0h0h0h0h0h0h0h0h0h0h0h0h0h0h0h0h0h0h0h0h0h0h0h0h0h0h0h0h0h0h0h0h0h0h0h0h0h0h0h0h0h0h0h0h0h0h0h0h0h0h0h0h0h0h0
		h0h0h0h0h0h0h0h0h0h0h0h0h0h0h0h0h0h0h0h0h0h0h0h0h0h0h0h0h0h0h0h0h0h0h0h0h0h0h0h0h0h0h0h0h0h0h0h0h0h0h0h0h0h0h0h0h0h0h0h0h0h0h0
		h0h0h0h0h0h0h0h0h0h0h0h0h0h0h0h0h0h0h0h0h0h0h0h0h0h0h0h0h0h0h0h0h0h0h0h0h0h0h0h0h0h0h0h0h0h0h0h0h0h0h0h0h0h0h0h0h0h0h0h0h0h0h0
		h0h0h0c0.8,0,1.7,0,2.5,0c3.3,0,6.6,0,9.9,0c0.6,0,1.1-0.2,1.4-0.5c0.4-0.3,0.6-0.7,0.6-1.3l0,0l0,0c0-0.5-0.2-1-0.5-1.3
		C85.1,69.1,84.6,68.9,84,68.9z"/>
	<path class="st6" d="M58.5,53.7L58.5,53.7L58.5,53.7c0.2,0.1,0.4,0.1,0.6,0.1c0.1,0,0.2,0,0.3,0c0,0,0,0,0,0c0.1,0,0.2,0,0.3,0h0h0
		h0h0h0h0h0h0h0h0h0h0h0h0h0h0h0h0h0h0h0h0h0h0h0h0h0h0h0h0h0h0h0h0h0h0h0h0h0h0h0h0h0h0h0h0h0h0h0h0h0h0h0h0h0h0h0h0h0h0h0h0h0h0h0
		h0h0h0h0h0h0h0h0h0h0h0h0h0h0h0h0h0h0h0h0h0h0h0h0h0h0h0h0h0h0h0h0h0h0h0h0h0h0h0h0h0h0h0h0h0h0h0h0h0h0h0h0h0h0h0h0h0h0h0h0h0h0h0
		h0h0h0h0h0h0h0h0h0h0h0h0h0h0h0h0h0h0h0h0h0h0h0h0h0h0h0h0h0h0h0h0h0h0h0h0h0h0h0h0h0h0h0h0h0h0h0h0h0h0h0h0h0h0h0h0h0h0h0h0h0h0h0
		h0h0h0h0h0h0h0h0h0h0h0h0h0h0h0h0h0h0h0h0h0h0h0h0h0h0h0h0h0h0h0h0h0h0h0h0h0h0h0h0h0h0h0h0h0h0h0h0h0h0h0h0h0h0h0h0h0h0h0h0h0h0h0
		h0h0h0h0h0h0h0h0h0h0h0h0h0h0h0h0h0h0h0h0h0h0h0h0h0h0h0h0h0h0h0h0h0h0h0h0h0h0h0h0h0h0h0h0h0h0h0h0h0h0h0h0h0h0h0h0h0h0h0h0h0h0h0
		h0h0h0h0h0h0h0h0h0h0h0h0h0h0h0h0h0h0h0h0h0h0h0h0h0h0h0h0h0h0h0h0h0h0h0h0h0h0h0h0h0h0h0h0h0h0h0h0h0h0h0h0h0h0h0h0h0h0h0h0h0h0h0
		h0h0h0h0h0h0h0h0h0h0h0h0h0h0h0h0h0h0h0h0h0h0h0h0h0h0h0h0h0h0h0h0h0h0h0h0h0h0h0h0h0h0h0h0h0h0h0h0h0h0h0h0h0h0h0h0h0h0h0h0h0h0h0
		h0h0h0h0h0h0h0h0h0h0h0h0h0h0h0h0h0h0h0h0h0h0h0h0h0h0h0h0h0h0h0h0h0h0h0h0h0h0h0h0h0h0h0h0h0h0h0h0h0h0h0h0h0h0h0h0h0h0h0h0h0h0h0
		h0h0h0h0h0h0h0c3.9,0,7.9,0,11.7,0h0c0.9,0,1.5-0.1,2-0.4c0.5-0.3,0.7-0.8,0.7-1.3v0c0-0.6-0.2-1.1-0.7-1.4c-0.5-0.3-1.1-0.5-2-0.5
		h0h0h0h0h0h0h0h0h0h0h0h0h0h0h0h0h0h0h0h0h0h0h0h0h0h0h0h0h0h0h0h0h0h0h0h0h0h0h0h0h0h0h0h0h0h0h0h0h0h0h0h0h0h0h0h0h0h0h0h0h0h0h0
		h0h0h0h0h0h0h0h0h0h0h0h0h0h0h0h0h0h0h0h0h0h0h0h0h0h0h0h0h0h0h0h0h0h0h0h0h0h0h0h0h0h0h0h0h0h0h0h0h0h0h0h0h0h0h0h0h0h0h0h0h0h0h0
		h0h0h0h0h0h0h0h0h0h0h0h0h0h0h0h0h0h0h0h0h0h0h0h0h0h0h0h0h0h0h0h0h0h0h0h0h0h0h0h0h0h0h0h0h0h0h0h0h0h0h0h0h0h0h0h0h0h0h0h0h0h0h0
		h0h0h0h0h0h0h0h0h0h0h0h0h0h0h0h0h0h0h0h0h0h0h0h0h0h0h0h0h0h0h0h0h0h0h0h0h0h0h0h0h0h0h0h0h0h0h0h0h0h0h0h0h0h0h0h0h0h0h0h0h0h0h0
		h0h0h0h0h0h0h0h0h0h0h0h0h0h0h0h0h0h0h0h0h0h0h0h0h0h0h0h0h0h0h0h0h0h0h0h0h0h0h0h0h0h0h0h0h0h0h0h0h0h0h0h0h0h0h0h0h0h0h0h0h0h0h0
		h0h0h0h0h0h0h0h0h0h0h0h0h0h0h0h0h0h0h0h0h0h0h0h0h0h0h0h0h0h0h0h0h0h0h0h0h0h0h0h0h0h0h0h0h0h0h0h0h0h0h0h0h0h0h0h0h0h0h0h0h0h0h0
		h0h0h0h0h0h0h0h0h0h0h0h0h0h0h0h0h0h0h0h0h0h0h0h0h0h0h0h0h0h0h0h0h0h0h0h0h0h0h0h0h0h0h0h0h0h0h0h0h0h0h0h0h0h0h0h0h0h0h0h0h0h0h0
		h0h0h0h0h0h0h0h0h0h0h0h0h0h0h0h0h0h0h0h0h0h0h0h0h0h0h0h0h0h0h0h0h0h0h0h0h0h0h0h0h0h0h0h0h0h0h0h0h0h0h0h0h0h0h0h0h0h0h0h0h0h0h0
		h0h0h0h0h0h0h0h0h0c-0.4,0-1,0-1.4,0.1l0,0l0,0c-0.4,0.1-0.8,0.4-1,0.7c-0.2,0.3-0.3,0.7-0.2,1.2l0,0l0,0c0.1,0.3,0.3,0.6,0.6,0.8
		C58,53.3,58.3,53.5,58.5,53.7z"/>
	<path class="st6" d="M83.9,102.5L83.9,102.5c0-1.4-1.2-2.6-2.6-2.6L83.9,102.5z M83.9,102.5c0,1.4-1.1,2.6-2.6,2.6l0,0 M83.9,102.5
		l-2.6,2.6 M81.3,105.1L81.3,105.1 M81.3,105.1L81.3,105.1 M81.3,105.1c-1.4,0-2.6-1.2-2.5-2.6 M81.3,105.1l-2.5-2.6 M78.8,102.5
		c0-1.4,1.2-2.5,2.5-2.5L78.8,102.5z M81.4,108.8c3.4,0,6.2-2.8,6.2-6.2c0-3.4-2.8-6.2-6.2-6.2c-3.4,0-6.2,2.8-6.2,6.2
		C75.1,105.9,77.9,108.8,81.4,108.8z"/>
	<path class="st6" d="M55.3,80L55.3,80c-0.1-0.5-0.3-0.9-0.6-1.2c-0.3-0.3-0.8-0.4-1.3-0.4h0h0h0h0h0h0h0h0h0h0h0h0h0h0h0h0h0h0h0h0
		h0h0h0h0h0h0h0h0h0h0h0h0h0h0h0h0h0h0h0h0h0h0h0h0h0h0h0h0h0h0h0h0h0h0h0h0h0h0h0h0h0h0h0h0h0h0h0h0h0h0h0h0h0h0h0h0h0h0h0h0h0h0h0
		h0h0h0h0h0h0h0h0h0h0h0h0h0h0h0h0h0h0h0h0h0h0h0h0h0h0h0h0h0h0h0h0h0h0h0h0h0h0h0h0h0h0h0h0h0h0h0h0h0h0h0h0h0h0h0h0h0h0h0h0h0h0h0
		h0h0h0h0h0h0h0h0h0h0h0h0h0h0h0h0h0h0h0h0h0h0h0h0h0h0h0h0h0h0h0h0h0h0h0h0h0h0h0h0h0h0h0h0h0h0h0h0h0h0h0h0h0h0h0h0h0h0h0h0h0h0h0
		h0h0h0h0h0h0h0h0h0h0h0h0h0h0h0h0h0h0h0h0h0h0h0h0h0h0h0h0h0h0h0h0h0h0h0h0h0h0h0h0h0h0h0h0h0h0h0h0h0h0h0h0h0h0h0h0h0h0h0h0h0h0h0
		h0h0h0h0h0h0h0h0h0h0h0h0h0h0h0h0h0h0h0h0h0h0h0h0h0h0h0h0h0h0h0h0h0h0h0h0h0h0h0h0h0h0h0h0h0h0h0h0h0h0h0h0h0h0h0h0h0h0h0h0h0h0h0
		h0h0h0h0h0h0h0h0h0h0h0h0h0h0h0h0h0h0h0h0h0h0h0h0h0h0h0h0h0h0h0h0h0h0h0h0h0h0h0h0h0h0h0h0h0h0h0h0h0h0h0h0h0h0h0h0h0h0h0h0h0h0h0
		h0h0h0h0h0h0h0h0h0h0h0h0h0h0h0h0h0h0h0h0h0h0h0h0h0h0h0h0h0h0h0h0h0h0h0h0h0h0h0h0h0h0h0h0h0h0h0h0h0h0h0h0h0h0h0h0h0h0h0h0h0h0h0
		h0h0h0h0h0h0h0h0h0h0h0h0h0h0h0h0h0h0h0h0h0h0h0h0h0h0h0h0h0h0h0h0h0h0h0h0h0h0h0h0h0h0h0h0h0h0h0h0h0h0h0c-0.2,0-0.4,0-0.6,0
		c-0.6,0-1.3,0-1.9,0c-0.5,0-1,0.2-1.3,0.5c-0.3,0.3-0.5,0.7-0.5,1.2c0,1,0.6,1.8,1.6,1.9l0,0l0,0c1.8,0.1,3.7,0.1,5.5,0l0,0l0,0
		C54.7,81.9,55.4,80.9,55.3,80z"/>
	<path class="st6" d="M46.5,70.9L46.5,70.9c-0.1-1,0.6-1.8,1.6-1.9 M46.5,70.9l7,1.7c0.5,0,0.9-0.2,1.2-0.5c0.3-0.3,0.5-0.7,0.5-1.2
		c0.1-0.9-0.6-1.9-1.6-1.9l0,0l0,0c-1.8-0.1-3.7-0.1-5.5,0 M46.5,70.9L46.5,70.9 M46.5,70.9L46.5,70.9 M48.2,69
		C48.2,69,48.2,69,48.2,69l0,0.2 M48.2,69C48.2,69,48.2,69,48.2,69l0,0.2 M48.2,69.2c-0.9,0-1.5,0.8-1.4,1.7L48.2,69.2z M46.5,70.9
		c0,0.5,0.2,0.9,0.5,1.2c0.3,0.3,0.7,0.4,1.2,0.5 M46.5,70.9l1.7,1.6 M48.3,72.6c0.6,0,1.1,0,1.7,0c0.3,0,0.6,0,0.9,0
		c0.3,0,0.6,0,0.9,0c0.6,0,1.2,0,1.8,0L48.3,72.6z"/>
	<path class="st6" d="M53.5,59.6L53.5,59.6c1.1,0,1.9,0.8,1.9,1.8c0,0.9-0.7,1.8-1.8,1.8 M53.5,59.6l0.1,3.4 M53.5,59.6L53.5,59.6
		c-0.6,0-1.2,0-1.7,0c-0.3,0-0.6,0-0.9,0c-0.4,0-0.8,0-1.2,0h0c-0.4,0-0.8,0-1.2,0v0l0,0c-0.5,0-1,0.2-1.3,0.5
		c-0.3,0.3-0.5,0.8-0.5,1.3c0,0.5,0.2,0.9,0.5,1.3c0.3,0.3,0.7,0.5,1.3,0.6 M53.5,59.6L48.3,63 M53.5,63.2
		C53.5,63.2,53.5,63.2,53.5,63.2l0-0.2 M53.5,63.2C53.5,63.2,53.5,63.2,53.5,63.2l0-0.2 M53.5,63.2c-1.8,0-3.5,0-5.3,0 M53.5,63
		c-1.7,0-3.5,0-5.3,0 M48.3,63.2C48.3,63.2,48.3,63.2,48.3,63.2l0-0.2 M48.3,63.2l0-0.2"/>
	<path class="st6" d="M48.4,53.8L48.4,53.8L48.4,53.8c0.6,0,1.1,0,1.7,0c0.3,0,0.5,0,0.8,0c0.3,0,0.6,0,0.9,0c0.6,0,1.2,0,1.8,0l0,0
		l0,0c1,0,1.8-0.8,1.8-1.8c0-0.5-0.2-0.9-0.4-1.2c-0.3-0.3-0.7-0.5-1.2-0.5l0,0l0,0c-1.8-0.1-3.7-0.1-5.5,0l0,0l0,0
		c-0.5,0-1,0.2-1.2,0.6c-0.3,0.3-0.4,0.8-0.4,1.3c0,0.5,0.2,0.9,0.5,1.2C47.4,53.6,47.8,53.8,48.4,53.8z"/>
	<path class="st6" d="M83.2,93.5L83.2,93.5c0-0.6-0.1-1.1-0.5-1.5c-0.3-0.4-0.8-0.6-1.3-0.6c-0.5,0-1,0.2-1.4,0.5
		c-0.3,0.4-0.5,0.9-0.5,1.5c0,0.6,0.2,1.1,0.5,1.5c0.3,0.4,0.8,0.6,1.3,0.6C82.4,95.5,83.2,94.7,83.2,93.5z"/>
	<path class="st6" d="M86.4,97.1L86.4,97.1c0.5,0,1.1-0.2,1.5-0.6c0.4-0.4,0.7-0.9,0.7-1.5c0-1-0.7-1.9-1.8-1.9
		c-0.5,0-1.1,0.3-1.4,0.7c-0.4,0.4-0.7,0.9-0.7,1.5C84.7,96.3,85.5,97.1,86.4,97.1z"/>
	<path class="st6" d="M78,95.4L78,95.4c0,0.9-0.8,1.7-1.8,1.8l0,0l0,0c-0.6,0-1.1-0.3-1.5-0.7c-0.4-0.4-0.6-1-0.6-1.6l0,0l0,0
		c0-1,0.8-1.7,1.8-1.7L78,95.4z M78,95.4L78,95.4 M78,95.4L78,95.4 M78,95.4c0-0.5-0.3-1.1-0.7-1.5 M78,95.4l-0.7-1.5 M77.4,93.9
		c-0.4-0.4-0.9-0.7-1.4-0.7L77.4,93.9z"/>
	<path class="st5" d="M81.3,105.5c1.6,0,3-1.3,3-3c0-1.7-1.3-3-3-3c-1.6,0-2.9,1.3-2.9,2.9C78.4,104.1,79.7,105.5,81.3,105.5z"/>
</g>
<g id="圖層_2">
	<g>
		<path class="st7" d="M110.6,50.9c4.7-3.1,8.7-2.8,12,1.1c0.7,0.8,0.7,2.2,1.1,3.3c-1.2-0.3-2.4-0.3-3.4-0.8
			c-1.1-0.5-2-1.5-3.2-1.9c2.9,2.7,5.7,5.4,8.4,7.9c0,0.2-0.2-0.4,0-0.8c0.3-0.8,0.8-1.5,1.2-2.2c0.7,0.5,2.1,0.9,2.1,1.5
			c0.5,3.9,1.1,7.9,1,11.8c0,1.4-1.5,3-2.6,4.1c-2.8,3-5.7,6-8.7,8.7c-0.8,0.7-2.4,0.6-3.7,0.9c0.4-1.1,0.4-2.5,1.1-3.3
			c2.7-3,5.6-5.7,8.4-8.5c0.9-0.9,1.6-1.9,2.3-2.9c-0.2-0.2-0.4-0.4-0.6-0.6c-0.6,0.3-1.2,0.6-1.8,1c-0.3,0.2-0.5,0.5-0.7,0.7
			c-4.2,4.3-10,7.9-12.2,13c-2.1,5-0.7,11.6-0.7,17.4c0,4.9-0.1,9.8-2.5,14.2c-3.9,7-10.1,10-17.9,10c-15.9,0.1-31.8,0.2-47.7,0
			c-12.4-0.2-20.1-8.3-20.1-20.8c0-20.8,0-41.5,0-62.3c0-12.5,6.5-19.6,18.9-21c1.2-0.1,2.7-1.1,3.3-2.1c2.1-3.2,4.8-4.6,8.6-4.6
			c8.9,0.1,17.8,0.1,26.7,0c3.5,0,6.1,1.4,8.2,4.3c0.8,1.1,2.3,2.3,3.6,2.3c10.4,0.4,19,8.4,18.9,20.7
			C110.6,44.9,110.6,47.6,110.6,50.9z M98.7,89.5c0,4.3,0,8.6,0,12.9c0,8.9-3.8,12.8-12.8,12.8c-13,0-26,0-39.1,0
			c-8.7,0-12.5-3.8-12.5-12.7c0-16.9,0-33.8,0-50.7c0-0.7-0.2-1.4,0.1-2c0.3-0.7,1-1.6,1.5-1.6c0.6,0,1.5,0.8,1.7,1.5
			c0.3,0.9,0.2,2,0.2,3c0,12.2,0,24.5,0,36.7c0,5.2-0.1,10.5,0.2,15.7c0.2,4.1,2.5,6.4,6.6,6.4c14.5,0.1,28.9,0.1,43.4,0.1
			c3.4,0,6.1-1.4,6.5-4.9c0.6-5,0.6-10.1,0.8-15.1c-8.1-0.1-10.3-3.8-6.9-10.4c0.5-0.9,0.7-2.1,0.7-3.1c0-3.3,0.8-6.1,3.3-8.4
			c2-1.8,2.8-4.1,2.7-6.8c-0.1-6.9,0-13.8-0.1-20.7c0-1.5,0-3.5-0.8-4.5c-1.4-1.6-4.3-4.1-5.2-3.7c-3,1.7-7,2.5-8.3,6.2
			c-1,2.7-2.7,4-5.4,4.1c-5.9,0.1-11.8,0.1-17.7,0c-3,0-4.8-1.8-5.9-4.5c-0.4-0.9-1.2-1.7-2.1-2.4c-0.9-0.7-2.2-1.1-3.1-1.8
			c-3.2-2.5-6.5-1.7-7.9,2.1c-0.6,1.6-0.4,3.5-0.9,5.2c-0.2,0.8-1.2,1.3-2,1.8c-0.1,0.1-1.2-0.9-1.3-1.5c-1.1-4.9,1.7-10.7,6.4-12.3
			c3.4-1.2,3.3-3.1,2.6-5.7c-9.6-1-17.3,5.6-17.4,15.5c-0.2,21.9-0.2,43.8,0,65.7c0.1,8.4,5.9,14.9,14.2,15.2c17,0.5,34,0.4,51,0.3
			c6.6-0.1,11.9-3.2,14.3-9.6c2.8-7.9,1-16.2,1.4-24.4C104,88.4,101.6,88.9,98.7,89.5z M66.9,18.4c-4.7,0-9.3,0-14,0
			c-3.2,0-5.1,1.7-5.5,4.7c-0.3,2.2-0.2,4.4,0.1,6.6c0.3,2.9,2.1,4.5,5.2,4.5c9.2,0,18.5,0,27.7,0c3.4,0,4.9-1.6,5.3-5.1
			c0.7-6-0.4-9.6-3.4-10.5c-0.8-0.2-1.8-0.2-2.6-0.2C75.4,18.3,71.1,18.4,66.9,18.4z M111.7,55.1c-3.9,4-8,8.2-12.1,12.4
			c-1.9,2-4,3.9-5.6,6.1c-2.2,3.1-1.7,7.1,0.9,9.7c2.6,2.6,6.8,3.3,9.7,0.8c6.4-5.7,12.5-11.8,18.6-17.7
			C119.2,62.5,115.6,59,111.7,55.1z M98.7,62.1c0.4,0.2,0.8,0.5,1.3,0.7c1.7-2,3.5-3.9,5.2-6c0.8-1,1.8-2.2,1.8-3.4
			c0-5.4,0.2-10.9-0.5-16.2c-1.1-7.8-9.3-13.4-17.7-11.7c0.8,1.7,1.1,4.1,2.3,4.6c6,2.5,7.7,7.1,7.7,13
			C98.6,49.5,98.7,55.8,98.7,62.1z M55.7,38.1c-0.1,0.3-0.3,0.7-0.4,1c1,0.6,2.1,1.6,3.1,1.7c5.3,0.2,10.7,0.2,16,0
			c1.1,0,2.1-1.2,3.2-1.8c-0.2-0.3-0.3-0.6-0.5-0.9C70,38.1,62.8,38.1,55.7,38.1z"/>
		<path class="st8" d="M98.7,89.5c2.9-0.6,5.3-1,8.3-1.6c-0.5,8.3,1.4,16.5-1.4,24.4c-2.3,6.4-7.6,9.6-14.3,9.6
			c-17,0.1-34,0.3-51-0.3c-8.3-0.3-14.2-6.8-14.2-15.2c-0.2-21.9-0.2-43.8,0-65.7c0.1-9.9,7.8-16.5,17.4-15.5
			c0.8,2.6,0.8,4.5-2.6,5.7c-4.7,1.6-7.5,7.4-6.4,12.3c0.1,0.6,1.2,1.6,1.3,1.5c0.8-0.4,1.8-1,2-1.8c0.5-1.7,0.3-3.6,0.9-5.2
			c1.4-3.8,4.7-4.6,7.9-2.1c0.9,0.7,2.2,1.1,3.1,1.8c0.8,0.6,1.7,1.5,2.1,2.4c1.1,2.8,2.9,4.5,5.9,4.5c5.9,0.1,11.8,0.1,17.7,0
			c2.7,0,4.4-1.4,5.4-4.1c1.3-3.7,5.3-4.6,8.3-6.2c0.8-0.5,3.8,2,5.2,3.7c0.9,1,0.8,2.9,0.8,4.5c0.1,6.9-0.1,13.8,0.1,20.7
			c0.1,2.8-0.7,5-2.7,6.8c-2.5,2.2-3.4,5.1-3.3,8.4c0,1.1-0.2,2.2-0.7,3.1c-3.4,6.7-1.2,10.3,6.9,10.4c-0.2,5-0.2,10.1-0.8,15.1
			c-0.4,3.5-3.1,4.9-6.5,4.9c-14.5,0-28.9,0-43.4-0.1c-4.1,0-6.4-2.3-6.6-6.4c-0.2-5.2-0.1-10.4-0.2-15.7c0-12.2,0-24.5,0-36.7
			c0-1,0.2-2.1-0.2-3c-0.2-0.7-1.1-1.5-1.7-1.5c-0.5,0-1.2,0.9-1.5,1.6c-0.3,0.6-0.1,1.3-0.1,2c0,16.9,0,33.8,0,50.7
			c0,8.8,3.8,12.6,12.5,12.7c13,0,26,0,39.1,0c9,0,12.8-3.9,12.8-12.8C98.7,98.1,98.7,93.8,98.7,89.5z M84.8,96.5
			c-0.6,0-1.3,0-1.9-0.1c-3-0.5-5.9,1.1-7,3.8c-1.1,2.9,0.1,6.2,2.8,7.7c2.4,1.3,5.8,0.8,7.6-1.2c2.1-2.3,2.1-5.7,0.1-8.2
			C85.8,97.8,85.2,97.1,84.8,96.5c1.5,0.4,3.3,1.2,3.9-1.2c0.1-0.5-0.7-1.9-1.2-2C85,92.9,85.3,95.1,84.8,96.5z M72.2,50.1
			C72.2,50.1,72.2,50.1,72.2,50.1c-4.1,0-8.2-0.1-12.3,0.1c-0.8,0-1.5,1.1-2.3,1.7c0.8,0.6,1.5,1.8,2.3,1.8c7.9,0.1,15.8,0.2,23.6,0
			c0.9,0,1.8-1.2,2.6-1.8c-0.9-0.6-1.7-1.7-2.6-1.8C79.7,50,75.9,50.1,72.2,50.1z M71.6,63.2c4,0,8,0.1,12-0.1
			c0.9,0,1.7-1.2,2.6-1.8c-0.9-0.6-1.8-1.7-2.6-1.8c-7.7-0.1-15.5-0.1-23.3,0c-0.9,0-1.7,1.2-2.6,1.8c0.9,0.6,1.7,1.7,2.6,1.8
			C64.1,63.3,67.9,63.2,71.6,63.2z M71.8,72.6C71.8,72.5,71.8,72.5,71.8,72.6c3.7-0.1,7.3,0.1,11-0.1c1.1-0.1,2.2-1.2,3.3-1.8
			c-1.1-0.6-2.2-1.7-3.3-1.7c-7.4-0.2-14.9-0.2-22.3,0c-1,0-1.9,1.2-2.9,1.8c1,0.6,2,1.7,3,1.8C64.2,72.7,68,72.6,71.8,72.6z
			 M58.4,81.4c0-0.3,0-0.6,0-1c9.2,0,18.5,0,27.7,0c0.1-0.3,0.2-0.6,0.3-0.9c-1-0.4-1.9-1.1-2.9-1.2c-7.9-0.2-15.8-0.2-23.6-0.1
			c-0.9,0-1.8,1.2-2.7,1.8c0.9,0.6,1.8,1.7,2.7,1.7c7.4,0.1,14.9,0.1,22.3,0.1c0-0.1,0-0.3,0-0.4C74.3,81.4,66.4,81.4,58.4,81.4z
			 M51.4,50.1C51.4,50.1,51.4,50.1,51.4,50.1c-0.7,0.1-1.5-0.2-2,0.1c-0.9,0.5-1.7,1.3-2.5,2c0.8,0.5,1.6,1.4,2.5,1.6
			c1.4,0.2,2.9,0.2,4.3-0.1c0.6-0.1,1.5-1.1,1.5-1.7c0-0.6-0.9-1.4-1.5-1.7C53,50,52.2,50.1,51.4,50.1z M50.9,63.1
			c1,0,2,0.2,2.9-0.1c0.6-0.2,1.5-1,1.4-1.5c-0.1-0.7-0.7-1.9-1.3-1.9c-1.9-0.2-3.9-0.1-5.9,0.1c-0.5,0.1-1.3,1.2-1.1,1.7
			c0.2,0.7,0.9,1.4,1.6,1.7C49.2,63.3,50.1,63.1,50.9,63.1z M51,81.9C51,81.9,51,81.9,51,81.9c0.8,0,1.6,0.2,2.3,0
			c0.8-0.3,1.4-1,2.1-1.6c-0.7-0.7-1.3-1.7-2.1-1.9c-1.5-0.3-3.1-0.3-4.6-0.1c-0.7,0.1-1.4,1.2-1.7,2c-0.1,0.3,1,1.2,1.7,1.5
			C49.4,82.1,50.2,81.9,51,81.9z M51,68.8c-0.6,0-1.2-0.2-1.6,0c-0.9,0.5-1.8,1.2-2.6,1.8c0.7,0.5,1.4,1.1,2.2,1.4
			c1.1,0.4,2.5,0.7,3.6,0.5c1-0.2,1.9-1.2,2.8-1.9c-0.9-0.6-1.7-1.3-2.7-1.8C52.2,68.7,51.6,68.8,51,68.8z M81.9,90.5
			c-1,1.4-1.9,2.1-1.8,2.8c0.1,0.7,1,1.4,1.5,2.1c0.6-0.6,1.6-1.2,1.7-1.9C83.4,92.8,82.6,92,81.9,90.5z M73.6,94.9
			c1.2,1,1.9,2,2.6,2c0.7,0,1.8-1,1.9-1.6c0-0.7-0.9-1.8-1.6-1.9C75.8,93.2,74.9,94.1,73.6,94.9z"/>
		<path class="st9" d="M66.9,18.4c4.2,0,8.4,0,12.7,0c0.9,0,1.8,0,2.6,0.2c3,0.9,4.2,4.5,3.4,10.5c-0.4,3.5-1.9,5.1-5.3,5.1
			c-9.2,0.1-18.4,0-27.7,0c-3.1,0-4.8-1.6-5.2-4.5c-0.3-2.2-0.4-4.5-0.1-6.6c0.4-3,2.3-4.7,5.5-4.7C57.6,18.4,62.2,18.4,66.9,18.4z"
			/>
		<path class="st9" d="M111.7,55.1c4,3.9,7.6,7.4,11.5,11.4c-6.1,5.8-12.2,12-18.6,17.7c-2.9,2.5-7.1,1.8-9.7-0.8
			c-2.6-2.6-3.1-6.6-0.9-9.7c1.6-2.2,3.6-4.2,5.6-6.1C103.6,63.2,107.8,59.1,111.7,55.1z"/>
		<path class="st8" d="M98.7,62.1c0-6.3-0.1-12.6,0-18.9c0.1-5.9-1.7-10.5-7.7-13c-1.2-0.5-1.5-2.9-2.3-4.6
			c8.4-1.7,16.6,3.8,17.7,11.7c0.7,5.3,0.5,10.8,0.5,16.2c0,1.1-1,2.4-1.8,3.4c-1.6,2.1-3.4,4-5.2,6C99.5,62.6,99.1,62.4,98.7,62.1z
			"/>
		<path class="st8" d="M55.7,38.1c7.1,0,14.3,0,21.4,0c0.2,0.3,0.3,0.6,0.5,0.9c-1.1,0.6-2.1,1.7-3.2,1.8c-5.3,0.2-10.7,0.2-16,0
			c-1.1,0-2.1-1.1-3.1-1.7C55.4,38.8,55.6,38.4,55.7,38.1z"/>
		<path class="st7" d="M72.2,50.1c3.8,0,7.6-0.1,11.3,0.1c0.9,0,1.8,1.2,2.6,1.8c-0.9,0.6-1.7,1.8-2.6,1.8c-7.9,0.1-15.8,0.1-23.6,0
			c-0.8,0-1.5-1.2-2.3-1.8c0.8-0.6,1.5-1.7,2.3-1.7C64,50,68.1,50.1,72.2,50.1C72.2,50.1,72.2,50.1,72.2,50.1z"/>
		<path class="st7" d="M71.6,63.2c-3.8,0-7.5,0.1-11.3-0.1c-0.9,0-1.8-1.1-2.6-1.8c0.9-0.6,1.7-1.8,2.6-1.8c7.7-0.1,15.5-0.1,23.3,0
			c0.9,0,1.8,1.1,2.6,1.8c-0.9,0.6-1.7,1.8-2.6,1.8C79.6,63.3,75.6,63.2,71.6,63.2z"/>
		<path class="st7" d="M71.8,72.6c-3.8,0-7.5,0.1-11.3-0.1c-1-0.1-2-1.2-3-1.8c1-0.6,1.9-1.8,2.9-1.8c7.4-0.1,14.9-0.1,22.3,0
			c1.1,0,2.2,1.1,3.3,1.7c-1.1,0.6-2.2,1.7-3.3,1.8C79.1,72.7,75.4,72.5,71.8,72.6C71.8,72.5,71.8,72.5,71.8,72.6z"/>
		<path class="st7" d="M84.7,96.5c0.6,0.7,1.1,1.3,1.7,2c2,2.5,2,5.9-0.1,8.2c-1.8,2-5.2,2.6-7.6,1.2c-2.7-1.5-3.9-4.8-2.8-7.7
			c1.1-2.7,4-4.3,7-3.8C83.5,96.5,84.1,96.5,84.7,96.5L84.7,96.5z M81.9,98.6c-1.4,1.8-2.9,2.9-2.8,3.8c0.1,1,1.5,2.3,2.5,2.6
			c0.7,0.2,2.4-1.4,2.5-2.2C84.2,101.8,83,100.6,81.9,98.6z"/>
		<path class="st7" d="M58.4,81.4c7.9,0,15.9,0,23.8,0c0,0.1,0,0.3,0,0.4c-7.4,0-14.9,0.1-22.3-0.1c-0.9,0-1.8-1.1-2.7-1.7
			c0.9-0.6,1.8-1.8,2.7-1.8c7.9-0.1,15.8,0,23.6,0.1c1,0,1.9,0.8,2.9,1.2c-0.1,0.3-0.2,0.6-0.3,0.9c-9.2,0-18.5,0-27.7,0
			C58.4,80.8,58.4,81.1,58.4,81.4z"/>
		<path class="st7" d="M51.4,50.1c0.8,0,1.7-0.1,2.3,0.2c0.7,0.3,1.6,1.1,1.5,1.7c0,0.6-0.9,1.6-1.5,1.7c-1.4,0.3-2.9,0.3-4.3,0.1
			c-0.9-0.2-1.7-1-2.5-1.6c0.8-0.7,1.6-1.5,2.5-2C49.9,49.9,50.7,50.2,51.4,50.1C51.4,50.1,51.4,50.1,51.4,50.1z"/>
		<path class="st7" d="M50.9,63.1c-0.8,0-1.6,0.2-2.3-0.1c-0.7-0.3-1.4-1-1.6-1.7c-0.1-0.4,0.7-1.6,1.1-1.7c1.9-0.2,3.9-0.3,5.9-0.1
			c0.5,0.1,1.2,1.2,1.3,1.9c0,0.5-0.8,1.3-1.4,1.5C52.9,63.3,51.9,63.1,50.9,63.1z"/>
		<path class="st7" d="M51,81.9c-0.8,0-1.6,0.2-2.3-0.1c-0.7-0.3-1.8-1.2-1.7-1.5c0.2-0.8,1-1.9,1.7-2c1.5-0.3,3.1-0.3,4.6,0.1
			c0.8,0.2,1.4,1.2,2.1,1.9c-0.7,0.5-1.3,1.3-2.1,1.6C52.6,82.1,51.7,81.9,51,81.9C51,81.9,51,81.9,51,81.9z"/>
		<path class="st7" d="M51,68.8c0.6,0,1.2-0.2,1.6,0c1,0.5,1.8,1.2,2.7,1.8c-0.9,0.7-1.8,1.7-2.8,1.9c-1.1,0.2-2.4-0.2-3.6-0.5
			c-0.8-0.2-1.5-0.9-2.2-1.4c0.9-0.6,1.7-1.3,2.6-1.8C49.8,68.7,50.5,68.8,51,68.8z"/>
		<path class="st7" d="M81.9,90.5c0.8,1.5,1.5,2.4,1.4,3.1c-0.1,0.7-1.1,1.2-1.7,1.9C81,94.7,80.1,94,80,93.3
			C80,92.6,80.9,91.9,81.9,90.5z"/>
		<path class="st7" d="M73.6,94.9c1.3-0.8,2.2-1.7,2.8-1.6c0.7,0.1,1.6,1.3,1.6,1.9c0,0.6-1.2,1.6-1.9,1.6
			C75.5,96.9,74.8,95.9,73.6,94.9z"/>
		<path class="st7" d="M84.8,96.5c0.5-1.4,0.2-3.6,2.7-3.2c0.5,0.1,1.3,1.4,1.2,2C88,97.8,86.2,96.9,84.8,96.5
			C84.7,96.5,84.8,96.5,84.8,96.5z"/>
		<path class="st8" d="M81.9,98.6c1.1,2,2.3,3.1,2.2,4.1c-0.1,0.9-1.8,2.4-2.5,2.2c-1-0.2-2.4-1.6-2.5-2.6
			C79,101.5,80.5,100.5,81.9,98.6z"/>
	</g>
</g>
</svg>
