<svg xmlns="http://www.w3.org/2000/svg" width="20.264" height="21.575" viewBox="0 0 20.264 21.575">
  <g id="Group_687" data-name="Group 687" transform="translate(0.199 0.125)">
    <path id="Path_673" data-name="Path 673" d="M-176.634,4.129A1.827,1.827,0,0,1-175.5,5.141c.618,1.112,1.267,2.207,1.9,3.308.034.059.07.118.119.2a1.72,1.72,0,0,1,1.694-.176,1.628,1.628,0,0,1,.831.806c.4.824.114,1.6-.836,2.28.036.069.07.142.111.212.691,1.2,1.387,2.392,2.072,3.594a1.346,1.346,0,0,1-.874,2.032,1.353,1.353,0,0,1-1.135-.266.365.365,0,0,0-.255-.074q-3.4.72-6.791,1.455c-.006,0-.01.008-.037.031l.384.363a1.13,1.13,0,0,1-.221,1.942l-.293.171c.055.06.1.115.152.165.468.472.953.928,1.4,1.417a1.663,1.663,0,0,1-.245,2.456,1.677,1.677,0,0,1-2.229-.193q-2.067-2.059-4.127-4.125c-.054-.054-.1-.113-.159-.177-.333.191-.648.375-.966.554a1.97,1.97,0,0,1-2.761-.745q-.644-1.1-1.276-2.209a1.972,1.972,0,0,1,.753-2.8c1.082-.628,2.168-1.251,3.249-1.88a1.207,1.207,0,0,0,.286-.233q.957-1.066,1.9-2.141a.455.455,0,0,1,.451-.2.417.417,0,0,1,.2.716c-.47.536-.946,1.066-1.42,1.6-.16.18-.319.362-.481.545l1.872,3.246c.214.371.435.739.641,1.115a.193.193,0,0,0,.25.109q4.266-.919,8.533-1.835c.188-.04.375-.083.593-.131l-5.557-9.626c-.2.223-.387.431-.574.64-.437.491-.872.985-1.312,1.473a.411.411,0,0,1-.676,0,.425.425,0,0,1,.082-.579q.965-1.087,1.932-2.172a.371.371,0,0,0,.108-.329,1.329,1.329,0,0,1,1.044-1.519.48.48,0,0,0,.074-.034Zm-5.647,14.458-2.482-4.3c-.063.034-.105.055-.146.079q-1.482.855-2.963,1.711a1.144,1.144,0,0,0-.45,1.667q.628,1.1,1.265,2.191a1.144,1.144,0,0,0,1.67.443c.546-.312,1.09-.628,1.635-.943Zm5.432-13.626a.508.508,0,0,0-.538.478.866.866,0,0,0,.117.407q2.989,5.192,5.987,10.379a1.388,1.388,0,0,0,.111.175.522.522,0,0,0,.673.127.518.518,0,0,0,.217-.648,2.424,2.424,0,0,0-.147-.273l-4.4-7.63c-.515-.892-1.032-1.782-1.544-2.676A.572.572,0,0,0-176.848,4.961ZM-183.3,20.136c.072.075.123.131.176.184l2.231,2.229,1.716,1.717a.844.844,0,0,0,.964.232.845.845,0,0,0,.254-1.416q-1.484-1.494-2.978-2.979c-.245-.244-.486-.493-.737-.73a.23.23,0,0,0-.2-.052C-182.347,19.58-182.812,19.853-183.3,20.136Zm3.887.257c.157-.09.332-.187.5-.29.256-.153.28-.348.066-.551-.255-.242-.515-.48-.776-.715-.043-.039-.109-.09-.155-.082-.355.067-.708.148-1.055.223Zm7.185-9.571a.866.866,0,0,0,.475-1.272.854.854,0,0,0-1.3-.162Z" transform="translate(189.344 -4.129)" fill="#2a2968" stroke="#2a2968" stroke-width="0.25"/>
    <path id="Path_674" data-name="Path 674" d="M-150.036,32.191a.446.446,0,0,1-.444-.441.456.456,0,0,1,.442-.447.447.447,0,0,1,.452.456A.437.437,0,0,1-150.036,32.191Z" transform="translate(158.143 -25.944)" fill="#2a2968" stroke="#2a2968" stroke-width="0.25"/>
  </g>
</svg>
