<svg width="19" height="20" viewBox="0 0 19 20" fill="none" xmlns="http://www.w3.org/2000/svg">
<path d="M12.0175 0.781281C12.2344 0.84873 12.4343 0.962044 12.6036 1.11353C12.7728 1.26503 12.9075 1.45115 12.9985 1.65928C13.5345 2.62328 14.0985 3.57228 14.6485 4.52728C14.6785 4.57828 14.7095 4.62728 14.7485 4.70028C14.959 4.5494 15.2052 4.45594 15.4628 4.42911C15.7203 4.40228 15.9805 4.44301 16.2175 4.54728C16.5352 4.68451 16.7914 4.9336 16.9375 5.24728C17.2815 5.96128 17.0375 6.63528 16.2125 7.22428C16.2435 7.28428 16.2735 7.34828 16.3125 7.40828C16.9125 8.44728 17.5125 9.48228 18.1125 10.5243C18.2122 10.6842 18.2717 10.8658 18.2859 11.0536C18.3001 11.2415 18.2686 11.43 18.1941 11.603C18.1196 11.7761 18.0044 11.9285 17.8582 12.0473C17.7119 12.1661 17.5391 12.2478 17.3545 12.2853C17.1837 12.3226 17.0066 12.3212 16.8364 12.2812C16.6661 12.2412 16.5069 12.1637 16.3705 12.0543C16.3075 12.0059 16.2286 11.9831 16.1495 11.9903C14.1862 12.4069 12.2235 12.8276 10.2615 13.2523C10.2615 13.2523 10.2525 13.2593 10.2295 13.2793L10.5625 13.5933C10.7002 13.6957 10.8086 13.8325 10.8768 13.99C10.945 14.1474 10.9707 14.32 10.9512 14.4905C10.9318 14.661 10.8679 14.8234 10.766 14.9615C10.6641 15.0996 10.5277 15.2085 10.3705 15.2773L10.1165 15.4253C10.1645 15.4773 10.2045 15.5253 10.2485 15.5683C10.6545 15.9773 11.0755 16.3683 11.4635 16.7973C11.5991 16.9466 11.7019 17.1228 11.7651 17.3144C11.8284 17.5059 11.8508 17.7086 11.8308 17.9094C11.8108 18.1101 11.7489 18.3045 11.6492 18.4798C11.5494 18.6551 11.4139 18.8076 11.2515 18.9273C10.9653 19.1423 10.6098 19.2442 10.2531 19.2133C9.89642 19.1825 9.56365 19.0212 9.31852 18.7603C8.12386 17.5703 6.93119 16.3783 5.74052 15.1843C5.69452 15.1383 5.65252 15.0843 5.60252 15.0313C5.31452 15.1973 5.04052 15.3563 4.76552 15.5113C4.56755 15.6323 4.34699 15.7118 4.11731 15.7447C3.88762 15.7777 3.65364 15.7635 3.42961 15.7031C3.20558 15.6426 2.99621 15.5372 2.8143 15.3931C2.63238 15.2491 2.48173 15.0695 2.37152 14.8653C1.99952 14.2286 1.63085 13.5903 1.26552 12.9503C1.13889 12.7504 1.05513 12.5265 1.0195 12.2926C0.983871 12.0587 0.997171 11.82 1.05855 11.5915C1.11992 11.363 1.22804 11.1497 1.37607 10.9652C1.52409 10.7806 1.7088 10.6288 1.91852 10.5193C2.85752 9.97428 3.79852 9.43428 4.73552 8.88928C4.82792 8.83568 4.91156 8.76823 4.98352 8.68928C5.53685 8.07261 6.08719 7.45395 6.63452 6.83328C6.67715 6.77114 6.73647 6.7223 6.80565 6.69241C6.87482 6.66251 6.95105 6.65276 7.02553 6.66428C7.09084 6.67768 7.15116 6.70891 7.19981 6.75451C7.24846 6.8001 7.28354 6.85828 7.30115 6.9226C7.31875 6.98691 7.3182 7.05484 7.29956 7.11886C7.28091 7.18288 7.24491 7.24048 7.19552 7.28528C6.78852 7.75028 6.37452 8.20928 5.96452 8.67228C5.82552 8.82828 5.68751 8.98628 5.54751 9.14428L7.17051 11.9583C7.35651 12.2803 7.54751 12.5993 7.72651 12.9243C7.74299 12.9654 7.77505 12.9983 7.81569 13.0159C7.85632 13.0335 7.90227 13.0344 7.94352 13.0183C10.4102 12.4849 12.8769 11.9546 15.3435 11.4273C15.5065 11.3923 15.6685 11.3553 15.8575 11.3143L11.0385 2.96828C10.8655 3.16128 10.7025 3.34228 10.5385 3.52328C10.1595 3.94928 9.78253 4.37728 9.40053 4.80028C9.36779 4.84772 9.32401 4.8865 9.27298 4.91329C9.22194 4.94008 9.16517 4.95408 9.10753 4.95408C9.04989 4.95408 8.9931 4.94008 8.94206 4.91329C8.89102 4.8865 8.84727 4.84772 8.81453 4.80028C8.76059 4.72353 8.73789 4.62911 8.75108 4.53623C8.76427 4.44335 8.81235 4.35898 8.88553 4.30028C9.44353 3.67161 10.0022 3.04395 10.5615 2.41728C10.599 2.38093 10.6271 2.33597 10.6433 2.2863C10.6595 2.23664 10.6634 2.18377 10.6545 2.13228C10.606 1.83837 10.6732 1.53709 10.8419 1.29158C11.0106 1.04607 11.2678 0.875379 11.5595 0.81528C11.5816 0.807432 11.603 0.79773 11.6235 0.78628L12.0175 0.781281ZM7.11752 13.3173L4.96551 9.59028C4.91151 9.61928 4.87451 9.63828 4.83851 9.65828C3.98185 10.1529 3.12551 10.6476 2.26951 11.1423C2.14193 11.2043 2.02915 11.293 1.93875 11.4023C1.84835 11.5116 1.78243 11.639 1.74547 11.776C1.7085 11.9129 1.70135 12.0562 1.72447 12.1962C1.74759 12.3361 1.80046 12.4695 1.87951 12.5873C2.24285 13.2219 2.60952 13.8553 2.97952 14.4873C3.04204 14.6148 3.13121 14.7274 3.24101 14.8175C3.35081 14.9076 3.47868 14.9731 3.61596 15.0095C3.75325 15.0459 3.89674 15.0524 4.03676 15.0285C4.17677 15.0047 4.31002 14.9511 4.42752 14.8713C4.90152 14.6003 5.37252 14.3263 5.84552 14.0543L7.11752 13.3173ZM11.8275 1.50228C11.7696 1.49863 11.7116 1.50645 11.6568 1.52531C11.6019 1.54417 11.5513 1.57368 11.5079 1.61216C11.4645 1.65063 11.4291 1.69731 11.4039 1.7495C11.3786 1.8017 11.3638 1.85837 11.3605 1.91628C11.3642 2.0404 11.3985 2.16169 11.4605 2.26928C13.1879 5.26928 14.9182 8.26928 16.6515 11.2693C16.681 11.3221 16.7144 11.3725 16.7515 11.4203C16.8191 11.5058 16.9153 11.5641 17.0224 11.5843C17.1296 11.6045 17.2404 11.5853 17.3345 11.5303C17.4288 11.4754 17.4998 11.3881 17.5344 11.2847C17.569 11.1813 17.5648 11.0688 17.5225 10.9683C17.4853 10.8867 17.4429 10.8075 17.3955 10.7313L13.5765 4.11528C13.1305 3.34228 12.6815 2.57028 12.2385 1.79528C12.2025 1.71493 12.1459 1.64551 12.0744 1.59406C12.0029 1.54261 11.9192 1.51095 11.8315 1.50228H11.8275ZM6.24151 14.6593C6.30351 14.7243 6.34751 14.7723 6.39451 14.8193L8.32852 16.7523L9.81653 18.2413C9.91689 18.3586 10.0518 18.4412 10.202 18.4771C10.3522 18.5131 10.5099 18.5005 10.6525 18.4413C10.7688 18.3954 10.8715 18.3206 10.9507 18.2238C11.0299 18.1271 11.0831 18.0117 11.1051 17.8887C11.1271 17.7656 11.1174 17.6389 11.0766 17.5207C11.0359 17.4025 10.9657 17.2967 10.8725 17.2133C10.0145 16.3466 9.15386 15.4856 8.29052 14.6303C8.07853 14.4183 7.86952 14.2033 7.65152 13.9973C7.62804 13.9767 7.60007 13.9619 7.56985 13.9541C7.53964 13.9463 7.50802 13.9457 7.47752 13.9523C7.06452 14.1783 6.66151 14.4143 6.24151 14.6593ZM9.61252 14.8823C9.74852 14.8043 9.90052 14.7203 10.0485 14.6313C10.2705 14.4983 10.2915 14.3313 10.1055 14.1533C9.88453 13.9433 9.65852 13.7373 9.43252 13.5333C9.39552 13.4993 9.33752 13.4553 9.29852 13.4623C8.99052 13.5203 8.68453 13.5903 8.38353 13.6553L9.61252 14.8823ZM15.8425 6.58228C15.9499 6.54737 16.0479 6.48871 16.1295 6.41067C16.211 6.33264 16.2739 6.23722 16.3135 6.13153C16.3531 6.02583 16.3683 5.91257 16.3581 5.80017C16.3479 5.68777 16.3125 5.57911 16.2545 5.48228C16.196 5.39067 16.118 5.3131 16.026 5.25506C15.9341 5.19702 15.8305 5.15996 15.7226 5.14649C15.6147 5.13303 15.5052 5.14351 15.4018 5.17717C15.2985 5.21084 15.2038 5.26687 15.1245 5.34128L15.8425 6.58228Z" fill="#FFDC55" stroke="#FFDC55" stroke-width="0.25"/>
<path d="M8.02654 6.19829C7.92502 6.19803 7.82771 6.1578 7.75565 6.0863C7.68359 6.0148 7.64259 5.91779 7.64154 5.81629C7.64449 5.71517 7.68563 5.61892 7.7567 5.54693C7.82776 5.47494 7.92347 5.43254 8.02454 5.42829C8.07689 5.42758 8.12884 5.43751 8.17725 5.45746C8.22565 5.47742 8.26951 5.50699 8.30615 5.54438C8.3428 5.58178 8.37148 5.62622 8.39046 5.67502C8.40943 5.72382 8.4183 5.77596 8.41653 5.82829C8.41537 5.87824 8.40434 5.92746 8.38408 5.97313C8.36382 6.0188 8.33474 6.06002 8.29849 6.0944C8.26225 6.12879 8.21955 6.15567 8.17288 6.1735C8.12621 6.19133 8.07648 6.19975 8.02654 6.19829Z" fill="#FFDC55" stroke="#FFDC55" stroke-width="0.25"/>
</svg>
