<svg width="22" height="22" viewBox="0 0 22 22" fill="none" xmlns="http://www.w3.org/2000/svg">
<path d="M5.95973 5.83038L5.95967 5.83035L5.95819 5.83376C5.69358 6.4421 5.21663 7.74828 5.38445 9.42569L5.38451 9.42627C5.53649 10.861 6.08404 11.9242 6.43251 12.4925L4.80212 13.838L4.76438 13.8692L4.76582 13.9181L4.79941 15.0598L1.27606 18.737L1.2306 18.7844L1.25611 18.845C1.64204 19.7612 2.00158 20.2718 2.30913 20.5541C2.62033 20.8397 2.87736 20.8904 3.04607 20.8904C3.35067 20.8904 3.58478 20.7199 3.83621 20.452C3.9625 20.3174 4.09773 20.1531 4.25119 19.9652C4.2641 19.9494 4.27715 19.9334 4.29035 19.9172C4.43463 19.7403 4.59627 19.5422 4.78472 19.3241L4.78477 19.3241C5.58027 18.402 6.34273 17.7198 6.91053 17.2529C7.25027 17.3359 7.58249 17.4189 7.915 17.502L7.96807 17.5153L8.00786 17.4778C8.3171 17.1861 8.62633 16.8922 8.93539 16.5985C9.22677 16.3216 9.51801 16.0448 9.80923 15.7699C10.4383 16.1149 11.9976 16.8562 14.043 16.6604C14.3579 16.6334 16.6933 16.3683 18.5372 14.4811L18.5372 14.4811C20.6441 12.3222 21.6249 8.52416 19.8593 5.3034L19.8593 5.30334C18.4207 2.68322 15.5451 1.18538 12.6267 1.34401L12.6266 1.34402C9.7688 1.50272 7.21167 3.22183 5.95973 5.83038ZM7.98081 5.91312C7.94984 5.91103 7.9189 5.90892 7.88797 5.90679C8.18316 5.52041 8.62582 4.99932 9.20157 4.50482C10.0734 3.75606 11.2434 3.07405 12.663 3.00584C13.6795 2.9589 14.6667 3.23243 15.389 3.56986C15.7502 3.73859 16.0414 3.92157 16.2351 4.08505C16.3322 4.16706 16.4015 4.24136 16.4432 4.30364C16.4871 4.36923 16.4897 4.40495 16.4871 4.41726L16.4869 4.41851L16.4868 4.41863C16.4861 4.42222 16.4839 4.43361 16.4513 4.44987C16.416 4.46744 16.3606 4.48233 16.2807 4.49501C16.2021 4.50747 16.1085 4.51659 16.0006 4.52656C15.9906 4.5275 15.9804 4.52843 15.9701 4.52938C15.8712 4.53849 15.7623 4.54852 15.6478 4.56251C15.1432 4.62418 14.5087 4.76486 14.0226 5.27369L14.0225 5.27382C13.7539 5.55592 13.5299 5.94975 13.4255 6.36261C13.3212 6.77514 13.3339 7.218 13.5563 7.58722C13.7885 7.97566 14.1854 8.1779 14.5829 8.27387C14.9808 8.3699 15.3922 8.36298 15.6762 8.32243L15.677 8.32232C15.9219 8.28537 16.0562 8.2241 16.2058 8.15268C16.2114 8.15002 16.217 8.14734 16.2226 8.14465C16.3626 8.07771 16.523 8.00101 16.82 7.91966C16.8325 7.91635 16.8454 7.91294 16.8586 7.90944C17.0894 7.84835 17.4141 7.76237 17.7379 7.72217C18.0864 7.6789 18.4047 7.69298 18.6032 7.82025L18.6035 7.82045C18.7854 7.93615 18.9255 8.18465 19.001 8.54617C19.0758 8.90414 19.0832 9.35541 19.0163 9.84942C18.8824 10.8378 18.4535 11.9785 17.7019 12.8579C16.3301 14.4591 14.3168 14.6766 13.6692 14.7466L13.6662 14.7469L13.6657 14.747C13.1301 14.8074 12.0879 14.9094 10.8836 14.4399L10.8834 14.4398C9.40473 13.8674 8.59185 12.7989 8.28315 12.3446L8.28332 12.3445L8.27945 12.3395C7.95446 11.9207 7.39046 11.0663 7.21104 9.84505C6.9291 7.9235 7.80083 6.46999 8.05835 6.06672L8.14917 5.92449L7.98081 5.91312Z" fill="#2A2968" stroke="#FFDC55" stroke-width="0.2"/>
<path d="M13.5887 0.9L13.5962 0.901137C13.7017 0.917185 13.8084 0.9327 13.9157 0.948312C14.2126 0.99149 14.5144 1.0354 14.8106 1.09332L14.8126 1.09371L14.8126 1.09373C17.9874 1.78131 20.4556 4.38985 20.9934 7.59768L20.9935 7.5978C21.6546 11.5717 19.3009 15.4143 15.4653 16.6041C13.535 17.2032 11.6296 17.0795 9.77978 16.2695M13.5887 0.9L9.81989 16.1779M13.5887 0.9H13.5812M13.5887 0.9H13.5812M9.77978 16.2695L9.81989 16.1779M9.77978 16.2695C9.77979 16.2695 9.77981 16.2695 9.77982 16.2695L9.81989 16.1779M9.77978 16.2695C9.7152 16.2413 9.68345 16.2381 9.66434 16.2415C9.64816 16.2444 9.62364 16.2551 9.58277 16.3034L9.57955 16.3072L9.57946 16.3071C9.32527 16.5787 9.06258 16.8326 8.80196 17.0844L8.8015 17.0848M9.81989 16.1779C9.68058 16.117 9.60222 16.1257 9.50645 16.2388C9.25395 16.5086 8.99275 16.761 8.73155 17.0134M8.8015 17.0848L8.73155 17.0134M8.8015 17.0848L8.80104 17.0853L8.73155 17.0134M8.8015 17.0848C8.35772 17.5192 7.83422 17.6492 7.23623 17.5021L7.23264 17.5012L7.23266 17.5012C7.22542 17.4991 7.20556 17.4978 7.17553 17.5053C7.14745 17.5123 7.12046 17.5246 7.10142 17.538M8.73155 17.0134C8.31363 17.4224 7.82606 17.5442 7.26012 17.405C7.19917 17.3876 7.1034 17.4137 7.04245 17.4572M7.10142 17.538C7.10176 17.5377 7.1021 17.5375 7.10244 17.5372L7.04245 17.4572M7.10142 17.538C7.05658 17.5717 7.0159 17.6121 6.97224 17.6579C6.96404 17.6665 6.95565 17.6753 6.94709 17.6844C6.91137 17.7222 6.87252 17.7634 6.83109 17.801L6.82968 17.8023L6.82967 17.8023C6.74619 17.8753 6.64966 17.9184 6.54835 17.9184C6.44604 17.9184 6.35192 17.8744 6.27522 17.7977C6.20052 17.7231 6.16061 17.6278 6.16213 17.5264C6.16362 17.4263 6.20525 17.3285 6.27857 17.2443M7.10142 17.538C7.10113 17.5382 7.10084 17.5384 7.10056 17.5386L7.04245 17.4572M7.04245 17.4572L6.27857 17.2443M6.27857 17.2443C6.27832 17.2446 6.27807 17.2449 6.27781 17.2452L6.35462 17.3093M6.27857 17.2443L6.76384 17.727C6.62453 17.8488 6.46781 17.8488 6.34592 17.727C6.23273 17.6139 6.23273 17.4485 6.35462 17.3093M6.27857 17.2443C6.27884 17.244 6.27911 17.2437 6.27938 17.2434L6.35462 17.3093M6.27857 17.2443L6.35462 17.3093M13.5812 0.9H12.519H12.5107L12.5025 0.901359C12.4754 0.905873 12.4485 0.912376 12.4248 0.918081C12.4219 0.918789 12.419 0.919486 12.4162 0.920165C12.3902 0.92639 12.3667 0.931774 12.3422 0.935413C11.6039 0.997153 10.8807 1.1469 10.1912 1.42965L10.191 1.4297C7.34759 2.60003 5.62652 4.70809 5.09812 7.74497L13.5812 0.9ZM5.90762 18.7123L5.90672 18.7137C5.87377 18.7631 5.83113 18.8034 5.79775 18.835C5.78841 18.8439 5.77979 18.852 5.77232 18.8595L4.05709 20.574C3.71024 20.9207 3.30053 21.0992 2.88637 21.1004C2.47216 21.1016 2.06438 20.9253 1.72161 20.5827C1.5121 20.3732 1.30741 20.16 1.12862 19.9188C1.06719 19.8367 1.0284 19.7425 0.99717 19.6544C0.985582 19.6217 0.975279 19.5908 0.96535 19.561C0.94685 19.5054 0.929648 19.4537 0.907842 19.402L0.9 19.3834V19.3632V19.3622V19.3613V19.3604V19.3595V19.3586V19.3576V19.3567V19.3558V19.3549V19.354V19.3531V19.3521V19.3512V19.3503V19.3494V19.3485V19.3475V19.3466V19.3457V19.3448V19.3439V19.343V19.342V19.3411V19.3402V19.3393V19.3384V19.3375V19.3365V19.3356V19.3347V19.3338V19.3329V19.3319V19.331V19.3301V19.3292V19.3283V19.3274V19.3264V19.3255V19.3246V19.3237V19.3228V19.3218V19.3209V19.32V19.3191V19.3182V19.3173V19.3163V19.3154V19.3145V19.3136V19.3127V19.3118V19.3108V19.3099V19.309V19.3081V19.3072V19.3062V19.3053V19.3044V19.3035V19.3026V19.3017V19.3007V19.2998V19.2989V19.298V19.2971V19.2961V19.2952V19.2943V19.2934V19.2925V19.2916V19.2906V19.2897V19.2888V19.2879V19.287V19.286V19.2851V19.2842V19.2833V19.2824V19.2815V19.2805V19.2796V19.2787V19.2778V19.2769V19.276V19.275V19.2741V19.2732V19.2723V19.2714V19.2704V19.2695V19.2686V19.2677V19.2668V19.2659V19.2649V19.264V19.2631V19.2622V19.2613V19.2603V19.2594V19.2585V19.2576V19.2567V19.2558V19.2548V19.2539V19.253V19.2521V19.2512V19.2503V19.2493V19.2484V19.2475V19.2466V19.2457V19.2447V19.2438V19.2429V19.242V19.2411V19.2402V19.2392V19.2383V19.2374V19.2365V19.2356V19.2346V19.2337V19.2328V19.2319V19.231V19.2301V19.2291V19.2282V19.2273V19.2264V19.2255V19.2246V19.2236V19.2227V19.2218V19.2209V19.22V19.219V19.2181V19.2172V19.2163V19.2154V19.2145V19.2135V19.2126V19.2117V19.2108V19.2099V19.2089V19.208V19.2071V19.2062V19.2053V19.2044V19.2034V19.2025V19.2016V19.2007V19.1998V19.1989V19.1979V19.197V19.1961V19.1952V19.1943V19.1933V19.1924V19.1915V19.1906V19.1897V19.1888V19.1878V19.1869V19.186V19.1851V19.1842V19.1832V19.1823V19.1814V19.1805V19.1796V19.1787V19.1777V19.1768V19.1759V19.175V19.1741V19.1731V19.1722V19.1713V19.1704V19.1695V19.1686V19.1676V19.1667V19.1658V19.1649V19.164V19.1631V19.1621V19.1612V19.1603V19.1594V19.1585V19.1575V19.1566V19.1557V19.1548V19.1539V19.153V19.152V19.1511V19.1502V19.1493V19.1484V19.1474V19.1465V19.1456V19.1447V19.1438V19.1429V19.1419V19.141V19.1401V19.1392V19.1383V19.1374V19.1364V19.1355V19.1346V19.1337V19.1328V19.1318V19.1309V19.13V19.1291V19.1282V19.1273V19.1263V19.1254V19.1245V19.1236V19.1227V19.1217V19.1208V19.1199V19.119V19.1181V19.1172V19.1162V19.1153V19.1144V19.1135V19.1126V19.1117V19.1107V19.1098V19.1089V19.108V19.1071V19.1061V19.1052V19.1043V19.1034V19.1025V19.1016V19.1006V19.0997V19.0988V19.0979V19.097V19.096V19.0951V19.0942V19.0933V19.0924V19.0915V19.0905V19.0896V19.0887V19.0878V19.0869V19.086V19.085V19.0841V19.0832V19.0823V19.0814V19.0804V19.0795V19.0786V19.0777V19.0768V19.0759V19.0749V19.074V19.0731V19.0722V19.0713V19.0703V19.0694V19.0685V19.0676V19.0667V19.0658V19.0648V19.0639V19.063V19.0621V19.0612V19.0602V19.0593V19.0584V19.0575V19.0566V19.0557V19.0547V19.0538V19.0529V19.052V19.0511V19.0502V19.0492V19.0483V19.0474V19.0465V19.0456V19.0446V19.0437V19.0428V19.0419V19.041V19.0401V19.0391V19.0382V19.0373V19.0364V19.0355V19.0345V19.0336V19.0327V19.0318V19.0309V19.03V19.029V19.0281V19.0272V19.0263V19.0254V19.0245V19.0235V19.0226V19.0217V19.0208V19.0199V19.0189V19.018V19.0171V19.0162V19.0153V19.0144V19.0134V19.0125V19.0116V19.0107V19.0098V19.0088V19.0079V19.007V19.0061V19.0052V19.0043V19.0033V19.0024V19.0015V19.0006V18.9997V18.9988V18.9978V18.9969V18.996V18.9951V18.9942V18.9932V18.9923V18.9914V18.9905V18.9896V18.9887V18.9877V18.9868V18.9859V18.985V18.9841V18.9831V18.9822V18.9813V18.9804V18.9795V18.9786V18.9776V18.9767V18.9758V18.9749V18.974V18.9731V18.9721V18.9712V18.9703V18.9694V18.9685V18.9675V18.9666V18.9657V18.9648V18.9639V18.963V18.962V18.9611V18.9602V18.9593V18.9584V18.9574V18.9565V18.9556V18.9547V18.9538V18.9529V18.9519V18.951V18.9501V18.9492V18.9483V18.9473V18.9464V18.9455V18.9446V18.9437V18.9428V18.9418V18.9409V18.94V18.9391V18.9382V18.9373V18.9363V18.9354V18.9345V18.9336V18.9327V18.9317V18.9308V18.9299V18.929V18.9281V18.9272V18.9262V18.9253V18.9244V18.9235V18.9226V18.9216V18.9207V18.9198V18.9189V18.918V18.9171V18.9161V18.9152V18.9143V18.9134V18.9125V18.9116V18.9106V18.9097V18.9088V18.9079V18.907V18.906V18.9051V18.9042V18.9033V18.9024V18.9015V18.9005V18.8996V18.8987V18.8978V18.8969V18.8959V18.895V18.8941V18.8932V18.8825L0.90225 18.8721C1.0046 18.3978 1.3022 18.0581 1.61713 17.7433L1.61779 17.7427C2.16025 17.2104 2.69595 16.6735 3.23128 16.137C3.63293 15.7344 4.03438 15.3321 4.43831 14.9321C4.47505 14.8953 4.49089 14.8683 4.49754 14.845C4.50398 14.8224 4.50501 14.7923 4.49101 14.7433L4.49053 14.7416L4.49054 14.7416C4.34245 14.1865 4.46416 13.6809 4.86239 13.255L4.86249 13.2549C5.12536 12.9746 5.40544 12.7034 5.68348 12.4342L5.6843 12.4334L5.68628 12.4315L5.6863 12.4315C5.73347 12.3883 5.74783 12.3621 5.75202 12.3432C5.75584 12.326 5.75523 12.2964 5.72537 12.2367L5.72431 12.2346L5.72433 12.2345C5.4414 11.6336 5.25617 11.007 5.14167 10.3555L5.14152 10.3547C5.12169 10.2357 5.13198 10.122 5.18297 10.029C5.23554 9.93322 5.32511 9.87115 5.43823 9.84854C5.54839 9.82652 5.65739 9.84456 5.74509 9.91187C5.83138 9.9781 5.88426 10.0821 5.90464 10.2081C6.11115 11.3253 6.53204 12.3459 7.20958 13.2547C8.46484 14.9218 10.1208 15.8991 12.1909 16.1395C15.9874 16.5773 19.4054 14.0882 20.1699 10.3357C20.9684 6.40515 18.2627 2.46438 14.3048 1.80358C10.8245 1.22813 7.53596 3.0741 6.25617 6.33659L6.25615 6.33665C5.97317 7.05664 5.81889 7.81051 5.80162 8.58137C5.80161 8.58173 5.8016 8.5821 5.8016 8.58246L5.70162 8.58024L5.90762 18.7123ZM5.90762 18.7123C5.95537 18.6381 5.98351 18.5545 5.97888 18.4679C5.97416 18.3799 5.93598 18.2985 5.86809 18.2307C5.7984 18.161 5.71704 18.1177 5.62702 18.1084C5.53794 18.0992 5.4515 18.1244 5.37249 18.1716L5.90762 18.7123ZM6.61546 17.0398C6.61558 17.0397 6.6157 17.0396 6.61582 17.0395C6.59223 17.0159 6.56864 16.9923 6.54508 16.9688C6.52681 16.9871 6.50686 17.0091 6.48807 17.0299L6.484 17.0344C6.48165 17.037 6.47931 17.0396 6.47698 17.0421C6.49969 17.0648 6.5224 17.0875 6.54513 17.1102L6.61546 17.0398ZM4.95841 15.5252C4.96112 15.5227 4.96385 15.5202 4.96659 15.5177L4.97101 15.5138C4.99164 15.4951 5.01356 15.4753 5.03177 15.4571C5.00836 15.4334 4.98495 15.4097 4.96155 15.3859C4.95933 15.3881 4.95705 15.3904 4.9547 15.3927L4.8903 15.4561C4.913 15.4791 4.9357 15.5022 4.95841 15.5252ZM5.41045 13.8078L5.41056 13.8079L5.41401 13.8036C5.42709 13.7872 5.44273 13.7714 5.46118 13.754C5.46641 13.749 5.47241 13.7435 5.47876 13.7376C5.49221 13.7251 5.50723 13.7112 5.51982 13.6987L5.52003 13.6984C5.72672 13.4919 5.9339 13.2848 6.15305 13.0598C6.8615 14.219 7.77402 15.1316 8.92562 15.8473C8.85838 15.9123 8.79253 15.9772 8.72733 16.0415C8.50212 16.2634 8.28452 16.4778 8.04343 16.6645C7.78325 16.865 7.39473 16.8247 7.14691 16.5848C6.55564 16.0111 5.97326 15.429 5.39971 14.8297C5.13451 14.5493 5.14554 14.1037 5.41045 13.8078Z" fill="#FFDC55" stroke="#FFDC55" stroke-width="0.2"/>
<path d="M13.0497 15.2075C16.501 15.2251 19.3229 12.4126 19.3406 8.95501V8.95475C19.3494 5.50564 16.545 2.67571 13.1029 2.65802L13.1029 2.65802C9.61691 2.64033 6.80346 5.43527 6.78576 8.92787C6.76806 12.3778 9.58192 15.1985 13.0497 15.2075ZM13.0497 15.2075C13.0497 15.2075 13.0496 15.2075 13.0496 15.2075L13.0501 15.1075L13.0499 15.2075C13.0498 15.2075 13.0498 15.2075 13.0497 15.2075ZM14.7392 7.91885C14.9046 7.95366 15.0788 7.96236 15.2442 7.95366C15.4967 7.94496 15.636 8.02328 15.6534 8.20604C15.6708 8.40621 15.5576 8.51064 15.2877 8.53675C14.774 8.57156 14.2865 8.45843 13.8598 8.16253C13.2591 7.74479 13.1023 7.15299 13.1807 6.44805M14.7392 7.91885L14.7609 7.82123C14.7607 7.82118 14.7605 7.82114 14.7603 7.8211M14.7392 7.91885L14.7598 7.82099C14.76 7.82103 14.7601 7.82106 14.7603 7.8211M14.7392 7.91885C13.9556 7.74479 13.6248 7.20521 13.7902 6.36973C13.9469 5.56906 14.4606 5.13391 15.3051 5.0991C15.7927 5.0817 16.2629 5.04688 16.6982 4.7945L13.1807 6.44805M14.7603 7.8211C14.9154 7.85368 15.0805 7.86213 15.2389 7.8538L15.2408 7.8537L15.2408 7.85372C15.3751 7.84909 15.4959 7.86652 15.5886 7.92241C15.6877 7.98219 15.7417 8.07787 15.753 8.19656L15.753 8.19738C15.7636 8.31898 15.7348 8.42957 15.6456 8.51068C15.562 8.58664 15.4402 8.62247 15.2974 8.63629L15.2945 8.63657L15.2945 8.63652C14.7611 8.67267 14.2504 8.55511 13.8028 8.2447L13.8027 8.24463C13.4863 8.02462 13.2835 7.75587 13.1716 7.44706C13.0603 7.14001 13.0411 6.79945 13.0813 6.43741M14.7603 7.8211C14.3872 7.73812 14.136 7.57172 13.9941 7.34007C13.8514 7.10723 13.8086 6.7914 13.8883 6.38915L13.8883 6.38894C13.9633 6.00576 14.1217 5.71918 14.3541 5.52376C14.5867 5.32817 14.9031 5.2158 15.309 5.19903C15.7936 5.18172 16.2839 5.14747 16.7407 4.88544C16.7434 4.88543 16.747 4.88559 16.7511 4.88611C16.7569 4.88684 16.7618 4.888 16.765 4.88904C17.4885 5.54829 17.9947 6.33815 18.2845 7.24508C18.2472 7.24275 18.2098 7.24032 18.1724 7.23789C17.9221 7.22163 17.6697 7.20523 17.4242 7.21849L17.4242 7.2184L17.42 7.21881C17.1704 7.24294 16.9214 7.31004 16.688 7.3729C16.6594 7.38062 16.631 7.38827 16.6028 7.39578L16.6028 7.39577L16.6016 7.3961C16.4732 7.43205 16.374 7.5025 16.3191 7.60168C16.2639 7.70121 16.2608 7.81633 16.2991 7.92579L16.2991 7.92579L16.2997 7.92732C16.339 8.03412 16.4131 8.11435 16.5163 8.15288C16.6169 8.19039 16.7329 8.18386 16.8517 8.14427L16.8524 8.14403C17.2011 8.02502 17.5511 7.95956 17.9056 8.00077C18.0531 8.01812 18.1639 8.03537 18.2493 8.05922C18.3339 8.08286 18.3858 8.11098 18.4212 8.14517C18.4923 8.21402 18.5266 8.33632 18.5399 8.62832L18.5399 8.6288C18.6256 10.3318 18.0446 11.7912 16.8042 12.9456L16.8042 12.9456C13.7772 15.7661 8.89488 14.3822 7.77437 10.3983C7.51742 9.47863 7.50945 8.5673 7.72776 7.64681C7.76822 7.65222 7.80862 7.65769 7.84896 7.66315C8.17314 7.70703 8.49313 7.75035 8.80664 7.75771C9.01749 7.76675 9.24364 7.73926 9.44935 7.69456L9.44936 7.69457L9.4506 7.69428C10.1773 7.52666 10.6299 6.9469 10.7031 6.17905L10.7031 6.1785C10.7661 5.47685 10.5862 4.83993 10.0971 4.31259C10.0952 4.31014 10.0935 4.30774 10.0917 4.30536C11.8578 3.1183 14.2533 3.14192 15.9834 4.32419C15.8469 4.35054 15.7092 4.37414 15.5719 4.39061L15.5718 4.39057L15.5692 4.39096C15.4619 4.40673 15.3546 4.41533 15.2436 4.42422C15.2055 4.42727 15.1669 4.43036 15.1277 4.43379C14.9775 4.44695 14.8223 4.46492 14.6697 4.50646C13.7378 4.75319 13.181 5.46944 13.0813 6.43741M13.0813 6.43741C13.0813 6.43755 13.0812 6.43769 13.0812 6.43782L13.1807 6.44805M13.0813 6.43741C13.0813 6.43728 13.0813 6.43714 13.0813 6.43701L13.1807 6.44805M9.84646 6.42663L9.84598 6.4282C9.79093 6.61292 9.69247 6.74581 9.56741 6.83416C9.44167 6.92299 9.28344 6.97067 9.10389 6.97469C8.81633 6.98067 8.5318 6.95328 8.22886 6.92411C8.14103 6.91565 8.05164 6.90705 7.96019 6.89906C8.30674 6.05317 8.7995 5.37353 9.45307 4.79745C9.93093 5.24794 10.0366 5.82494 9.84646 6.42663Z" fill="#FFDC55" stroke="#FFDC55" stroke-width="0.2"/>
<path d="M9.45437 4.53211L9.51946 4.58817C10.1192 5.10466 10.2563 5.7914 10.0463 6.494L9.45437 4.53211ZM9.45437 4.53211L9.38914 4.588M9.45437 4.53211L9.38914 4.588M9.38914 4.588C8.64529 5.22531 8.09541 5.98774 7.73235 6.96138L7.68594 7.08584L7.81838 7.09603C7.94853 7.10603 8.07756 7.11845 8.20564 7.13077C8.51404 7.16044 8.81693 7.18957 9.11672 7.18333L9.11672 7.18336M9.38914 4.588L9.11672 7.18336M9.11672 7.18336L9.11908 7.18325M9.11672 7.18336L9.11908 7.18325M9.11908 7.18325C9.3297 7.1739 9.52761 7.11747 9.69107 7.00322M9.11908 7.18325L9.69107 7.00322M9.69107 7.00322C9.85551 6.88829 9.97933 6.71875 10.0463 6.49408L9.69107 7.00322Z" fill="#2A2968" stroke="#FFDC55" stroke-width="0.2"/>
<path d="M12.1608 8.54984H12.1707C12.6412 8.54984 13.0108 8.71018 13.2314 8.98421C13.4525 9.25898 13.5105 9.6317 13.3898 10.0271M12.1608 8.54984L13.2939 9.99879M12.1608 8.54984L12.1511 8.55178C12.1087 8.56026 12.0607 8.57088 12.0082 8.58251C11.8353 8.62076 11.6134 8.66989 11.3788 8.68943L11.3788 8.68916L11.3714 8.69033C11.1838 8.72016 10.9935 8.7373 10.7992 8.75476L10.7975 8.75491C10.6049 8.77221 10.4084 8.78987 10.2135 8.82086M12.1608 8.54984L10.2135 8.82086M13.3898 10.0271C13.3897 10.0274 13.3896 10.0277 13.3895 10.0281L13.2939 9.99879M13.3898 10.0271C13.3899 10.0269 13.3899 10.0266 13.39 10.0263L13.2939 9.99879M13.3898 10.0271C13.3882 10.0325 13.3866 10.0383 13.385 10.0443C13.3699 10.0983 13.3483 10.1758 13.3074 10.237L13.303 10.2437L13.3027 10.2435C12.9745 10.6596 13.0183 11.1308 13.0712 11.6593M13.2939 9.99879C13.2921 10.0048 13.2904 10.0109 13.2887 10.0171C13.2728 10.0733 13.2556 10.1345 13.2242 10.1816C12.868 10.6331 12.9193 11.1454 12.9714 11.6664L12.9717 11.6698M13.0712 11.6593C13.0711 11.6591 13.0711 11.6589 13.0711 11.6587L12.9717 11.6698M13.0712 11.6593C13.0712 11.6594 13.0712 11.6596 13.0712 11.6598L12.9717 11.6698M13.0712 11.6593C13.1249 12.1437 13.071 12.6274 12.9278 13.0835L12.9278 13.0836C12.8187 13.4288 12.6187 13.7555 12.2047 13.8639L12.204 13.8641C11.616 14.0135 11.0397 13.5081 10.9742 12.8723L10.9741 12.8711L10.9737 12.867C10.9562 12.6743 10.9392 12.4878 10.883 12.3193C10.7729 11.9892 10.5133 11.7878 10.1998 11.5789C9.93731 11.404 9.66761 11.2071 9.44994 10.9625M12.9717 11.6698C13.024 12.1397 12.9717 12.6097 12.8324 13.0535M12.8324 13.0535L11.0728 12.8521C11.0556 12.6637 11.0378 12.4673 10.9779 12.2877C10.856 11.9221 10.5687 11.7046 10.2552 11.4957C9.99403 11.3216 9.73283 11.1302 9.52386 10.8952M12.8324 13.0535C12.7279 13.3842 12.5451 13.6714 12.1794 13.7672L12.8324 13.0535ZM9.44994 10.9625C9.45022 10.9628 9.4505 10.9631 9.45077 10.9634L9.52386 10.8952M9.44994 10.9625C9.18123 10.6742 9.10954 10.3034 9.1368 9.92204L9.13697 9.91968L9.13699 9.91968C9.16485 9.62736 9.26797 9.37637 9.45181 9.18535C9.63546 8.99454 9.89214 8.87135 10.2135 8.82086M9.44994 10.9625C9.44967 10.9622 9.4494 10.9619 9.44914 10.9616L9.52386 10.8952M9.52386 10.8952L10.2135 8.82086M11.6657 12.7663C11.6744 12.8882 11.7441 13.0274 11.8311 13.1231C11.9443 13.2537 12.0836 13.2363 12.1707 13.0883C12.2491 12.9665 12.3187 12.8185 12.3274 12.6793C12.3623 12.2441 12.3884 11.8003 12.3623 11.3564M11.6657 12.7663L11.7656 12.7612C11.7656 12.7608 11.7655 12.7605 11.7655 12.7601M11.6657 12.7663L11.7655 12.7592C11.7655 12.7595 11.7655 12.7598 11.7655 12.7601M11.6657 12.7663C11.6222 11.9221 11.2043 11.339 10.4729 10.9561M11.7655 12.7601C11.7726 12.8544 11.8296 12.9728 11.9051 13.0559L11.9067 13.0576L11.9067 13.0576C11.9491 13.1066 11.9824 13.1127 11.9999 13.1108C12.0184 13.1087 12.0512 13.0943 12.0845 13.0376L12.0865 13.0342L12.0866 13.0342C12.1616 12.9177 12.2205 12.787 12.2276 12.6731L12.2277 12.6713L12.2277 12.6713C12.2625 12.2372 12.2881 11.7993 12.2625 11.3629M11.7655 12.7601C11.7197 11.878 11.2788 11.2654 10.5199 10.8678M12.2625 11.3629C12.2625 11.3631 12.2625 11.3633 12.2625 11.3635L12.3623 11.3564M12.2625 11.3629C12.2624 11.3627 12.2624 11.3625 12.2624 11.3623L12.3623 11.3564M12.2625 11.3629C12.2268 10.8547 12.2885 10.3689 12.5835 9.92641M12.3623 11.3564C12.3274 10.8604 12.3884 10.3991 12.667 9.98139M12.667 9.98139L12.5832 9.92687C12.5833 9.92672 12.5834 9.92656 12.5835 9.92641M12.667 9.98139C12.7802 9.80733 12.8237 9.59846 12.7105 9.40699M12.667 9.98139L12.5838 9.9259C12.5837 9.92607 12.5836 9.92624 12.5835 9.92641M12.5835 9.92641C12.6835 9.77225 12.7114 9.60639 12.6253 9.45933M12.7105 9.40699L12.6262 9.4607C12.6259 9.46024 12.6256 9.45978 12.6253 9.45933M12.7105 9.40699C12.5886 9.21553 12.3797 9.22423 12.1794 9.24164M12.7105 9.40699L12.6244 9.45788C12.6247 9.45836 12.625 9.45885 12.6253 9.45933M12.6253 9.45933C12.5398 9.32651 12.397 9.32312 12.1883 9.34125M12.1794 9.24164L12.1885 9.34123C12.1884 9.34123 12.1883 9.34124 12.1883 9.34125M12.1794 9.24164C12.1219 9.24686 12.0645 9.26148 12.007 9.2761C11.9687 9.28585 11.9304 9.2956 11.8921 9.30256L10.2552 9.52884C9.94179 9.59846 9.8286 9.75511 9.8286 10.0684C9.8286 10.4165 10.0376 10.7211 10.4729 10.9561M12.1794 9.24164L12.1881 9.34126C12.1881 9.34126 12.1882 9.34125 12.1883 9.34125M12.1883 9.34125C12.1487 9.34486 12.1072 9.35406 12.06 9.36585C12.0513 9.36801 12.0424 9.37029 12.0332 9.37263C11.9947 9.38244 11.9521 9.3933 11.91 9.40095L11.9085 9.40121L11.9085 9.4012C11.5937 9.45364 11.2792 9.49731 10.9662 9.54076L10.9655 9.54086L10.9518 9.44181L10.9664 9.54073C10.8701 9.555 10.7731 9.56365 10.6802 9.57196C10.6563 9.57408 10.6328 9.57619 10.6095 9.57836C10.4938 9.58917 10.384 9.60176 10.2777 9.62628L10.2769 9.62646L10.2769 9.62646C10.132 9.65864 10.051 9.70718 10.0034 9.76852C9.95536 9.83049 9.9286 9.92204 9.9286 10.0684C9.9286 10.3676 10.1051 10.6438 10.5199 10.8678M10.5199 10.8678C10.5197 10.8677 10.5195 10.8676 10.5193 10.8675L10.4729 10.9561M10.5199 10.8678C10.52 10.8679 10.5202 10.868 10.5204 10.8681L10.4729 10.9561" fill="#FFDC55" stroke="#FFDC55" stroke-width="0.2"/>
<path d="M10.938 9.34277L10.938 9.34278C11.094 9.32113 11.25 9.2973 11.4068 9.27335L11.4072 9.2733C11.563 9.24951 11.7195 9.2256 11.8762 9.20383C11.9101 9.19758 11.9436 9.18907 11.9807 9.17963C11.9907 9.17709 12.0009 9.17449 12.0115 9.17184C12.06 9.15972 12.1143 9.14717 12.1704 9.14207L12.1708 9.14204C12.3646 9.12519 12.6262 9.10586 12.7931 9.35067L12.7949 9.35329L12.7949 9.35331C12.9454 9.58976 12.8855 9.84333 12.7494 10.038C12.4799 10.4385 12.428 10.8654 12.462 11.3495L12.4621 11.3505L12.4621 11.3505C12.4886 11.7927 12.462 12.2422 12.4272 12.6864M10.938 9.34277L12.3274 12.6793M10.938 9.34277L10.9371 9.34291C10.8471 9.35624 10.7576 9.36425 10.6653 9.3725C10.6407 9.3747 10.616 9.37691 10.5909 9.37925C10.4739 9.39018 10.3531 9.40369 10.2332 9.43133C10.0648 9.46877 9.93269 9.53336 9.84536 9.64599C9.75845 9.75808 9.72861 9.90151 9.72861 10.0684C9.72861 10.4643 9.9687 10.8066 10.4262 11.0446M10.938 9.34277L10.4729 10.9561M12.4272 12.6864C12.4272 12.6866 12.4272 12.6869 12.4271 12.6871L12.3274 12.6793M12.4272 12.6864C12.4272 12.6861 12.4272 12.6858 12.4272 12.6856L12.3274 12.6793M12.4272 12.6864C12.4166 12.852 12.3256 13.0189 12.2575 13.138L12.2569 13.1391L12.2569 13.1391C12.2032 13.2304 12.1227 13.2986 12.0216 13.3096C11.9194 13.3207 11.8264 13.2703 11.7556 13.1887L11.7537 13.1865L11.7538 13.1865C11.6701 13.0843 11.5768 12.9255 11.566 12.7735L11.5658 12.7715L11.5659 12.7715C11.5449 12.3654 11.4344 12.0288 11.2444 11.7475C11.0542 11.4659 10.7807 11.2345 10.4262 11.0446M12.3274 12.6793C12.3187 12.8186 12.2404 12.9665 12.1707 13.0884C12.0836 13.2363 11.9443 13.2537 11.8312 13.1232C11.7528 13.0274 11.6744 12.8882 11.6657 12.7663C11.6222 11.9222 11.2043 11.3478 10.4729 10.9561M10.4262 11.0446C10.4264 11.0447 10.4266 11.0448 10.4268 11.0449L10.4729 10.9561M10.4262 11.0446C10.4261 11.0445 10.4259 11.0444 10.4257 11.0443L10.4729 10.9561" fill="#2A2968" stroke="#FFDC55" stroke-width="0.2"/>
</svg>
