<svg width="30" height="30" viewBox="0 0 30 30" fill="none" xmlns="http://www.w3.org/2000/svg">
<path d="M20.0747 26.9325C20.4262 26.5809 20.6237 26.104 20.6237 25.6068C20.6237 25.1097 20.4262 24.6328 20.0747 24.2812L10.7934 15L20.0747 5.71872C20.4162 5.36509 20.6052 4.89146 20.6009 4.39984C20.5967 3.90822 20.3995 3.43795 20.0518 3.09031C19.7042 2.74267 19.2339 2.54548 18.7423 2.54121C18.2507 2.53694 17.7771 2.72593 17.4234 3.06747L6.81655 13.6743C6.46504 14.026 6.26758 14.5028 6.26758 15C6.26758 15.4972 6.46504 15.974 6.81655 16.3256L17.4234 26.9325C17.775 27.284 18.2519 27.4814 18.7491 27.4814C19.2462 27.4814 19.7231 27.284 20.0747 26.9325Z" fill="white"/>
</svg>
