<?xml version="1.0" encoding="utf-8"?>
<!-- Generator: Adobe Illustrator 26.0.2, SVG Export Plug-In . SVG Version: 6.00 Build 0)  -->
<svg version="1.1" xmlns="http://www.w3.org/2000/svg" xmlns:xlink="http://www.w3.org/1999/xlink" x="0px" y="0px"
	 viewBox="0 0 30 50" style="enable-background:new 0 0 30 50;" xml:space="preserve">
<style type="text/css">
	.st0{display:none;}
	.st1{display:inline;opacity:0.7;fill:#2A2968;enable-background:new    ;}
	.st2{fill:#FF5809;}
</style>
<g id="圖層_1" class="st0">
	<path class="st1" d="M20.6,25L1.8,6.3C1.5,6,1.2,5.6,1,5.1C0.8,4.7,0.8,4.2,0.8,3.8c0-0.5,0.1-0.9,0.3-1.4C1.2,2,1.5,1.6,1.8,1.3
		c0.7-0.7,1.6-1,2.5-1c0.9,0,1.8,0.4,2.5,1l21.3,21.2c0.6,0.6,1,1.5,1,2.4c0,0.9-0.3,1.8-0.9,2.5L6.8,48.8c-0.7,0.7-1.6,1-2.5,1
		c-0.9,0-1.8-0.4-2.5-1c-0.7-0.7-1-1.6-1-2.5c0-0.9,0.4-1.8,1-2.5L20.6,25z"/>
</g>
<g id="圖層_2">
	<g>
		<g>
			<path class="st2" d="M27.8,27.1L2.2,47v-8.4L21,24.9v-0.3L2.2,9.2V0.8l25.5,21.8V27.1z"/>
		</g>
	</g>
</g>
</svg>
