<svg xmlns="http://www.w3.org/2000/svg" width="21.719" height="21.6" viewBox="0 0 21.719 21.6">
  <g id="FLuKyw.tif" transform="translate(585.062 0.27)">
    <path id="Path_721" data-name="Path 721" d="M-570.677,4.606l-8.568,8.991s-3.672.575-4.582,2.085.872,4.3.872,4.3,2.7,1.025,4.176-.235,1.87-4.518,1.87-4.518L-568.6,7.19l3.223-.52,1.356-2.5-.265-.742-2.487,1.5-1.5-.542-.327-1.679,1.476-2.033s-2.354-.091-3.385,1.174A2.551,2.551,0,0,0-570.677,4.606Z" transform="translate(0)" fill="#ffdc55"/>
    <path id="Path_711" data-name="Path 711" d="M-563.592,19.232a2.257,2.257,0,0,1-.717,1.056c-.266.25-.515.518-.777.772A1.391,1.391,0,0,1-567.2,21l-7.731-8.362c-.046-.05-.093-.1-.148-.156-.065.061-.12.11-.173.163l-2.208,2.206a.919.919,0,0,1-.152.138.285.285,0,0,1-.392-.05.283.283,0,0,1-.024-.379,1.132,1.132,0,0,1,.14-.152q1.11-1.111,2.223-2.22a1.44,1.44,0,0,1,.192-.137l-3.415-3.693a.856.856,0,0,1-1.227-.04l-.42.428a3.743,3.743,0,0,1,.219.617.714.714,0,0,1-.221.621c-.225.233-.451.465-.687.687a.815.815,0,0,1-1.171,0q-1.069-1.05-2.119-2.119a.815.815,0,0,1,0-1.171c.174-.186.359-.362.539-.542a.882.882,0,0,1,1.288-.177l.451-.468-.062-.1a.822.822,0,0,1,.12-1.044c.972-.977,1.94-1.957,2.928-2.918A4.675,4.675,0,0,1-576.883.816a3.385,3.385,0,0,1,2.893.768.477.477,0,0,1,.172.519.538.538,0,0,1-.438.387,7.241,7.241,0,0,0-1.163.337,1.328,1.328,0,0,0-.839,1.691,1.888,1.888,0,0,1-.488,1.7l3.691,3.414a3.008,3.008,0,0,1,.209-.263q1.174-1.179,2.352-2.354a.945.945,0,0,1,.153-.138.285.285,0,0,1,.378.033.289.289,0,0,1,.039.394.955.955,0,0,1-.139.152l-2.4,2.4c-.053.053-.1.108-.166.174l1.523,1.41q3.49,3.227,6.983,6.452a1.787,1.787,0,0,1,.527.889Zm-5.678-5.259-1.86,1.863a.335.335,0,0,0,.027.036q2.195,2.374,4.391,4.748a.765.765,0,0,0,1.168.025c.346-.336.684-.68,1.024-1.022a.79.79,0,0,0-.027-1.283q-1.97-1.825-3.943-3.648Zm-5.34-12.084a2.751,2.751,0,0,0-1.991-.5,3.919,3.919,0,0,0-2.192,1.154c-.974.944-1.926,1.91-2.886,2.868-.185.184-.182.274.009.465q.978.98,1.957,1.958c.193.192.262.192.459,0,.663-.662,1.319-1.329,1.989-1.984a1.35,1.35,0,0,0,.394-1.3,2.624,2.624,0,0,1,.006-.977A1.935,1.935,0,0,1-575.6,2.234C-575.289,2.1-574.957,2.008-574.611,1.889Zm3.882,10.734-6.44-5.953-1.269,1.269,5.953,6.438ZM-580.9,9.416a1.1,1.1,0,0,0-.124-.195q-1.018-1.025-2.041-2.044a.233.233,0,0,0-.376,0q-.3.3-.6.6a.24.24,0,0,0,.007.391q1.016,1.012,2.028,2.027a.241.241,0,0,0,.391,0c.193-.2.391-.387.582-.585A1.355,1.355,0,0,0-580.9,9.416Zm10.682,3.674-1.8,1.787.42.455,1.827-1.825Zm-11.988-5.984,1.2,1.2.42-.418-1.2-1.2Z" transform="translate(0 -0.607)" fill="#2a2968" stroke="#2a2968" stroke-width="0.5"/>
    <path id="Path_712" data-name="Path 712" d="M-524.9-.02c.065.019.128.041.194.058a.876.876,0,0,1,.447,1.457c-.094.11-.2.208-.3.311-.341.341-.683.681-1.022,1.024a.872.872,0,0,0-.019.973c.266.279.541.551.819.818a.791.791,0,0,0,.9-.044c.426-.421.837-.86,1.279-1.264a1.242,1.242,0,0,1,.589-.3.808.808,0,0,1,.959.69,1.682,1.682,0,0,1-.19,1.236c-.271.463-.543.927-.83,1.38a2.3,2.3,0,0,1-2.479,1.048,1.8,1.8,0,0,0-1.785.542c-.528.544-1.07,1.073-1.606,1.609-.044.044-.086.09-.133.13a.3.3,0,0,1-.428,0,.3.3,0,0,1,0-.443c.179-.191.369-.372.554-.557.419-.419.835-.841,1.258-1.256a2.3,2.3,0,0,1,2.18-.646,1.74,1.74,0,0,0,2-.882c.242-.4.484-.8.723-1.2a1.036,1.036,0,0,0,.135-.812c-.064-.253-.253-.317-.46-.152a1.51,1.51,0,0,0-.119.114c-.4.4-.8.8-1.2,1.2a1.348,1.348,0,0,1-1.831,0c-.249-.247-.494-.5-.746-.744a1,1,0,0,1-.319-.757c0-.117,0-.234-.005-.351a.976.976,0,0,1,.305-.741c.408-.4.81-.808,1.214-1.213a.894.894,0,0,0,.135-.155.249.249,0,0,0-.168-.405,1,1,0,0,0-.8.112c-.468.276-.944.542-1.4.845a1.594,1.594,0,0,0-.744,1.73,2.545,2.545,0,0,1-.8,2.524c-.561.53-1.094,1.088-1.64,1.633-.024.024-.048.05-.073.073a.321.321,0,0,1-.475.024.315.315,0,0,1,.04-.459c.592-.6,1.181-1.2,1.784-1.782a1.848,1.848,0,0,0,.564-1.837,2.3,2.3,0,0,1,1.055-2.457c.454-.287.914-.564,1.382-.827a4.557,4.557,0,0,1,.608-.238Z" transform="translate(-42.625)" fill="#2a2968" stroke="#2a2968" stroke-width="0.5"/>
    <path id="Path_713" data-name="Path 713" d="M-584.607,59.03a3.717,3.717,0,0,1,3.148-3.632c.429-.064.859-.12,1.285-.2a2.279,2.279,0,0,0,1.226-.68c.533-.539,1.071-1.073,1.607-1.608a1.612,1.612,0,0,1,.134-.128.286.286,0,0,1,.41.011.285.285,0,0,1,.027.409,1.226,1.226,0,0,1-.127.136c-.467.468-.959.914-1.4,1.408a3.623,3.623,0,0,1-2.546,1.195,4.8,4.8,0,0,0-1.149.232,3.06,3.06,0,0,0-1.979,3.078,3.112,3.112,0,0,0,2.387,2.8,3.085,3.085,0,0,0,3.771-2.717c.036-.369.093-.738.157-1.1a2.656,2.656,0,0,1,.741-1.426c.569-.58,1.146-1.153,1.722-1.727a.309.309,0,0,1,.473-.038.314.314,0,0,1-.038.473c-.465.47-.914.959-1.407,1.4a3.041,3.041,0,0,0-.991,2.089,7.085,7.085,0,0,1-.179,1.078,3.672,3.672,0,0,1-3.9,2.648,3.674,3.674,0,0,1-3.3-3.025C-584.572,59.484-584.582,59.256-584.607,59.03Z" transform="translate(-0.125 -41.692)" fill="#2a2968" stroke="#2a2968" stroke-width="0.5"/>
    <path id="Path_714" data-name="Path 714" d="M-572.237,75.652c0,.138,0,.276,0,.413a.889.889,0,0,1-.264.651c-.2.206-.409.409-.613.614a.9.9,0,0,1-.651.267c-.282,0-.565,0-.847,0a.926.926,0,0,1-.682-.293q-.274-.281-.555-.555a.923.923,0,0,1-.294-.681q0-.423,0-.847a.916.916,0,0,1,.294-.681c.2-.191.39-.389.585-.583a.893.893,0,0,1,.65-.268c.276,0,.551,0,.826,0a.938.938,0,0,1,.7.294c.15.152.294.31.454.451a1.077,1.077,0,0,1,.4.95C-572.243,75.472-572.236,75.563-572.237,75.652Zm-.638-.007c.126-.418-.1-.685-.372-.968a1.173,1.173,0,0,0-.918-.384,1.248,1.248,0,0,0-.992.406,1.227,1.227,0,0,0-.386.94,1.219,1.219,0,0,0,.394.958,1.237,1.237,0,0,0,.955.4,1.212,1.212,0,0,0,.956-.4C-572.97,76.319-572.757,76.057-572.875,75.645Z" transform="translate(-6.817 -58.288)" fill="#2a2968" stroke="#2a2968" stroke-width="0.5"/>
    <path id="Path_715" data-name="Path 715" d="M-517.736,63.964l.78.718q1.972,1.824,3.943,3.648a.791.791,0,0,1,.027,1.283c-.34.342-.678.686-1.024,1.022a.765.765,0,0,1-1.168-.025q-2.2-2.371-4.391-4.748a.322.322,0,0,1-.027-.036Z" transform="translate(-51.535 -50.598)" fill="#ffdc55" stroke="#2a2968" stroke-width="0.5"/>
    <path id="Path_716" data-name="Path 716" d="M-563.466,4.223c-.346.119-.678.209-.99.345a1.935,1.935,0,0,0-1.265,1.342,2.625,2.625,0,0,0-.006.977,1.35,1.35,0,0,1-.394,1.3c-.669.655-1.326,1.323-1.989,1.984-.2.2-.266.2-.459,0q-.979-.978-1.957-1.958c-.191-.191-.193-.281-.009-.465.96-.958,1.912-1.925,2.886-2.868a3.918,3.918,0,0,1,2.192-1.154A2.751,2.751,0,0,1-563.466,4.223Z" transform="translate(-11.145 -2.941)" fill="#ffdc55" stroke="#2a2968" stroke-width="0.5"/>
    <path id="Path_717" data-name="Path 717" d="M-546.816,35.006l-1.757,1.754-5.953-6.438,1.269-1.269Z" transform="translate(-23.914 -22.991)" fill="#ffdc55" stroke="#2a2968" stroke-width="0.5"/>
    <path id="Path_718" data-name="Path 718" d="M-578.541,33.361a1.36,1.36,0,0,1-.13.194c-.191.2-.388.39-.582.585a.24.24,0,0,1-.391,0q-1.012-1.015-2.028-2.027a.24.24,0,0,1-.007-.391q.3-.3.6-.6a.233.233,0,0,1,.376,0q1.021,1.021,2.041,2.044A1.1,1.1,0,0,1-578.541,33.361Z" transform="translate(-2.364 -24.552)" fill="#ffdc55" stroke="#2a2968" stroke-width="0.5"/>
    <path id="Path_719" data-name="Path 719" d="M-522.051,59.742l.449.418-1.827,1.825-.421-.455Z" transform="translate(-48.172 -47.259)" fill="#ffdc55" stroke="#2a2968" stroke-width="0.5"/>
    <path id="Path_720" data-name="Path 720" d="M-572.557,29.573l.421-.414,1.2,1.2-.42.418Z" transform="translate(-9.654 -23.075)" fill="#ffdc55" stroke="#2a2968" stroke-width="0.5"/>
  </g>
</svg>
