<svg xmlns="http://www.w3.org/2000/svg" width="22.284" height="26.043" viewBox="0 0 22.284 26.043">
  <g id="Mfb5w6.tif" transform="translate(-86.454 2.405)">
    <path id="Path_756" data-name="Path 756" d="M86.7,8.066c.062-.434.11-.871.19-1.3A10.773,10.773,0,0,1,90.411.577,10.216,10.216,0,0,1,95.99-2.039a10.625,10.625,0,0,1,9.829,3.629,10.393,10.393,0,0,1,2.669,7.121,10.6,10.6,0,0,1-3.478,8.04c-2.285,2.133-4.6,4.233-6.906,6.345-.115.105-.246.194-.37.29h-.3c-.108-.088-.22-.172-.322-.266-2.362-2.184-4.739-4.352-7.079-6.56A10.444,10.444,0,0,1,86.9,10.788c-.084-.438-.133-.883-.2-1.325ZM97.6,22.2,98,21.844q3.2-2.936,6.394-5.873a9.3,9.3,0,0,0,2.373-3.5,9.867,9.867,0,0,0,.122-7.114A9.512,9.512,0,0,0,103.064.481,9.688,9.688,0,0,0,95.8-.992a9.448,9.448,0,0,0-5.448,3.041A9.651,9.651,0,0,0,87.9,10.631a9.4,9.4,0,0,0,2.9,5.282c2.195,2.061,4.415,4.093,6.625,6.138C97.479,22.1,97.536,22.146,97.6,22.2Z" fill="#2a2968" stroke="#25235a" stroke-width="0.5"/>
    <path id="Path_757" data-name="Path 757" d="M99.63,24.19c-.066-.056-.124-.1-.177-.151-2.21-2.044-4.431-4.077-6.625-6.138a9.4,9.4,0,0,1-2.9-5.282,9.651,9.651,0,0,1,2.456-8.582A9.448,9.448,0,0,1,97.827,1a9.688,9.688,0,0,1,7.265,1.473,9.512,9.512,0,0,1,3.821,4.877,9.867,9.867,0,0,1-.122,7.114,9.3,9.3,0,0,1-2.373,3.5q-3.2,2.938-6.394,5.873Zm-.151-5.507a7.9,7.9,0,0,0,7.21-11.367c-.2-.4-.46-.541-.754-.4s-.337.432-.14.841a6.784,6.784,0,0,1,.473,4.8A6.871,6.871,0,1,1,102.125,4.4c.347.135.673.322,1.012.479a.5.5,0,0,0,.748-.377.549.549,0,0,0-.361-.545,7.7,7.7,0,0,0-8.673.606,7.866,7.866,0,0,0,4.627,14.118ZM101.243,9.2c0-.556,0-1.078,0-1.6,0-.483-.18-.663-.66-.665q-.948,0-1.9,0c-.5,0-.672.173-.673.675,0,.521,0,1.043,0,1.591-.564,0-1.1,0-1.64,0-.445,0-.615.173-.617.622,0,.623,0,1.247,0,1.871,0,.583.139.723.716.724h1.541c0,.565,0,1.1,0,1.641,0,.433.186.622.623.625q1,.008,2,0c.416,0,.6-.2.609-.616.006-.457,0-.914,0-1.372,0-.087.01-.174.017-.278.559,0,1.089,0,1.62,0,.438,0,.618-.184.62-.624q0-.973,0-1.945l-.318-.6-.329-.044C102.331,9.194,101.809,9.2,101.243,9.2Zm3.731-3.968a.493.493,0,1,0,.494.485A.484.484,0,0,0,104.974,5.228Z" transform="translate(-2.027 -1.988)" fill="#ffdc55"/>
    <path id="Path_758" data-name="Path 758" d="M103.516,22.874A7.866,7.866,0,0,1,98.889,8.756a7.7,7.7,0,0,1,8.673-.606.549.549,0,0,1,.361.545.5.5,0,0,1-.748.377c-.339-.156-.665-.343-1.012-.479a6.876,6.876,0,1,0,4.142,8.162,6.784,6.784,0,0,0-.473-4.8c-.2-.408-.15-.7.14-.841s.555-.007.754.4a7.9,7.9,0,0,1-7.21,11.367Z" transform="translate(-6.064 -6.179)" fill="#2a2968" stroke="#25235a" stroke-width="0.5"/>
    <path id="Path_759" data-name="Path 759" d="M113.341,21.471c.566,0,1.088,0,1.61,0,.473,0,.646.174.647.647q0,.972,0,1.945c0,.439-.182.621-.62.624-.531,0-1.061,0-1.62,0-.007.1-.016.191-.017.278,0,.457,0,.915,0,1.372-.006.42-.192.612-.609.616q-1,.01-2,0c-.437,0-.621-.192-.623-.625,0-.538,0-1.076,0-1.641h-1.541c-.577,0-.716-.141-.716-.724,0-.623,0-1.247,0-1.871,0-.449.171-.619.617-.622.538,0,1.076,0,1.64,0,0-.549,0-1.07,0-1.591,0-.5.17-.673.673-.675q.948,0,1.9,0c.481,0,.658.182.66.665C113.343,20.393,113.341,20.915,113.341,21.471Zm-2.211-1.255a.409.409,0,0,0-.017.072q0,.723,0,1.446c0,.582-.155.735-.742.735h-1.5V23.69c.534,0,1.048,0,1.562,0,.5,0,.674.179.675.676,0,.521,0,1.043,0,1.592.155,0,.287,0,.417,0,.263-.009.609.071.762-.064.132-.117.048-.482.052-.738,0-.291,0-.582,0-.873a.521.521,0,0,1,.578-.591c.3-.009.6,0,.9,0h.768v-1.22h-.256c-.449,0-.9,0-1.346,0s-.637-.183-.641-.63c0-.332,0-.665,0-1v-.625Z" transform="translate(-14.126 -14.264)" fill="#2a2968" stroke="#25235a" stroke-width="0.5"/>
    <path id="Path_760" data-name="Path 760" d="M134.623,14.086a.493.493,0,1,1-.491.488A.484.484,0,0,1,134.623,14.086Z" transform="translate(-31.676 -10.846)" fill="#2a2968" stroke="#25235a" stroke-width="0.5"/>
    <path id="Path_761" data-name="Path 761" d="M113.179,22.253h1.213v.625c0,.332,0,.665,0,1,0,.447.187.627.641.63s.9,0,1.346,0h.256v1.22h-.768c-.3,0-.6-.007-.9,0a.521.521,0,0,0-.578.591c-.005.291,0,.582,0,.872,0,.256.08.621-.052.738-.153.136-.5.055-.762.064-.131,0-.262,0-.417,0,0-.549,0-1.07,0-1.592,0-.5-.177-.674-.675-.676-.514,0-1.029,0-1.562,0V24.506h1.5c.587,0,.741-.154.742-.735q0-.723,0-1.446A.409.409,0,0,1,113.179,22.253Z" transform="translate(-16.175 -16.301)" fill="#ffdc55"/>
  </g>
</svg>
