<?xml version="1.0" encoding="utf-8"?>
<!-- Generator: Adobe Illustrator 26.0.2, SVG Export Plug-In . SVG Version: 6.00 Build 0)  -->
<svg version="1.1" xmlns="http://www.w3.org/2000/svg" xmlns:xlink="http://www.w3.org/1999/xlink" x="0px" y="0px"
	 viewBox="0 0 140 140" style="enable-background:new 0 0 140 140;" xml:space="preserve">
<style type="text/css">
	.st0{display:none;}
	.st1{display:inline;fill:#2A2968;}
	.st2{display:inline;fill:#FFDC55;}
	.st3{fill:#FF5809;}
	.st4{fill:#FFFFFF;}
	.st5{fill:#F2E600;}
</style>
<g id="圖層_1" class="st0">
	<path class="st1" d="M131.6,34.6c-0.7,2.6-2.4,4.5-4.3,6.3c-4.1,4-8.1,8.1-12.1,12.2c-2.1,2.1-3.8,2.3-6.2,0.8c-2,2-3.9,3.9-5.9,6
		c1.7,2.8,3,6.1,3.5,9.6c1.3,9.4-1.4,17.4-8.2,23.9c-0.7,0.6-0.7,1.1-0.5,2c1,3.6,1.8,7.3,2.7,10.9c0.4,1.7,1.1,2.4,2.8,2.1
		c3.6-0.6,7.1-1.9,10.1-4c4.9-3.4,7.3-8.2,7.8-14.1c0.1-0.7,0-1.4,0.1-2.1c0.1-1.1,0.6-1.9,1.7-2.1c1.1-0.2,1.8,0.4,2.3,1.3
		c1.9,4.2,3.1,8.6,3.9,13.2c2.1,12.1-6.7,21.7-16.4,24.9c-3.3,1.1-6.6,1.7-10,1.9c-0.5,0-1.1,0.3-1.5,0.6c-2.6,2.3-5.6,3.5-9.1,3.5
		c-18.9,0-37.7,0-56.5,0c-1.9,0-2.7-0.8-2.5-2.8c0.2-2.8,1.6-4.9,3.7-6.5c1-0.8,2.2-1.5,3.4-2c0.8-0.4,1-0.8,1-1.7
		c0-6.8,0-13.5-0.1-20.3c0-0.6-0.2-1.3-0.6-1.7c-6.7-8.5-8.9-18.1-6.9-28.7c0.8-4.4,2.2-8.6,4.2-12.6c0.2-0.4,0.4-0.8,0.6-1.3
		c-0.7-0.3-1.4-0.5-2.1-0.7C32,52,27.4,51.1,22.7,51c-4.2-0.1-7.4-2.2-10-5.2c-3.4-4.1-4.5-9-4.3-14.3c0.1-1.8,1.3-3.2,3.2-3.7
		c3.8-1,7.5-1.9,11.3-2.9c1.9-0.5,3.4-1.5,4.5-3.2c1.4-2.1,2.8-4.2,4.2-6.4c1.6-2.5,3.7-4,6.5-4.8C43,9.1,48,8.1,53.1,7.7
		c0.3,0,0.6-0.1,0.9-0.2c1,0,2.1,0,3.1,0c2.9,0.7,5.4,2,7.3,4.3c1.2,1.5,2.4,3,3.3,4.6c3.1,5.7,4.3,11.9,4.4,18.4
		c0.1,4.1-1.4,7.4-4.5,10c-0.3,0.2-0.6,0.6-0.6,0.9c0.1,1.4,0.4,2.8,0.6,4.2c0.5-0.2,0.9-0.4,1.2-0.6c3.5-1.7,7.2-2.5,11-2.6
		c4.8-0.1,9.3,1.1,13.4,3.5c0.3,0.2,1,0.3,1.2,0.1c1.9-1.8,3.7-3.7,5.5-5.5c-1.5-2.3-1.5-4.2,0.1-5.8c4.9-5,9.8-10,14.8-14.9
		c2.9-2.9,7.6-3.1,10.6-0.4c2.5,2.2,5.2,4.4,6,7.9C131.6,32.7,131.6,33.7,131.6,34.6z M13.4,38.5c0.8,2.8,2.4,5,4.7,6.6
		c1.4,1,2.9,1.6,4.8,1.7c5.4,0.2,10.7,1.2,15.9,2.9c0.6,0.2,1.2,0.4,1.8,0.7c2,1,2.7,3.3,1.7,5.5c-1.3,3.1-2.8,6.2-3.7,9.4
		c-3,10.8-1.4,20.8,6,29.5c0.5,0.6,0.7,1.5,0.7,2.2c0.1,7.9,0,15.8,0,23.6c0,1.7-0.4,2-2,2.8c-1.6,0.8-3.1,1.8-4.6,2.7
		c-0.4,0.2-0.6,0.8-1,1.3c3.7,0,7.2-0.1,10.7,0c1.2,0,2-0.3,2.5-1.4c0.5-0.9,1.2-1.6,1.9-2.4c1.8-1.9,4.2-3.1,6.6-3.8
		c-6.7-9.6-4.4-18.3,2.6-26.7c-0.3-0.2-0.6-0.4-0.8-0.7c-4.8-4.9-7.4-10.8-7.7-17.7c-0.3-8.8,3-16.1,9.6-21.9
		c0.3-0.2,0.6-0.6,0.6-0.8c-0.2-1.8-0.5-3.5-0.8-5.3c-3.3,0.6-6.3,0.3-9.4-0.8c-2.6-1-4.1-3-4.2-5.9c-0.1-2.3,0-4.6,0-6.9
		c0-2.4,0-4.8,0-7.2c0-1,0.5-1.7,1.5-2c0.9-0.3,1.7,0,2.2,0.8c0.3,0.5,0.4,1.2,0.4,1.8c0,3.8,0,7.7,0,11.5c0,3.4,0.5,4.1,4,4.6
		c0.3,0.1,0.6,0.1,0.8,0.1c5.8,0.5,9.9-2.6,9.7-8.7c-0.1-3.4-0.5-6.9-1.5-10.2c-1.1-3.8-2.7-7.3-5.6-10.2c-1.6-1.6-3.5-2.6-5.9-2.4
		c-5.4,0.4-10.7,1.4-15.9,3c-1.8,0.6-3.2,1.6-4.2,3.2c-1.4,2.1-2.8,4.2-4.2,6.4c-1.6,2.6-3.9,4.2-6.9,4.9c-1,0.3-2.1,0.5-3.2,0.8
		c0,1.5,0,3,0,4.4c-0.1,2.5-1.7,4.2-4.2,4.2C15.5,38.5,14.5,38.5,13.4,38.5z M94.2,96.7c-0.4,0.2-0.5,0.2-0.6,0.2
		c-9.3,5.1-18.5,5-27.5-0.4c-0.6-0.4-0.9-0.2-1.3,0.2c-2.3,2.2-3.8,4.9-4.6,7.9c-1.5,6,0.1,12.8,6.5,14.8c0.9,0.3,1.3,1.2,1.2,2.2
		c-0.1,1-0.7,1.5-1.6,1.7c-0.5,0.1-1,0.1-1.4,0.1c-2.6,0.1-5,0.6-7.2,2c-0.9,0.5-1.6,1.2-2.4,1.9c0.1,0.1,0.1,0.2,0.2,0.3
		c0.4,0,0.8,0,1.2,0c8.3,0,16.7,0,25,0c3.1,0,4.4-1.1,4.9-4.3c0.2-1.2,1.1-2,2.2-2c1.1,0.1,2,1,1.8,2.2c-0.1,1.3-0.5,2.6-0.8,3.9
		c1,0,2.2,0.1,3.3,0c2.4-0.3,4.7-1,6.2-3.2c0.3-0.5,1.1-0.7,1.7-0.8c1.2-0.2,2.5-0.1,3.7-0.3c6.2-0.7,11.7-2.9,16.1-7.6
		c4.8-5.1,6.2-12.8,3.5-18.6c0,0-0.1,0.1-0.1,0.1c-0.1,0.3-0.3,0.6-0.4,0.9c-1.6,4.2-4.3,7.4-8,9.9c-3.4,2.3-7.2,3.7-11.2,4.6
		c-4.3,0.9-7.3-1.3-8.1-5.7C95.8,103.4,95,100.1,94.2,96.7z M102.8,73.8C103,61.4,93,51.1,80.5,50.9c-12.4-0.2-22.7,9.9-22.9,22.3
		c-0.2,12.7,9.8,23.1,22.2,23.2C92.5,96.6,102.7,86.6,102.8,73.8z M116.2,28.7c2.1,2.6,2.3,3.4,1.3,4.4c-1,1-1.8,0.7-4.1-1.2
		c-3.4,3.4-6.7,6.8-10,10c2.8,2.8,5.6,5.7,8.5,8.6c3.1-3.2,6.4-6.4,9.6-9.7c0.1-0.1,0.2-0.3,0.3-0.4c-1-1.2-3.1-2.4-1.3-4.2
		c1.8-2,3,0.3,4.4,1.3c0.6-0.6,1.1-1.1,1.6-1.7c0.9-1.1,1.4-2.4,0.8-3.7c-1.2-2.6-3.2-4.5-5.7-5.8c-0.3-0.2-0.7-0.1-1.1-0.2
		C118.6,26,117.4,27.4,116.2,28.7z M105.7,50.7c-0.9-0.9-1.8-1.9-2.6-2.7c-1.8,1.8-3.5,3.6-5.2,5.2c0.8,0.8,1.7,1.8,2.6,2.6
		C102.2,54.2,104,52.5,105.7,50.7z M16.5,30.9c-0.9,0.2-1.6,0.4-2.3,0.6c-1.9,0.5-1.9,0.5-1.7,2.5c0,0.1,0.1,0.2,0.1,0.4
		c1.3,0,2.6,0,3.9,0C16.5,33.2,16.5,32.1,16.5,30.9z"/>
	<path class="st1" d="M98.7,73.7c0,10.3-8.3,18.7-18.5,18.6c-10.2,0-18.4-8.4-18.4-18.6c0-10.3,8.3-18.7,18.5-18.7
		C90.5,55.1,98.7,63.4,98.7,73.7z M94.6,73.7c0-8-6.5-14.5-14.4-14.5c-7.9,0-14.3,6.5-14.3,14.5c0,8,6.4,14.5,14.4,14.5
		C88.1,88.2,94.6,81.7,94.6,73.7z"/>
	<path class="st2" d="M94.6,73.7c0,8-6.4,14.5-14.4,14.5c-7.9,0-14.4-6.5-14.4-14.5c0-7.9,6.5-14.4,14.3-14.5
		C88.1,59.2,94.6,65.7,94.6,73.7z M84.4,79.5c0,1.4,0.6,2.3,1.6,2.4c1.1,0.2,1.9-0.5,2.4-1.6c0.5-1.1,1-2.2,1.6-3.3
		c0.6-0.9,0.5-2-0.2-2.8c-0.8-0.7-1.9-0.8-2.7-0.1C85.5,75.7,84.6,77.5,84.4,79.5z M74.1,81.7c0,1.2,0.6,2,1.7,2.2
		c1,0.2,1.9-0.5,2.3-1.5c0.5-1.2,1.1-2.3,1.7-3.4c0.6-1,0.5-2-0.3-2.8c-0.8-0.7-1.9-0.8-2.7,0C75.2,77.8,74.3,79.7,74.1,81.7z
		 M84.5,63.2c-0.6,0.3-1.2,0.4-1.5,0.7c-1.7,1.5-2.6,3.3-2.8,5.6c-0.1,1.1,0.6,1.9,1.6,2.1c1.1,0.2,1.9-0.4,2.4-1.4
		c0.5-1.2,1.2-2.3,1.7-3.5c0.3-0.6,0.4-1.5,0.1-2.1C85.8,63.9,85.1,63.6,84.5,63.2z M70,71.3c-0.1,1.2,0.6,2.1,1.6,2.3
		c1,0.2,1.9-0.5,2.4-1.5c0.5-1.1,1-2.3,1.7-3.4c0.5-0.9,0.5-2.1-0.2-2.8c-0.8-0.7-1.9-0.8-2.7-0.1C71.1,67.4,70.3,69.3,70,71.3z"/>
	<path class="st1" d="M84.4,79.5c0.2-1.9,1.1-3.8,2.7-5.2c0.8-0.7,1.9-0.7,2.7,0.1c0.8,0.7,0.8,1.8,0.2,2.8c-0.6,1-1.2,2.1-1.6,3.3
		c-0.4,1.1-1.3,1.8-2.4,1.6C85,81.7,84.4,80.9,84.4,79.5z"/>
	<path class="st1" d="M74.1,81.7c0.3-2.1,1.1-4,2.7-5.4c0.8-0.7,2-0.7,2.7,0c0.8,0.7,0.8,1.8,0.3,2.8c-0.6,1.1-1.2,2.2-1.7,3.4
		c-0.4,1-1.3,1.6-2.3,1.5C74.8,83.8,74.1,82.9,74.1,81.7z"/>
	<path class="st1" d="M84.5,63.2c0.5,0.4,1.3,0.7,1.5,1.3c0.3,0.6,0.2,1.5-0.1,2.1c-0.5,1.2-1.2,2.3-1.7,3.5c-0.5,1-1.3,1.6-2.4,1.4
		c-1-0.2-1.6-1-1.6-2.1c0.1-2.2,1.1-4.1,2.8-5.6C83.4,63.6,83.9,63.5,84.5,63.2z"/>
	<path class="st1" d="M70,71.3c0.3-2,1.1-3.9,2.8-5.3c0.8-0.7,1.9-0.7,2.7,0.1c0.7,0.7,0.8,1.8,0.2,2.8c-0.6,1.1-1.2,2.2-1.7,3.4
		c-0.4,1-1.4,1.6-2.4,1.5C70.6,73.4,70,72.5,70,71.3z"/>
</g>
<g id="圖層_2">
	<path class="st3" d="M38.8,53.2C33.2,52.3,28.1,51,23,50.7C14.8,50.3,9.2,42.6,8.7,35c-0.4-6-0.1-6.3,5.8-7.9
		c1.8-0.5,3.6-1,5.5-1.4c4.1-0.7,7.3-2.8,9-6.5c3.4-7.4,10-9.5,17.2-10.6c2-0.3,4-0.4,5.9-0.8c6.4-1.4,10.8,1.4,14.1,6.4
		c4.5,6.8,6.2,14.4,5.5,22.5c-0.2,2.1-1.4,4.5-2.8,6.2c-1.8,2-2.2,3.9-1.3,6.4c3.2-0.7,6.3-1.6,9.5-2.2c5.1-1,9.9,0.1,14.5,2.3
		c1.9,0.9,3.2,0.9,4.6-0.7c1.8-2.1,4.6-3.5,3.1-7.2c-0.3-0.7,0.7-2.3,1.5-3.1c4.5-4.6,9-9.2,13.6-13.7c4.2-4.1,8.3-3.7,13.1,0.8
		c4.6,4.4,5.3,8.9,1.5,13.1c-4.6,5-9.4,9.7-14.3,14.4c-0.7,0.7-2.1,1.5-2.9,1.2c-4.6-1.6-5.6,2.9-8.1,4.7c-0.4,0.3-0.2,1.6,0.1,2.3
		c5.1,11.4,3.7,21.7-4.9,31c-0.4,0.4-1,1-0.9,1.3c1,4.7,2.1,9.4,3.4,14c0.1,0.3,1.6,0.5,2.4,0.4c9.9-1.4,16.5-8.4,17.6-18.3
		c0.1-1.2,1.1-2.3,1.7-3.5c0.9,0.9,2.2,1.7,2.7,2.9c2.2,5.7,4.2,11.5,3.2,17.7c-1.6,9.8-9.5,17.1-20.7,19.3c-3.6,0.7-7,1.3-10.2,3.4
		c-1.8,1.2-4.4,1.4-6.7,1.4c-18,0.1-35.9,0.1-53.9,0c-4.2,0-5.2-1.6-3.3-5.3c0.9-1.8,2.5-3.4,4.2-4.4c2.3-1.4,3.3-3,3-5.6
		c-0.2-1.9-0.1-3.8,0-5.6c0.2-7.2-0.4-13.8-4.6-20.4C31.1,80.3,32.4,69.9,36,60C36.7,58,37.6,56.1,38.8,53.2z M62,93.1
		c-0.7-0.9-1.3-1.7-1.9-2.5c-9.2-11.2-8.6-26.2,1.8-36.3c2.3-2.2,2.1-4.4,1.2-6.5c-0.3-0.8-2.7-1.1-4.1-1.2c-7-0.3-9.4-2.5-9.4-9.5
		c0-3.2-0.2-6.4,0.1-9.6c0.1-1.2,1.2-2.2,1.8-3.4c0.6,1.1,1.7,2.2,1.8,3.3c0.3,3.5-0.1,7.1,0.2,10.6c0.1,1.4,0.8,3.4,1.8,3.9
		c5.1,2.5,12.8,0.2,12.7-6.6c0-3.8-0.2-7.9-1.4-11.4c-3.8-11.2-7-13.8-18.3-11.8c-7.6,1.4-13.7,3.9-17.4,11.3
		c-1.2,2.4-4.5,4.2-7.2,5.3c-2.3,0.9-3.1,1.7-3,4.1c0.1,3.9-1.2,5.1-5.1,5.4c-0.6,0.1-1.2,0.2-2.1,0.3c1.8,4.4,4.3,7.3,9,8.1
		c5,0.8,10.1,1.6,15,2.6c5.1,1.1,6,3.1,4.1,7.9c-0.3,0.8-0.7,1.6-1,2.4c-5.1,12.1-4.9,23.6,3.4,34.4c0.9,1.1,1.2,2.8,1.3,4.3
		c0.1,6.4-0.1,12.8,0.1,19.3c0.1,2.9-0.4,5.1-3.5,6.2c-1.3,0.5-2.4,1.6-3.6,2.5c0.1,0.3,0.2,0.6,0.2,0.9c3.5,0,7,0.1,10.4,0
		c0.7,0,1.4-0.5,2-1c2.7-2.3,5.4-4.7,8.3-7.4C53.1,109.9,55.3,101.2,62,93.1z M94.2,96.7c-0.4,0-0.7-0.1-0.8,0
		c-8.9,4.4-17.8,4.7-26.7-0.3c-0.6-0.3-1.9-0.2-2.4,0.3c-6.3,5.6-6.9,18.4,1,22c0.9,0.4,1.4,1.6,2.1,2.5c-1.1,0.6-2.1,1.4-3.2,1.6
		c-3.3,0.4-6.4,1.1-9.2,4.4c8.3,0,15.9,0,23.5,0c3.6,0,7.3,0.3,8.1-4.6c0.1-0.6,1.3-0.9,1.9-1.4c0.5,0.8,1.3,1.5,1.4,2.3
		c0.2,1.1-0.1,2.3-0.3,4.6c3.3-1.2,5.9-2.1,8.5-3c1.7-0.6,3.3-1.7,5-1.9c8.1-0.9,15-3.7,19.7-10.7c3.2-4.9,3.6-11.8,0.9-15.2
		c-3.7,8.5-10.4,13-19.2,14.6c-4.5,0.8-6.6-0.7-7.8-5.1C95.7,103.2,95,99.9,94.2,96.7z M57.6,72.8c-0.1,13,9.9,23.4,22.5,23.4
		c12.3,0,22.6-10.3,22.6-22.7c0-12.6-10.2-23.1-22.6-23C68,50.5,57.6,60.7,57.6,72.8z M124.7,36.5c0.4,0.3,0.8,0.5,1.2,0.8
		c0.4-1.9,1.7-4.3,0.9-5.5c-1.5-2.3-3.9-4.3-6.4-5.7c-0.9-0.5-3,1.2-4,1.7c0.4,2.2,0.7,3.5,0.9,4.8c-1.4,0-2.7,0-4.2,0
		c-2.9,2.9-6.2,6.1-9.7,9.5c2.7,2.6,5.5,5.3,8,7.7c3.3-3.2,6.7-6.4,9.5-9.1c-0.2-1.7-0.4-3.1-0.6-4.4
		C121.8,36.3,123.3,36.4,124.7,36.5z M100.3,55.6c1.7-1.8,3.3-3.6,5-5.4c-0.7-0.8-1.4-1.7-1.8-2.2c-2.1,1.9-3.9,3.5-5.7,5.2
		C98.7,54.1,99.4,54.8,100.3,55.6z M16.5,31.1c-0.3-0.3-0.7-0.5-1-0.8c-1,1-2,2-3,3c1.2,0.4,2.4,0.8,4,1.3
		C16.5,32.9,16.5,32,16.5,31.1z"/>
	<path class="st4" d="M62,93.1c-6.7,8.1-8.9,16.8-3,25.6c-2.9,2.6-5.6,5-8.3,7.4c-0.6,0.5-1.3,1-2,1c-3.5,0.1-6.9,0-10.4,0
		c-0.1-0.3-0.2-0.6-0.2-0.9c1.2-0.9,2.3-2,3.6-2.5c3.2-1.1,3.6-3.3,3.5-6.2c-0.2-6.4,0-12.8-0.1-19.3c0-1.5-0.4-3.2-1.3-4.3
		c-8.4-10.8-8.5-22.3-3.4-34.4c0.3-0.8,0.7-1.6,1-2.4c1.9-4.7,0.9-6.8-4.1-7.9c-5-1.1-10-1.9-15-2.6c-4.7-0.7-7.3-3.7-9-8.1
		c0.9-0.1,1.5-0.3,2.1-0.3c3.9-0.4,5.2-1.5,5.1-5.4c-0.1-2.4,0.7-3.2,3-4.1c2.7-1,6-2.9,7.2-5.3c3.7-7.4,9.8-9.9,17.4-11.3
		c11.4-2.1,14.6,0.6,18.3,11.8c1.2,3.6,1.4,7.6,1.4,11.4c0.1,6.9-7.6,9.2-12.7,6.6c-1-0.5-1.7-2.5-1.8-3.9c-0.3-3.5,0-7.1-0.2-10.6
		c-0.1-1.1-1.2-2.2-1.8-3.3c-0.6,1.1-1.7,2.2-1.8,3.4c-0.2,3.2-0.1,6.4-0.1,9.6c0,6.9,2.4,9.2,9.4,9.5c1.4,0.1,3.8,0.3,4.1,1.2
		c0.8,2.1,1,4.3-1.2,6.5c-10.4,10.1-11,25-1.8,36.3C60.7,91.4,61.3,92.2,62,93.1z"/>
	<path class="st4" d="M94.2,96.7c0.8,3.3,1.5,6.6,2.4,9.9c1.2,4.4,3.3,5.9,7.8,5.1c8.8-1.6,15.6-6,19.2-14.6
		c2.7,3.4,2.3,10.3-0.9,15.2c-4.6,7-11.6,9.8-19.7,10.7c-1.7,0.2-3.3,1.3-5,1.9c-2.6,1-5.2,1.9-8.5,3c0.2-2.3,0.5-3.5,0.3-4.6
		c-0.1-0.8-0.9-1.5-1.4-2.3c-0.7,0.5-1.8,0.9-1.9,1.4c-0.8,4.9-4.5,4.7-8.1,4.6c-7.6,0-15.2,0-23.5,0c2.8-3.3,5.9-3.9,9.2-4.4
		c1.1-0.1,2.1-1,3.2-1.6c-0.7-0.9-1.2-2.1-2.1-2.5c-7.9-3.6-7.2-16.4-1-22c0.5-0.4,1.8-0.6,2.4-0.3c8.9,5,17.7,4.6,26.7,0.3
		C93.6,96.6,93.8,96.7,94.2,96.7z"/>
	<path class="st4" d="M57.6,72.8C57.6,60.7,68,50.5,80.1,50.5c12.3,0,22.5,10.4,22.6,23c0,12.4-10.3,22.7-22.6,22.7
		C67.5,96.2,57.5,85.8,57.6,72.8z M80.3,91.7c9.9,0,18.1-8.3,18.1-18.2c0-10.1-8.2-18.4-18.3-18.4c-10.2,0-18.2,8.1-18.2,18.4
		C61.9,83.6,70.1,91.8,80.3,91.7z"/>
	<path class="st4" d="M124.7,36.5c-1.4-0.1-2.9-0.2-4.3-0.2c0.2,1.3,0.3,2.7,0.6,4.4c-2.8,2.7-6.1,5.9-9.5,9.1
		c-2.5-2.4-5.3-5.1-8-7.7c3.5-3.4,6.8-6.7,9.7-9.5c1.5,0,2.8,0,4.2,0c-0.2-1.3-0.5-2.6-0.9-4.8c1-0.5,3.1-2.2,4-1.7
		c2.5,1.4,4.9,3.3,6.4,5.7c0.7,1.1-0.6,3.6-0.9,5.5C125.5,37,125.1,36.7,124.7,36.5z"/>
	<path class="st4" d="M100.3,55.6c-0.9-0.8-1.6-1.6-2.5-2.4c1.9-1.7,3.6-3.2,5.7-5.2c0.4,0.5,1.1,1.3,1.8,2.2
		C103.6,52.1,102,53.8,100.3,55.6z"/>
	<path class="st4" d="M16.5,31.1c0,0.9,0,1.8,0,3.5c-1.6-0.5-2.8-0.9-4-1.3c1-1,2-2,3-3C15.8,30.5,16.1,30.8,16.5,31.1z"/>
	<path class="st3" d="M80.3,91.7c-10.2,0.1-18.3-8.1-18.4-18.2c0-10.3,8-18.4,18.2-18.4c10.1,0,18.3,8.3,18.3,18.4
		C98.4,83.4,90.2,91.7,80.3,91.7z M65.8,73.1c-0.1,8.3,6,14.6,14.2,14.7c8,0.1,14.4-6.2,14.5-14.1c0.1-8.1-6.2-14.7-14.2-14.8
		C71.7,58.8,65.3,66.3,65.8,73.1z"/>
	<path class="st5" d="M65.8,73.1c-0.5-6.7,5.9-14.3,14.4-14.2c8,0.1,14.3,6.7,14.2,14.8c-0.1,7.9-6.6,14.2-14.5,14.1
		C71.8,87.7,65.7,81.4,65.8,73.1z M73.2,80.2c1.2,1.5,1.8,2.4,2.5,3.2c1.4-1.8,2.9-3.5,4-5.4c0.2-0.4-0.9-1.5-1.4-2.4
		C76.7,77.1,75.1,78.5,73.2,80.2z M83.5,78.6c1.2,1.3,1.8,2.4,2.5,2.6c1.4,0.4,4-2.9,3.9-5.3c0-0.8-1.1-1.5-1.6-2.2
		C86.8,75.2,85.3,76.7,83.5,78.6z M79.4,68.5c1.4,1.3,2,2.3,2.8,2.4c1.4,0.3,4-3.7,3.7-5.9c-0.1-0.7-1.1-1.3-1.6-2
		C82.7,64.8,81.2,66.5,79.4,68.5z M76.6,67.5c-1.3-1-1.9-2-2.7-2.1c-1.6-0.3-4.3,3.3-3.9,5.4c0.1,0.8,1.2,1.5,1.9,2.2
		C73.4,71.3,74.9,69.6,76.6,67.5z"/>
	<path class="st3" d="M73.2,80.2c1.9-1.7,3.5-3.2,5-4.6c0.5,0.8,1.6,2,1.4,2.4c-1.1,1.9-2.6,3.7-4,5.4C75,82.6,74.4,81.8,73.2,80.2z
		"/>
	<path class="st3" d="M83.5,78.6c1.8-1.9,3.3-3.4,4.8-4.9c0.6,0.7,1.6,1.5,1.6,2.2c0.1,2.4-2.5,5.7-3.9,5.3
		C85.2,81,84.7,79.9,83.5,78.6z"/>
	<path class="st3" d="M79.4,68.5c1.8-2.1,3.3-3.7,4.8-5.4c0.6,0.6,1.5,1.2,1.6,2c0.3,2.1-2.2,6.2-3.7,5.9
		C81.4,70.8,80.7,69.8,79.4,68.5z"/>
	<path class="st3" d="M76.6,67.5c-1.8,2.1-3.2,3.8-4.7,5.6c-0.6-0.7-1.7-1.4-1.9-2.2c-0.3-2.2,2.3-5.7,3.9-5.4
		C74.7,65.5,75.4,66.5,76.6,67.5z"/>
</g>
</svg>
