<svg width="21" height="12" viewBox="0 0 21 12" fill="none" xmlns="http://www.w3.org/2000/svg">
<path d="M14.447 4.159H0.552C0.4056 4.159 0.265197 4.21716 0.161677 4.32068C0.058157 4.4242 0 4.5646 0 4.711L0 7.288C0 7.4344 0.058157 7.57481 0.161677 7.67833C0.265197 7.78185 0.4056 7.84 0.552 7.84H14.447V9.96C14.4449 10.1793 14.5084 10.3943 14.6294 10.5772C14.7504 10.7602 14.9233 10.9028 15.1259 10.9867C15.3285 11.0707 15.5516 11.0921 15.7665 11.0483C15.9814 11.0046 16.1784 10.8975 16.332 10.741L20.292 6.781C20.3951 6.67874 20.4769 6.55708 20.5328 6.42304C20.5886 6.28899 20.6174 6.14522 20.6174 6C20.6174 5.85479 20.5886 5.71101 20.5328 5.57697C20.4769 5.44292 20.3951 5.32126 20.292 5.219L16.332 1.259C16.1784 1.10247 15.9814 0.995443 15.7665 0.95166C15.5516 0.907877 15.3285 0.92934 15.1259 1.01329C14.9233 1.09724 14.7504 1.23985 14.6294 1.4228C14.5084 1.60575 14.4449 1.82069 14.447 2.04V4.159Z" fill="#FFDC55"/>
</svg>
