<?xml version="1.0" encoding="utf-8"?>
<!-- Generator: Adobe Illustrator 26.0.2, SVG Export Plug-In . SVG Version: 6.00 Build 0)  -->
<svg version="1.1" xmlns="http://www.w3.org/2000/svg" xmlns:xlink="http://www.w3.org/1999/xlink" x="0px" y="0px"
	 viewBox="0 0 28 28" style="enable-background:new 0 0 28 28;" xml:space="preserve">
<style type="text/css">
	.st0{display:none;}
	.st1{display:inline;}
	.st2{fill:#2A2968;}
	.st3{fill:#E94D16;}
	.st4{fill-rule:evenodd;clip-rule:evenodd;fill:#FF5809;}
	.st5{fill:#FF5809;}
</style>
<g id="圖層_1" class="st0">
	<g id="AQUfFX.tif" transform="translate(199.854 20.679)" class="st1">
		<g id="Group_607" transform="translate(-199.854 -20.679)">
			<path id="Path_790" class="st2" d="M0,20.1c0.1-0.2,0.1-0.5,0.2-0.7c0.4-1.5,1.7-2.5,3.3-2.5h0.3c0-0.6,0-1.1,0.1-1.7
				c0.2-1.9,0.9-3.8,2.1-5.3c0.4-0.4,0.8-0.7,1.4-0.9c1.3-0.5,2.8-0.8,4.2-0.9c1.9-0.2,3.9-0.2,5.8,0.1c1.3,0.1,2.7,0.4,3.9,0.9
				c0.5,0.2,1,0.6,1.3,1.1c0.4,0.8,0.8,1.5,1.2,2.3c0.1,0.1,0.2,0.3,0.3,0.3c0.6,0.1,1.1,0.3,1.6,0.5c1.1,0.5,2,1.4,2.3,2.6
				c0.3,1,0.3,2,0.1,3c-0.3,1.6-1.6,2.9-3.2,3.2c-0.6,0.2-1.3,0.2-2,0.3c-0.1,0-0.2,0.1-0.3,0.2c-1.6,2.4-4.3,4.1-7.2,4.4
				c-1.4,0.2-2.8,0.1-4.1-0.4c-0.2-0.1-0.3,0-0.5,0.1c-0.9,0.7-1.9,1.1-3,1.3c-0.1,0-0.1,0-0.2,0.1H6.5c-0.2,0-0.5-0.1-0.7-0.1
				c-2.8-0.8-4.9-3-5.6-5.9c-0.1-0.3-0.1-0.5-0.2-0.8L0,20.1z M6,11.3c-1,1.7-1.4,3.6-1.3,5.5c0,0.1,0.1,0.2,0.2,0.2
				c0.6,0.3,1.3,0.6,1.9,0.9c0.1,0.1,0.3,0.1,0.4,0c0.7-0.5,1.4-0.8,2.2-1c1.1-0.3,2.3-0.1,3.2,0.5c1,0.8,1.6,2.1,1.4,3.4
				c-0.2,1.8-0.9,3.5-2.2,4.7c-0.1,0.1-0.1,0.1-0.2,0.2c3.6,1,7.5-0.4,9.7-3.4c0,0-0.1,0-0.1,0c-0.8-0.1-1.3-0.8-1.2-1.5
				c0,0,0-0.1,0-0.1c0.1-0.8,0.9-1.3,1.7-1.1c0,0,0,0,0,0c0.3,0,0.6,0,0.9,0c0.1,0,0.3-0.1,0.3-0.2c0,0,0,0,0,0
				c0.2-0.6,0.3-1.2,0.4-1.9c0-0.7,0-1.4,0-2.1c-0.4,0-0.8,0-1.2-0.1c-0.8,0-1.4-0.7-1.4-1.4c0-0.8,0.6-1.4,1.4-1.4c0,0,0,0,0,0
				c0.1,0,0.3,0,0.5,0L22,11.3c-0.8,0.7-1.8,1.1-2.8,1.2c-3.2,0.7-6.4,0.7-9.6,0.2C8.3,12.6,7,12.1,6,11.3z M6.2,18.6
				c-0.9-0.6-2-0.9-3.1-0.8c-0.9,0.1-1.7,0.8-1.9,1.6C0.9,20,0.9,20.7,1,21.2c0.4,2.4,2,4.4,4.2,5.4c1.1,0.6,2.5,0.6,3.7,0
				c1.6-0.7,2.8-2,3.6-3.5c0.5-0.9,0.7-1.8,0.7-2.8c0-1.4-1.1-2.6-2.5-2.6c-0.2,0-0.4,0-0.6,0c-0.8,0.1-1.5,0.4-2.2,0.8
				c-1.2,0.8-2.2,1.9-2.8,3.2c-0.2,0.3-0.4,0.5-0.7,0.3S4,21.7,4.2,21.3c0.2-0.4,0.4-0.8,0.7-1.2C5.3,19.6,5.7,19.2,6.2,18.6z
				 M22.3,21.5L22.3,21.5c0.7-0.1,1.4-0.1,2.1-0.3c1.4-0.2,2.4-1.3,2.6-2.7c0.1-0.7,0.1-1.5,0-2.2c-0.2-1.1-0.9-2-2-2.4
				c-0.9-0.3-1.9-0.5-2.8-0.4c-0.2,0-0.4,0.2-0.4,0.4c0,0,0,0,0,0c0,0.3,0.2,0.5,0.4,0.5c0.2,0,0.3,0,0.5,0c0.7,0.1,1.3,0.2,2,0.3
				c0.9,0.2,1.5,1,1.5,1.9c0,0.3,0.1,0.7,0,1c0.1,1.3-0.9,2.4-2.1,2.6c-0.8,0.2-1.6,0.2-2.4,0.1c-0.4,0-0.6,0.1-0.6,0.4
				s0.1,0.5,0.5,0.5C21.7,21.4,22,21.5,22.3,21.5L22.3,21.5z M14.2,9.8c2.3,0,4.5,0.3,6.7,1c0.1,0,0.3-0.2,0.5-0.3
				c0-0.1-0.1-0.2-0.2-0.3c-0.4-0.3-0.9-0.5-1.4-0.6c-1.5-0.4-3-0.6-4.5-0.7c-2.2-0.1-4.4,0-6.5,0.5c-0.7,0.1-1.3,0.4-1.9,0.7
				c-0.1,0.1-0.3,0.2-0.3,0.4c0.1,0.2,0.4,0.3,0.6,0.3c0.3-0.1,0.5-0.2,0.8-0.3C10.1,10,12.1,9.8,14.2,9.8L14.2,9.8z M19.7,11.4
				c-2.5-0.9-9.7-0.9-11.3,0C12.1,12.3,16,12.3,19.7,11.4L19.7,11.4z M24.3,15.7c0.1,1.2-0.1,2.5-0.4,3.7c0.7,0,1.2-0.5,1.3-1.2
				c0-0.5,0-1,0-1.5C25.1,16.2,24.7,15.8,24.3,15.7L24.3,15.7z"/>
			<path id="Path_791" class="st2" d="M11.7,2.9c0-0.5,0.2-0.9,0.5-1.3c0.4-0.6,0.9-1.1,1.6-1.5c0.2-0.2,0.5-0.2,0.6,0c0,0,0,0,0,0
				c0.2,0.2,0.2,0.5,0,0.7C14.2,1,14,1.2,13.9,1.4c-0.3,0.4-0.2,1,0.2,1.4c1.2,1.2,1.3,3.1,0.3,4.4c-0.1,0.2-0.3,0.3-0.6,0.2
				c-0.2-0.1-0.3-0.2-0.3-0.5c0-0.9-0.4-1.7-1.1-2.4C12,4.2,11.7,3.6,11.7,2.9z M12.8,2.3c-0.4,0.5-0.1,1.1,0.3,1.6
				c0.3,0.3,0.5,0.6,0.7,1c0.1,0.1,0.2,0.3,0.3,0.5C14.3,4.7,14,4,13.5,3.5C13.2,3.2,12.9,2.8,12.8,2.3L12.8,2.3z"/>
			<path id="Path_792" class="st2" d="M7.9,3.5c0-0.5,0.2-1,0.5-1.4c0.4-0.6,1-1,1.6-1.4c0.2-0.2,0.5-0.1,0.7,0.1c0,0,0,0,0,0
				c0.2,0.2,0.1,0.4-0.1,0.7c-0.2,0.2-0.3,0.5-0.5,0.8c-0.1,0.3,0,0.7,0.2,0.9c1.2,1,1.4,2.8,0.4,4.1c0,0,0,0,0,0.1
				c-0.1,0.2-0.3,0.3-0.6,0.2C9.9,7.4,9.8,7.2,9.8,6.9c0-0.5-0.2-1-0.6-1.4C9,5.2,8.7,4.9,8.5,4.6C8.2,4.3,8,3.9,7.9,3.5z M9.1,2.8
				C8.8,3,8.8,3.5,9,3.8c0.5,0.6,0.9,1.2,1.4,1.7c0.1-0.6-0.1-1.1-0.6-1.5C9.5,3.7,9.2,3.2,9.1,2.8L9.1,2.8z"/>
			<path id="Path_793" class="st2" d="M15.4,3.3c0-0.4,0.2-0.8,0.4-1.2c0.4-0.6,1-1.1,1.6-1.4c0.2-0.1,0.5-0.1,0.6,0.1
				C18.2,1,18.2,1.3,18,1.5c-0.2,0.2-0.3,0.5-0.5,0.7c-0.1,0.3,0,0.7,0.2,0.9c1.2,1,1.4,2.8,0.4,4.1c0,0,0,0,0,0
				c-0.2,0.2-0.3,0.3-0.6,0.3c-0.2-0.1-0.4-0.3-0.3-0.5c0-0.5-0.2-1-0.5-1.4c-0.2-0.3-0.5-0.6-0.8-0.9C15.6,4.3,15.4,3.8,15.4,3.3z
				 M16.6,2.8c-0.3,0.3-0.3,0.8,0,1.1C17,4.4,17.4,5,17.8,5.5c0,0,0,0,0.1,0c0.1-0.6-0.2-1.2-0.6-1.6C16.9,3.6,16.7,3.2,16.6,2.8
				L16.6,2.8z"/>
			<path id="Path_795" class="st3" d="M6.2,18.6c-0.4,0.5-0.9,1-1.2,1.5c-0.3,0.4-0.5,0.8-0.7,1.2C4,21.7,4.1,22,4.4,22.1
				s0.5,0,0.7-0.3c0.6-1.3,1.6-2.4,2.8-3.2c0.7-0.4,1.4-0.7,2.2-0.8c1.4-0.3,2.7,0.6,3,2c0,0.2,0.1,0.4,0,0.6c0,1-0.2,2-0.7,2.8
				c-0.8,1.6-2,2.8-3.6,3.5c-1.2,0.6-2.5,0.6-3.7,0c-2.2-1-3.8-3-4.2-5.4c-0.1-0.6-0.1-1.2,0.1-1.8c0.3-0.9,1-1.5,1.9-1.6
				C4.1,17.7,5.3,18,6.2,18.6z"/>
		</g>
	</g>
</g>
<g id="圖層_2">
	<g>
		<g>
			<path class="st4" d="M23.3,3h-4.7c-0.4,0-0.1-1-2.6-1c-0.1-2.4-3.7-2.4-3.8,0c-2.5,0-2.2,1-2.6,1H4.8L3.5,4.2v22.2l1.2,1.2h18.5
				l1.2-1.2V4.2L23.3,3z M22.6,24.7c0,0.7-0.6,1.2-1.2,1.2H6.6c-0.7,0-1.2-0.6-1.2-1.2V6.1c0-0.7,0.6-1.2,1.2-1.2h2.9
				c0.3,0,0.3,1,1.4,1h6.2c1.1,0,1-1,1.4-1h2.9c0.7,0,1.2,0.6,1.2,1.2V24.7z"/>
		</g>
		<g>
			<g>
				<path class="st5" d="M11.8,19.2c0,0.1-0.1,0.2-0.2,0.3c-0.1,0.1-0.2,0.1-0.4,0.1c-0.2,0-0.3,0-0.4-0.1c-0.1-0.1-0.2-0.2-0.2-0.3
					v-2.6H9.3v2.6c0,0.3-0.2,0.4-0.6,0.4c-0.4,0-0.5-0.1-0.5-0.4v-5.9c0-0.3,0.2-0.5,0.6-0.5c0.2,0,0.3,0,0.4,0.1
					c0.1,0.1,0.2,0.2,0.2,0.3v2.3h1.4v-2.3c0-0.3,0.2-0.5,0.5-0.5c0.2,0,0.3,0,0.4,0.1c0.1,0.1,0.2,0.2,0.2,0.3V19.2z"/>
				<path class="st5" d="M16.4,16.2c0,1-0.1,1.7-0.3,2.3c-0.3,0.8-0.9,1.2-1.7,1.2c-0.8,0-1.3-0.4-1.6-1.2c-0.2-0.5-0.3-1.3-0.3-2.3
					c0-1,0.1-1.8,0.3-2.2c0.3-0.7,0.9-1.1,1.7-1.1c0.8,0,1.4,0.4,1.7,1.1C16.3,14.4,16.4,15.2,16.4,16.2z M15.3,16.2
					c0-0.7-0.1-1.2-0.2-1.6c-0.2-0.5-0.4-0.7-0.7-0.7c-0.3,0-0.5,0.2-0.7,0.7c-0.1,0.4-0.2,1-0.2,1.6c0,0.7,0.1,1.3,0.2,1.7
					c0.1,0.5,0.4,0.8,0.7,0.8c0.3,0,0.5-0.3,0.7-0.8C15.2,17.4,15.3,16.9,15.3,16.2z"/>
				<path class="st5" d="M20.8,13.5c0,0.3-0.2,0.5-0.5,0.5h-0.9v5c0,0.4-0.2,0.6-0.6,0.6c-0.4,0-0.6-0.2-0.6-0.6v-5h-0.8
					c-0.2,0-0.3,0-0.4-0.1c-0.1-0.1-0.1-0.2-0.1-0.4c0-0.4,0.2-0.5,0.5-0.5h2.9c0.1,0,0.2,0.1,0.3,0.2
					C20.7,13.2,20.8,13.4,20.8,13.5z"/>
			</g>
		</g>
	</g>
</g>
</svg>
