<?xml version="1.0" encoding="utf-8"?>
<!-- Generator: Adobe Illustrator 25.4.1, SVG Export Plug-In . SVG Version: 6.00 Build 0)  -->
<svg version="1.1" id="圖層_1" xmlns="http://www.w3.org/2000/svg" xmlns:xlink="http://www.w3.org/1999/xlink" x="0px" y="0px"
	 viewBox="0 0 12 12" style="enable-background:new 0 0 12 12;" xml:space="preserve">
<style type="text/css">
	.st0{fill:#A2A6BE;stroke:#A2A6BE;stroke-width:0.0902;}
	.st1{fill:#FFDC55;}
</style>
<path id="Path_488" class="st0" d="M0.77,8.35c0.06-0.28,0.28-0.49,0.55-0.56c0.17-0.06,0.31-0.16,0.41-0.31
	c0.29-0.35,0.58-0.71,0.87-1.06C2.93,6.05,3.44,5.9,3.92,6.04c0.66,0.2,1.32,0.4,1.98,0.6c0.02,0,0.03,0.01,0.07,0.02
	c0-0.04,0.01-0.08,0.01-0.12c0-0.7,0-1.4,0-2.1c0-0.08-0.02-0.12-0.11-0.13C5.28,4.19,4.69,4.08,4.1,3.97
	C3.93,3.94,3.76,3.85,3.64,3.73C3.43,3.52,3.23,3.31,3.02,3.1c-0.17-0.17-0.26-0.4-0.26-0.64c0-0.11,0-0.21,0-0.32
	c-0.02-0.26,0.17-0.48,0.43-0.5c0.02,0,0.05,0,0.07,0c0.52,0,1.03-0.01,1.55,0c0.22,0.01,0.42-0.08,0.56-0.24
	c0.19-0.23,0.47-0.36,0.77-0.34c0.3,0,0.6,0,0.9,0c0.16,0,0.32-0.05,0.45-0.17C7.77,0.64,8.06,0.4,8.34,0.16h0.15
	c0.1,0.06,0.16,0.18,0.14,0.3c-0.01,0.13,0,0.27,0,0.4C8.6,1.19,8.64,1.52,8.74,1.84c0.01,0.04,0.02,0.09,0.02,0.14
	c-0.01,0.1-0.09,0.18-0.19,0.19C8.46,2.18,8.36,2.1,8.34,2C8.24,1.7,8.19,1.38,8.2,1.07c0.01-0.07,0-0.13,0-0.23
	C8.05,0.97,7.92,1.07,7.8,1.18c-0.21,0.2-0.5,0.31-0.79,0.3c-0.29-0.01-0.58,0-0.87,0C5.96,1.47,5.8,1.54,5.69,1.68
	c-0.21,0.26-0.53,0.4-0.86,0.38c-0.24-0.01-0.48,0-0.72,0H4c-0.1,0.53-0.17,0.6-0.7,0.7c0.02,0.02,0.03,0.05,0.05,0.06
	C3.54,3.02,3.72,3.22,3.92,3.4c0.08,0.07,0.17,0.12,0.27,0.15C4.85,3.68,5.51,3.8,6.17,3.93c0.17,0.03,0.22,0.1,0.22,0.27
	c0,0.9,0,1.79,0,2.69c0,0.22-0.12,0.31-0.33,0.25C5.59,6.99,5.12,6.84,4.64,6.7C4.61,6.69,4.57,6.68,4.52,6.67
	C4.49,6.9,4.46,7.12,4.43,7.34c0,0.07-0.01,0.14-0.03,0.21C4.36,7.66,4.4,7.71,4.5,7.75c0.5,0.22,1,0.46,1.51,0.69
	c0.12,0.04,0.2,0.16,0.18,0.29c-0.01,0.08,0,0.17,0,0.25c0.15,0,0.31,0.01,0.46,0.03C7,9.07,7.31,9.27,7.5,9.56
	c0.03,0.06,0.1,0.08,0.15,0.06c0.55-0.14,1.12,0.2,1.25,0.75c0.04,0.16,0.04,0.32,0.01,0.48c-0.01,0.12-0.11,0.21-0.23,0.2
	s-0.21-0.11-0.2-0.23c0-0.02,0.01-0.04,0.01-0.05c0.08-0.33-0.12-0.65-0.44-0.73C7.94,10,7.82,10.01,7.71,10.04
	c-0.21,0.07-0.43-0.02-0.54-0.21C6.99,9.53,6.64,9.36,6.28,9.41c-0.07,0.01-0.09,0.03-0.09,0.1c0,0.4,0,0.81,0,1.21
	c0,0.03,0,0.06,0,0.09C6.2,10.93,6.11,11.04,6,11.05c-0.01,0-0.01,0-0.02,0c-0.12,0-0.21-0.1-0.21-0.22c0-0.01,0-0.01,0-0.02
	c0-0.18,0-0.37,0-0.55c0-0.46,0-0.91,0-1.37c0.01-0.06-0.02-0.11-0.08-0.13C5.2,8.54,4.72,8.31,4.22,8.09
	c-0.41-0.2-0.89-0.14-1.23,0.16c-0.2,0.17-0.41,0.33-0.61,0.5c-0.26,0.2-0.57,0.32-0.9,0.36c-0.3,0.03-0.58-0.15-0.67-0.43
	C0.8,8.64,0.78,8.6,0.77,8.56L0.77,8.35z M3.26,6.48c0.15,0.35,0.3,0.69,0.46,1.03c0.07,0.05,0.16,0.07,0.25,0.04
	c0.01-0.01,0.01-0.02,0.01-0.04c0.04-0.32,0.09-0.64,0.13-0.97C3.83,6.45,3.56,6.34,3.26,6.48z M1.99,8.54L1.8,8.04
	c-0.16,0.07-0.31,0.14-0.46,0.2C1.23,8.28,1.17,8.39,1.2,8.51C1.22,8.62,1.33,8.7,1.44,8.68C1.62,8.65,1.8,8.59,1.99,8.54z
	 M2.91,6.74l-0.4,0.48C2.69,7.35,2.87,7.47,3.04,7.6C3.11,7.66,3.22,7.67,3.29,7.6L2.91,6.74z M2.22,7.53
	c-0.03,0.08-0.09,0.15-0.08,0.2C2.19,7.9,2.27,8.06,2.33,8.24L2.74,7.9L2.22,7.53z M3.55,2.06c-0.05,0-0.1,0-0.14,0
	C3.17,2.07,3.19,2.01,3.19,2.29C3.19,2.3,3.2,2.3,3.2,2.31C3.47,2.35,3.57,2.28,3.55,2.06z"/>
<path id="Path_489" class="st0" d="M7.99,5.6c0.03-0.52,0.35-0.97,0.82-1.18C8.89,4.38,8.9,4.35,8.88,4.27
	c-0.04-0.14-0.07-0.29-0.1-0.43C8.74,3.73,8.79,3.61,8.9,3.57C9.02,3.53,9.14,3.59,9.18,3.7c0.01,0.01,0.01,0.03,0.01,0.04
	c0.19,0.8,0.4,1.6,0.57,2.41c0.14,0.7,0.43,1.35,0.86,1.92c0.33,0.43,0.62,0.89,0.93,1.33c0.02,0.02,0.03,0.05,0.05,0.07
	c0.08,0.09,0.08,0.22-0.01,0.3c-0.09,0.08-0.22,0.08-0.3-0.01c-0.01-0.02-0.03-0.03-0.04-0.05c-0.2-0.28-0.39-0.56-0.58-0.84
	c-0.21-0.3-0.44-0.6-0.64-0.92C9.88,7.73,9.76,7.48,9.63,7.24C9.62,7.18,9.56,7.14,9.5,7.15C8.67,7.18,7.99,6.54,7.99,5.6z
	 M9.46,6.72C9.31,6.08,9.16,5.44,9,4.8c-0.45,0.2-0.68,0.7-0.55,1.18C8.58,6.43,9.04,6.78,9.46,6.72z"/>
<path id="Path_490" class="st0" d="M8.98,2.88c0,0.12-0.09,0.21-0.2,0.21c-0.12,0-0.22-0.1-0.22-0.21c0-0.12,0.1-0.21,0.21-0.21
	C8.88,2.67,8.98,2.76,8.98,2.88z"/>
<path id="Path_491" class="st0" d="M6.42,2.2c0,0.12-0.09,0.21-0.21,0.21C6.1,2.41,6,2.32,6,2.2c0-0.12,0.09-0.21,0.21-0.21
	S6.42,2.08,6.42,2.2L6.42,2.2z"/>
<path id="Path_492" class="st1" d="M3.26,6.48c0.31-0.13,0.57-0.02,0.85,0.07C4.06,6.87,4.02,7.19,3.98,7.52
	c0,0.01-0.01,0.03-0.01,0.04C3.88,7.58,3.78,7.56,3.71,7.51C3.56,7.17,3.41,6.83,3.26,6.48z"/>
<path id="Path_493" class="st1" d="M1.99,8.54C1.8,8.59,1.62,8.65,1.44,8.68C1.33,8.7,1.22,8.62,1.2,8.51
	C1.18,8.39,1.24,8.28,1.34,8.24c0.15-0.06,0.3-0.13,0.46-0.2L1.99,8.54z"/>
<path id="Path_494" class="st1" d="M2.91,6.74L3.29,7.6C3.22,7.67,3.11,7.66,3.04,7.6C2.87,7.47,2.69,7.35,2.51,7.22L2.91,6.74z"/>
<path id="Path_495" class="st1" d="M2.22,7.53L2.74,7.9L2.33,8.24C2.26,8.06,2.19,7.9,2.14,7.73C2.13,7.68,2.19,7.61,2.22,7.53z"/>
<path id="Path_456" class="st0" d="M3.04,9.64C3.06,9.58,3.08,9.52,3.1,9.46c0.08-0.17,0.19-0.34,0.32-0.48
	C3.46,8.93,3.54,8.92,3.6,8.96c0.01,0.01,0.02,0.01,0.02,0.02c0.13,0.15,0.24,0.32,0.33,0.5C4.04,9.65,4,9.86,3.87,10
	c-0.13,0.14-0.33,0.19-0.51,0.12C3.16,10.04,3.04,9.85,3.04,9.64z M3.52,9.11C3.41,9.25,3.31,9.4,3.24,9.56
	c-0.02,0.05-0.03,0.1-0.02,0.16c0.01,0.12,0.1,0.22,0.22,0.25c0.12,0.04,0.25,0,0.32-0.09c0.08-0.08,0.11-0.21,0.05-0.32
	C3.73,9.4,3.64,9.25,3.52,9.11L3.52,9.11z"/>
<path id="Path_501" class="st0" d="M1.6,11.33c0.02-0.06,0.03-0.12,0.06-0.18c0.08-0.17,0.19-0.34,0.32-0.48
	c0.04-0.06,0.12-0.07,0.18-0.02c0.01,0.01,0.02,0.01,0.02,0.02c0.13,0.15,0.24,0.32,0.33,0.5c0.09,0.17,0.05,0.38-0.09,0.52
	c-0.13,0.14-0.33,0.19-0.51,0.12C1.72,11.73,1.59,11.54,1.6,11.33z M2.08,10.8c-0.12,0.14-0.21,0.29-0.29,0.45
	c-0.02,0.05-0.03,0.1-0.02,0.16c0.01,0.12,0.1,0.22,0.22,0.25c0.12,0.04,0.25,0,0.32-0.09c0.08-0.08,0.11-0.21,0.05-0.32
	C2.29,11.09,2.19,10.94,2.08,10.8L2.08,10.8z"/>
<path id="Path_459" class="st1" d="M3.52,9.11C3.64,9.25,3.73,9.4,3.81,9.56c0.05,0.11,0.03,0.24-0.05,0.32
	c-0.08,0.09-0.21,0.13-0.32,0.09c-0.12-0.03-0.2-0.13-0.22-0.25c-0.01-0.05,0-0.11,0.02-0.16C3.31,9.4,3.41,9.25,3.52,9.11z"/>
<path id="Path_502" class="st1" d="M2.08,10.8c0.11,0.14,0.21,0.29,0.29,0.45c0.05,0.11,0.03,0.24-0.05,0.32
	c-0.08,0.09-0.21,0.13-0.32,0.09c-0.12-0.03-0.2-0.13-0.22-0.25c-0.01-0.05,0-0.11,0.02-0.16C1.87,11.09,1.96,10.94,2.08,10.8z"/>
<rect x="-8.33" y="4.26" class="st0" width="1.74" height="1.54"/>
</svg>
