<svg xmlns="http://www.w3.org/2000/svg" width="24.091" height="22.544" viewBox="0 0 24.091 22.544">
  <g id="gtYd0c.tif" transform="translate(118.925 -21.625)">
    <g id="Group_536" data-name="Group 536" transform="translate(-118.675 21.925)">
      <path id="Path_703" data-name="Path 703" d="M-118.675,27.869c.061-.4.1-.8.187-1.2a5.7,5.7,0,0,1,1.652-3.1,5.828,5.828,0,0,1,3.5-1.6,6.651,6.651,0,0,1,6,2.565c.162.193.3.41.463.645.062-.085.116-.154.165-.226a6.769,6.769,0,0,1,4.456-2.929,6.017,6.017,0,0,1,6.268,2.723,7.024,7.024,0,0,1,.864,2.814,10.443,10.443,0,0,1-.185,3.068.454.454,0,0,1-.3.4.435.435,0,0,1-.453-.157c-.429-.429-.852-.864-1.289-1.285a.789.789,0,0,0-1.346.311.8.8,0,0,0,.262.832q1.038,1.031,2.072,2.066a1.02,1.02,0,0,1,.166.189.367.367,0,0,1-.055.484.366.366,0,0,1-.485.046,1.232,1.232,0,0,1-.2-.184q-1.694-1.693-3.388-3.389a.915.915,0,0,0-.655-.337.744.744,0,0,0-.711.423.747.747,0,0,0,.069.825,1.938,1.938,0,0,0,.2.221l3.893,3.894c.049.049.1.1.145.148a.385.385,0,0,1,.015.558.4.4,0,0,1-.56,0c-.053-.044-.1-.1-.148-.145q-1.694-1.694-3.389-3.388a.8.8,0,0,0-.954-.248.775.775,0,0,0-.333,1.157,1.878,1.878,0,0,0,.214.24l3.567,3.568c.044.043.089.085.13.13.2.212.213.424.05.594a.4.4,0,0,1-.609-.044q-1.454-1.446-2.9-2.9a.842.842,0,0,0-.779-.3.777.777,0,0,0-.5,1.229,2.059,2.059,0,0,0,.216.239q1.4,1.4,2.8,2.8c.306.306.293.5-.029.784a43.259,43.259,0,0,1-5.931,4.4.6.6,0,0,1-.715,0,43.333,43.333,0,0,1-5.948-4.411c-.3-.266-.316-.471-.035-.752q1.44-1.443,2.883-2.883a.845.845,0,0,0,.3-.714.748.748,0,0,0-.484-.648.749.749,0,0,0-.8.126,2.487,2.487,0,0,0-.185.173l-2.769,2.769a1.9,1.9,0,0,1-.167.158.382.382,0,0,1-.523-.023.379.379,0,0,1-.025-.522,1.8,1.8,0,0,1,.173-.184q1.816-1.817,3.634-3.631a.846.846,0,0,0,.3-.779.776.776,0,0,0-1.209-.51,1.657,1.657,0,0,0-.223.2l-3.407,3.4a1.031,1.031,0,0,1-.189.167.366.366,0,0,1-.483-.058.36.36,0,0,1-.046-.484,1.25,1.25,0,0,1,.17-.187q1.986-1.988,3.97-3.979a1.2,1.2,0,0,0,.29-.457.736.736,0,0,0-.312-.826.786.786,0,0,0-.906.018,2.364,2.364,0,0,0-.256.231q-1.646,1.644-3.291,3.29l-.114.114c-.221.215-.455.243-.626.075s-.149-.412.065-.627q.959-.963,1.922-1.922c.076-.076.153-.151.228-.228a.788.788,0,0,0,.039-1.134.791.791,0,0,0-1.151.027c-.391.38-.773.77-1.159,1.155l-.147.146a.415.415,0,0,1-.435.138.419.419,0,0,1-.292-.378c-.069-.454-.129-.911-.194-1.366-.009-.06-.027-.119-.041-.179Zm22.69,1.984a8.552,8.552,0,0,0-.021-2.835,4.926,4.926,0,0,0-1.854-3.206,5.575,5.575,0,0,0-6.294-.233,6.738,6.738,0,0,0-2.273,2.4c-.29.5-.587.481-.906.013a10.461,10.461,0,0,0-1.093-1.444,5.549,5.549,0,0,0-5.388-1.683A4.742,4.742,0,0,0-117,25.019a6.676,6.676,0,0,0-.857,4.007c.014.261.051.521.084.843.3-.3.544-.567.8-.817a1.573,1.573,0,0,1,1.961-.279,1.613,1.613,0,0,1,.717.937c.677-.773,1.449-1.2,2.4-.606a1.523,1.523,0,0,1,.569,1.97,1.571,1.571,0,0,1,1.154,1,1.606,1.606,0,0,1-.24,1.525,1.555,1.555,0,0,1,.952.723,1.58,1.58,0,0,1-.321,1.993q-1.242,1.249-2.491,2.493c-.057.057-.113.118-.17.179a39.974,39.974,0,0,0,5.454,4.026.293.293,0,0,0,.258-.02c1.127-.77,2.263-1.529,3.368-2.331.711-.516,1.376-1.1,2.111-1.69a2.211,2.211,0,0,1-.238-.176q-1.241-1.235-2.477-2.474a1.581,1.581,0,0,1-.453-1.722,1.542,1.542,0,0,1,1.085-1,1.567,1.567,0,0,1-.247-1.514,1.575,1.575,0,0,1,1.165-1.016c-.018-.058-.03-.1-.045-.145a1.558,1.558,0,0,1,.567-1.817,1.549,1.549,0,0,1,1.9.089c.181.15.347.317.5.454a4.082,4.082,0,0,1,.505-.68,1.582,1.582,0,0,1,2.222.09C-96.517,29.31-96.269,29.567-95.985,29.853Z" transform="translate(118.675 -21.925)" fill="#2a2968" stroke="#2a2968" stroke-width="0.5"/>
      <path id="Path_704" data-name="Path 704" d="M-94.352,31.479c-.284-.286-.532-.544-.789-.793a1.582,1.582,0,0,0-2.222-.09,4.082,4.082,0,0,0-.505.68c-.15-.138-.316-.3-.5-.454a1.549,1.549,0,0,0-1.9-.089,1.558,1.558,0,0,0-.567,1.817c.015.043.027.087.045.145a1.575,1.575,0,0,0-1.165,1.016,1.567,1.567,0,0,0,.247,1.514,1.542,1.542,0,0,0-1.085,1,1.581,1.581,0,0,0,.453,1.722q1.238,1.237,2.477,2.474a2.211,2.211,0,0,0,.238.176c-.735.593-1.4,1.174-2.111,1.69-1.1.8-2.24,1.561-3.368,2.331a.293.293,0,0,1-.258.02,39.973,39.973,0,0,1-5.454-4.026c.058-.061.113-.121.17-.179q1.246-1.247,2.491-2.493a1.58,1.58,0,0,0,.321-1.993,1.555,1.555,0,0,0-.952-.723,1.606,1.606,0,0,0,.24-1.525,1.571,1.571,0,0,0-1.154-1,1.523,1.523,0,0,0-.569-1.97c-.95-.591-1.722-.167-2.4.606a1.613,1.613,0,0,0-.717-.937,1.573,1.573,0,0,0-1.961.279c-.258.25-.5.513-.8.817-.033-.322-.07-.582-.084-.843a6.676,6.676,0,0,1,.857-4.007,4.742,4.742,0,0,1,3.189-2.156,5.549,5.549,0,0,1,5.388,1.683,10.46,10.46,0,0,1,1.093,1.444c.32.468.617.482.906-.013a6.738,6.738,0,0,1,2.273-2.4,5.574,5.574,0,0,1,6.294.233,4.926,4.926,0,0,1,1.854,3.206A8.552,8.552,0,0,1-94.352,31.479Z" transform="translate(117.042 -23.551)" fill="#ffdc55" stroke="#2a2968" stroke-width="0.5"/>
    </g>
  </g>
</svg>
