<svg width="22" height="22" viewBox="0 0 22 22" fill="none" xmlns="http://www.w3.org/2000/svg">
<path d="M5.95522 5.83041L5.95515 5.83038L5.95367 5.83379C5.68906 6.44213 5.21212 7.74831 5.37993 9.42572L5.37999 9.4263C5.53197 10.861 6.07952 11.9242 6.42799 12.4925L4.79761 13.838L4.75986 13.8692L4.7613 13.9181L4.7949 15.0598L1.27155 18.737L1.22608 18.7845L1.25159 18.845C1.63753 19.7612 1.99707 20.2718 2.30461 20.5541C2.61581 20.8397 2.87284 20.8905 3.04156 20.8905C3.34615 20.8905 3.58026 20.72 3.83169 20.452C3.95799 20.3175 4.09322 20.1532 4.24668 19.9652C4.25958 19.9494 4.27263 19.9334 4.28581 19.9172C4.4301 19.7404 4.59174 19.5423 4.78021 19.3241L4.78025 19.3241C5.57575 18.4021 6.33822 17.7198 6.90601 17.2529C7.24575 17.3359 7.57797 17.419 7.91048 17.5021L7.96355 17.5153L8.00334 17.4778C8.31259 17.1861 8.62181 16.8922 8.93087 16.5985L8.93099 16.5984C9.22233 16.3216 9.51353 16.0448 9.80471 15.77C10.4338 16.1149 11.9931 16.8562 14.0385 16.6605C14.3534 16.6334 16.6888 16.3683 18.5327 14.4811L18.5327 14.4811C20.6396 12.3222 21.6204 8.52419 19.8548 5.30343L19.8548 5.30338C18.4162 2.68325 15.5406 1.18541 12.6222 1.34404L12.6221 1.34405C9.76428 1.50275 7.20716 3.22186 5.95522 5.83041ZM7.97629 5.91315C7.94533 5.91106 7.91438 5.90895 7.88345 5.90682C8.17864 5.52044 8.62131 4.99935 9.19705 4.50485C10.0688 3.75609 11.2389 3.07408 12.6585 3.00587C13.6749 2.95893 14.6622 3.23246 15.3845 3.56989C15.7457 3.73862 16.0369 3.9216 16.2306 4.08508C16.3277 4.16709 16.3969 4.24139 16.4387 4.30367C16.4826 4.36926 16.4852 4.40498 16.4826 4.41729L16.4823 4.41854L16.4823 4.41866C16.4816 4.42225 16.4794 4.43364 16.4468 4.4499C16.4115 4.46747 16.3561 4.48236 16.2761 4.49504C16.1976 4.5075 16.104 4.51662 15.9961 4.52659C15.986 4.52753 15.9758 4.52847 15.9655 4.52942C15.8666 4.53852 15.7577 4.54855 15.6433 4.56254C15.1387 4.62421 14.5042 4.76489 14.0181 5.27372L14.0179 5.27385C13.7494 5.55595 13.5253 5.94978 13.4209 6.36264C13.3166 6.77517 13.3294 7.21803 13.5518 7.58725C13.784 7.97569 14.1809 8.17794 14.5784 8.2739C14.9763 8.36993 15.3877 8.36301 15.6717 8.32246L15.6725 8.32235C15.9174 8.2854 16.0517 8.22413 16.2013 8.15271C16.2069 8.15005 16.2125 8.14737 16.2181 8.14468C16.3581 8.07774 16.5185 8.00104 16.8154 7.91969C16.828 7.91638 16.8409 7.91296 16.8541 7.90947C17.0849 7.84838 17.4096 7.7624 17.7334 7.7222C18.0819 7.67893 18.4002 7.69301 18.5987 7.82028L18.599 7.82048C18.7809 7.93618 18.921 8.18468 18.9965 8.5462C19.0713 8.90417 19.0787 9.35544 19.0118 9.84945C18.8779 10.8378 18.449 11.9786 17.6974 12.858C16.3256 14.4591 14.3123 14.6767 13.6647 14.7466L13.6617 14.747L13.6612 14.747C13.1256 14.8075 12.0834 14.9095 10.8791 14.4399L10.8789 14.4398C9.40021 13.8674 8.58734 12.7989 8.27864 12.3447L8.2788 12.3445L8.27493 12.3396C7.94994 11.9207 7.38594 11.0663 7.20653 9.84508C6.92458 7.92353 7.79631 6.47002 8.05383 6.06675L8.14465 5.92452L7.97629 5.91315Z" fill="#FFDC55" stroke="#2A2968" stroke-width="0.2"/>
<path d="M13.5848 0.9L13.5923 0.901137C13.6978 0.917185 13.8045 0.9327 13.9118 0.948312C14.2087 0.99149 14.5105 1.0354 14.8067 1.09332L14.8087 1.09371L14.8087 1.09373C17.9835 1.78131 20.4517 4.38985 20.9895 7.59768L20.9896 7.5978C21.6507 11.5717 19.297 15.4143 15.4614 16.6041C13.5311 17.2032 11.6257 17.0795 9.77587 16.2695M13.5848 0.9L9.81598 16.1779M13.5848 0.9H13.5773M13.5848 0.9H13.5773M9.77587 16.2695L9.81598 16.1779M9.77587 16.2695C9.77589 16.2695 9.7759 16.2695 9.77592 16.2695L9.81598 16.1779M9.77587 16.2695C9.71129 16.2413 9.67954 16.2381 9.66044 16.2415C9.64425 16.2444 9.61974 16.2551 9.57887 16.3034L9.57565 16.3072L9.57556 16.3071C9.32136 16.5787 9.05868 16.8326 8.79805 17.0844L8.79759 17.0848M9.81598 16.1779C9.67668 16.117 9.59832 16.1257 9.50254 16.2388C9.25005 16.5086 8.98885 16.761 8.72765 17.0134M8.79759 17.0848L8.72765 17.0134M8.79759 17.0848L8.79713 17.0853L8.72765 17.0134M8.79759 17.0848C8.35382 17.5192 7.83032 17.6492 7.23232 17.5021L7.22873 17.5012L7.22875 17.5012C7.22152 17.4991 7.20165 17.4978 7.17162 17.5053C7.14355 17.5123 7.11656 17.5246 7.09751 17.538M8.72765 17.0134C8.30973 17.4224 7.82215 17.5442 7.25621 17.405C7.19527 17.3876 7.09949 17.4137 7.03855 17.4572M7.09751 17.538C7.09785 17.5377 7.09819 17.5375 7.09853 17.5372L7.03855 17.4572M7.09751 17.538C7.05268 17.5717 7.01199 17.6121 6.96833 17.6579C6.96013 17.6665 6.95175 17.6753 6.94318 17.6844C6.90746 17.7222 6.86861 17.7634 6.82718 17.801L6.82578 17.8023L6.82577 17.8023C6.74229 17.8753 6.64576 17.9184 6.54444 17.9184C6.44213 17.9184 6.34801 17.8744 6.27131 17.7977C6.19662 17.7231 6.15671 17.6278 6.15822 17.5264C6.15971 17.4263 6.20134 17.3285 6.27466 17.2443M7.09751 17.538C7.09722 17.5382 7.09694 17.5384 7.09665 17.5386L7.03855 17.4572M7.03855 17.4572L6.27466 17.2443M6.27466 17.2443C6.27441 17.2446 6.27416 17.2449 6.27391 17.2452L6.35072 17.3093M6.27466 17.2443L6.75993 17.727C6.62062 17.8488 6.4639 17.8488 6.34201 17.727C6.22882 17.6139 6.22882 17.4485 6.35072 17.3093M6.27466 17.2443C6.27493 17.244 6.2752 17.2437 6.27547 17.2434L6.35072 17.3093M6.27466 17.2443L6.35072 17.3093M13.5773 0.9H12.5151H12.5068L12.4986 0.901359C12.4715 0.905873 12.4446 0.912376 12.4209 0.918081C12.418 0.918789 12.4151 0.919486 12.4123 0.920165C12.3863 0.92639 12.3627 0.931774 12.3383 0.935413C11.6 0.997153 10.8768 1.1469 10.1873 1.42965L10.1871 1.4297C7.34369 2.60003 5.62261 4.70809 5.09421 7.74497L13.5773 0.9ZM5.90372 18.7123L5.90281 18.7137C5.86986 18.7631 5.82722 18.8034 5.79384 18.835C5.7845 18.8439 5.77588 18.852 5.76841 18.8595L4.05319 20.574C3.70633 20.9207 3.29663 21.0992 2.88247 21.1004C2.46826 21.1016 2.06047 20.9253 1.71771 20.5827C1.50819 20.3732 1.30351 20.16 1.12471 19.9188C1.06328 19.8367 1.0245 19.7425 0.993264 19.6544C0.981675 19.6217 0.971373 19.5908 0.961444 19.561C0.942944 19.5054 0.925741 19.4537 0.903936 19.402L0.896094 19.3834V19.3632V19.3622V19.3613V19.3604V19.3595V19.3586V19.3576V19.3567V19.3558V19.3549V19.354V19.3531V19.3521V19.3512V19.3503V19.3494V19.3485V19.3475V19.3466V19.3457V19.3448V19.3439V19.343V19.342V19.3411V19.3402V19.3393V19.3384V19.3375V19.3365V19.3356V19.3347V19.3338V19.3329V19.3319V19.331V19.3301V19.3292V19.3283V19.3274V19.3264V19.3255V19.3246V19.3237V19.3228V19.3218V19.3209V19.32V19.3191V19.3182V19.3173V19.3163V19.3154V19.3145V19.3136V19.3127V19.3118V19.3108V19.3099V19.309V19.3081V19.3072V19.3062V19.3053V19.3044V19.3035V19.3026V19.3017V19.3007V19.2998V19.2989V19.298V19.2971V19.2961V19.2952V19.2943V19.2934V19.2925V19.2916V19.2906V19.2897V19.2888V19.2879V19.287V19.286V19.2851V19.2842V19.2833V19.2824V19.2815V19.2805V19.2796V19.2787V19.2778V19.2769V19.276V19.275V19.2741V19.2732V19.2723V19.2714V19.2704V19.2695V19.2686V19.2677V19.2668V19.2659V19.2649V19.264V19.2631V19.2622V19.2613V19.2603V19.2594V19.2585V19.2576V19.2567V19.2558V19.2548V19.2539V19.253V19.2521V19.2512V19.2503V19.2493V19.2484V19.2475V19.2466V19.2457V19.2447V19.2438V19.2429V19.242V19.2411V19.2402V19.2392V19.2383V19.2374V19.2365V19.2356V19.2346V19.2337V19.2328V19.2319V19.231V19.2301V19.2291V19.2282V19.2273V19.2264V19.2255V19.2246V19.2236V19.2227V19.2218V19.2209V19.22V19.219V19.2181V19.2172V19.2163V19.2154V19.2145V19.2135V19.2126V19.2117V19.2108V19.2099V19.2089V19.208V19.2071V19.2062V19.2053V19.2044V19.2034V19.2025V19.2016V19.2007V19.1998V19.1989V19.1979V19.197V19.1961V19.1952V19.1943V19.1933V19.1924V19.1915V19.1906V19.1897V19.1888V19.1878V19.1869V19.186V19.1851V19.1842V19.1832V19.1823V19.1814V19.1805V19.1796V19.1787V19.1777V19.1768V19.1759V19.175V19.1741V19.1731V19.1722V19.1713V19.1704V19.1695V19.1686V19.1676V19.1667V19.1658V19.1649V19.164V19.1631V19.1621V19.1612V19.1603V19.1594V19.1585V19.1575V19.1566V19.1557V19.1548V19.1539V19.153V19.152V19.1511V19.1502V19.1493V19.1484V19.1474V19.1465V19.1456V19.1447V19.1438V19.1429V19.1419V19.141V19.1401V19.1392V19.1383V19.1374V19.1364V19.1355V19.1346V19.1337V19.1328V19.1318V19.1309V19.13V19.1291V19.1282V19.1273V19.1263V19.1254V19.1245V19.1236V19.1227V19.1217V19.1208V19.1199V19.119V19.1181V19.1172V19.1162V19.1153V19.1144V19.1135V19.1126V19.1117V19.1107V19.1098V19.1089V19.108V19.1071V19.1061V19.1052V19.1043V19.1034V19.1025V19.1016V19.1006V19.0997V19.0988V19.0979V19.097V19.096V19.0951V19.0942V19.0933V19.0924V19.0915V19.0905V19.0896V19.0887V19.0878V19.0869V19.086V19.085V19.0841V19.0832V19.0823V19.0814V19.0804V19.0795V19.0786V19.0777V19.0768V19.0759V19.0749V19.074V19.0731V19.0722V19.0713V19.0703V19.0694V19.0685V19.0676V19.0667V19.0658V19.0648V19.0639V19.063V19.0621V19.0612V19.0602V19.0593V19.0584V19.0575V19.0566V19.0557V19.0547V19.0538V19.0529V19.052V19.0511V19.0502V19.0492V19.0483V19.0474V19.0465V19.0456V19.0446V19.0437V19.0428V19.0419V19.041V19.0401V19.0391V19.0382V19.0373V19.0364V19.0355V19.0345V19.0336V19.0327V19.0318V19.0309V19.03V19.029V19.0281V19.0272V19.0263V19.0254V19.0245V19.0235V19.0226V19.0217V19.0208V19.0199V19.0189V19.018V19.0171V19.0162V19.0153V19.0144V19.0134V19.0125V19.0116V19.0107V19.0098V19.0088V19.0079V19.007V19.0061V19.0052V19.0043V19.0033V19.0024V19.0015V19.0006V18.9997V18.9988V18.9978V18.9969V18.996V18.9951V18.9942V18.9932V18.9923V18.9914V18.9905V18.9896V18.9887V18.9877V18.9868V18.9859V18.985V18.9841V18.9831V18.9822V18.9813V18.9804V18.9795V18.9786V18.9776V18.9767V18.9758V18.9749V18.974V18.9731V18.9721V18.9712V18.9703V18.9694V18.9685V18.9675V18.9666V18.9657V18.9648V18.9639V18.963V18.962V18.9611V18.9602V18.9593V18.9584V18.9574V18.9565V18.9556V18.9547V18.9538V18.9529V18.9519V18.951V18.9501V18.9492V18.9483V18.9473V18.9464V18.9455V18.9446V18.9437V18.9428V18.9418V18.9409V18.94V18.9391V18.9382V18.9373V18.9363V18.9354V18.9345V18.9336V18.9327V18.9317V18.9308V18.9299V18.929V18.9281V18.9272V18.9262V18.9253V18.9244V18.9235V18.9226V18.9216V18.9207V18.9198V18.9189V18.918V18.9171V18.9161V18.9152V18.9143V18.9134V18.9125V18.9116V18.9106V18.9097V18.9088V18.9079V18.907V18.906V18.9051V18.9042V18.9033V18.9024V18.9015V18.9005V18.8996V18.8987V18.8978V18.8969V18.8959V18.895V18.8941V18.8932V18.8825L0.898344 18.8721C1.00069 18.3978 1.29829 18.0581 1.61323 17.7433L1.61388 17.7427C2.15635 17.2104 2.69204 16.6735 3.22737 16.137C3.62903 15.7344 4.03047 15.3321 4.4344 14.9321C4.47115 14.8953 4.48698 14.8683 4.49364 14.845C4.50008 14.8224 4.50111 14.7923 4.48711 14.7433L4.48662 14.7416L4.48663 14.7416C4.33854 14.1865 4.46025 13.6809 4.85849 13.255L4.85859 13.2549C5.12146 12.9746 5.40154 12.7034 5.67957 12.4342L5.68039 12.4334L5.68237 12.4315L5.6824 12.4315C5.72956 12.3883 5.74392 12.3621 5.74811 12.3432C5.75193 12.326 5.75132 12.2964 5.72147 12.2367L5.7204 12.2346L5.72043 12.2345C5.4375 11.6336 5.25226 11.007 5.13777 10.3555L5.13762 10.3547C5.11778 10.2357 5.12807 10.122 5.17906 10.029C5.23163 9.93322 5.32121 9.87115 5.43432 9.84854C5.54448 9.82652 5.65348 9.84456 5.74119 9.91187C5.82748 9.9781 5.88035 10.0821 5.90074 10.2081C6.10724 11.3253 6.52814 12.3459 7.20567 13.2547C8.46094 14.9218 10.1169 15.8991 12.187 16.1395C15.9835 16.5773 19.4015 14.0882 20.166 10.3357C20.9645 6.40515 18.2588 2.46438 14.3009 1.80358C10.8206 1.22813 7.53206 3.0741 6.25226 6.33659L6.25224 6.33665C5.96926 7.05664 5.81498 7.81051 5.79771 8.58137C5.79771 8.58173 5.7977 8.5821 5.79769 8.58246L5.69771 8.58024L5.90372 18.7123ZM5.90372 18.7123C5.95146 18.6381 5.97961 18.5545 5.97497 18.4679C5.97025 18.3799 5.93207 18.2985 5.86418 18.2307C5.79449 18.161 5.71313 18.1177 5.62311 18.1084C5.53404 18.0992 5.44759 18.1244 5.36858 18.1716L5.90372 18.7123ZM6.61155 17.0398C6.61167 17.0397 6.6118 17.0396 6.61192 17.0395C6.58832 17.0159 6.56474 16.9923 6.54117 16.9688C6.52291 16.9871 6.50295 17.0091 6.48417 17.0299L6.4801 17.0344C6.47775 17.037 6.47541 17.0396 6.47307 17.0421C6.49578 17.0648 6.51849 17.0875 6.54122 17.1102L6.61155 17.0398ZM4.9545 15.5252C4.95721 15.5227 4.95994 15.5202 4.96268 15.5177L4.9671 15.5138C4.98774 15.4951 5.00965 15.4753 5.02786 15.4571C5.00445 15.4334 4.98105 15.4097 4.95764 15.3859C4.95543 15.3881 4.95314 15.3904 4.95079 15.3927L4.88639 15.4561C4.90909 15.4791 4.9318 15.5022 4.9545 15.5252ZM5.40654 13.8078L5.40666 13.8079L5.41011 13.8036C5.42318 13.7872 5.43883 13.7714 5.45727 13.754C5.4625 13.749 5.4685 13.7435 5.47485 13.7376C5.48831 13.7251 5.50333 13.7112 5.51591 13.6987L5.51612 13.6984C5.72281 13.4919 5.92999 13.2848 6.14915 13.0598C6.8576 14.219 7.77011 15.1316 8.92171 15.8473C8.85447 15.9123 8.78863 15.9772 8.72342 16.0415C8.49821 16.2634 8.28062 16.4778 8.03952 16.6645C7.77935 16.865 7.39083 16.8247 7.14301 16.5848C6.55174 16.0111 5.96936 15.429 5.3958 14.8297C5.13061 14.5493 5.14163 14.1037 5.40654 13.8078Z" fill="#2A2968" stroke="#2A2968" stroke-width="0.2"/>
<path d="M13.0469 15.2075C16.4981 15.2251 19.32 12.4126 19.3377 8.95501V8.95475C19.3466 5.50564 16.5422 2.67571 13.1 2.65802L13.1 2.65802C9.61405 2.64033 6.80059 5.43527 6.7829 8.92787C6.7652 12.3778 9.57905 15.1985 13.0469 15.2075ZM13.0469 15.2075C13.0468 15.2075 13.0468 15.2075 13.0467 15.2075L13.0472 15.1075L13.047 15.2075C13.0469 15.2075 13.0469 15.2075 13.0469 15.2075ZM14.7363 7.91885C14.9018 7.95366 15.0759 7.96236 15.2413 7.95366C15.4938 7.94496 15.6331 8.02328 15.6505 8.20604C15.668 8.40621 15.5548 8.51064 15.2849 8.53675C14.7712 8.57156 14.2836 8.45843 13.857 8.16253C13.2562 7.74479 13.0995 7.15299 13.1778 6.44805M14.7363 7.91885L14.758 7.82123C14.7578 7.82118 14.7576 7.82114 14.7574 7.8211M14.7363 7.91885L14.7569 7.82099C14.7571 7.82103 14.7573 7.82106 14.7574 7.8211M14.7363 7.91885C13.9527 7.74479 13.6219 7.20521 13.7873 6.36973C13.944 5.56906 14.4577 5.13391 15.3023 5.0991C15.7899 5.0817 16.26 5.04688 16.6953 4.7945L13.1778 6.44805M14.7574 7.8211C14.9126 7.85368 15.0776 7.86213 15.2361 7.8538L15.2379 7.8537L15.2379 7.85372C15.3722 7.84909 15.493 7.86652 15.5857 7.92241C15.6849 7.98219 15.7388 8.07787 15.7501 8.19656L15.7502 8.19738C15.7607 8.31898 15.732 8.42957 15.6427 8.51068C15.5591 8.58664 15.4373 8.62247 15.2945 8.63629L15.2916 8.63657L15.2916 8.63652C14.7582 8.67267 14.2475 8.55511 13.8 8.2447L13.7999 8.24463C13.4835 8.02462 13.2806 7.75587 13.1687 7.44706C13.0574 7.14001 13.0382 6.79945 13.0784 6.43741M14.7574 7.8211C14.3844 7.73812 14.1332 7.57172 13.9912 7.34007C13.8485 7.10723 13.8058 6.7914 13.8854 6.38915L13.8854 6.38894C13.9604 6.00576 14.1188 5.71918 14.3512 5.52376C14.5838 5.32817 14.9003 5.2158 15.3062 5.19903C15.7908 5.18172 16.2811 5.14747 16.7378 4.88544C16.7405 4.88543 16.7441 4.88559 16.7483 4.88611C16.7541 4.88684 16.7589 4.888 16.7621 4.88904C17.4857 5.54829 17.9918 6.33815 18.2817 7.24508C18.2444 7.24275 18.207 7.24032 18.1695 7.23789C17.9193 7.22163 17.6668 7.20523 17.4213 7.21849L17.4213 7.2184L17.4171 7.21881C17.1676 7.24294 16.9185 7.31004 16.6852 7.3729C16.6565 7.38062 16.6281 7.38827 16.5999 7.39578L16.5999 7.39577L16.5987 7.3961C16.4703 7.43205 16.3712 7.5025 16.3162 7.60168C16.2611 7.70121 16.2579 7.81633 16.2962 7.92579L16.2962 7.92579L16.2968 7.92732C16.3361 8.03412 16.4102 8.11435 16.5135 8.15288C16.614 8.19039 16.73 8.18386 16.8489 8.14427L16.8495 8.14403C17.1982 8.02502 17.5482 7.95956 17.9027 8.00077C18.0502 8.01812 18.161 8.03537 18.2464 8.05922C18.331 8.08286 18.383 8.11098 18.4183 8.14517C18.4894 8.21402 18.5238 8.33632 18.537 8.62832L18.5371 8.6288C18.6227 10.3318 18.0418 11.7912 16.8014 12.9456L16.8013 12.9456C13.7743 15.7661 8.89201 14.3822 7.7715 10.3983C7.51455 9.47863 7.50658 8.5673 7.72489 7.64681C7.76535 7.65222 7.80575 7.65769 7.84609 7.66315C8.17027 7.70703 8.49026 7.75035 8.80377 7.75771C9.01462 7.76675 9.24077 7.73926 9.44649 7.69456L9.44649 7.69457L9.44773 7.69428C10.1744 7.52666 10.627 6.9469 10.7002 6.17905L10.7003 6.1785C10.7633 5.47685 10.5833 4.83993 10.0942 4.31259C10.0924 4.31014 10.0906 4.30774 10.0888 4.30536C11.8549 3.1183 14.2505 3.14192 15.9805 4.32419C15.844 4.35054 15.7063 4.37414 15.569 4.39061L15.569 4.39057L15.5663 4.39096C15.4591 4.40673 15.3517 4.41533 15.2407 4.42422C15.2026 4.42727 15.164 4.43036 15.1249 4.43379C14.9746 4.44695 14.8194 4.46492 14.6669 4.50646C13.7349 4.75319 13.1781 5.46944 13.0784 6.43741M13.0784 6.43741C13.0784 6.43755 13.0784 6.43769 13.0784 6.43782L13.1778 6.44805M13.0784 6.43741C13.0784 6.43728 13.0784 6.43714 13.0785 6.43701L13.1778 6.44805M9.84359 6.42663L9.84311 6.4282C9.78806 6.61292 9.6896 6.74581 9.56454 6.83416C9.4388 6.92299 9.28057 6.97067 9.10102 6.97469C8.81346 6.98067 8.52893 6.95328 8.22599 6.92411C8.13816 6.91565 8.04877 6.90705 7.95732 6.89906C8.30387 6.05317 8.79663 5.37353 9.4502 4.79745C9.92806 5.24794 10.0337 5.82494 9.84359 6.42663Z" fill="#2A2968" stroke="#2A2968" stroke-width="0.2"/>
<path d="M9.44863 4.53208L9.51372 4.58813C10.1135 5.10463 10.2505 5.79137 10.0406 6.49397L9.44863 4.53208ZM9.44863 4.53208L9.3834 4.58797M9.44863 4.53208L9.3834 4.58797M9.3834 4.58797C8.63955 5.22528 8.08968 5.98771 7.72661 6.96135L7.6802 7.08581L7.81265 7.096C7.9428 7.106 8.07183 7.11842 8.1999 7.13074C8.5083 7.1604 8.81119 7.18954 9.11099 7.1833L9.11099 7.18333M9.3834 4.58797L9.11099 7.18333M9.11099 7.18333L9.11334 7.18322M9.11099 7.18333L9.11334 7.18322M9.11334 7.18322C9.32396 7.17387 9.52187 7.11744 9.68533 7.00319M9.11334 7.18322L9.68533 7.00319M9.68533 7.00319C9.84977 6.88826 9.97359 6.71872 10.0406 6.49405L9.68533 7.00319Z" fill="#FFDC55" stroke="#2A2968" stroke-width="0.2"/>
<path d="M12.156 8.54984H12.1659C12.6364 8.54984 13.006 8.71018 13.2266 8.98421C13.4477 9.25898 13.5057 9.6317 13.3849 10.0271M12.156 8.54984L13.289 9.99879M12.156 8.54984L12.1463 8.55178C12.1039 8.56026 12.0559 8.57088 12.0033 8.58251C11.8305 8.62076 11.6085 8.66989 11.374 8.68943L11.374 8.68916L11.3666 8.69033C11.179 8.72016 10.9886 8.7373 10.7943 8.75476L10.7927 8.75491C10.6001 8.77221 10.4036 8.78987 10.2087 8.82086M12.156 8.54984L10.2087 8.82086M13.3849 10.0271C13.3849 10.0274 13.3848 10.0277 13.3847 10.0281L13.289 9.99879M13.3849 10.0271C13.385 10.0269 13.3851 10.0266 13.3852 10.0263L13.289 9.99879M13.3849 10.0271C13.3834 10.0325 13.3818 10.0383 13.3801 10.0443C13.3651 10.0983 13.3435 10.1758 13.3026 10.237L13.2982 10.2437L13.2979 10.2435C12.9697 10.6596 13.0135 11.1308 13.0663 11.6593M13.289 9.99879C13.2873 10.0048 13.2856 10.0109 13.2839 10.0171C13.268 10.0733 13.2508 10.1345 13.2194 10.1816C12.8632 10.6331 12.9144 11.1454 12.9666 11.6664L12.9669 11.6698M13.0663 11.6593C13.0663 11.6591 13.0663 11.6589 13.0663 11.6587L12.9669 11.6698M13.0663 11.6593C13.0664 11.6594 13.0664 11.6596 13.0664 11.6598L12.9669 11.6698M13.0663 11.6593C13.1201 12.1437 13.0662 12.6274 12.923 13.0835L12.9229 13.0836C12.8139 13.4288 12.6139 13.7555 12.1999 13.8639L12.1992 13.8641C11.6112 14.0135 11.0348 13.5081 10.9694 12.8723L10.9692 12.8711L10.9689 12.867C10.9514 12.6743 10.9344 12.4878 10.8782 12.3193C10.7681 11.9892 10.5085 11.7878 10.195 11.5789C9.93248 11.404 9.66278 11.2071 9.44512 10.9625M12.9669 11.6698C13.0191 12.1397 12.9669 12.6097 12.8276 13.0535M12.8276 13.0535L11.0679 12.8521C11.0508 12.6637 11.033 12.4673 10.9731 12.2877C10.8512 11.9221 10.5638 11.7046 10.2504 11.4957C9.98921 11.3216 9.728 11.1302 9.51904 10.8952M12.8276 13.0535C12.7231 13.3842 12.5403 13.6714 12.1746 13.7672L12.8276 13.0535ZM9.44512 10.9625C9.4454 10.9628 9.44567 10.9631 9.44595 10.9634L9.51904 10.8952M9.44512 10.9625C9.1764 10.6742 9.10472 10.3034 9.13198 9.92204L9.13214 9.91968L9.13217 9.91968C9.16003 9.62736 9.26315 9.37637 9.44699 9.18535C9.63063 8.99454 9.88732 8.87135 10.2087 8.82086M9.44512 10.9625C9.44485 10.9622 9.44458 10.9619 9.44432 10.9616L9.51904 10.8952M9.51904 10.8952L10.2087 8.82086M11.6609 12.7663C11.6696 12.8882 11.7393 13.0274 11.8263 13.1231C11.9395 13.2537 12.0788 13.2363 12.1659 13.0883C12.2442 12.9665 12.3139 12.8185 12.3226 12.6793C12.3574 12.2441 12.3835 11.8003 12.3574 11.3564M11.6609 12.7663L11.7608 12.7612C11.7607 12.7608 11.7607 12.7605 11.7607 12.7601M11.6609 12.7663L11.7606 12.7592C11.7607 12.7595 11.7607 12.7598 11.7607 12.7601M11.6609 12.7663C11.6174 11.9221 11.1994 11.339 10.4681 10.9561M11.7607 12.7601C11.7677 12.8544 11.8248 12.9728 11.9003 13.0559L11.9019 13.0576L11.9019 13.0576C11.9443 13.1066 11.9775 13.1127 11.9951 13.1108C12.0136 13.1087 12.0464 13.0943 12.0797 13.0376L12.0817 13.0342L12.0818 13.0342C12.1567 12.9177 12.2157 12.787 12.2228 12.6731L12.2229 12.6713L12.2229 12.6713C12.2577 12.2372 12.2833 11.7993 12.2576 11.3629M11.7607 12.7601C11.7149 11.878 11.274 11.2654 10.515 10.8678M12.2576 11.3629C12.2576 11.3631 12.2577 11.3633 12.2577 11.3635L12.3574 11.3564M12.2576 11.3629C12.2576 11.3627 12.2576 11.3625 12.2576 11.3623L12.3574 11.3564M12.2576 11.3629C12.222 10.8547 12.2837 10.3689 12.5786 9.92641M12.3574 11.3564C12.3226 10.8604 12.3835 10.3991 12.6622 9.98139M12.6622 9.98139L12.5783 9.92687C12.5784 9.92672 12.5785 9.92656 12.5786 9.92641M12.6622 9.98139C12.7754 9.80733 12.8189 9.59846 12.7057 9.40699M12.6622 9.98139L12.579 9.9259C12.5789 9.92607 12.5787 9.92624 12.5786 9.92641M12.5786 9.92641C12.6787 9.77225 12.7066 9.60639 12.6205 9.45933M12.7057 9.40699L12.6213 9.4607C12.621 9.46024 12.6208 9.45978 12.6205 9.45933M12.7057 9.40699C12.5838 9.21553 12.3748 9.22423 12.1746 9.24164M12.7057 9.40699L12.6196 9.45788C12.6199 9.45836 12.6202 9.45885 12.6205 9.45933M12.6205 9.45933C12.5349 9.32651 12.3921 9.32312 12.1835 9.34125M12.1746 9.24164L12.1836 9.34123C12.1836 9.34123 12.1835 9.34124 12.1835 9.34125M12.1746 9.24164C12.1171 9.24686 12.0597 9.26148 12.0022 9.2761C11.9639 9.28585 11.9256 9.2956 11.8873 9.30256L10.2504 9.52884C9.93696 9.59846 9.82378 9.75511 9.82378 10.0684C9.82378 10.4165 10.0327 10.7211 10.4681 10.9561M12.1746 9.24164L12.1832 9.34126C12.1833 9.34126 12.1834 9.34125 12.1835 9.34125M12.1835 9.34125C12.1438 9.34486 12.1024 9.35406 12.0552 9.36585C12.0465 9.36801 12.0376 9.37029 12.0284 9.37263C11.9899 9.38244 11.9472 9.3933 11.9051 9.40095L11.9037 9.40121L11.9037 9.4012C11.5889 9.45364 11.2744 9.49731 10.9614 9.54076L10.9607 9.54086L10.9469 9.44181L10.9616 9.54073C10.8652 9.555 10.7683 9.56365 10.6753 9.57196C10.6515 9.57408 10.6279 9.57619 10.6047 9.57836C10.489 9.58917 10.3792 9.60176 10.2729 9.62628L10.2721 9.62646L10.2721 9.62646C10.1272 9.65864 10.0461 9.70718 9.99858 9.76852C9.95053 9.83049 9.92378 9.92204 9.92378 10.0684C9.92378 10.3676 10.1003 10.6438 10.515 10.8678M10.515 10.8678C10.5148 10.8677 10.5147 10.8676 10.5145 10.8675L10.4681 10.9561M10.515 10.8678C10.5152 10.8679 10.5154 10.868 10.5156 10.8681L10.4681 10.9561" fill="#2A2968" stroke="#2A2968" stroke-width="0.2"/>
<path d="M10.9336 9.34274L10.9336 9.34275C11.0896 9.3211 11.2456 9.29727 11.4024 9.27332L11.4028 9.27327C11.5586 9.24948 11.7151 9.22557 11.8718 9.2038C11.9057 9.19755 11.9392 9.18904 11.9763 9.1796C11.9863 9.17706 11.9965 9.17446 12.0071 9.17181C12.0556 9.15969 12.1099 9.14714 12.166 9.14204L12.1664 9.14201C12.3603 9.12515 12.6218 9.10583 12.7887 9.35064L12.7905 9.35326L12.7905 9.35328C12.941 9.58973 12.8811 9.8433 12.7451 10.038C12.4755 10.4385 12.4236 10.8653 12.4576 11.3494L12.4577 11.3504L12.4577 11.3504C12.4842 11.7927 12.4576 12.2421 12.4228 12.6864M10.9336 9.34274L12.323 12.6793M10.9336 9.34274L10.9327 9.34288C10.8427 9.35621 10.7532 9.36422 10.6609 9.37247C10.6363 9.37467 10.6116 9.37688 10.5865 9.37922C10.4695 9.39015 10.3487 9.40366 10.2288 9.4313C10.0604 9.46874 9.92829 9.53333 9.84096 9.64596C9.75406 9.75805 9.72422 9.90148 9.72422 10.0684C9.72422 10.4642 9.9643 10.8066 10.4218 11.0445M10.9336 9.34274L10.4685 10.9561M12.4228 12.6864C12.4228 12.6866 12.4228 12.6869 12.4227 12.6871L12.323 12.6793M12.4228 12.6864C12.4228 12.6861 12.4228 12.6858 12.4228 12.6855L12.323 12.6793M12.4228 12.6864C12.4122 12.8519 12.3212 13.0189 12.2531 13.1379L12.2525 13.139L12.2525 13.139C12.1988 13.2303 12.1183 13.2985 12.0172 13.3096C11.915 13.3207 11.822 13.2703 11.7512 13.1886L11.7493 13.1865L11.7494 13.1865C11.6657 13.0843 11.5724 12.9254 11.5616 12.7734L11.5614 12.7715L11.5615 12.7715C11.5405 12.3654 11.43 12.0288 11.24 11.7475C11.0498 11.4658 10.7763 11.2344 10.4218 11.0445M12.323 12.6793C12.3143 12.8185 12.236 12.9665 12.1663 13.0883C12.0793 13.2363 11.9399 13.2537 11.8268 13.1231C11.7484 13.0274 11.67 12.8882 11.6613 12.7663C11.6178 11.9221 11.1999 11.3477 10.4685 10.9561M10.4218 11.0445C10.422 11.0446 10.4222 11.0447 10.4224 11.0448L10.4685 10.9561M10.4218 11.0445C10.4217 11.0445 10.4215 11.0444 10.4213 11.0443L10.4685 10.9561" fill="#FFDC55" stroke="#2A2968" stroke-width="0.2"/>
</svg>
