<svg xmlns="http://www.w3.org/2000/svg" width="26.077" height="26.063" viewBox="0 0 26.077 26.063">
  <g id="line" transform="translate(0)">
    <path id="Path_748" data-name="Path 748" d="M12.152,0c6.712,0,12.377,4.738,12.377,10.12,0,2.454-2.852,9.051-4.775,10.815-1.231,1.13-6.148,4.222-7.6,3.444-.777-.416.277-2.856.189-4.124-.016-.272.165-.763-.189-.763C5.441,19.492,0,15.128,0,9.746S5.441,0,12.152,0Z" transform="translate(0.963 0.963)" fill="#ffdc55"/>
    <path id="Path_743" data-name="Path 743" d="M-579.776-23.19c-.906-.128-1.775-.22-2.632-.379a13.637,13.637,0,0,1-4.7-1.827c-.354-.218-.458-.5-.3-.79a.552.552,0,0,1,.851-.159,12.719,12.719,0,0,0,4.418,1.7c.913.159,1.846.213,2.771.3.518.049.68.2.681.725q0,1.857,0,3.714v.379a8.421,8.421,0,0,0,3.266-.87,14,14,0,0,0,5.487-5.019,15.488,15.488,0,0,0,2.318-5.264,10.317,10.317,0,0,0-.163-5.808,8.74,8.74,0,0,0-2.428-3.565,12.739,12.739,0,0,0-7.364-3.2,13.994,13.994,0,0,0-8.158,1.44,9.865,9.865,0,0,0-4.785,4.888,7.525,7.525,0,0,0,.476,7.084,16.03,16.03,0,0,0,1.308,1.735.667.667,0,0,1,.2.679.554.554,0,0,1-.948.139,9.919,9.919,0,0,1-1.743-2.383,8.764,8.764,0,0,1-.527-7.152,9.631,9.631,0,0,1,2.619-3.927,13.825,13.825,0,0,1,8.2-3.606,15.248,15.248,0,0,1,7.6,1.054,11.77,11.77,0,0,1,6.075,5.271,9.588,9.588,0,0,1,1.049,4.967,15.54,15.54,0,0,1-2.276,7.4,16.459,16.459,0,0,1-4.295,4.92,10.634,10.634,0,0,1-6.229,2.352c-.611.017-.782-.161-.782-.786Q-579.777-21.184-579.776-23.19Z" transform="translate(592.265 44.452)" fill="#2a2968"/>
    <path id="Path_744" data-name="Path 744" d="M-537.44-4.819c0-.746,0-1.491,0-2.237a1.266,1.266,0,0,1,.06-.432.488.488,0,0,1,.541-.323.506.506,0,0,1,.475.418,1.3,1.3,0,0,1,.019.3c0,1.35,0,2.7,0,4.05,0,.307-.05.579-.379.681s-.551-.081-.728-.352c-.522-.8-1.054-1.587-1.583-2.378-.06-.09-.128-.175-.248-.336,0,.819,0,1.55,0,2.281,0,.552-.176.816-.545.819s-.552-.263-.552-.811c0-1.316,0-2.632,0-3.948,0-.318.047-.6.392-.708s.547.1.723.366c.579.88,1.168,1.754,1.753,2.629Z" transform="translate(552.863 16.636)" fill="#2a2968"/>
    <path id="Path_745" data-name="Path 745" d="M-514.854-4.539v1.11c.424,0,.839,0,1.253,0a2.606,2.606,0,0,1,.54.041.484.484,0,0,1,.385.5.494.494,0,0,1-.361.517,1.288,1.288,0,0,1-.368.05q-.9.007-1.8,0c-.569,0-.763-.194-.764-.753q0-2.008,0-4.016c0-.553.186-.738.732-.74.635,0,1.271,0,1.906,0,.409,0,.653.2.664.525s-.245.564-.661.569c-.5.006-1,0-1.518,0v1.1c.46,0,.911,0,1.361,0a1.937,1.937,0,0,1,.339.016.543.543,0,0,1,.476.57.525.525,0,0,1-.539.506C-513.745-4.529-514.277-4.539-514.854-4.539Z" transform="translate(534.333 16.643)" fill="#2a2968"/>
    <path id="Path_746" data-name="Path 746" d="M-569.824-3.406c.483,0,.913,0,1.343,0a2.765,2.765,0,0,1,.407.026.493.493,0,0,1,.447.517.5.5,0,0,1-.429.533,1.181,1.181,0,0,1-.235.032c-.647,0-1.295.009-1.942,0-.482-.007-.687-.214-.688-.691q-.007-2.078,0-4.157c0-.409.209-.647.54-.654.347-.007.547.231.556.664,0,.08,0,.159,0,.239v3.49Z" transform="translate(576.061 16.62)" fill="#2a2968"/>
    <path id="Path_747" data-name="Path 747" d="M-551.468-5.037c0,.681,0,1.362,0,2.043,0,.427-.209.68-.545.685s-.549-.245-.55-.673q0-2.077,0-4.153c0-.431.208-.671.555-.664s.537.249.54.686C-551.465-6.421-551.468-5.729-551.468-5.037Z" transform="translate(562.119 16.62)" fill="#2a2968"/>
  </g>
</svg>
