<?xml version="1.0" encoding="utf-8"?>
<!-- Generator: Adobe Illustrator 25.4.1, SVG Export Plug-In . SVG Version: 6.00 Build 0)  -->
<svg version="1.1" xmlns="http://www.w3.org/2000/svg" xmlns:xlink="http://www.w3.org/1999/xlink" x="0px" y="0px"
	 viewBox="0 0 12 12" style="enable-background:new 0 0 12 12;" xml:space="preserve">
<style type="text/css">
	.st0{display:none;}
	.st1{display:inline;fill:#A2A6BE;stroke:#A2A6BE;stroke-width:0.0902;}
	.st2{display:inline;fill:#FFDC55;}
	.st3{display:inline;fill:#FFFFFF;}
	.st4{fill:#A2A6BE;stroke:#A2A6BE;stroke-width:0.0902;}
	.st5{fill:#FFDC55;}
</style>
<g id="圖層_1" class="st0">
	<path id="Path_488" class="st1" d="M0.77,8.35c0.06-0.28,0.28-0.49,0.55-0.56c0.17-0.06,0.31-0.16,0.41-0.31
		c0.29-0.35,0.58-0.71,0.87-1.06C2.93,6.05,3.44,5.9,3.92,6.04c0.66,0.2,1.32,0.4,1.98,0.6c0.02,0,0.03,0.01,0.07,0.02
		c0-0.04,0.01-0.08,0.01-0.12c0-0.7,0-1.4,0-2.1c0-0.08-0.02-0.12-0.11-0.13C5.28,4.19,4.69,4.08,4.1,3.97
		C3.93,3.94,3.76,3.85,3.64,3.73C3.43,3.52,3.23,3.31,3.02,3.1c-0.17-0.17-0.26-0.4-0.26-0.64c0-0.11,0-0.21,0-0.32
		c-0.02-0.26,0.17-0.48,0.43-0.5c0.02,0,0.05,0,0.07,0c0.52,0,1.03-0.01,1.55,0c0.22,0.01,0.42-0.08,0.56-0.24
		c0.19-0.23,0.47-0.36,0.77-0.34c0.3,0,0.6,0,0.9,0c0.16,0,0.32-0.05,0.45-0.17C7.77,0.64,8.06,0.4,8.34,0.16h0.15
		c0.1,0.06,0.16,0.18,0.14,0.3c-0.01,0.13,0,0.27,0,0.4C8.6,1.19,8.64,1.52,8.74,1.84c0.01,0.04,0.02,0.09,0.02,0.14
		c-0.01,0.1-0.09,0.18-0.19,0.19C8.46,2.18,8.36,2.1,8.34,2C8.24,1.7,8.19,1.38,8.2,1.07c0.01-0.07,0-0.13,0-0.23
		C8.05,0.97,7.92,1.07,7.8,1.18c-0.21,0.2-0.5,0.31-0.79,0.3c-0.29-0.01-0.58,0-0.87,0C5.96,1.47,5.8,1.54,5.69,1.68
		c-0.21,0.26-0.53,0.4-0.86,0.38c-0.24-0.01-0.48,0-0.72,0H4c-0.1,0.53-0.17,0.6-0.7,0.7c0.02,0.02,0.03,0.05,0.05,0.06
		C3.54,3.02,3.72,3.22,3.92,3.4c0.08,0.07,0.17,0.12,0.27,0.15C4.85,3.68,5.51,3.8,6.17,3.93c0.17,0.03,0.22,0.1,0.22,0.27
		c0,0.9,0,1.79,0,2.69c0,0.22-0.12,0.31-0.33,0.25C5.59,6.99,5.12,6.84,4.64,6.7C4.61,6.69,4.57,6.68,4.52,6.67
		C4.49,6.9,4.46,7.12,4.43,7.34c0,0.07-0.01,0.14-0.03,0.21C4.36,7.66,4.4,7.71,4.5,7.75c0.5,0.22,1,0.46,1.51,0.69
		c0.12,0.04,0.2,0.16,0.18,0.29c-0.01,0.08,0,0.17,0,0.25c0.15,0,0.31,0.01,0.46,0.03C7,9.07,7.31,9.27,7.5,9.56
		c0.03,0.06,0.1,0.08,0.15,0.06c0.55-0.14,1.12,0.2,1.25,0.75c0.04,0.16,0.04,0.32,0.01,0.48c-0.01,0.12-0.11,0.21-0.23,0.2
		s-0.21-0.11-0.2-0.23c0-0.02,0.01-0.04,0.01-0.05c0.08-0.33-0.12-0.65-0.44-0.73C7.94,10,7.82,10.01,7.71,10.04
		c-0.21,0.07-0.43-0.02-0.54-0.21C6.99,9.53,6.64,9.36,6.28,9.41c-0.07,0.01-0.09,0.03-0.09,0.1c0,0.4,0,0.81,0,1.21
		c0,0.03,0,0.06,0,0.09C6.2,10.93,6.11,11.04,6,11.05c-0.01,0-0.01,0-0.02,0c-0.12,0-0.21-0.1-0.21-0.22c0-0.01,0-0.01,0-0.02
		c0-0.18,0-0.37,0-0.55c0-0.46,0-0.91,0-1.37c0.01-0.06-0.02-0.11-0.08-0.13C5.2,8.54,4.72,8.31,4.22,8.09
		c-0.41-0.2-0.89-0.14-1.23,0.16c-0.2,0.17-0.41,0.33-0.61,0.5c-0.26,0.2-0.57,0.32-0.9,0.36c-0.3,0.03-0.58-0.15-0.67-0.43
		C0.8,8.64,0.78,8.6,0.77,8.56L0.77,8.35z M3.26,6.48c0.15,0.35,0.3,0.69,0.46,1.03c0.07,0.05,0.16,0.07,0.25,0.04
		c0.01-0.01,0.01-0.02,0.01-0.04c0.04-0.32,0.09-0.64,0.13-0.97C3.83,6.45,3.56,6.34,3.26,6.48z M1.99,8.54L1.8,8.04
		c-0.16,0.07-0.31,0.14-0.46,0.2C1.23,8.28,1.17,8.39,1.2,8.51C1.22,8.62,1.33,8.7,1.44,8.68C1.62,8.65,1.8,8.59,1.99,8.54z
		 M2.91,6.74l-0.4,0.48C2.69,7.35,2.87,7.47,3.04,7.6C3.11,7.66,3.22,7.67,3.29,7.6L2.91,6.74z M2.22,7.53
		c-0.03,0.08-0.09,0.15-0.08,0.2C2.19,7.9,2.27,8.06,2.33,8.24L2.74,7.9L2.22,7.53z M3.55,2.06c-0.05,0-0.1,0-0.14,0
		C3.17,2.07,3.19,2.01,3.19,2.29C3.19,2.3,3.2,2.3,3.2,2.31C3.47,2.35,3.57,2.28,3.55,2.06z"/>
	<path id="Path_489" class="st1" d="M7.99,5.6c0.03-0.52,0.35-0.97,0.82-1.18C8.89,4.38,8.9,4.35,8.88,4.27
		c-0.04-0.14-0.07-0.29-0.1-0.43C8.74,3.73,8.79,3.61,8.9,3.57C9.02,3.53,9.14,3.59,9.18,3.7c0.01,0.01,0.01,0.03,0.01,0.04
		c0.19,0.8,0.4,1.6,0.57,2.41c0.14,0.7,0.43,1.35,0.86,1.92c0.33,0.43,0.62,0.89,0.93,1.33c0.02,0.02,0.03,0.05,0.05,0.07
		c0.08,0.09,0.08,0.22-0.01,0.3c-0.09,0.08-0.22,0.08-0.3-0.01c-0.01-0.02-0.03-0.03-0.04-0.05c-0.2-0.28-0.39-0.56-0.58-0.84
		c-0.21-0.3-0.44-0.6-0.64-0.92C9.88,7.73,9.76,7.48,9.63,7.24C9.62,7.18,9.56,7.14,9.5,7.15C8.67,7.18,7.99,6.54,7.99,5.6z
		 M9.46,6.72C9.31,6.08,9.16,5.44,9,4.8c-0.45,0.2-0.68,0.7-0.55,1.18C8.58,6.43,9.04,6.78,9.46,6.72z"/>
	<path id="Path_490" class="st1" d="M8.98,2.88c0,0.12-0.09,0.21-0.2,0.21c-0.12,0-0.22-0.1-0.22-0.21c0-0.12,0.1-0.21,0.21-0.21
		C8.88,2.67,8.98,2.76,8.98,2.88z"/>
	<path id="Path_491" class="st1" d="M6.42,2.2c0,0.12-0.09,0.21-0.21,0.21C6.1,2.41,6,2.32,6,2.2c0-0.12,0.09-0.21,0.21-0.21
		S6.42,2.08,6.42,2.2L6.42,2.2z"/>
	<path id="Path_492" class="st2" d="M3.26,6.48c0.31-0.13,0.57-0.02,0.85,0.07C4.06,6.87,4.02,7.19,3.98,7.52
		c0,0.01-0.01,0.03-0.01,0.04C3.88,7.58,3.78,7.56,3.71,7.51C3.56,7.17,3.41,6.83,3.26,6.48z"/>
	<path id="Path_493" class="st2" d="M1.99,8.54C1.8,8.59,1.62,8.65,1.44,8.68C1.33,8.7,1.22,8.62,1.2,8.51
		C1.18,8.39,1.24,8.28,1.34,8.24c0.15-0.06,0.3-0.13,0.46-0.2L1.99,8.54z"/>
	<path id="Path_494" class="st2" d="M2.91,6.74L3.29,7.6C3.22,7.67,3.11,7.66,3.04,7.6C2.87,7.47,2.69,7.35,2.51,7.22L2.91,6.74z"/>
	<path id="Path_495" class="st2" d="M2.22,7.53L2.74,7.9L2.33,8.24C2.26,8.06,2.19,7.9,2.14,7.73C2.13,7.68,2.19,7.61,2.22,7.53z"/>
	<path id="Path_456" class="st1" d="M3.04,9.64C3.06,9.58,3.08,9.52,3.1,9.46c0.08-0.17,0.19-0.34,0.32-0.48
		C3.46,8.93,3.54,8.92,3.6,8.96c0.01,0.01,0.02,0.01,0.02,0.02c0.13,0.15,0.24,0.32,0.33,0.5C4.04,9.65,4,9.86,3.87,10
		c-0.13,0.14-0.33,0.19-0.51,0.12C3.16,10.04,3.04,9.85,3.04,9.64z M3.52,9.11C3.41,9.25,3.31,9.4,3.24,9.56
		c-0.02,0.05-0.03,0.1-0.02,0.16c0.01,0.12,0.1,0.22,0.22,0.25c0.12,0.04,0.25,0,0.32-0.09c0.08-0.08,0.11-0.21,0.05-0.32
		C3.73,9.4,3.64,9.25,3.52,9.11L3.52,9.11z"/>
	<path id="Path_501" class="st1" d="M1.6,11.33c0.02-0.06,0.03-0.12,0.06-0.18c0.08-0.17,0.19-0.34,0.32-0.48
		c0.04-0.06,0.12-0.07,0.18-0.02c0.01,0.01,0.02,0.01,0.02,0.02c0.13,0.15,0.24,0.32,0.33,0.5c0.09,0.17,0.05,0.38-0.09,0.52
		c-0.13,0.14-0.33,0.19-0.51,0.12C1.72,11.73,1.59,11.54,1.6,11.33z M2.08,10.8c-0.12,0.14-0.21,0.29-0.29,0.45
		c-0.02,0.05-0.03,0.1-0.02,0.16c0.01,0.12,0.1,0.22,0.22,0.25c0.12,0.04,0.25,0,0.32-0.09c0.08-0.08,0.11-0.21,0.05-0.32
		C2.29,11.09,2.19,10.94,2.08,10.8L2.08,10.8z"/>
	<path id="Path_459" class="st2" d="M3.52,9.11C3.64,9.25,3.73,9.4,3.81,9.56c0.05,0.11,0.03,0.24-0.05,0.32
		c-0.08,0.09-0.21,0.13-0.32,0.09c-0.12-0.03-0.2-0.13-0.22-0.25c-0.01-0.05,0-0.11,0.02-0.16C3.31,9.4,3.41,9.25,3.52,9.11z"/>
	<path id="Path_502" class="st2" d="M2.08,10.8c0.11,0.14,0.21,0.29,0.29,0.45c0.05,0.11,0.03,0.24-0.05,0.32
		c-0.08,0.09-0.21,0.13-0.32,0.09c-0.12-0.03-0.2-0.13-0.22-0.25c-0.01-0.05,0-0.11,0.02-0.16C1.87,11.09,1.96,10.94,2.08,10.8z"/>
</g>
<g id="圖層_2" class="st0">
	<path id="Path_460" class="st3" d="M9.09,5.85l0.03,0C9.07,5.57,9.04,5.29,8.98,5.02C8.93,4.77,8.7,4.61,8.46,4.65
		C8.4,4.67,8.34,4.69,8.29,4.72C8.04,4.89,7.71,4.89,7.47,4.72c-0.31-0.2-0.71-0.2-1.02,0c-0.25,0.17-0.58,0.17-0.82,0
		C5.49,4.65,5.35,4.6,5.2,4.58C4.9,4.56,4.6,4.66,4.38,4.85c-0.13,0.1-0.16,0.29-0.06,0.43C4.36,5.36,4.42,5.43,4.48,5.5
		C4.7,5.77,4.9,6.04,5.09,6.33c0.53,0.92,0.2,2.18-0.64,2.62C4.19,9.09,4.1,9.42,4.25,9.68C4.28,9.74,4.33,9.8,4.38,9.84
		c0.41,0.37,1,0.46,1.49,0.22C7.03,9.56,7.98,8.7,8.58,7.6C8.91,7.08,9.08,6.47,9.09,5.85z M9.83,5.85c0-0.51-0.1-1.02-0.3-1.49
		C9.07,3.29,8.32,2.59,7.12,2.45C6.97,2.43,6.88,2.48,6.87,2.59C6.85,2.7,6.93,2.77,7.07,2.78C7.71,2.83,8.29,3.14,8.7,3.63
		c0.65,0.78,0.92,1.81,0.73,2.81C9.32,7.03,9.09,7.58,8.76,8.07C8.5,8.48,8.2,8.86,7.85,9.2C7.77,9.25,7.74,9.35,7.79,9.44
		c0.06,0.11,0.19,0.11,0.3,0c0.58-0.56,1.05-1.23,1.38-1.97C9.7,6.96,9.82,6.41,9.83,5.85L9.83,5.85z M3.31,6.37
		c-0.09,0.2-0.17,0.39-0.25,0.57C3,7.06,3.03,7.16,3.13,7.2c0.1,0.04,0.18,0,0.24-0.12c0.08-0.17,0.16-0.35,0.23-0.52
		c0.1-0.18,0.03-0.41-0.16-0.51C3.41,6.04,3.38,6.03,3.36,6.02C3.2,5.97,3.04,5.91,2.88,5.86C2.79,5.84,2.78,5.8,2.8,5.71
		c0.06-0.22,0.11-0.45,0.15-0.68C3,4.86,2.9,4.67,2.73,4.61C2.64,4.57,2.54,4.53,2.44,4.49C2.37,4.47,2.36,4.43,2.38,4.36
		c0.08-0.23,0.16-0.47,0.24-0.7c0.04-0.09-0.01-0.19-0.09-0.23c0,0-0.01,0-0.02-0.01C2.42,3.4,2.33,3.45,2.3,3.54c0,0,0,0,0,0.01
		C2.21,3.8,2.12,4.06,2.04,4.32c-0.06,0.19,0.04,0.4,0.23,0.46C2.34,4.82,2.42,4.85,2.5,4.88c0.1,0.03,0.14,0.08,0.1,0.19
		C2.55,5.26,2.51,5.45,2.47,5.64C2.4,5.94,2.48,6.09,2.77,6.19C2.95,6.24,3.12,6.3,3.31,6.37L3.31,6.37z M4.71,1.28L4.71,1.28
		c0,0.29,0,0.58,0,0.87c0.01,0.48,0.4,0.87,0.89,0.87c0.04,0,0.07,0,0.11-0.01c0.21-0.04,0.41-0.1,0.61-0.18
		c0.08-0.02,0.12-0.11,0.1-0.19c0-0.01,0-0.01-0.01-0.02C6.38,2.54,6.3,2.49,6.21,2.51c0,0-0.01,0-0.01,0
		C6.09,2.54,5.97,2.58,5.86,2.62C5.58,2.76,5.25,2.65,5.11,2.38c-0.05-0.1-0.07-0.21-0.06-0.31c0-0.56,0-1.12,0-1.68
		c0-0.14-0.07-0.22-0.18-0.22c-0.1,0-0.16,0.08-0.16,0.22C4.71,0.69,4.71,0.98,4.71,1.28L4.71,1.28z"/>
	<path id="Path_461" class="st1" d="M1.46,11.87c-0.08-0.06-0.12-0.15-0.11-0.25c0-0.63,0-1.26,0-1.89
		C1.34,9.11,1.77,8.55,2.39,8.41C2.5,8.39,2.6,8.38,2.71,8.38c0.3,0,0.61-0.01,0.91,0C4.2,8.41,4.47,8.05,4.57,7.61
		c0.1-0.41,0-0.85-0.27-1.17C4.15,6.26,4,6.08,3.86,5.9C3.39,5.33,3.14,4.61,3.14,3.88c0-1.15,0-2.31,0-3.46c0-0.03,0-0.07,0.01-0.1
		c0.01-0.08,0.09-0.15,0.17-0.14c0.08,0,0.16,0.06,0.16,0.15c0,0.05,0.01,0.09,0,0.14c0,1.1,0.01,2.21,0,3.31
		c-0.02,0.73,0.23,1.44,0.71,2C4.33,5.94,4.48,6.11,4.6,6.29c0.42,0.53,0.46,1.26,0.13,1.85C4.55,8.5,4.18,8.72,3.77,8.72
		c-0.35,0.01-0.7,0-1.05,0c-0.54-0.03-1,0.39-1.02,0.93c0,0.03,0,0.06,0,0.09c0,0.63,0,1.26,0,1.9c0.01,0.1-0.04,0.19-0.12,0.24
		L1.46,11.87z"/>
	<path id="Path_462" class="st1" d="M2.84,11.87c-0.08-0.05-0.13-0.14-0.12-0.24c0-0.45,0-0.9,0-1.35c-0.02-0.26,0.13-0.5,0.36-0.6
		c0.23-0.11,0.51-0.06,0.68,0.13c0.18,0.17,0.36,0.33,0.56,0.47c0.5,0.33,1.13,0.39,1.68,0.14c0.4-0.17,0.77-0.38,1.12-0.63
		c0.03-0.02,0.06-0.04,0.08-0.06C7.29,9.68,7.4,9.69,7.46,9.77c0,0,0,0,0,0C7.52,9.84,7.51,9.94,7.44,10
		C7.43,10,7.42,10.01,7.41,10.01c-0.32,0.2-0.64,0.4-0.97,0.58c-0.27,0.16-0.57,0.26-0.88,0.3c-0.58,0.08-1.16-0.09-1.61-0.46
		c-0.14-0.11-0.28-0.24-0.41-0.36c-0.08-0.09-0.21-0.12-0.32-0.07c-0.11,0.05-0.17,0.16-0.15,0.28c0,0.45,0,0.9,0,1.35
		c0.01,0.1-0.03,0.19-0.12,0.24L2.84,11.87z"/>
	<path id="Path_463" class="st1" d="M11.35,6.3c-0.15,0.2-0.3,0.41-0.45,0.61c-0.06,0.05-0.07,0.14-0.03,0.21
		c0.06,0.13,0.12,0.25,0.17,0.39c0.06,0.13,0.03,0.29-0.08,0.38c-0.22,0.2-0.45,0.4-0.68,0.59c-0.06,0.07-0.17,0.08-0.24,0.02
		c-0.01-0.01-0.02-0.02-0.02-0.02c-0.06-0.08-0.05-0.19,0.03-0.25c0.01,0,0.01-0.01,0.02-0.01c0.2-0.17,0.4-0.35,0.6-0.51
		c0.05-0.03,0.07-0.1,0.04-0.15c0,0,0,0,0,0c-0.06-0.12-0.11-0.24-0.16-0.36c-0.08-0.14-0.06-0.31,0.05-0.42
		c0.13-0.14,0.24-0.29,0.37-0.44c0.04-0.04,0.05-0.1,0.01-0.14c0,0,0-0.01-0.01-0.01c-0.1-0.14-0.2-0.29-0.3-0.43
		c-0.09-0.12-0.1-0.28-0.02-0.41c0.08-0.13,0.15-0.27,0.23-0.41c0.04-0.04,0.03-0.11-0.01-0.14c0,0,0,0-0.01-0.01
		c-0.15-0.15-0.29-0.3-0.44-0.45c-0.12-0.1-0.16-0.26-0.1-0.4c0.06-0.17,0.11-0.34,0.16-0.51c0.04-0.12,0.12-0.18,0.22-0.15
		c0.09,0.02,0.15,0.12,0.13,0.21c0,0.01-0.01,0.02-0.01,0.03c-0.03,0.14-0.08,0.29-0.13,0.42c-0.05,0.09-0.02,0.2,0.06,0.25
		c0.14,0.13,0.27,0.27,0.41,0.42c0.13,0.11,0.15,0.3,0.05,0.44c-0.08,0.14-0.15,0.28-0.24,0.42c-0.04,0.05-0.03,0.11,0.01,0.15
		c0.08,0.1,0.15,0.21,0.22,0.32c0.06,0.09,0.11,0.19,0.16,0.28L11.35,6.3z"/>
	<path id="Path_464" class="st1" d="M8.63,6.25C8.62,6.72,8.49,7.18,8.24,7.58C7.78,8.42,7.06,9.07,6.18,9.45
		C5.81,9.63,5.36,9.57,5.05,9.28c-0.18-0.14-0.21-0.4-0.07-0.57C5.01,8.67,5.05,8.63,5.1,8.6c0.63-0.34,0.88-1.29,0.48-1.99
		C5.44,6.4,5.29,6.19,5.12,5.99C5.08,5.93,5.03,5.88,4.99,5.82c-0.08-0.1-0.05-0.25,0.05-0.33c0.17-0.15,0.4-0.22,0.63-0.21
		C5.78,5.3,5.89,5.34,5.99,5.39c0.19,0.13,0.44,0.13,0.63,0c0.23-0.16,0.54-0.16,0.77,0c0.19,0.13,0.44,0.13,0.63,0
		c0.16-0.1,0.37-0.06,0.47,0.1c0.03,0.04,0.04,0.08,0.05,0.13C8.59,5.82,8.62,6.04,8.63,6.25z M5.2,5.67
		c0.15,0.19,0.28,0.35,0.41,0.51c0.26,0.31,0.41,0.7,0.42,1.11c0.01,0.64-0.21,1.17-0.78,1.52C5.17,8.85,5.13,8.94,5.17,9.03
		C5.18,9.06,5.21,9.08,5.23,9.1C5.47,9.3,5.8,9.34,6.07,9.21C6.96,8.83,7.68,8.15,8.1,7.29c0.26-0.48,0.33-1.04,0.2-1.57
		C8.27,5.59,8.22,5.58,8.11,5.63c-0.08,0.04-0.17,0.08-0.26,0.1c-0.2,0.04-0.4,0-0.56-0.11c-0.17-0.12-0.39-0.12-0.56,0
		c-0.26,0.18-0.6,0.18-0.86,0c-0.09-0.07-0.2-0.09-0.31-0.07C5.44,5.58,5.32,5.62,5.2,5.67z"/>
	<path id="Path_465" class="st1" d="M9.83,5.85c0,0.56-0.13,1.11-0.36,1.63c-0.33,0.74-0.8,1.41-1.38,1.97
		c-0.11,0.11-0.24,0.1-0.3,0C7.74,9.36,7.77,9.25,7.85,9.2C8.2,8.86,8.5,8.48,8.76,8.07c0.33-0.49,0.56-1.04,0.67-1.62
		c0.18-1-0.08-2.03-0.73-2.81c-0.4-0.49-0.99-0.8-1.63-0.85C6.93,2.77,6.85,2.7,6.87,2.59c0.01-0.11,0.11-0.16,0.25-0.15
		c1.2,0.14,1.95,0.84,2.41,1.91C9.72,4.83,9.83,5.34,9.83,5.85z"/>
	<path id="Path_466" class="st1" d="M2.64,6.37C2.45,6.3,2.28,6.25,2.11,6.19c-0.29-0.1-0.37-0.25-0.31-0.55
		c0.04-0.19,0.08-0.38,0.13-0.57c0.03-0.11,0-0.16-0.1-0.19C1.75,4.85,1.68,4.82,1.6,4.79C1.41,4.72,1.31,4.52,1.37,4.32
		C1.46,4.06,1.55,3.8,1.64,3.55C1.66,3.46,1.75,3.4,1.84,3.42c0,0,0,0,0.01,0c0.09,0.03,0.14,0.12,0.11,0.22
		c0,0.01,0,0.01-0.01,0.02C1.88,3.89,1.8,4.13,1.72,4.36C1.69,4.43,1.7,4.47,1.78,4.5c0.1,0.03,0.19,0.07,0.29,0.11
		c0.17,0.07,0.27,0.25,0.22,0.43c-0.05,0.23-0.1,0.45-0.15,0.68C2.12,5.8,2.13,5.84,2.22,5.86c0.16,0.05,0.32,0.1,0.48,0.16
		c0.2,0.05,0.32,0.26,0.27,0.46C2.95,6.51,2.94,6.54,2.93,6.56C2.86,6.74,2.78,6.91,2.7,7.08C2.65,7.2,2.56,7.24,2.46,7.2
		c-0.1-0.04-0.13-0.14-0.08-0.26C2.47,6.76,2.55,6.57,2.64,6.37z"/>
	<path id="Path_467" class="st1" d="M4.71,1.28c0-0.3,0-0.59,0-0.89c0-0.14,0.06-0.21,0.16-0.22c0.11,0,0.18,0.08,0.18,0.22
		c0,0.56,0,1.12,0,1.68c-0.03,0.3,0.19,0.58,0.49,0.61c0.11,0.01,0.22-0.01,0.31-0.06C5.97,2.58,6.09,2.54,6.2,2.51
		c0.08-0.03,0.17,0.02,0.19,0.1c0,0,0,0.01,0,0.01c0.04,0.07,0,0.16-0.07,0.2c-0.01,0-0.01,0.01-0.02,0.01
		c-0.2,0.08-0.4,0.14-0.61,0.18C5.22,3.07,4.78,2.73,4.72,2.25c0-0.03-0.01-0.07-0.01-0.11C4.7,1.86,4.71,1.57,4.71,1.28L4.71,1.28z
		"/>
	<path id="Path_468" class="st2" d="M5.2,5.67c0.12-0.05,0.24-0.09,0.36-0.12c0.11-0.02,0.22,0.01,0.31,0.07
		c0.26,0.18,0.6,0.18,0.86,0c0.17-0.11,0.39-0.11,0.56,0c0.16,0.11,0.37,0.15,0.56,0.11c0.09-0.02,0.17-0.06,0.26-0.1
		C8.22,5.58,8.27,5.59,8.3,5.72c0.13,0.53,0.06,1.09-0.2,1.57C7.68,8.15,6.96,8.83,6.07,9.21C5.8,9.34,5.47,9.3,5.23,9.1
		c-0.08-0.05-0.1-0.15-0.05-0.23C5.2,8.85,5.22,8.82,5.25,8.81c0.57-0.35,0.79-0.88,0.78-1.52c-0.01-0.41-0.16-0.8-0.42-1.11
		C5.48,6.02,5.35,5.86,5.2,5.67z"/>
	<path id="Path_469" class="st1" d="M6.3,6.36c0-0.14,0.06-0.22,0.17-0.22s0.17,0.08,0.17,0.22c0,0.15-0.05,0.22-0.15,0.23
		C6.38,6.61,6.3,6.52,6.3,6.36z"/>
	<path id="Path_470" class="st1" d="M6.07,8.31c0-0.14,0.06-0.22,0.16-0.23c0.11,0,0.18,0.08,0.18,0.23c0,0.15-0.07,0.23-0.18,0.23
		C6.13,8.53,6.07,8.45,6.07,8.31z"/>
	<path id="Path_471" class="st1" d="M7.19,7.41c0,0.14-0.06,0.22-0.17,0.22c-0.11,0-0.16-0.08-0.17-0.22C6.83,7.2,7,7.13,7.1,7.2
		C7.15,7.25,7.19,7.33,7.19,7.41z"/>
	<path id="Path_472" class="st1" d="M7.52,6.54c0-0.1,0.02-0.2,0.14-0.22c0.05-0.01,0.15,0.02,0.16,0.06
		c0.03,0.09,0.03,0.2,0.02,0.29c-0.01,0.04-0.1,0.08-0.15,0.09C7.58,6.77,7.52,6.68,7.52,6.54z"/>
</g>
<g id="圖層_4">
	<path id="Path_473" class="st4" d="M11.44,2.9c-0.07,0.32-0.25,0.61-0.51,0.8c-0.4,0.31-0.96,0.32-1.37,0.02
		C9.4,3.88,9.24,4.04,9.08,4.2C9.06,4.22,9.07,4.27,9.08,4.3c0.07,0.21,0.16,0.41,0.22,0.61c0.03,0.1-0.03,0.21-0.13,0.24
		C9.07,5.2,8.95,5.14,8.91,5.04C8.89,5,8.88,4.95,8.87,4.91C8.77,4.57,8.6,4.26,8.38,3.98C7.93,3.41,7.28,3.04,6.56,2.95
		c-1-0.17-2.02,0.17-2.72,0.91C3.4,4.33,3.13,4.93,3.06,5.56c-0.07,0.34-0.07,0.69,0,1.03c0.07,0.22,0.16,0.43,0.26,0.63
		c0.14,0.24,0.23,0.5,0.27,0.77C3.6,8.07,3.61,8.14,3.61,8.22c0.01,0.16,0.07,0.22,0.23,0.22c0.08,0,0.16,0,0.23,0.01
		c0.19,0,0.35,0.13,0.39,0.32C4.48,8.84,4.51,8.92,4.55,9c0.11,0.18,0.18,0.21,0.41,0.19c0-0.12,0-0.24,0-0.36c0-0.05,0-0.09,0-0.14
		c0.01-0.11,0.1-0.2,0.21-0.2c0.11,0,0.21,0.09,0.21,0.2c0,0,0,0,0,0c0,0.16,0,0.32,0,0.49h0.42V8.84c0-0.04,0-0.08,0-0.13
		c0-0.12,0.09-0.22,0.2-0.22c0,0,0,0,0,0c0.12,0,0.21,0.09,0.21,0.21c0,0,0,0.01,0,0.01c0,0.16,0,0.32,0,0.48h0.42
		c0-0.15,0-0.29,0-0.44c0-0.17,0.08-0.26,0.21-0.26c0.13,0,0.21,0.1,0.22,0.27c0,0.14,0,0.28,0,0.42c0.26,0.06,0.41-0.07,0.47-0.32
		C7.58,8.6,7.81,8.41,8.06,8.43c0.01,0,0.02,0,0.04,0c0.03,0,0.06,0,0.1,0c0.17,0,0.23-0.06,0.23-0.23c0-0.32,0.08-0.62,0.23-0.9
		c0.09-0.17,0.17-0.35,0.26-0.52c0.04-0.11,0.16-0.16,0.27-0.12c0,0,0,0,0.01,0c0.1,0.04,0.16,0.16,0.11,0.27c0,0,0,0.01,0,0.01
		c-0.09,0.2-0.19,0.39-0.28,0.59C8.92,7.75,8.92,7.75,9.08,7.91C9.24,8.07,9.4,8.23,9.56,8.39c0.18-0.14,0.4-0.22,0.63-0.22
		c0.58,0.01,1.08,0.4,1.23,0.96c0.01,0.03,0.02,0.05,0.02,0.08v0.28c-0.01,0.02-0.01,0.03-0.02,0.05c-0.08,0.47-0.43,0.85-0.89,0.95
		c-0.04,0.02-0.07,0.05-0.08,0.09c-0.09,0.37-0.35,0.67-0.71,0.81c-0.1,0.03-0.19,0.06-0.29,0.09H9.18
		c-0.01-0.01-0.03-0.01-0.04-0.02c-0.48-0.1-0.85-0.46-0.97-0.93c-0.1-0.32-0.03-0.66,0.17-0.92L7.9,9.16
		C7.89,9.17,7.88,9.18,7.87,9.19C7.72,9.49,7.4,9.66,7.06,9.62c-0.43-0.01-0.86,0-1.29,0c-0.33,0-0.66,0-0.98-0.01
		c-0.22,0-0.42-0.11-0.54-0.29c-0.04-0.05-0.08-0.11-0.1-0.15L3.7,9.61c0.28,0.4,0.27,0.94-0.02,1.33
		c-0.19,0.27-0.48,0.46-0.81,0.53H2.59c-0.01-0.01-0.03-0.01-0.04-0.02c-0.48-0.07-0.86-0.43-0.96-0.9
		c-0.02-0.04-0.06-0.07-0.1-0.08C0.98,10.35,0.62,9.9,0.6,9.37c0.02-0.54,0.38-1.01,0.91-1.16c0.34-0.1,0.7-0.04,0.98,0.18
		C2.68,8.19,2.88,8,3.07,7.8c0.02-0.03,0.02-0.07,0.01-0.11C3.02,7.56,2.95,7.43,2.88,7.3C2.74,7.06,2.65,6.8,2.61,6.52
		C2.53,5.77,2.67,5.01,3,4.34c0.01-0.02,0.02-0.05,0.02-0.05L2.47,3.73C2.09,4,1.59,4.01,1.2,3.76C0.8,3.49,0.55,3.13,0.61,2.63
		c0.05-0.5,0.41-0.91,0.9-1.01c0.04-0.02,0.07-0.06,0.08-0.1c0.15-0.55,0.67-0.93,1.24-0.88C3.42,0.73,3.86,1.21,3.9,1.8
		c0.02,0.26-0.06,0.51-0.23,0.72c0.09,0.09,0.18,0.17,0.27,0.26s0.16,0.17,0.23,0.25c1.25-0.7,2.48-0.72,3.7-0.06l0.47-0.47
		C8.07,2.11,8.06,1.61,8.32,1.22c0.27-0.4,0.63-0.65,1.13-0.58c0.49,0.05,0.89,0.41,1,0.9c0.02,0.04,0.05,0.07,0.09,0.08
		c0.34,0.08,0.62,0.3,0.77,0.61c0.05,0.13,0.1,0.26,0.13,0.39L11.44,2.9z M3.84,3.26C3.65,3.08,3.46,2.89,3.28,2.7
		c-0.14-0.14-0.14-0.25,0-0.39c0.09-0.08,0.16-0.18,0.18-0.3c0.06-0.3-0.06-0.61-0.31-0.79C2.89,0.99,2.49,1,2.24,1.24
		C2.08,1.38,1.99,1.59,1.98,1.8c0,0.11-0.08,0.21-0.19,0.21c0,0-0.01,0-0.01,0c-0.03,0-0.07,0.01-0.11,0.01
		C1.4,2.06,1.16,2.24,1.07,2.5C0.97,2.75,1.03,3.04,1.22,3.22c0.07,0.07,0.15,0.13,0.23,0.19C1.72,3.58,2.08,3.54,2.3,3.3
		c0.06-0.1,0.19-0.13,0.29-0.07c0.02,0.02,0.04,0.03,0.06,0.06C2.7,3.34,2.74,3.38,2.79,3.43l0.46,0.46L3.84,3.26z M8.84,3.84
		C9.01,3.67,9.19,3.48,9.37,3.3c0.14-0.14,0.24-0.13,0.38,0c0.08,0.08,0.19,0.15,0.3,0.18c0.3,0.07,0.61-0.04,0.79-0.29
		c0.24-0.27,0.24-0.68-0.02-0.93c-0.14-0.16-0.34-0.25-0.55-0.25C10.13,2,10.08,1.94,10.06,1.8c0-0.03-0.01-0.07-0.01-0.11
		C10,1.31,9.66,1.04,9.28,1.06C8.99,1.09,8.74,1.28,8.63,1.54C8.5,1.8,8.55,2.12,8.76,2.32C8.91,2.44,8.91,2.56,8.77,2.7
		C8.59,2.87,8.42,3.05,8.25,3.21L8.84,3.84z M8.23,8.87C8.42,9.06,8.59,9.23,8.76,9.4c0.14,0.14,0.13,0.24,0,0.39
		c-0.08,0.08-0.14,0.18-0.18,0.29c-0.08,0.34,0.08,0.69,0.39,0.86c0.16,0.11,0.37,0.14,0.56,0.07c0.29-0.08,0.49-0.33,0.52-0.63
		c0.04-0.26,0.05-0.27,0.31-0.31c0.01,0,0.02,0,0.03,0c0.26-0.04,0.49-0.22,0.58-0.47c0.11-0.24,0.05-0.51-0.13-0.7
		c-0.11-0.12-0.24-0.21-0.39-0.28c-0.22-0.1-0.48-0.05-0.65,0.12C9.58,8.96,9.53,8.96,9.32,8.74C9.19,8.61,9.06,8.49,8.93,8.36
		C8.91,8.34,8.89,8.32,8.86,8.29C8.83,8.62,8.56,8.87,8.23,8.87L8.23,8.87z M3.18,8.28c-0.17,0.17-0.33,0.34-0.5,0.5
		s-0.25,0.15-0.41,0C2.19,8.71,2.1,8.65,1.99,8.62C1.68,8.54,1.35,8.67,1.17,8.95C1,9.15,0.97,9.44,1.1,9.67
		c0.12,0.25,0.38,0.42,0.66,0.42c0.15,0.01,0.21,0.07,0.22,0.22c0,0.04,0.01,0.08,0.01,0.13c0.07,0.4,0.44,0.66,0.84,0.6
		c0.05-0.01,0.1-0.02,0.15-0.04c0.24-0.1,0.41-0.31,0.48-0.56C3.53,10.2,3.47,9.96,3.29,9.8c-0.16-0.15-0.16-0.25,0-0.41
		c0.17-0.17,0.34-0.34,0.52-0.52C3.48,8.87,3.21,8.61,3.18,8.28L3.18,8.28z"/>
	<path id="Path_474" class="st4" d="M4.64,6.73c-0.57,0-1.03-0.47-1.03-1.04c0-0.06,0.01-0.12,0.02-0.18
		c0.05-0.3,0.31-0.52,0.62-0.52c0.24,0,0.49,0,0.73,0c0.37-0.02,0.69,0.26,0.71,0.63c0,0.03,0,0.07,0,0.1
		C5.66,6.29,5.2,6.73,4.64,6.73z M4.62,5.42c-0.11,0-0.23,0-0.34,0c-0.16,0-0.24,0.06-0.25,0.22C4.01,5.86,4.11,6.08,4.3,6.2
		c0.19,0.14,0.45,0.15,0.65,0.02c0.2-0.11,0.32-0.32,0.3-0.54c0.01-0.14-0.09-0.25-0.23-0.26c-0.01,0-0.03,0-0.04,0
		C4.86,5.41,4.74,5.41,4.62,5.42L4.62,5.42z"/>
	<path id="Path_475" class="st4" d="M7.39,6.73c-0.57,0-1.03-0.47-1.03-1.04c0-0.06,0.01-0.13,0.02-0.19C6.43,5.2,6.69,4.99,7,4.99
		c0.24,0,0.49,0,0.73,0C8.1,4.97,8.41,5.25,8.44,5.63c0,0.04,0,0.07,0,0.11C8.41,6.29,7.95,6.73,7.39,6.73z M7.38,5.42
		c-0.12,0-0.23,0-0.35,0c-0.15,0-0.22,0.05-0.24,0.21C6.76,5.85,6.86,6.07,7.05,6.2C7.24,6.34,7.5,6.35,7.7,6.22
		C7.9,6.11,8.02,5.9,8.01,5.67c0.01-0.13-0.1-0.25-0.23-0.25c-0.01,0-0.02,0-0.03,0C7.62,5.41,7.5,5.41,7.38,5.42L7.38,5.42z"/>
	<path id="Path_476" class="st4" d="M6.03,7.98c-0.13,0-0.25,0.01-0.38,0c-0.2,0-0.37-0.16-0.37-0.36c0-0.04,0.01-0.08,0.02-0.12
		c0.02-0.07,0.05-0.14,0.09-0.2C5.5,7.1,5.63,6.91,5.75,6.72c0.17-0.25,0.39-0.25,0.56,0C6.44,6.91,6.56,7.1,6.68,7.3
		C6.72,7.36,6.75,7.43,6.77,7.5c0.06,0.19-0.04,0.4-0.23,0.46C6.5,7.97,6.45,7.98,6.41,7.98C6.29,7.98,6.16,7.98,6.03,7.98z
		 M6.03,7.06L5.72,7.55h0.62L6.03,7.06z"/>
	<path id="Path_477" class="st4" d="M9.24,6.12c-0.12,0-0.21-0.09-0.21-0.2c0,0,0-0.01,0-0.01c0-0.11,0.09-0.21,0.21-0.21
		c0.12,0,0.21,0.09,0.21,0.21c0,0,0,0,0,0C9.45,6.03,9.36,6.12,9.24,6.12z"/>
	<path id="Path_478" class="st5" d="M3.84,3.26L3.25,3.89L2.79,3.43C2.75,3.38,2.7,3.34,2.66,3.29c-0.07-0.1-0.2-0.12-0.3-0.05
		C2.34,3.25,2.32,3.28,2.3,3.3C2.08,3.54,1.73,3.58,1.45,3.41C1.37,3.35,1.29,3.29,1.23,3.22C1.03,3.04,0.97,2.75,1.07,2.5
		c0.09-0.26,0.32-0.44,0.6-0.48C1.7,2.02,1.74,2.02,1.78,2.01c0.11,0,0.2-0.08,0.21-0.2c0,0,0-0.01,0-0.01
		c0.01-0.21,0.1-0.42,0.26-0.56C2.49,1,2.89,0.99,3.16,1.22C3.41,1.4,3.53,1.71,3.46,2.02c-0.03,0.12-0.09,0.22-0.18,0.3
		c-0.14,0.14-0.15,0.24,0,0.39C3.46,2.89,3.65,3.08,3.84,3.26z"/>
	<path id="Path_479" class="st5" d="M8.84,3.84L8.25,3.21C8.42,3.05,8.59,2.87,8.77,2.7c0.14-0.14,0.14-0.25-0.01-0.38
		C8.55,2.12,8.5,1.8,8.63,1.54c0.11-0.27,0.36-0.45,0.65-0.49C9.66,1.04,10,1.31,10.05,1.69c0,0.03,0.01,0.07,0.01,0.11
		c0.02,0.14,0.07,0.2,0.21,0.21c0.21,0.01,0.41,0.1,0.55,0.25c0.25,0.26,0.26,0.67,0.02,0.93c-0.18,0.25-0.49,0.37-0.79,0.29
		c-0.11-0.04-0.21-0.1-0.3-0.18c-0.14-0.13-0.24-0.14-0.38,0C9.19,3.48,9.01,3.67,8.84,3.84z"/>
	<path id="Path_480" class="st5" d="M8.23,8.87c0.33,0,0.6-0.25,0.63-0.58c0.03,0.03,0.05,0.05,0.08,0.07
		c0.13,0.13,0.25,0.25,0.38,0.38C9.53,8.96,9.58,8.96,9.8,8.75c0.17-0.17,0.43-0.21,0.65-0.12c0.15,0.06,0.28,0.16,0.39,0.28
		c0.19,0.18,0.24,0.46,0.13,0.7c-0.09,0.25-0.31,0.43-0.58,0.47c-0.01,0-0.02,0-0.03,0c-0.26,0.03-0.27,0.05-0.31,0.31
		c-0.03,0.3-0.24,0.55-0.52,0.63c-0.19,0.07-0.39,0.04-0.56-0.07c-0.31-0.17-0.46-0.52-0.39-0.86c0.04-0.11,0.1-0.21,0.18-0.29
		c0.13-0.15,0.14-0.25,0-0.39C8.59,9.23,8.42,9.06,8.23,8.87z"/>
	<path id="Path_481" class="st5" d="M3.18,8.28c0.03,0.33,0.3,0.58,0.63,0.59C3.63,9.05,3.46,9.22,3.29,9.39
		c-0.16,0.16-0.16,0.26,0,0.41c0.17,0.16,0.24,0.41,0.17,0.63c-0.06,0.25-0.24,0.46-0.48,0.56c-0.37,0.15-0.79-0.03-0.94-0.4
		c-0.02-0.05-0.03-0.1-0.04-0.15c-0.01-0.04-0.01-0.08-0.01-0.13c-0.02-0.15-0.07-0.21-0.22-0.22c-0.28,0-0.54-0.17-0.66-0.42
		C0.97,9.44,1,9.15,1.17,8.94c0.17-0.27,0.5-0.41,0.82-0.33c0.11,0.03,0.2,0.09,0.28,0.17c0.16,0.15,0.25,0.16,0.41,0
		C2.84,8.62,3.01,8.46,3.18,8.28z"/>
</g>
<g id="圖層_3">
	<rect x="-8.33" y="4.26" class="st4" width="1.74" height="1.54"/>
</g>
</svg>
