<?xml version="1.0" encoding="utf-8"?>
<!-- Generator: Adobe Illustrator 26.0.2, SVG Export Plug-In . SVG Version: 6.00 Build 0)  -->
<svg version="1.1" xmlns="http://www.w3.org/2000/svg" xmlns:xlink="http://www.w3.org/1999/xlink" x="0px" y="0px"
	 viewBox="0 0 140 140" style="enable-background:new 0 0 140 140;" xml:space="preserve">
<style type="text/css">
	.st0{display:none;}
	.st1{display:inline;fill:#2A2968;}
	.st2{display:inline;fill:#FFDC55;}
	.st3{fill:#FF5809;}
	.st4{fill:#FFFFFF;}
	.st5{fill:#F2E600;}
</style>
<g id="圖層_1" class="st0">
	<path class="st1" d="M91.1,15.9c1,0,2,0,3,0c3.4,0.6,5.8,2.8,8.1,5.2c5.5,5.6,11.1,11.2,16.7,16.7c2.4,2.3,4.6,4.7,5.2,8.2
		c0,1,0,2,0,3c-0.6,3.4-2.7,5.8-5.1,8.1c-4.1,4-8.1,8.1-12.2,12.2c-0.3,0.3-0.5,0.5-0.8,0.9c0.3,0.3,0.6,0.6,0.8,0.9
		c4.1,4.1,8.1,8.2,12.3,12.2c2.4,2.3,4.5,4.7,5.1,8.1c0,1,0,2,0,3c-0.7,3.4-2.9,5.8-5.3,8.2c-5.7,5.6-11.4,11.3-17,17
		c-2.3,2.3-4.7,4.3-8,4.8c-0.9,0-1.8,0-2.7,0c-3.4-0.6-5.8-2.7-8.1-5.1c-4-4.1-8.1-8.1-12.2-12.2c-0.3-0.3-0.5-0.5-0.9-0.8
		c-0.3,0.3-0.6,0.6-0.9,0.8c-4.1,4.1-8.2,8.1-12.2,12.2c-2.3,2.4-4.7,4.6-8.1,5.2c-0.9,0-1.8,0-2.7,0c-3.4-0.5-5.8-2.6-8.1-5
		c-5.6-5.7-11.2-11.3-16.9-16.9c-2.4-2.3-4.6-4.7-5.3-8.2c0-1,0-2,0-3c0.6-3.4,2.7-5.8,5.1-8c4.1-4,8.2-8.1,12.3-12.2
		c0.3-0.3,0.5-0.5,0.8-0.9c-0.3-0.3-0.6-0.6-0.8-0.9C29.1,65.1,25.1,61,21,57c-2.4-2.3-4.5-4.7-5.1-8.1c0-0.9,0-1.8,0-2.7
		c0.5-3.4,2.7-5.8,5.1-8.2c5.7-5.5,11.3-11.2,16.8-16.8c2.3-2.4,4.7-4.6,8.2-5.3c1,0,2,0,3,0c3.3,0.6,5.7,2.6,8,5
		c4,4.2,8.2,8.2,12.3,12.3c0.3,0.3,0.5,0.5,0.9,0.8c0.3-0.3,0.5-0.5,0.8-0.7c4.1-4.1,8.3-8.2,12.3-12.3
		C85.4,18.6,87.8,16.5,91.1,15.9z M47,119.9c2.1,0,3.6-0.6,5.1-2.1c3.5-3.5,7-7,10.5-10.5C81,89,99.3,70.6,117.7,52.2
		c2.9-2.9,2.9-6.7,0-9.6c-6.8-6.8-13.6-13.7-20.5-20.5c-2.7-2.7-6.6-2.8-9.3,0C66,44.1,44.1,66,22.1,88c-2.7,2.7-2.7,6.5-0.1,9.2
		c6.9,7,13.9,14,20.9,20.9C44.2,119.3,45.7,119.9,47,119.9z M73.1,103c0.3,0.3,0.5,0.5,0.7,0.8c4.6,4.6,9.3,9.3,13.9,13.9
		c3,3,6.7,3,9.8,0c6.7-6.7,13.4-13.4,20.2-20.2c3-3,3-6.7,0-9.8c-4.6-4.6-9.3-9.3-13.9-13.9c-0.3-0.3-0.5-0.5-0.8-0.7
		C93,83.1,83.1,93,73.1,103z M66.9,36.9c-0.2-0.2-0.4-0.5-0.7-0.7c-4.7-4.7-9.3-9.3-14-14c-3-3-6.7-3-9.7,0
		C35.8,29,29,35.8,22.3,42.6c-3,3-3,6.7,0,9.7c4.7,4.7,9.3,9.3,14,14c0.3,0.3,0.5,0.5,0.7,0.7C47,56.9,56.9,47,66.9,36.9z"/>
	<path class="st1" d="M92.8,65.5c-0.1,2-0.9,3.6-2.2,4.9C84.7,76.2,78.9,82,73,87.9c-1,1-2,2-3,3c-2.7,2.6-6.4,2.6-9.1,0
		C57,86.9,53,83,49.1,79c-2.5-2.6-2.6-6.4,0-8.9c7-7,14-14,21-21c2.5-2.5,6.3-2.5,8.8,0c4,4,8,8,12,12
		C92.2,62.3,92.8,63.8,92.8,65.5z M88.8,65.5c-0.4-0.7-0.7-1.3-1.1-1.8c-3.8-3.8-7.6-7.7-11.4-11.4c-1.2-1.2-2.3-1.2-3.5,0
		c-6.8,6.8-13.6,13.6-20.4,20.4c-1.2,1.2-1.2,2.3,0,3.5c3.8,3.8,7.6,7.6,11.4,11.4c1.2,1.2,2.3,1.2,3.6,0c1.6-1.6,3.3-3.3,4.9-4.9
		c5.1-5.1,10.2-10.2,15.3-15.3C88,66.9,88.4,66.2,88.8,65.5z"/>
	<path class="st1" d="M45,92.9c0-1.1,0.9-2.1,2.1-2.1c1.1,0,2.1,1,2.1,2.1c0,1.2-1,2.2-2.2,2.1C45.9,95,45,94,45,92.9z"/>
	<path class="st1" d="M45.9,102.9c0,1.1-0.9,2.1-2,2.1c-1.2,0-2.2-0.9-2.2-2.1c0-1.1,0.9-2.1,2-2.1
		C44.8,100.8,45.8,101.8,45.9,102.9z"/>
	<path class="st1" d="M96.2,39.1c-1.1,0-2.1-1-2.1-2.1c0-1.1,1-2.1,2.2-2.1c1.2,0,2.1,1,2.1,2.2C98.3,38.2,97.3,39.1,96.2,39.1z"/>
	<path class="st1" d="M103,41.6c1.2,0,2.1,0.9,2.1,2.1c0,1.2-1,2.2-2.1,2.1c-1.1,0-2.1-1-2.1-2.1C100.9,42.6,101.8,41.6,103,41.6z"
		/>
	<path class="st1" d="M55.9,99.6c0,1.1-0.9,2.1-2,2.1c-1.2,0-2.1-0.9-2.1-2c0-1.2,0.9-2.2,2.1-2.2C55,97.5,55.9,98.4,55.9,99.6z"/>
	<path class="st1" d="M39.1,96.2c0,1.1-0.9,2.1-2,2.1c-1.2,0-2.2-0.9-2.2-2.1c0-1.1,1-2.2,2.1-2.2C38.2,94.1,39.1,95.1,39.1,96.2z"
		/>
	<path class="st1" d="M92.9,45c1.2,0,2.1,0.9,2.1,2.1c0,1.2-1,2.2-2.2,2.1c-1.1,0-2.1-1-2.1-2.2C90.8,45.9,91.8,45,92.9,45z"/>
	<path class="st1" d="M40.3,88.2c-1.2,0-2.1-1-2.1-2.1c0-1.1,1-2.1,2.1-2.1c1.2,0,2.2,1,2.1,2.2C42.4,87.4,41.5,88.3,40.3,88.2z"/>
	<path class="st1" d="M101.7,53.9c0,1.1-1,2-2.2,2c-1.1,0-2.1-1-2-2.1c0-1.2,1-2.1,2.2-2C100.9,51.8,101.8,52.8,101.7,53.9z"/>
	<path class="st1" d="M86.2,38.3c1.2,0,2.1,0.9,2.1,2.1c0,1.2-1,2.2-2.1,2.1c-1.1,0-2.1-1-2-2.1C84.1,39.2,85,38.3,86.2,38.3z"/>
	<path class="st1" d="M91.1,93.2c0-1.2,0.9-2.1,2.1-2.1c1.2,0,2.1,0.9,2.1,2.1c0,1.2-1,2.2-2.2,2.1C92,95.3,91.1,94.3,91.1,93.2z"/>
	<path class="st1" d="M99.9,84.4c1.1,0,2.1,0.9,2.1,2.1c0,1.1-0.9,2.1-2,2.1c-1.2,0-2.2-0.9-2.1-2.1C97.8,85.3,98.8,84.4,99.9,84.4z
		"/>
	<path class="st1" d="M88.6,99.9c0,1.1-0.9,2.1-2.1,2.1c-1.2,0-2.1-0.8-2.2-2c0-1.2,0.9-2.2,2.1-2.2C87.6,97.8,88.6,98.7,88.6,99.9z
		"/>
	<path class="st1" d="M94.5,103.2c0-1.2,1-2.1,2.1-2.1c1.1,0,2.1,1,2.1,2.1c0,1.2-1,2.1-2.2,2.1C95.3,105.3,94.5,104.4,94.5,103.2z"
		/>
	<path class="st1" d="M103.3,94.5c1.2,0,2.1,0.9,2.1,2.1c0,1.2-1,2.2-2.1,2.2c-1.1,0-2.1-1-2.1-2.1
		C101.2,95.4,102.1,94.5,103.3,94.5z"/>
	<path class="st1" d="M48.9,46.8c0,1.2-0.9,2.1-2.1,2.1c-1.1,0-2.1-0.9-2.1-2.1c0-1.1,1-2.2,2.2-2.1C48,44.7,48.9,45.7,48.9,46.8z"
		/>
	<path class="st1" d="M53.5,42.2c-1.2,0-2.1-0.9-2.1-2c0-1.2,1-2.2,2.1-2.2c1.1,0,2.1,1,2.1,2.1C55.6,41.2,54.7,42.1,53.5,42.2z"/>
	<path class="st1" d="M36.8,45.5c-1.2,0-2.1-0.8-2.1-2c0-1.2,0.9-2.2,2.1-2.2c1.1,0,2.1,1,2.1,2.1C38.8,44.6,37.9,45.5,36.8,45.5z"
		/>
	<path class="st1" d="M45.5,36.7c0,1.2-0.9,2.1-2,2.1c-1.2,0-2.2-1-2.2-2.1c0-1.1,1-2.1,2.1-2.1C44.6,34.6,45.5,35.5,45.5,36.7z"/>
	<path class="st1" d="M40.1,55.6c-1.1,0-2.1-0.9-2.1-2.1c0-1.2,1-2.2,2.1-2.2c1.1,0,2.1,1,2.1,2.1C42.2,54.7,41.2,55.6,40.1,55.6z"
		/>
	<path class="st2" d="M88.8,65.5c-0.5,0.7-0.8,1.4-1.3,1.9c-5.1,5.1-10.2,10.2-15.3,15.3c-1.6,1.6-3.3,3.3-4.9,4.9
		c-1.2,1.2-2.3,1.2-3.6,0c-3.8-3.8-7.6-7.6-11.4-11.4c-1.2-1.2-1.1-2.3,0-3.5c6.8-6.8,13.6-13.6,20.4-20.4c1.2-1.2,2.3-1.2,3.5,0
		c3.8,3.8,7.6,7.6,11.4,11.4C88.1,64.2,88.4,64.8,88.8,65.5z"/>
</g>
<g id="圖層_2">
	<path class="st3" d="M69.6,105.6c-4.9,5-9.3,9.5-13.8,14c-6.1,6.1-11.4,6-17.6,0c-6.2-6.1-12.3-12.2-18.4-18.4
		c-5.8-5.9-5.8-11.1,0-17.1c4.4-4.5,8.9-9,13.4-13.5c0.1-0.1,0.1-0.2,1.2-1.3c-1.9-1.5-4-2.8-5.7-4.5c-3.5-3.4-7.1-6.8-10.3-10.5
		c-4-4.6-4.1-9.4,0-13.8c7.1-7.5,14.4-14.8,21.9-21.9c4.1-3.9,8.9-3.8,13.3-0.1c3.6,3.1,6.9,6.5,10.3,9.9c1.8,1.8,3.4,3.8,5.4,6
		c2.6-2.6,4.8-4.8,7-6.9c2.8-2.8,5.6-5.7,8.5-8.4c5-4.5,10.3-4.4,15.1,0.3c6.8,6.6,13.5,13.2,20.1,20c5.1,5.2,5,10.6-0.1,15.8
		c-4.7,4.8-9.6,9.5-14.7,14.6c4.6,4.6,9,8.8,13.3,13.1c7,7,7,12.1,0.1,19c-5.5,5.5-11,11-16.5,16.5c-7.4,7.4-12.3,7.4-19.8-0.1
		C78.2,114.3,74.1,110.1,69.6,105.6z M120.3,47.5c-1.4-2.1-2.3-4.2-3.9-5.8c-6-6.2-12.2-12.3-18.4-18.4c-4.3-4.3-7.4-4.3-11.7,0
		C65.1,44.5,43.8,65.8,22.5,87.1c-4,4-3.9,7.2,0,11.2c6.3,6.4,12.7,12.7,19.1,19.1c3.7,3.7,6.9,3.8,10.7,0.1
		c21.6-21.5,43.1-43,64.6-64.6C118.3,51.4,119.1,49.5,120.3,47.5z M103.1,73.5c-10.1,10.1-20,20.1-30,30.1
		c4.5,4.5,9.1,9.5,14.1,14.1c3.5,3.3,6.6,3.2,10-0.1c6.8-6.5,13.5-13.2,20-20c3.3-3.4,3.4-6.5,0.1-10
		C112.7,82.8,107.8,78.1,103.1,73.5z M65.8,37.2c-4.7-5-9.4-10.4-14.5-15.2c-3.1-2.9-5.9-2.7-8.9,0.2c-7,6.8-13.9,13.7-20.7,20.7
		c-2.9,3-3,5.9-0.2,8.9c4.9,5.1,10.2,9.9,15.1,14.6C46.3,56.6,56.2,46.7,65.8,37.2z"/>
	<path class="st4" d="M103.1,73.5c4.7,4.6,9.6,9.3,14.2,14.2c3.2,3.4,3.2,6.5-0.1,10c-6.6,6.8-13.2,13.5-20,20
		c-3.4,3.3-6.5,3.3-10,0.1c-4.9-4.6-9.6-9.6-14.1-14.1C83.2,93.6,93.1,83.7,103.1,73.5z M103.1,99.4c0.8-1.3,1.7-2.1,1.7-2.8
		c-0.1-0.7-1.2-1.7-1.8-1.7c-0.6,0-1.6,1.1-1.7,1.8C101.2,97.4,102.1,98.1,103.1,99.4z M96.1,106.1c1-1.2,2-2,1.9-2.6
		c0-0.7-1-1.8-1.7-1.8c-0.6-0.1-1.7,1-1.8,1.7C94.4,103.9,95.3,104.7,96.1,106.1z M92.9,90.6c-0.9,1.3-1.8,2-1.8,2.6
		c0.1,0.7,1.1,1.3,1.7,2c0.6-0.6,1.7-1.2,1.8-1.9C94.8,92.7,93.8,91.9,92.9,90.6z M86,102.7c0.9-1.3,1.9-2,1.9-2.7
		c0-0.6-1.1-1.7-1.7-1.7c-0.6,0-1.6,1-1.7,1.7C84.4,100.6,85.2,101.4,86,102.7z M99.6,89.1c0.9-1.3,1.9-2.1,1.8-2.7
		c-0.1-0.7-1.2-1.4-2-1.6c-0.4-0.1-1.5,1.1-1.5,1.6C97.9,87.2,98.8,87.9,99.6,89.1z"/>
	<path class="st3" d="M92.7,65.7c-1,1.7-1.8,3.7-3.2,5.2c-6.4,6.6-13,13.1-19.6,19.5c-3,3-6.1,3.2-9.2,0.3c-4.2-3.8-8.2-7.8-12.1-12
		c-2.5-2.6-2.5-5.8,0-8.4c7-7.2,14-14.2,21.2-21.2c2.4-2.4,5.6-2.5,8.2-0.1c4.5,4.1,8.7,8.6,12.9,13C91.7,62.8,92,64.1,92.7,65.7z
		 M88.5,65.8c-0.4-0.7-0.5-1.4-1-1.9C83.8,60,80,56.1,76.1,52.3c-1.4-1.4-2.9-0.9-4.3,0.5c-6.4,6.5-12.8,12.9-19.3,19.3
		c-1.7,1.7-1.8,3.1-0.1,4.8c3.5,3.5,7,7,10.6,10.5c1.5,1.5,2.9,1.6,4.5-0.1c6.4-6.6,13-13,19.5-19.5C87.5,67.2,88,66.5,88.5,65.8z"
		/>
	<g>
		<path class="st3" d="M85.9,43.1C85,41.9,84,41.2,84,40.5c0-0.6,1.1-1.7,1.7-1.7c0.6,0,1.7,1,1.7,1.6
			C87.6,41.1,86.7,41.9,85.9,43.1z"/>
		<path class="st3" d="M92.7,44.6c0.8,1.2,1.6,2,1.5,2.6c-0.1,0.7-1.2,1.2-1.8,1.8c-0.6-0.7-1.6-1.3-1.7-2
			C90.6,46.5,91.7,45.8,92.7,44.6z"/>
		<path class="st3" d="M93.2,37.2c1.3-0.9,1.9-1.7,2.7-1.8c0.6,0,1.7,1,1.7,1.3c-0.1,0.7-0.8,1.8-1.5,1.9
			C95.4,38.8,94.6,38,93.2,37.2z"/>
		<path class="st3" d="M102.7,46.5c-0.9-1.3-1.8-2-1.7-2.7c0.1-0.7,1.1-1.4,1.8-1.7c0.3-0.1,1.5,1,1.5,1.5
			C104.3,44.4,103.5,45.1,102.7,46.5z"/>
		<path class="st3" d="M99.1,51.1c1,1.4,1.9,2.1,1.9,2.7c-0.1,0.7-1.1,1.3-1.6,2c-0.6-0.6-1.5-1.1-1.6-1.7
			C97.6,53.4,98.3,52.6,99.1,51.1z"/>
	</g>
	<g>
		<path class="st3" d="M42.9,52.8c-1.2,0.9-1.9,1.9-2.6,1.9c-0.6,0-1.7-1.1-1.7-1.7c0-0.6,1-1.7,1.6-1.7
			C40.9,51.2,41.7,52.1,42.9,52.8z"/>
		<path class="st3" d="M44.4,46.1c1.2-0.8,2-1.6,2.6-1.5c0.7,0.1,1.2,1.2,1.8,1.8c-0.7,0.6-1.3,1.6-2,1.7
			C46.3,48.1,45.6,47.1,44.4,46.1z"/>
		<path class="st3" d="M37,45.6c-0.9-1.3-1.7-1.9-1.8-2.7c0-0.6,1-1.7,1.3-1.7c0.7,0.1,1.8,0.8,1.9,1.5C38.7,43.4,37.8,44.2,37,45.6
			z"/>
		<path class="st3" d="M46.3,36.1c-1.3,0.9-2,1.8-2.7,1.7c-0.7-0.1-1.4-1.1-1.7-1.8c-0.1-0.3,1-1.5,1.5-1.5
			C44.2,34.5,45,35.3,46.3,36.1z"/>
		<path class="st3" d="M50.9,39.7c1.4-1,2.1-1.9,2.7-1.9c0.7,0.1,1.3,1.1,2,1.6c-0.6,0.6-1.1,1.5-1.7,1.6
			C53.2,41.2,52.4,40.5,50.9,39.7z"/>
	</g>
	<g>
		<path class="st3" d="M52.7,95.9c0.9,1.2,1.9,1.9,1.9,2.6c0,0.6-1.1,1.7-1.7,1.7c-0.6,0-1.7-1-1.7-1.6C51,97.9,51.9,97.1,52.7,95.9
			z"/>
		<path class="st3" d="M45.9,94.3c-0.8-1.2-1.6-2-1.5-2.6c0.1-0.7,1.2-1.2,1.8-1.8c0.6,0.7,1.6,1.3,1.7,2
			C48,92.5,46.9,93.2,45.9,94.3z"/>
		<path class="st3" d="M45.4,101.8c-1.3,0.9-1.9,1.7-2.7,1.8c-0.6,0-1.7-1-1.7-1.3c0.1-0.7,0.8-1.8,1.5-1.9
			C43.2,100.1,44,101,45.4,101.8z"/>
		<path class="st3" d="M35.9,92.5c0.9,1.3,1.8,2,1.7,2.7c-0.1,0.7-1.1,1.4-1.8,1.7c-0.3,0.1-1.5-1-1.5-1.5
			C34.3,94.5,35.1,93.8,35.9,92.5z"/>
		<path class="st3" d="M39.5,87.8c-1-1.4-1.9-2.1-1.9-2.7c0.1-0.7,1.1-1.3,1.6-2c0.6,0.6,1.5,1.1,1.6,1.7
			C41,85.6,40.3,86.3,39.5,87.8z"/>
	</g>
	<path class="st3" d="M103.1,99.4c-0.9-1.3-1.9-2-1.9-2.7c0-0.7,1.1-1.8,1.7-1.8c0.6,0,1.8,1,1.8,1.7
		C104.8,97.3,103.9,98.1,103.1,99.4z"/>
	<path class="st3" d="M96.1,106.1c-0.8-1.3-1.7-2.1-1.6-2.8c0.1-0.7,1.2-1.7,1.8-1.7c0.7,0.1,1.7,1.1,1.7,1.8
		C98.1,104.1,97.1,104.8,96.1,106.1z"/>
	<path class="st3" d="M92.9,90.6c0.9,1.3,1.8,2.1,1.7,2.7c-0.1,0.7-1.2,1.3-1.8,1.9c-0.6-0.7-1.6-1.3-1.7-2
		C91.1,92.6,92,91.8,92.9,90.6z"/>
	<path class="st3" d="M86,102.7c-0.8-1.3-1.6-2.1-1.6-2.8c0.1-0.7,1.2-1.7,1.7-1.7c0.6,0,1.7,1.1,1.7,1.7
		C87.9,100.7,87,101.4,86,102.7z"/>
	<path class="st3" d="M99.6,89.1c-0.8-1.2-1.7-1.9-1.7-2.6c0-0.5,1.1-1.7,1.5-1.6c0.8,0.1,1.9,0.9,2,1.6
		C101.5,87,100.5,87.8,99.6,89.1z"/>
	<path class="st5" d="M88.5,65.8c-0.6,0.7-1,1.4-1.6,2c-6.5,6.5-13.1,12.9-19.5,19.5c-1.7,1.7-3,1.6-4.5,0.1
		c-3.5-3.5-7.1-7-10.6-10.5c-1.7-1.7-1.6-3.1,0.1-4.8c6.5-6.4,12.9-12.8,19.3-19.3c1.4-1.4,2.9-1.9,4.3-0.5
		c3.9,3.8,7.7,7.7,11.5,11.5C88,64.3,88.1,65,88.5,65.8z"/>
</g>
</svg>
