<?xml version="1.0" encoding="utf-8"?>
<!-- Generator: Adobe Illustrator 26.0.2, SVG Export Plug-In . SVG Version: 6.00 Build 0)  -->
<svg version="1.1" xmlns="http://www.w3.org/2000/svg" xmlns:xlink="http://www.w3.org/1999/xlink" x="0px" y="0px"
	 viewBox="0 0 67 59.9" style="enable-background:new 0 0 67 59.9;" xml:space="preserve">
<style type="text/css">
	.st0{display:none;}
	.st1{display:inline;}
	.st2{fill:#2A2968;}
	.st3{fill:#E94D16;}
	.st4{fill:#FFE7C3;}
	.st5{display:inline;fill:#FFFFFF;}
	.st6{fill:#FFFFFF;stroke:#FF5809;stroke-width:3;stroke-miterlimit:10;}
	.st7{fill:#FFFFFF;stroke:#FF5809;stroke-width:2;stroke-linecap:round;stroke-linejoin:round;stroke-miterlimit:10;}
	.st8{fill:#FF5809;}
	.st9{fill:#FFFFFF;}
</style>
<g id="QsEwZC.tif" class="st0">
	<g id="Group_126" transform="translate(0 0)" class="st1">
		<path id="Path_119" class="st2" d="M0,36.7c0.3-0.4,0.8-0.7,1.3-0.8c1.3-0.3,2.6-0.6,3.9-0.9c0.4-0.1,0.8-0.3,1-0.7
			C13,24,19.8,13.6,26.6,3.3C27,2.6,27.5,2,28,1.4c0.7-0.7,1.6-1.2,2.6-1.4h1c1.9,0.3,2.8,1.7,4,3C42.1,9.8,48.6,16.6,55,23.4
			c0.3,0.3,0.7,0.5,1.1,0.3c1.4-0.4,2.8-0.6,4.3-1c1.3-0.3,1.7,0,1.9,1.2c1.6,7,3.1,14,4.6,20.9c0.2,1.1,0,1.5-1.1,1.8
			c-4.5,1-9,2-13.5,3l-34.9,7.8c-3.6,0.8-7.2,1.6-10.8,2.4c-1.1,0.3-1.5,0-1.8-1.2c-1.6-7-3.1-13.9-4.7-20.9c0-0.1-0.1-0.2-0.1-0.4
			L0,36.7z M64.6,44.6L60.3,25L2.4,37.9l4.4,19.6L64.6,44.6z M9.1,34l0.1,0.2l43.7-9.7L35.4,5.9c-0.8,2.3-3.4,3.6-5.7,2.7
			c-1.1-0.4-2-1.2-2.5-2.2L9.1,34z M31.2,6.7c1.2,0,2.2-1,2.2-2.2c0,0,0,0,0-0.1c0-1.2-1-2.2-2.2-2.2s-2.2,1-2.2,2.2l0,0
			C28.9,5.7,29.9,6.7,31.2,6.7C31.2,6.7,31.2,6.7,31.2,6.7L31.2,6.7z"/>
		<path id="Path_120" class="st3" d="M64.6,44.6L6.8,57.5L2.4,37.9L60.3,25L64.6,44.6z M57.4,30.1c0.9,0,1.7-0.7,1.7-1.6
			c0-0.9-0.7-1.7-1.6-1.7c0,0,0,0-0.1,0c-0.9,0-1.7,0.7-1.7,1.6C55.7,29.3,56.4,30.1,57.4,30.1C57.3,30.1,57.4,30.1,57.4,30.1z
			 M6.1,41.3c0.9,0,1.7-0.7,1.7-1.6S7,38,6.1,38s-1.7,0.7-1.7,1.6c0,0,0,0,0,0C4.4,40.5,5.1,41.3,6.1,41.3C6,41.3,6.1,41.3,6.1,41.3
			L6.1,41.3z"/>
		<path id="Path_121" class="st4" d="M31.2,6.7C30,6.7,29,5.8,29,4.5c0,0,0,0,0-0.1c0-1.2,1-2.2,2.2-2.2s2.2,1,2.2,2.2
			C33.4,5.7,32.5,6.7,31.2,6.7C31.3,6.7,31.2,6.7,31.2,6.7z"/>
		<path id="Path_122" d="M57.4,30.1c-0.9,0-1.6-0.8-1.6-1.7s0.8-1.6,1.7-1.6c0.9,0,1.6,0.8,1.6,1.7C59.1,29.4,58.3,30.2,57.4,30.1z
			 M57.4,27.7c-0.3,0.4-0.5,0.6-0.5,0.8c0,0.2,0.3,0.4,0.5,0.6c0.2-0.2,0.5-0.4,0.5-0.6S57.6,28.1,57.4,27.7z"/>
		<path id="Path_123" d="M6.1,41.3c-0.9,0-1.6-0.8-1.6-1.7c0-0.9,0.8-1.6,1.7-1.6c0.9,0,1.6,0.8,1.6,1.7C7.7,40.6,7,41.3,6.1,41.3
			C6.1,41.3,6.1,41.3,6.1,41.3z M6.8,39.6c-0.3-0.2-0.6-0.5-0.8-0.5s-0.4,0.3-0.6,0.5c0.2,0.2,0.4,0.5,0.6,0.5
			C6.3,40.2,6.5,39.9,6.8,39.6L6.8,39.6z"/>
		<path id="Path_124" class="st4" d="M57.4,27.7c0.2,0.4,0.5,0.6,0.5,0.8s-0.3,0.4-0.5,0.6c-0.2-0.2-0.5-0.4-0.5-0.6
			C56.9,28.3,57.1,28.1,57.4,27.7z"/>
		<path id="Path_125" class="st4" d="M6.8,39.6c-0.3,0.3-0.6,0.6-0.7,0.5c-0.2,0-0.4-0.3-0.6-0.5c0.2-0.2,0.4-0.5,0.6-0.5
			S6.5,39.4,6.8,39.6z"/>
	</g>
	<path id="Path_126" class="st5" d="M19.4,49.1c0.1,0.6,0.7,0.9,1.3,0.8c0,0,0,0,0,0l5.8-1.3c0.6-0.1,1-0.8,0.9-1.4
		c-0.1-0.6-0.8-1-1.4-0.9l-1,0.2c-0.6,0.1-1.2,0.3-1.8,0.6c1.7-2.8,2.4-5,2-6.5c-0.4-1.9-2.2-3.1-4.1-2.8c-0.1,0-0.3,0.1-0.4,0.1
		c-1.1,0.2-2.1,0.8-2.7,1.7c-0.2,0.3-0.3,0.6-0.2,0.9c0.1,0.6,0.7,0.9,1.3,0.8c0.2,0,0.4-0.2,0.6-0.4c0.3-0.4,0.7-0.7,1.2-0.8
		c0.8-0.2,1.5,0.2,1.8,1c0,0.1,0,0.2,0.1,0.3c0.3,1.5-0.7,3.6-3.1,6.9C19.3,48.5,19.3,48.8,19.4,49.1z M32.9,42l-2.1,0.5l0.8-2.5
		c0.2-0.7,0.3-1.4,0.5-2.1l0.1,0c0,0.1,0.1,0.3,0.1,0.6c0.1,0.9,0.3,1.5,0.4,1.9L32.9,42z M28.3,43.8c0.2,0.7,0.9,1.2,1.6,1l3.5-0.8
		l0.4,1.7c0.2,0.7,0.8,1.1,1.5,1c0.7-0.2,1.1-0.9,1-1.5l-0.4-1.7l0.3-0.1c0.6-0.1,0.9-0.7,0.8-1.3c-0.1-0.6-0.7-0.9-1.3-0.8
		l-0.3,0.1l-1.2-5.2c-0.1-0.6-0.6-1-1.2-1c-0.1,0-0.2,0-0.2,0.1l-1.2,0.3c-0.6,0.1-1.1,0.5-1.2,1.1l-2,6.4
		C28.2,43.3,28.2,43.6,28.3,43.8L28.3,43.8z M37.9,35.4l2,8.7c0.2,0.7,0.9,1.2,1.7,1c0.7-0.2,1.2-0.9,1-1.7l-0.8-3.4l3.7-0.8
		l0.8,3.4c0.2,0.7,0.9,1.2,1.6,1.1c0.7-0.2,1.2-0.9,1.1-1.6c0,0,0,0,0-0.1l-2-8.7c-0.2-0.7-0.9-1.2-1.7-1c-0.7,0.2-1.1,0.9-1,1.6
		l0.7,3l-3.7,0.8l-0.7-3c-0.2-0.7-0.9-1.2-1.7-1C38.2,33.9,37.7,34.7,37.9,35.4z"/>
</g>
<g id="圖層_2">
	<g>
		<circle class="st6" cx="32.8" cy="6.5" r="4.8"/>
		<line class="st7" x1="28" y1="3.8" x2="7.9" y2="41.7"/>
		<line class="st7" x1="36.1" y1="3" x2="57.2" y2="30.9"/>
		<g>
			<rect x="3.7" y="33.3" transform="matrix(0.9745 -0.2244 0.2244 0.9745 -8.7452 8.7012)" class="st8" width="60.4" height="19"/>
			<g>
				<path class="st9" d="M27.7,47.8l0.3,1.5l-7,1.6l-0.4-1.7l2.4-2.6c0.8-0.8,1.2-1.5,1.4-2c0.2-0.5,0.3-1,0.2-1.4
					c-0.1-0.5-0.4-0.8-0.7-1.1c-0.4-0.2-0.8-0.3-1.3-0.2c-1.1,0.2-1.5,1-1.4,2.4l-1.7,0c-0.1-0.9,0.1-1.7,0.6-2.4
					c0.5-0.7,1.2-1.2,2.2-1.5c1-0.2,1.9-0.1,2.7,0.3c0.8,0.4,1.2,1.1,1.5,2c0.2,0.8,0.1,1.6-0.3,2.4c-0.4,0.8-1.6,2-3.5,3.8
					L27.7,47.8z"/>
				<path class="st9" d="M36.2,47.4l-1.7,0.4L34,45.7l-4.2,1l-0.3-1.2l2.8-7.2l1.7-0.4l1.4,6l1.4-0.3l0.3,1.5l-1.4,0.3L36.2,47.4z
					 M32.8,40l-1.7,4.9l2.6-0.6L33,41.6c-0.1-0.3-0.1-0.5-0.1-0.8L32.8,40z"/>
				<path class="st9" d="M47.6,44.8l-1.7,0.4l-0.9-4.1l-3.6,0.8l0.9,4.1l-1.7,0.4L38.4,37l1.7-0.4l0.9,3.9l3.6-0.8l-0.9-3.9l1.7-0.4
					L47.6,44.8z"/>
			</g>
			<g>
				<path class="st9" d="M58.9,31.7c0.2,0.9-0.4,1.9-1.3,2.1c-0.9,0.2-1.9-0.4-2.1-1.3c-0.2-0.9,0.4-1.9,1.3-2.1
					C57.8,30.2,58.7,30.8,58.9,31.7z"/>
				<path class="st9" d="M9.9,43c0.2,0.9-0.4,1.9-1.3,2.1c-0.9,0.2-1.9-0.4-2.1-1.3c-0.2-0.9,0.4-1.9,1.3-2.1
					C8.8,41.5,9.7,42.1,9.9,43z"/>
			</g>
		</g>
	</g>
</g>
</svg>
