<svg xmlns="http://www.w3.org/2000/svg" width="78.376" height="77.033" viewBox="0 0 78.376 77.033">
  <g id="Group_250" data-name="Group 250" transform="translate(0 0)">
    <path id="Path_75" data-name="Path 75" d="M89.615,359.957c-.508-.846-5.041-8.128-13.279-8.752-7.8-.591-14.2,5.147-16.6,10.563-4.941,11.169.95,19.271,8.476,25.537,2.41,1.317,21.26-1.474,24.721.751,2.634,1.694,3.383,2.947,2.473,5.774-.359,1.122-14.121,1.554-14.949,3.368-1.066,2.336,11.459,4.261,12.476,4.405a27.087,27.087,0,0,0,5.454-2.061c4.657-2.365,7.243-5.407,11.965-10.852,9.008-10.388,8.951-10.1,9.182-10.713,1.272-3.359,4.757-11.19.994-14.568-2.2-1.974-11.118.462-13.548-1.642-3.165-2.744-4.678-3.9-6.3-7.4C94.481,353.315,94.129,353.953,89.615,359.957Z" transform="translate(-48.1 -337.456)" fill="#ffdc55"/>
    <path id="Path_76" data-name="Path 76" d="M26.516,360.017a7.169,7.169,0,0,1,2.343-1.065c2.743-.133,5.5-.064,8.247-.04.5,0,1.29-.012,1.46.272,1.323,2.214,3.166.912,4.824.816a6.185,6.185,0,0,0,.921-.246c-.77-.83-1.394-1.525-2.039-2.2a21.9,21.9,0,0,1-4.443-23.744c.162-.367.244-.864.529-1.059a10.611,10.611,0,0,1,1.8-.822,4.628,4.628,0,0,1,.352,1.794c-.476,2-1.345,3.918-1.642,5.93a18.284,18.284,0,0,0,4.427,15.326c3.806,4.338,3.9,4.434,9.781,3.11a36.16,36.16,0,0,1,17,.45c2.753.688,5.054,2.807,5.362,4.979.5,3.494-2.692,6.294-6.706,5.833-1.817-.209-3.621-.539-5.43-.816a6.885,6.885,0,0,0-.844-.146c-.991-.026-2.266-.421-2.433,1.1-.149,1.355,1.062,1.463,2,1.626,2.986.518,5.97,1.073,8.976,1.44a9.138,9.138,0,0,0,8.6-3.029c4.43-4.946,9.266-9.525,13.82-14.363,4.662-4.953,5.679-10.916,4.392-17.413-.216-1.087-.556-1.662-1.964-1.237-7.7,2.329-14.573-.984-17.655-8.38-.151-.362-.342-.708-.558-1.15a15.854,15.854,0,0,0-6.578,4.19c-2.349,2.29-2.613,2.3-5,0-3.671-3.542-7.837-5.886-13.122-5.844a12.911,12.911,0,0,0-8.738,3.437c-.648.573-1.3,1.646-2.256.668-1.024-1.049-.114-1.87.678-2.573,4.394-3.9,9.479-4.834,15.068-3.432a20.635,20.635,0,0,1,9.7,5.6q.425.425.874.825c.08.071.2.1.074-.247,2.94-1.813,5.894-3.6,8.8-5.47.331-.213.465-.825.571-1.28.363-1.553.617-3.134,1.025-4.674.219-.826.63-1.8,1.76-1.383,1.152.425.707,1.341.4,2.173-2.019,5.535-.215,11.185,4.45,13.993a11.281,11.281,0,0,0,14.493-16.942A11.456,11.456,0,0,0,85.3,313.78c-.809.48-1.789,1.746-2.624.462-.947-1.459.715-1.949,1.578-2.491a13.6,13.6,0,0,1,19.93,7.353c.224.693.47,1.38.706,2.069V325.3c-.8,3.019-1.869,5.909-4.343,8a1.865,1.865,0,0,0-.615,2.327c2.347,8.3.836,15.74-5.238,22.052-3.174,3.3-6.408,6.541-9.6,9.819-1.166,1.2-2.3,2.422-3.45,3.635a12.686,12.686,0,0,0,3.2-.308,68.385,68.385,0,0,1,6.921-1.085,3.914,3.914,0,0,1,4.06,2.615,4.222,4.222,0,0,1-1.118,4.881,9.623,9.623,0,0,1-3.356,1.955c-6.893,2.284-13.831,4.431-20.736,6.677a18.768,18.768,0,0,1-11.305.123c-6.478-1.861-13-3.564-19.633-5.368-.588,1.678-1.9,1.778-3.353,1.737-2.344-.066-4.7.076-7.036-.064a10.694,10.694,0,0,1-2.771-.96ZM39.543,370.6h.027c0,1.948.069,3.9-.024,5.842-.061,1.262.416,1.793,1.624,2.11,6.421,1.683,12.835,3.4,19.222,5.207a15.047,15.047,0,0,0,8.949-.058c7.193-2.311,14.4-4.582,21.593-6.891,1.933-.621,3.166-2.166,2.8-3.387-.349-1.158-1.825-1.641-3.9-1.23-2.92.578-5.821,1.25-8.752,1.761-3.642.636-7.209,1.968-11.016,1.209-3.087-.615-6.214-1.054-9.27-1.79a5.474,5.474,0,0,1-2.736-1.822,3.428,3.428,0,0,1-.014-4.038,3.324,3.324,0,0,1,3.448-1.769c2.621.255,5.235.609,7.861.789,2,.137,3.188-.609,3.354-1.944a2.724,2.724,0,0,0-2.289-3.177c-3.805-.7-7.713-1.751-11.491-1.471-6.083.452-12.091,1.886-18.14,2.848-1.056.168-1.277.686-1.257,1.623C39.573,366.478,39.543,368.541,39.543,370.6Zm-2.428,9.236c0-6,.011-11.767-.027-17.538,0-.344-.393-.978-.618-.985-2.483-.071-4.97-.045-7.426-.045v18.567Z" transform="translate(-26.516 -309.763)" fill="#2a2968"/>
    <path id="Path_77" data-name="Path 77" d="M117.049,404.787c.946-1.6,1.734-2.84,2.433-4.134a2.639,2.639,0,0,1,2.648-1.494c2.517.055,5.036.011,7.555.021,1.078,0,2.23.116,2.273,1.5.045,1.46-1.133,1.479-2.207,1.478-2.118,0-4.237.052-6.352-.02a2.3,2.3,0,0,0-2.351,1.314c-.8,1.447-1.706,2.842-2.617,4.225-.961,1.46-1.993,1.451-2.857-.068-1.829-3.219-3.6-6.473-5.517-9.942-1.327,2.309-2.55,4.412-3.749,6.529-1.12,1.976-2.11,2.006-3.347.067-.634-.994-1.251-2-1.852-2.962-.228.083-.3.087-.33.125-.868,1.106-1.587,2.972-2.626,3.172a33.646,33.646,0,0,1-7.682.113,1.651,1.651,0,0,1-.959-1.3,1.977,1.977,0,0,1,1.3-1.254,27.77,27.77,0,0,1,4.626-.087,2.434,2.434,0,0,0,2.617-1.453,20.128,20.128,0,0,1,1.6-2.64c.8-1.133,1.647-1.166,2.471-.05s1.546,2.352,2.467,3.774c1.349-2.338,2.526-4.479,3.814-6.551.389-.627,1.158-1.542,1.623-1.471a3.143,3.143,0,0,1,1.752,1.564C113.522,398.255,115.157,401.332,117.049,404.787Z" transform="translate(-67.852 -364.827)" fill="#2a2968"/>
    <path id="Path_78" data-name="Path 78" d="M205.352,337.4a16.512,16.512,0,0,1,3.074.049c.541.114.98.709,1.465,1.088-.451.414-.841,1.05-1.365,1.192-.956.258-2.29-.118-2.9.417-.51.445-.085,1.849-.324,2.763-.138.523-.777.913-1.19,1.364-.36-.446-.943-.852-1.031-1.346a19.5,19.5,0,0,1-.048-3.17,16.528,16.528,0,0,1-2.975-.048c-.545-.1-1-.685-1.493-1.052.505-.411.958-1.046,1.529-1.181a13.839,13.839,0,0,1,2.934-.052,16.683,16.683,0,0,1,.049-3.027c.1-.533.7-.968,1.082-1.448.4.46,1.036.871,1.142,1.391A16.207,16.207,0,0,1,205.352,337.4Z" transform="translate(-139.421 -324.978)" fill="#2a2968"/>
  </g>
</svg>
