<svg width="48" height="48" viewBox="0 0 48 48" fill="none" xmlns="http://www.w3.org/2000/svg">
<g clip-path="url(#clip0_2014_11459)">
<g clip-path="url(#clip1_2014_11459)">
<path d="M38.52 0H9.48C4.24434 0 0 4.24434 0 9.48V38.52C0 43.7557 4.24434 48 9.48 48H38.52C43.7557 48 48 43.7557 48 38.52V9.48C48 4.24434 43.7557 0 38.52 0Z" fill="url(#paint0_linear_2014_11459)"/>
<mask id="mask0_2014_11459" style="mask-type:luminance" maskUnits="userSpaceOnUse" x="0" y="0" width="48" height="48">
<path d="M38.52 0H9.48C4.24434 0 0 4.24434 0 9.48V38.52C0 43.7557 4.24434 48 9.48 48H38.52C43.7557 48 48 43.7557 48 38.52V9.48C48 4.24434 43.7557 0 38.52 0Z" fill="white"/>
</mask>
<g mask="url(#mask0_2014_11459)">
<path d="M10.8375 46.44L37.1775 46.44C42.2917 46.44 46.4375 42.2942 46.4375 37.18L46.4375 10.84C46.4375 5.72585 42.2917 1.58001 37.1775 1.58001L10.8375 1.58001C5.72334 1.58001 1.5775 5.72585 1.5775 10.84L1.5775 37.18C1.5775 42.2942 5.72334 46.44 10.8375 46.44Z" fill="url(#paint1_linear_2014_11459)"/>
</g>
<path d="M17.6807 40.14C17.4231 39.8868 17.2185 39.5849 17.0788 39.2518C16.9391 38.9187 16.8672 38.5612 16.8672 38.2C16.8672 37.8388 16.9391 37.4812 17.0788 37.1481C17.2185 36.8151 17.4231 36.5131 17.6807 36.26L29.1007 24.82C29.3645 24.554 29.5125 24.1946 29.5125 23.82C29.5125 23.4454 29.3645 23.0859 29.1007 22.82L17.6807 11.36C17.1641 10.8425 16.8739 10.1412 16.8739 9.40997C16.8739 8.67876 17.1641 7.97744 17.6807 7.45997C18.1981 6.94336 18.8995 6.6532 19.6307 6.6532C20.3619 6.6532 21.0632 6.94336 21.5807 7.45997L36.0007 21.86C36.2583 22.1131 36.4629 22.4151 36.6026 22.7481C36.7422 23.0812 36.8142 23.4388 36.8142 23.8C36.8142 24.1611 36.7422 24.5187 36.6026 24.8518C36.4629 25.1849 36.2583 25.4868 36.0007 25.74L21.6207 40.14C21.3637 40.4018 21.0572 40.6098 20.7189 40.7518C20.3807 40.8938 20.0175 40.9669 19.6507 40.9669C19.2838 40.9669 18.9207 40.8938 18.5824 40.7518C18.2442 40.6098 17.9376 40.4018 17.6807 40.14Z" fill="white"/>
<g style="mix-blend-mode:color-burn">
<path d="M17.6807 42.58C17.4231 42.3269 17.2185 42.0249 17.0788 41.6919C16.9391 41.3588 16.8672 41.0012 16.8672 40.64C16.8672 40.2788 16.9391 39.9213 17.0788 39.5882C17.2185 39.2551 17.4231 38.9532 17.6807 38.7L29.1007 27.28C29.3597 27.0116 29.5045 26.6531 29.5045 26.28C29.5045 25.907 29.3597 25.5485 29.1007 25.28L17.6807 13.8C17.1939 13.2872 16.9226 12.6071 16.9226 11.9C16.9226 11.193 17.1939 10.5129 17.6807 10C18.2007 9.48825 18.9011 9.20142 19.6307 9.20142C20.3603 9.20142 21.0607 9.48825 21.5807 10L36.0007 24.3C36.5173 24.8175 36.8074 25.5188 36.8074 26.25C36.8074 26.9812 36.5173 27.6826 36.0007 28.2L21.6207 42.58C21.3637 42.8419 21.0572 43.0499 20.7189 43.1919C20.3807 43.3338 20.0175 43.407 19.6507 43.407C19.2838 43.407 18.9207 43.3338 18.5824 43.1919C18.2442 43.0499 17.9376 42.8419 17.6807 42.58Z" fill="url(#paint2_linear_2014_11459)"/>
</g>
<g style="mix-blend-mode:color-burn">
<path d="M17.6807 38.1C17.1641 37.5825 16.8739 36.8812 16.8739 36.15C16.8739 35.4188 17.1641 34.7175 17.6807 34.2L29.1007 22.78C29.3597 22.5116 29.5045 22.1531 29.5045 21.78C29.5045 21.4069 29.3597 21.0484 29.1007 20.78L17.6807 9.29999C17.4231 9.04683 17.2185 8.7449 17.0788 8.41182C16.9391 8.07874 16.8672 7.72117 16.8672 7.35999C16.8672 6.99881 16.9391 6.64125 17.0788 6.30817C17.2185 5.97508 17.4231 5.67315 17.6807 5.41999C18.1981 4.90338 18.8995 4.61322 19.6307 4.61322C20.3619 4.61322 21.0632 4.90338 21.5807 5.41999L36.0007 19.8C36.5173 20.3175 36.8074 21.0188 36.8074 21.75C36.8074 22.4812 36.5173 23.1825 36.0007 23.7L21.6207 38.1C21.3624 38.3594 21.0554 38.5653 20.7173 38.7057C20.3792 38.8462 20.0168 38.9185 19.6507 38.9185C19.2846 38.9185 18.9221 38.8462 18.584 38.7057C18.246 38.5653 17.939 38.3594 17.6807 38.1Z" fill="url(#paint3_linear_2014_11459)"/>
</g>
</g>
</g>
<defs>
<linearGradient id="paint0_linear_2014_11459" x1="-4.5" y1="-9.84" x2="63.68" y2="71.1" gradientUnits="userSpaceOnUse">
<stop stop-color="#9FA0A0"/>
<stop offset="0.15" stop-color="#BCBDBD"/>
<stop offset="0.36" stop-color="#E1E1E1"/>
<stop offset="0.48" stop-color="#EFEFEF"/>
<stop offset="1" stop-color="#727171"/>
</linearGradient>
<linearGradient id="paint1_linear_2014_11459" x1="55.4575" y1="-2.48" x2="-19.7625" y2="60.88" gradientUnits="userSpaceOnUse">
<stop offset="0.09" stop-color="#9FA0A0"/>
<stop offset="0.17" stop-color="#C7C8C8"/>
<stop offset="0.23" stop-color="#E9EAEA"/>
<stop offset="0.36" stop-color="#C6C7C7"/>
<stop offset="0.53" stop-color="#A2A2A2"/>
<stop offset="0.69" stop-color="#888787"/>
<stop offset="0.83" stop-color="#787777"/>
<stop offset="0.94" stop-color="#727171"/>
</linearGradient>
<linearGradient id="paint2_linear_2014_11459" x1="16.8807" y1="26.24" x2="36.7807" y2="26.24" gradientUnits="userSpaceOnUse">
<stop stop-color="#EBEBEB"/>
<stop offset="1" stop-color="#A1A1A1"/>
</linearGradient>
<linearGradient id="paint3_linear_2014_11459" x1="16.8807" y1="21.76" x2="36.7807" y2="21.76" gradientUnits="userSpaceOnUse">
<stop stop-color="#EBEBEB"/>
<stop offset="1" stop-color="#A1A1A1"/>
</linearGradient>
<clipPath id="clip0_2014_11459">
<rect width="48" height="48" fill="white"/>
</clipPath>
<clipPath id="clip1_2014_11459">
<rect width="48" height="48" fill="white"/>
</clipPath>
</defs>
</svg>
