<svg width="48" height="48" viewBox="0 0 48 48" fill="none" xmlns="http://www.w3.org/2000/svg">
<g clip-path="url(#clip0_2014_2660)">
<g clip-path="url(#clip1_2014_2660)">
<path d="M38.52 0H9.48C4.24434 0 0 4.24434 0 9.48V38.52C0 43.7557 4.24434 48 9.48 48H38.52C43.7557 48 48 43.7557 48 38.52V9.48C48 4.24434 43.7557 0 38.52 0Z" fill="url(#paint0_linear_2014_2660)"/>
<mask id="mask0_2014_2660" style="mask-type:luminance" maskUnits="userSpaceOnUse" x="0" y="0" width="48" height="48">
<path d="M38.52 0H9.48C4.24434 0 0 4.24434 0 9.48V38.52C0 43.7557 4.24434 48 9.48 48H38.52C43.7557 48 48 43.7557 48 38.52V9.48C48 4.24434 43.7557 0 38.52 0Z" fill="white"/>
</mask>
<g mask="url(#mask0_2014_2660)">
<path d="M10.8375 46.44L37.1775 46.44C42.2917 46.44 46.4375 42.2942 46.4375 37.18L46.4375 10.84C46.4375 5.72585 42.2917 1.58001 37.1775 1.58001L10.8375 1.58001C5.72334 1.58001 1.5775 5.72585 1.5775 10.84L1.5775 37.18C1.5775 42.2942 5.72334 46.44 10.8375 46.44Z" fill="url(#paint1_linear_2014_2660)"/>
</g>
<path d="M32.0015 40.14C32.5121 39.6234 32.7984 38.9263 32.7984 38.2C32.7984 37.4737 32.5121 36.7766 32.0015 36.26L20.5615 24.82C20.3025 24.5516 20.1577 24.1931 20.1577 23.82C20.1577 23.4469 20.3025 23.0884 20.5615 22.82L32.0015 11.36C32.5133 10.84 32.8001 10.1396 32.8001 9.40999C32.8001 8.68038 32.5133 7.98001 32.0015 7.45999C31.7437 7.18889 31.4335 6.97304 31.0897 6.82554C30.7459 6.67805 30.3756 6.60199 30.0015 6.60199C29.6274 6.60199 29.2572 6.67805 28.9134 6.82554C28.5696 6.97304 28.2593 7.18889 28.0015 7.45999L13.6015 21.86C13.091 22.3766 12.8047 23.0737 12.8047 23.8C12.8047 24.5263 13.091 25.2234 13.6015 25.74L28.0015 40.14C28.2593 40.4111 28.5696 40.6269 28.9134 40.7744C29.2572 40.9219 29.6274 40.998 30.0015 40.998C30.3756 40.998 30.7459 40.9219 31.0897 40.7744C31.4335 40.6269 31.7437 40.4111 32.0015 40.14Z" fill="white"/>
<g style="mix-blend-mode:color-burn">
<path d="M31.9994 42.58C32.5099 42.0633 32.7962 41.3663 32.7962 40.64C32.7962 39.9136 32.5099 39.2166 31.9994 38.7L20.5594 27.28C20.3092 27.007 20.1704 26.6502 20.1704 26.28C20.1704 25.9097 20.3092 25.5529 20.5594 25.28L31.9994 13.8C32.4817 13.2849 32.75 12.6056 32.75 11.9C32.75 11.1943 32.4817 10.5151 31.9994 9.99997C31.7401 9.73141 31.4294 9.51782 31.0858 9.37194C30.7422 9.22606 30.3727 9.15088 29.9994 9.15088C29.6261 9.15088 29.2566 9.22606 28.913 9.37194C28.5694 9.51782 28.2587 9.73141 27.9994 9.99997L13.5994 24.4C13.0876 24.92 12.8008 25.6204 12.8008 26.35C12.8008 27.0796 13.0876 27.78 13.5994 28.3L27.9994 42.68C28.2639 42.9447 28.5795 43.1529 28.927 43.2919C29.2746 43.4309 29.6467 43.4977 30.0209 43.4884C30.395 43.479 30.7633 43.3937 31.1035 43.2375C31.4436 43.0813 31.7484 42.8576 31.9994 42.58Z" fill="url(#paint2_linear_2014_2660)"/>
</g>
<g style="mix-blend-mode:color-burn">
<path d="M31.9995 38.1C32.5113 37.58 32.7982 36.8796 32.7982 36.15C32.7982 35.4204 32.5113 34.72 31.9995 34.2L20.5595 22.78C20.3094 22.5071 20.1706 22.1503 20.1706 21.78C20.1706 21.4098 20.3094 21.053 20.5595 20.78L31.9995 9.30001C32.5101 8.78339 32.7964 8.08634 32.7964 7.36001C32.7964 6.63369 32.5101 5.93664 31.9995 5.42001C31.7417 5.14892 31.4315 4.93306 31.0877 4.78557C30.7439 4.63807 30.3737 4.56201 29.9995 4.56201C29.6254 4.56201 29.2552 4.63807 28.9114 4.78557C28.5676 4.93306 28.2574 5.14892 27.9995 5.42001L13.7595 19.8C13.2478 20.32 12.9609 21.0204 12.9609 21.75C12.9609 22.4796 13.2478 23.18 13.7595 23.7L28.1595 38.1C28.6767 38.5939 29.3644 38.8695 30.0795 38.8695C30.7947 38.8695 31.4824 38.5939 31.9995 38.1Z" fill="url(#paint3_linear_2014_2660)"/>
</g>
</g>
</g>
<defs>
<linearGradient id="paint0_linear_2014_2660" x1="-4.5" y1="-9.84" x2="63.68" y2="71.1" gradientUnits="userSpaceOnUse">
<stop stop-color="#9FA0A0"/>
<stop offset="0.15" stop-color="#BCBDBD"/>
<stop offset="0.36" stop-color="#E1E1E1"/>
<stop offset="0.48" stop-color="#EFEFEF"/>
<stop offset="1" stop-color="#727171"/>
</linearGradient>
<linearGradient id="paint1_linear_2014_2660" x1="55.4575" y1="-2.48" x2="-19.7625" y2="60.88" gradientUnits="userSpaceOnUse">
<stop offset="0.09" stop-color="#9FA0A0"/>
<stop offset="0.17" stop-color="#C7C8C8"/>
<stop offset="0.23" stop-color="#E9EAEA"/>
<stop offset="0.36" stop-color="#C6C7C7"/>
<stop offset="0.53" stop-color="#A2A2A2"/>
<stop offset="0.69" stop-color="#888787"/>
<stop offset="0.83" stop-color="#787777"/>
<stop offset="0.94" stop-color="#727171"/>
</linearGradient>
<linearGradient id="paint2_linear_2014_2660" x1="32.8594" y1="26.24" x2="12.9794" y2="26.24" gradientUnits="userSpaceOnUse">
<stop stop-color="#EBEBEB"/>
<stop offset="1" stop-color="#A1A1A1"/>
</linearGradient>
<linearGradient id="paint3_linear_2014_2660" x1="32.8595" y1="21.76" x2="12.9795" y2="21.76" gradientUnits="userSpaceOnUse">
<stop stop-color="#EBEBEB"/>
<stop offset="1" stop-color="#A1A1A1"/>
</linearGradient>
<clipPath id="clip0_2014_2660">
<rect width="48" height="48" fill="white"/>
</clipPath>
<clipPath id="clip1_2014_2660">
<rect width="48" height="48" fill="white"/>
</clipPath>
</defs>
</svg>
