<svg xmlns="http://www.w3.org/2000/svg" width="39.6" height="42.125" viewBox="0 0 39.6 42.125">
  <g id="eR4dI0.tif" transform="translate(189.998 -3.629)">
    <path id="Path_675" data-name="Path 675" d="M-165.029,5.574-179.809,22.8l-8.79,5.965,4.989,7.557,5.146-1.7,9.664,9.775L-166,41.047l-4.443-4.729,2.529-2.787-1.613-2.592,17.315-3.56-4.239-9.705,2.217-3.492L-159.634,13Z" fill="#ffdc55"/>
    <g id="Group_428" data-name="Group 428" transform="translate(-189.344 4.129)">
      <path id="Path_673" data-name="Path 673" d="M-164.84,4.129a3.522,3.522,0,0,1,2.182,1.952c1.192,2.143,2.442,4.254,3.669,6.378.066.114.135.227.229.384a3.316,3.316,0,0,1,3.266-.339,3.139,3.139,0,0,1,1.6,1.555c.766,1.588.22,3.087-1.613,4.4.069.134.136.275.214.41,1.332,2.309,2.675,4.613,3.995,6.929a2.6,2.6,0,0,1-1.685,3.917,2.608,2.608,0,0,1-2.188-.513.7.7,0,0,0-.492-.142q-6.549,1.389-13.093,2.805c-.011,0-.019.015-.072.06.249.235.494.468.74.7a2.179,2.179,0,0,1-.426,3.745l-.564.329c.106.116.2.221.293.319.9.909,1.838,1.788,2.7,2.732a3.207,3.207,0,0,1-.471,4.735,3.234,3.234,0,0,1-4.3-.372q-3.985-3.97-7.957-7.953c-.1-.1-.2-.217-.307-.341-.641.368-1.249.722-1.862,1.068a3.8,3.8,0,0,1-5.324-1.435q-1.241-2.123-2.46-4.259a3.8,3.8,0,0,1,1.452-5.407c2.087-1.211,4.18-2.412,6.265-3.625a2.325,2.325,0,0,0,.551-.45q1.845-2.056,3.672-4.127a.878.878,0,0,1,.869-.377.8.8,0,0,1,.378,1.381c-.906,1.033-1.825,2.056-2.737,3.083-.309.348-.616.7-.927,1.05l3.609,6.258c.413.716.839,1.425,1.236,2.149a.373.373,0,0,0,.481.209q8.225-1.772,16.452-3.537c.362-.077.722-.159,1.143-.252l-10.715-18.56c-.385.43-.747.831-1.106,1.235-.843.946-1.68,1.9-2.53,2.839a.792.792,0,0,1-1.3,0,.82.82,0,0,1,.158-1.116q1.86-2.1,3.726-4.187a.715.715,0,0,0,.208-.635,2.563,2.563,0,0,1,2.013-2.928.926.926,0,0,0,.143-.065ZM-175.726,32l-4.786-8.288c-.121.065-.2.106-.282.152q-2.857,1.649-5.713,3.3a2.206,2.206,0,0,0-.867,3.214q1.211,2.118,2.439,4.225a2.206,2.206,0,0,0,3.219.853c1.053-.6,2.1-1.211,3.152-1.817Zm10.474-26.272a.979.979,0,0,0-1.038.921,1.67,1.67,0,0,0,.227.785q5.762,10.011,11.544,20.011a2.674,2.674,0,0,0,.214.336,1.006,1.006,0,0,0,1.3.245,1,1,0,0,0,.418-1.249,4.673,4.673,0,0,0-.283-.527q-4.246-7.356-8.493-14.711c-.993-1.719-1.99-3.436-2.976-5.158A1.1,1.1,0,0,0-165.252,5.732ZM-177.694,34.99c.138.145.236.252.339.355l4.3,4.3,3.309,3.31a1.627,1.627,0,0,0,1.859.448,1.63,1.63,0,0,0,.49-2.73q-2.861-2.881-5.741-5.744c-.471-.471-.936-.95-1.421-1.407a.443.443,0,0,0-.388-.1C-175.855,33.919-176.75,34.445-177.694,34.99Zm7.495.5c.3-.174.64-.361.97-.559.493-.3.54-.671.127-1.062-.492-.467-.993-.925-1.5-1.379-.083-.075-.211-.174-.3-.158-.685.13-1.364.285-2.034.43Zm13.853-18.452a1.671,1.671,0,0,0,.916-2.453,1.646,1.646,0,0,0-2.514-.313Z" transform="translate(189.344 -4.129)" fill="#2a2968" stroke="#2a2968" stroke-width="1"/>
      <path id="Path_674" data-name="Path 674" d="M-149.687,32.887a.8.8,0,0,1-.793-.787.813.813,0,0,1,.789-.8.8.8,0,0,1,.806.814A.78.78,0,0,1-149.687,32.887Z" transform="translate(165.305 -20.937)" fill="#2a2968" stroke="#2a2968" stroke-width="1"/>
    </g>
  </g>
</svg>
