<?xml version="1.0" encoding="utf-8"?>
<!-- Generator: Adobe Illustrator 26.0.2, SVG Export Plug-In . SVG Version: 6.00 Build 0)  -->
<svg version="1.1" xmlns="http://www.w3.org/2000/svg" xmlns:xlink="http://www.w3.org/1999/xlink" x="0px" y="0px"
	 viewBox="0 0 140 140" style="enable-background:new 0 0 140 140;" xml:space="preserve">
<style type="text/css">
	.st0{display:none;}
	.st1{display:inline;fill:#2A2968;}
	.st2{display:inline;fill:#FFDC55;}
	.st3{fill:#FF5809;}
	.st4{fill:#FFFFFF;}
	.st5{fill:#F2E600;}
</style>
<g id="圖層_1" class="st0">
	<path class="st1" d="M35.5,132.5c-1.3-0.8-1.5-1.9-1.3-3.3c0.6-3.6,2.9-5.9,5.9-7.6c0.4-0.2,0.8-0.4,1.2-0.6c0.8-0.2,1-0.7,1-1.5
		c0-6.9,0-13.8,0-20.6c0-0.5-0.1-1.1-0.4-1.4c-8.2-10.2-9.5-21.6-5.9-33.9c0.9-3.1,2.3-6.1,3.5-9.3c-1.4-0.4-2.9-1-4.4-1.3
		c-3.9-0.7-7.8-1.3-11.7-1.6c-2-0.2-3.8-0.7-5.4-1.7c-4.7-2.8-7.2-7.1-8.1-12.4c-0.3-1.7-0.4-3.4-0.4-5.1c0-2.2,1.2-3.7,3.3-4.2
		c3.8-1,7.5-2,11.3-2.9c1.9-0.5,3.3-1.5,4.4-3.2c1.3-2.1,2.7-4.1,4-6.2c1.6-2.6,3.9-4.3,6.9-5.2c4.9-1.4,9.8-2.5,14.9-2.9
		c0.3,0,0.6-0.1,0.9-0.2c1,0,2.1,0,3.1,0c6.1,1.4,9.3,5.8,11.7,11.2c2.5,5.5,3.4,11.3,3.3,17.3c-0.1,3.7-1.6,6.7-4.4,9
		c-0.6,0.5-0.8,0.9-0.6,1.6c0.3,1.5,0.5,3,0.7,4.6c0.5,0,0.9,0,1.4,0c11.6,0,23.3,0,34.9,0c4.5,0,7,2.5,7,7.1c0,12,0,23.9,0,35.9
		c0,4.5-2.5,7-6.9,7c-1.5,0-3,0-4.6,0c0.4,2.2,0.7,4.4,1.2,6.5c0.2,1.1,1.1,1.4,2.1,1.4c9.8-0.6,17.7-8.5,18.4-18.3
		c0-0.7,0.1-1.5,0.1-2.2c0.1-1.1,0.7-1.8,1.7-2c1-0.2,1.9,0.2,2.2,1.2c1.1,2.8,2.2,5.7,3,8.6c0.9,3.4,1.5,6.9,1.2,10.5
		c-0.6,5.8-3.5,10.5-7.8,14.3c-4.7,4.2-10.4,6.2-16.6,6.8c-0.8,0.1-1.7,0.1-2.5,0.2c-0.3,0-0.6,0-0.8,0.2c-2.2,2.2-4.9,3.3-7.8,4
		C75.2,132.5,55.4,132.5,35.5,132.5z M58.4,100.8c-2.9-1.5-3.8-3.9-3.8-7.1c0.1-11.9,0-23.8,0-35.8c0-4,2.6-6.6,6.6-6.7
		c1.2,0,2.3,0,3.5,0c-0.2-1.4-0.4-2.7-0.6-4c-0.6,0-1.2,0.1-1.7,0.1c-2.7,0.3-5.3-0.1-7.8-1.1c-2.6-1-4.1-3.2-4.1-6
		c0-2.8,0-5.5,0-8.3c0-1.9,0-3.8,0-5.7c0-1.2,0.9-2.1,2-2.1s2,0.9,2,2.1c0,0.3,0,0.7,0,1c0,4.2,0,8.4,0,12.6c0,1.6,0.4,2.2,1.9,2.7
		c1,0.3,2,0.6,3,0.7c5.3,0.7,9.5-2.7,9.6-7.7c0.1-3.9-0.4-7.8-1.5-11.6c-1.2-3.8-2.8-7.4-5.9-10.2c-1.6-1.4-3.4-2.3-5.6-2.1
		c-5.4,0.4-10.6,1.4-15.8,2.9c-1.9,0.6-3.3,1.6-4.4,3.3c-1.3,2.2-2.8,4.2-4.2,6.4c-1.6,2.6-3.9,4.2-6.8,4.9
		c-1.1,0.2-2.1,0.5-3.2,0.8c0,1.6,0,3.1,0,4.5c-0.1,2.5-1.8,4.1-4.2,4.2c-1,0-2,0-3,0c0.7,2.5,2,4.4,3.8,6c1.5,1.3,3.2,2.3,5.4,2.4
		c5.8,0.2,11.5,1.2,17,3.2c3,1,4,3.4,2.7,6.3c-0.9,2-1.9,4-2.7,6.1c-4.1,11.9-3.2,23,5.2,32.9c0.4,0.4,0.6,1.2,0.6,1.8
		c0,8.1,0,16.3,0,24.4c0,1.2-0.6,2-1.7,2.4c-1,0.4-2.1,0.8-3.1,1.4c-1,0.7-1.9,1.6-2.8,2.4c0.1,0.1,0.2,0.2,0.2,0.4
		c3.9,0,7.8,0,11.8,0c0.3,0,0.7-0.5,0.9-0.8c1.2-2,2.6-3.6,4.5-4.8c1.4-0.8,2.9-1.4,4.4-2.2C55.5,114.6,55.9,107.9,58.4,100.8z
		 M83.4,55.4c-7.3,0-14.6,0-21.9,0c-2.1,0-2.8,0.7-2.8,2.8c0,12,0,24.1,0,36.1c0,2.1,0.7,2.8,2.7,2.8c14.6,0,29.2,0,43.8,0
		c2.1,0,2.8-0.7,2.8-2.9c0-12,0-23.9,0-35.9c0-2.2-0.7-2.9-2.9-2.9C97.9,55.4,90.6,55.4,83.4,55.4z M96.3,101.2c-0.6,0-1.1,0-1.5,0
		c-9.6,0-19.2,0-28.8,0c-3.6,0-3.6,0-4.6,3.6c-1.5,5.4-0.7,13.3,6.4,15.5c0.9,0.3,1.2,1.1,1.1,2.1c-0.1,0.9-0.7,1.5-1.6,1.7
		c-0.5,0.1-1,0.1-1.4,0.1c-2.6,0.1-5,0.6-7.2,2c-0.8,0.5-1.6,1.2-2.4,1.9c0,0.1,0.1,0.2,0.2,0.3c0.4,0,0.8,0,1.2,0
		c8.4,0,16.8,0,25.2,0c2.9,0,4.3-1.2,4.8-4.2c0.2-1.4,1.1-2.2,2.2-2.1c1.2,0.1,2,1.1,1.8,2.5c-0.2,1.2-0.5,2.4-0.8,3.7
		c1.1,0,2.3,0.1,3.4,0c2.4-0.3,4.7-1,6.2-3.3c0.3-0.5,1.1-0.7,1.8-0.8c1.2-0.2,2.5-0.1,3.7-0.3c6.5-0.8,12.2-3.2,16.6-8.2
		c4.7-5.4,5-11.7,3.1-18c-1.1,1.9-2.1,4.1-3.5,6c-4.4,5.7-10.5,8.4-17.3,9.6c-3.5,0.6-6.3-1.6-7-5.2
		C97.2,105.8,96.8,103.5,96.3,101.2z M17.5,31.1c-1.1,0.3-1.9,0.6-2.8,0.7c-1.1,0.1-1.4,0.8-1.2,1.7c0,0.3,0.1,0.7,0.2,1
		c1.3,0,2.6,0,3.9,0C17.5,33.3,17.5,32.3,17.5,31.1z"/>
	<path class="st2" d="M83.4,55.4c7.3,0,14.5,0,21.8,0c2.2,0,2.9,0.7,2.9,2.9c0,12,0,23.9,0,35.9c0,2.2-0.7,2.9-2.8,2.9
		c-14.6,0-29.2,0-43.8,0c-2,0-2.7-0.7-2.7-2.8c0-12,0-24.1,0-36.1c0-2.1,0.7-2.8,2.8-2.8C68.7,55.4,76.1,55.4,83.4,55.4z M77.3,68.8
		c0.9,1,1.6,1.8,2.4,2.6c0.5,0.5,0.5,1,0.1,1.5c-1.3,1.6-2.5,3.2-3.9,4.6c-3.3,3.2-7.3,5.3-11.6,7c-1.3,0.5-1.9,1.6-1.4,2.8
		c0.5,1.1,1.6,1.6,2.9,1.1c4.3-1.7,8.5-3.8,11.9-6.9c1.9-1.7,3.6-3.8,5.5-5.7c1.2,1.7,2.4,3.4,3.7,5.3c-0.2,0.3-0.4,0.4-0.6,0.6
		c-3.3,3.2-7.1,5.5-11.4,7c-1.5,0.5-2.1,1.6-1.7,2.8c0.4,1.2,1.6,1.6,3,1.1c3.8-1.3,7.3-3.2,10.5-5.8c0.7-0.6,1.5-1.2,2.4-2
		c0.8,2.2,1.6,4.2,2.4,6.2c0.6,1.5,1.5,2.1,2.7,1.7c1.2-0.4,1.7-1.5,1.2-3c-0.6-1.8-1.2-3.5-2-5.2c-4.6-9.4-11.3-17.3-18.8-24.3
		c-0.9-0.9-2.1-0.8-2.9,0c-0.8,0.9-0.7,2.1,0.2,3.1c0.8,0.8,1.6,1.6,2.5,2.4c-0.3,0.4-0.5,0.9-0.8,1.2c-1.4,1.4-2.7,2.9-4.3,4.1
		c-1.5,1.2-3.3,2.1-5,3.1c-1.3,0.8-1.8,1.9-1.2,3c0.6,1.1,1.7,1.4,3,0.8c0.7-0.3,1.3-0.6,1.9-1C71.6,75,74.7,72.3,77.3,68.8z
		 M103.9,90.5c-0.2-0.9-0.3-2.1-0.6-3.2c-1.7-7.7-5.4-14.4-10.3-20.4c-1.9-2.3-4-4.4-6.1-6.6c-0.7-0.8-1.6-0.9-2.5-0.3
		c-0.9,0.5-1.2,1.4-0.9,2.3c0.2,0.5,0.6,1,1.1,1.4c5.8,5.7,10.6,12.2,13.4,20c0.8,2.4,1.3,4.9,1.9,7.4c0.3,1.2,1.2,1.9,2.2,1.8
		C103.1,92.8,103.9,91.8,103.9,90.5z"/>
	<path class="st1" d="M77.3,68.8C74.7,72.3,71.6,75,68,77c-0.6,0.3-1.3,0.7-1.9,1c-1.3,0.6-2.4,0.3-3-0.8c-0.6-1.1-0.1-2.2,1.2-3
		c1.7-1,3.5-1.9,5-3.1c1.5-1.2,2.9-2.7,4.3-4.1c0.3-0.3,0.5-0.8,0.8-1.2c-0.9-0.8-1.7-1.6-2.5-2.4c-0.9-0.9-1-2.2-0.2-3.1
		c0.8-0.8,2-0.9,2.9,0c7.6,7.1,14.2,14.9,18.8,24.3c0.8,1.7,1.4,3.4,2,5.2c0.5,1.5,0,2.6-1.2,3c-1.2,0.4-2.1-0.2-2.7-1.7
		c-0.7-2-1.6-4.1-2.4-6.2c-1,0.8-1.7,1.4-2.4,2c-3.2,2.6-6.7,4.5-10.5,5.8c-1.4,0.5-2.6,0.1-3-1.1c-0.4-1.2,0.2-2.3,1.7-2.8
		c4.3-1.5,8.1-3.8,11.4-7c0.2-0.2,0.3-0.3,0.6-0.6c-1.3-1.8-2.5-3.6-3.7-5.3c-1.9,2-3.6,4-5.5,5.7c-3.5,3.2-7.6,5.3-11.9,6.9
		c-1.3,0.5-2.4,0-2.9-1.1c-0.4-1.1,0.1-2.2,1.4-2.8c4.2-1.7,8.3-3.8,11.6-7c1.4-1.4,2.6-3.1,3.9-4.6c0.4-0.5,0.4-1-0.1-1.5
		C78.9,70.7,78.2,69.8,77.3,68.8z"/>
	<path class="st1" d="M103.9,90.5c0,1.3-0.8,2.3-1.8,2.4c-1,0.1-2-0.6-2.2-1.8c-0.6-2.5-1-5-1.9-7.4c-2.8-7.8-7.6-14.3-13.4-20
		c-0.4-0.4-0.9-0.9-1.1-1.4c-0.3-0.9,0-1.8,0.9-2.3c0.9-0.5,1.8-0.4,2.5,0.3c2,2.2,4.2,4.3,6.1,6.6c4.9,6,8.6,12.7,10.3,20.4
		C103.6,88.4,103.7,89.5,103.9,90.5z"/>
</g>
<g id="圖層_2">
	<g>
		<path class="st3" d="M100.1,101.2c0.4,2.4,0.6,4.5,1.2,6.5c0.5,1.8,2,1.6,3.4,1.4c9.6-1.4,16.2-8.4,17.3-18c0.1-1,0.1-2,0.4-2.9
			c0.2-0.5,0.9-1.1,1.4-1.2c0.5-0.1,1.5,0.3,1.7,0.7c2.5,5.4,4.5,11,4.6,17.1c0.1,4.8-1.4,9.2-4.4,12.9c-4.8,6-11.2,9.3-18.8,10.2
			c-2.3,0.3-4.5,0.6-6.5,2.2c-2.2,1.7-5,2.4-8,2.4c-18.3-0.1-36.7,0-55,0c-3.2,0-4-1.1-3.2-4.3c0.8-3.3,3.1-5.2,5.9-6.6
			c1.4-0.7,1.9-1.6,1.9-3.2c-0.1-6.3-0.1-12.7-0.2-19c0-1-0.4-2.1-1-2.9c-8.6-11.7-8.5-24.2-3.6-37.2c0.2-0.5,0.4-1,0.6-1.5
			c0.4-1.1,0.8-2.3,1.4-3.9c-3.6-0.7-7.1-1.4-10.6-2.1c-1.3-0.2-2.7-0.4-4.1-0.5c-9-0.4-13.9-7.4-14.9-14c-1.3-7.9-0.8-8.6,7-10.4
			c0.1,0,0.1,0,0.2-0.1c10.5-3,8.5-0.6,14.8-10.5c2.5-4,6.2-5.8,10.5-6.7C46,9,50,8.4,54.1,7.7c4.1-0.7,7.6,0.7,10.4,3.6
			c4.8,4.9,6.7,11.2,7.8,17.7c0.3,2,0.4,4.1,0.4,6.2c0,3.5-1.1,6.6-3.7,9c-1.3,1.3-1.7,5.5-0.5,6.7c0.4,0.4,1.4,0.4,2.1,0.4
			c11.1,0,22.2,0,33.2,0c5.8,0,7.9,2,7.9,7.9c0,11.4,0,22.8,0,34.2c0,5.6-2.2,7.7-7.8,7.8C102.7,101.2,101.6,101.2,100.1,101.2z
			 M63.7,47.6c-3.1-0.4-5.8-0.6-8.5-1.2c-3.6-0.9-5.1-2.9-5.2-6.6c-0.1-4.2,0-8.4,0-12.6c0-1.4,0.1-3,2.1-2.9
			c1.8,0.1,1.8,1.6,1.8,2.9c0,4-0.1,8,0.1,11.9c0,1,0.4,2.6,1.2,3c2.9,1.6,6.1,1.8,9.1,0.4c2.8-1.3,4.4-3.7,4.5-6.7
			c0.2-6.8-1.1-13.4-4.9-19.2c-2.1-3.2-4.8-5.7-9-5.1c-2.8,0.4-5.6,0.9-8.4,1.3c-6,0.9-11.2,2.9-13.7,9.1c-0.2,0.5-0.6,0.9-0.9,1.3
			c-1.8,3.2-4.5,5.2-8,5.9c-2.1,0.4-2.8,1.3-2.8,3.5c0.2,4.6-1,5.7-5.5,5.9c-0.4,0-0.9,0.1-1.4,0.2c0.1,0.6,0.1,1,0.2,1.4
			c1.5,4.1,5.5,6.6,10,7.1c5.2,0.7,10.4,1.8,15.5,3c3,0.7,3.9,2.9,2.8,5.9c-0.4,1.1-0.9,2.1-1.4,3.1c-5.4,12.6-5.4,24.6,3.4,35.8
			c0.6,0.8,1,1.9,1,2.9c0.1,7.6,0.1,15.1,0.1,22.7c0,1.8-0.6,2.9-2.4,3.7c-1.9,0.8-3.6,2.2-5.3,3.4c0.1,0.2,0.2,0.5,0.4,0.7
			c2.6,0,5.2-0.1,7.8,0c2.7,0.2,5-0.1,6.5-2.9c0.6-1.1,1.9-1.9,3-2.7c1.3-0.9,2.8-1.6,3.9-2.2c-1-2.3-2.2-4.4-2.9-6.6
			c-1.2-3.9-0.5-7.7,0.6-11.5c0.3-1.1,0.1-1.8-0.7-2.8c-1.2-1.6-2.5-3.6-2.5-5.4C54,82.3,54,70.1,54.1,58c0-4.4,2.5-6.5,6.8-6.6
			c1,0,2.1,0,3.3,0C64,49.8,63.9,48.6,63.7,47.6z M82.9,97.2C82.9,97.1,82.9,97.1,82.9,97.2c7,0,14.1,0,21.1,0
			c3.1,0,3.6-0.5,3.6-3.6c0-11.3,0-22.6,0-33.9c0-3.9-0.3-4.3-4.3-4.3c-13.9,0-27.8,0-41.7,0c-2.8,0-3.4,0.6-3.4,3.3
			c0,11.7,0,23.4,0,35.1c0,2.7,0.7,3.4,3.4,3.4C68.7,97.2,75.8,97.2,82.9,97.2z M124.9,98c-0.4,0.6-0.9,1.2-1.2,1.7
			c-3.9,8.2-10.9,11.8-19.3,13.4c-3.5,0.6-5.9-1.1-6.8-4.5c-0.5-1.9-0.8-3.9-1.4-5.8c-0.2-0.6-1.1-1.5-1.6-1.5
			c-10.2-0.1-20.3-0.1-30.5,0c-0.8,0-1.9,0.5-2.3,1.1c-3.8,5.7-1.3,14.7,4.8,17.8c0.7,0.4,1.1,1.5,1.7,2.3c-0.8,0.6-1.5,1.2-2.4,1.6
			c-0.6,0.3-1.4,0-2,0.2c-3,0.5-5.9,1.3-8.1,4.1c1,0.1,1.7,0.1,2.3,0.1c7.8,0,15.6,0,23.4,0c4,0,4.5-0.5,5.9-4.3
			c0.3-0.8,1.5-1.2,2.2-1.7c0.5,0.8,1.3,1.6,1.3,2.5c0.1,1.1-0.3,2.2-0.6,3.5c3.2,0.2,6.3,0.2,8.4-2c1.8-1.9,3.7-2.1,5.9-2.3
			c5.8-0.5,11-2.4,15.4-6.3C125.5,113.1,127.9,105.6,124.9,98z M16.8,30.7c-1.5,0.6-2.7,1.1-3.8,1.7c-0.2,0.1,0,1.6,0.2,1.6
			c1.2,0.3,2.4,0.3,3.7,0.4C16.8,33.2,16.8,32.2,16.8,30.7z"/>
		<path class="st4" d="M63.7,47.6c0.1,1,0.3,2.2,0.5,3.8c-1.3,0-2.3,0-3.3,0c-4.4,0.1-6.8,2.2-6.8,6.6C54,70.1,54,82.3,54.2,94.4
			c0,1.8,1.4,3.8,2.5,5.4c0.7,1,1,1.6,0.7,2.8c-1.1,3.8-1.8,7.7-0.6,11.5c0.7,2.2,1.9,4.3,2.9,6.6c-1.2,0.7-2.6,1.3-3.9,2.2
			c-1.1,0.8-2.5,1.6-3,2.7c-1.5,2.8-3.8,3.1-6.5,2.9c-2.6-0.2-5.2,0-7.8,0c-0.1-0.2-0.2-0.5-0.4-0.7c1.8-1.1,3.4-2.5,5.3-3.4
			c1.8-0.8,2.4-1.8,2.4-3.7c-0.1-7.6,0-15.1-0.1-22.7c0-1-0.4-2.1-1-2.9c-8.8-11.2-8.8-23.3-3.4-35.8c0.4-1.1,1-2.1,1.4-3.1
			c1-2.9,0.1-5.2-2.8-5.9c-5.1-1.2-10.3-2.3-15.5-3c-4.5-0.6-8.6-3.1-10-7.1c-0.1-0.4-0.2-0.9-0.2-1.4c0.6-0.1,1-0.2,1.4-0.2
			c4.5-0.3,5.7-1.3,5.5-5.9c-0.1-2.2,0.7-3.1,2.8-3.5c3.6-0.7,6.2-2.7,8-5.9c0.3-0.5,0.7-0.8,0.9-1.3c2.5-6.2,7.7-8.2,13.7-9.1
			c2.8-0.4,5.6-0.9,8.4-1.3c4.3-0.5,6.9,2,9,5.1c3.8,5.8,5.1,12.4,4.9,19.2c-0.1,3.1-1.7,5.5-4.5,6.7c-3,1.4-6.2,1.1-9.1-0.4
			c-0.7-0.4-1.1-1.9-1.2-3c-0.1-4,0-7.9-0.1-11.9c0-1.3,0-2.8-1.8-2.9c-2-0.1-2,1.5-2.1,2.9c0,4.2-0.1,8.4,0,12.6
			c0.1,3.6,1.6,5.7,5.2,6.6C57.9,47,60.6,47.2,63.7,47.6z"/>
		<path class="st5" d="M82.9,97.2c-7.1,0-14.2,0-21.3,0c-2.7,0-3.4-0.7-3.4-3.4c0-11.7,0-23.4,0-35.1c0-2.8,0.6-3.3,3.4-3.3
			c13.9,0,27.8-0.1,41.7,0c4,0,4.3,0.4,4.3,4.3c0,11.3,0,22.6,0,33.9c0,3-0.5,3.6-3.6,3.6C96.9,97.2,89.9,97.1,82.9,97.2
			C82.9,97.1,82.9,97.1,82.9,97.2z M88.9,85.6c0.7,1.8,1.5,4,2.6,6.1c0.3,0.6,1.9,1.1,2.3,0.9c0.7-0.5,1.3-1.8,1.1-2.5
			c-0.4-1.8-1.2-3.5-1.9-5.1C89.6,77.4,84.6,71,79,65c-1.6-1.7-3.3-3.4-5.2-4.8c-0.5-0.4-2-0.3-2.3,0.1c-0.5,0.6-0.4,1.7-0.2,2.6
			c0.1,0.5,0.7,0.9,1.2,1.3c1.4,1.1,1.5,2.2,0.1,3.3c-2.9,2.2-5.9,4.3-8.6,6.7c-0.7,0.6-1.4,2.1-1.2,3c0.4,1.5,2,1.4,3.1,0.6
			c2.7-1.7,5.3-3.5,7.9-5.4c1.2-0.9,2.1-2.1,3.1-3.2c3.5,2.6,3.5,2.6,1.2,5.7c-0.2,0.3-0.5,0.6-0.7,0.9c-3.4,4.3-8.2,6.7-13.1,8.9
			c-1.3,0.6-2.4,1.5-1.5,2.7c0.5,0.7,2.2,1.2,3.1,0.9c2.8-1.1,5.7-2.4,8.1-4.1c3.2-2.3,6.1-5.2,9.2-8c0.8,1.2,1.5,2.5,2.5,3.5
			c1.1,1.1,0.8,1.9-0.3,2.6c-3.3,2.1-6.6,4.2-10.1,6.2c-1.3,0.7-2.9,1.2-2.3,3c0.7,2,2.5,1.5,3.9,0.8C80.8,90.2,84.7,87.9,88.9,85.6
			z M103.6,91c-0.5-2.3-0.7-4.1-1.2-5.8c-2.7-9.2-7.9-16.9-14.6-23.6c-1.2-1.2-2.4-2.9-4.1-1.1c-1.5,1.7,0.2,2.9,1.3,4
			c6.3,6.4,11.4,13.6,13.6,22.6c0.4,1.5,0.5,3,1.2,4.4c0.3,0.7,1.6,1.4,2.2,1.2C102.6,92.5,103.1,91.5,103.6,91z"/>
		<path class="st4" d="M124.9,98c3,7.6,0.6,15.1-4.9,19.9c-4.4,3.9-9.6,5.8-15.4,6.3c-2.2,0.2-4.2,0.4-5.9,2.3
			c-2.1,2.2-5.2,2.2-8.4,2c0.2-1.3,0.7-2.4,0.6-3.5c-0.1-0.9-0.9-1.7-1.3-2.5c-0.8,0.6-1.9,1-2.2,1.7c-1.4,3.9-1.9,4.3-5.9,4.3
			c-7.8,0-15.6,0-23.4,0c-0.7,0-1.3-0.1-2.3-0.1c2.2-2.8,5.1-3.6,8.1-4.1c0.7-0.1,1.5,0.1,2-0.2c0.9-0.4,1.6-1.1,2.4-1.6
			c-0.6-0.8-0.9-1.9-1.7-2.3c-6.1-3.1-8.6-12.1-4.8-17.8c0.4-0.6,1.5-1.1,2.3-1.1c10.2-0.1,20.3-0.1,30.5,0c0.6,0,1.4,0.9,1.6,1.5
			c0.6,1.9,0.9,3.9,1.4,5.8c0.9,3.4,3.4,5.1,6.8,4.5c8.4-1.5,15.4-5.2,19.3-13.4C124,99.2,124.4,98.6,124.9,98z"/>
		<path class="st4" d="M16.8,30.7c0,1.5,0,2.4,0,3.8c-1.2-0.1-2.5-0.2-3.7-0.4c-0.2,0-0.4-1.5-0.2-1.6
			C14.1,31.8,15.3,31.4,16.8,30.7z"/>
		<path class="st3" d="M88.9,85.6c-4.2,2.3-8.2,4.6-12.2,6.7c-1.4,0.7-3.2,1.2-3.9-0.8c-0.6-1.8,1-2.3,2.3-3
			c3.4-1.9,6.7-4.1,10.1-6.2c1-0.7,1.4-1.4,0.3-2.6c-1-1-1.7-2.3-2.5-3.5c-3.2,2.8-6,5.6-9.2,8c-2.4,1.8-5.3,3-8.1,4.1
			c-0.8,0.3-2.6-0.2-3.1-0.9c-0.9-1.3,0.2-2.2,1.5-2.7c4.9-2.2,9.6-4.6,13.1-8.9c0.2-0.3,0.5-0.6,0.7-0.9c2.4-3.1,2.4-3.1-1.2-5.7
			c-1,1.1-1.9,2.3-3.1,3.2c-2.5,1.9-5.2,3.7-7.9,5.4c-1.1,0.7-2.6,0.8-3.1-0.6c-0.2-0.8,0.4-2.3,1.2-3c2.8-2.3,5.8-4.4,8.6-6.7
			c1.4-1.1,1.3-2.2-0.1-3.3c-0.5-0.4-1.1-0.8-1.2-1.3c-0.2-0.9-0.2-2,0.2-2.6c0.3-0.4,1.9-0.5,2.3-0.1c1.8,1.5,3.6,3.1,5.2,4.8
			c5.5,6,10.6,12.4,14.1,19.9c0.8,1.7,1.6,3.4,1.9,5.1c0.2,0.8-0.5,2-1.1,2.5c-0.4,0.3-2-0.3-2.3-0.9C90.4,89.6,89.7,87.4,88.9,85.6
			z"/>
		<path class="st3" d="M103.6,91c-0.4,0.5-1,1.5-1.7,1.7c-0.7,0.1-1.9-0.6-2.2-1.2c-0.6-1.3-0.8-2.9-1.2-4.4
			c-2.2-8.9-7.3-16.1-13.6-22.6c-1.1-1.1-2.8-2.3-1.3-4c1.7-1.8,3,0,4.1,1.1c6.8,6.7,11.9,14.4,14.6,23.6
			C102.8,86.9,103.1,88.7,103.6,91z"/>
	</g>
</g>
</svg>
