<svg xmlns="http://www.w3.org/2000/svg" width="15.044" height="18.283" viewBox="0 0 15.044 18.283">
  <g id="WdIlrx.tif" transform="translate(0.125 0.125)">
    <path id="Path_750" data-name="Path 750" d="M-180.784-24.719a4.21,4.21,0,0,1-.478-.166,1.572,1.572,0,0,1-.247-2.69.307.307,0,0,0,.146-.288c-.01-.475.007-.951-.015-1.425a1.092,1.092,0,0,0-.843-1.007,1.125,1.125,0,0,0-1.216.467,1.192,1.192,0,0,0-.194.683c0,.475,0,.951,0,1.426a2.71,2.71,0,0,1-2.908,2.752,2.717,2.717,0,0,1-2.518-2.649c-.011-1.156,0-2.312,0-3.468,0-.143-.023-.205-.188-.235a5.5,5.5,0,0,1-4.5-4.852,1.127,1.127,0,0,0-.031-.136v-.6a.98.98,0,0,1,.47-.563c.037-.018.056-.106.056-.161,0-.763,0-1.526,0-2.289a2,2,0,0,1,1.365-2.007.241.241,0,0,0,.118-.128,1,1,0,0,1,.992-.7c.17,0,.341,0,.511,0a.986.986,0,0,1,.958.978.987.987,0,0,1-.962.992c-.129,0-.258,0-.387,0a1.034,1.034,0,0,1-1.084-.617,1.4,1.4,0,0,0-.978,1.3c-.012.833-.006,1.667,0,2.5a.221.221,0,0,0,.1.152.8.8,0,0,1,.421.707,3.982,3.982,0,0,0,.644,2.144.272.272,0,0,1-.042.4c-.136.093-.289.051-.4-.119a4.419,4.419,0,0,1-.726-2.266c0-.041,0-.082,0-.123-.008-.187-.117-.312-.268-.309a.275.275,0,0,0-.258.315,4.731,4.731,0,0,0,.531,2.185,4.917,4.917,0,0,0,3.8,2.7.39.39,0,0,1,.387.449q0,.995,0,1.99c0,.047,0,.094,0,.141a.273.273,0,0,0,.266.273.265.265,0,0,0,.259-.278c.005-.282,0-.563,0-.845,0-.434,0-.869,0-1.3a.38.38,0,0,1,.373-.425,4.966,4.966,0,0,0,4.257-4.021,6.238,6.238,0,0,0,.085-.822c.014-.23-.092-.363-.261-.363s-.258.131-.265.349a4.4,4.4,0,0,1-1.553,3.289,4.444,4.444,0,0,1-5.659.121c-.16-.128-.2-.262-.126-.391.092-.155.262-.173.438-.034a3.986,3.986,0,0,0,1.435.723,3.927,3.927,0,0,0,4.909-3.341c.016-.146.023-.292.03-.439a.787.787,0,0,1,.421-.7.182.182,0,0,0,.108-.191c0-.81,0-1.62,0-2.43a1.428,1.428,0,0,0-.978-1.348,1.053,1.053,0,0,1-1.133.621,3.962,3.962,0,0,1-.542-.034.972.972,0,0,1-.757-1.058.991.991,0,0,1,.947-.878c.182-.006.364,0,.546,0a1,1,0,0,1,.956.675.3.3,0,0,0,.154.158,2.007,2.007,0,0,1,1.337,1.94q0,1.162,0,2.324a.221.221,0,0,0,.128.232.777.777,0,0,1,.4.731,5.506,5.506,0,0,1-3.563,5.1c-.367.134-.751.221-1.148.336a.227.227,0,0,0-.008.055c0,1.18-.006,2.359,0,3.539a1.063,1.063,0,0,0,.623.989,1.071,1.071,0,0,0,1.15-.084,1.047,1.047,0,0,0,.479-.876c.009-.5,0-1.01,0-1.514a2.709,2.709,0,0,1,2.32-2.742,2.572,2.572,0,0,1,1.607.254c.182.092.249.234.18.379s-.221.18-.407.1a2.132,2.132,0,0,0-2.32.234,2.109,2.109,0,0,0-.85,1.72c-.009.522.005,1.045-.006,1.567a1.648,1.648,0,0,1-1.43,1.6,1.65,1.65,0,0,1-1.789-1.115,2.291,2.291,0,0,1-.089-.57c-.015-.239,0-.48,0-.715h-.518a2.918,2.918,0,0,0,.45,2.1,2.206,2.206,0,0,0,2.4.738,2.179,2.179,0,0,0,1.509-2c.01-.528-.007-1.057.006-1.585a1.6,1.6,0,0,1,1.012-1.536,1.579,1.579,0,0,1,1.781.314,1.632,1.632,0,0,1,.527,1.278c0,.409,0,.819,0,1.239h.5c.006-.014.019-.029.019-.045,0-.51.005-1.021-.017-1.531a1.882,1.882,0,0,0-.308-.889c-.105-.174-.079-.331.061-.413s.282-.031.393.146a2.753,2.753,0,0,1,.406,1.507c0,.434,0,.869,0,1.3a.289.289,0,0,0,.1.2,1.534,1.534,0,0,1,.643,1.651,1.519,1.519,0,0,1-1.265,1.216.361.361,0,0,0-.064.027Zm1.267-1.579a1.059,1.059,0,0,0-1.046-1.062,1.058,1.058,0,0,0-1.066,1.041,1.059,1.059,0,0,0,1.054,1.071A1.06,1.06,0,0,0-179.516-26.3Zm-11.048-15.923c-.094,0-.188-.006-.282,0a.457.457,0,0,0-.432.449.451.451,0,0,0,.42.459,4.9,4.9,0,0,0,.6,0,.451.451,0,0,0,.423-.456.457.457,0,0,0-.429-.452C-190.364-42.227-190.464-42.22-190.564-42.221Zm4.578.912h0c.094,0,.188,0,.282,0a.458.458,0,0,0,.447-.453.453.453,0,0,0-.441-.457c-.187-.009-.376-.009-.563,0a.452.452,0,0,0-.438.46.457.457,0,0,0,.432.449C-186.174-41.3-186.079-41.309-185.986-41.309Z" transform="translate(193.779 42.752)" fill="#2a2968" stroke="#2a2968" stroke-width="0.25"/>
    <path id="Path_754" data-name="Path 754" d="M-121.779,46.955a.254.254,0,0,1,.26.267.254.254,0,0,1-.259.251.254.254,0,0,1-.26-.267A.253.253,0,0,1-121.779,46.955Z" transform="translate(134.985 -30.765)" fill="#2a2968" stroke="#2a2968" stroke-width="0.25"/>
  </g>
</svg>
