<svg width="48" height="48" viewBox="0 0 48 48" fill="none" xmlns="http://www.w3.org/2000/svg">
<path d="M7.00111 43.49C6.66996 43.4923 6.34173 43.4279 6.03594 43.3008C5.73015 43.1737 5.45305 42.9864 5.22111 42.75C4.98528 42.5174 4.79802 42.2403 4.6702 41.9347C4.54238 41.6292 4.47656 41.3012 4.47656 40.97C4.47656 40.6388 4.54238 40.3109 4.6702 40.0053C4.79802 39.6997 4.98528 39.4226 5.22111 39.19L39.1911 5.25001C39.6701 4.81339 40.299 4.57814 40.947 4.59314C41.595 4.60815 42.2122 4.87224 42.6706 5.33056C43.1289 5.78888 43.393 6.40616 43.408 7.05414C43.423 7.70213 43.1877 8.33097 42.7511 8.81001L8.80111 42.75C8.56719 42.9893 8.2869 43.1783 7.9774 43.3056C7.66791 43.4328 7.3357 43.4956 7.00111 43.49Z" fill="white"/>
<path d="M41.0005 43.49C40.6696 43.4906 40.3418 43.4255 40.0363 43.2985C39.7307 43.1714 39.4534 42.985 39.2205 42.75L5.25049 8.81C4.7784 8.33924 4.51266 7.70023 4.51172 7.03354C4.51078 6.36685 4.77473 5.72709 5.24549 5.255C5.71625 4.78292 6.35526 4.51718 7.02195 4.51624C7.68864 4.5153 8.3284 4.77924 8.80049 5.25L42.8005 39.19C43.0363 39.4226 43.2236 39.6997 43.3514 40.0053C43.4792 40.3109 43.545 40.6388 43.545 40.97C43.545 41.3012 43.4792 41.6292 43.3514 41.9347C43.2236 42.2403 43.0363 42.5174 42.8005 42.75C42.5662 42.9888 42.2859 43.1776 41.9764 43.3048C41.667 43.432 41.335 43.495 41.0005 43.49Z" fill="white"/>
</svg>
