<svg width="20" height="20" viewBox="0 0 20 20" fill="none" xmlns="http://www.w3.org/2000/svg">
<path d="M13.3844 17.9549C13.6188 17.7205 13.7504 17.4026 13.7504 17.0712C13.7504 16.7397 13.6188 16.4218 13.3844 16.1874L7.19692 9.99994L13.3844 3.81244C13.6121 3.57669 13.7381 3.26093 13.7353 2.93319C13.7324 2.60544 13.601 2.29193 13.3692 2.06017C13.1374 1.82841 12.8239 1.69695 12.4962 1.6941C12.1684 1.69125 11.8527 1.81724 11.6169 2.04494L4.54567 9.11619C4.31133 9.3506 4.17969 9.66848 4.17969 9.99994C4.17969 10.3314 4.31133 10.6493 4.54567 10.8837L11.6169 17.9549C11.8513 18.1893 12.1692 18.3209 12.5007 18.3209C12.8321 18.3209 13.15 18.1893 13.3844 17.9549Z" fill="#2A2968"/>
</svg>
