<svg xmlns="http://www.w3.org/2000/svg" width="28.123" height="22.251" viewBox="0 0 28.123 22.251">
  <g id="YbdtgT.tif" transform="translate(310.796 52.948)">
    <path id="Path_672" data-name="Path 672" d="M-300.806-51.365l-2.366,4.979-4.969,1.319,2.473,3.866-2.473,3.8,4.969,1.237,2.076,4.61,5.263-3.225,5.849,3.6,2.166-4.989,5.565-1.237-3.762-4.139,3.382-4.007-5.8-.838-1.91-4.979-5.236,3.381Z" transform="translate(-0.991 -0.57)" fill="#ffdc55"/>
    <g id="Group_427" data-name="Group 427" transform="translate(-310.678 -52.823)">
      <path id="Path_667" data-name="Path 667" d="M-282.8-37.3a.927.927,0,0,1-.726.392c-1.66.239-3.316.5-4.975.741-.161.024-.2.109-.253.232q-.914,2.268-1.834,4.534c-.024.059-.046.118-.071.176a.553.553,0,0,1-.9.267c-.781-.512-1.558-1.03-2.337-1.545-.87-.575-1.745-1.143-2.606-1.73a.358.358,0,0,0-.475.011q-2.411,1.605-4.832,3.2c-.53.35-.824.258-1.064-.336-.6-1.495-1.213-2.988-1.807-4.487a.463.463,0,0,0-.414-.343c-1.642-.235-3.282-.485-4.923-.727-.26-.038-.5-.09-.617-.368s.029-.485.191-.69c.953-1.212,1.9-2.429,2.859-3.637a.274.274,0,0,0,0-.413c-.958-1.208-1.906-2.425-2.859-3.637-.162-.206-.307-.409-.189-.691s.358-.328.618-.367c1.659-.246,3.316-.5,4.976-.739a.38.38,0,0,0,.339-.283c.606-1.513,1.212-3.027,1.836-4.533a2.685,2.685,0,0,1,.411-.544h.327c.257.168.517.333.772.5.336.225.431.526.261.806s-.474.324-.831.126c-.023-.013-.049-.021-.1-.044-.039.089-.08.175-.115.262-.565,1.394-1.134,2.786-1.688,4.184a.783.783,0,0,1-.695.546c-1.472.2-2.941.433-4.411.654-.044.007-.086.023-.169.047.07.093.126.169.184.243q1.258,1.607,2.517,3.213a.6.6,0,0,1,0,.919q-1.249,1.6-2.5,3.192c-.061.078-.118.158-.206.276.476.073.918.143,1.361.209l3.362.5a.642.642,0,0,1,.525.452q.838,2.094,1.689,4.183c.044.108.092.213.15.349.122-.075.228-.137.331-.205l4.493-2.97a.65.65,0,0,1,.937,0l4.494,2.97c.1.064.2.127.326.211.056-.131.107-.242.153-.356.561-1.385,1.127-2.769,1.678-4.158a.724.724,0,0,1,.645-.491c1.481-.21,2.959-.437,4.438-.659a1.722,1.722,0,0,0,.169-.046c-.075-.1-.136-.184-.2-.265q-1.258-1.607-2.518-3.213a.585.585,0,0,1,0-.875q1.258-1.608,2.517-3.213c.061-.078.12-.157.21-.277-.478-.074-.919-.143-1.362-.209l-3.362-.5a.641.641,0,0,1-.527-.45q-.838-2.094-1.689-4.183c-.044-.108-.091-.213-.15-.351-.1.06-.181.107-.261.16l-4.562,3.015a.651.651,0,0,1-.937,0c-.181-.12-.366-.236-.543-.363a.547.547,0,0,1-.17-.762.51.51,0,0,1,.761-.133c.326.282.558.184.867-.025,1.534-1.033,3.083-2.045,4.627-3.064l.316-.208h.327a2.672,2.672,0,0,1,.411.544c.628,1.513,1.233,3.035,1.854,4.55.04.1.146.222.237.237q2.509.4,5.023.761a.906.906,0,0,1,.7.389v.381l-.3.377q-1.4,1.785-2.8,3.567c-.1.13-.137.218-.018.369,1.044,1.317,2.079,2.642,3.117,3.965Z" transform="translate(310.678 52.823)" fill="#2a2968" stroke="#2a2968" stroke-width="0.25"/>
      <path id="Path_668" data-name="Path 668" d="M-256.6-24.469l-.851,2.745c-.022.069-.039.14-.065.207a.66.66,0,0,1-.657.433.627.627,0,0,1-.589-.516q-.47-2.33-.923-4.664a.539.539,0,0,1,.438-.692.557.557,0,0,1,.629.5c.175.861.342,1.724.512,2.585.016.079.036.158.067.3.046-.117.076-.182.1-.248q.41-1.323.819-2.647c.1-.337.289-.5.563-.493s.436.156.54.487c.267.855.53,1.712.8,2.568a.6.6,0,0,0,.14.257q.122-.6.245-1.2c.108-.533.211-1.066.322-1.6a.548.548,0,0,1,.653-.494.556.556,0,0,1,.407.713q-.447,2.266-.9,4.531a.678.678,0,0,1-.625.614.664.664,0,0,1-.682-.545q-.444-1.424-.882-2.85Z" transform="translate(275.591 35.022)" fill="#2a2968" stroke="#2a2968" stroke-width="0.25"/>
      <path id="Path_669" data-name="Path 669" d="M-291.236-24.549q0,1.333,0,2.666c0,.091,0,.182,0,.272a.54.54,0,0,1-.514.533.546.546,0,0,1-.567-.509c-.015-.162-.006-.326-.006-.49q0-2.082,0-4.163a1,1,0,0,1,.062-.4.536.536,0,0,1,.966-.021c.711,1.018,1.414,2.042,2.12,3.064a.577.577,0,0,0,.215.21q0-.716,0-1.431c0-.517,0-1.034,0-1.551a.538.538,0,0,1,.54-.588.553.553,0,0,1,.545.59c.008.544,0,1.089,0,1.633v2.721c0,.073,0,.145,0,.218a.645.645,0,0,1-.453.641.617.617,0,0,1-.7-.3q-1-1.44-1.995-2.886c-.055-.079-.113-.155-.169-.232Z" transform="translate(298.047 35.017)" fill="#2a2968" stroke="#2a2968" stroke-width="0.25"/>
      <path id="Path_670" data-name="Path 670" d="M-272.762-23.483v1.307h1.175c.1,0,.2,0,.3,0a.551.551,0,0,1,.528.551.535.535,0,0,1-.519.529c-.689.012-1.379.014-2.068,0-.337-.007-.516-.242-.516-.636q0-2.3,0-4.6c0-.036,0-.073,0-.109a.524.524,0,0,1,.542-.529q1.006-.014,2.013,0a.541.541,0,0,1,.545.532.545.545,0,0,1-.556.55c-.478.009-.956,0-1.446,0v1.308c.421,0,.835,0,1.249,0a.556.556,0,0,1,.582.4.545.545,0,0,1-.555.689C-271.9-23.477-272.319-23.483-272.762-23.483Z" transform="translate(285.338 35.028)" fill="#2a2968" stroke="#2a2968" stroke-width="0.25"/>
      <path id="Path_671" data-name="Path 671" d="M-276.039-46.916a.532.532,0,0,1,.528.543.547.547,0,0,1-.541.537.552.552,0,0,1-.543-.563A.536.536,0,0,1-276.039-46.916Z" transform="translate(287.217 48.757)" fill="#2a2968" stroke="#2a2968" stroke-width="0.25"/>
    </g>
  </g>
</svg>
