<?xml version="1.0" encoding="utf-8"?>
<!-- Generator: Adobe Illustrator 26.0.2, SVG Export Plug-In . SVG Version: 6.00 Build 0)  -->
<svg version="1.1" xmlns="http://www.w3.org/2000/svg" xmlns:xlink="http://www.w3.org/1999/xlink" x="0px" y="0px"
	 viewBox="0 0 15.1 22.7" style="enable-background:new 0 0 15.1 22.7;" xml:space="preserve">
<style type="text/css">
	.st0{display:none;}
	.st1{display:inline;}
	.st2{fill:#FFDC55;}
	.st3{fill:#2A2968;}
	.st4{fill:#FF5809;}
	.st5{fill:#FFFFFF;stroke:#FF5809;stroke-miterlimit:10;}
</style>
<g id="圖層_1" class="st0">
	<g id="z1Of7x.tif" transform="translate(0 0)" class="st1">
		<g id="Group_391" transform="translate(0 0)">
			<path id="Path_620" class="st2" d="M7.5,6.6c0,0-2.7-2.1-2.7-0.9c0,0.2-0.9,1.3-0.6,2c0.5,1.5,3.3,3.7,3.3,3.7
				C9,10.5,10.2,9.2,11,7.7c0.2-0.4-0.8-1.9-0.8-2.2C10.2,4.3,7.5,6.6,7.5,6.6z"/>
			<path id="Path_621" class="st3" d="M0,7c0.1-0.4,0.1-0.8,0.2-1.2c0.7-3,3.2-5.2,6.2-5.7c1.5-0.2,3.1,0,4.5,0.7
				c0.1,0,0.1,0.1,0.2,0.1c0.2,0.1,0.3,0.4,0.2,0.6c-0.1,0.2-0.4,0.3-0.6,0.2c-0.3-0.1-0.6-0.3-1-0.4C6.3,0.1,2.5,1.9,1.3,5.4
				C1.1,5.8,1,6.1,1,6.5C0.8,7.6,1,8.8,1.4,9.8c0.6,1.4,1.4,2.8,2.3,4.1c1.1,1.7,2.4,3.3,3.7,4.9c0,0,0.1,0.1,0.1,0.1
				c0.1-0.2,0.3-0.3,0.4-0.5c1.8-2.1,3.3-4.3,4.7-6.7c0.4-0.7,0.8-1.5,1.1-2.3c0.6-1.5,0.6-3.3-0.2-4.7c-0.1-0.1-0.1-0.3-0.2-0.4
				c-0.1-0.2-0.1-0.5,0.1-0.6c0,0,0,0,0,0c0.2-0.1,0.5,0,0.6,0.2c0,0,0,0,0,0c0.5,0.9,0.8,1.9,0.9,2.9c0.1,1.4-0.2,2.8-0.9,4
				c-0.9,1.8-2,3.6-3.2,5.2c-0.3,0.5-0.7,0.9-1,1.4c0,0.1-0.1,0.1-0.1,0.2c0.3,0.1,0.5,0.1,0.7,0.2c0.8,0.2,1.5,0.5,2.1,1
				c0.5,0.4,0.8,1,0.7,1.7c-0.1,0.4-0.3,0.7-0.6,0.9c-0.6,0.5-1.3,0.8-2.1,1c-0.7,0.2-1.4,0.2-2,0.3c-0.1,0-0.1,0-0.2,0H6.8
				c-0.1,0-0.1,0-0.2,0c-0.7-0.1-1.4-0.2-2-0.3c-0.8-0.2-1.6-0.5-2.2-1.1c-0.4-0.3-0.6-0.9-0.6-1.4c0.1-0.5,0.3-0.9,0.8-1.2
				c0.5-0.4,1.1-0.7,1.7-0.8c0.3-0.1,0.7-0.2,1-0.3c-0.1-0.1-0.1-0.1-0.1-0.2c-0.9-1.3-1.8-2.5-2.7-3.8c-0.9-1.3-1.6-2.7-2.1-4.1
				C0.2,9,0.1,8.4,0,7.9L0,7z M7.5,21.8c1.2,0,2.5-0.2,3.7-0.6c0.4-0.1,0.7-0.3,1-0.6c0.3-0.2,0.3-0.7,0.1-0.9c0,0,0,0-0.1-0.1
				c-0.2-0.2-0.4-0.3-0.6-0.4c-0.7-0.4-1.5-0.6-2.4-0.7c-0.1,0-0.2,0-0.2,0.1C8.7,19,8.3,19.4,8,19.8c-0.1,0.2-0.4,0.3-0.6,0.2
				c-0.1,0-0.1-0.1-0.2-0.2c-0.3-0.4-0.7-0.8-1-1.2c-0.1-0.1-0.2-0.2-0.4-0.1c-0.6,0.1-1.1,0.3-1.7,0.5c-0.4,0.2-0.8,0.4-1.1,0.7
				c-0.3,0.2-0.4,0.6-0.2,0.9c0,0.1,0.1,0.1,0.2,0.2c0.2,0.2,0.5,0.4,0.8,0.5C4.9,21.6,6.2,21.8,7.5,21.8L7.5,21.8z"/>
			<path id="Path_622" class="st3" d="M7.5,5.9c0.2-0.3,0.6-0.6,0.9-0.8c1.1-0.5,2.4,0.1,2.9,1.2c0.1,0.1,0.1,0.2,0.1,0.4
				c0.2,0.8,0,1.7-0.5,2.4c-0.5,0.5-0.9,1-1.5,1.5c-0.5,0.5-1,0.9-1.6,1.4c-0.2,0.2-0.4,0.2-0.7,0c-0.8-0.7-1.7-1.5-2.5-2.2
				C4.2,9.2,3.8,8.6,3.6,7.9C3.3,6.6,4,5.3,5.2,5C6,4.7,6.8,5,7.3,5.6C7.4,5.7,7.5,5.8,7.5,5.9z M7.5,11c0.5-0.4,0.9-0.8,1.4-1.2
				c0.5-0.4,0.9-0.9,1.3-1.3c0.4-0.4,0.5-1,0.4-1.6c-0.1-0.5-0.5-1-1.1-1.1C9,5.7,8.5,6,8.3,6.4C8.2,6.6,8.1,6.7,8,6.9
				C7.9,7.2,7.8,7.3,7.5,7.3c-0.3,0-0.4-0.2-0.4-0.4C7,6.7,6.9,6.6,6.8,6.4C6.6,6,6.1,5.7,5.6,5.8c-0.5,0.1-1,0.4-1.1,1
				C4.3,7.4,4.5,8.1,5,8.6C5.8,9.4,6.6,10.2,7.5,11L7.5,11z"/>
			<path id="Path_623" class="st3" d="M13,2.5c0,0.2-0.2,0.4-0.5,0.4c0,0,0,0,0,0c-0.2,0-0.4-0.2-0.4-0.4c0-0.2,0.2-0.4,0.5-0.4
				c0,0,0,0,0,0C12.8,2.1,13,2.2,13,2.5z"/>
		</g>
	</g>
</g>
<g id="圖層_2">
	<g>
		<path class="st4" d="M13.2,19.8c0,1.2-2.5,2.1-5.6,2.1c-3.1,0-5.6-0.9-5.6-2.1s2.5-2.1,5.6-2.1C10.7,17.7,13.2,18.6,13.2,19.8z"/>
		<path class="st5" d="M14.6,7.6c0-3.9-3.1-7-7-7c-3.9,0-7,3.1-7,7c0,1.6,0.5,3,1.4,4.2h0l5.6,8l5.6-8h0
			C14.1,10.6,14.6,9.2,14.6,7.6z"/>
	</g>
	<circle class="st4" cx="7.6" cy="8" r="2.4"/>
</g>
</svg>
