<svg xmlns="http://www.w3.org/2000/svg" width="22.267" height="22.26" viewBox="0 0 22.267 22.26">
  <g id="Deas3H.tif" transform="translate(708.199 306.451)">
    <path id="Path_723" data-name="Path 723" d="M518.986,122.217s-2.464,3.072-2.859,4.371,1.282.827,1.282.827l.319,10.008-1.293.817v2.015l20.454.322v-2.783l-1.448-.37V127.2s2.061.883,1.772-.363-2.925-4.622-2.925-4.622l-6.557-.649s-.411-1.882-1.074-1.99-1.576,2.205-1.576,2.205Z" transform="translate(-1223.685 -425.433)" fill="#ffdc55"/>
    <path id="Path_527" data-name="Path 527" d="M-685.367-288.824h.935c.656.262.808.49.808,1.219v.58h.77a.953.953,0,0,1,.8.359.31.31,0,0,0,.283.134q1.742-.007,3.484,0a2.521,2.521,0,0,1,2.325,1.373c.591,1.055,1.174,2.115,1.755,3.176a1.134,1.134,0,0,1-1.032,1.76c-.145,0-.291,0-.438,0v9.513c.185,0,.355-.007.523,0a1.169,1.169,0,0,1,1.131,1.155q.013.669,0,1.338a1.149,1.149,0,0,1-.826,1.092,1.872,1.872,0,0,1-.5.058q-9.55,0-19.1,0c-.064,0-.128,0-.191,0a1.186,1.186,0,0,1-1.085-.814c-.018-.053-.038-.106-.056-.158v-1.7a1.345,1.345,0,0,1,1.657-.969v-9.52c-.2,0-.394.007-.584,0a1.077,1.077,0,0,1-.928-.579,3.393,3.393,0,0,1-.146-.322v-.425c.069-.154.127-.314.208-.462.557-1.018,1.124-2.031,1.677-3.05a2.611,2.611,0,0,1,2.486-1.469c1.126.01,2.252,0,3.379,0a.335.335,0,0,0,.236-.083,1.05,1.05,0,0,1,.892-.4c.237,0,.475,0,.728,0v-.24c0-.2-.006-.4,0-.595A1,1,0,0,1-685.367-288.824Zm-2.6,2.939c-.091,0-.16-.011-.229-.011-1.1,0-2.2,0-3.294,0a1.936,1.936,0,0,0-1.814,1.078c-.57,1.035-1.124,2.08-1.72,3.1a.541.541,0,0,0,.508.867c1.246-.028,2.493-.01,3.74-.008a1.11,1.11,0,0,1,.253.019.286.286,0,0,1,.236.328.284.284,0,0,1-.267.282,1.609,1.609,0,0,1-.212.007c-.822,0-1.644.007-2.465,0-.2,0-.246.058-.245.25q.009,4.516,0,9.032c0,.074.007.149.01.219h6.323v-.266c0-.857,0-1.714,0-2.571a1.408,1.408,0,0,1,1.508-1.518q.723,0,1.445,0a1.41,1.41,0,0,1,1.521,1.526c0,.864,0,1.728,0,2.593v.252h1.992c.337,0,.5.108.488.332s-.153.305-.488.305h-13.707c-.071,0-.142,0-.213,0a.539.539,0,0,0-.553.572q-.007.616,0,1.233a.54.54,0,0,0,.559.567c.049,0,.1,0,.149,0h19.062c.042,0,.085,0,.127,0a.549.549,0,0,0,.588-.6c0-.361,0-.722,0-1.084,0-.5-.191-.686-.7-.686h-3.7c-.064,0-.128,0-.191,0a.3.3,0,0,1-.3-.3.3.3,0,0,1,.254-.32.9.9,0,0,1,.211-.012h2.723v-9.51H-689.1a2.361,2.361,0,0,1-.255-.006.286.286,0,0,1-.278-.294.286.286,0,0,1,.247-.321,1.38,1.38,0,0,1,.275-.016c4.6,0,9.209-.007,13.813.009a.545.545,0,0,0,.514-.877c-.588-1.008-1.139-2.038-1.7-3.063a1.966,1.966,0,0,0-1.863-1.107c-1.084.007-2.168,0-3.251,0-.075,0-.149.007-.238.011,0,.134,0,.247,0,.359a.961.961,0,0,1-1.056,1.051h-.736c0,.293,0,.561,0,.828a.942.942,0,0,1-.846.957,5.015,5.015,0,0,1-.7.016.968.968,0,0,1-1-1.027c0-.252,0-.5,0-.777-.31,0-.593.009-.874,0a.939.939,0,0,1-.916-.931C-687.97-285.563-687.966-285.717-687.966-285.885Zm4.657,15.165c0-.08.009-.136.009-.192,0-.893,0-1.785,0-2.678a.772.772,0,0,0-.856-.856c-.489,0-.977,0-1.466,0a.779.779,0,0,0-.877.877q0,1.318,0,2.635v.213Zm-2.228-13.492c0,.17,0,.34,0,.51,0,.269.118.385.389.393.17,0,.34.005.509,0a.338.338,0,0,0,.375-.385c0-.311,0-.623,0-.934,0-.4.087-.481.491-.482.319,0,.637,0,.956,0a.313.313,0,0,0,.344-.342c.006-.177,0-.354,0-.531,0-.284-.113-.395-.4-.4-.311,0-.623,0-.934,0-.363,0-.455-.092-.455-.447,0-.319,0-.637,0-.956,0-.268-.121-.386-.39-.392-.17,0-.34,0-.51,0a.338.338,0,0,0-.375.385c0,.333,0,.665,0,1,0,.3-.1.409-.406.411-.34,0-.68,0-1.019,0a.326.326,0,0,0-.365.369c0,.163,0,.326,0,.488,0,.314.1.413.423.415s.637,0,.956,0c.3,0,.41.112.413.41C-685.536-284.538-685.537-284.375-685.537-284.212Z" transform="translate(-12.167 -17.377)" fill="#2a2968" stroke="#2a2968" stroke-width="0.5"/>
    <path id="Path_528" data-name="Path 528" d="M-584.787-214.994c0,.226.006.453,0,.679a.915.915,0,0,1-.884.908c-.452.017-.905.015-1.357,0a.927.927,0,0,1-.938-.927c-.015-.438-.014-.877,0-1.315a.933.933,0,0,1,.932-.936c.438-.016.877-.016,1.315,0a.932.932,0,0,1,.935.973c0,.205,0,.41,0,.615Zm-1.6.957c.205,0,.411,0,.616,0,.242-.007.345-.112.347-.357q.006-.595,0-1.19c0-.245-.105-.357-.345-.361q-.605-.011-1.211,0a.312.312,0,0,0-.351.339q-.012.616,0,1.232c0,.225.119.33.35.337C-586.784-214.033-586.586-214.037-586.388-214.037Z" transform="translate(-105.684 -80.036)" fill="#2a2968" stroke="#2a2968" stroke-width="0.5"/>
    <path id="Path_529" data-name="Path 529" d="M-661.881-184.292c.212,0,.424,0,.637,0a.933.933,0,0,1,.964.922c.017.445.018.892,0,1.336a.941.941,0,0,1-.967.925q-.626.01-1.252,0a.94.94,0,0,1-.962-.97q-.008-.626,0-1.252a.929.929,0,0,1,.964-.962C-662.292-184.294-662.086-184.292-661.881-184.292Zm-.943,1.577c0,.212,0,.424,0,.636a.3.3,0,0,0,.329.332c.41.007.819.007,1.229,0a.314.314,0,0,0,.349-.34q.011-.614,0-1.229a.305.305,0,0,0-.346-.338c-.4,0-.805,0-1.208,0-.244,0-.349.105-.355.346C-662.828-183.111-662.824-182.913-662.824-182.715Z" transform="translate(-40.201 -108.057)" fill="#2a2968" stroke="#2a2968" stroke-width="0.5"/>
    <path id="Path_530" data-name="Path 530" d="M-661.862-213.406c-.226,0-.453.008-.679,0a.923.923,0,0,1-.921-.939c-.007-.424-.006-.849,0-1.273a.926.926,0,0,1,.919-.966c.445-.018.892-.017,1.336,0a.933.933,0,0,1,.927.942q.019.647,0,1.294a.937.937,0,0,1-.945.944c-.212.008-.424,0-.636,0Zm-.964-1.591c0,.205,0,.411,0,.616.006.221.105.332.323.336.418.008.836,0,1.253,0a.3.3,0,0,0,.329-.314c.01-.425.009-.85,0-1.275a.3.3,0,0,0-.306-.316q-.648-.015-1.3,0c-.2.005-.3.123-.3.335S-662.826-215.2-662.826-215Z" transform="translate(-40.2 -80.032)" fill="#2a2968" stroke="#2a2968" stroke-width="0.5"/>
    <path id="Path_531" data-name="Path 531" d="M-586.361-184.292c.205,0,.41,0,.615,0a.927.927,0,0,1,.962.942q.011.647,0,1.294a.93.93,0,0,1-.92.945q-.668.021-1.337,0a.938.938,0,0,1-.925-.945q-.019-.647,0-1.294a.937.937,0,0,1,.967-.942C-586.786-184.295-586.573-184.292-586.361-184.292Zm.942,1.619v-.6c0-.007,0-.014,0-.021-.007-.257-.107-.363-.36-.365q-.595,0-1.19,0c-.242,0-.356.108-.36.347q-.01.606,0,1.211a.314.314,0,0,0,.342.348q.616.01,1.233,0c.223,0,.328-.122.333-.352C-585.416-182.291-585.419-182.482-585.419-182.673Z" transform="translate(-105.689 -108.057)" fill="#2a2968" stroke="#2a2968" stroke-width="0.5"/>
    <path id="Path_532" data-name="Path 532" d="M-624.13-213.407c-.233,0-.467.011-.7,0a.9.9,0,0,1-.864-.835c-.025-.493-.026-.99,0-1.484a.9.9,0,0,1,.914-.856c.445-.016.891-.018,1.336,0a.919.919,0,0,1,.917.925c.016.438.015.877,0,1.315a.925.925,0,0,1-.945.939c-.219.008-.438,0-.658,0Zm.968-1.579h0v-.552c0-.014,0-.028,0-.042-.011-.258-.11-.366-.363-.369q-.595-.009-1.19,0c-.244,0-.352.11-.356.353q-.01.605,0,1.211c0,.234.109.34.34.344q.616.01,1.232,0a.3.3,0,0,0,.334-.328C-623.156-214.574-623.163-214.78-623.163-214.985Z" transform="translate(-72.95 -80.034)" fill="#2a2968" stroke="#2a2968" stroke-width="0.5"/>
  </g>
</svg>
