<svg xmlns="http://www.w3.org/2000/svg" width="181" height="664.737" viewBox="0 0 181 664.737">
  <g id="bg_icon" data-name="bg icon" transform="translate(14.836 -536.279)">
    <g id="_60iJTc.tif" data-name="60iJTc.tif" transform="translate(29.903 536.279)">
      <g id="Group_362" data-name="Group 362">
        <path id="Path_503" data-name="Path 503" d="M-177.007-152.247c0-.543-.039-1.057.007-1.564a3.387,3.387,0,0,1,3.234-3.029c1.619-.034,3.24-.028,4.86-.006a3.434,3.434,0,0,1,3.4,3.448c.007.369,0,.738,0,1.151.115,0,.218,0,.321,0,.845.015,1.7-.036,2.533.062a3.359,3.359,0,0,1,2.888,3.218c.031,1.241.011,2.484.011,3.726,0,2.646.006,5.293,0,7.939a3.424,3.424,0,0,1-2.9,3.444,3.839,3.839,0,0,1-.672.043q-7.953,0-15.905,0a3.434,3.434,0,0,1-3.52-2.908,3.838,3.838,0,0,1-.04-.672q0-5.63,0-11.261a3.442,3.442,0,0,1,3.606-3.593Zm5.761,2.309h-7.914a1.179,1.179,0,0,0-1.337,1.345q0,5.564,0,11.128a1.2,1.2,0,0,0,1.363,1.356h15.72a1.2,1.2,0,0,0,1.364-1.354q0-5.564,0-11.128a1.18,1.18,0,0,0-1.337-1.346Zm3.43-2.319c0-.383,0-.742,0-1.1a1.133,1.133,0,0,0-1.134-1.192c-1.547-.018-3.094-.015-4.641,0a1.089,1.089,0,0,0-1.112.947,11.788,11.788,0,0,0-.011,1.346Z" transform="translate(182.794 156.863)" fill="#e5e5ef"/>
        <path id="Path_504" data-name="Path 504" d="M-163.988-131.682h-2.291v-2.285h-2.3v-2.312h2.285v-2.28H-164v2.27h2.3v2.312h-2.291Z" transform="translate(176.659 148.963)" fill="#e5e5ef"/>
      </g>
    </g>
    <g id="m5CoFg.tif" transform="translate(138.653 977.003)">
      <g id="Group_363" data-name="Group 363">
        <path id="Path_505" data-name="Path 505" d="M-116.31-156.459a5.72,5.72,0,0,1,5.915,4.834,5.43,5.43,0,0,1-1.527,4.725c-1.557,1.6-3.122,3.192-4.738,4.73a5.352,5.352,0,0,1-5.661,1.282,5.357,5.357,0,0,1-3.793-4.394,5.352,5.352,0,0,1,1.509-4.883c1.534-1.578,3.1-3.125,4.665-4.671A5.377,5.377,0,0,1-116.31-156.459Zm1.478,10.208c.633-.626,1.3-1.235,1.9-1.895a3.826,3.826,0,0,0,1-3.4,3.86,3.86,0,0,0-2.759-3.181,3.911,3.911,0,0,0-4.1.979c-.414.391-.807.805-1.212,1.207-.192.191-.39.376-.579.557Zm-6.892-4.565c-.545.546-1.108,1.1-1.657,1.66a3.915,3.915,0,0,0-1.136,3.538,3.858,3.858,0,0,0,2.538,3.118,3.812,3.812,0,0,0,3.985-.619c.726-.592,1.358-1.3,2.02-1.945Z" transform="translate(126.212 156.459)" fill="#e5e5ef" stroke="#e5e5ef" stroke-width="1"/>
      </g>
    </g>
    <g id="Co8UtB.tif" transform="translate(142.902 584.938)">
      <g id="Group_364" data-name="Group 364">
        <path id="Path_506" data-name="Path 506" d="M-58.785-156.146a5.8,5.8,0,0,1,5.8,5.917,5.829,5.829,0,0,1-5.855,5.711,5.821,5.821,0,0,1-5.774-5.9A5.8,5.8,0,0,1-58.785-156.146Zm-.032,9.294a3.47,3.47,0,0,0,3.5-3.485,3.489,3.489,0,0,0-3.479-3.493,3.512,3.512,0,0,0-3.5,3.481A3.49,3.49,0,0,0-58.817-146.852Z" transform="translate(64.61 156.146)" fill="#e5e5ef"/>
        <path id="Path_507" data-name="Path 507" d="M-47.69-122.286a4.634,4.634,0,0,1-4.635-4.681,4.64,4.64,0,0,1,4.676-4.615,4.637,4.637,0,0,1,4.622,4.641A4.636,4.636,0,0,1-47.69-122.286Zm.014-6.978a2.345,2.345,0,0,0-2.331,2.323,2.345,2.345,0,0,0,2.315,2.338,2.344,2.344,0,0,0,2.345-2.336A2.347,2.347,0,0,0-47.676-129.264Z" transform="translate(59.307 145.544)" fill="#e5e5ef"/>
        <path id="Path_508" data-name="Path 508" d="M-28.983-144.478a3.488,3.488,0,0,1-3.452,3.489,3.5,3.5,0,0,1-3.527-3.478,3.5,3.5,0,0,1,3.5-3.5A3.485,3.485,0,0,1-28.983-144.478Zm-3.491-1.157a1.155,1.155,0,0,0-1.156,1.162,1.158,1.158,0,0,0,1.169,1.152,1.159,1.159,0,0,0,1.158-1.163A1.159,1.159,0,0,0-32.474-145.635Z" transform="translate(52.245 152.617)" fill="#e5e5ef"/>
        <path id="Path_509" data-name="Path 509" d="M-31.861-128.383a1.165,1.165,0,0,1,1.158-1.16,1.171,1.171,0,0,1,1.17,1.152,1.181,1.181,0,0,1-1.175,1.177A1.173,1.173,0,0,1-31.861-128.383Z" transform="translate(50.475 144.664)" fill="#e5e5ef"/>
        <path id="Path_510" data-name="Path 510" d="M-40.04-150.894a1.16,1.16,0,0,1,1.147-1.176,1.16,1.16,0,0,1,1.167,1.156,1.158,1.158,0,0,1-1.148,1.174A1.157,1.157,0,0,1-40.04-150.894Z" transform="translate(54.005 154.387)" fill="#e5e5ef"/>
        <path id="Path_511" data-name="Path 511" d="M-56.152-132.47a1.157,1.157,0,0,1-1.165,1.156,1.157,1.157,0,0,1-1.149-1.171,1.159,1.159,0,0,1,1.165-1.158A1.159,1.159,0,0,1-56.152-132.47Z" transform="translate(61.958 146.434)" fill="#e5e5ef"/>
      </g>
    </g>
    <g id="Co8UtB.tif-2" data-name="Co8UtB.tif" transform="translate(-14.836 1083.81)">
      <g id="Group_364-2" data-name="Group 364">
        <path id="Path_506-2" data-name="Path 506" d="M-58.785-156.146a5.8,5.8,0,0,1,5.8,5.917,5.829,5.829,0,0,1-5.855,5.711,5.821,5.821,0,0,1-5.774-5.9A5.8,5.8,0,0,1-58.785-156.146Zm-.032,9.294a3.47,3.47,0,0,0,3.5-3.485,3.489,3.489,0,0,0-3.479-3.493,3.512,3.512,0,0,0-3.5,3.481A3.49,3.49,0,0,0-58.817-146.852Z" transform="translate(64.61 156.146)" fill="#e5e5ef"/>
        <path id="Path_507-2" data-name="Path 507" d="M-47.69-122.286a4.634,4.634,0,0,1-4.635-4.681,4.64,4.64,0,0,1,4.676-4.615,4.637,4.637,0,0,1,4.622,4.641A4.636,4.636,0,0,1-47.69-122.286Zm.014-6.978a2.345,2.345,0,0,0-2.331,2.323,2.345,2.345,0,0,0,2.315,2.338,2.344,2.344,0,0,0,2.345-2.336A2.347,2.347,0,0,0-47.676-129.264Z" transform="translate(59.307 145.544)" fill="#e5e5ef"/>
        <path id="Path_508-2" data-name="Path 508" d="M-28.983-144.478a3.488,3.488,0,0,1-3.452,3.489,3.5,3.5,0,0,1-3.527-3.478,3.5,3.5,0,0,1,3.5-3.5A3.485,3.485,0,0,1-28.983-144.478Zm-3.491-1.157a1.155,1.155,0,0,0-1.156,1.162,1.158,1.158,0,0,0,1.169,1.152,1.159,1.159,0,0,0,1.158-1.163A1.159,1.159,0,0,0-32.474-145.635Z" transform="translate(52.245 152.617)" fill="#e5e5ef"/>
        <path id="Path_509-2" data-name="Path 509" d="M-31.861-128.383a1.165,1.165,0,0,1,1.158-1.16,1.171,1.171,0,0,1,1.17,1.152,1.181,1.181,0,0,1-1.175,1.177A1.173,1.173,0,0,1-31.861-128.383Z" transform="translate(50.475 144.664)" fill="#e5e5ef"/>
        <path id="Path_510-2" data-name="Path 510" d="M-40.04-150.894a1.16,1.16,0,0,1,1.147-1.176,1.16,1.16,0,0,1,1.167,1.156,1.158,1.158,0,0,1-1.148,1.174A1.157,1.157,0,0,1-40.04-150.894Z" transform="translate(54.005 154.387)" fill="#e5e5ef"/>
        <path id="Path_511-2" data-name="Path 511" d="M-56.152-132.47a1.157,1.157,0,0,1-1.165,1.156,1.157,1.157,0,0,1-1.149-1.171,1.159,1.159,0,0,1,1.165-1.158A1.159,1.159,0,0,1-56.152-132.47Z" transform="translate(61.958 146.434)" fill="#e5e5ef"/>
      </g>
    </g>
    <g id="TfMQKT.tif" transform="translate(54.012 811.871)">
      <g id="Group_366" data-name="Group 366" transform="translate(0 0)">
        <path id="Path_512" data-name="Path 512" d="M-218.089-132.191h-4.624a1.557,1.557,0,0,0-.188-.044,3.083,3.083,0,0,1-2.71-2.757c-.072-1.061-.032-2.129-.041-3.194,0-.1,0-.192,0-.315h-.291c-.918,0-1.836,0-2.754,0a3.158,3.158,0,0,1-3.252-3.242q-.005-2,0-4.008A3.156,3.156,0,0,1-228.686-149q1.377,0,2.754,0h.278v-.3c0-.91,0-1.82,0-2.729a3.733,3.733,0,0,1,.062-.708,3.128,3.128,0,0,1,3.09-2.554c1.4-.014,2.8-.005,4.2,0a2.978,2.978,0,0,1,.585.06,3.142,3.142,0,0,1,2.557,3.115c.01.95,0,1.9,0,2.852,0,.086.007.172.012.267,1.048,0,2.064-.009,3.08,0a3.024,3.024,0,0,1,2.785,1.62,7.177,7.177,0,0,1,.432,1.317v4.624a2.181,2.181,0,0,0-.047.214,3.085,3.085,0,0,1-2.755,2.683c-1.061.072-2.129.032-3.194.042h-.314v.291c0,.942.007,1.885,0,2.827a3.146,3.146,0,0,1-2.176,3.016C-217.575-132.287-217.835-132.249-218.089-132.191Zm.819-8.424v-6.266h-6.267v6.266Zm.018-8.4c0-1.038,0-2.053,0-3.068a1.05,1.05,0,0,0-1.129-1.115q-2.015,0-4.031,0a1.052,1.052,0,0,0-1.136,1.132q0,1.414,0,2.827c0,.072.007.143.013.224Zm-8.411,2.114c-1.037,0-2.044,0-3.051,0a1.051,1.051,0,0,0-1.132,1.136q0,2.015,0,4.031a1.05,1.05,0,0,0,1.115,1.129c.951,0,1.9,0,2.852,0,.071,0,.142-.009.216-.013Zm10.525,6.3c1.037,0,2.043,0,3.051,0a1.053,1.053,0,0,0,1.132-1.137q0-2.016,0-4.031a1.052,1.052,0,0,0-1.14-1.129c-.934,0-1.868,0-2.8,0h-.241Zm-8.411,2.113c0,.093,0,.157,0,.222,0,1-.012,2,.009,3a1,1,0,0,0,1,.959q2.138.015,4.277,0a1.01,1.01,0,0,0,1-.984c.014-1.049,0-2.1,0-3.146,0-.014-.016-.027-.03-.049Z" transform="translate(231.952 155.306)" fill="#e5e5ef" stroke="#e5e5ef" stroke-width="1"/>
      </g>
    </g>
    <g id="_60iJTc.tif-2" data-name="60iJTc.tif" transform="translate(99.043 1185.961)">
      <g id="Group_362-2" data-name="Group 362">
        <path id="Path_503-2" data-name="Path 503" d="M-179.14-153.948c0-.343-.025-.668,0-.987a2.138,2.138,0,0,1,2.042-1.912c1.022-.022,2.046-.018,3.069,0a2.168,2.168,0,0,1,2.145,2.177c0,.233,0,.466,0,.727.073,0,.138,0,.2,0,.534.01,1.072-.023,1.6.039a2.121,2.121,0,0,1,1.823,2.032c.019.784.007,1.568.007,2.353,0,1.671,0,3.342,0,5.013a2.162,2.162,0,0,1-1.83,2.175,2.425,2.425,0,0,1-.424.027q-5.021,0-10.042,0a2.168,2.168,0,0,1-2.223-1.836,2.423,2.423,0,0,1-.025-.424q0-3.555,0-7.11a2.173,2.173,0,0,1,2.277-2.269Zm3.638,1.458h-5a.745.745,0,0,0-.844.849q0,3.513,0,7.026a.756.756,0,0,0,.861.856h9.926a.756.756,0,0,0,.861-.855q0-3.513,0-7.026a.745.745,0,0,0-.844-.85Zm2.166-1.464c0-.242,0-.468,0-.694a.716.716,0,0,0-.716-.753c-.977-.011-1.953-.009-2.93,0a.687.687,0,0,0-.7.6,7.444,7.444,0,0,0-.007.85Z" transform="translate(182.794 156.863)" fill="#e5e5ef" stroke="#e5e5ef" stroke-width="1"/>
        <path id="Path_504-2" data-name="Path 504" d="M-165.68-134.217h-1.447v-1.443h-1.452v-1.46h1.443v-1.44h1.448v1.433h1.455v1.46h-1.447Z" transform="translate(173.68 145.128)" fill="#e5e5ef" stroke="#e5e5ef" stroke-width="1"/>
      </g>
    </g>
  </g>
</svg>
