<svg width="471" height="164" viewBox="0 0 471 164" fill="none" xmlns="http://www.w3.org/2000/svg">
<path d="M456.849 26.917C456.044 22.8516 459.615 21.0631 462.235 16.636C466.078 10.1407 470.692 10.1781 472.338 13.2546C473.984 16.331 470.916 19.963 471.789 23.5101L471.797 23.5431L471.804 23.5756C472.539 27.1541 476.874 29.1143 476.705 32.602C476.535 36.0896 472.391 38.1033 466.129 33.8869C461.858 31.0132 457.867 30.9353 456.849 26.917Z" fill="#2A2968"/>
<path d="M451.652 17.8388C455.229 19.3808 458.936 18.7604 459.93 16.4544C460.925 14.1483 458.829 11.0281 455.252 9.48603C451.675 7.94401 447.968 8.56438 446.974 10.8705C445.979 13.1766 448.074 16.2976 451.652 17.8388Z" fill="#2A2968"/>
<path d="M456.054 37.3465C458.623 34.4174 462.237 33.3858 464.123 35.0404C466.009 36.695 465.459 40.413 462.89 43.3421C460.321 46.2712 456.708 47.3034 454.821 45.6482C452.934 43.993 453.486 40.2762 456.054 37.3465Z" fill="#2A2968"/>
<path d="M445.885 28.2932C449.991 28.1066 453.218 25.8081 453.097 23.1621C452.976 20.516 449.551 18.523 445.446 18.7107C441.342 18.8985 438.113 21.1958 438.234 23.8419C438.355 26.488 441.78 28.4782 445.885 28.2932Z" fill="#2A2968"/>
<path d="M446.357 30.3848C450.145 28.7914 454.047 29.4793 455.074 31.9219C456.1 34.3646 453.863 37.6347 450.076 39.2273C446.289 40.8199 442.386 40.1328 441.36 37.6907C440.335 35.2486 442.57 31.9783 446.357 30.3848Z" fill="#2A2968"/>
<path d="M341.712 65.7276C340.897 62.482 343.704 60.8953 345.636 57.2183C348.47 51.8245 352.189 51.6654 353.644 54.0809C355.099 56.4963 352.771 59.5475 353.62 62.3717L353.627 62.3979L353.634 62.4248C354.37 65.2822 357.946 66.6836 357.953 69.5029C357.961 72.3221 354.699 74.1139 349.479 70.9701C345.921 68.8269 342.698 68.9252 341.712 65.7276Z" fill="#636A9B"/>
<path d="M337.152 58.6192C340.099 59.7166 343.066 59.0689 343.77 57.1661C344.473 55.2632 342.661 52.8357 339.714 51.7383C336.766 50.6409 333.799 51.2886 333.095 53.1921C332.391 55.0956 334.204 57.5224 337.152 58.6192Z" fill="#636A9B"/>
<path d="M341.497 74.1705C343.448 71.7041 346.32 70.7248 347.91 71.9828C349.5 73.2407 349.207 76.2607 347.255 78.7278C345.302 81.1949 342.431 82.1736 340.841 80.9156C339.251 79.6577 339.545 76.6369 341.497 74.1705Z" fill="#636A9B"/>
<path d="M332.928 67.2826C336.23 66.9644 338.74 64.9803 338.536 62.8498C338.331 60.7192 335.486 59.2527 332.186 59.573C328.886 59.8933 326.375 61.8754 326.578 64.0059C326.781 66.1364 329.627 67.6008 332.928 67.2826Z" fill="#636A9B"/>
<path d="M333.394 68.9514C336.386 67.5153 339.56 67.9048 340.485 69.8345C341.411 71.7642 339.742 74.4894 336.753 75.9284C333.764 77.3674 330.587 76.9742 329.662 75.0452C328.737 73.1162 330.403 70.3925 333.394 68.9514Z" fill="#636A9B"/>
<path d="M237.832 115.749C238.932 113.02 241.752 113.349 245.032 111.734C249.842 109.369 252.568 111.183 252.351 113.653C252.134 116.123 248.897 117.086 248.037 119.534L248.029 119.557L248.02 119.579C247.065 121.991 248.878 124.84 247.42 126.848C245.962 128.856 242.72 128.438 240.636 123.499C239.219 120.138 236.875 118.532 237.832 115.749Z" fill="#7F84A7"/>
<path d="M238.274 108.334C239.801 110.642 242.244 111.715 243.732 110.734C245.22 109.753 245.188 107.081 243.661 104.774C242.134 102.467 239.691 101.394 238.203 102.374C236.715 103.354 236.747 106.026 238.274 108.334Z" fill="#7F84A7"/>
<path d="M233.305 121.638C235.971 120.896 238.519 121.688 238.997 123.406C239.475 125.124 237.697 127.119 235.036 127.861C232.375 128.603 229.822 127.811 229.344 126.092C228.866 124.373 230.639 122.38 233.305 121.638Z" fill="#7F84A7"/>
<path d="M230.783 112.302C233.295 113.786 236.107 113.677 237.064 112.058C238.021 110.439 236.764 107.922 234.248 106.438C231.732 104.954 228.924 105.063 227.967 106.682C227.01 108.301 228.271 110.818 230.783 112.302Z" fill="#7F84A7"/>
<path d="M230.249 113.73C233.119 114.256 235.171 116.182 234.832 118.03C234.493 119.878 231.892 120.953 229.021 120.43C226.15 119.907 224.099 117.978 224.438 116.13C224.777 114.282 227.38 113.205 230.249 113.73Z" fill="#7F84A7"/>
<path d="M89.2514 125.579C90.1724 123.3 92.5254 123.572 95.2634 122.226C99.2804 120.251 101.556 121.765 101.375 123.826C101.194 125.887 98.4904 126.693 97.7754 128.737L97.7684 128.756L97.7614 128.775C96.9614 130.789 98.4784 133.169 97.2614 134.846C96.0444 136.523 93.3334 136.174 91.5954 132.046C90.4074 129.241 88.4524 127.904 89.2514 125.579Z" fill="#BCBED0"/>
<path d="M89.62 119.387C90.895 121.314 92.935 122.21 94.178 121.387C95.421 120.564 95.394 118.337 94.119 116.41C92.844 114.483 90.804 113.587 89.561 114.41C88.318 115.233 88.345 117.46 89.62 119.387Z" fill="#BCBED0"/>
<path d="M85.4704 130.497C87.6964 129.878 89.8244 130.539 90.2244 131.974C90.6244 133.409 89.1424 135.074 86.9164 135.694C84.6904 136.314 82.5624 135.652 82.1624 134.217C81.7624 132.782 83.2443 131.117 85.4704 130.497Z" fill="#BCBED0"/>
<path d="M83.3635 122.7C85.4635 123.94 87.8104 123.848 88.6094 122.5C89.4084 121.152 88.3554 119.046 86.2574 117.806C84.1594 116.566 81.8114 116.658 81.0124 118.006C80.2134 119.354 81.2665 121.46 83.3635 122.7Z" fill="#BCBED0"/>
<path d="M82.9183 123.893C85.3183 124.332 87.0283 125.941 86.7453 127.486C86.4623 129.031 84.2892 129.928 81.8932 129.486C79.4972 129.044 77.7832 127.438 78.0662 125.893C78.3492 124.348 80.5213 123.454 82.9183 123.893Z" fill="#BCBED0"/>
<path d="M11.5654 136.461C11.2779 134.651 12.8861 133.924 14.1171 132.012C15.9244 129.208 17.9596 129.303 18.6355 130.69C19.3114 132.077 17.8936 133.627 18.2195 135.208L18.2267 135.22L18.2288 135.235C18.4922 136.827 20.3727 137.767 20.2393 139.304C20.106 140.841 18.2404 141.66 15.5471 139.692C13.7141 138.354 11.948 138.253 11.5654 136.461Z" fill="#CDCFDE"/>
<path d="M9.42579 132.366C10.9797 133.108 12.6245 132.894 13.108 131.893C13.5915 130.892 12.714 129.478 11.1606 128.738C9.60718 127.997 7.96176 128.21 7.47826 129.211C6.99475 130.212 7.87138 131.624 9.42579 132.366Z" fill="#CDCFDE"/>
<path d="M11.0377 141.054C12.2215 139.805 13.8343 139.41 14.6404 140.173C15.4464 140.936 15.1392 142.568 13.956 143.818C12.7728 145.068 11.1594 145.462 10.3534 144.699C9.54735 143.937 9.85364 142.305 11.0377 141.054Z" fill="#CDCFDE"/>
<path d="M6.69982 136.884C8.51547 136.871 9.98056 135.911 9.97142 134.741C9.96227 133.57 8.48416 132.632 6.66696 132.643C4.84977 132.653 3.38684 133.616 3.39547 134.786C3.4041 135.956 4.88503 136.896 6.69982 136.884Z" fill="#CDCFDE"/>
<path d="M6.87306 137.817C8.57237 137.177 10.2845 137.547 10.6956 138.643C11.1066 139.739 10.0638 141.145 8.36535 141.784C6.66688 142.423 4.95479 142.053 4.54284 140.957C4.1309 139.862 5.17408 138.455 6.87306 137.817Z" fill="#CDCFDE"/>
<path d="M411.434 87.6334C409.403 84.9733 411.356 82.4071 411.681 78.2635C412.155 72.1887 415.508 70.5737 417.798 72.2185C420.088 73.8632 419.155 77.5861 421.05 79.846L421.069 79.8651L421.088 79.8842C422.894 82.2162 426.73 82.0939 427.851 84.6812C428.972 87.2685 426.681 90.203 420.645 89.3757C416.525 88.8185 413.602 90.1818 411.434 87.6334Z" fill="#2A2968"/>
<path d="M404.437 82.9034C407.579 82.7472 410.041 80.9766 409.942 78.9536C409.844 76.9305 407.214 75.4131 404.073 75.5686C400.932 75.7242 398.469 77.4955 398.567 79.5185C398.665 81.5416 401.295 83.0597 404.437 82.9034Z" fill="#2A2968"/>
<path d="M414.57 95.473C415.39 92.436 417.64 90.403 419.598 90.9312C421.556 91.4594 422.479 94.3494 421.659 97.3864C420.84 100.423 418.589 102.456 416.632 101.929C414.675 101.401 413.75 98.51 414.57 95.473Z" fill="#2A2968"/>
<path d="M403.978 92.53C406.884 90.9341 408.408 88.1198 407.379 86.2453C406.35 84.3707 403.158 84.1459 400.248 85.7397C397.337 87.3335 395.818 90.1499 396.846 92.0245C397.875 93.899 401.067 94.1239 403.978 92.53Z" fill="#2A2968"/>
<path d="M405.065 93.8792C407.242 91.3767 410.316 90.4865 411.929 91.8901C413.542 93.2937 413.084 96.4609 410.907 98.9633C408.73 101.466 405.656 102.356 404.044 100.952C402.432 99.5474 402.888 96.3816 405.065 93.8792Z" fill="#2A2968"/>
<path d="M319.875 149.404C319.737 146.464 322.434 145.584 324.739 142.75C328.121 138.592 331.355 139.102 332.19 141.438C333.025 143.774 330.49 146 330.726 148.583C330.726 148.591 330.726 148.599 330.726 148.607V148.631C330.865 151.222 333.703 153.053 333.218 155.485C332.733 157.917 329.608 158.894 325.655 155.276C322.964 152.804 320.168 152.331 319.875 149.404Z" fill="#636A9B"/>
<path d="M317.179 142.48C319.53 143.94 322.198 143.894 323.139 142.38C324.08 140.866 322.939 138.453 320.586 136.994C318.233 135.535 315.567 135.58 314.626 137.094C313.685 138.608 314.828 141.021 317.179 142.48Z" fill="#636A9B"/>
<path d="M318.219 156.647C320.331 154.86 322.977 154.515 324.129 155.877C325.281 157.239 324.503 159.791 322.39 161.577C320.277 163.363 317.631 163.709 316.479 162.347C315.327 160.985 316.107 158.431 318.219 156.647Z" fill="#636A9B"/>
<path d="M312.029 149.215C314.929 149.515 317.441 148.241 317.634 146.37C317.827 144.499 315.634 142.739 312.729 142.439C309.824 142.139 307.317 143.413 307.124 145.284C306.931 147.155 309.127 148.915 312.029 149.215Z" fill="#636A9B"/>
<path d="M312.141 150.735C314.968 150.015 317.641 150.908 318.102 152.735C318.563 154.562 316.651 156.619 313.824 157.335C310.997 158.051 308.324 157.163 307.863 155.335C307.402 153.507 309.314 151.456 312.141 150.735Z" fill="#636A9B"/>
<path d="M170.063 151.606C169.718 149.172 171.891 148.229 173.585 145.692C176.071 141.97 178.8 142.14 179.677 144.017C180.554 145.894 178.617 147.944 179.02 150.072V150.092V150.112C179.339 152.255 181.842 153.555 181.63 155.612C181.418 157.669 178.896 158.729 175.33 156.031C172.899 154.2 170.536 154.019 170.063 151.606Z" fill="#B2B6CC"/>
<path d="M167.279 146.062C169.348 147.091 171.562 146.844 172.226 145.51C172.89 144.176 171.75 142.261 169.681 141.232C167.612 140.203 165.397 140.45 164.734 141.784C164.071 143.118 165.21 145.033 167.279 146.062Z" fill="#B2B6CC"/>
<path d="M169.254 157.757C170.87 156.106 173.043 155.612 174.108 156.657C175.173 157.702 174.725 159.882 173.108 161.534C171.491 163.186 169.319 163.68 168.254 162.634C167.189 161.588 167.638 159.405 169.254 157.757Z" fill="#B2B6CC"/>
<path d="M163.525 152.065C165.961 152.087 167.948 150.831 167.962 149.26C167.976 147.689 166.012 146.398 163.575 146.377C161.138 146.356 159.152 147.611 159.138 149.182C159.124 150.753 161.089 152.043 163.525 152.065Z" fill="#B2B6CC"/>
<path d="M163.732 153.32C166.026 152.499 168.315 153.033 168.845 154.512C169.375 155.991 167.945 157.856 165.645 158.677C163.345 159.498 161.062 158.964 160.532 157.485C160.002 156.006 161.443 154.141 163.732 153.32Z" fill="#B2B6CC"/>
</svg>
