<svg width="101" height="101" viewBox="0 0 101 101" fill="none" xmlns="http://www.w3.org/2000/svg">
<path d="M98.0763 23.8558C103.913 34.3796 100.143 47.6408 89.6254 53.4806L32.3542 85.4169C21.8362 91.2567 8.58236 87.4852 2.7458 76.9614C-3.09076 66.4376 0.678679 53.1764 11.1966 47.3366L68.4679 15.4002C78.9251 9.62126 92.1789 13.3928 98.0763 23.8558Z" fill="#F2F2F3"/>
<path d="M53.4505 11.2029L85.3692 68.5059C91.2058 79.0296 87.4363 92.2909 76.9184 98.1307C66.4004 103.97 53.1465 100.199 47.31 89.6751L15.3913 32.3721C9.55474 21.9092 13.3242 8.64795 23.8422 2.74732C34.3601 -3.09248 47.614 0.679058 53.4505 11.2029Z" fill="#F2F2F3"/>
</svg>
