<svg xmlns="http://www.w3.org/2000/svg" width="276.08" height="501.082" viewBox="0 0 276.08 501.082">
  <g id="taiwan_map" data-name="taiwan map" transform="translate(-180.365 -68.001)">
    <g id="OBJECTS" transform="translate(180.365 68.001)">
      <g id="Group_289" data-name="Group 289" transform="translate(0 0)">
        <g id="Group_288" data-name="Group 288">
          <path id="Path_421" data-name="Path 421" d="M362.829,71.834c.688-.028,1.382-.074,1.934-.083a28.134,28.134,0,0,1,9.969,1.426c6.746,2.366,11.324,7.349,14.578,13.257,4.3-.943,8.532-.746,12.6,2.438a13.61,13.61,0,0,1,4.834,7.581,15.808,15.808,0,0,1-1.607,11.763c-3.374,5.781-8.693,7.444-14.617,9.139-.442.127-1.037.281-1.537.463-3.064,3.085-6.9,6.9-8.644,10.685-.759,1.644-.6,7.04-.613,9.253.362,2.406,1.146,4.341,1.271,7.063.025.554.024,1.063,0,1.543a16.886,16.886,0,0,1,7.108,8.594,14.564,14.564,0,0,1,.866,5.94c-.283,4.462-1.864,6.508-4.019,9.541l-.016.217c-.356,4.7-1.078,8.591-4.079,12.418a41.386,41.386,0,0,1-4.079,4.341c-.069.067-.145.138-.224.212,2.374,5.638,3.6,10.911.807,16.881a41.732,41.732,0,0,1-10.815,13.861c-2.969,2.6-6.256,4.9-9.142,7.557a16.926,16.926,0,0,0-3.308,3.9c.651,1.6,1.635,3.458,2.177,4.945a23.655,23.655,0,0,1,.217,16.878c-5.133,13.761-10.6,25.622-13.237,40.238s-4.175,29.347-7.933,43.767a28,28,0,0,1-.893,2.8,48.126,48.126,0,0,1-4.271,8.214,21.454,21.454,0,0,0-2.253,4.224c-.023.079-.042.16-.06.242a23.27,23.27,0,0,0-.254,4.2c-.054,4.508-.226,8.557-1.784,12.874-2.622,7.271-6.973,11.838-10.966,18.089-5.157,8.075-10.833,15.861-15.659,24.139-2.6,4.463-4.031,9.7-6.778,14.369-4.056,6.9-9.271,13.006-14.5,19.037-6.19,7.15-16.084,17.62-16.364,27.673l-1.218,43.762c-.267,9.6-2.336,20.147-8.729,27.655-5.74,6.741-14.642,10.062-23.264,7.307-9.249-2.956-14.831-11.668-15.069-21.167a83.724,83.724,0,0,1,.377-8.768c.2-2.541.71-7.069-.188-9.511-5.034-13.719-11.866-27.136-21.056-38.554-2.04-2.535-6.308-4.783-9.13-6.327-8.463-4.633-16.2-9.007-20.866-17.9a75.54,75.54,0,0,1-3.891-8.779c-3.828-10.308-5.488-21.043-7.246-31.837-1.277-7.848-2.621-15.96-5.315-23.465a21.18,21.18,0,0,0-3.01-3.09c-6.38-5.815-11.828-11.452-11.514-20.8.37-11.047-1.568-20.682,1.373-31.822a23.335,23.335,0,0,1,1.3-3.64c1.748-3.872,4.256-6.792,7.084-9.876a22.553,22.553,0,0,0,2.794-3.371q.19-.711.339-1.432a67.9,67.9,0,0,0,.891-13.121c.049-8.9.142-17.322,3.273-25.821a68.469,68.469,0,0,1,2.743-6.389c3.613-7.388,8.356-13.974,13.133-20.63,3.962-5.521,8.141-11.3,10.9-17.538q.3-.684.559-1.385a64.874,64.874,0,0,0,2.738-12.712c1.322-8.864,2.627-17.243,7.069-25.192a36.839,36.839,0,0,1,3.5-5.154c4.043-5.012,8.966-8.631,14.084-12.423a50.251,50.251,0,0,0,7.741-6.551c.335-.377.652-.77.959-1.171,4.263-5.6,6.793-12.134,11.539-17.831a35.668,35.668,0,0,1,8.356-6.97,34.227,34.227,0,0,0,3.51-2.4c6.379-18.667,15.926-36.692,33.178-47.358a84.442,84.442,0,0,1,17.526-7.873c4.042-1.382,8.49-2.693,12.281-4.658a18.322,18.322,0,0,0,6.5-5.334c7.023-9.274,16.444-19.2,28.989-19.263,13.443-.063,22.677,11.067,29.048,21.707" transform="translate(-131.139 -50.127)" fill="#95abb7" fill-rule="evenodd" opacity="0.4"/>
          <path id="Path_422" data-name="Path 422" d="M351.359,80.635,368.4,93.526,384.334,88.5c1.364,4.056,7.6,7.562,8.6,11.723,1.558,6.493-9.858,5.188-13.87,9.257-4.433,4.5-9.11,9.129-11.755,14.866-2.023,4.388-1.633,9.561-1.731,14.392-.052,2.56,1.168,5.015,1.287,7.573.1,2.245-1.738,4.76-.626,6.713,1.819,3.194,7.2,3.613,8.47,7.064.888,2.414-2.5,4.53-3.3,6.974-1.008,3.061-.111,6.9-2.1,9.438-2.539,3.236-6.781,5.682-7.619,9.71-.972,4.679,4.7,9.755,2.673,14.084-5.8,12.409-19.521,14.956-24.382,27.759-2.338,6.156,6.241,11.955,3.136,20.279-5.894,15.8-10.816,25.732-13.81,42.327-2.578,14.288-4.072,28.812-7.734,42.86-1.4,5.355-5.773,9.588-7.324,14.9-1.558,5.343.026,11.358-1.862,16.594-2.089,5.79-6.463,10.482-9.777,15.671-5.25,8.221-11,16.132-15.916,24.559-2.659,4.563-4.08,9.78-6.755,14.333-10.433,17.758-31.957,31.944-32.53,52.53l-1.218,43.762c-.864,31.051-22.4,28-22.756,13.831-.183-7.388,2-15.228-.551-22.166-5.5-14.98-12.994-29.554-23-41.985-7.589-9.431-23.079-11.531-28.7-22.252-10.007-19.088-8.506-42.418-15.829-62.689-2.677-7.413-14.027-11.35-13.764-19.227.326-9.708-1.5-19.734.977-29.125,1.707-6.466,9.362-10.245,11.124-16.7,3.483-12.761-.366-27.051,4.207-39.465,5.9-16.019,19.576-28.226,26.487-43.838,5.334-12.049,3.437-26.778,9.864-38.282,5.269-9.433,16.648-13.907,23.811-22,5.106-5.767,7.807-13.362,12.738-19.28,3.988-4.787,11.823-6.689,13.815-12.593,19.988-59.242,51.2-40.417,67.884-62.444C326.242,59.5,337.407,56.3,351.359,80.635" transform="translate(-129.147 -47.545)" fill="#04032f" fill-rule="evenodd"/>
          <path id="Path_423" data-name="Path 423" d="M351.359,70.843c6.488,11.315,19.483-6.66,28.38,19.8,1.364,4.056,12.192-4.377,13.19-.215,1.558,6.494-9.858,5.189-13.87,9.258-4.433,4.5-9.111,9.129-11.755,14.866-2.023,4.388-1.633,9.561-1.731,14.392-.052,2.56,1.168,5.015,1.287,7.573.1,2.245-1.738,4.76-.626,6.713,1.819,3.194,7.2,3.613,8.47,7.064.888,2.414-2.5,4.53-3.3,6.973-1.007,3.061-.11,6.9-2.1,9.439-2.539,3.236-6.781,5.682-7.619,9.71-.972,4.678,4.694,9.755,2.673,14.084-5.8,12.408-19.522,14.956-24.383,27.759-2.337,6.156,6.242,11.955,3.137,20.279-5.894,15.8-10.816,25.732-13.81,42.327-2.578,14.287-4.072,28.812-7.734,42.859-1.4,5.357-5.773,9.589-7.324,14.9-1.558,5.343.026,11.357-1.862,16.593-2.089,5.792-6.463,10.483-9.777,15.672-5.25,8.221-11,16.132-15.916,24.559-2.659,4.563-4.08,9.78-6.755,14.333-10.433,17.756-31.957,31.944-32.53,52.53l-1.218,43.762c-.864,31.049-22.4,28-22.756,13.831-.183-7.388,2-15.228-.551-22.166-5.5-14.98-12.994-29.555-23-41.986-7.589-9.43-23.079-11.53-28.7-22.251-10.007-19.088-8.506-42.42-15.829-62.689-2.677-7.413-14.027-11.35-13.764-19.228.326-9.708-1.5-19.733.977-29.124,1.707-6.466,9.362-10.245,11.124-16.7,3.483-12.763-.366-27.053,4.207-39.466,5.9-16.019,19.576-28.227,26.487-43.838,5.334-12.05,3.437-26.779,9.864-38.282,5.269-9.433,16.648-13.907,23.811-22,5.106-5.766,7.807-13.361,12.738-19.279,3.988-4.788,11.823-6.689,13.815-12.593,19.988-59.242,51.2-40.417,67.884-62.444,13.752-18.157,24.916-21.355,38.869,2.976" transform="translate(-129.147 -49.477)" fill="#ffdc55" stroke="#2a2968" stroke-width="3" fill-rule="evenodd"/>
        </g>
      </g>
    </g>
  </g>
</svg>
