<svg xmlns="http://www.w3.org/2000/svg" xmlns:xlink="http://www.w3.org/1999/xlink" width="195.157" height="139.726" viewBox="0 0 195.157 139.726">
  <defs>
    <linearGradient id="linear-gradient" x1="0.5" y1="1" x2="0.5" gradientUnits="objectBoundingBox">
      <stop offset="0" stop-color="gray" stop-opacity="0.251"/>
      <stop offset="0.54" stop-color="gray" stop-opacity="0.122"/>
      <stop offset="1" stop-color="gray" stop-opacity="0.102"/>
    </linearGradient>
    <linearGradient id="linear-gradient-2" x1="0.5" y1="1" x2="0.5" y2="0" xlink:href="#linear-gradient"/>
  </defs>
  <g id="Group_335" data-name="Group 335" transform="translate(0 0)">
    <ellipse id="Ellipse_38" data-name="Ellipse 38" cx="17.394" cy="2.794" rx="17.394" ry="2.794" transform="translate(46.087 134.06)" fill="#52a2ce" opacity="0.1"/>
    <ellipse id="Ellipse_39" data-name="Ellipse 39" cx="21.705" cy="2.794" rx="21.705" ry="2.794" transform="translate(136.326 134.138)" fill="#52a2ce" opacity="0.1"/>
    <path id="Path_182" data-name="Path 182" d="M59.371,396.83H77.488v24.693H60.7c-.045.254-.087.509-.134.764H77.488V442.2c-.03-.009-.057-.02-.086-.03-.478-.189-.953-.389-1.428-.6l-.3-.137q-.714-.337-1.428-.714c-.166-.087-.332-.179-.5-.271a29.706,29.706,0,0,1-7.119-5.562c-.061-.059-.118-.121-.179-.178-.289-.314-.573-.632-.848-.957l-.3-.357c-.325-.4-.639-.807-.944-1.221-.045-.061-.087-.121-.134-.178a26.577,26.577,0,0,1-3.07-5.552c-.025-.059-.046-.123-.07-.179q-.368-.946-.652-1.91c-.082-.27-.161-.535-.228-.816-.025-.082-.046-.162-.066-.243A48.807,48.807,0,0,1,59,411.141v-1.428c0-1.651.02-3.313.048-4.973,0-.43.018-.859.027-1.291q.037-1.644.107-3.288c.011-.305.025-.609.041-.912a5.169,5.169,0,0,1,.027-.525C59.293,398.089,59.328,397.458,59.371,396.83Z" transform="translate(-59 -336.458)" fill="#52a2ce" opacity="0.1"/>
    <path id="Path_183" data-name="Path 183" d="M116.838,185.01H106.9a75.33,75.33,0,0,1,5.286-7.276c1.476-1.814,3.035-3.581,4.652-5.284Z" transform="translate(-98.349 -152.131)" fill="#fffae8"/>
    <path id="Path_184" data-name="Path 184" d="M79.46,247.09v25.966H61.4c0-.075.013-.152.018-.227.016-.205.032-.411.05-.614.02-.239.041-.48.064-.714s.048-.519.075-.778.052-.521.082-.78.057-.518.089-.775.061-.518.095-.775c.027-.214.055-.427.084-.641.041-.3.084-.605.13-.9a.836.836,0,0,1,.02-.134,61.748,61.748,0,0,1,1.33-6.519,48.211,48.211,0,0,1,2.24-6.6,49.58,49.58,0,0,1,3.37-6.49Z" transform="translate(-60.972 -213.448)" fill="#fffae8"/>
    <path id="Path_185" data-name="Path 185" d="M186.8,118.994v24.695h38.7V118.994Zm0,25.457v21.207c.221.046.441.091.659.128.3.057.591.109.893.154.057.009.116.018.179.023.118.02.239.036.357.052.3.041.594.075.893.1.141.014.284.027.427.037l.345.027h0c.187.014.373.025.557.03.114,0,.229.011.346.014h1.273c.154,0,.307,0,.459-.014h.011a2.406,2.406,0,0,0,.32-.014.745.745,0,0,0,.089,0,1.848,1.848,0,0,0,.264-.012h.062l.6-.046c.2-.018.395-.041.594-.062l.407-.048a35.606,35.606,0,0,0,4.9-1.042c3.609-1.007,7.14-2.415,10.748-3.447,4.664-1.33,9.818-1.983,14.325-.357v-16.73ZM225.5,91.5V58.627A49.745,49.745,0,0,0,212.923,60.1c-9.8,2.462-18.59,7.8-26.123,14.62V91.5h1.942v.762H186.8v25.969h38.7V92.264H196.716V91.5Zm49.7-11.1a16.028,16.028,0,0,1-7.014-2.039c-4.168-2.267-7.5-5.768-11.217-8.722A51.5,51.5,0,0,0,229.817,58.85V91.5h55.239l.137-.145Zm5.032-.893,5.336,5.855V77.97a21.17,21.17,0,0,0-5.328,1.528Zm5.336,91.419V144.451H274.2c-.03-.112-.061-.227-.1-.341.034.114.062.229.095.341h-44.37V163.6c.421.312.837.641,1.25.975h0c.444.357.884.734,1.325,1.1l.444.368c.212.178.427.357.643.525q.643.521,1.3,1.028c.216.178.437.339.657.507a89.474,89.474,0,0,0,11,7.2q1.291.714,2.6,1.394c.584.3,1.171.594,1.76.882q1.328.648,2.678,1.25h0a98.329,98.329,0,0,0,26.062,7.592q3,.443,6.017.7V170.922h.179ZM229.824,92.264v25.967h55.748V92.264Zm0,26.73v24.695h55.748V118.994ZM289.9,77.937v8.243l6.81-7.472q-3.384-.546-6.81-.78Zm0,41.066v24.686H344.12V118.994Zm54.023,53.881.191-28.433H289.9v42.943a97.237,97.237,0,0,0,10.478-.125h.061q2.5-.157,4.975-.457h.037a91.617,91.617,0,0,0,25.562-6.821m23.563-56.931c-.2-.48-.416-.957-.632-1.428-.4-.893-.83-1.76-1.269-2.628h-4.231v24.684h10.7a53.359,53.359,0,0,0-4.559-20.637Zm-6.132,21.4v24.455a35.035,35.035,0,0,0,7.392-9.97,34.273,34.273,0,0,0,3.3-14.489Zm0-32.653v6.426h3.834a69.632,69.632,0,0,0-3.829-6.435ZM311.671,82.782c-.282-.107-.564-.216-.848-.321a77.406,77.406,0,0,0-9.159-2.753L291.243,91.145h0l-.2.212.134.146h37.09a79.33,79.33,0,0,0-16.59-8.731Zm17.683,9.491h-38.7l-.76.7v25.262h54.229V106a77.258,77.258,0,0,0-14.768-13.731Z" transform="translate(-163.987 -58.624)" fill="#fffae8"/>
    <path id="Path_186" data-name="Path 186" d="M79.46,320.46v12.869H61.4c0-.075.013-.152.018-.227.016-.205.032-.411.05-.614.02-.239.041-.48.064-.714s.048-.519.075-.778.052-.521.082-.78.057-.518.089-.775.061-.518.095-.775c.027-.214.055-.427.084-.641.041-.3.084-.605.13-.905a.835.835,0,0,1,.02-.134,61.748,61.748,0,0,1,1.33-6.519Z" transform="translate(-60.972 -273.721)" fill="#d2ebf7" opacity="0.699"/>
    <path id="Path_187" data-name="Path 187" d="M59.371,396.83H77.488v24.693H60.7c-.045.254-.087.509-.134.764H77.488V442.2c-.03-.009-.057-.02-.086-.03-.478-.189-.953-.389-1.428-.6l-.3-.137q-.714-.337-1.428-.714c-.166-.087-.332-.179-.5-.271a29.706,29.706,0,0,1-7.119-5.562c-.061-.059-.118-.121-.179-.178-.289-.314-.573-.632-.848-.957l-.3-.357c-.325-.4-.639-.807-.944-1.221-.045-.061-.087-.121-.134-.178a26.577,26.577,0,0,1-3.07-5.552c-.025-.059-.046-.123-.07-.179q-.368-.946-.652-1.91c-.082-.27-.161-.535-.228-.816-.025-.082-.046-.162-.066-.243A48.807,48.807,0,0,1,59,411.141v-1.428c0-1.651.02-3.313.048-4.973,0-.43.018-.859.027-1.291q.037-1.644.107-3.288c.011-.305.025-.609.041-.912a5.169,5.169,0,0,1,.027-.525C59.293,398.089,59.328,397.458,59.371,396.83Z" transform="translate(-59 -336.458)" fill="#d2ebf7" opacity="0.699"/>
    <path id="Path_188" data-name="Path 188" d="M153.182,174.613v22.249H139.56V174.613H141.5V167.08h7.972v7.533Z" transform="translate(-116.747 -137.254)" fill="#d2ebf7" opacity="0.699"/>
    <rect id="Rectangle_104" data-name="Rectangle 104" width="13.62" height="24.693" transform="translate(22.815 60.37)" fill="#d2ebf7" opacity="0.699"/>
    <path id="Path_189" data-name="Path 189" d="M186.8,539.44h13.622v20.528a35.537,35.537,0,0,1-4.9,1.041l-.407.05c-.2.023-.4.043-.594.062s-.4.034-.6.046h-.062c-.086,0-.178.011-.262.012h-.091c-.107,0-.214.011-.321.014h0c-.152.009-.3.011-.459.013h-1.264l-.345-.013c-.178,0-.371-.02-.557-.032h0l-.343-.025-.427-.039c-.3-.027-.6-.061-.893-.1l-.357-.05-.179-.025c-.3-.046-.593-.1-.893-.153-.22-.038-.437-.084-.659-.129Z" transform="translate(-163.987 -453.611)" fill="#d2ebf7" opacity="0.699"/>
    <rect id="Rectangle_105" data-name="Rectangle 105" width="11.232" height="24.875" transform="translate(110.353 34.731)" fill="#d2ebf7" opacity="0.7"/>
    <path id="Path_190" data-name="Path 190" d="M436.33,338.19v24.695H380.58V352.233h29.695v6.283H425.1V338.19Z" transform="translate(-314.743 -277.82)" fill="#d2ebf7" opacity="0.7"/>
    <path id="Path_191" data-name="Path 191" d="M483.746,564.347h-.179v16.2q-3.017-.255-6.016-.694a98.332,98.332,0,0,1-26.073-7.608q-3.593-1.617-7.04-3.531a89.837,89.837,0,0,1-11-7.2q-1.314-1.007-2.594-2.06c-.591-.487-1.178-.987-1.773-1.473-.412-.334-.828-.662-1.25-.976V537.871h44.368c-.03-.114-.061-.229-.093-.341.034.112.066.227.1.341h11.376v26.465C483.629,564.338,483.687,564.344,483.746,564.347Z" transform="translate(-361.983 -452.042)" fill="#d2ebf7" opacity="0.7"/>
    <path id="Path_192" data-name="Path 192" d="M870.539,201.169H863.22v-2.274H866.5V192.12q.427.155.85.32v6.455h3.188Z" transform="translate(-719.661 -168.29)" fill="#d2ebf7" opacity="0.699"/>
    <path id="Path_193" data-name="Path 193" d="M806.959,273.056h-35.93l.013.009-.016-.009H764.36V248.181h1.889v18.386h8.631V255.678h7.13V247.09h7.319v8.6h7.13v10.889h10.5Z" transform="translate(-638.448 -213.448)" fill="#d2ebf7" opacity="0.699"/>
    <path id="Path_194" data-name="Path 194" d="M764.36,396.82v24.695h42.6V396.82Zm54.163,53.763.059-19.547H806.959v-8.747h-42.6V465.22a97.239,97.239,0,0,0,10.478-.125h.061q2.5-.157,4.975-.457h.037a91.617,91.617,0,0,0,25.562-6.821" transform="translate(-638.448 -336.45)" fill="#d2ebf7" opacity="0.699"/>
    <path id="Path_195" data-name="Path 195" d="M1093.12,539.44h9.938a34.382,34.382,0,0,1-3.3,14.488,35.041,35.041,0,0,1-7.39,9.97V548.189h.75Z" transform="translate(-907.906 -453.611)" fill="#d2ebf7" opacity="0.699"/>
    <path id="Path_196" data-name="Path 196" d="M1106.513,440.187h-9.943V419.55h5.38A53.429,53.429,0,0,1,1106.513,440.187Z" transform="translate(-911.357 -355.122)" fill="#d2ebf7" opacity="0.699"/>
    <rect id="Rectangle_106" data-name="Rectangle 106" width="6.017" height="7.799" transform="translate(115.569 41.647)" fill="#6c63ff" opacity="0.1"/>
    <rect id="Rectangle_107" data-name="Rectangle 107" width="6.017" height="1.796" transform="translate(115.569 57.812)" fill="#d2ebf7" opacity="0.7"/>
    <rect id="Rectangle_108" data-name="Rectangle 108" width="6.017" height="5.239" transform="translate(115.569 60.37)" fill="#d2ebf7" opacity="0.7"/>
    <rect id="Rectangle_109" data-name="Rectangle 109" width="6.017" height="7.799" transform="translate(115.569 73.978)" fill="#d2ebf7" opacity="0.7"/>
    <rect id="Rectangle_110" data-name="Rectangle 110" width="6.017" height="7.799" transform="translate(115.569 90.144)" fill="#d2ebf7" opacity="0.7"/>
    <path id="Path_197" data-name="Path 197" d="M712.436,660.156a1,1,0,0,1,.178.011h-.178v1.812H706.42V654.17h6.016Z" transform="translate(-590.851 -547.861)" fill="#d2ebf7" opacity="0.7"/>
    <path id="Path_198" data-name="Path 198" d="M712.436,744.71v6.025q-3.017-.255-6.016-.694v-5.33Z" transform="translate(-590.851 -622.239)" fill="#d2ebf7" opacity="0.7"/>
    <rect id="Rectangle_111" data-name="Rectangle 111" width="25.789" height="0.573" transform="translate(65.837 84.492)" fill="#52a2ce" opacity="0.1"/>
    <rect id="Rectangle_112" data-name="Rectangle 112" width="25.789" height="2.196" transform="translate(65.837 85.827)" fill="#d2ebf7" opacity="0.7"/>
    <rect id="Rectangle_113" data-name="Rectangle 113" width="25.789" height="3.531" transform="translate(65.837 95.22)" fill="#d2ebf7" opacity="0.7"/>
    <path id="Path_199" data-name="Path 199" d="M459.349,652.15v3.531H439.178q-1.314-1-2.6-2.06c-.591-.487-1.176-.987-1.773-1.471Z" transform="translate(-367.725 -546.201)" fill="#d2ebf7" opacity="0.7"/>
    <path id="Path_200" data-name="Path 200" d="M530.088,712.216v3.527h-2.13q-3.59-1.619-7.039-3.533Z" transform="translate(-438.464 -595.54)" fill="#d2ebf7" opacity="0.7"/>
    <rect id="Rectangle_114" data-name="Rectangle 114" width="5.077" height="5.077" transform="translate(136.392 62.764)" fill="#d2ebf7" opacity="0.699"/>
    <rect id="Rectangle_115" data-name="Rectangle 115" width="5.077" height="5.077" transform="translate(26.471 39.11)" fill="#d2ebf7" opacity="0.699"/>
    <rect id="Rectangle_116" data-name="Rectangle 116" width="5.077" height="5.077" transform="translate(26.471 50.902)" fill="#d2ebf7" opacity="0.699"/>
    <rect id="Rectangle_117" data-name="Rectangle 117" width="5.077" height="5.077" transform="translate(26.471 62.694)" fill="#d2ebf7" opacity="0.699"/>
    <rect id="Rectangle_118" data-name="Rectangle 118" width="5.077" height="5.077" transform="translate(26.471 74.485)" fill="#d2ebf7" opacity="0.699"/>
    <rect id="Rectangle_119" data-name="Rectangle 119" width="5.077" height="5.077" transform="translate(26.471 86.277)" fill="#d2ebf7" opacity="0.699"/>
    <rect id="Rectangle_120" data-name="Rectangle 120" width="5.077" height="5.077" transform="translate(26.471 98.069)" fill="#d2ebf7" opacity="0.699"/>
    <rect id="Rectangle_121" data-name="Rectangle 121" width="5.077" height="5.077" transform="translate(155.773 62.764)" fill="#6c63ff" opacity="0.1"/>
    <rect id="Rectangle_122" data-name="Rectangle 122" width="5.077" height="5.077" transform="translate(136.392 75.286)" fill="#d2ebf7" opacity="0.699"/>
    <rect id="Rectangle_123" data-name="Rectangle 123" width="5.077" height="5.077" transform="translate(155.773 75.286)" fill="#6c63ff" opacity="0.1"/>
    <rect id="Rectangle_124" data-name="Rectangle 124" width="5.077" height="5.077" transform="translate(136.392 87.807)" fill="#d2ebf7" opacity="0.699"/>
    <rect id="Rectangle_125" data-name="Rectangle 125" width="5.077" height="5.077" transform="translate(155.773 87.807)" fill="#6c63ff" opacity="0.1"/>
    <rect id="Rectangle_126" data-name="Rectangle 126" width="5.077" height="5.077" transform="translate(136.392 100.329)" fill="#d2ebf7" opacity="0.699"/>
    <rect id="Rectangle_127" data-name="Rectangle 127" width="5.077" height="5.077" transform="translate(155.773 100.329)" fill="#6c63ff" opacity="0.1"/>
    <rect id="Rectangle_128" data-name="Rectangle 128" width="5.077" height="5.077" transform="translate(136.392 112.851)" fill="#d2ebf7" opacity="0.699"/>
    <rect id="Rectangle_129" data-name="Rectangle 129" width="5.077" height="5.077" transform="translate(155.773 112.851)" fill="#d2ebf7" opacity="0.699"/>
    <path id="Path_201" data-name="Path 201" d="M775.83,705.6V702.33h5.075v2.808Z" transform="translate(-639.438 -576.958)" fill="#d2ebf7" opacity="0.699"/>
    <path id="Path_202" data-name="Path 202" d="M65.24,357v2.9H82.614V357Zm1.732,2.722H65.554v-2.544h1.428Zm1.73,0H67.273v-2.544H68.7Zm1.726,0H69v-2.544h1.428Zm1.73,0H70.731v-2.544h1.428Zm1.728,0H72.457v-2.544h1.428Zm1.73,0H74.187v-2.544h1.428Zm1.73,0H75.917v-2.544h1.428Zm1.728,0H77.644v-2.544h1.428Zm1.728,0H79.372v-2.544H80.8Zm1.728,0H81.1v-2.544h1.428Z" transform="translate(-64.126 -303.738)" fill="#52a2ce" opacity="0.1"/>
    <path id="Path_203" data-name="Path 203" d="M65.24,404.34v2.9H82.614v-2.9Zm1.732,2.72H65.554v-2.537h1.428Zm1.73,0H67.273v-2.537H68.7Zm1.726,0H69v-2.537h1.428Zm1.73,0H70.731v-2.537h1.428Zm1.728,0H72.457v-2.537h1.428Zm1.73,0H74.187v-2.537h1.428Zm1.73,0H75.917v-2.537h1.428Zm1.728,0H77.644v-2.537h1.428Zm1.728,0H79.372v-2.537H80.8Zm1.728,0H81.1v-2.537h1.428Z" transform="translate(-64.126 -342.627)" fill="#52a2ce" opacity="0.1"/>
    <path id="Path_204" data-name="Path 204" d="M65.24,451.7v2.91H82.614V451.7Zm1.732,2.72H65.554v-2.538h1.428Zm1.73,0H67.273v-2.538H68.7Zm1.726,0H69v-2.538h1.428Zm1.73,0H70.731v-2.538h1.428Zm1.728,0H72.457v-2.538h1.428Zm1.73,0H74.187v-2.538h1.428Zm1.73,0H75.917v-2.538h1.428Zm1.728,0H77.644v-2.538h1.428Zm1.728,0H79.372v-2.538H80.8Zm1.728,0H81.1v-2.538h1.428Z" transform="translate(-64.126 -381.533)" fill="#52a2ce" opacity="0.1"/>
    <path id="Path_205" data-name="Path 205" d="M65.24,499.06v2.9H82.614v-2.9Zm1.732,2.72H65.554v-2.54h1.428Zm1.73,0H67.273v-2.54H68.7Zm1.726,0H69v-2.54h1.428Zm1.73,0H70.731v-2.54h1.428Zm1.728,0H72.457v-2.54h1.428Zm1.73,0H74.187v-2.54h1.428Zm1.73,0H75.917v-2.54h1.428Zm1.728,0H77.644v-2.54h1.428Zm1.728,0H79.372v-2.54H80.8Zm1.728,0H81.1v-2.54h1.428Z" transform="translate(-64.126 -420.439)" fill="#52a2ce" opacity="0.1"/>
    <path id="Path_206" data-name="Path 206" d="M65.66,546.41c.07.273.148.546.23.816v-.634h1.428v2.538h-.764c.023.059.046.123.07.179H82.959v-2.9Zm3.392,2.72H67.624v-2.538h1.428Zm1.726,0H69.35v-2.538h1.428Zm1.73,0H71.076v-2.538H72.5Zm1.728,0H72.807v-2.538h1.428Zm1.73,0H74.537v-2.538h1.428Zm1.73,0H76.267v-2.538h1.428Zm1.728,0H77.995v-2.538h1.428Zm1.728,0H79.723v-2.538h1.428Zm1.728,0H81.451v-2.538h1.428Z" transform="translate(-64.471 -459.337)" fill="#52a2ce" opacity="0.1"/>
    <path id="Path_207" data-name="Path 207" d="M88.26,593.77c.045.057.087.121.134.179h.944v1.219c.1.121.2.243.305.357v-1.583h1.428v2.547h-.578c.057.059.112.121.179.179H101.53v-2.9Zm4.536,2.719H91.368v-2.537H92.8Zm1.73,0H93.1v-2.537h1.428Zm1.73,0H94.827v-2.537h1.428Zm1.728,0H96.555v-2.537h1.428Zm1.728,0H98.283v-2.537h1.428Zm1.728,0h-1.428v-2.537h1.428Z" transform="translate(-83.037 -498.243)" fill="#52a2ce" opacity="0.1"/>
    <path id="Path_208" data-name="Path 208" d="M141.65,641.12c.162.093.328.178.5.271V641.3h1.428v.8l.3.141V641.3h1.428v1.544a.443.443,0,0,0,.086.032V641.12Z" transform="translate(-126.896 -537.141)" fill="#52a2ce" opacity="0.1"/>
    <path id="Path_209" data-name="Path 209" d="M305.538,269.515Zm-11,52.685ZM283.07,295.393c.034.114.062.229.095.341h0C283.136,295.622,283.105,295.508,283.07,295.393Zm22.469-25.884ZM197.72,242.78v.762h7.974v-.762Zm96.822,79.42ZM283.07,295.393c.034.114.062.229.095.341h0C283.136,295.622,283.105,295.508,283.07,295.393Zm22.469-25.884Zm-11,52.685Zm-11.473-26.8c.034.114.062.229.095.341h0C283.136,295.622,283.105,295.508,283.07,295.393Z" transform="translate(-172.957 -209.907)" fill="#d2ebf7" opacity="0.699"/>
    <path id="Path_210" data-name="Path 210" d="M333.681,257.456s-.7-.1-.7-1.123a16.052,16.052,0,0,0-.5-2.938h0c0-.009-.436-3.333-1.037-3.861s-1.375-3.631-1.375-3.631a7.32,7.32,0,0,0-.4-2.046,17.371,17.371,0,0,1-1.171-2.515c-.537-1.266-2.778-2.142-2.778-2.142s-4.05-2.349-5.2-3.115h0a1.759,1.759,0,0,1-.291-.22c-.2-.262-1.071-.268-1.071-.268a17.555,17.555,0,0,1-.207-1.833,1.4,1.4,0,0,0-.009-.193,6.176,6.176,0,0,0,2.715-3.36c.021-.068.039-.139.059-.207a.58.58,0,0,0,.348-.314,6.564,6.564,0,0,1,.234-.714,2.69,2.69,0,0,1,.66-.58,2.5,2.5,0,0,0,.687-2.033c-.018-.6-.114-1.2-.077-1.8l.011-.15c.011-.089.023-.179.039-.264.087-.443.278-.86.386-1.3a1.672,1.672,0,0,0-.132-1.312,2.28,2.28,0,0,0-1.8-.723c-.759-.064-1.437.02-1.922-.61a6.857,6.857,0,0,0-.764-.923c-.1-.093-1.071-.685-1.071-.725a4.34,4.34,0,0,0-3.026-.232c-.5.146-.978.386-1.489.505-1.1.261-2.369-.021-3.3.609a3.884,3.884,0,0,0-1.126,1.478q-.357.684-.725,1.366a8.847,8.847,0,0,0-.962,2.337,3.7,3.7,0,0,0-.064.546h0v.291a.963.963,0,0,0,.011.179c.011.055.009.073.014.111s.014.121.025.178.032.157.054.236c.009.034.021.066.032.1.018.061.039.12.063.179.012.03.025.062.039.093a1.663,1.663,0,0,0,.091.179c.014.025.025.048.039.071a2.377,2.377,0,0,0,.164.239c.382.477.944.78,1.36,1.226v.2a6.11,6.11,0,0,0,2.781,4.989c0,.068.009.137.013.205a10.209,10.209,0,0,1-.02,1.591.75.75,0,0,0-.593-.264.856.856,0,0,0-.228.02l-.016-.012h0v.016c-.393.1-.876.505-1.339,1.667,0,0-1.407,1.585-2.478,1.519s-3.783,1.649-3.783,1.649-2.645,1.717-3.213,3.467a24.436,24.436,0,0,1-1.139,2.906l-3.27,6.739h0l-.6,5.346a24.8,24.8,0,0,1,.268,2.74,26.384,26.384,0,0,0,1.373,3.631s4.754,8.352,6.7,8.781l.139-.1a1.137,1.137,0,0,0,.262.1l.4-.282a4.36,4.36,0,0,1-.03.943,24.837,24.837,0,0,0,.568,7.262c.468,1.055.3,14.888.3,14.888l-.066,1.221a.516.516,0,0,0,.016.107l-.016.289.048.025a3.437,3.437,0,0,1-.048,1.162,12.927,12.927,0,0,0-.236,2.049s-1.337,8.547-.7,10.264,1.173,3.6,1.173,3.6.669,2.142.032,2.508-2.449.98-2.076,1.873c.339.825,1.626,3.035,1.817,3.358l-.016.17-.262,2.844a3.572,3.572,0,0,0,.3,1.085,1.87,1.87,0,0,0,1.908,1.192c.178-.012.386-.034.585-.061a25.3,25.3,0,0,0,4.338-1.128,1.771,1.771,0,0,1-.339-.28h0a.98.98,0,0,1-.3-.714,20.907,20.907,0,0,0-1.182-3.592c-.037-.087-.057-.137-.057-.137s2.21-2.31,1.842-4.357c0,0-2.446-1.428-1.641-2.212a24.937,24.937,0,0,0,2.244-3.035s.066-8.417,0-9.673a10.408,10.408,0,0,1,.123-2.612c.027-.13.059-.257.093-.382a23.3,23.3,0,0,0,3.363.255c.411,0,.828,0,1.25-.025q0,.179.016.386c.093,2.085.266,5.741.407,7.1.2,1.948,1.3,7.2,1.3,7.2s-2.108,1.353.368,4.688a4.519,4.519,0,0,1-.164,1.383h0a15.132,15.132,0,0,0-.423,1.742,3.072,3.072,0,0,0,.021,1.594c.4.789,2.811.725,2.811.725h0l.059-.011a3.454,3.454,0,0,1,2.551.769c.916.735,4.391.412,6.273.178.737-.093,1.23-.178,1.23-.178a.714.714,0,0,0,.025-.257h0c-.02-.462-.382-1.476-2.838-2.381,0,0-2.31-1.553-2.278-2.906h-.316a2.525,2.525,0,0,1,.32,0s-.905-3.3-.536-3.57-.737-3.927-.737-3.927-.634-6.141-.668-6.571a3.75,3.75,0,0,1,.166-1.089l-.166-3.367s-.032-1.119,0-1.483a7.422,7.422,0,0,0-.077-.944c-.016-.125-.032-.255-.05-.384.866-.22,1.428-.423,1.428-.423l-.1-11.719c.736-1.428.871-4.561.868-6.783,0-1.428-.064-2.485-.064-2.485l1.005-1.64s.232-1.964-.136-2.394a.412.412,0,0,1,.045-.562,1.874,1.874,0,0,1,.22-.15s-.011-.016-.023-.039a1.771,1.771,0,0,1,.223-.159s-.357-.553-.038-.787c.3.2.568.357.771.482-.014.13-.029.205-.029.205l.086-.179.316.179a23.857,23.857,0,0,0,1.54-3.6,10.5,10.5,0,0,1,1.071-2.41,2.411,2.411,0,0,1,.737-1.451c.6-.428.468-3.533.468-3.533a7.611,7.611,0,0,1,.569-2.278C334.449,258.346,333.681,257.456,333.681,257.456Zm-30.125-1.376.03.748-.307-.494Z" transform="translate(-253.382 -189.681)" fill="url(#linear-gradient)"/>
    <path id="Path_211" data-name="Path 211" d="M467.677,492.11l-.386,1.642s-3.088-1.576-3.645-3.579a2.265,2.265,0,0,1,.932-2.763l2.878,1.219Z" transform="translate(-391.311 -410.869)" fill="#fff"/>
    <path id="Path_212" data-name="Path 212" d="M467.677,492.11l-.386,1.642s-3.088-1.576-3.645-3.579a2.265,2.265,0,0,1,.932-2.763l2.878,1.219Z" transform="translate(-391.311 -410.869)" opacity="0.1"/>
    <path id="Path_213" data-name="Path 213" d="M357.557,796.923a22.192,22.192,0,0,1-4.82,1.182,1.834,1.834,0,0,1-1.873-1.185,3.589,3.589,0,0,1-.295-1.08l.255-2.829.136-1.507,4.172-1.084.591,1.807.055.137a20.922,20.922,0,0,1,1.16,3.57.974.974,0,0,0,.293.705A1.692,1.692,0,0,0,357.557,796.923Z" transform="translate(-298.523 -659.789)" fill="#fff"/>
    <path id="Path_214" data-name="Path 214" d="M440,794.622a.713.713,0,0,1-.025.255s-6.108,1.019-7.358,0a3.309,3.309,0,0,0-2.57-.753s-2.363.064-2.758-.714a3.1,3.1,0,0,1-.02-1.585,15.1,15.1,0,0,1,.414-1.733l.095-.075.562-.452,6.583-.195h.05c-.032,1.346,2.235,2.89,2.235,2.89C439.613,793.153,439.968,794.161,440,794.622Z" transform="translate(-361.453 -658.927)" fill="#fff"/>
    <path id="Path_215" data-name="Path 215" d="M440,805.917a.73.73,0,0,1-.027.255s-6.107,1.019-7.356,0a3.309,3.309,0,0,0-2.569-.753s-2.365.064-2.758-.714a3.1,3.1,0,0,1-.021-1.585,5.887,5.887,0,0,1,2.911.859,6.464,6.464,0,0,0,3.186,1.708C434.062,805.732,438.216,805.864,440,805.917Z" transform="translate(-361.458 -670.222)" opacity="0.1"/>
    <path id="Path_216" data-name="Path 216" d="M358.92,825.585a22.191,22.191,0,0,1-4.82,1.182,1.829,1.829,0,0,1-1.871-1.187,3.88,3.88,0,0,0,2.265.266,20.2,20.2,0,0,1,4.106-.536A1.762,1.762,0,0,0,358.92,825.585Z" transform="translate(-299.886 -688.451)" opacity="0.1"/>
    <path id="Path_217" data-name="Path 217" d="M391.6,303.71c-2.356-.916-5.387-3.941-4.63-5.355a3.163,3.163,0,0,0,.295-1.135,10.366,10.366,0,0,0,.021-1.607,22,22,0,0,0-.316-2.613s7.356.166,6.928,1.25a4.05,4.05,0,0,0-.111,1.487c.034.618.123,1.316.216,1.906.129.81.257,1.428.257,1.428s-.45.63-.714.664S394.977,305.015,391.6,303.71Z" transform="translate(-328.324 -251.162)" fill="#fad2d9"/>
    <path id="Path_218" data-name="Path 218" d="M356.924,792.364l-.055.061c-2.2-2.66-4.859.655-4.859.655l-.039-.07.136-1.507,4.172-1.084.591,1.807Z" transform="translate(-299.673 -659.789)" opacity="0.1"/>
    <path id="Path_219" data-name="Path 219" d="M437.307,789.525a4.225,4.225,0,0,0-2.463.723c-.857.757-5,.164-4.82,0a.587.587,0,0,0,.093-.271l.562-.452,6.583-.195C437.288,789.45,437.307,789.525,437.307,789.525Z" transform="translate(-363.789 -658.894)" opacity="0.1"/>
    <path id="Path_220" data-name="Path 220" d="M351.3,657.186a4.969,4.969,0,0,0-.271.916,10.48,10.48,0,0,0-.123,2.6c.066,1.25,0,9.623,0,9.623a25.62,25.62,0,0,1-2.2,3.02c-.787.787,1.607,2.2,1.607,2.2.357,2.035-1.806,4.334-1.806,4.334-2.2-2.66-4.859.657-4.859.657s-1.446-2.5-1.807-3.392,1.412-1.51,2.035-1.873-.03-2.5-.03-2.5-.527-1.873-1.151-3.581.689-10.212.689-10.212a13.182,13.182,0,0,1,.23-2.037,3.406,3.406,0,0,0,.048-1.157c-.011-.13-.023-.239-.032-.312s-.016-.107-.016-.107l.025-.043.893-1.664S351.727,656.138,351.3,657.186Z" transform="translate(-291.311 -547.442)" fill="#2a2968"/>
    <path id="Path_221" data-name="Path 221" d="M428.428,685.911a4.262,4.262,0,0,0-2.463.714c-.857.748-5,.164-4.82,0s.164-1.38.164-1.38c-2.429-3.317-.357-4.663-.357-4.663s-1.085-5.221-1.282-7.158c-.137-1.353-.307-4.989-.4-7.065-.039-.893-.062-1.507-.062-1.507l1.985-.4.255-.052,4.788-.96s.132.893.221,1.623a7.592,7.592,0,0,1,.075.941c-.032.357,0,1.474,0,1.474l.162,3.351a3.8,3.8,0,0,0-.162,1.083c.032.427.655,6.535.655,6.535s1.084,3.645.714,3.907S428.428,685.911,428.428,685.911Z" transform="translate(-354.91 -555.476)" fill="#2a2968"/>
    <path id="Path_222" data-name="Path 222" d="M394.438,294.25a4.05,4.05,0,0,0-.111,1.487,6.114,6.114,0,0,1-6.5-.121A21.989,21.989,0,0,0,387.51,293S394.866,293.162,394.438,294.25Z" transform="translate(-328.869 -251.162)" opacity="0.1"/>
    <path id="Path_223" data-name="Path 223" d="M386.044,249.789a6.046,6.046,0,0,1-.3,1.894,6.109,6.109,0,0,1-11.914-1.748v-.146a6.108,6.108,0,1,1,12.216,0Z" transform="translate(-317.631 -210.646)" fill="#fad2d9"/>
    <path id="Path_224" data-name="Path 224" d="M391.6,323.131c-2.356-.916-5.387-3.941-4.63-5.355a3.163,3.163,0,0,0,.295-1.135l3.226,2.651,2,1.637L394,317.065c.129.81.257,1.428.257,1.428s-.45.63-.714.664S394.977,324.435,391.6,323.131Z" transform="translate(-328.324 -270.582)" opacity="0.1"/>
    <path id="Path_225" data-name="Path 225" d="M342.513,274.91l-2.694,45.252-3.513.23-9.1-26.239L328.7,263l.314-6.582,4.045,3.322,2,1.637,1.562-3.975,2.9,2.531Z" transform="translate(-270.9 -210.646)" fill="#2a2968"/>
    <path id="Path_226" data-name="Path 226" d="M359.685,657.251a4.969,4.969,0,0,0-.271.916,25.883,25.883,0,0,1-7.365-2.3l-.048-.025.016-.287.009-.15.893-1.664S360.113,656.2,359.685,657.251Z" transform="translate(-299.697 -547.508)" opacity="0.1"/>
    <path id="Path_227" data-name="Path 227" d="M421.187,670.842a18.049,18.049,0,0,1-1.974.225c-.039-.893-.062-1.507-.062-1.507l1.985-.4Z" transform="translate(-354.861 -560.175)" opacity="0.1"/>
    <path id="Path_228" data-name="Path 228" d="M436.709,665.113a13.856,13.856,0,0,1-4.984.469l-.025-1.132,4.788-.96S436.62,664.374,436.709,665.113Z" transform="translate(-365.17 -555.517)" opacity="0.1"/>
    <path id="Path_229" data-name="Path 229" d="M325.145,379.51c-7.319,1.25-14.022-2.333-14.022-2.333l.064-1.214s.166-13.761-.295-14.816a25.087,25.087,0,0,1-.559-7.226c.261-.821-.951-13.135-.951-13.135l-.2-5L302,332.877l3.213-6.7a24.166,24.166,0,0,0,1.117-2.892c.559-1.739,3.152-3.447,3.152-3.447s2.66-1.707,3.711-1.642,2.43-1.51,2.43-1.51c1.017-2.594,1.939-1.419,1.939-1.419a2.317,2.317,0,0,1-.05.384c-.357,2.847,5.773,11.844,5.86,12h0l.584,14.22.591,18Z" transform="translate(-258.623 -269.238)" opacity="0.1"/>
    <path id="Path_230" data-name="Path 230" d="M324.021,379.461C316.7,380.711,310,377.128,310,377.128l.066-1.214s.166-13.761-.3-14.816a24.959,24.959,0,0,1-.557-7.226c.262-.821-.951-13.135-.951-13.135l-.2-5-7.19-2.922,3.213-6.7a24.541,24.541,0,0,0,1.117-2.892c.557-1.739,3.152-3.447,3.152-3.447s2.66-1.707,3.709-1.642,2.429-1.51,2.429-1.51c1.019-2.594,2.142-1.419,2.142-1.419,0,.123-.107.178-.05.384.785,2.762,5.577,11.844,5.664,12h0l.591,14.22.591,18Z" transform="translate(-257.694 -269.189)" fill="#fff"/>
    <path id="Path_231" data-name="Path 231" d="M388.482,329.9c-.787-.328-4.957-5.089-4.957-5.089v-1.084c-.152-.357-1.053-.139-1.785.111l.314-6.582.357.3C383.193,320.316,388.391,329.745,388.482,329.9Z" transform="translate(-324.129 -271.092)" opacity="0.1"/>
    <path id="Path_232" data-name="Path 232" d="M389.584,327.694c-.789-.328-4.959-5.089-4.959-5.089v-1.084c-.152-.357-1.053-.139-1.785.111l.316-6.582.357.3C384.3,318.106,389.5,327.537,389.584,327.694Z" transform="translate(-325.032 -269.276)" fill="#fff"/>
    <path id="Path_233" data-name="Path 233" d="M351.262,516.475c.1,0,5.089-.525,5.089-.525s3.022,5.943,2.824,7.388-.557,2.726-1.773,2.5a53.973,53.973,0,0,0-6.542.179Z" transform="translate(-298.761 -434.314)" opacity="0.1"/>
    <path id="Path_234" data-name="Path 234" d="M350.152,514.265c.1,0,5.089-.525,5.089-.525s3.02,5.944,2.824,7.388-.559,2.726-1.773,2.5a53.951,53.951,0,0,0-6.542.178Z" transform="translate(-297.849 -432.499)" fill="#fff"/>
    <path id="Path_235" data-name="Path 235" d="M360.509,501.05s4.581,2.462,4.679,3.213-2.331-.328-2.856-.459a6.539,6.539,0,0,0-1.051-.164l-3.5.095Z" transform="translate(-304.446 -422.074)" fill="#fad2d9"/>
    <ellipse id="Ellipse_40" data-name="Ellipse 40" cx="0.482" cy="0.482" rx="0.482" ry="0.482" transform="translate(62.594 58.155)" opacity="0.1"/>
    <ellipse id="Ellipse_41" data-name="Ellipse 41" cx="0.482" cy="0.482" rx="0.482" ry="0.482" transform="translate(62.594 57.959)" fill="#3f3d56"/>
    <ellipse id="Ellipse_42" data-name="Ellipse 42" cx="0.482" cy="0.482" rx="0.482" ry="0.482" transform="translate(63.481 79.019)" opacity="0.1"/>
    <ellipse id="Ellipse_43" data-name="Ellipse 43" cx="0.482" cy="0.482" rx="0.482" ry="0.482" transform="translate(63.481 78.821)" fill="#3f3d56"/>
    <ellipse id="Ellipse_44" data-name="Ellipse 44" cx="0.482" cy="0.482" rx="0.482" ry="0.482" transform="translate(63.074 68.587)" opacity="0.1"/>
    <ellipse id="Ellipse_45" data-name="Ellipse 45" cx="0.482" cy="0.482" rx="0.482" ry="0.482" transform="translate(63.074 68.391)" fill="#3f3d56"/>
    <path id="Path_236" data-name="Path 236" d="M435.893,353.871s.328.493,0,.723.032.787.032.787-.819.48-.459.912.132,2.383.132,2.383l-.985,1.632s.059,1.051.062,2.472c0,2.217-.13,5.334-.851,6.755l.1,11.658a15.869,15.869,0,0,1-6.339.876l-.428-18.708s.625-10.609.855-12.644a21.189,21.189,0,0,0,.164-3.186,35.6,35.6,0,0,0-.428-4.663s-.357-6.4-.393-8.176c-.016-.848.029-3.322.079-5.675.055-2.572.118-5,.118-5l-.652-5.155s.652-.066.848.2a1.879,1.879,0,0,0,.286.22h0c1.125.76,5.1,3.1,5.1,3.1s2.2.875,2.726,2.128a18.538,18.538,0,0,0,1.148,2.5,7.713,7.713,0,0,1,.394,2.035s.757,3.088,1.348,3.611,1.023,3.85,1.023,3.85l-5.221,4.106s-.459,6.83-.557,7.094S435.893,353.871,435.893,353.871Z" transform="translate(-361.227 -272.405)" fill="#fff"/>
    <path id="Path_237" data-name="Path 237" d="M436.034,353.61s.327.493,0,.723.03.787.03.787-.814.486-.457.918.132,2.383.132,2.383l-.985,1.632s.059,1.051.064,2.472c0,2.217-.13,5.334-.852,6.755l.1,11.658a15.9,15.9,0,0,1-6.341.876l-.427-18.708s.625-10.609.855-12.644a20.985,20.985,0,0,0,.162-3.186,35.814,35.814,0,0,0-.427-4.663s-.357-6.4-.395-8.176c-.016-.848.03-3.322.079-5.675.055-2.572.118-5,.118-5l-.86-5.225s.86,0,1.059.266a1.692,1.692,0,0,0,.286.22h0c1.125.76,5.1,3.1,5.1,3.1s2.2.875,2.724,2.128a18.244,18.244,0,0,0,1.15,2.5,7.624,7.624,0,0,1,.393,2.035s.757,3.088,1.348,3.611,1.018,3.843,1.018,3.843l-5.221,4.106s-.459,6.83-.559,7.094S436.034,353.61,436.034,353.61Z" transform="translate(-361.17 -272.143)" fill="#fff"/>
    <path id="Path_238" data-name="Path 238" d="M430.693,327.08l.471,1.374-2.481,2.5c.055-2.57.118-5,.118-5l-.86-5.225s.86,0,1.059.266a1.627,1.627,0,0,0,.286.218h0l2.11,6.087Z" transform="translate(-362.082 -273.942)" opacity="0.1"/>
    <path id="Path_239" data-name="Path 239" d="M429.583,324.87l.473,1.374-2.481,2.5c.055-2.572.118-5,.118-5l-.862-5.225s.862,0,1.059.266a1.789,1.789,0,0,0,.286.22h0l2.112,6.085Z" transform="translate(-361.17 -272.127)" fill="#fff"/>
    <path id="Path_240" data-name="Path 240" d="M386.044,249.789a6.047,6.047,0,0,1-.3,1.894.255.255,0,0,1-.193-.048,7.88,7.88,0,0,0-1.81-4.4,4.622,4.622,0,0,0-.982-1.018,1.921,1.921,0,0,0-1.332-.377c-.535.073-1.009.437-1.549.484-.714.059-1.353-.436-2.062-.461a2.026,2.026,0,0,0-1.516.7,4.157,4.157,0,0,0-.812,1.507,8.815,8.815,0,0,0-.453,2.6c-.009.5-.057,1.126-.521,1.308a2.667,2.667,0,0,0-.673-2.037l-.011-.011v-.146a6.108,6.108,0,1,1,12.216,0Z" transform="translate(-317.631 -210.646)" opacity="0.1"/>
    <path id="Path_241" data-name="Path 241" d="M373.88,221.729a4.206,4.206,0,0,0-2.967-.232c-.494.146-.96.384-1.462.5-1.071.259-2.321-.021-3.24.605a3.874,3.874,0,0,0-1.1,1.469l-.714,1.36a8.827,8.827,0,0,0-.944,2.321,2.963,2.963,0,0,0,.455,2.4c.378.48.937.782,1.348,1.233a2.678,2.678,0,0,1,.671,2.035c.466-.179.511-.807.521-1.307a8.814,8.814,0,0,1,.453-2.6,4.143,4.143,0,0,1,.812-1.507,2.03,2.03,0,0,1,1.516-.7c.714.025,1.355.518,2.062.459.536-.045,1.01-.411,1.549-.482a1.914,1.914,0,0,1,1.332.377,4.573,4.573,0,0,1,.98,1.018,7.86,7.86,0,0,1,1.812,4.4c.2.148.493-.045.593-.273a6.537,6.537,0,0,1,.23-.714,2.634,2.634,0,0,1,.646-.575,2.526,2.526,0,0,0,.675-2.022,10.074,10.074,0,0,1-.025-2.2c.084-.443.273-.857.377-1.294a1.692,1.692,0,0,0-.129-1.3,2.2,2.2,0,0,0-1.764-.714c-.744-.064-1.41.018-1.885-.609a6.831,6.831,0,0,0-.75-.918C374.835,222.357,373.88,221.768,373.88,221.729Z" transform="translate(-309.045 -192.285)" fill="#512e4e"/>
    <path id="Path_242" data-name="Path 242" d="M302.216,418.579l-1.865-3.449-.591,5.321a24.666,24.666,0,0,1,.262,2.726,26.206,26.206,0,0,0,1.346,3.611s4.664,8.308,6.569,8.736l6.435-4.6-1.707-2.167s-.591-.23-.739,0c0,0-3.169-5.452-3.5-5.846a1.969,1.969,0,0,1-.264-1.182s-.493-.525-.328-1.017-.951-2.2-.951-2.2l1.017-.951Z" transform="translate(-256.783 -351.491)" opacity="0.1"/>
    <path id="Path_243" data-name="Path 243" d="M298.634,412.93l-.493.393-.591,5.321a24.659,24.659,0,0,1,.262,2.726,26.2,26.2,0,0,0,1.348,3.611s4.663,8.308,6.567,8.736l6.437-4.6-1.708-2.167s-.591-.23-.739,0c0,0-3.168-5.452-3.5-5.846a1.963,1.963,0,0,1-.262-1.182s-.493-.525-.328-1.018-.953-2.2-.953-2.2l1.018-.951Z" transform="translate(-254.967 -349.684)" fill="#fff"/>
    <path id="Path_244" data-name="Path 244" d="M457.752,515.079c.357.434.132,2.381.132,2.381l-.985,1.631s.059,1.053.063,2.472l-1.657.518a.984.984,0,0,1-1.276-.969l.286-9.213,3.865,1.478c-.328.229.032.789.032.789S457.391,514.646,457.752,515.079Z" transform="translate(-383.512 -430.987)" opacity="0.1"/>
    <path id="Path_245" data-name="Path 245" d="M458.853,513.977c.357.434.132,2.383.132,2.383L458,517.992s.059,1.051.064,2.472l-1.687.527a.964.964,0,0,1-1.25-.95l.287-9.241,3.866,1.478c-.33.228.03.787.03.787S458.5,513.545,458.853,513.977Z" transform="translate(-384.416 -430.083)" fill="#fff"/>
    <path id="Path_246" data-name="Path 246" d="M468.942,497.385s-.262,1.676-.919,1.774-.951,2.712-1.607,2.619-.221-2.43-.2-2.883-.714-2.331-.162-2.758,2.3,0,2.3,0Z" transform="translate(-393.224 -417.882)" fill="#fad2d9"/>
    <path id="Path_247" data-name="Path 247" d="M467.238,420.189l1.239-2.5a16.225,16.225,0,0,1,.493,2.922c0,1.017.689,1.117.689,1.117s.755.893.357,1.542a7.485,7.485,0,0,0-.559,2.267s.13,3.086-.461,3.513a2.391,2.391,0,0,0-.714,1.446,10.472,10.472,0,0,0-1.051,2.4,23.813,23.813,0,0,1-1.51,3.579s.755-3.875-3.645-5.55c0,0-.034-1.316.295-1.676s.841-.525.519-2.347a21.289,21.289,0,0,1-.093-4.438,27.947,27.947,0,0,1,.985-3.165Z" transform="translate(-390.123 -353.594)" opacity="0.1"/>
    <path id="Path_248" data-name="Path 248" d="M469.491,415.69l1.082.357a16.172,16.172,0,0,1,.494,2.922c0,1.017.689,1.117.689,1.117s.755.893.357,1.542a7.467,7.467,0,0,0-.557,2.267s.13,3.086-.461,3.513a2.424,2.424,0,0,0-.723,1.446,10.476,10.476,0,0,0-1.05,2.4,23.8,23.8,0,0,1-1.512,3.579s.757-3.875-3.645-5.55c0,0-.032-1.316.3-1.676s.841-.525.519-2.347a21.289,21.289,0,0,1-.093-4.438,27.947,27.947,0,0,1,.985-3.165Z" transform="translate(-391.84 -351.951)" fill="#fff"/>
    <path id="Path_249" data-name="Path 249" d="M360.15,775.877s1.724-1.083,2.856-.3S360.15,775.877,360.15,775.877Z" transform="translate(-306.393 -647.363)" opacity="0.1"/>
    <path id="Path_250" data-name="Path 250" d="M435.21,759.746a3.49,3.49,0,0,1,2.808,1.184C439.3,762.309,435.21,759.746,435.21,759.746Z" transform="translate(-368.054 -634.583)" opacity="0.1"/>
    <g id="Group_247" data-name="Group 247" transform="translate(54.335 32.966)" opacity="0.1">
      <path id="Path_251" data-name="Path 251" d="M390.183,256.68a2.648,2.648,0,0,0-.648.577,6.531,6.531,0,0,0-.228.714c-.1.232-.391.421-.593.275a7.893,7.893,0,0,0-1.812-4.4,4.573,4.573,0,0,0-.98-1.017,1.919,1.919,0,0,0-1.333-.377c-.536.073-1.007.437-1.548.482-.714.061-1.355-.434-2.064-.459a2.021,2.021,0,0,0-1.514.705,4.135,4.135,0,0,0-.812,1.5,8.825,8.825,0,0,0-.453,2.6c-.011.5-.057,1.119-.518,1.3a2.44,2.44,0,0,1,0,.4c.464-.179.511-.807.521-1.307a8.813,8.813,0,0,1,.453-2.6,4.143,4.143,0,0,1,.812-1.507,2.026,2.026,0,0,1,1.514-.7c.714.025,1.357.518,2.064.459.536-.045,1.01-.411,1.548-.482a1.919,1.919,0,0,1,1.333.377,4.573,4.573,0,0,1,.98,1.017,7.873,7.873,0,0,1,1.812,4.4c.2.148.493-.045.593-.273a6.919,6.919,0,0,1,.228-.714,2.641,2.641,0,0,1,.648-.575,2.526,2.526,0,0,0,.675-2.023v-.068A2.344,2.344,0,0,1,390.183,256.68Z" transform="translate(-375.128 -250.81)"/>
      <path id="Path_252" data-name="Path 252" d="M365.262,263.074c-.411-.452-.971-.753-1.348-1.232a2.613,2.613,0,0,1-.519-1.462,2.749,2.749,0,0,0,.519,1.855c.377.48.937.782,1.348,1.233a2.678,2.678,0,0,1,.673,1.592A2.677,2.677,0,0,0,365.262,263.074Z" transform="translate(-363.385 -257.331)"/>
      <path id="Path_253" data-name="Path 253" d="M451.453,243.653c-.105.437-.293.853-.378,1.294a4.124,4.124,0,0,0-.055.893,3.466,3.466,0,0,1,.055-.507c.086-.443.273-.857.378-1.294a2.2,2.2,0,0,0,.059-.739A2.478,2.478,0,0,1,451.453,243.653Z" transform="translate(-435.372 -243.3)"/>
    </g>
    <path id="Path_264" data-name="Path 264" d="M862.534,311.292s-2.947-14.663-1.819-16.487c0,0,.041-1.7-.027-3.858V290.7a5.506,5.506,0,0,0,.619.357,5.013,5.013,0,0,0,3.374.436l-.893-.994a1.647,1.647,0,0,1-.484-.809,1.694,1.694,0,0,1,.193-.875c.848-2.142.893-4.836-.741-6.471-1.38-1.375-1.715-3.149-3.213-4.4a9.282,9.282,0,0,1-2.263-3.57,20.07,20.07,0,0,1-1.239-3.379c-.214-.912-.3-1.856-.594-2.747a3.5,3.5,0,0,0-1.708-2.155,6.449,6.449,0,0,1-.928-.409,4.008,4.008,0,0,1-.855-1.005c-1.351-1.785-5.877-.734-8.019-.009a4.509,4.509,0,0,0-1.585.878l.02-.032c.016-.027.036-.054.054-.08a2.818,2.818,0,0,0-.6.669,16.076,16.076,0,0,0-.7,1.607c-.314.634-2.062,2.4-1.31,3.115a.633.633,0,0,0,.178.114,1.544,1.544,0,0,0,.893.089l-.032.077a5.22,5.22,0,0,0-.387,1.98,5.358,5.358,0,0,0,5.405,5.311,5.457,5.457,0,0,0,1.655-.255c.012.068.023.136.036.2a.632.632,0,0,0,.013.08h0l-.095.132a.178.178,0,0,0-.016-.023l-2.8,3.916c-.428.3-2.9,2.087-3.035,3.426-.146,1.466-.293,3.181-.293,3.181l-.02.368a1.1,1.1,0,0,1-.893.241c-.875-.143-.875,3.213-.875,3.213s-.582.536-.982.071-1.457,1.109-1.457,1.109l-6.623.286h0l-.152.009-.357-1.1a.466.466,0,0,0-.584-.3.538.538,0,0,0-.08.034l-.025.014-.046.032-.023.021a.344.344,0,0,0-.036.037l-.022.025-.011.011h0a.449.449,0,0,0-.064.4l.307.948c-1.278.257-2.585.982-1.519,2.978l-5.4-1,1.748,1.467,9.022,1.862c-.12.214-.041.525.332.962,1.607,1.887,4.534,2.4,5.712,2.531a10.138,10.138,0,0,0,1.158,1.964l-.1,1.88s-2.983,14.327-3.529,15.053a8.487,8.487,0,0,0,.755-.994c-.866,2.944-2.076,6.973-2.394,7.576-.511.964-.984,4.864-.4,5.114a4.895,4.895,0,0,0,1.417-.016v.323l-.032,12.244s.146,7.51-.255,8.226a7,7,0,0,0-.509,2.217,21.759,21.759,0,0,1-2.879,4.152.2.2,0,0,1-.029.025l-.039-.278a6.073,6.073,0,0,1-4.914,1.823s-2.037,1.325.984,1.4,6.878-.107,6.878-.107,2.694-4.106,4.95-3.57v3.111h.691v-3.161a2.833,2.833,0,0,0,1.23-1.862,2.264,2.264,0,0,0-.807-2.094,1.339,1.339,0,0,1-.441-.978l-.025.021a1.886,1.886,0,0,0-.023-.193,17.814,17.814,0,0,1,.43-7.374c1.2-3.363,1.566-8.047.691-10.835a24.916,24.916,0,0,1-.694-2.715c-.021-.116-.041-.227-.059-.33a14.063,14.063,0,0,1,1.773.357c2.026.559,6.458.662,10.243.632.009.1.02.212.032.321a11.7,11.7,0,0,0,.421,2.235c.475,1.428.693,7.724.693,7.724a40.878,40.878,0,0,1,.278,7.283c-.178,1.171-.357,2.347-.459,3.529v.023s-1,2.856-1.737,4.407c-.018.039-.037.079-.055.116a2.319,2.319,0,0,0-.573.127s-.984,1.964-1.964,2.288-.655,1.394,1.564,1,5.569-.714,5.569-.714l.145-2,.682-.853-.178,2,.727-.143-.1-2.429,1.116-1.4s1.348-1.2-.655-3.559v.052c-.021-.034-.041-.07-.064-.1v-.011a3.814,3.814,0,0,1-.112-3.174c.875-3.074,1.383-5.864,1.383-5.864s1.953-7.474-.395-11.01h.1a5.947,5.947,0,0,1-.505-1.571q-.018-.1-.032-.2a12.881,12.881,0,0,0,4.832-1.092C864.064,331.853,863.227,314.116,862.534,311.292Zm-22.051-12.371v.036l-.357.018Zm-1.225.17a.4.4,0,0,0-.161.077,1.586,1.586,0,0,0-.28.734l-.557-.125s-.391-.084-.953-.179l-.266-.268C837.773,299.27,838.534,299.181,839.259,299.091Z" transform="translate(-686.185 -227.086)" fill="url(#linear-gradient-2)"/>
    <path id="Path_265" data-name="Path 265" d="M971.533,741.887l-.212,2.529.712-.143-.107-2.744Z" transform="translate(-800.032 -609.161)" fill="#1d2366"/>
    <path id="Path_266" data-name="Path 266" d="M884.025,665.193a18.079,18.079,0,0,0-.423,7.349c.072.593.137.953.137.953s-1.283,2.924-1.391,3.035-3.777,2.351-3.777,2.351l-2.565,1.5s-2.6-1.141-1.355-1.533a1.9,1.9,0,0,0,.673-.459,21.547,21.547,0,0,0,2.819-4.138,7.115,7.115,0,0,1,.5-2.21c.393-.712.25-8.2.25-8.2l.03-12.2V650.05l4.882.036a11.033,11.033,0,0,0,.211,1.607,24.561,24.561,0,0,0,.68,2.706C885.557,657.181,885.2,661.842,884.025,665.193Z" transform="translate(-728.774 -544.476)" fill="#ffdfd9"/>
    <path id="Path_267" data-name="Path 267" d="M883.74,777.02s-1.283,2.924-1.391,3.035-3.777,2.351-3.777,2.351l-2.565,1.5s-2.6-1.141-1.355-1.533a1.893,1.893,0,0,0,.673-.459l.111.78.855-.036,7.319-6.585C883.674,776.659,883.74,777.02,883.74,777.02Z" transform="translate(-728.774 -648.001)" opacity="0.1"/>
    <path id="Path_268" data-name="Path 268" d="M862.783,777l-7.36,6.63-.855.036-.178-1.249a5.91,5.91,0,0,1-4.82,1.817s-2,1.319.962,1.391,6.735-.107,6.735-.107,2.638-4.106,4.846-3.57v3.1h.678v-3.129a2.818,2.818,0,0,0,1.2-1.857,2.274,2.274,0,0,0-.787-2.085A1.344,1.344,0,0,1,862.783,777Z" transform="translate(-707.907 -648.765)" fill="#2a2968"/>
    <path id="Path_269" data-name="Path 269" d="M993.044,668.394a3.859,3.859,0,0,0,.109,3.163v.011a5.846,5.846,0,0,1,.853,2.083l.029.161-3.349,4.882-1.817.714s-2.922-1-2.388-1.283a2.733,2.733,0,0,0,.582-.953c.714-1.544,1.7-4.393,1.7-4.393v-.023c.1-1.176.268-2.349.45-3.517a41.448,41.448,0,0,0-.273-7.258s-.214-6.271-.678-7.7a11.775,11.775,0,0,1-.416-2.221c-.1-.893-.118-1.628-.118-1.628s1.924-2.678,5.452.214a3.881,3.881,0,0,1,.737.8c2.437,3.467.475,11.1.475,11.1S993.9,665.329,993.044,668.394Z" transform="translate(-820.865 -543.864)" fill="#ffdfd9"/>
    <path id="Path_270" data-name="Path 270" d="M994.065,776.018l-3.349,4.882-1.817.714s-2.922-1-2.388-1.284a2.735,2.735,0,0,0,.582-.953,2.31,2.31,0,0,1,1.878,1.167l1.567-.25s2.067-4.063,2.531-4.311.071-1.855.071-1.855v-.409c.013.014.023.03.038.045v.011a5.846,5.846,0,0,1,.853,2.083Z" transform="translate(-820.89 -646.07)" opacity="0.1"/>
    <path id="Path_271" data-name="Path 271" d="M977.991,781.126a2.182,2.182,0,0,0-2.6-1.034s-.962,1.964-1.924,2.281-.641,1.389,1.533,1,5.452-.714,5.452-.714l.143-2,2.21-2.815s1.317-1.194-.643-3.545v.409s.393,1.607-.071,1.855-2.524,4.313-2.524,4.313Z" transform="translate(-809.803 -646.547)" fill="#2a2968"/>
    <path id="Path_272" data-name="Path 272" d="M905.028,650.066a11.029,11.029,0,0,0,.211,1.607,22.392,22.392,0,0,0-5.1-.052V650.03Z" transform="translate(-749.99 -544.46)" opacity="0.1"/>
    <path id="Path_273" data-name="Path 273" d="M1000.18,651.885s-2.856.139-6.262.168c-.1-.893-.118-1.628-.118-1.628s1.924-2.678,5.452.214a3.884,3.884,0,0,1,.737.8A4.362,4.362,0,0,0,1000.18,651.885Z" transform="translate(-826.932 -543.856)" opacity="0.1"/>
    <path id="Path_274" data-name="Path 274" d="M915.656,507.666s-12.51.605-16.323-.464-7.592-.143-8.161-.391-.107-4.134.393-5.1,3.242-10.693,3.242-10.693l2.638-13.756,2.779-.766.2-.055,4.843-1.335,3.549-.98s7.056,27.549,6.451,29.58a5.2,5.2,0,0,0-.1,2.39A5.965,5.965,0,0,0,915.656,507.666Z" transform="translate(-742.408 -399.959)" fill="#2a2968"/>
    <path id="Path_275" data-name="Path 275" d="M869.948,439s-2.5,2.678-.607,4.17,3.136.143,3.136.143Z" transform="translate(-724.108 -371.1)" fill="#c7daf5"/>
    <path id="Path_276" data-name="Path 276" d="M869.948,439s-2.5,2.678-.607,4.17,3.136.143,3.136.143Z" transform="translate(-724.108 -371.1)" opacity="0.1"/>
    <path id="Path_277" data-name="Path 277" d="M964.506,317.919s-.293.278-.734.689c-.628.587-1.558,1.446-2.383,2.165-1.142.994-2.085,1.724-1.747,1.1a4.814,4.814,0,0,0,.105-2.724c-.013-.068-.023-.136-.036-.2a18.674,18.674,0,0,0-.552-2.206,38.172,38.172,0,0,1,2.867-3.326c.38-.357.646-.5.662-.255a8.3,8.3,0,0,0,.578,1.853c.009.025.018.048.029.073.207.536.441,1.085.646,1.56C964.257,317.376,964.506,317.919,964.506,317.919Z" transform="translate(-798.475 -267.624)" fill="#ffdfd9"/>
    <path id="Path_278" data-name="Path 278" d="M963.3,315.1a5.3,5.3,0,0,1-3.549,4.063,18.583,18.583,0,0,0-.587-2.408s3.476-4.49,3.529-3.581A8.5,8.5,0,0,0,963.3,315.1Z" transform="translate(-798.475 -267.633)" opacity="0.1"/>
    <path id="Path_279" data-name="Path 279" d="M929.753,351.084l.45-.634s.3,1.817,1.394,1.016,1.15,6.032,1.15,6.032l-1.176,17.588-8.5-.509.241-8.5.962-4.284,2.379-6.228,1.416-2.058Z" transform="translate(-768.827 -298.357)" opacity="0.1"/>
    <path id="Path_280" data-name="Path 280" d="M932.772,358.066l-1.071,15.9-.112,1.685-4.739-.284-.178-.011-3.57-.214.241-8.5.962-4.284,2.38-6.228,1.416-2.058,1.685-2.433.45-.632s.3,1.817,1.394,1.016l.023-.016h0C932.722,351.331,932.772,358.066,932.772,358.066Z" transform="translate(-768.852 -298.817)" fill="#1d2366"/>
    <path id="Path_281" data-name="Path 281" d="M879.816,406.26a1.3,1.3,0,0,1-1.284.748c-.857-.145-.855,3.213-.855,3.213s-.569.535-.962.071-1.428,1.1-1.428,1.1l-6.487.286s2.886,1.319,2.321,5.311c0,0,9.8-.607,10.121-1.533S879.816,406.26,879.816,406.26Z" transform="translate(-724.245 -344.205)" fill="#fff"/>
    <path id="Path_282" data-name="Path 282" d="M879.816,406.26a1.3,1.3,0,0,1-1.284.748c-.857-.145-.855,3.213-.855,3.213s-.569.535-.962.071-1.428,1.1-1.428,1.1l-6.487.286s2.886,1.319,2.321,5.311c0,0,9.8-.607,10.121-1.533S879.816,406.26,879.816,406.26Z" transform="translate(-724.245 -344.205)" opacity="0.03"/>
    <path id="Path_283" data-name="Path 283" d="M777.66,389.76l1.71,1.46,14.077,2.958L791.7,392.4Z" transform="translate(-640.941 -320.184)" fill="#fff"/>
    <path id="Path_284" data-name="Path 284" d="M913.761,349.469a36.015,36.015,0,0,0-1.462,3.781c-.466,1.33-.855,2.5-.855,2.5a66.849,66.849,0,0,1-1.373,6.985c-.464,1.069-.212,5.239-.212,5.239l-1.73,10.3a51.359,51.359,0,0,1-1.994,8.483,15.447,15.447,0,0,1-2.565,4.632c.536-.725,3.454-14.995,3.454-14.995l.964-18s.141-1.71.284-3.172,3.035-3.458,3.035-3.458l2.788-3.965C914.375,348.175,914.188,348.828,913.761,349.469Z" transform="translate(-752.808 -296.18)" fill="#fff"/>
    <path id="Path_285" data-name="Path 285" d="M890.162,468.552s-4.106-.178-6.094-2.567,4.6-.953,4.6-.953l1.712.393Z" transform="translate(-736.48 -392.134)" fill="#ffdfd9"/>
    <path id="Path_286" data-name="Path 286" d="M958.129,407.026a5.2,5.2,0,0,0-.1,2.39,34.026,34.026,0,0,1-9.27-.893,20.822,20.822,0,0,1-3.244,2.031l-1.282-15.887c-.819-2.142-1.141-13.365-1.141-13.365s.073-.587.179-1.467a.168.168,0,0,1,.009-.066,68.141,68.141,0,0,1,1.264-7.7c.428-.857-1.318-3.136-1.318-3.136l.794-6.774.1-.818a8.183,8.183,0,0,0,2.958-3.136l.985-1.726h0c1.071-.687,1.126,6.048,1.126,6.048l-1.071,15.9,3.549-.98S958.734,404.995,958.129,407.026Z" transform="translate(-785.274 -303.273)" opacity="0.1"/>
    <path id="Path_287" data-name="Path 287" d="M963.712,388.544c-4.882,2.424-13.756.179-13.756.179a20.822,20.822,0,0,1-3.243,2.031l-1.284-15.887c-.818-2.142-1.139-13.365-1.139-13.365s1.032-8.374,1.46-9.229a1.375,1.375,0,0,0-.084-1.021,12.92,12.92,0,0,1-.782-5.978l.343-2.912.095-.816a8.191,8.191,0,0,0,2.96-3.138l.893-1.564,1.642-2.881.778-1.364.132.12,1.009.914,1.071.893c1.4,1.178,3.813,3.252,5.059,4.522,1.1,1.117,1.442,5.464,1.542,8.736.066,2.155.027,3.843.027,3.843-1.105,1.819,1.785,16.423,1.785,16.423C962.892,370.872,963.712,388.544,963.712,388.544Z" transform="translate(-786.259 -283.693)" fill="#fff"/>
    <path id="Path_288" data-name="Path 288" d="M931.456,363.781s-3.351,6.378-2.961,8.8,1.5,5.168.962,5.809a1.973,1.973,0,0,1-1.569.784,5.157,5.157,0,0,0-1.964,1.141,18.608,18.608,0,0,0-2.5.607,15.56,15.56,0,0,1-2.922.784s-3.392-.107-3.708.214a4.769,4.769,0,0,0,.036,3.777c.677,1.533,1.428,2.678,2,2.886s4.17-1,7.092-1.284,6.094-2.6,6.094-2.6,3.493-1.25,4.106-3.351-.748-13.649-.748-13.649S934.342,362.319,931.456,363.781Z" transform="translate(-763.375 -309.102)" opacity="0.03"/>
    <path id="Path_289" data-name="Path 289" d="M929.079,360.784s-3.351,6.38-2.958,8.8,1.5,5.168.96,5.81a1.964,1.964,0,0,1-1.567.784,5.158,5.158,0,0,0-1.964,1.141,18.773,18.773,0,0,0-2.5.605,15.716,15.716,0,0,1-2.922.784s-3.392-.107-3.706.214a4.77,4.77,0,0,0,.036,3.777c.678,1.532,1.428,2.678,2,2.886s4.17-1,7.092-1.282,6.094-2.6,6.094-2.6,3.492-1.25,4.1-3.349-.748-13.65-.748-13.65S931.966,359.323,929.079,360.784Z" transform="translate(-761.427 -306.64)" opacity="0.03"/>
    <path id="Path_290" data-name="Path 290" d="M930.882,361.993s-3.351,6.38-2.958,8.8,1.5,5.168.962,5.809a1.964,1.964,0,0,1-1.569.785,5.182,5.182,0,0,0-1.964,1.139,18.369,18.369,0,0,0-2.5.607,15.592,15.592,0,0,1-2.922.784s-3.392-.107-3.708.214a4.77,4.77,0,0,0,.036,3.777c.677,1.532,1.428,2.678,2,2.886s4.17-1,7.092-1.283,6.094-2.6,6.094-2.6,3.493-1.25,4.106-3.351-.739-13.649-.739-13.649S933.767,360.54,930.882,361.993Z" transform="translate(-762.907 -307.635)" fill="#fff"/>
    <path id="Path_291" data-name="Path 291" d="M990.65,458.267s-2.678-.536-1.746.357.927,1.674,2.067,1.639S990.65,458.267,990.65,458.267Z" transform="translate(-822.748 -386.797)" opacity="0.1"/>
    <path id="Path_292" data-name="Path 292" d="M1023.485,566.58s-1.21.819,1.1,2.708S1023.485,566.58,1023.485,566.58Z" transform="translate(-851.058 -475.907)" opacity="0.1"/>
    <path id="Path_293" data-name="Path 293" d="M1011.761,604.31c0,.107-.428,3.927,1.175,4.882S1011.761,604.31,1011.761,604.31Z" transform="translate(-841.644 -506.901)" opacity="0.1"/>
    <path id="Path_294" data-name="Path 294" d="M855.419,436.59c-1.292.045-4.084.439-2.637,3.14,1.28,2.39,3.431.793,4.641-.419a4.561,4.561,0,0,0-2-2.72Z" transform="translate(-710.753 -369.12)" fill="#ffdfd9"/>
    <path id="Path_295" data-name="Path 295" d="M881.39,451Z" transform="translate(-734.587 -380.958)" fill="#ffb0b1"/>
    <path id="Path_296" data-name="Path 296" d="M880.74,451.455l.054-.055Z" transform="translate(-734.054 -381.287)" fill="#ffb0b1"/>
    <path id="Path_297" data-name="Path 297" d="M958.119,335.12c-1.371.937-2.521,1.728-2.745,1.892-.614.455-1.785,3.127-2.54,4.491-.6,1.1-2.556,1.38-3.293,1.449l.095-.816a8.191,8.191,0,0,0,2.96-3.138l3.313-5.809,1.141,1.037Z" transform="translate(-790.572 -284.178)" opacity="0.1"/>
    <path id="Path_298" data-name="Path 298" d="M958.119,334.52c-1.371.937-2.521,1.728-2.745,1.894-.614.453-1.785,3.126-2.54,4.489-.6,1.1-2.556,1.38-3.293,1.449l.095-.816a8.191,8.191,0,0,0,2.96-3.138l3.313-5.809,1.141,1.034S957.477,333.977,958.119,334.52Z" transform="translate(-790.572 -283.685)" fill="#dce7ff"/>
    <path id="Path_299" data-name="Path 299" d="M934.086,293.557a5.295,5.295,0,1,1-4.5-5.234A5.286,5.286,0,0,1,934.086,293.557Z" transform="translate(-769.177 -247.271)" fill="#ffdfd9"/>
    <path id="Path_300" data-name="Path 300" d="M945.095,311.362a4.707,4.707,0,0,1-1.708-1.835,4.832,4.832,0,0,0-1-1.687,4.464,4.464,0,0,0-1.642-.634,4.814,4.814,0,0,1-3.511-4.225,25,25,0,0,0,.129-2.753,3.049,3.049,0,0,0-.6-1.419,4.9,4.9,0,0,0-.516-.555c-.25-.236-.512-.464-.741-.714a2.773,2.773,0,0,1-.375-.509,2.451,2.451,0,0,1-.205-.473c-.357-1.092-.032-2.388-.425-3.493l-.021-.061a1.136,1.136,0,0,0-.869-.816c-.419-.03-.778.318-1.178.473a2.629,2.629,0,0,1-2.438-.793,3.343,3.343,0,0,0-2.372-1.084,7.662,7.662,0,0,0-1.592.691,2.234,2.234,0,0,1-.377.109,5.294,5.294,0,0,1,10.089,3.077c.009.025.018.048.029.073.207.536.441,1.085.646,1.56l1.008.914,1.071.893c1.4,1.178,3.813,3.252,5.059,4.522C944.649,303.745,944.991,308.09,945.095,311.362Z" transform="translate(-770.947 -247.27)" opacity="0.1"/>
    <path id="Path_301" data-name="Path 301" d="M920.667,269.519c.255-.519.382-1.1.687-1.594a3.8,3.8,0,0,1,2.033-1.448c2.1-.723,6.53-1.773,7.854,0a3.866,3.866,0,0,0,.837,1,6.221,6.221,0,0,0,.909.409,3.472,3.472,0,0,1,1.671,2.142c.287.882.373,1.828.584,2.737a20.121,20.121,0,0,0,1.214,3.368,9.275,9.275,0,0,0,2.215,3.556c1.462,1.25,1.785,3.019,3.142,4.389,1.607,1.628,1.555,4.315.727,6.448a1.771,1.771,0,0,0-.189.871,1.709,1.709,0,0,0,.473.807l.878.991a4.938,4.938,0,0,1-5.4-2.488,4.825,4.825,0,0,0-1.007-1.687,4.453,4.453,0,0,0-1.64-.632,4.82,4.82,0,0,1-3.511-4.229,24.96,24.96,0,0,0,.128-2.749,3.036,3.036,0,0,0-.6-1.428c-.491-.641-1.232-1.071-1.632-1.785-.677-1.194-.162-2.745-.65-4.027a1.139,1.139,0,0,0-.869-.816c-.419-.03-.778.318-1.18.473a2.623,2.623,0,0,1-2.437-.793,3.328,3.328,0,0,0-2.374-1.082,7.461,7.461,0,0,0-1.59.691c-.4.153-1.21.291-1.56-.046C918.647,271.916,920.359,270.154,920.667,269.519Z" transform="translate(-765.65 -228.574)" fill="#591d4b"/>
    <path id="Path_302" data-name="Path 302" d="M938.625,298.108a4.83,4.83,0,0,0-1.007-1.685,4.451,4.451,0,0,0-1.642-.634,4.821,4.821,0,0,1-3.511-4.227,25.455,25.455,0,0,0,.13-2.751,3.054,3.054,0,0,0-.6-1.419c-.493-.641-1.234-1.071-1.632-1.785-.677-1.192-.162-2.744-.652-4.027a1.142,1.142,0,0,0-.867-.816c-.418-.032-.78.32-1.18.475a2.626,2.626,0,0,1-2.437-.793,3.344,3.344,0,0,0-2.374-1.084,7.608,7.608,0,0,0-1.59.691c-.4.154-1.212.293-1.562-.045-.735-.714.976-2.472,1.283-3.1a17.1,17.1,0,0,1,.689-1.594c.016-.027.034-.054.052-.08a2.835,2.835,0,0,0-.587.668,17.356,17.356,0,0,0-.687,1.594c-.309.632-2.021,2.4-1.284,3.1.357.339,1.16.2,1.56.046a7.349,7.349,0,0,1,1.591-.691,3.326,3.326,0,0,1,2.374,1.082,2.632,2.632,0,0,0,2.438.793c.4-.155.75-.505,1.178-.473a1.137,1.137,0,0,1,.869.816c.487,1.282-.027,2.833.65,4.027.4.7,1.141,1.141,1.632,1.785a3.033,3.033,0,0,1,.6,1.428,24.959,24.959,0,0,1-.128,2.749,4.813,4.813,0,0,0,3.511,4.229,4.476,4.476,0,0,1,1.641.632,4.722,4.722,0,0,1,1.007,1.687,4.938,4.938,0,0,0,5.4,2.488l-.414-.468A4.992,4.992,0,0,1,938.625,298.108Z" transform="translate(-765.473 -236.564)" opacity="0.1"/>
    <path id="Path_303" data-name="Path 303" d="M948.74,349.987a36.013,36.013,0,0,0-1.462,3.781c-.523-.2-1-1.5-1-1.5l2.788-3.966C949.354,348.693,949.167,349.344,948.74,349.987Z" transform="translate(-787.894 -296.591)" opacity="0.1"/>
    <path id="Path_304" data-name="Path 304" d="M949.34,349.4a36.034,36.034,0,0,0-1.462,3.781c-.523-.2-1-1.5-1-1.5l2.788-3.965C949.954,348.1,949.767,348.754,949.34,349.4Z" transform="translate(-788.387 -296.106)" fill="#dce7ff"/>
    <path id="Path_305" data-name="Path 305" d="M862.626,434.142l-1.546-4.875a.455.455,0,0,1,.3-.573h0a.457.457,0,0,1,.571.3l1.546,4.87-.154,1.019Z" transform="translate(-717.885 -362.617)" fill="#be8b87"/>
    <path id="Path_306" data-name="Path 306" d="M861.565,428.871h0a.457.457,0,0,1,.573.3l1.546,4.87-.116.764.112.118.154-1.019-1.555-4.87a.457.457,0,0,0-.571-.3h0a.457.457,0,0,0-.237.178A.631.631,0,0,1,861.565,428.871Z" transform="translate(-718.223 -362.65)" fill="#fff" opacity="0.1"/>
    <path id="Path_307" data-name="Path 307" d="M822.6,399.415l.868-.275-.127.835-.027.184-.253-.264Z" transform="translate(-677.859 -327.89)" fill="#efc8c4"/>
    <path id="Path_308" data-name="Path 308" d="M872.42,461.731a.18.18,0,0,1,.055-.046.078.078,0,0,1,.084,0,.223.223,0,0,1,.03.048.154.154,0,0,0,.111.073l-.027.178Z" transform="translate(-727.219 -389.725)" fill="#727a9c"/>
    <path id="Path_309" data-name="Path 309" d="M861.13,441.7s3.1-.018,2.371,1.3a2.789,2.789,0,0,1-1.871,1.478Z" transform="translate(-717.944 -373.318)" fill="#ffdfd9"/>
    <ellipse id="Ellipse_56" data-name="Ellipse 56" cx="17.743" cy="15.83" rx="17.743" ry="15.83" transform="translate(93.661 19.135)" fill="#fff6d1"/>
    <path id="Path_310" data-name="Path 310" d="M565.381,110.05h-.134a15.268,15.268,0,0,0-12.747,6.978,15.268,15.268,0,0,0-12.747-6.978h-.134a15.173,15.173,0,0,0-15.029,15.164c0,4.964,2.174,12.008,6.414,17.8,8.077,11.044,21.5,20.707,21.5,20.707s13.418-9.661,21.494-20.707c4.241-5.8,6.414-12.84,6.414-17.8a15.173,15.173,0,0,0-15.027-15.164Zm-1.915,33.818a3.008,3.008,0,0,1-2.8-1.931h-3.184a1.007,1.007,0,0,1-.948-.685l-.978-2.947-3.1,10.816a1,1,0,0,1-.96.723h-.062a.989.989,0,0,1-.928-.828l-3.19-19.186-2.331,11.353a.994.994,0,0,1-.966.755h-4.486a1,1,0,1,1,0-1.994h3.7l3.3-15.264a1,1,0,0,1,1.964.082l3.258,19.572,2.774-9.677a.982.982,0,0,1,.934-.714h.02a1,1,0,0,1,.946.685l1.769,5.321h2.424a2.992,2.992,0,1,1,2.842,3.927Z" transform="translate(-441.479 -100.87)" fill="#2a2968"/>
  </g>
</svg>
