<svg xmlns="http://www.w3.org/2000/svg" width="482.244" height="157.283" viewBox="0 0 482.244 157.283">
  <g id="footprint" transform="translate(-45.779 -12.711)">
    <g id="Group_256" data-name="Group 256" transform="translate(474.917 38.803) rotate(-56)">
      <path id="Path_312" data-name="Path 312" d="M208.914,402.957c2.92-2.941,6.4-.98,11.535-1.284,7.534-.446,10.083,3.4,8.453,6.485s-6.357,2.572-8.809,5.28l-.023.025-.023.024c-2.556,2.61-1.757,7.3-4.743,9.11s-6.973-.5-6.979-8.049C208.319,409.4,206.152,406.048,208.914,402.957Z" transform="translate(-190.788 -385.152)" fill="#2a2968"/>
      <path id="Path_313" data-name="Path 313" d="M224.315,370.609c.722,3.828,3.309,6.554,5.777,6.089s3.883-3.947,3.161-7.775-3.309-6.554-5.777-6.089S223.592,366.781,224.315,370.609Z" transform="translate(-201.569 -362.189)" fill="#2a2968"/>
      <path id="Path_314" data-name="Path 314" d="M272.288,418.059c3.865.492,6.741,2.911,6.424,5.4s-3.707,4.112-7.572,3.62-6.741-2.91-6.424-5.4S268.423,417.568,272.288,418.059Z" transform="translate(-263.253 -395.081)" fill="#2a2968"/>
      <path id="Path_315" data-name="Path 315" d="M254.1,370.8c2.451,3.3,6.161,4.69,8.287,3.11s1.863-5.534-.588-8.832-6.161-4.69-8.287-3.11S251.651,367.5,254.1,370.8Z" transform="translate(-243.246 -361.315)" fill="#2a2968"/>
      <path id="Path_316" data-name="Path 316" d="M278.939,386.142c3.439,2.249,5.051,5.869,3.6,8.086s-5.413,2.191-8.851-.058-5.051-5.869-3.6-8.085S275.5,383.893,278.939,386.142Z" transform="translate(-269.555 -375.096)" fill="#2a2968"/>
    </g>
    <g id="Group_257" data-name="Group 257" transform="translate(363.159 72.596) rotate(-45)">
      <path id="Path_317" data-name="Path 317" d="M612.615,301.094c1.719-2.871,4.826-2.008,8.792-3.242,5.818-1.81,8.56.707,7.881,3.444s-4.483,3.248-5.88,5.845l-.013.024-.014.024c-1.5,2.541.037,6.06-1.951,8.059s-5.562.959-7.03-4.955C613.4,306.262,611.051,304.052,612.615,301.094Z" transform="translate(-597.362 -285.916)" fill="#636a9b"/>
      <path id="Path_318" data-name="Path 318" d="M635.965,269.45c1.308,2.86,3.864,4.5,5.707,3.652s2.278-3.846.97-6.706-3.864-4.5-5.708-3.652S634.656,266.59,635.965,269.45Z" transform="translate(-618.91 -262.523)" fill="#636a9b"/>
      <path id="Path_319" data-name="Path 319" d="M668.841,326.768c3.124-.364,5.847.974,6.082,2.988s-2.108,3.942-5.233,4.306-5.847-.974-6.082-2.988S665.717,327.132,668.841,326.768Z" transform="translate(-659.71 -305.772)" fill="#636a9b"/>
      <path id="Path_320" data-name="Path 320" d="M665.077,277.192c2.56,2.11,5.738,2.482,7.1.831s.387-4.7-2.173-6.807-5.737-2.481-7.1-.831S662.518,275.083,665.077,277.192Z" transform="translate(-657.135 -267.126)" fill="#636a9b"/>
      <path id="Path_321" data-name="Path 321" d="M681.734,296.971c3.131,1.1,5.1,3.62,4.39,5.639s-3.817,2.766-6.948,1.67-5.1-3.621-4.39-5.639S678.6,295.875,681.734,296.971Z" transform="translate(-674.642 -285.395)" fill="#636a9b"/>
    </g>
    <g id="Group_258" data-name="Group 258" transform="translate(267.367 108.823)">
      <path id="Path_322" data-name="Path 322" d="M1047.213,217.511c1.1-2.729,3.92-2.4,7.2-4.015,4.81-2.365,7.536-.551,7.319,1.919s-3.454,3.433-4.314,5.881l-.008.023-.009.022c-.955,2.412.858,5.261-.6,7.269s-4.7,1.59-6.784-3.349C1048.6,221.9,1046.256,220.294,1047.213,217.511Z" transform="translate(-1033.783 -203.77)" fill="#7f84a7"/>
      <path id="Path_323" data-name="Path 323" d="M1074.416,188.665c1.527,2.308,3.97,3.381,5.458,2.4s1.456-3.653-.071-5.96-3.97-3.38-5.458-2.4S1072.889,186.357,1074.416,188.665Z" transform="translate(-1060.544 -182.339)" fill="#7f84a7"/>
      <path id="Path_324" data-name="Path 324" d="M1097.338,250.063c2.666-.742,5.214.05,5.692,1.768s-1.3,3.713-3.961,4.455-5.214-.05-5.692-1.769S1094.672,250.805,1097.338,250.063Z" transform="translate(-1088.435 -230.433)" fill="#7f84a7"/>
      <path id="Path_325" data-name="Path 325" d="M1102.327,201.043c2.512,1.484,5.324,1.375,6.281-.244s-.3-4.136-2.816-5.62-5.324-1.375-6.281.244S1099.815,199.559,1102.327,201.043Z" transform="translate(-1095.946 -190.749)" fill="#7f84a7"/>
      <path id="Path_326" data-name="Path 326" d="M1113.805,222.861c2.87.526,4.922,2.452,4.583,4.3s-2.94,2.923-5.811,2.4-4.922-2.452-4.583-4.3S1110.936,222.336,1113.805,222.861Z" transform="translate(-1107.958 -211.139)" fill="#7f84a7"/>
    </g>
    <g id="Group_259" data-name="Group 259" transform="translate(121 120.919)">
      <path id="Path_327" data-name="Path 327" d="M1490.881,164.99c.921-2.279,3.274-2.007,6.012-3.353,4.017-1.975,6.293-.461,6.112,1.6s-2.885,2.867-3.6,4.911l-.007.019-.007.019c-.8,2.014.717,4.394-.5,6.071s-3.928,1.328-5.666-2.8C1492.037,168.652,1490.082,167.315,1490.881,164.99Z" transform="translate(-1479.665 -153.515)" fill="#bcbed0"/>
      <path id="Path_328" data-name="Path 328" d="M1517.928,135.946c1.275,1.927,3.315,2.823,4.558,2s1.216-3.05-.059-4.977-3.315-2.823-4.558-2S1516.653,134.019,1517.928,135.946Z" transform="translate(-1506.343 -130.663)" fill="#bcbed0"/>
      <path id="Path_329" data-name="Path 329" d="M1540.376,198.34c2.226-.619,4.354.042,4.754,1.477s-1.082,3.1-3.308,3.72-4.354-.042-4.754-1.477S1538.15,198.96,1540.376,198.34Z" transform="translate(-1532.941 -181.947)" fill="#bcbed0"/>
      <path id="Path_330" data-name="Path 330" d="M1545.514,148.227c2.1,1.24,4.447,1.148,5.246-.2s-.254-3.454-2.352-4.694-4.446-1.148-5.245.2S1543.417,146.987,1545.514,148.227Z" transform="translate(-1540.186 -139.631)" fill="#bcbed0"/>
      <path id="Path_331" data-name="Path 331" d="M1556.546,171.163c2.4.439,4.11,2.048,3.827,3.593s-2.456,2.442-4.852,2-4.11-2.048-3.827-3.593S1554.149,170.724,1556.546,171.163Z" transform="translate(-1551.663 -161.374)" fill="#bcbed0"/>
    </g>
    <g id="Group_264" data-name="Group 264" transform="translate(42.964 140.253) rotate(-31)">
      <path id="Path_327-2" data-name="Path 327" d="M1490.833,163.9c.686-1.7,2.439-1.495,4.479-2.5,2.993-1.472,4.689-.343,4.554,1.194s-2.149,2.136-2.684,3.659l0,.014-.006.014c-.594,1.5.534,3.274-.372,4.523s-2.927.99-4.222-2.084C1491.7,166.629,1490.238,165.633,1490.833,163.9Z" transform="translate(-1482.476 -155.351)" fill="#cdcfde"/>
      <path id="Path_328-2" data-name="Path 328" d="M1517.68,134.6c.95,1.436,2.47,2.1,3.4,1.491s.906-2.273-.044-3.708-2.47-2.1-3.4-1.491S1516.73,133.163,1517.68,134.6Z" transform="translate(-1509.048 -130.663)" fill="#cdcfde"/>
      <path id="Path_329-2" data-name="Path 329" d="M1539.516,198.281c1.658-.461,3.244.031,3.542,1.1s-.806,2.31-2.464,2.772-3.244-.031-3.542-1.1S1537.857,198.743,1539.516,198.281Z" transform="translate(-1533.977 -186.067)" fill="#cdcfde"/>
      <path id="Path_330-2" data-name="Path 330" d="M1544.846,146.756c1.563.924,3.313.856,3.908-.152s-.189-2.573-1.752-3.5-3.313-.855-3.908.152S1543.284,145.832,1544.846,146.756Z" transform="translate(-1540.877 -140.351)" fill="#cdcfde"/>
      <path id="Path_331-2" data-name="Path 331" d="M1555.3,171.135c1.786.327,3.063,1.526,2.851,2.677s-1.83,1.819-3.615,1.492-3.062-1.526-2.851-2.677S1553.515,170.807,1555.3,171.135Z" transform="translate(-1551.663 -163.841)" fill="#cdcfde"/>
    </g>
    <g id="Group_260" data-name="Group 260" transform="translate(432.934 93.702) rotate(-45)">
      <path id="Path_332" data-name="Path 332" d="M436.275,404.846c.445-3.317,3.64-3.751,6.8-6.451,4.631-3.96,8.144-2.731,8.6.051s-2.836,4.755-3.094,7.693l0,.027,0,.027c-.372,2.926,2.427,5.552,1.39,8.174s-4.732,3.077-8.415-1.776C439.037,409.284,436.006,408.181,436.275,404.846Z" transform="translate(-421.625 -389.14)" fill="#2a2968"/>
      <path id="Path_333" data-name="Path 333" d="M468.394,382.651c2.332,2.111,5.325,2.6,6.686,1.1s.574-4.433-1.757-6.544-5.325-2.6-6.686-1.1S466.062,380.54,468.394,382.651Z" transform="translate(-455.347 -375.237)" fill="#2a2968"/>
      <path id="Path_334" data-name="Path 334" d="M475.477,444.948c2.727-1.568,5.756-1.414,6.767.344s-.38,4.454-3.107,6.022-5.756,1.414-6.767-.343S472.75,446.516,475.477,444.948Z" transform="translate(-464.153 -421.481)" fill="#2a2968"/>
      <path id="Path_335" data-name="Path 335" d="M493.857,401.731c3.184.927,6.251.014,6.849-2.039s-1.5-4.469-4.685-5.4-6.251-.014-6.849,2.039S490.672,400.8,493.857,401.731Z" transform="translate(-487.942 -387.835)" fill="#2a2968"/>
      <path id="Path_336" data-name="Path 336" d="M497.467,423.076c3.309-.23,6.112,1.314,6.26,3.447s-2.415,4.049-5.724,4.279-6.112-1.314-6.259-3.447S494.158,423.306,497.467,423.076Z" transform="translate(-491.737 -407.457)" fill="#2a2968"/>
    </g>
    <g id="Group_261" data-name="Group 261" transform="translate(350.077 142.742)">
      <path id="Path_337" data-name="Path 337" d="M843.564,306.9c-.138-2.94,2.559-3.82,4.864-6.654,3.382-4.158,6.616-3.648,7.451-1.312s-1.7,4.562-1.464,7.145c0,.008,0,.016,0,.024v.024c.139,2.591,2.977,4.422,2.492,6.854s-3.61,3.409-7.563-.209C846.653,310.3,843.857,309.827,843.564,306.9Z" transform="translate(-830.801 -293.423)" fill="#636a9b"/>
      <path id="Path_338" data-name="Path 338" d="M880.629,290.728c2.351,1.46,5.019,1.414,5.96-.1s-.2-3.927-2.553-5.386-5.019-1.414-5.96.1S878.278,289.269,880.629,290.728Z" transform="translate(-870.562 -284.175)" fill="#636a9b"/>
      <path id="Path_339" data-name="Path 339" d="M875.855,352.4c2.112-1.787,4.758-2.132,5.91-.77s.374,3.914-1.739,5.7-4.759,2.132-5.911.77S873.743,354.184,875.855,352.4Z" transform="translate(-864.748 -331.68)" fill="#636a9b"/>
      <path id="Path_340" data-name="Path 340" d="M902.955,313.537c2.9.3,5.412-.974,5.605-2.845s-2-3.631-4.905-3.931-5.412.974-5.605,2.845S900.053,313.237,902.955,313.537Z" transform="translate(-898.038 -300.249)" fill="#636a9b"/>
      <path id="Path_341" data-name="Path 341" d="M900.556,335.164c2.827-.72,5.5.173,5.961,2s-1.451,3.884-4.278,4.6-5.5-.172-5.961-2S897.729,335.885,900.556,335.164Z" transform="translate(-895.527 -320.356)" fill="#636a9b"/>
    </g>
    <g id="Group_262" data-name="Group 262" transform="translate(202.103 147.412)">
      <path id="Path_342" data-name="Path 342" d="M1293.476,226.606c-.345-2.434,1.828-3.377,3.522-5.914,2.486-3.722,5.215-3.552,6.092-1.675s-1.06,3.927-.657,6.055l0,.02,0,.02c.319,2.143,2.822,3.443,2.61,5.5s-2.734,3.117-6.3.419C1296.312,229.2,1293.949,229.019,1293.476,226.606Z" transform="translate(-1282.551 -215.597)" fill="#b2b6cc"/>
      <path id="Path_343" data-name="Path 343" d="M1334.715,214.337c2.069,1.029,4.283.782,4.947-.552s-.476-3.249-2.545-4.278-4.284-.782-4.947.552S1332.646,213.308,1334.715,214.337Z" transform="translate(-1326.574 -208.872)" fill="#b2b6cc"/>
      <path id="Path_344" data-name="Path 344" d="M1324.075,275.252c1.616-1.651,3.789-2.145,4.854-1.1s.617,3.225-1,4.877-3.789,2.146-4.854,1.1S1322.459,276.9,1324.075,275.252Z" transform="translate(-1313.959 -258.092)" fill="#b2b6cc"/>
      <path id="Path_345" data-name="Path 345" d="M1354.949,238.68c2.436.022,4.423-1.234,4.437-2.805s-1.95-2.862-4.387-2.883-4.423,1.234-4.437,2.805S1352.513,238.658,1354.949,238.68Z" transform="translate(-1350.562 -227.212)" fill="#b2b6cc"/>
      <path id="Path_346" data-name="Path 346" d="M1349.7,260.748c2.294-.821,4.583-.287,5.113,1.192s-.9,3.344-3.2,4.165-4.583.287-5.113-1.192S1347.411,261.569,1349.7,260.748Z" transform="translate(-1345.106 -248.025)" fill="#b2b6cc"/>
    </g>
  </g>
</svg>
