<svg xmlns="http://www.w3.org/2000/svg" xmlns:xlink="http://www.w3.org/1999/xlink" width="1200" height="300" viewBox="0 0 1200 300">
  <defs>
    <clipPath id="clip-path">
      <rect id="Rectangle_334" data-name="Rectangle 334" width="1200" height="300" transform="translate(0 80)" fill="#d2ebf7"/>
    </clipPath>
  </defs>
  <g id="bg" transform="translate(0 -80)">
    <rect id="Rectangle_155" data-name="Rectangle 155" width="1200" height="300" transform="translate(0 80)" fill="#d2ebf7"/>
    <g id="Mask_Group_31" data-name="Mask Group 31" clip-path="url(#clip-path)">
      <g id="Group_941" data-name="Group 941">
        <g id="round_circle_bg" data-name="round circle bg" transform="translate(27 -567)">
          <circle id="Ellipse_69" data-name="Ellipse 69" cx="275" cy="275" r="275" transform="translate(298 596)" fill="#fff6d1" opacity="0.107"/>
          <circle id="Ellipse_68" data-name="Ellipse 68" cx="220" cy="220" r="220" transform="translate(353 651)" fill="#fff6d1" opacity="0.18"/>
          <circle id="Ellipse_67" data-name="Ellipse 67" cx="175.5" cy="175.5" r="175.5" transform="translate(398 696)" fill="#fff6d1" opacity="0.336"/>
          <circle id="Ellipse_66" data-name="Ellipse 66" cx="140" cy="140" r="140" transform="translate(433 731)" fill="#fff6d1"/>
        </g>
        <g id="mzVX3F.tif" transform="translate(1387.629 373.246)" opacity="0.5">
          <path id="Path_1111" data-name="Path 1111" d="M-202.553-36.079a16.45,16.45,0,0,1-16.555-16.5A16.441,16.441,0,0,1-202.7-69.007c9.462.026,16.779,7.186,16.8,16.437A16.44,16.44,0,0,1-202.553-36.079Zm-.1-3.018a13.524,13.524,0,0,0,13.534-13.366,13.506,13.506,0,0,0-13.341-13.556A13.5,13.5,0,0,0-216.141-52.6,13.465,13.465,0,0,0-202.658-39.1Z" transform="translate(-85.914 -75.002)" fill="#fff"/>
          <path id="Path_1112" data-name="Path 1112" d="M-263.243-138.061c11.654.158,20.525,9.18,20.3,20.265-.018.88-.3,1.55-1.2,1.757a1.349,1.349,0,0,1-1.652-.876,3.881,3.881,0,0,1-.15-1.342,17.166,17.166,0,0,0-1.688-7.238,17,17,0,0,0-19.295-9.11,16.952,16.952,0,0,0-12.907,17.171,16.945,16.945,0,0,0,15.8,16.246c.194.016.39.014.583.038a1.489,1.489,0,0,1,1.412,1.559,1.459,1.459,0,0,1-1.572,1.388,18.86,18.86,0,0,1-8.661-2.31,19.943,19.943,0,0,1-10.391-20.449A19.99,19.99,0,0,1-267.6-137.509a20.824,20.824,0,0,1,2.49-.44C-264.373-138.039-263.623-138.04-263.243-138.061Z" transform="translate(-48.152 -32.374)" fill="#fff"/>
          <path id="Path_1113" data-name="Path 1113" d="M-359.947-79.983A12.931,12.931,0,0,1-346.895-92.92a12.985,12.985,0,0,1,12.886,12.936,13.031,13.031,0,0,1-13.032,13.006A12.966,12.966,0,0,1-359.947-79.983Zm22.909,0a9.935,9.935,0,0,0-9.882-9.946,9.961,9.961,0,0,0-10.048,9.891A9.944,9.944,0,0,0-347.075-70,9.916,9.916,0,0,0-337.038-79.98Z" transform="translate(-32.935 -82.532)" fill="#fff"/>
          <path id="Path_1114" data-name="Path 1114" d="M-336.02-176.1a9.98,9.98,0,0,1,9.928-9.922,10,10,0,0,1,10,10.059,10,10,0,0,1-9.937,9.923A9.984,9.984,0,0,1-336.02-176.1Zm9.966,7.033a6.975,6.975,0,0,0,6.986-7,6.974,6.974,0,0,0-6.955-6.929,6.961,6.961,0,0,0-7.026,6.948A6.953,6.953,0,0,0-326.054-169.066Z" transform="translate(-30.924 -58.855)" fill="#fff"/>
          <path id="Path_1115" data-name="Path 1115" d="M-187.361-167c-.924,0-1.6-.757-1.688-1.9a8.6,8.6,0,0,0-6.8-7.984c-.565-.129-1.156-.146-1.733-.227-.992-.139-1.538-.721-1.5-1.578a1.491,1.491,0,0,1,1.652-1.415,8.4,8.4,0,0,0,6.136-2.5,8.14,8.14,0,0,0,2.434-5.566c.048-1.1.546-1.7,1.436-1.725s1.5.528,1.56,1.621a8.547,8.547,0,0,0,3.764,6.908,7.287,7.287,0,0,0,4.112,1.3,1.6,1.6,0,0,1,1.772,1.2c.25,1.02-.49,1.764-1.808,1.839a8.107,8.107,0,0,0-6.168,3.236,8.236,8.236,0,0,0-1.734,5.059C-185.946-167.645-186.495-167.009-187.361-167Zm-4.042-11.444,3.891,3.9,3.868-4.027-3.671-3.775Z" transform="translate(-72.731 -35)" fill="#fff"/>
          <path id="Path_1116" data-name="Path 1116" d="M-284.351-15.836a1.683,1.683,0,0,1,1.545,1.494,16.1,16.1,0,0,0,.312,1.814,5.706,5.706,0,0,0,5.148,4.082c1.151.084,1.8.615,1.813,1.49s-.586,1.383-1.774,1.522a5.871,5.871,0,0,0-5.572,5.8c-.053,1.049-.529,1.665-1.336,1.725A1.663,1.663,0,0,1-285.908.55c-.085-.478-.1-.971-.222-1.438a6.126,6.126,0,0,0-5.626-4.6c-1.166-.089-1.742-.607-1.714-1.542.027-.891.582-1.355,1.718-1.438a5.915,5.915,0,0,0,5.956-5.819A1.541,1.541,0,0,1-284.351-15.836Zm-.129,11,2.3-2.193-2.235-2.019-2.125,2Z" transform="translate(-55.469 -43.71)" fill="#fff"/>
          <path id="Path_1120" data-name="Path 1120" d="M-284.351-15.836a1.683,1.683,0,0,1,1.545,1.494,16.1,16.1,0,0,0,.312,1.814,5.706,5.706,0,0,0,5.148,4.082c1.151.084,1.8.615,1.813,1.49s-.586,1.383-1.774,1.522a5.871,5.871,0,0,0-5.572,5.8c-.053,1.049-.529,1.665-1.336,1.725A1.663,1.663,0,0,1-285.908.55c-.085-.478-.1-.971-.222-1.438a6.126,6.126,0,0,0-5.626-4.6c-1.166-.089-1.742-.607-1.714-1.542.027-.891.582-1.355,1.718-1.438a5.915,5.915,0,0,0,5.956-5.819A1.541,1.541,0,0,1-284.351-15.836Zm-.129,11,2.3-2.193-2.235-2.019-2.125,2Z" transform="translate(-239.469 -236.981)" fill="#fff"/>
          <path id="Path_1117" data-name="Path 1117" d="M-249.5-119.669c.249.074.877.08,1.184.4a2.148,2.148,0,0,1,.551,1.509c-.074.826-.778,1.154-1.565,1.151a8.568,8.568,0,0,0-5.5,1.894,9.765,9.765,0,0,0-3.719,6.711c-.032.258-.052.517-.089.774-.15,1.055-.752,1.644-1.608,1.579-.9-.069-1.444-.78-1.374-1.887a12.81,12.81,0,0,1,1.541-5.481A12.186,12.186,0,0,1-249.5-119.669Z" transform="translate(-61.406 -43.86)" fill="#fff"/>
          <path id="Path_1118" data-name="Path 1118" d="M-201.841-45.229a9.491,9.491,0,0,1,9.166-9.1c1.118-.011,1.785.527,1.8,1.452.012.889-.582,1.425-1.664,1.5a6.5,6.5,0,0,0-6.276,6.242c-.111,1.13-.688,1.764-1.577,1.733C-201.3-43.429-201.878-44.156-201.841-45.229Z" transform="translate(-96.697 -84.17)" fill="#fff"/>
          <path id="Path_1119" data-name="Path 1119" d="M-346.72-71.123a7.268,7.268,0,0,1,5.091-6.941,5.448,5.448,0,0,1,1.438-.158,1.342,1.342,0,0,1,1.42,1.306,1.387,1.387,0,0,1-1.117,1.594c-2.858.787-3.468,1.475-3.824,4.411-.126,1.042-.729,1.669-1.568,1.63A1.592,1.592,0,0,1-346.72-71.123Z" transform="translate(-41.194 -91.711)" fill="#fff"/>
          <path id="Path_1111-2" data-name="Path 1111" d="M-202.454-36.079a16.45,16.45,0,0,0,16.555-16.5,16.441,16.441,0,0,0-16.413-16.433c-9.462.026-16.779,7.186-16.8,16.437A16.44,16.44,0,0,0-202.454-36.079Zm.1-3.018a13.524,13.524,0,0,1-13.534-13.366,13.506,13.506,0,0,1,13.341-13.556A13.5,13.5,0,0,1-188.866-52.6,13.465,13.465,0,0,1-202.349-39.1Z" transform="translate(-1113.09 -75.002)" fill="#fff"/>
          <path id="Path_1112-2" data-name="Path 1112" d="M-262.543-138.061c-11.654.158-20.525,9.18-20.3,20.265.018.88.3,1.55,1.2,1.757a1.349,1.349,0,0,0,1.652-.876,3.881,3.881,0,0,0,.15-1.342,17.165,17.165,0,0,1,1.688-7.238,17,17,0,0,1,19.295-9.11,16.952,16.952,0,0,1,12.907,17.171,16.945,16.945,0,0,1-15.8,16.246c-.194.016-.39.014-.583.038a1.489,1.489,0,0,0-1.412,1.559,1.459,1.459,0,0,0,1.572,1.388,18.86,18.86,0,0,0,8.661-2.31,19.943,19.943,0,0,0,10.391-20.449,19.99,19.99,0,0,0-15.062-16.547,20.824,20.824,0,0,0-2.49-.44C-261.413-138.039-262.163-138.04-262.543-138.061Z" transform="translate(-1030.073 -32.373)" fill="#fff"/>
          <path id="Path_1113-2" data-name="Path 1113" d="M-334.009-79.983A12.931,12.931,0,0,0-347.061-92.92a12.985,12.985,0,0,0-12.886,12.936,13.031,13.031,0,0,0,13.032,13.006A12.966,12.966,0,0,0-334.009-79.983Zm-22.909,0a9.935,9.935,0,0,1,9.882-9.946,9.961,9.961,0,0,1,10.048,9.891A9.944,9.944,0,0,1-346.881-70,9.916,9.916,0,0,1-356.918-79.98Z" transform="translate(-821.121 -177.907)" fill="#fff"/>
          <path id="Path_1114-2" data-name="Path 1114" d="M-319.748-177.918a8.15,8.15,0,0,0-8.108-8.1,8.168,8.168,0,0,0-8.164,8.215,8.168,8.168,0,0,0,8.115,8.1A8.153,8.153,0,0,0-319.748-177.918Zm-8.138,5.743a5.7,5.7,0,0,1-5.705-5.714,5.7,5.7,0,0,1,5.68-5.658,5.685,5.685,0,0,1,5.738,5.674A5.678,5.678,0,0,1-327.886-172.175Z" transform="translate(-870.059 21.343)" fill="#fff"/>
          <path id="Path_1115-2" data-name="Path 1115" d="M-187.887-167c.924,0,1.6-.757,1.688-1.9a8.6,8.6,0,0,1,6.8-7.984c.565-.129,1.156-.146,1.733-.227.992-.139,1.538-.721,1.5-1.578a1.491,1.491,0,0,0-1.652-1.415,8.4,8.4,0,0,1-6.136-2.5,8.14,8.14,0,0,1-2.434-5.566c-.048-1.1-.546-1.7-1.436-1.725s-1.5.528-1.56,1.621a8.547,8.547,0,0,1-3.764,6.908,7.287,7.287,0,0,1-4.112,1.3,1.6,1.6,0,0,0-1.772,1.2c-.25,1.02.49,1.764,1.808,1.839a8.107,8.107,0,0,1,6.168,3.236,8.236,8.236,0,0,1,1.734,5.059C-189.3-167.644-188.754-167.008-187.887-167Zm4.042-11.444-3.891,3.9-3.868-4.027,3.671-3.775Z" transform="translate(-1144.574 -48)" fill="#fff"/>
          <path id="Path_1116-2" data-name="Path 1116" d="M-284.652-15.836a1.683,1.683,0,0,0-1.545,1.494,16.1,16.1,0,0,1-.312,1.814,5.706,5.706,0,0,1-5.148,4.083c-1.151.084-1.8.615-1.813,1.49s.586,1.383,1.774,1.522a5.871,5.871,0,0,1,5.572,5.8c.053,1.049.529,1.665,1.336,1.725A1.663,1.663,0,0,0-283.1.55c.085-.478.1-.971.222-1.438a6.126,6.126,0,0,1,5.626-4.6c1.166-.089,1.742-.607,1.714-1.542-.027-.891-.582-1.355-1.718-1.438a5.915,5.915,0,0,1-5.956-5.819A1.541,1.541,0,0,0-284.652-15.836Zm.129,11-2.3-2.193,2.235-2.019,2.125,2Z" transform="translate(-987.506 -52.71)" fill="#fff"/>
          <path id="Path_1121" data-name="Path 1121" d="M-284.652-15.836a1.683,1.683,0,0,0-1.545,1.494,16.1,16.1,0,0,1-.312,1.814,5.706,5.706,0,0,1-5.148,4.083c-1.151.084-1.8.615-1.813,1.49s.586,1.383,1.774,1.522a5.871,5.871,0,0,1,5.572,5.8c.053,1.049.529,1.665,1.336,1.725A1.663,1.663,0,0,0-283.1.55c.085-.478.1-.971.222-1.438a6.126,6.126,0,0,1,5.626-4.6c1.166-.089,1.742-.607,1.714-1.542-.027-.891-.582-1.355-1.718-1.438a5.915,5.915,0,0,1-5.956-5.819A1.541,1.541,0,0,0-284.652-15.836Zm.129,11-2.3-2.193,2.235-2.019,2.125,2Z" transform="translate(-756.506 -163.564)" fill="#fff"/>
          <path id="Path_1117-2" data-name="Path 1117" d="M-259.889-119.669c-.249.074-.877.08-1.184.4a2.148,2.148,0,0,0-.551,1.509c.074.826.778,1.154,1.565,1.151a8.568,8.568,0,0,1,5.5,1.894,9.765,9.765,0,0,1,3.719,6.711c.032.258.052.517.089.774.15,1.055.752,1.644,1.608,1.579.9-.069,1.444-.78,1.374-1.887a12.81,12.81,0,0,0-1.541-5.481A12.186,12.186,0,0,0-259.889-119.669Z" transform="translate(-1033.216 -43.86)" fill="#fff"/>
          <path id="Path_1118-2" data-name="Path 1118" d="M-190.879-45.229a9.491,9.491,0,0,0-9.166-9.1c-1.118-.011-1.785.527-1.8,1.452-.012.889.582,1.425,1.664,1.5a6.5,6.5,0,0,1,6.276,6.242c.111,1.13.688,1.764,1.577,1.733C-191.415-43.429-190.842-44.156-190.879-45.229Z" transform="translate(-1114.594 -84.17)" fill="#fff"/>
          <path id="Path_1119-2" data-name="Path 1119" d="M-338.76-71.123a7.268,7.268,0,0,0-5.091-6.941,5.448,5.448,0,0,0-1.438-.158,1.342,1.342,0,0,0-1.42,1.306,1.387,1.387,0,0,0,1.117,1.594c2.858.787,3.468,1.475,3.824,4.411.126,1.042.729,1.669,1.568,1.63A1.592,1.592,0,0,0-338.76-71.123Z" transform="translate(-821.337 -187.087)" fill="#fff"/>
        </g>
      </g>
    </g>
  </g>
</svg>
