<?xml version="1.0" encoding="utf-8"?>
<!-- Generator: Adobe Illustrator 26.0.2, SVG Export Plug-In . SVG Version: 6.00 Build 0)  -->
<svg version="1.1" xmlns="http://www.w3.org/2000/svg" xmlns:xlink="http://www.w3.org/1999/xlink" x="0px" y="0px"
	 viewBox="0 0 119.6 119" style="enable-background:new 0 0 119.6 119;" xml:space="preserve">
<style type="text/css">
	.st0{display:none;}
	.st1{display:inline;}
	.st2{fill:#E5E5EF;}
	.st3{fill:#FFFFFF;}
</style>
<g id="圖層_1" class="st0">
	<g id="Deas3H.tif" transform="matrix(0.985, -0.174, 0.174, 0.985, 0, 17.944)" class="st1">
		<g id="Group_370" transform="translate(0 0)">
			<path id="Path_527" class="st2" d="M49.4,0l4.4,0c3.1,1.2,3.8,2.3,3.8,5.8c0,0.9,0,1.8,0,2.7c1.3,0,2.5,0,3.7,0
				c1.5-0.1,2.9,0.5,3.8,1.7c0.3,0.4,0.8,0.7,1.3,0.6c5.5,0,11,0,16.5,0c4.6-0.1,8.9,2.4,11,6.5c2.8,5,5.6,10,8.3,15
				c2.3,4.1-0.2,8.3-4.9,8.3c-0.7,0-1.4,0-2.1,0l0.1,44.9c0.9,0,1.7,0,2.5,0c3,0.1,5.3,2.5,5.4,5.4c0,2.1,0,4.2,0,6.3
				c0,2.4-1.6,4.5-3.9,5.1c-0.8,0.2-1.6,0.3-2.4,0.3c-30.2,0-60.4-0.1-90.6-0.1c-0.3,0-0.6,0-0.9,0c-2.4-0.1-4.4-1.6-5.2-3.8
				c-0.1-0.2-0.2-0.5-0.3-0.7l0-8c1.1-4,4.2-4.9,7.9-4.6L7.9,40.5c-1,0-1.9,0-2.8,0c-1.9,0-3.5-1.1-4.4-2.7c-0.3-0.5-0.5-1-0.7-1.5
				l0-2c0.3-0.7,0.6-1.5,1-2.2c2.6-4.8,5.3-9.6,7.9-14.4c2.2-4.5,6.8-7.2,11.8-6.9c5.3,0.1,10.7,0,16,0c0.4,0,0.8-0.1,1.1-0.4
				c1-1.3,2.6-2,4.2-1.9c1.1,0,2.3,0,3.5,0c0-0.5,0-0.8,0-1.1c0-0.9,0-1.9,0-2.8C45.6,2.1,47.1,0.7,49.4,0z M37.1,13.8
				c-0.4,0-0.8-0.1-1.1-0.1c-5.2,0-10.4,0-15.6,0c-3.6-0.2-7,1.8-8.6,5.1C9,23.7,6.4,28.6,3.6,33.4c-1.2,2.1,0,4.1,2.4,4.1
				c5.9-0.1,11.8,0,17.7,0c0.4,0,0.8,0,1.2,0.1c0.7,0.1,1.2,0.8,1.1,1.5c0,0.7-0.6,1.3-1.3,1.3c-0.3,0-0.7,0-1,0
				c-3.9,0-7.8,0-11.7,0c-0.9,0-1.2,0.3-1.2,1.2C11,55.9,11,70,11,84.2c0,0.3,0,0.7,0.1,1l30,0c0-0.5,0-0.9,0-1.3c0-4,0-8.1,0-12.1
				c0-4.4,2.7-7.1,7.1-7.2c2.3,0,4.6,0,6.9,0c4.5,0,7.2,2.7,7.2,7.2c0,4.1,0,8.1,0,12.2v1.2h1.2c2.8,0,5.5,0,8.3,0
				c1.6,0,2.4,0.5,2.3,1.6c0,1-0.7,1.4-2.3,1.4l-65-0.1c-0.3,0-0.7,0-1,0c-1.4,0-2.6,1.1-2.6,2.5c0,0.1,0,0.2,0,0.2
				c0,1.9,0,3.9,0,5.8c-0.1,1.4,1,2.6,2.4,2.7c0.1,0,0.1,0,0.2,0c0.2,0,0.5,0,0.7,0l90.4,0.1c0.2,0,0.4,0,0.6,0
				c1.4,0.1,2.7-0.9,2.8-2.4c0-0.2,0-0.3,0-0.5c0-1.7,0-3.4,0-5.1c0-2.3-0.9-3.2-3.3-3.2c-5.8,0-11.7,0-17.5,0c-0.3,0-0.6,0-0.9,0
				c-0.8,0-1.4-0.7-1.4-1.6c0-0.7,0.5-1.2,1.2-1.4c0.3-0.1,0.7-0.1,1-0.1c3.9,0,7.9,0,11.8,0h1.1l-0.1-44.8h-1.3l-59.2-0.1
				c-0.4,0-0.8,0-1.2,0c-0.8-0.1-1.4-0.8-1.3-1.6c0.1-0.6,0.5-1.2,1.2-1.3c0.4-0.1,0.9-0.1,1.3-0.1c21.8,0,43.7,0,65.5,0.1
				c2.4,0,3.8-1.9,2.4-4.1c-2.8-4.8-5.4-9.6-8.1-14.4c-1.6-3.3-5.1-5.4-8.8-5.2c-5.1,0-10.3,0-15.4,0c-0.4,0-0.7,0-1.1,0.1
				c0,0.6,0,1.2,0,1.7c0,3.2-1.8,4.9-5,5c-1.1,0-2.3,0-3.5,0c0,1.4,0,2.6,0,3.9c0,2.3-1.7,4.3-4,4.5c-1.1,0.1-2.2,0.1-3.3,0.1
				c-2.5,0.1-4.7-1.9-4.8-4.4c0-0.1,0-0.3,0-0.4c0-1.2,0-2.4,0-3.7c-1.5,0-2.8,0-4.1,0c-2.4-0.1-4.3-2-4.4-4.4
				C37,15.4,37.1,14.6,37.1,13.8z M59.2,85.4c0-0.4,0-0.6,0-0.9c0-4.2,0-8.4,0-12.6c0-2.6-1.4-4-4.1-4c-2.3,0-4.6,0-7,0
				c-2.8,0-4.2,1.4-4.2,4.1c0,4.1,0,8.3,0,12.4c0,0.3,0,0.6,0,1L59.2,85.4z M48.6,21.7c0,0.8,0,1.6,0,2.4c0,1.3,0.6,1.8,1.8,1.9
				c0.8,0,1.6,0,2.4,0c0.9,0.1,1.7-0.5,1.8-1.4c0-0.1,0-0.3,0-0.4c0-1.5,0-2.9,0-4.4c0-1.9,0.4-2.3,2.3-2.3c1.5,0,3,0,4.5,0
				c0.8,0.1,1.5-0.5,1.6-1.3c0-0.1,0-0.2,0-0.3c0-0.8,0-1.7,0-2.5c0-1.3-0.5-1.9-1.9-1.9c-1.5,0-3,0-4.4,0c-1.7,0-2.2-0.4-2.2-2.1
				c0-1.5,0-3,0-4.5c0-1.3-0.6-1.8-1.8-1.8c-0.8,0-1.6,0-2.4,0c-0.9-0.1-1.7,0.5-1.8,1.4c0,0.1,0,0.3,0,0.4c0,1.6,0,3.1,0,4.7
				c0,1.4-0.5,1.9-1.9,1.9c-1.6,0-3.2,0-4.8,0c-0.8-0.1-1.6,0.5-1.7,1.3c0,0.1,0,0.3,0,0.4c0,0.8,0,1.5,0,2.3c0,1.5,0.5,1.9,2,2
				s3,0,4.5,0c1.4,0,1.9,0.5,2,1.9C48.6,20.2,48.6,21,48.6,21.7z"/>
			<path id="Path_528" class="st2" d="M82.9,52.7c0,1.1,0,2.1,0,3.2c0,2.3-1.9,4.2-4.2,4.3c-2.1,0.1-4.3,0.1-6.4,0
				c-2.4,0-4.4-1.9-4.5-4.3c0,0,0,0,0,0c-0.1-2.1-0.1-4.1,0-6.2c0-2.4,2-4.4,4.4-4.4c0,0,0,0,0,0c2.1-0.1,4.2-0.1,6.2,0
				c2.4,0,4.4,2,4.4,4.4c0,0.1,0,0.1,0,0.2C83,50.8,82.9,51.7,82.9,52.7L82.9,52.7z M75.3,57.2c1,0,2,0,2.9,0c1.2,0,1.6-0.5,1.6-1.7
				c0-1.9,0-3.7,0-5.6c0-1.2-0.5-1.7-1.6-1.7c-1.9,0-3.8,0-5.7,0c-0.8-0.1-1.5,0.5-1.7,1.3c0,0.1,0,0.2,0,0.3c0,1.9,0,3.9,0,5.8
				c0,1.1,0.6,1.6,1.7,1.6C73.5,57.2,74.4,57.2,75.3,57.2L75.3,57.2z"/>
			<path id="Path_529" class="st2" d="M27.9,65.3c1,0,2,0,3,0c2.4-0.1,4.5,1.8,4.6,4.3c0,0,0,0.1,0,0.1c0.1,2.1,0.1,4.2,0,6.3
				c0,2.5-2.1,4.4-4.5,4.4c0,0,0,0-0.1,0c-2,0-4,0-5.9,0c-2.5,0.1-4.5-1.9-4.6-4.3c0-0.1,0-0.2,0-0.2c0-2,0-3.9,0-5.9
				c-0.1-2.4,1.8-4.5,4.2-4.5c0.1,0,0.2,0,0.3,0C25.9,65.3,26.9,65.3,27.9,65.3z M23.4,72.7c0,1,0,2,0,3c-0.1,0.8,0.5,1.5,1.3,1.6
				c0.1,0,0.2,0,0.3,0c1.9,0,3.9,0,5.8,0c0.8,0.1,1.6-0.5,1.6-1.3c0-0.1,0-0.2,0-0.3c0-1.9,0-3.9,0-5.8c0.1-0.8-0.5-1.5-1.3-1.6
				c-0.1,0-0.2,0-0.4,0c-1.9,0-3.8,0-5.7,0c-1.2,0-1.7,0.5-1.7,1.6C23.4,70.9,23.4,71.8,23.4,72.7z"/>
			<path id="Path_530" class="st2" d="M28,60.2c-1.1,0-2.1,0-3.2,0c-2.4,0-4.4-2-4.4-4.4c0,0,0,0,0-0.1c0-2,0-4,0-6
				c-0.1-2.4,1.8-4.4,4.2-4.5c0.1,0,0.1,0,0.2,0c2.1-0.1,4.2-0.1,6.3,0c2.4,0,4.4,2,4.4,4.4c0,0,0,0,0,0c0.1,2,0.1,4.1,0,6.1
				c0,2.4-2,4.4-4.4,4.4c0,0-0.1,0-0.1,0C30,60.2,29,60.2,28,60.2L28,60.2z M23.4,52.7c0,1,0,1.9,0,2.9c0,1,0.5,1.6,1.5,1.6
				c2,0,4,0,5.9,0c0.8,0.1,1.5-0.5,1.6-1.2c0-0.1,0-0.2,0-0.2c0-2,0-4,0-6c0.1-0.8-0.5-1.4-1.3-1.5c-0.1,0-0.1,0-0.2,0
				c-2.1-0.1-4.1-0.1-6.2,0c-1,0-1.4,0.6-1.4,1.6C23.4,50.7,23.4,51.7,23.4,52.7L23.4,52.7z"/>
			<path id="Path_531" class="st2" d="M75.5,65.3c1,0,1.9,0,2.9,0c2.4-0.1,4.5,1.8,4.6,4.2c0,0.1,0,0.1,0,0.2c0,2,0,4.1,0,6.1
				c0,2.4-1.9,4.4-4.3,4.5c0,0,0,0,0,0c-2.1,0.1-4.2,0.1-6.3,0c-2.4,0-4.4-2-4.4-4.5c-0.1-2-0.1-4.1,0-6.1c0-2.4,2-4.4,4.4-4.4
				c0.1,0,0.1,0,0.2,0C73.5,65.3,74.5,65.3,75.5,65.3z M79.9,73c0-0.9,0-1.9,0-2.8c0,0,0-0.1,0-0.1c0-1.2-0.5-1.7-1.7-1.7
				c-1.9,0-3.8,0-5.6,0c-1.1,0-1.7,0.5-1.7,1.6c0,1.9,0,3.8,0,5.7c-0.1,0.8,0.5,1.5,1.3,1.6c0.1,0,0.2,0,0.3,0c1.9,0,3.9,0,5.8,0
				c1.1,0,1.6-0.6,1.6-1.7C80,74.8,79.9,73.9,79.9,73z"/>
			<path id="Path_532" class="st2" d="M51.6,60.2c-1.1,0-2.2,0-3.3,0c-2.2-0.1-3.9-1.8-4.1-3.9c-0.1-2.3-0.1-4.7,0-7
				c0.1-2.3,2-4.1,4.3-4c2.1-0.1,4.2-0.1,6.3,0c2.4,0,4.4,2,4.4,4.4c0,0,0,0,0,0c0.1,2.1,0.1,4.1,0,6.2c0,2.4-1.9,4.4-4.3,4.4
				c-0.1,0-0.1,0-0.2,0C53.7,60.2,52.6,60.2,51.6,60.2L51.6,60.2z M56.2,52.7L56.2,52.7l0-2.6c0-0.1,0-0.1,0-0.2
				c-0.1-1.2-0.5-1.7-1.7-1.7c-1.9,0-3.8,0-5.6,0c-1.2,0-1.7,0.5-1.7,1.7c0,1.9,0,3.8,0,5.7c-0.1,0.8,0.4,1.5,1.2,1.6
				c0.1,0,0.3,0,0.4,0c1.9,0,3.9,0,5.8,0c0.8,0.1,1.5-0.4,1.6-1.2c0-0.1,0-0.2,0-0.3C56.2,54.7,56.2,53.7,56.2,52.7z"/>
		</g>
	</g>
</g>
<g id="圖層_2">
	<g>
		<g>
			<path class="st3" d="M12.3,75.7h10.8V65.5H12.3V75.7z M21.1,67.5v6.2h-6.8v-6.2H21.1z"/>
			<path class="st3" d="M85.2,2.6L85,2.4L52.5,32.5l-0.3,0.3V43h-49v55.8h67.9v-23c0-7.7,6.3-13.9,13.9-13.9S99,68.1,99,75.8v23
				h18.8v-66L85.2,2.6z M69.1,75.8v21H5.2V45h49V33.7L85,5.1l30.8,28.6v63.2H101v-21c0-8.8-7.2-16-16-16
				C76.2,59.9,69.1,67,69.1,75.8z"/>
			<path class="st3" d="M12.3,88.9h10.8V78.6H12.3V88.9z M21.1,80.6v6.2h-6.8v-6.2H21.1z"/>
			<path class="st3" d="M39.4,88.9h10.8V78.6H39.4V88.9z M48.2,80.6v6.2h-6.8v-6.2H48.2z"/>
			<path class="st3" d="M12.3,63.2h10.8V53H12.3V63.2z M21.1,55v6.2h-6.8V55H21.1z"/>
			<path class="st3" d="M39.4,75.7h10.8V65.5H39.4V75.7z M48.2,67.5v6.2h-6.8v-6.2H48.2z"/>
			<path class="st3" d="M25.9,75.7h10.8V65.5H25.9V75.7z M34.6,67.5v6.2h-6.8v-6.2H34.6z"/>
			<path class="st3" d="M39.4,63.2h10.8V53H39.4V63.2z M48.2,55v6.2h-6.8V55H48.2z"/>
			<path class="st3" d="M25.9,88.9h10.8V78.6H25.9V88.9z M34.6,80.6v6.2h-6.8v-6.2H34.6z"/>
			<path class="st3" d="M25.9,63.2h10.8V53H25.9V63.2z M34.6,55v6.2h-6.8V55H34.6z"/>
			<g>
				<path class="st3" d="M79.8,49.7h10.5v-9.1h9V30.1h-9V21H79.8v9.1h-9.2v10.5h9.2V49.7z"/>
			</g>
		</g>
	</g>
</g>
</svg>
