<svg xmlns="http://www.w3.org/2000/svg" width="369.801" height="390.981" viewBox="0 0 369.801 390.981">
  <g id="m6SbrF.tif" transform="matrix(0.934, -0.358, 0.358, 0.934, -162.825, 167.508)" opacity="0.11">
    <g id="Group_519" data-name="Group 519" transform="translate(161.995 -1.372)">
      <path id="Path_689" data-name="Path 689" d="M240.766,299.8c-1.4-.42-2.812-.8-4.2-1.265a24.742,24.742,0,0,1-10.73-39.975c4.657-5.211,9.879-9.916,14.688-15a6.575,6.575,0,0,0,1.7-4.07q.155-33.42.031-66.841a13.071,13.071,0,0,0-.825-3.406c-4.2,2.3-7.722,5-11.693,6.225-6.807,2.107-12.928-.137-17.591-5.453-4.76-5.426-5.847-11.81-3.014-18.465.978-2.3.5-3.421-1.071-4.982q-20.261-20.1-40.394-40.331c-7.552-7.558-7.565-16.023-.038-23.555q23.312-23.326,46.639-46.635c7.274-7.266,15.871-7.292,23.132-.045q20.515,20.474,40.975,41c1.223,1.229,2.117,1.8,4,.967a17.8,17.8,0,0,1,20.159,28.6c-.727.785-1.473,1.553-2.25,2.371,5.483,6.258,11.011,12,20.248,10.831,3.127-.395,6.269-.677,9.389-1.122,9.324-1.331,17.814.993,25.562,6.063,2.022,1.324,3.069,1.1,4.627-.561,3.638-3.882,7.678-7.4,11.221-11.357,5.943-6.643,13.229-11.057,21.482-14.151,9.123-3.419,18.185-7,27.269-10.519,3.486-1.351,6.777-1.322,9.588,1.463s2.913,6.069,1.56,9.566q-5.8,15.007-11.6,30.018a46.8,46.8,0,0,1-10.963,16.647c-8.831,8.737-17.581,17.553-26.361,26.339-.69.69-1.348,1.41-2.766,2.9,3.462,3.154,7.121,6.009,10.2,9.388a16.714,16.714,0,0,1-6.482,27.006,48.856,48.856,0,0,1-6.859,1.434c-.354,5.249-2.354,9.916-6.78,13.282-4.46,3.391-9.5,3.988-15.062,2.808-1.17,4.8-3.538,8.774-7.761,11.415a17.161,17.161,0,0,1-13.286,2.13c-4.123,15.788-20.736,18.111-29.875,8.445-.757.708-1.54,1.4-2.278,2.135-11.715,11.707-23.529,23.319-35.088,35.179-5.26,5.4-10.8,10.036-18.417,11.521ZM351.478,132.6c-1.022-.633-1.913-1.221-2.836-1.748-6.859-3.923-14.222-4.442-21.769-2.915-12.172,2.464-22.413-.585-30.548-10.155a23.214,23.214,0,0,0-2.076-2c-15.764,15.763-31.283,31.282-47.111,47.11,2.673,2.585,5.478,5.492,8.491,8.165a41.535,41.535,0,0,1,10.878,15.946,141.957,141.957,0,0,0,8.224,17.972c9.488,16.373,24.206,28.167,37.311,41.343,2.635,2.65,7.279,1.961,10-.629a7.859,7.859,0,0,0,1-10.245,19.3,19.3,0,0,0-2.157-2.424c-5.567-5.588-11.244-11.07-16.642-16.815a6.611,6.611,0,0,1-1.423-4.928,4.433,4.433,0,0,1,3.237-2.8,6.84,6.84,0,0,1,4.592,1.883c7.089,6.85,13.982,13.9,20.988,20.84,3.741,3.7,8.523,3.88,11.811.559,3.244-3.277,3.009-8.115-.658-11.839-4.221-4.284-8.5-8.511-12.751-12.766-4.112-4.113-8.363-8.1-12.241-12.428a6.156,6.156,0,0,1-1.12-4.977c.329-1.188,2.369-2.564,3.708-2.627,1.388-.064,3.116,1.075,4.229,2.165,8.1,7.935,16.073,16,24.1,24a66.643,66.643,0,0,0,5.971,5.721,7.836,7.836,0,0,0,12.526-4.594c.661-3.19-.622-5.723-2.868-7.959q-15.722-15.65-31.374-31.37c-.627-.628-1.291-1.226-1.853-1.907a4.468,4.468,0,0,1,.039-6.152,4.306,4.306,0,0,1,6.124-.14,20.132,20.132,0,0,1,1.485,1.441q15.792,15.789,31.588,31.575A18.417,18.417,0,0,0,373,202.252a7.461,7.461,0,0,0,8.117.412c2.728-1.466,4.558-3.922,3.99-6.976a13.429,13.429,0,0,0-3.266-6.6c-10.308-10.6-20.854-20.974-31.29-31.452-7.278-7.307-7.391-16.111-.37-23.566C350.585,133.647,350.957,133.2,351.478,132.6ZM274.143,85.559c-1.216-1.357-1.7-1.956-2.249-2.5q-20.277-20.292-40.567-40.568c-4.074-4.069-6.938-4.031-11.061.09q-23.009,23-46.009,46c-4.533,4.534-4.535,7.163,0,11.7q20.069,20.082,40.152,40.149c.594.594,1.264,1.111,1.817,1.592a2.747,2.747,0,0,0,.5-.235c1.688-1.653,3.357-3.326,5.06-4.962,2.41-2.314,4.807-2.516,6.774-.607s1.852,4.417-.431,6.77c-2.676,2.759-5.436,5.437-8.142,8.168-4.224,4.266-4.562,9.589-.872,13.4,3.744,3.861,9.287,3.6,13.6-.694q10.48-10.431,20.916-20.905,20.807-20.807,41.626-41.6c2.46-2.451,3.922-5.212,3.264-8.723a8.53,8.53,0,0,0-6.1-6.964c-3.784-1.207-6.947-.019-9.673,2.709q-18.914,18.935-37.848,37.849a13.278,13.278,0,0,1-2.416,2.152,4.352,4.352,0,0,1-5.985-6.031,12.081,12.081,0,0,1,1.96-2.193q16.406-16.425,32.847-32.813A15.314,15.314,0,0,1,274.143,85.559Zm-31.87,169.316c-3.2,3.106-6.781,6.209-9.92,9.707a15.861,15.861,0,0,0,21.974,22.724c3.7-3.191,6.806-7.066,9.937-10.376Zm9.108-23.044c6.032-6.028,12.049-12.042,18.169-18.159a50.675,50.675,0,0,1-2.811-4.763c-3.395-7.305-6.6-14.7-10.061-21.973a77.494,77.494,0,0,0-4.474-7.3l-.823.4Zm121.894-64.354c9.954-9.925,19.809-19.752,29.454-29.37-2.27-2.359-4.783-4.968-7.081-7.354l-29.476,29.479Zm-14.46-13.98,29.541-29.508-7.287-7.714c-8.526,8.381-17.082,16.658-25.46,25.112-2.445,2.466-2.235,5.916-.013,8.614C356.652,151.286,357.849,152.456,358.815,153.5Zm-102.9,88.12-6.457,6.057L271.4,269.807l6.45-6.205Zm153.431-110.9c1.35-3.328,2.825-6.721,4.054-10.2a3.055,3.055,0,0,0-.822-2.482c-3.68-3.823-7.454-7.556-11.246-11.27-.508-.5-1.449-1.163-1.918-.994-3.707,1.33-7.349,2.845-10.7,4.18ZM262.353,234.952l7.4,7.574c4.278-4.271,8.5-8.489,12.833-12.812l-7.137-7.95Zm21.408,21.271,12.481-11.653-7.159-7.374-12.249,12.262Zm138.9-159.557-12.613,4.9,7.664,7.94Z" transform="translate(-161.995 3.127)" fill="#2a2968"/>
      <path id="Path_690" data-name="Path 690" d="M450.763,59.015c-12,0-23.433,0-34.865,0-11,0-16.615-5.574-16.619-16.487q0-15.677,0-31.354V7.523h-3.685q-66.553,0-133.1.005c-9.6,0-15.4,5.812-15.495,15.478-.022,2.267.056,4.537-.027,6.8-.121,3.315-1.773,5.092-4.537,5.037-2.657-.053-4.29-1.765-4.269-4.947.028-4.327-.253-8.763.58-12.958,2.179-10.98,11.569-18.262,23.021-18.276q46.291-.065,92.582-.016c13.9,0,27.8.049,41.706-.021A21.673,21.673,0,0,1,412.22,5.3Q432.563,25.743,453,46.086a21.769,21.769,0,0,1,6.658,16.173q-.059,97.019-.031,194.035c0,12.812-8.739,21.583-21.527,21.589q-70.84.033-141.682.005a9.745,9.745,0,0,1-2.354-.121,4.4,4.4,0,0,1,.256-8.672,17.512,17.512,0,0,1,2.952-.074q69.806,0,139.612,0c9.516,0,13.873-4.369,13.873-13.915q0-95.835,0-191.67Zm-7.413-8.874L408.184,14.983c0,9.743-.08,19.865.049,29.984.04,3.107,2.427,5.083,5.743,5.147,4.334.084,8.671.025,13.007.026C432.557,50.142,438.132,50.141,443.35,50.141Z" transform="translate(-157.813 1.372)" fill="#2a2968"/>
      <path id="Path_691" data-name="Path 691" d="M331.168,56.333q-18.618,0-37.235,0a13.28,13.28,0,0,1-2.652-.088,4.148,4.148,0,0,1-3.694-4.291c-.034-2.426,1.332-3.826,3.591-4.39a8.674,8.674,0,0,1,2.059-.1q37.974-.006,75.95,0c.393,0,.789-.016,1.182.008,2.748.175,4.619,1.942,4.649,4.379a4.434,4.434,0,0,1-4.545,4.455c-1.965.1-3.939.031-5.91.031Q347.865,56.335,331.168,56.333Z" transform="translate(-155.098 4.054)" fill="#2a2968"/>
      <path id="Path_692" data-name="Path 692" d="M331.331,25.324q18.465,0,36.929,0a21.6,21.6,0,0,1,2.947.114,4.013,4.013,0,0,1,3.746,4.214,4.044,4.044,0,0,1-3.6,4.356,14.452,14.452,0,0,1-2.645.178q-37.52.013-75.04,0a14.61,14.61,0,0,1-2.062-.1c-2.649-.383-4.175-2.091-4.018-4.574a4.029,4.029,0,0,1,4.154-4.123c2.256-.139,4.528-.07,6.793-.071Q314.934,25.318,331.331,25.324Z" transform="translate(-155.098 2.838)" fill="#2a2968"/>
      <path id="Path_693" data-name="Path 693" d="M238.818,243.2l21.991,22.055c-3.131,3.31-6.239,7.185-9.937,10.376A15.861,15.861,0,0,1,228.9,252.906C232.037,249.408,235.617,246.3,238.818,243.2Z" transform="translate(-158.54 14.803)" fill="#d2ebf7"/>
      <path id="Path_694" data-name="Path 694" d="M362.646,162.263l-7.1-7.245,29.476-29.479c2.3,2.386,4.81,5,7.081,7.354C382.455,142.51,372.6,152.338,362.646,162.263Z" transform="translate(-151.366 8.342)" fill="#d2ebf7"/>
      <path id="Path_695" data-name="Path 695" d="M348.827,149.037c-.966-1.041-2.163-2.211-3.22-3.495-2.223-2.7-2.433-6.148.013-8.614,8.378-8.454,16.935-16.731,25.46-25.112l7.287,7.714Z" transform="translate(-152.007 7.588)" fill="#d2ebf7"/>
      <path id="Path_696" data-name="Path 696" d="M251.362,230.632l21.93,21.984-6.45,6.205-21.937-22.132Z" transform="translate(-157.442 14.113)" fill="#d2ebf7"/>
      <path id="Path_697" data-name="Path 697" d="M397.544,126.8l-20.632-20.767c3.351-1.334,6.993-2.849,10.7-4.18.468-.169,1.409.5,1.918.994,3.792,3.713,7.567,7.447,11.246,11.27a3.055,3.055,0,0,1,.822,2.482C400.369,120.08,398.894,123.473,397.544,126.8Z" transform="translate(-150.192 7.04)" fill="#d2ebf7"/>
      <path id="Path_698" data-name="Path 698" d="M257.129,225l13.095-13.188,7.137,7.95c-4.331,4.323-8.555,8.541-12.833,12.812Z" transform="translate(-156.77 13.08)" fill="#d2ebf7"/>
      <path id="Path_699" data-name="Path 699" d="M277.784,245.467l-6.927-6.764,12.249-12.262,7.159,7.374Z" transform="translate(-156.016 13.883)" fill="#d2ebf7"/>
      <path id="Path_700" data-name="Path 700" d="M409.75,93.226,404.8,106.063l-7.664-7.94Z" transform="translate(-149.082 6.567)" fill="#d2ebf7"/>
    </g>
  </g>
</svg>
