<?xml version="1.0" encoding="utf-8"?>
<!-- Generator: Adobe Illustrator 26.0.2, SVG Export Plug-In . SVG Version: 6.00 Build 0)  -->
<svg version="1.1" xmlns="http://www.w3.org/2000/svg" xmlns:xlink="http://www.w3.org/1999/xlink" x="0px" y="0px"
	 viewBox="0 0 342.8 358.5" style="enable-background:new 0 0 342.8 358.5;" xml:space="preserve">
<style type="text/css">
	.st0{display:none;}
	.st1{display:inline;}
	.st2{fill:#E5E5EF;}
	.st3{fill:none;stroke:#FFFFFF;stroke-width:3;stroke-miterlimit:10;}
	.st4{fill:#FFFFFF;stroke:#EB9000;stroke-width:1.3794;stroke-miterlimit:10;}
	.st5{fill:#FFFFFF;}
</style>
<g id="圖層_1" class="st0">
	<g id="SWoI2k.tif" transform="matrix(0.809, 0.588, -0.588, 0.809, 725.395, 777.561)" class="st1">
		<g id="Group_371" transform="translate(-914.728 -296.529)">
			<path id="Path_533" class="st2" d="M0,145.4c2.7-3.3,4.4-3.5,7.7-0.7c28.3,24.1,56.7,48.2,85,72.4c2.8,2.4,2.8,2.4,5.2-0.4
				c3.4-4,6.8-8.1,10.4-12.1c1.5-1.7,1.5-2.8-0.3-4.3c-9.6-8.1-19.1-16.3-28.7-24.4c-0.9-0.7-1.8-1.5-2.6-2.3
				c-2.1-1.9-2.3-4-0.8-5.8s3.9-1.9,6.1-0.1c4.9,4.2,9.8,8.4,14.7,12.6c3.2,2.7,6.3,5.4,9.7,8.3c0.8-0.9,1.5-1.8,2.2-2.6
				c20.6-22.8,45.9-31.1,75.8-24.2c11.1,2.6,20.8,1,29.6-6.3c4.2-3.4,3.7-7-1.2-9.5c-16.2-8.1-32.3-16.3-48.5-24.4
				c-7.5-3.8-10.9-11.6-8.4-19.1c1.6-4.9,5.5-8.7,10.5-9.9c14.9-4.3,29.8-8.7,44.8-12.9c6.6-1.9,11.6-5.4,14.6-11.6
				c0.9-1.9,1-3.2-1.2-4.2c-1.7-0.9-3.4-1.8-5-3c-2.3-1.7-5.1-2.4-7.9-2.1c-5.5,0.6-10.8-3.1-12.9-8.3c-0.3-0.8-0.6-1.6-1-2.8
				c-4.7,0.7-9.4,1.5-14.1,2c-5.7,0.6-11.4,1.6-17.1,1.3c-6.5-0.3-11.7-3.9-15.3-9.3c-3.9-5.8-9.1-8.2-16-7.7
				c-15.9,1.3-31.9,2.3-47.9,3.6c-3.4,0.3-5.9-0.4-8-3.3c-4.5-5.9-9.8-10.9-17-13.5c-2-0.6-3.2-2.8-2.5-4.8c0-0.1,0.1-0.3,0.1-0.4
				c0.8-2,3.1-3,5.1-2.2c0,0,0.1,0,0.1,0.1C72,15.8,77.9,20,82.3,25.6c2.3,3,4.7,4.1,8.6,3.7c14-1.3,28-2,42-3.2
				c10.5-0.9,18.8,2.1,24.9,11.1c3.4,5,8.6,6.9,14.6,6c8.9-1.3,17.9-2.4,26.7-4c2.9-0.5,5.5-2.2,8.3-3.4c3.2-1.3,6.2-3.2,9.5-3.8
				c8.5-1.8,16.7,3.7,18.5,12.1c0.2,0.9,0.3,1.9,0.3,2.8c0.2,5.7,0,11.5-0.9,17.2c-1.7,11.4-8.5,18.9-19.4,22.3
				c-15.5,4.8-31.2,9.1-46.7,13.7c-6,1.8-7.7,7.4-3.7,12.3c6.9-4.8,14.7-5.4,22.8-4.3c2.8,0.4,4.5,2.1,4.3,4.4
				c-0.2,2.5-2.3,3.9-5.2,3.5c-4.5-0.6-8.9-0.7-13.7,0.9c0.9,0.6,1.4,1,2,1.3c10.4,5.2,20.8,10.5,31.3,15.6c1.2,0.5,2.6,0.5,3.8,0
				c5.3-2.7,9.3-6.7,10.8-12.7c0.2-0.6,0.3-1.2,0.3-1.8c-0.3-1.7-0.7-3.3-1.1-5c-1.3,0.6-2.6,1.2-3.9,1.7c-3.1,1.1-6.3,2.1-9.5,2.8
				c-2,0.4-4-0.9-4.4-2.9c0-0.2-0.1-0.4-0.1-0.6c-0.2-2.2,1.3-3.7,3.7-4.4c2.9-0.8,5.8-1.9,8.5-3.3c5.9-3.4,12.9-0.6,14.3,6
				c2,9.8-2,17.4-9.2,23.6c-0.4,0.3-0.8,0.6-1.3,1c-0.3,0.3-0.7,0.6-1.1,0.9c0.5,0.3,0.9,0.6,1.4,0.9c6.9,4.8,7.8,14.1,1.6,19.9
				c-10.1,9.6-22.2,13.1-35.7,9.6c-21.8-5.5-41.7-2.1-59.7,11.4c-4.7,3.5-8.6,8-13,12.1c1.5,1.4,2.5,2.3,3.3,3.3
				c2.9,3.5,2.8,8.6-0.2,11.9c-4.2,5-8.4,10-12.7,14.9c-3.6,4.1-7.9,4.2-13.1,1.6c-2.2,7.1-4.7,13.8-6.5,20.8
				c-1.8,7-3,14.1-4.4,21.2c-0.7,3.7-3.1,5.4-5.8,4.1c-2.1-1-2.5-2.8-2.2-4.9c2.4-15.1,5.7-30,12-44.1c0.9-2,0.6-3-1-4.4
				c-26-22.1-52-44.2-78-66.3c-1.3-1.1-2.4-2.4-3.5-3.5L0,145.4z M227.7,56.3c0.1-3,0.4-5.6,0.4-8.2c0-6.5-5.9-10.2-11.8-7.6
				c-2.7,1.2-5.3,2.5-7.9,3.7c-3,1.4-3.3,3.4-0.5,5.3c1.3,0.8,2.9,1.3,4.4,1.1c3.3-0.3,6.6,0.4,9.4,2.1
				C223.5,53.8,225.4,54.9,227.7,56.3L227.7,56.3z"/>
			<path id="Path_534" class="st2" d="M30.2,0c5.6,2.4,11.3,4.8,16.9,7.3c2.7,1.2,3.6,3.6,2.5,5.8c-1.1,2.1-3.3,2.6-6,1.3
				c-2.6-1.3-5.2-2.7-7.8-4c-8.1-4.2-18-2.7-24.5,3.7c-2.3,2.3-2.6,5.2-0.7,8.5C17.4,33.9,24.2,45.3,31,56.6c1.8,3,3.6,6.1,5.4,9.1
				c3,5.6,8.9,9,15.3,8.8c1.1,0,2.1,0,3.2,0.1c2,0,3.7,1.6,3.7,3.6c0,0,0,0.1,0,0.1c0.2,2-1.3,3.8-3.3,4c-0.1,0-0.2,0-0.3,0
				c-9.5,0.7-17.6-2.1-23.5-9.9c-0.5-0.6-0.9-1.2-1.6-2.2L9.2,105.4c4,3.4,7.9,6.8,11.9,10.2c15,12.9,30.1,25.7,45.2,38.5
				c1.7,1.4,2.9,2.9,2.3,5.2c-0.8,2.9-4.2,3.6-6.8,1.4c-6.6-5.5-13.1-11.1-19.6-16.7C28.8,132.7,15.5,121.3,2.2,110
				c-0.8-0.7-1.5-1.5-2.2-2.3l0-2.7c0.5-0.7,1-1.4,1.5-2.2C8.9,90,16.4,77.2,24,64.5c0.9-1.3,0.9-3-0.1-4.3
				C17.1,48.9,10.3,37.5,3.6,26.1c-4-6.8-2.4-14.2,3.8-19.1c4.4-3.4,9.5-5.7,14.9-6.9L30.2,0z"/>
			<path id="Path_535" class="st2" d="M59.1,64.7c-9.3,0.6-16.1-3.6-20.7-12.1c-4.5-8.4-9.6-16.5-14.2-24.8
				c-0.8-1.5-0.9-3.3-0.3-4.9c1.3-2.8,5.1-2.4,6.9,0.7c4.8,8.1,9.5,16.3,14.2,24.5c0.6,1,1.1,2,1.7,3c2.1,3.5,5.8,5.6,9.9,5.6
				c2.3,0.1,4.6,0,6.9,0c2.2-0.1,4.1,1.6,4.2,3.8c0,0,0,0,0,0.1c0,2.2-1.8,4-4.1,4c0,0,0,0,0,0C62.3,64.8,60.9,64.7,59.1,64.7z"/>
			<path id="Path_536" class="st2" d="M254.1,104.3c4.2,0,8.5,0,12.7,0c3,0,4.9,1.6,4.8,4.1c-0.1,2.4-1.8,3.9-4.8,3.9
				c-8.5,0-16.9,0-25.4,0c-2.9,0-4.7-1.6-4.7-4s1.8-3.9,4.6-4C245.6,104.3,249.9,104.3,254.1,104.3z"/>
			<path id="Path_537" class="st2" d="M260.8,82.2c-0.5,0.6-1.2,2.1-2.4,2.7c-5.2,2.8-10.5,5.4-15.8,8c-1.9,1.1-4.3,0.4-5.3-1.5
				c0-0.1-0.1-0.1-0.1-0.2c-1-1.9-0.3-4.2,1.6-5.2c0.1-0.1,0.2-0.1,0.3-0.1c5.2-2.7,10.5-5.4,15.9-7.9
				C257.9,76.6,260.9,78.5,260.8,82.2z"/>
			<path id="Path_538" class="st2" d="M240.7,123.6c0.7,0.2,1.3,0.4,2,0.6c5.1,2.4,10.3,4.7,15.4,7.2c2.5,1.2,3.3,3.2,2.4,5.4
				s-3.1,2.9-5.6,1.8c-5.2-2.4-10.4-4.8-15.6-7.2c-1.9-0.9-3.1-2.5-2.3-4.5c0.6-1.4,2-2.5,3.1-3.7L240.7,123.6z"/>
			<path id="Path_539" class="st2" d="M141,58.1c-3.1,0.1-8.6-7.5-7.7-10.4c0.8-2.6,4.3-3.8,6.2-1.8c1.9,2,3.6,4.3,5,6.8
				C145.8,55.1,143.8,58,141,58.1z"/>
		</g>
	</g>
</g>
<g id="圖層_2">
	<g>
		<g>
			<path class="st3" d="M267.4,267.2L115.8,238c-2.8-0.5-4.6-3.2-4-6l40.9-211.5c0.5-2.8,3.2-4.6,6-4l151.5,29.3
				c2.8,0.5,4.6,3.2,4,6l-40.9,211.5C272.8,266,270.1,267.8,267.4,267.2z"/>
		</g>
		<g>
			
				<rect x="142.3" y="42" transform="matrix(0.9818 0.1898 -0.1898 0.9818 30.7861 -37.8354)" class="st3" width="141.4" height="199.5"/>
		</g>
		<path class="st4" d="M263.8,28.7l-16.2-3.1c0.2-5.9-3.8-11.2-9.7-12.4c-5.9-1.1-11.7,2.3-13.7,7.8L208,17.9
			c-4.4-0.9-8.5,2.6-8.4,7.1l0.3,14c0.1,3.3,2.5,6.1,5.7,6.8l50,9.7c3.3,0.6,6.5-1.1,7.8-4.1l5.5-12.9
			C270.8,34.3,268.3,29.6,263.8,28.7z"/>
		<g>
			
				<rect x="161.6" y="116.5" transform="matrix(0.9818 0.1898 -0.1898 0.9818 26.9727 -38.9702)" class="st5" width="110.7" height="9.7"/>
		</g>
		<g>
			
				<rect x="168.5" y="76.9" transform="matrix(0.9818 0.1898 -0.1898 0.9818 18.8747 -33.5757)" class="st5" width="32.4" height="9.7"/>
		</g>
		<g>
			<polygon class="st5" points="278.6,94.2 268.3,92.2 270.3,81.9 264.5,80.8 262.5,91.1 252.1,89.1 251,94.9 261.3,96.9 
				259.4,107.2 265.1,108.3 267.1,98 277.5,100 			"/>
		</g>
		<g>
			
				<rect x="156.5" y="143" transform="matrix(0.9818 0.1898 -0.1898 0.9818 31.9144 -37.5148)" class="st5" width="110.7" height="9.7"/>
		</g>
		<g>
			
				<rect x="151.3" y="169.6" transform="matrix(0.9818 0.1898 -0.1898 0.9818 36.8556 -36.0589)" class="st5" width="110.7" height="9.7"/>
		</g>
		<g>
			
				<rect x="146.2" y="196.1" transform="matrix(0.9818 0.1898 -0.1898 0.9818 41.7971 -34.6034)" class="st5" width="110.7" height="9.7"/>
		</g>
	</g>
</g>
</svg>
