<svg xmlns="http://www.w3.org/2000/svg" width="319.604" height="319.511" viewBox="0 0 319.604 319.511">
  <g id="QxyKxG.tif" transform="translate(-493.722 -53.25) rotate(11)" opacity="0.11">
    <g id="Group_520" data-name="Group 520" transform="translate(545.852 -51.856)">
      <path id="Path_701" data-name="Path 701" d="M545.852,134.938c.5-2.409.948-4.831,1.514-7.225a46.75,46.75,0,0,1,9.745-19.58q51.712-61.51,103.516-122.945c4.986-5.915,12.394-6.2,17.992-.887,5.04,4.778,5.384,11.07.72,16.642-6.205,7.414-12.527,14.729-18.8,22.086Q634.722,53.3,608.864,83.53c-.908,1.06-2.4,2.28-3.593,2.26a4.785,4.785,0,0,1-3.719-2.255,5.348,5.348,0,0,1,.85-4.49c5.366-6.609,10.969-13.024,16.495-19.5q26.765-31.382,53.476-62.81a7.565,7.565,0,0,0,1.863-4.86c-.085-1.145-1.82-2.531-3.13-3.136-1.83-.843-3.353.332-4.58,1.8Q656.434,2.559,646.306,14.555q-40.533,48.141-81.1,96.25c-8.759,10.336-12.717,21.9-10.878,35.4,1.447,10.625,2.409,21.331,4.245,31.887,3.414,19.623,19.3,33.74,39.122,34.261,12.3.323,24.657-.382,36.944-1.251,11.029-.782,20.087-6.052,27.206-14.477q35.38-41.868,70.679-83.806,34.987-41.5,69.973-83.009c11.766-13.935,10.419-30.738-3.464-42.488-9.276-7.851-18.458-15.812-27.779-23.608-10.4-8.7-23.291-9.969-34.034-3.237a32.514,32.514,0,0,0-7.354,6.446Q681.712,23.605,633.688,80.4c-4.054,4.777-4.619,10.074-3.689,15.949,1.011,6.389,1.7,12.828,2.574,19.239a14.939,14.939,0,0,0,15.66,13.275c7.448-.19,14.893-.526,22.34-.772a14.675,14.675,0,0,0,11.141-5.393q29.49-34.828,58.925-69.7c2.241-2.655,2.206-4.943.036-6.705-2.153-1.748-4.347-1.332-6.63,1.316-2.2,2.553-4.33,5.168-6.553,7.7-1.972,2.246-4.04,2.465-6,.756-1.9-1.659-1.98-3.583-.123-5.832,2.428-2.941,4.876-5.869,7.4-8.728,4.562-5.168,11.392-5.6,16.864-1.143,5.45,4.442,6.415,11.322,1.934,16.714C736.4,70.508,725.061,83.8,713.785,97.152c-8.3,9.825-16.675,19.586-24.884,29.486-5.137,6.194-11.5,9.46-19.6,9.51-8.065.049-16.159.86-24.186.4-10.656-.617-18.987-8.994-20.43-19.527-1.083-7.9-2.134-15.815-3.01-23.743a22.462,22.462,0,0,1,5.537-17.5q48.453-57.3,96.975-114.54c13.225-15.55,35.158-17.475,51.021-4.555q15.676,12.768,30.82,26.189c15.143,13.375,16.623,35.36,3.572,50.88q-37.076,44.092-74.249,88.1Q701.9,161.527,668.456,201.2c-10.085,11.97-22.976,17.987-38.581,18.359-7.715.185-15.428.436-23.141.688a26.434,26.434,0,0,0-2.858.4h-7.453c-.686-.152-1.365-.356-2.059-.448-20.508-2.71-34.875-13.641-41.511-33.159-2.947-8.666-3.359-18.2-4.851-27.35-.794-4.865-1.438-9.755-2.15-14.633Z" transform="translate(-545.852 51.856)" fill="#2a2968"/>
      <path id="Path_702" data-name="Path 702" d="M649.68,112.618c6.878,0,13.421.054,19.961-.075.756-.014,1.63-.927,2.217-1.619Q689,90.74,706.1,70.525c.768-.9,1.925-2.147,2.841-2.1a7.071,7.071,0,0,1,4.3,1.8c1.482,1.47.73,3.3-.521,4.777q-7.55,8.949-15.111,17.889c-6.757,7.994-13.564,15.946-20.241,24.006a9.467,9.467,0,0,1-7.758,3.783c-6.65.052-13.3.418-19.947.642-4.545.153-7.02-1.78-7.667-6.3-1.053-7.371-2.152-14.746-2.775-22.158a9.215,9.215,0,0,1,2.185-5.953c15.068-18.041,30.288-35.956,45.47-53.9q24.752-29.253,49.488-58.519c3.6-4.273,7.7-7.528,13.388-8.436a18.718,18.718,0,0,1,15.478,4.011c10.578,8.78,21.125,17.609,31.4,26.739,7.956,7.068,8.453,18.742,1.476,27.092C785.652,38.8,773.087,53.614,760.567,68.467Q708.858,129.813,657.175,191.18a34.374,34.374,0,0,1-26.868,12.892c-9.312.191-18.621.538-27.928.905a33.188,33.188,0,0,1-34.813-29.457c-1.314-10.376-2.773-20.737-3.971-31.126a32.072,32.072,0,0,1,6.836-24.191c5.253-6.7,10.754-13.2,16.178-19.769,1.792-2.168,4.121-2.442,6.015-.826,1.874,1.6,2,3.565.156,5.842-4.4,5.45-8.69,11.011-13.368,16.219-6.7,7.461-9.123,15.886-7.507,25.785,1.484,9.094,2.423,18.275,3.646,27.412A25.058,25.058,0,0,0,601.508,197q14.9-.4,29.79-.973a25.573,25.573,0,0,0,19.4-9.577q49.788-59.136,99.631-118.225L791.149,19.8c5.558-6.594,5.086-13.012-1.407-18.55q-14.071-12-28.176-23.964c-6.177-5.236-13.038-4.742-18.237,1.4Q695.942,34.623,648.652,90.643a5.929,5.929,0,0,0-1.164,3.995C648.082,100.714,648.942,106.764,649.68,112.618Z" transform="translate(-546.849 50.853)" fill="#2a2968"/>
    </g>
  </g>
</svg>
