<?xml version="1.0" encoding="utf-8"?>
<!-- Generator: Adobe Illustrator 26.0.2, SVG Export Plug-In . SVG Version: 6.00 Build 0)  -->
<svg version="1.1" id="圖層_1" xmlns="http://www.w3.org/2000/svg" xmlns:xlink="http://www.w3.org/1999/xlink" x="0px" y="0px"
	 viewBox="0 0 300 215" style="enable-background:new 0 0 300 215;" xml:space="preserve">
<style type="text/css">
	.st0{display:none;}
	.st1{display:inline;fill:none;}
	.st2{fill:#D44345;}
	.st3{fill:#80440F;}
	.st4{fill:#F6CDAF;}
	.st5{fill:#E48017;}
	.st6{clip-path:url(#SVGID_00000044165122048521376240000000501557130377193134_);fill:#E2DAC8;}
	.st7{clip-path:url(#SVGID_00000044165122048521376240000000501557130377193134_);fill:#422208;}
	.st8{clip-path:url(#SVGID_00000044165122048521376240000000501557130377193134_);}
	.st9{fill:#A25B13;}
	.st10{clip-path:url(#SVGID_00000044165122048521376240000000501557130377193134_);fill:#80440F;}
	.st11{fill:#422208;}
	.st12{fill:#564729;}
	.st13{fill:#E2DAC8;}
</style>
<g id="圖層_1_00000059311200036412146150000002416351778243921829_" class="st0">
	<rect class="st1" width="300" height="215"/>
</g>
<g>
	<path class="st2" d="M32.2,48.5c-4.3-1.2-8.5-2.3-12.8-3.5c-1.2-0.3-2.5-0.7-3.8-0.5c-1.3,0.1-2.6,0.9-3,2.1
		c-0.6,1.7,1.2,3.7,3,3.3c0.8-0.2,1.4-0.7,2.2-0.8c0.7-0.1,1.5,0.1,2.2,0.4c4.2,1.4,9.3,2.1,12.7-0.7L32.2,48.5z"/>
	<path class="st3" d="M55.7,108.1c-3.7,5.7-11.1,7.8-17.8,8.3c-3.4,0.2-7.2,0.3-9.9,2.4c-2.6,2-3.7,5.4-4,8.7
		c-0.1,1.4-0.1,2.8,0.4,4.1c0.6,1.3,1.8,2.4,3.2,2.4c2.6,0,3.8-3.2,5.4-5.3c2.1-2.6,5.7-3.5,9-3.5c3.3,0,6.7,0.6,10,0.5
		c6.6-0.3,12.9-4,16.4-9.6L55.7,108.1z"/>
	<path class="st3" d="M120.8,115.4c1.8,6.4,6.3,12.1,12.2,15.2c2.5,1.3,5.4,2.4,6.5,5c0.5,1.2,0.5,2.6,0.4,3.9
		c-0.1,3.5-0.3,7.2-2.5,10c-2.1,2.5-5.4,3.6-7.7,5.9c-0.3,0.3-0.6,0.7-0.7,1.1c-0.2,0.9,0.6,1.6,1.4,2.1c3.4,1.9,7.8,0.9,10.8-1.5
		c3.1-2.4,5-5.9,6.6-9.4c3.5-7.5,5.9-15.4,7.2-23.6c0.1-0.4,0.1-0.9-0.1-1.3c-0.3-0.5-0.8-0.7-1.4-0.8c-10.7-3.2-20.8-8.2-29.8-14.9
		L120.8,115.4z"/>
	<path class="st3" d="M43.5,30.4c1.4-3.1,2.9-6.3,4.3-9.4c0.1-0.3,0.3-0.6,0.5-0.8c0.9-0.6,1.9,0.6,2.3,1.7
		c1.3,3.9,1.8,7.9,2.4,11.9c-3.2,0.1-6.4-0.5-9.3-1.7L43.5,30.4z"/>
	<path class="st4" d="M54.1,110c3.6-7,10.9-11.4,18.4-13.8c7.5-2.5,15.4-3.4,23-5.7c0.9-0.3,1.8-0.6,2.6-1.1
		c0.9-0.7,1.5-1.6,2.1-2.6c2.6-4.1,5.2-8.3,7.8-12.4c5.4,2.6,10.8,5.1,16.2,7.7c-2.4,4.8-4.8,9.6-7.1,14.4c-0.8,1.7-1.7,3.4-3.1,4.8
		c-1.7,1.6-3.9,2.4-6.1,3.2c-15.5,5.4-31.6,9.3-47.8,11.6L54.1,110z"/>
	<path class="st5" d="M135.8,69.8c-5,0.9-9.6,3-14.5,4.2c-18.9,4.6-39.2-5.9-50.6-21.7c-3.1-4.3-5.8-9.1-6.6-14.3
		c-0.8-4.9-0.2-10.4-3.2-14.3c-3.1,0.4-3.6,5.2-6.5,6.3c-1.9,0.7-4-0.5-6-1c-9.1-2-17.6,11.9-26.2,4.2c-1.2-1.1-2.9-1.5-4.5-0.9
		c-3.4,1.3-1.9,5.5,0.2,7.8c3.9,4.2,8.9,7.4,14.3,9c-4.7,0.3-9.4,0.1-14.1-0.7c2.6,4,6.8,6.9,11.5,7.9c1.3,0.3,2.6,0.4,3.7,1.2
		c1.4,1.1,1.8,3,2.1,4.7c1.1,6.3,2.2,12.5,3.3,18.8c1.4,8.1,2.9,16.5,7,23.7c2.3,4.1,5.5,7.8,9.2,10.7c3.5,2.8,7.5,5.1,10.4,8.5
		C69.7,129,71,136,72,142.7c0.4,2.3,0.7,5-0.9,6.7c-1.2,1.3-3.3,1.8-3.5,4.2c-0.1,1.6,0.9,3.2,2.4,3.8c2.9,1.2,6-0.8,7.4-3.3
		c1.3-2.3,1.5-4.9,1.8-7.5c0.7-7.2,1.4-14.3,2.2-21.5c4.8,1.7,9.8,3.4,14.9,2.9c10.7-1.1,19.2-11.7,29.8-10.7
		c11.2,1,18,14.4,29.1,16.1c0.2,4.2,0.4,8.4-0.5,12.4c-0.9,4.1-3.1,8-6.8,10.1c-1,0.5-2.1,1-2.2,2.3c-0.2,1.1,0.5,2.1,1.5,2.6
		c1.7,0.8,3.5,0.2,5.1-0.6c9.4-4.8,14.2-15.6,15.4-26.1c0.3-2.9,0.4-5.8-0.4-8.6c-1-3.4-3.3-6.2-4.9-9.3c-4.6-9.7-1.2-21.5-3.8-32
		c4.8-2.6,10.5-12.4,11.9-17.7c4.8-17.4-13.8-22.8-17.9-27.6c-1-1.1-2.2-2.4-3.8-1.8c-0.8,0.3-1.4,1.1-1.5,2
		c-0.3,1.8,0.7,3.3,1.7,4.7c-3.5-2-7.8-2.6-11.8-1.9c-2.2,0.4-4.6,1.5-5.3,3.6c-0.8,2.1,1.4,5,3.5,4c-2.3,0.3-4.6,0.5-6.6,1.7
		c-2,1.1-3.6,3.4-3.2,5.6c0.4,2.3,3.3,3.9,5.1,2.6c-1.1,1.7-2.1,3.9-0.6,5.6c0.9,1,2.4,1.1,3.6,0.7c2.6-1,3.6-3.6,5.2-5.6
		c3-3.8,8.7-5.5,12.9-3.2c4.2,2.3,8.4,13.8,4.9,17l-6.2-1l-2.1-0.8C144.5,70.3,140.2,69.6,135.8,69.8L135.8,69.8z"/>
	<g>
		<defs>
			<path id="SVGID_1_" d="M135.8,69.8c-5,0.9-9.6,3-14.5,4.2c-18.9,4.6-39.2-5.9-50.6-21.7c-3.1-4.3-5.8-9.1-6.6-14.3
				c-0.8-4.9-0.2-10.4-3.2-14.3c-3.1,0.4-3.6,5.2-6.5,6.3c-1.9,0.7-4-0.5-6-1c-9.1-2-17.6,11.9-26.2,4.2c-1.2-1.1-2.9-1.5-4.5-0.9
				c-3.4,1.3-1.9,5.5,0.2,7.8c3.9,4.2,8.9,7.4,14.3,9c-4.7,0.3-9.4,0.1-14.1-0.7c2.6,4,6.8,6.9,11.5,7.9c1.3,0.3,2.6,0.4,3.7,1.2
				c1.4,1.1,1.8,3,2.1,4.7c1.1,6.3,2.2,12.5,3.3,18.8c1.4,8.1,2.9,16.5,7,23.7c2.3,4.1,5.5,7.8,9.2,10.7c3.5,2.8,7.5,5.1,10.4,8.5
				C69.7,129,71,136,72,142.7c0.4,2.3,0.7,5-0.9,6.7c-1.2,1.3-3.3,1.8-3.5,4.2c-0.1,1.6,0.9,3.2,2.4,3.8c2.9,1.2,6-0.8,7.4-3.3
				c1.3-2.3,1.5-4.9,1.8-7.5c0.7-7.2,1.4-14.3,2.2-21.5c4.8,1.7,9.8,3.4,14.9,2.9c10.7-1.1,19.2-11.7,29.8-10.7
				c11.2,1,18,14.4,29.1,16.1c0.2,4.2,0.4,8.4-0.5,12.4c-0.9,4.1-3.1,8-6.8,10.1c-1,0.5-2.1,1-2.2,2.3c-0.2,1.1,0.5,2.1,1.5,2.6
				c1.7,0.8,3.5,0.2,5.1-0.6c9.4-4.8,14.2-15.6,15.4-26.1c0.3-2.9,0.4-5.8-0.4-8.6c-1-3.4-3.3-6.2-4.9-9.3c-4.6-9.7-1.2-21.5-3.8-32
				c4.8-2.6,10.5-12.4,11.9-17.7c4.8-17.4-13.8-22.8-17.9-27.6c-1-1.1-2.2-2.4-3.8-1.8c-0.8,0.3-1.4,1.1-1.5,2
				c-0.3,1.8,0.7,3.3,1.7,4.7c-3.5-2-7.8-2.6-11.8-1.9c-2.2,0.4-4.6,1.5-5.3,3.6c-0.8,2.1,1.4,5,3.5,4c-2.3,0.3-4.6,0.5-6.6,1.7
				c-2,1.1-3.6,3.4-3.2,5.6c0.4,2.3,3.3,3.9,5.1,2.6c-1.1,1.7-2.1,3.9-0.6,5.6c0.9,1,2.4,1.1,3.6,0.7c2.6-1,3.6-3.6,5.2-5.6
				c3-3.8,8.7-5.5,12.9-3.2c4.2,2.3,8.4,13.8,4.9,17l-6.2-1l-2.1-0.8C144.5,70.3,140.2,69.6,135.8,69.8L135.8,69.8z"/>
		</defs>
		<clipPath id="SVGID_00000042708213572542360170000000819727486838024862_">
			<use xlink:href="#SVGID_1_"  style="overflow:visible;"/>
		</clipPath>
		<path style="clip-path:url(#SVGID_00000042708213572542360170000000819727486838024862_);fill:#E2DAC8;" d="M29.3,31.7
			c1,2.4,0.8,5.3-0.4,7.7c-1.1,2.4-3.1,4.3-5.3,5.8c-0.4,0.3-0.8,0.5-1.3,0.6c-0.8,0.1-1.6-0.3-2.3-0.7c-3.9-2.2-8.3-5-9-9.4
			c-0.4-2.5,0.5-5.1,1.9-7.2c1.4-2.1,3.4-3.8,5.3-5.5c1.9-1.7,4-3.4,6.5-3.7L29.3,31.7z"/>
		<path style="clip-path:url(#SVGID_00000042708213572542360170000000819727486838024862_);fill:#422208;" d="M13.5,35.1
			c2.4,0.8,5,1.6,7.5,1c2.5-0.6,4.7-3.1,4-5.6c-0.4-1.5-1.8-2.5-3.3-2.8c-1.5-0.3-3-0.1-4.5,0.5c-1.9,0.7-3.7,1.8-5.1,3.3L13.5,35.1
			z"/>
		<g style="clip-path:url(#SVGID_00000042708213572542360170000000819727486838024862_);">
			<path class="st9" d="M82.5,127.9c2.4-10.6-3.5-20.5-5.1-30.7c-0.1-0.8-1.3-0.4-1.2,0.3c1.6,10,7.5,19.8,5.1,30.1
				C81.2,128.4,82.3,128.7,82.5,127.9L82.5,127.9z"/>
		</g>
		<g style="clip-path:url(#SVGID_00000042708213572542360170000000819727486838024862_);">
			<path class="st9" d="M131.6,120.1c-6.7-5.6-9.8-14.8-7.6-23.3c0.6-2.5,1.7-4.8,3-6.9c0.4-0.7-0.6-1.3-1-0.6
				c-5.1,7.8-5.2,18.1-0.2,26c1.3,2.1,3,4,4.9,5.7C131.3,121.4,132.2,120.6,131.6,120.1L131.6,120.1z"/>
		</g>
		<g style="clip-path:url(#SVGID_00000042708213572542360170000000819727486838024862_);">
			<path class="st9" d="M149.3,156.1c-2.1,0.7-3.5,3-3,5.1c0.1,0.3,0.4,0.5,0.7,0.4c0.3-0.1,0.5-0.4,0.4-0.7c0-0.1,0-0.1,0-0.2
				c0-0.1,0,0,0,0c0-0.1,0-0.2,0-0.3c0-0.1,0-0.2,0-0.3c0,0,0-0.1,0,0c0-0.1,0-0.1,0-0.2c0-0.2,0.1-0.4,0.2-0.6c0,0,0-0.1,0-0.1
				c0-0.1,0-0.1,0.1-0.2c0-0.1,0.1-0.2,0.2-0.3c0.1-0.1,0.1-0.2,0.2-0.3c0,0,0.1-0.1,0.1-0.1c0,0,0.1-0.1,0.1-0.1
				c0.1-0.2,0.3-0.3,0.5-0.5c0,0,0.1-0.1,0.1-0.1c0,0,0.1-0.1,0.1-0.1c0.1-0.1,0.2-0.1,0.3-0.2c0.1,0,0.2-0.1,0.3-0.1
				c-0.1,0,0.1,0,0.1,0c0.1,0,0.1,0,0.2-0.1c0.3-0.1,0.5-0.4,0.4-0.7C150,156.2,149.7,156,149.3,156.1L149.3,156.1z"/>
		</g>
		<g style="clip-path:url(#SVGID_00000042708213572542360170000000819727486838024862_);">
			<path class="st9" d="M151.7,156.8c-1.6,1.5-2.3,3.7-1.9,5.8c0.1,0.3,0.4,0.5,0.7,0.4c0.3-0.1,0.5-0.4,0.4-0.7
				c-0.3-1.7,0.3-3.4,1.6-4.6C153.1,157.1,152.3,156.2,151.7,156.8L151.7,156.8z"/>
		</g>
		<g style="clip-path:url(#SVGID_00000042708213572542360170000000819727486838024862_);">
			<path class="st9" d="M71.2,151c-1.8,1.2-2.8,3.4-2.4,5.5c0.1,0.3,0.4,0.5,0.7,0.4c0.3-0.1,0.5-0.4,0.4-0.7
				c-0.1-0.7,0-1.6,0.3-2.3c0.3-0.8,0.9-1.4,1.5-1.8c0.3-0.2,0.4-0.5,0.2-0.8C71.9,150.9,71.5,150.8,71.2,151L71.2,151z"/>
		</g>
		<g style="clip-path:url(#SVGID_00000042708213572542360170000000819727486838024862_);">
			<path class="st9" d="M72.8,152.6c-0.9,1.8-1.1,3.8-0.5,5.7c0.2,0.7,1.4,0.4,1.2-0.3c-0.4-1.6-0.3-3.3,0.4-4.7
				c0.1-0.3,0.1-0.7-0.2-0.8C73.3,152.2,72.9,152.3,72.8,152.6L72.8,152.6z"/>
		</g>
		<path style="clip-path:url(#SVGID_00000042708213572542360170000000819727486838024862_);fill:#E2DAC8;" d="M75.4,36.7
			c-4.9,10.6-9.6,22.3-6.7,33.6c1.5,5.9,6.1,11.8,12.2,11.8c7,0,13.6-7.7,19.9-4.7c3.1,1.5,4.6,5,6.7,7.7c3.5,4.4,10,6.6,14.9,3.9
			c3.5-1.9,5.8-6,9.7-6.9c3.2-0.8,6.8,0.7,9.6-0.9c2.6-1.4,3.4-5.1,2.4-7.9c-1-2.8-3.4-5-5.9-6.7c-7.7-5.3-17-7.5-25.6-11
			C104,52.2,95.3,46.7,92,38c-0.8-2.1-1.2-4.5-0.3-6.5L75.4,36.7z"/>
		<g style="clip-path:url(#SVGID_00000042708213572542360170000000819727486838024862_);">
			<path class="st9" d="M86,122.3c2.6,2.4,6.2,3.7,9.8,3.5c0.8,0,0.8-1.3,0-1.2c-3.3,0.2-6.5-0.9-8.9-3.1
				C86.3,120.9,85.5,121.8,86,122.3L86,122.3z"/>
		</g>
		<path style="clip-path:url(#SVGID_00000042708213572542360170000000819727486838024862_);fill:#80440F;" d="M53.1,28.4
			c1.4,2.1,4.1,3.3,6.7,2.9c0.1-2.1-0.1-4.2-0.5-6.3c-2,0.7-4,1.6-5.8,2.7L53.1,28.4z"/>
		<g style="clip-path:url(#SVGID_00000042708213572542360170000000819727486838024862_);">
			<path class="st9" d="M149.4,46.8c-1.1-1-2.4-1.8-3.7-2.4c-1.1-0.5-2.5-1.1-3.4,0c-0.7,0.7-0.7,1.9-0.2,2.8c0.6,1.1,1.9,1.6,3.1,2
				c0.7,0.2,1-0.7,0.5-1.1c-2.9-1.8-6.6-2.1-9.7-0.7c-1.4,0.6-2.8,1.7-3.2,3.2c-0.4,1.5,0.5,2.8,1.9,3.2c1.2,0.3,3.3,0.3,4.1-0.8
				c0.3-0.5,0.3-1.2-0.1-1.6c-0.5-0.6-1.4-0.5-2.1-0.4c-1.7,0.2-3.3,0.8-4.7,1.8c-1.1,0.9-2.6,2.2-2.7,3.8c-0.2,1.7,1.4,2.9,2.9,3.1
				c2,0.2,3.6-1.2,5-2.4c0.6-0.5-0.3-1.4-0.9-0.9c-0.9,0.8-1.9,1.7-3.2,2c-0.9,0.2-2.2-0.1-2.6-1.1c-0.5-1,0.7-2.2,1.4-2.9
				c0.9-0.8,1.9-1.5,3.1-1.9c0.5-0.2,1.1-0.3,1.6-0.4c0.3,0,0.5-0.1,0.8,0c0.3,0,0.6,0.1,0.3,0.3c-0.7,0.5-2.1,0.5-2.9,0.1
				c-1.1-0.5-0.9-1.8-0.2-2.6c0.7-0.9,1.9-1.4,2.9-1.8c2.6-0.8,5.4-0.4,7.7,1c0.2-0.4,0.3-0.7,0.5-1.1c-0.8-0.3-1.8-0.6-2.3-1.3
				c-0.3-0.4-0.4-1.3,0.1-1.6c0.4-0.2,1.1,0.1,1.5,0.3c0.4,0.2,0.9,0.4,1.3,0.6c0.9,0.5,1.7,1.1,2.5,1.7
				C149.1,48.2,149.9,47.3,149.4,46.8L149.4,46.8z"/>
		</g>
		<g style="clip-path:url(#SVGID_00000042708213572542360170000000819727486838024862_);">
			<path class="st9" d="M157.5,54.8c2.1,0.9,3.4,3.4,2.8,5.7c-0.2,0.8,1,1.1,1.2,0.3c0.7-2.9-1-6-3.7-7.1c-0.3-0.1-0.7,0.1-0.7,0.4
				C157,54.4,157.2,54.7,157.5,54.8L157.5,54.8z"/>
		</g>
		<g style="clip-path:url(#SVGID_00000042708213572542360170000000819727486838024862_);">
			<path class="st9" d="M163.8,57c1.3,1.7,1.6,4,0.7,6c-0.1,0.3,0.1,0.7,0.4,0.7c0.3,0.1,0.6-0.1,0.7-0.4c0.9-2.3,0.6-5-0.9-7
				c-0.2-0.3-0.5-0.4-0.8-0.2C163.7,56.3,163.6,56.7,163.8,57L163.8,57z"/>
		</g>
		<g style="clip-path:url(#SVGID_00000042708213572542360170000000819727486838024862_);">
			<path class="st9" d="M165,69.2c0,1.7-0.8,3.4-2.2,4.3c-0.3,0.2-0.4,0.5-0.2,0.8c0.2,0.3,0.6,0.4,0.8,0.2c1.7-1.2,2.8-3.3,2.8-5.4
				C166.2,68.5,165,68.5,165,69.2L165,69.2z"/>
		</g>
		<g style="clip-path:url(#SVGID_00000042708213572542360170000000819727486838024862_);">
			<path class="st9" d="M156.2,133.4c2.7-0.7,5-2.7,6.1-5.3c0.1-0.3,0.1-0.6-0.2-0.8c-0.3-0.1-0.7-0.1-0.8,0.2c-1,2.3-3,4.1-5.4,4.7
				C155.1,132.4,155.4,133.6,156.2,133.4L156.2,133.4z"/>
		</g>
		<g style="clip-path:url(#SVGID_00000042708213572542360170000000819727486838024862_);">
			<path class="st9" d="M134.2,105.2c-0.1,3,0.9,5.9,2.8,8.2c0.5,0.6,1.4-0.3,0.9-0.9c-1.7-2-2.6-4.7-2.5-7.4
				C135.4,104.4,134.2,104.4,134.2,105.2L134.2,105.2z"/>
		</g>
		<g style="clip-path:url(#SVGID_00000042708213572542360170000000819727486838024862_);">
			<path class="st9" d="M141.4,114.7c0.2,0.2,0.4,0.4,0.5,0.5c0,0,0.1,0.1,0.1,0.1c0.1,0.1-0.1-0.1,0,0c0,0,0,0.1,0.1,0.1
				c0.1,0.1,0.1,0.2,0.2,0.3c0.1,0.2,0.3,0.4,0.4,0.7c0,0.1,0,0.1,0,0c0,0,0,0.1,0,0.1c0,0.1,0,0.1,0.1,0.2c0,0.1,0.1,0.3,0.1,0.4
				c0.1,0.3,0.4,0.5,0.7,0.4c0.3-0.1,0.5-0.4,0.4-0.7c-0.3-1.1-0.9-2.2-1.8-2.9c-0.2-0.2-0.6-0.3-0.9,0
				C141.1,114,141.1,114.4,141.4,114.7L141.4,114.7z"/>
		</g>
		<g style="clip-path:url(#SVGID_00000042708213572542360170000000819727486838024862_);">
			<path class="st9" d="M140.2,98c0.3,1.4,1,2.8,1.8,4c0.2,0.3,0.5,0.4,0.8,0.2c0.3-0.2,0.4-0.6,0.2-0.8c-0.9-1.2-1.4-2.4-1.7-3.7
				c-0.1-0.3-0.4-0.5-0.7-0.4C140.3,97.4,140.2,97.7,140.2,98L140.2,98z"/>
		</g>
		<g style="clip-path:url(#SVGID_00000042708213572542360170000000819727486838024862_);">
			<path class="st9" d="M62.3,113.5c0.2,1.3,0.7,2.5,1.5,3.6c0.2,0.3,0.5,0.4,0.8,0.2c0.3-0.2,0.4-0.6,0.2-0.8
				c-0.2-0.3-0.4-0.5-0.5-0.8c-0.1-0.1-0.1-0.2-0.2-0.4c0-0.1-0.1-0.1-0.1-0.2c0,0-0.1-0.2-0.1-0.1c-0.2-0.6-0.4-1.2-0.5-1.8
				c-0.1-0.3-0.5-0.5-0.7-0.4C62.4,112.9,62.3,113.2,62.3,113.5L62.3,113.5z"/>
		</g>
		<g style="clip-path:url(#SVGID_00000042708213572542360170000000819727486838024862_);">
			<path class="st9" d="M66.4,114.7c0.6,0.7,1.2,1.4,1.7,2.2c0.1,0.1,0.3,0.2,0.4,0.2c0.1,0,0.3-0.1,0.4-0.2
				c0.1-0.1,0.2-0.3,0.2-0.4c0-0.2-0.1-0.3-0.2-0.4c-0.6-0.7-1.2-1.4-1.7-2.2c-0.1-0.1-0.3-0.2-0.4-0.2c-0.1,0-0.3,0.1-0.4,0.2
				c-0.1,0.1-0.2,0.3-0.2,0.4C66.2,114.5,66.2,114.6,66.4,114.7L66.4,114.7z"/>
		</g>
		<g style="clip-path:url(#SVGID_00000042708213572542360170000000819727486838024862_);">
			<path class="st9" d="M68.5,106.3c0.4,0.7,0.9,1.4,1.3,2.1c0.2,0.3,0.5,0.4,0.8,0.2c0.3-0.2,0.4-0.5,0.2-0.8
				c-0.4-0.7-0.9-1.4-1.3-2.1c-0.2-0.3-0.5-0.4-0.8-0.2C68.4,105.7,68.3,106.1,68.5,106.3L68.5,106.3z"/>
		</g>
		<g style="clip-path:url(#SVGID_00000042708213572542360170000000819727486838024862_);">
			<path class="st9" d="M33.2,58.8c7.3,1.2,16.1,1.7,21.3-4.5c1.2-1.4,2-3,2.4-4.8c0.2-0.8-1-1.1-1.2-0.3c-0.8,3.9-4,6.8-7.6,8.1
				c-4.7,1.8-9.9,1.1-14.7,0.4C32.7,57.5,32.4,58.7,33.2,58.8L33.2,58.8z"/>
		</g>
		<g style="clip-path:url(#SVGID_00000042708213572542360170000000819727486838024862_);">
			<path class="st11" d="M36.9,38.4c-0.2,1.1,0.2,2.1,1,2.9c0.7,0.7,1.7,1.2,2.8,1.2c0.6,0,1.2-0.2,1.7-0.5c0.3-0.2,0.4-0.5,0.2-0.8
				c-0.2-0.3-0.6-0.4-0.8-0.2c-0.1,0.1-0.2,0.2-0.4,0.2c0.1-0.1,0,0-0.1,0c-0.1,0-0.1,0-0.2,0.1c-0.1,0-0.1,0-0.2,0c0.1,0,0,0,0,0
				c-0.1,0-0.2,0-0.4,0c0,0-0.2,0-0.1,0c-0.1,0-0.1,0-0.2,0c-0.1,0-0.2-0.1-0.4-0.1c0,0-0.2-0.1-0.1,0c0,0-0.1,0-0.1-0.1
				c-0.1-0.1-0.2-0.1-0.4-0.2c-0.1,0-0.1-0.1-0.2-0.1c0,0-0.1,0-0.1-0.1c0.1,0,0.1,0,0,0c-0.1-0.1-0.2-0.2-0.3-0.3
				c0-0.1-0.1-0.1-0.1-0.2c0,0-0.1-0.1,0,0c-0.1-0.1-0.1-0.2-0.2-0.3c0-0.1-0.1-0.1-0.1-0.2c0-0.1,0-0.1,0,0c0,0,0-0.1,0-0.1
				c0-0.1-0.1-0.2-0.1-0.3c0,0,0-0.1,0-0.1c0,0.1,0,0.1,0,0c0-0.1,0-0.1,0-0.2c0-0.1,0-0.1,0-0.2c0,0,0-0.1,0-0.1c0,0.1,0,0.1,0,0
				c0.1-0.3-0.1-0.7-0.4-0.7C37.3,37.9,36.9,38.1,36.9,38.4L36.9,38.4z"/>
		</g>
		<g style="clip-path:url(#SVGID_00000042708213572542360170000000819727486838024862_);">
			<path class="st11" d="M21.4,45.5c4.5,4.4,11.5,5.6,17.2,3c0.7-0.3,0.1-1.4-0.6-1c-5.2,2.4-11.7,1.2-15.7-2.8
				C21.7,44.1,20.8,44.9,21.4,45.5L21.4,45.5z"/>
		</g>
		<g style="clip-path:url(#SVGID_00000042708213572542360170000000819727486838024862_);">
			<path class="st9" d="M41,77.2c0,1.3,0,2.7,0,4c0,0.3,0.3,0.6,0.6,0.6c0.3,0,0.6-0.3,0.6-0.6c0-1.3,0-2.7,0-4
				c0-0.3-0.3-0.6-0.6-0.6C41.3,76.6,41,76.9,41,77.2L41,77.2z"/>
		</g>
		<g style="clip-path:url(#SVGID_00000042708213572542360170000000819727486838024862_);">
			<path class="st9" d="M44.1,80.5c0.2,0.2,0.4,0.4,0.6,0.6c0.1,0.1,0.1,0.1,0.2,0.1c0.1,0,0.1,0.1,0.2,0.1c0.1,0,0.2,0,0.2-0.1
				c0.1,0,0.1-0.1,0.2-0.1c0,0,0.1-0.1,0.1-0.1c0.1-0.1,0.1-0.2,0.1-0.3c0-0.1,0-0.1,0-0.2c0-0.1-0.1-0.2-0.2-0.3
				c-0.2-0.2-0.4-0.4-0.6-0.6c-0.1-0.1-0.1-0.1-0.2-0.1c-0.1,0-0.1-0.1-0.2-0.1c-0.1,0-0.2,0-0.2,0.1c-0.1,0-0.1,0.1-0.2,0.1
				c0,0-0.1,0.1-0.1,0.1c-0.1,0.1-0.1,0.2-0.1,0.3c0,0.1,0,0.1,0,0.2C43.9,80.4,44,80.5,44.1,80.5L44.1,80.5z"/>
		</g>
		<g style="clip-path:url(#SVGID_00000042708213572542360170000000819727486838024862_);">
			<path class="st9" d="M47.4,71.4c0,0.8,0,1.5,0,2.3c0,0.3,0.3,0.6,0.6,0.6c0.3,0,0.6-0.3,0.6-0.6c0-0.8,0-1.5,0-2.3
				c0-0.3-0.3-0.6-0.6-0.6C47.6,70.9,47.4,71.1,47.4,71.4L47.4,71.4z"/>
		</g>
		<g style="clip-path:url(#SVGID_00000042708213572542360170000000819727486838024862_);">
			<path class="st9" d="M42.2,66.8c0,0.6,0,1.2,0,1.7c0,0.3,0.3,0.6,0.6,0.6c0.3,0,0.6-0.3,0.6-0.6c0-0.6,0-1.2,0-1.7
				c0-0.3-0.3-0.6-0.6-0.6C42.4,66.2,42.2,66.5,42.2,66.8L42.2,66.8z"/>
		</g>
		<g style="clip-path:url(#SVGID_00000042708213572542360170000000819727486838024862_);">
			<path class="st9" d="M74.2,73.7C74.2,73.7,74.3,73.8,74.2,73.7C74.2,73.7,74.3,73.8,74.2,73.7c0.1,0.1,0.2,0.2,0.2,0.2
				c0.1,0.1,0.2,0.2,0.3,0.3c0.1,0.1,0.1,0.1,0.1,0.2c0,0,0,0,0.1,0.1c0,0.1,0.1,0.1,0,0c0.1,0.1,0.2,0.2,0.2,0.3
				c0.1,0.1,0.1,0.2,0.2,0.3c0,0.1,0.1,0.1,0.1,0.2c0,0,0.1,0.1,0,0c0-0.1,0,0,0,0.1c0.1,0.3,0.2,0.5,0.2,0.8
				c0.1,0.3,0.5,0.5,0.7,0.4c0.3-0.1,0.5-0.4,0.4-0.7c-0.2-1.3-1-2.4-2.1-3.2c-0.3-0.2-0.7-0.1-0.8,0.2
				C73.8,73.2,73.9,73.5,74.2,73.7L74.2,73.7z"/>
		</g>
		<g style="clip-path:url(#SVGID_00000042708213572542360170000000819727486838024862_);">
			<path class="st9" d="M77,69c0.6,0.6,1.2,1.2,1.7,1.7c0.2,0.2,0.6,0.2,0.9,0c0.2-0.2,0.2-0.6,0-0.9c-0.6-0.6-1.2-1.2-1.7-1.7
				c-0.2-0.2-0.6-0.2-0.9,0C76.7,68.4,76.7,68.8,77,69L77,69z"/>
		</g>
		<g style="clip-path:url(#SVGID_00000042708213572542360170000000819727486838024862_);">
			<path class="st9" d="M74.1,60.9c0.2,0.2,0.4,0.4,0.6,0.6c0.1,0.1,0.1,0.1,0.2,0.1c0.1,0,0.1,0.1,0.2,0.1c0.1,0,0.2,0,0.2-0.1
				c0.1,0,0.1-0.1,0.2-0.1c0,0,0.1-0.1,0.1-0.1c0.1-0.1,0.1-0.2,0.1-0.3c0-0.1,0-0.1,0-0.2c0-0.1-0.1-0.2-0.2-0.3
				c-0.2-0.2-0.4-0.4-0.6-0.6c-0.1-0.1-0.1-0.1-0.2-0.1c-0.1,0-0.1-0.1-0.2-0.1c-0.1,0-0.2,0-0.2,0.1c-0.1,0-0.1,0.1-0.2,0.1
				c0,0-0.1,0.1-0.1,0.1c-0.1,0.1-0.1,0.2-0.1,0.3c0,0.1,0,0.1,0,0.2C74,60.7,74,60.8,74.1,60.9L74.1,60.9z"/>
		</g>
		<g style="clip-path:url(#SVGID_00000042708213572542360170000000819727486838024862_);">
			<path class="st9" d="M58.4,62.4c0.2,1.2,0.4,2.3,0.6,3.5c0.1,0.3,0.5,0.5,0.7,0.4c0.3-0.1,0.5-0.4,0.4-0.7
				c-0.2-1.2-0.4-2.3-0.6-3.5c-0.1-0.3-0.5-0.5-0.7-0.4C58.5,61.7,58.4,62,58.4,62.4L58.4,62.4z"/>
		</g>
		<g style="clip-path:url(#SVGID_00000042708213572542360170000000819727486838024862_);">
			<path class="st9" d="M61.9,60.2c0.2,0.4,0.4,0.8,0.6,1.2c0.1,0.1,0.2,0.2,0.4,0.3c0.1,0,0.3,0,0.5-0.1c0.1-0.1,0.2-0.2,0.3-0.4
				c0-0.2,0-0.3-0.1-0.5c-0.2-0.4-0.4-0.8-0.6-1.2c-0.1-0.1-0.2-0.2-0.4-0.3c-0.1,0-0.3,0-0.5,0.1c-0.1,0.1-0.2,0.2-0.3,0.4
				C61.8,59.9,61.9,60,61.9,60.2L61.9,60.2z"/>
		</g>
		<g style="clip-path:url(#SVGID_00000042708213572542360170000000819727486838024862_);">
			<path class="st9" d="M62.5,74.1c0.2,0.4,0.4,0.8,0.6,1.2c0.1,0.1,0.2,0.2,0.4,0.3c0.1,0,0.3,0,0.5-0.1c0.1-0.1,0.2-0.2,0.3-0.4
				c0-0.2,0-0.3-0.1-0.5c-0.2-0.4-0.4-0.8-0.6-1.2c-0.1-0.1-0.2-0.2-0.4-0.3c-0.1,0-0.3,0-0.5,0.1c-0.1,0.1-0.2,0.2-0.3,0.4
				C62.4,73.8,62.4,73.9,62.5,74.1L62.5,74.1z"/>
		</g>
	</g>
	<g>
		<path class="st12" d="M126.3,92.2c0,3.1-2.5,5.7-5.7,5.7c-3.1,0-5.7-2.5-5.7-5.7c0-3.1,2.5-5.7,5.7-5.7
			C123.8,86.5,126.3,89.1,126.3,92.2z"/>
		<path class="st13" d="M123.2,89.6c1.4,1.4,1.4,3.7,0,5.1c-1.4,1.4-3.7,1.4-5.1,0c-1.4-1.4-1.4-3.7,0-5.1
			C119.5,88.2,121.8,88.2,123.2,89.6z"/>
	</g>
	<g>
		<path class="st11" d="M42.6,33.1c0.1,0,0.1,0,0.2,0c0.1,0-0.1,0,0,0c0,0,0.1,0,0.1,0c0.1,0,0.3,0,0.4,0c0,0,0.1,0,0.1,0
			c0,0,0.1,0,0,0c-0.1,0,0.1,0,0.1,0c0,0,0.1,0,0.1,0c0.2,0,0.3,0.1,0.5,0.1c0,0,0.1,0,0.1,0c0.1,0-0.1-0.1,0,0
			c0.1,0,0.1,0.1,0.2,0.1c0.1,0.1,0.3,0.1,0.4,0.2c0,0,0.1,0.1,0,0c-0.1-0.1,0,0,0.1,0c0.1,0,0.1,0.1,0.2,0.2
			c0.1,0.1,0.1,0.1,0.2,0.2c0,0,0,0.1,0.1,0.1c0.1,0.1-0.1-0.1,0,0c0.2,0.3,0.5,0.4,0.8,0.2c0.3-0.2,0.4-0.6,0.2-0.8
			c-0.9-1.3-2.6-1.9-4.1-1.6c-0.3,0.1-0.5,0.4-0.4,0.7C42,33,42.3,33.1,42.6,33.1L42.6,33.1z"/>
	</g>
</g>
</svg>
