<svg xmlns="http://www.w3.org/2000/svg" width="28.938" height="20.442" viewBox="0 0 28.938 20.442">
  <g id="bK1yzR.tif" transform="translate(-208.643 39.613)">
    <path id="Path_763" data-name="Path 763" d="M232.17-6.974c-.008-.158-6.718-3.624-6.718-3.624l13.427-4.964,3.285,1.094L252.4-10.886s-7.059,3.872-7.048,3.912c.314,1.14.322,3.013.641,4.151a.278.278,0,0,1-.117.365A19.824,19.824,0,0,1,239.58.618c-.3.084-.448.264-.4.5.051.255.272.381.58.307a16.479,16.479,0,0,0,3.9-1.553c.911-.487,1.786-1.04,2.7-1.575a4.727,4.727,0,0,1,.194.615.841.841,0,0,1-.4.853,21.118,21.118,0,0,1-5.54,2.994,5.515,5.515,0,0,1-4.029-.009,21.747,21.747,0,0,1-5.363-2.862c-.585-.435-.75-.786-.326-1.6.723.442,1.433.909,2.174,1.32a18.973,18.973,0,0,0,4.178,1.764c.089.024.179.047.27.063a.421.421,0,0,0,.528-.319A.434.434,0,0,0,237.7.631c-.751-.255-1.515-.482-2.247-.785a18.924,18.924,0,0,1-4.1-2.3.281.281,0,0,1-.12-.363c.317-1.12.622-2.243.932-3.364C232.187-6.245,232.145-6.9,232.17-6.974Z" transform="translate(-15.501 -23.423)" fill="#ffdc55"/>
    <path id="Path_762" data-name="Path 762" d="M208.893-34.339a1.176,1.176,0,0,1,.784-.632q6.28-2.109,12.554-4.239a2.619,2.619,0,0,1,1.716-.015q2.444.821,4.884,1.652c.32.109.442.307.357.552s-.313.34-.64.23q-2.4-.81-4.806-1.626a1.922,1.922,0,0,0-1.277.007q-6.183,2.094-12.369,4.181c-.085.029-.167.064-.309.118.445.218.837.412,1.231.6q5.608,2.733,11.216,5.469a1.857,1.857,0,0,0,1.729.016q4.211-2.055,8.424-4.108c.048-.023.091-.055.191-.115-.544-.145-1.036-.279-1.53-.409-1.994-.521-3.989-1.039-5.981-1.565a.346.346,0,0,0-.44.132.935.935,0,0,1-.779.359c-.454,0-.907,0-1.361,0a1.1,1.1,0,0,1-1.135-1.422,1.788,1.788,0,0,1,1.607-1.422,1.782,1.782,0,0,1,1.849,1.214.4.4,0,0,0,.332.3c2.675.693,5.352,1.377,8.015,2.114a1.424,1.424,0,0,0,1.157-.123c.6-.321,1.227-.6,1.841-.906.079-.038.154-.085.281-.155-.512-.175-.972-.333-1.432-.489l-4.334-1.461c-.044-.015-.088-.029-.131-.046a.413.413,0,0,1-.284-.525.408.408,0,0,1,.557-.257c.72.236,1.436.482,2.155.724l3.678,1.238c.446.15.672.4.686.772a.846.846,0,0,1-.57.834c-.858.411-1.711.833-2.548,1.241v6.632c.787.282.957.528.957,1.342,0,.278.015.557-.005.833a2.943,2.943,0,0,1-.121.473,1.022,1.022,0,0,0-.054.287c.037.693.091,1.385.124,2.079a.784.784,0,0,1-.845.9c-.333.007-.667.01-1,0a.763.763,0,0,1-.774-.831c.031-.712.088-1.422.123-2.134a1.394,1.394,0,0,0-.075-.336,3.186,3.186,0,0,1,.073-2.078c.116-.246.456-.385.759-.624v-6.13l-3.125,1.523c.315,1.139.616,2.271.944,3.4.179.612.406,1.209.609,1.813a1.6,1.6,0,0,1-.516,1.851,19.994,19.994,0,0,1-6.736,3.479,5.567,5.567,0,0,1-3.489-.181,21.267,21.267,0,0,1-5.952-3.16,1.676,1.676,0,0,1-.629-2.148,38.97,38.97,0,0,0,1.419-4.9c.011-.053.02-.106.032-.177-.471-.23-.934-.458-1.4-.685-1.645-.8-3.288-1.608-4.937-2.4a1.359,1.359,0,0,1-.7-.624Zm7.843,4.545c-.026.07-.051.126-.067.184-.31,1.122-.615,2.244-.932,3.364a.281.281,0,0,0,.12.363,18.925,18.925,0,0,0,4.1,2.3c.732.3,1.5.53,2.247.785a.434.434,0,0,1,.346.489.421.421,0,0,1-.528.319c-.091-.016-.181-.039-.27-.063a18.973,18.973,0,0,1-4.178-1.764c-.741-.412-1.451-.879-2.174-1.32-.425.811-.259,1.161.326,1.6a21.746,21.746,0,0,0,5.363,2.862,5.515,5.515,0,0,0,4.029.009,21.118,21.118,0,0,0,5.54-2.994.841.841,0,0,0,.4-.853,4.729,4.729,0,0,0-.194-.615c-.911.535-1.786,1.089-2.7,1.575a16.479,16.479,0,0,1-3.9,1.553c-.308.074-.53-.052-.58-.307-.046-.236.1-.416.4-.5a19.824,19.824,0,0,0,6.293-3.076.278.278,0,0,0,.117-.365c-.32-1.138-.628-2.279-.942-3.419a.686.686,0,0,0-.064-.124c-1.666.813-3.327,1.6-4.967,2.433a2.9,2.9,0,0,1-2.808,0C220.068-28.191,218.407-28.979,216.736-29.794Zm6.369-4.765c.222,0,.444,0,.665,0s.31-.113.3-.331a.951.951,0,0,0-.959-.855.952.952,0,0,0-.947.866c-.012.206.068.318.281.318Zm11.183,14.164-.145-2.155h-.679l-.139,2.155Zm.047-3.015c0-.327,0-.631,0-.934a.221.221,0,0,0-.289-.243c-.257.049-.582-.176-.767.177a.06.06,0,0,0,0,.027c0,.32,0,.641,0,.973Z" transform="translate(0)" fill="#2a2968" stroke="#25235a" stroke-width="0.5"/>
    <path id="Path_764" data-name="Path 764" d="M298.712,23.937h-.963l.139-2.155h.679Z" transform="translate(-64.424 -44.332)" fill="#ffdc55"/>
    <path id="Path_765" data-name="Path 765" d="M298.634,15.482h-1.059c0-.332,0-.652,0-.973a.06.06,0,0,1,0-.027c.185-.353.51-.128.767-.177a.221.221,0,0,1,.289.243C298.632,14.851,298.634,15.155,298.634,15.482Z" transform="translate(-64.298 -38.892)" fill="#ffdc55"/>
  </g>
</svg>
