<svg xmlns="http://www.w3.org/2000/svg" width="20.647" height="20.647" viewBox="0 0 20.647 20.647">
  <path id="Icon_material-local-phone" data-name="Icon material-local-phone" d="M7.594,11.159a12.949,12.949,0,0,0,5.633,5.633l1.88-1.88a.85.85,0,0,1,.872-.205,9.75,9.75,0,0,0,3.052.487.857.857,0,0,1,.855.855v2.983a.857.857,0,0,1-.855.855A14.53,14.53,0,0,1,4.5,5.355.857.857,0,0,1,5.355,4.5H8.346a.857.857,0,0,1,.855.855,9.71,9.71,0,0,0,.487,3.052.858.858,0,0,1-.214.872Z" transform="matrix(0.951, 0.309, -0.309, 0.951, 2.495, -5.04)" fill="#2a2968" stroke="rgba(0,0,0,0)" stroke-width="1"/>
</svg>
