<svg width="24" height="24" viewBox="0 0 24 24" fill="none" xmlns="http://www.w3.org/2000/svg">
<path d="M12.4251 21.6276H15.6171V14.1876H18.2031V11.6076H15.6171V9.16457L18.2031 8.86957V6.90157L15.9751 6.43457L13.0591 7.25856L12.4241 11.6076L10.2891 11.9906L10.5991 14.1906H12.4231L12.4251 21.6276Z" fill="#FFDC55"/>
<path d="M15.402 21.8325C15.3119 21.7811 15.239 21.7043 15.1926 21.6115C15.1461 21.5188 15.1282 21.4144 15.141 21.3115C15.1463 19.0002 15.1463 16.6892 15.141 14.3785C15.141 13.9925 15.26 13.8705 15.641 13.8695C16.2477 13.8695 16.8547 13.8695 17.462 13.8695H17.673C17.737 13.2315 17.8 12.6135 17.864 11.9765H17.646C16.9653 11.9765 16.285 11.9765 15.605 11.9765C15.27 11.9765 15.14 11.8435 15.139 11.5055C15.139 10.9725 15.139 10.4395 15.139 9.9055C15.1206 9.75304 15.1373 9.59842 15.1876 9.45335C15.2379 9.30828 15.3206 9.17658 15.4295 9.06825C15.5383 8.95991 15.6703 8.87777 15.8156 8.82809C15.9609 8.7784 16.1156 8.76248 16.268 8.7815C16.8 8.7815 17.332 8.7815 17.877 8.7815V6.9815C17.8308 6.97268 17.784 6.967 17.737 6.9645C16.916 6.9645 16.094 6.95849 15.273 6.97849C14.6536 6.95081 14.0485 7.17012 13.5906 7.58823C13.1327 8.00635 12.8595 8.58911 12.831 9.2085C12.764 9.8275 12.796 10.4565 12.784 11.0815C12.784 11.2225 12.784 11.3635 12.784 11.5045C12.784 11.8745 12.66 11.9965 12.284 11.9975C11.8 11.9975 11.316 11.9975 10.831 11.9975H10.624V13.8635C10.694 13.8635 10.759 13.8725 10.824 13.8725C11.314 13.8725 11.805 13.8725 12.295 13.8725C12.658 13.8725 12.783 13.9995 12.784 14.3575C12.784 14.7805 12.784 15.2035 12.784 15.6265C12.787 15.6773 12.7796 15.7283 12.7621 15.7761C12.7446 15.8239 12.7175 15.8677 12.6824 15.9046C12.6474 15.9415 12.6051 15.9709 12.5582 15.9908C12.5114 16.0108 12.4609 16.0209 12.41 16.0205C12.3106 16.0156 12.2172 15.9717 12.15 15.8983C12.0828 15.8249 12.0472 15.7279 12.051 15.6285C12.051 15.5615 12.051 15.4935 12.051 15.4285V14.6145C11.976 14.6145 11.911 14.6035 11.851 14.6035C11.361 14.6035 10.87 14.6035 10.38 14.6035C10.008 14.6035 9.88499 14.4775 9.88499 14.1035C9.88499 13.3188 9.88499 12.5342 9.88499 11.7495C9.88499 11.3795 10.009 11.2565 10.385 11.2545C10.869 11.2545 11.353 11.2545 11.838 11.2545H12.057C12.057 11.1545 12.057 11.0685 12.057 10.9845C12.0478 10.2991 12.0765 9.61372 12.143 8.9315C12.1992 8.3971 12.4004 7.88824 12.7249 7.45994C13.0494 7.03164 13.4848 6.70022 13.984 6.5015C14.4989 6.29992 15.0492 6.20434 15.602 6.2205C16.448 6.2205 17.294 6.2205 18.14 6.2205C18.509 6.2205 18.633 6.3475 18.633 6.7205C18.633 7.4865 18.633 8.25317 18.633 9.0205C18.633 9.3875 18.504 9.5135 18.133 9.5145C17.514 9.5145 16.895 9.5145 16.276 9.5145C15.957 9.5145 15.884 9.5865 15.882 9.9025C15.882 10.3375 15.882 10.7725 15.882 11.2375H18.14C18.54 11.2375 18.674 11.3875 18.634 11.7795C18.5533 12.5722 18.472 13.3645 18.39 14.1565C18.354 14.4975 18.241 14.6005 17.89 14.6015C17.295 14.6015 16.701 14.6015 16.106 14.6015H15.893V21.0925H16.426C17.008 21.0925 17.591 21.0925 18.173 21.0925C18.5604 21.101 18.9455 21.0309 19.305 20.8863C19.6645 20.7418 19.991 20.526 20.2648 20.2517C20.5386 19.9775 20.7539 19.6506 20.8978 19.2909C21.0417 18.9311 21.1111 18.5459 21.102 18.1585C21.102 14.3278 21.102 10.4968 21.102 6.6655C21.1112 6.27801 21.0416 5.89267 20.8975 5.53284C20.7534 5.17302 20.5377 4.8462 20.2636 4.57217C19.9895 4.29813 19.6626 4.08261 19.3027 3.93862C18.9428 3.79463 18.5575 3.72519 18.17 3.7345C14.3393 3.7345 10.5083 3.7345 6.677 3.7345C6.28951 3.72506 5.90412 3.79436 5.5442 3.93823C5.18429 4.08209 4.85732 4.29753 4.5831 4.57146C4.30888 4.8454 4.09312 5.17214 3.94888 5.53191C3.80465 5.89169 3.73496 6.277 3.744 6.6645C3.744 10.4952 3.744 14.3262 3.744 18.1575C3.73444 18.5449 3.80358 18.9303 3.94725 19.2903C4.09092 19.6502 4.30613 19.9773 4.57985 20.2517C4.85357 20.526 5.18011 20.742 5.53972 20.8865C5.89933 21.0311 6.28453 21.1011 6.672 21.0925C8.406 21.0925 10.141 21.0925 11.872 21.0925H12.052V20.4015C12.052 19.8255 12.052 19.2495 12.052 18.6725C12.0399 18.5803 12.0626 18.4869 12.1157 18.4106C12.1688 18.3342 12.2484 18.2803 12.339 18.2595C12.3963 18.2458 12.4561 18.2461 12.5132 18.2606C12.5703 18.275 12.6231 18.3031 12.6669 18.3425C12.7108 18.3818 12.7445 18.4312 12.765 18.4864C12.7856 18.5417 12.7925 18.601 12.785 18.6595C12.785 19.1255 12.785 19.5915 12.785 20.0595C12.785 20.4765 12.777 20.8935 12.785 21.3095C12.7992 21.4125 12.7819 21.5175 12.7353 21.6105C12.6887 21.7035 12.615 21.7802 12.524 21.8305H6.235C6.20274 21.8162 6.16927 21.8048 6.13499 21.7965C5.40137 21.7007 4.71507 21.3812 4.16951 20.8814C3.62395 20.3816 3.24562 19.7259 3.086 19.0035C3.054 18.8675 3.029 18.7305 3 18.5945V6.23949C3.0143 6.20724 3.02567 6.17378 3.034 6.1395C3.14495 5.27 3.57055 4.47123 4.23035 3.89416C4.89015 3.31708 5.73845 3.00167 6.61499 3.0075C10.4817 2.9975 14.3483 2.9975 18.215 3.0075C18.6902 3.0035 19.1614 3.09414 19.6012 3.27415C20.041 3.45415 20.4405 3.71991 20.7766 4.05593C21.1126 4.39195 21.3783 4.79151 21.5583 5.2313C21.7384 5.67109 21.829 6.14231 21.825 6.6175C21.8363 10.4842 21.8363 14.3508 21.825 18.2175C21.8309 19.0309 21.5596 19.8221 21.0557 20.4607C20.5519 21.0992 19.8455 21.5471 19.053 21.7305C18.9 21.7695 18.745 21.7995 18.591 21.8305L15.402 21.8325Z" fill="#2A2968"/>
<path d="M5.50915 8.67356C5.50915 9.17356 5.50915 9.66656 5.50915 10.1626C5.51669 10.2286 5.50621 10.2954 5.47883 10.356C5.45145 10.4165 5.4082 10.4685 5.35365 10.5064C5.2991 10.5444 5.23529 10.5668 5.169 10.5714C5.10271 10.576 5.03642 10.5626 4.97715 10.5326C4.91395 10.5001 4.86145 10.4501 4.82597 10.3886C4.79049 10.327 4.77355 10.2565 4.77716 10.1856C4.77716 9.18056 4.77716 8.17556 4.77716 7.17056C4.77286 7.11971 4.77942 7.06853 4.79641 7.02041C4.8134 6.97229 4.84044 6.92832 4.87571 6.89144C4.91098 6.85456 4.95369 6.82561 5.001 6.8065C5.04832 6.78738 5.09917 6.77853 5.15016 6.78056C5.20068 6.78115 5.25052 6.79223 5.29653 6.81309C5.34255 6.83395 5.38373 6.86413 5.41748 6.90173C5.45122 6.93933 5.4768 6.98352 5.49258 7.03152C5.50836 7.07951 5.514 7.13026 5.50915 7.18055C5.51215 7.68155 5.50915 8.17756 5.50915 8.67356Z" fill="#2A2968"/>
<path d="M5.50689 11.8096C5.50611 11.9053 5.46771 11.9969 5.39999 12.0647C5.33227 12.1324 5.24066 12.1708 5.14489 12.1716C5.04937 12.1729 4.95714 12.1367 4.8881 12.0706C4.81907 12.0046 4.77877 11.914 4.77589 11.8186C4.7755 11.7697 4.78477 11.7213 4.80319 11.676C4.82161 11.6308 4.84879 11.5897 4.88319 11.555C4.91759 11.5203 4.95851 11.4928 5.0036 11.474C5.04869 11.4552 5.09704 11.4456 5.14589 11.4456C5.24126 11.4484 5.33192 11.4877 5.39911 11.5554C5.46629 11.6232 5.50488 11.7142 5.50689 11.8096Z" fill="#2A2968"/>
<path d="M12.4311 17.5405C12.3355 17.5424 12.243 17.5067 12.1734 17.4411C12.1038 17.3754 12.0628 17.2851 12.0591 17.1895C12.0582 17.1406 12.067 17.0919 12.085 17.0463C12.103 17.0008 12.1298 16.9592 12.1639 16.9241C12.198 16.8889 12.2388 16.8609 12.2838 16.8416C12.3288 16.8223 12.3772 16.812 12.4262 16.8115C12.5219 16.8136 12.6131 16.8524 12.6809 16.92C12.7487 16.9877 12.7879 17.0788 12.7902 17.1745C12.7902 17.2704 12.7526 17.3625 12.6854 17.4309C12.6183 17.4993 12.527 17.5387 12.4311 17.5405Z" fill="#2A2968"/>
</svg>
