<svg id="map" xmlns="http://www.w3.org/2000/svg" width="55.777" height="55.777" viewBox="0 0 55.777 55.777">
  <circle id="Ellipse_18" data-name="Ellipse 18" cx="27.888" cy="27.888" r="27.888" transform="translate(0 0)" fill="#e94d16"/>
  <path id="Path_7" data-name="Path 7" d="M14.758,1030.4a9.665,9.665,0,0,0-8.207,14.868c.046.139.082.139.13.278l6.035,11.117a2.217,2.217,0,0,0,2,1.529,2.161,2.161,0,0,0,1.954-1.529l6.731-12.089a10.016,10.016,0,0,0,1.085-4.447A9.7,9.7,0,0,0,14.758,1030.4Zm-.043,5.419a4.893,4.893,0,0,1,4.863,4.864,4.863,4.863,0,0,1-9.727,0A4.893,4.893,0,0,1,14.715,1035.819Z" transform="translate(13.13 -1016.611)" fill="#c0392b"/>
  <path id="Path_8" data-name="Path 8" d="M14.758,1.031A9.719,9.719,0,0,0,6.551,15.969c.046.074.082.146.13.218l6.035,11.2a2.153,2.153,0,0,0,2,1.433,2.1,2.1,0,0,0,1.954-1.433L23.4,15.231a9.733,9.733,0,0,0-8.642-14.2Zm-.043,5.515A4.863,4.863,0,1,1,9.851,11.41,4.863,4.863,0,0,1,14.715,6.546Z" transform="translate(13.13 11.412)" fill="#fff"/>
</svg>
