<svg xmlns="http://www.w3.org/2000/svg" width="29.443" height="27.149" viewBox="0 0 29.443 27.149">
  <g id="paw_icon" data-name="paw icon" transform="translate(41.42 -178.953)">
    <g id="Group_266" data-name="Group 266" transform="translate(-40.663 179.703)">
      <ellipse id="Ellipse_48" data-name="Ellipse 48" cx="2.5" cy="3" rx="2.5" ry="3" transform="translate(1 7.569)" fill="#ffdc55"/>
      <ellipse id="Ellipse_49" data-name="Ellipse 49" cx="2.5" cy="3" rx="2.5" ry="3" transform="translate(7 0.569)" fill="#ffdc55"/>
      <ellipse id="Ellipse_50" data-name="Ellipse 50" cx="2.5" cy="3" rx="2.5" ry="3" transform="translate(15 0.569)" fill="#ffdc55"/>
      <ellipse id="Ellipse_51" data-name="Ellipse 51" cx="2.5" cy="3" rx="2.5" ry="3" transform="translate(22 7.569)" fill="#ffdc55"/>
      <path id="Path_364" data-name="Path 364" d="M4.045-1.343c1.026,0,5.738-6.179,5.673-4.427-.006.188,5.974,2.686,5.974,3.111,0,.686,6.9,4.705,4.168,6.52-.926.615-1.815,4.125-4.168,4.482-1.579.241-3.475-1.167-5.53-1.308a33.914,33.914,0,0,0-6.84.476C1.941,7.512,0,4.657,0,3S2.665-1.343,4.045-1.343Z" transform="translate(4 16.569)" fill="#ffdc55"/>
      <path id="Path_358" data-name="Path 358" d="M-26.4,220.952a11.573,11.573,0,0,1-1.37-.337,5.1,5.1,0,0,1-3.483-4.527,5.247,5.247,0,0,1,1.9-4.808,4.705,4.705,0,0,1,.957-.621,3.117,3.117,0,0,0,1.456-1.45,7.6,7.6,0,0,1,2.838-3.167,5.989,5.989,0,0,1,7.167.61,7.871,7.871,0,0,1,1.954,2.495,3.383,3.383,0,0,0,1.523,1.532,5.243,5.243,0,0,1,2.868,4.959.559.559,0,0,1-.554.614c-.32,0-.531-.248-.533-.627a4.273,4.273,0,0,0-2.525-4.117,3.691,3.691,0,0,1-.486-.3,3.967,3.967,0,0,1-1.241-1.528,6.642,6.642,0,0,0-1.863-2.319,4.981,4.981,0,0,0-6.783.417,6.653,6.653,0,0,0-1.36,1.863,4.26,4.26,0,0,1-1.969,2,4.255,4.255,0,0,0-2.253,4.564,4.176,4.176,0,0,0,3.47,3.585A4.284,4.284,0,0,0-23.255,219,3.838,3.838,0,0,1-21,218.226a3.563,3.563,0,0,1,2.205.669,4.485,4.485,0,0,0,4.926.431.546.546,0,0,1,.774.215.544.544,0,0,1-.276.753,5.6,5.6,0,0,1-1.856.6c-.088.013-.175.037-.263.056h-1.091a1.4,1.4,0,0,0-.181-.048,5.327,5.327,0,0,1-2.427-.956,2.73,2.73,0,0,0-3.489-.015,5.524,5.524,0,0,1-1.969.887c-.22.05-.442.089-.663.132Z" transform="translate(34.914 -195.303)" fill="#2a2968" stroke="#2a2968" stroke-width="1.5"/>
      <path id="Path_359" data-name="Path 359" d="M21.379,200.433a12.565,12.565,0,0,1-.6,1.734,4.056,4.056,0,0,1-2.457,2.1,2.527,2.527,0,0,1-3.281-1.819,4.556,4.556,0,0,1,2.981-5.226,2.558,2.558,0,0,1,3.292,2.071c.016.088.041.174.062.262Zm-5.353.869c-.007,1.622,1,2.359,2.223,1.843a3.588,3.588,0,0,0,2.028-3.422,1.513,1.513,0,0,0-1.319-1.5,1.753,1.753,0,0,0-1.121.265A3.475,3.475,0,0,0,16.027,201.3Z" transform="translate(6.556 -190.388)" fill="#2a2968" stroke="#2a2968" stroke-width="1.5"/>
      <path id="Path_360" data-name="Path 360" d="M4.324,183.522a4.572,4.572,0,0,1-.762,2.545,2.59,2.59,0,0,1-4.382.143,4.64,4.64,0,0,1,.01-5.377,2.588,2.588,0,0,1,4.365.145A4.57,4.57,0,0,1,4.324,183.522Zm-1.091.02a3.312,3.312,0,0,0-.652-2.04,1.485,1.485,0,0,0-2.525,0,3.494,3.494,0,0,0,0,4.048,1.484,1.484,0,0,0,2.524,0A3.315,3.315,0,0,0,3.232,183.542Z" transform="translate(16.741 -179.704)" fill="#2a2968" stroke="#2a2968" stroke-width="1.5"/>
      <path id="Path_361" data-name="Path 361" d="M-16.866,183.556a4.423,4.423,0,0,1-1.018,2.839,2.554,2.554,0,0,1-3.977,0,4.6,4.6,0,0,1-.185-5.5,2.593,2.593,0,0,1,4.4.072A4.6,4.6,0,0,1-16.866,183.556Zm-1.1.1a3.469,3.469,0,0,0-.67-2.187,1.48,1.48,0,0,0-2.476,0,3.5,3.5,0,0,0,0,4.113,1.481,1.481,0,0,0,2.491-.019A3.207,3.207,0,0,0-17.961,183.658Z" transform="translate(29.746 -179.703)" fill="#2a2968" stroke="#2a2968" stroke-width="1.5"/>
      <path id="Path_362" data-name="Path 362" d="M-34.214,201.814a2.672,2.672,0,0,1-.722,1.782,2.484,2.484,0,0,1-2.8.642,4.579,4.579,0,0,1-2.859-4.974,2.584,2.584,0,0,1,3.784-1.836A4.752,4.752,0,0,1-34.214,201.814Zm-1.075-.256c-.027-.216-.036-.427-.082-.629a3.34,3.34,0,0,0-2.21-2.622,1.407,1.407,0,0,0-1.922,1.167,3.515,3.515,0,0,0,.061,1.343,3.235,3.235,0,0,0,2.177,2.422,1.424,1.424,0,0,0,1.892-1.094C-35.328,201.952-35.316,201.751-35.289,201.558Z" transform="translate(40.663 -190.398)" fill="#2a2968" stroke="#2a2968" stroke-width="1.5"/>
      <path id="Path_363" data-name="Path 363" d="M18.743,237.735a.544.544,0,1,1-.524-.549A.546.546,0,0,1,18.743,237.735Z" transform="translate(4.881 -214.972)" fill="#2a2968" stroke="#2a2968" stroke-width="1.5"/>
    </g>
  </g>
</svg>
