<svg xmlns="http://www.w3.org/2000/svg" width="24.651" height="28" viewBox="0 0 24.651 28">
  <g id="TYdYZB.tif" transform="translate(478.965 21.789)">
    <g id="Group_608" data-name="Group 608" transform="translate(-478.965 -21.789)">
      <path id="Path_803" data-name="Path 803" d="M-448.65-21.789a2.615,2.615,0,0,1,1.219.871,1.61,1.61,0,0,1,1.482-.626c1.066.018,2.134.035,3.2,0a1.482,1.482,0,0,1,1.638,1.634c-.016.235,0,.472,0,.719.2.058.395.1.58.17a3.039,3.039,0,0,1,2.013,2.708c0,.073.008.146.01.219.015.685.015.685.664.863.272.074.546.143.815.226a1.866,1.866,0,0,1,1.344,1.794q.012,1.134,0,2.269a1.862,1.862,0,0,1-1.348,1.791q-.639.2-1.288.359a.213.213,0,0,0-.19.242c-.022.672-.026.672.609.849.289.081.58.156.867.244a1.866,1.866,0,0,1,1.35,1.789q.012,1.148,0,2.3A1.86,1.86,0,0,1-437-1.616a11.651,11.651,0,0,1-1.184.324c-.273.055-.338.184-.33.443.018.6.006,1.2.005,1.8a1.4,1.4,0,0,1-.017.272.373.373,0,0,1-.385.321.368.368,0,0,1-.394-.31,1.874,1.874,0,0,1-.023-.38q0-8.393,0-16.787a2.442,2.442,0,0,0-.439-1.545,2.268,2.268,0,0,0-1.917-.92q-5.728,0-11.455,0c-.082,0-.164,0-.246,0a.4.4,0,0,1-.423-.4.4.4,0,0,1,.418-.411c.319-.011.639.012.956-.011a.642.642,0,0,0,.376-.155c.551-.531,1.1-1.07,1.626-1.622a2.6,2.6,0,0,1,1.181-.793Zm10.158,7.22V-9.6c.469-.136.922-.237,1.35-.4a.948.948,0,0,0,.629-.912q.023-1.174,0-2.349a.947.947,0,0,0-.629-.912C-437.571-14.334-438.024-14.434-438.492-14.569Zm.009,7.551v4.966c.423-.117.82-.214,1.21-.337a1.032,1.032,0,0,0,.763-.99c.01-.774.012-1.549,0-2.323a.95.95,0,0,0-.625-.915C-437.566-6.783-438.02-6.883-438.483-7.018Zm-8.363-12.211h4.912c0-.278,0-.54,0-.8a.607.607,0,0,0-.692-.687c-.619-.005-1.239,0-1.858,0-.574,0-1.148-.006-1.721,0a.582.582,0,0,0-.64.649C-446.849-19.8-446.846-19.524-446.846-19.229Zm-4.168-.005h3.347c0-.23.008-.439,0-.647a.363.363,0,0,0-.089-.212c-.212-.225-.428-.448-.657-.656a.764.764,0,0,0-1.066-.016C-450-20.278-450.486-19.766-451.015-19.234Z" transform="translate(460.333 21.789)" fill="#2a2968"/>
      <path id="Path_804" data-name="Path 804" d="M-476.414-9.386c.015-.265.015-.491.042-.716a1.982,1.982,0,0,1,1.891-1.759,4.26,4.26,0,0,1,.492,0,.415.415,0,0,1,.41.425.41.41,0,0,1-.415.389c-.127.008-.255,0-.383,0a1.168,1.168,0,0,0-1.189,1.087c-.018.178,0,.359,0,.533,1.322.258,1.707.656,1.692,1.727-.014.959-.462,1.385-1.684,1.586v1.867c1.188.17,1.664.612,1.683,1.551.022,1.091-.368,1.5-1.682,1.747V.949a1.571,1.571,0,0,1,1.367.563,1.68,1.68,0,0,1,.316,1.158c-.025.937-.479,1.363-1.684,1.557V6.1c1.264.177,1.706.639,1.683,1.744-.02.943-.537,1.425-1.646,1.536a1.226,1.226,0,0,0,1.143,1.644c.383.012.765,0,1.148,0h7.205l.043-.077c-.139-.126-.286-.244-.416-.378a1.586,1.586,0,0,1,0-2.319q1-1.014,2.01-2.01a1.582,1.582,0,0,1,2.319,0q1.257,1.237,2.494,2.493a1.576,1.576,0,0,1,.28,1.955c-.018.036-.035.073-.076.16a2.164,2.164,0,0,0,.909-.655.846.846,0,0,1,.234-.224.378.378,0,0,1,.493.1.4.4,0,0,1-.006.529,2.789,2.789,0,0,1-2.01,1.186,1.549,1.549,0,0,0-1.136.567,9.523,9.523,0,0,1-.733.736,1.587,1.587,0,0,1-2.261-.009q-.533-.511-1.042-1.045a.6.6,0,0,0-.477-.2q-4.442.009-8.884,0a1.981,1.981,0,0,1-2.04-1.518,7.637,7.637,0,0,1-.1-.966c-.35,0-.71.009-1.07,0a1.414,1.414,0,0,1-1.394-1.13c-.282-1.377.55-2.175,1.621-2.106.218.014.437,0,.656,0h.2V4.2c-.365,0-.718.01-1.071,0a1.477,1.477,0,0,1-1.441-1.284,1.574,1.574,0,0,1,1.047-1.891,2.674,2.674,0,0,1,.621-.063c.272-.01.544,0,.861,0V-.979c-.335,0-.65-.005-.965,0a1.388,1.388,0,0,1-1.44-.879,1.739,1.739,0,0,1,.231-1.854,1.381,1.381,0,0,1,1.081-.5c.353-.005.707,0,1.076,0V-6.14c-.365,0-.718.01-1.071,0a1.476,1.476,0,0,1-1.442-1.283,1.576,1.576,0,0,1,1.046-1.892,2.7,2.7,0,0,1,.621-.066C-476.986-9.394-476.714-9.386-476.414-9.386ZM-462.75,12.8a2.462,2.462,0,0,0,.545-.3q1.051-1.016,2.07-2.064a.742.742,0,0,0,0-1.1q-1.253-1.277-2.53-2.531a.754.754,0,0,0-1.14.012q-1.013,1-2.009,2.009a.762.762,0,0,0,0,1.162c.825.836,1.654,1.669,2.5,2.488A2.63,2.63,0,0,0-462.75,12.8ZM-476.387-8.565c-.346,0-.693-.009-1.039,0-.48.016-.69.274-.688.82,0,.508.233.774.7.78q1,.013,2,0c.485-.005.716-.271.717-.8s-.219-.791-.706-.805C-475.731-8.573-476.059-8.565-476.387-8.565Zm-.036,6.765c.336,0,.672,0,1.009,0,.5-.006.721-.259.718-.813,0-.525-.235-.778-.725-.781-.6,0-1.2,0-1.8,0-.7,0-.912.213-.892.912a.639.639,0,0,0,.682.682C-477.1-1.8-476.759-1.8-476.423-1.8Zm.02,10.338c.328,0,.656,0,.984,0,.506-.008.726-.258.722-.813,0-.525-.237-.78-.728-.782-.6,0-1.2,0-1.8,0-.691,0-.9.212-.884.9a.642.642,0,0,0,.7.7C-477.078,8.544-476.741,8.539-476.4,8.539Zm-.021-5.161c.337,0,.674.005,1.011,0,.484-.01.715-.271.716-.8s-.218-.794-.707-.8q-1-.012-2,0c-.5.006-.717.261-.714.819,0,.518.239.773.733.78C-477.062,3.382-476.744,3.378-476.425,3.378Z" transform="translate(478.965 14.441)" fill="#2a2968"/>
      <path id="Path_805" data-name="Path 805" d="M-444.78,2.651q2,0,3.991,0a1.535,1.535,0,0,1,1.641,1.639c0,.62,0,1.239,0,1.859a1.528,1.528,0,0,1-1.613,1.613q-4.032.009-8.064,0a1.527,1.527,0,0,1-1.614-1.612q-.009-.943,0-1.886a1.532,1.532,0,0,1,1.64-1.612Q-446.789,2.649-444.78,2.651Zm-.01,4.293q1.968,0,3.936,0c.631,0,.884-.252.886-.873q0-.875,0-1.749a.74.74,0,0,0-.852-.849q-3.977,0-7.954,0a.734.734,0,0,0-.845.829c0,.583,0,1.166,0,1.749,0,.645.248.892.894.893Q-446.757,6.946-444.789,6.944Z" transform="translate(457.84 3.688)" fill="#2a2968"/>
      <path id="Path_806" data-name="Path 806" d="M-432.378,31.73a1.363,1.363,0,0,1,1.3,1.415,1.367,1.367,0,0,1-1.31,1.4,1.363,1.363,0,0,1-1.308-1.431A1.356,1.356,0,0,1-432.378,31.73Zm-.5,1.407a.542.542,0,0,0,.486.587.544.544,0,0,0,.49-.586.544.544,0,0,0-.488-.586A.539.539,0,0,0-432.878,33.137Z" transform="translate(445.439 -17.85)" fill="#2a2968"/>
      <path id="Path_807" data-name="Path 807" d="M-446.807,31.509c0-.109,0-.218,0-.327a.378.378,0,0,1,.378-.389.369.369,0,0,1,.421.34,3.514,3.514,0,0,1,0,.787.363.363,0,0,1-.425.332.375.375,0,0,1-.373-.39C-446.814,31.745-446.808,31.627-446.807,31.509Z" transform="translate(455.149 -17.155)" fill="#2a2968"/>
      <path id="Path_808" data-name="Path 808" d="M-412.86,31.529c0,.118.009.237,0,.354a.375.375,0,0,1-.366.37.364.364,0,0,1-.431-.325,3.489,3.489,0,0,1,0-.787.371.371,0,0,1,.417-.347.38.38,0,0,1,.386.382C-412.852,31.292-412.86,31.411-412.86,31.529Z" transform="translate(430.614 -17.156)" fill="#2a2968"/>
      <path id="Path_809" data-name="Path 809" d="M-394.749,6.049c.469.135.921.235,1.35.4a.947.947,0,0,1,.629.912q.023,1.174,0,2.349a.948.948,0,0,1-.629.912c-.428.164-.881.265-1.35.4Z" transform="translate(416.59 1.171)" fill="#ffdc55"/>
      <path id="Path_810" data-name="Path 810" d="M-394.715,35.166c.464.135.918.235,1.346.4a.95.95,0,0,1,.626.915c.014.774.012,1.549,0,2.323a1.032,1.032,0,0,1-.763.99c-.39.123-.787.22-1.21.337Z" transform="translate(416.565 -20.395)" fill="#ffdc55"/>
      <path id="Path_811" data-name="Path 811" d="M-426.964-16.179c0-.295,0-.567,0-.839a.582.582,0,0,1,.64-.649c.574-.008,1.147,0,1.721,0,.619,0,1.238,0,1.858,0a.607.607,0,0,1,.692.687c0,.262,0,.524,0,.8Z" transform="translate(440.451 18.739)" fill="#ffdc55"/>
      <path id="Path_812" data-name="Path 812" d="M-443.034-16.911c.529-.531,1.019-1.044,1.531-1.532a.764.764,0,0,1,1.066.016c.229.208.445.431.657.656a.363.363,0,0,1,.089.212c.012.208,0,.417,0,.647Z" transform="translate(452.352 19.466)" fill="#ffdc55"/>
      <path id="Path_813" data-name="Path 813" d="M-473.958.857c.328,0,.656-.008.984,0,.487.014.707.271.706.805s-.232.791-.717.8q-1,.012-2,0c-.471-.006-.7-.273-.7-.78,0-.546.208-.8.688-.82C-474.651.848-474.3.857-473.958.857Z" transform="translate(476.536 5.018)" fill="#ffdc55"/>
      <path id="Path_814" data-name="Path 814" d="M-474,22.394c-.336,0-.672,0-1.009,0a.639.639,0,0,1-.682-.682c-.02-.7.189-.912.892-.912.6,0,1.2,0,1.8,0,.49,0,.722.256.725.781,0,.554-.217.807-.718.813C-473.324,22.4-473.66,22.394-474,22.394Z" transform="translate(476.538 -9.753)" fill="#ffdc55"/>
      <path id="Path_815" data-name="Path 815" d="M-473.976,62.252c-.337,0-.675.005-1.012,0a.642.642,0,0,1-.7-.7c-.015-.687.193-.9.884-.9.6,0,1.2,0,1.8,0,.492,0,.725.257.728.782,0,.555-.216.805-.722.813C-473.32,62.257-473.648,62.253-473.976,62.252Z" transform="translate(476.537 -39.273)" fill="#ffdc55"/>
      <path id="Path_816" data-name="Path 816" d="M-474,42.332c-.319,0-.638,0-.957,0-.494-.008-.731-.263-.733-.78,0-.558.213-.813.714-.819q1-.011,2,0c.49.006.708.263.707.8s-.232.789-.716.8C-473.321,42.337-473.658,42.332-474,42.332Z" transform="translate(476.536 -24.513)" fill="#ffdc55"/>
      <path id="Path_817" data-name="Path 817" d="M-442.442,9.287q-1.968,0-3.936,0c-.646,0-.892-.248-.894-.893,0-.583,0-1.166,0-1.749a.734.734,0,0,1,.845-.829q3.977,0,7.954,0a.74.74,0,0,1,.852.849q0,.875,0,1.749c0,.622-.255.872-.886.873Q-440.474,9.289-442.442,9.287Z" transform="translate(455.493 1.345)" fill="#ffdc55"/>
    </g>
  </g>
</svg>
