<svg xmlns="http://www.w3.org/2000/svg" width="32" height="41.999" viewBox="0 0 32 41.999">
  <g id="mark" transform="translate(521.557 116.006)">
    <path id="Path_524" data-name="Path 524" d="M-505.111-74.007h-.873a6.666,6.666,0,0,1-1.325-.738,56.225,56.225,0,0,1-4.925-4.986,51.308,51.308,0,0,1-4.427-5.84,34.514,34.514,0,0,1-3.246-6.208,22.136,22.136,0,0,1-1.5-5.955c-.037-.395-.1-.788-.146-1.182v-1.716c.026-.132.057-.265.077-.4.118-.78.192-1.569.356-2.337a15.864,15.864,0,0,1,2.418-5.627,16.227,16.227,0,0,1,5.2-4.9,16.682,16.682,0,0,1,4.383-1.783,10.224,10.224,0,0,1,2.3-.313,24.422,24.422,0,0,1,3.671.1,17.723,17.723,0,0,1,3,.8,13.059,13.059,0,0,1,3.456,1.755,16.077,16.077,0,0,1,4.789,5.1,16.409,16.409,0,0,1,2.352,8.211,18.727,18.727,0,0,1-.3,3.563,25.632,25.632,0,0,1-2.086,6.434,37.246,37.246,0,0,1-3.872,6.473c-1.071,1.446-2.192,2.86-3.38,4.2-1.122,1.27-2.349,2.443-3.551,3.636A5.428,5.428,0,0,1-505.111-74.007Zm-.537-40.706a14.325,14.325,0,0,0-14.179,14.459,14.327,14.327,0,0,0,14.145,14.529,14.322,14.322,0,0,0,14.212-14.494A14.324,14.324,0,0,0-505.648-114.712Z" transform="translate(0 0)" fill="#ef2835"/>
    <path id="Path_525" data-name="Path 525" d="M-504.585-113.933a14.3,14.3,0,0,1,14.138,14.494,14.3,14.3,0,0,1-14.171,14.494,14.308,14.308,0,0,1-14.1-14.529A14.305,14.305,0,0,1-504.585-113.933Zm4.337,18.57a3.3,3.3,0,0,1-1.2-.187,5.051,5.051,0,0,1-1.155-1.109.44.44,0,0,1,.216-.725,8.783,8.783,0,0,0,1.991-1.429,1.089,1.089,0,0,0,.444-.844.849.849,0,0,1,.419-.734,1.641,1.641,0,0,0,.759-1.124c.083-.493.106-1,.152-1.5a7.752,7.752,0,0,1,.065-.784c.062-.317.229-.367.473-.164.133.11.25.24.38.368.037-.055.054-.083.074-.109l.4-.51c.168.183.337.364.5.548a.267.267,0,0,1,.037.095A8.158,8.158,0,0,0-495.246-101c.852,1.084,1.678,2.19,2.516,3.286.038.051.083.1.137.155a12.568,12.568,0,0,0-6.488-13,12.044,12.044,0,0,0-15.343,3.47,12.634,12.634,0,0,0-1.2,13.426c.159-.212.314-.432.481-.642a11.249,11.249,0,0,0,1.633-2.458c.278-.636.239-.761-.362-1.063a2.414,2.414,0,0,1-1.353-1.878,5.288,5.288,0,0,1,1.078-4.374,2.3,2.3,0,0,0,.45-1.119,2.343,2.343,0,0,1,.384-1.073,6.268,6.268,0,0,1,1.395-1.3,6.05,6.05,0,0,1,7.769,1.1,1.956,1.956,0,0,1,.512,1.794c-.038.19-.08.38-.12.57a6.267,6.267,0,0,0,.136,3.644c.215.558.181.7-.284,1.091a2.459,2.459,0,0,0-.915,1.834c-.005.1-.008.206-.019.308a.806.806,0,0,1-.978.814c-.5-.053-1-.105-1.492-.193-1.156-.2-1.355-.11-1.837.98a3.157,3.157,0,0,0,.459,3.715c.534.583,1.012,1.218,1.522,1.823a11.7,11.7,0,0,1,2.221,3.195c.029.075.192.138.292.137a11.849,11.849,0,0,0,5.17-1.216.492.492,0,0,0,.229-.348,12.769,12.769,0,0,1,.444-2.729,13.964,13.964,0,0,0,.288-1.986.57.57,0,0,0-.12-.376.871.871,0,0,1-.05-1.1.517.517,0,0,0,0-.646c-.065.027-.125.05-.183.077a9.433,9.433,0,0,1-1.066.488c-.153.051-.359-.068-.541-.11a4.569,4.569,0,0,1,.108-.447A.853.853,0,0,1-500.248-95.363Z" transform="translate(-1.066 -0.779)" fill="#fff"/>
    <path id="Path_526" data-name="Path 526" d="M-499.214-94.189a.852.852,0,0,0-.121.2,4.568,4.568,0,0,0-.108.447c.181.042.386.16.539.11a9.38,9.38,0,0,0,1.062-.488c.058-.027.118-.05.183-.077a.518.518,0,0,1,0,.646.874.874,0,0,0,.05,1.1.572.572,0,0,1,.12.376,14.015,14.015,0,0,1-.287,1.985,12.815,12.815,0,0,0-.442,2.729.492.492,0,0,1-.229.348,11.767,11.767,0,0,1-5.151,1.216c-.1,0-.261-.061-.29-.137a11.7,11.7,0,0,0-2.213-3.195c-.508-.605-.985-1.24-1.516-1.823a3.167,3.167,0,0,1-.457-3.715c.48-1.09.679-1.184,1.83-.98.492.087.99.14,1.487.193a.8.8,0,0,0,.974-.814c.011-.1.013-.205.019-.308a2.462,2.462,0,0,1,.912-1.834c.463-.391.5-.534.283-1.091a6.289,6.289,0,0,1-.136-3.644c.04-.19.082-.379.119-.57a1.961,1.961,0,0,0-.51-1.794,6.011,6.011,0,0,0-7.739-1.1,6.252,6.252,0,0,0-1.39,1.3,2.347,2.347,0,0,0-.383,1.073,2.3,2.3,0,0,1-.449,1.119,5.3,5.3,0,0,0-1.074,4.374,2.413,2.413,0,0,0,1.348,1.878c.6.3.637.427.36,1.063a11.249,11.249,0,0,1-1.627,2.458c-.167.21-.321.43-.48.642a12.673,12.673,0,0,1,1.194-13.426,11.97,11.97,0,0,1,15.285-3.47,12.584,12.584,0,0,1,6.463,13c-.053-.06-.1-.1-.136-.155-.834-1.1-1.657-2.2-2.506-3.286a8.167,8.167,0,0,1-1.441-2.566.267.267,0,0,0-.037-.095c-.166-.185-.334-.366-.5-.548l-.4.51c-.02.026-.037.054-.074.109-.13-.128-.247-.258-.379-.368-.243-.2-.409-.153-.471.164a7.8,7.8,0,0,0-.065.784c-.045.5-.068,1-.151,1.5a1.641,1.641,0,0,1-.756,1.124.849.849,0,0,0-.417.734,1.09,1.09,0,0,1-.442.844,8.751,8.751,0,0,1-1.984,1.429.44.44,0,0,0-.215.725,5.041,5.041,0,0,0,1.151,1.109A3.273,3.273,0,0,0-499.214-94.189Z" transform="translate(-2.12 -1.954)" fill="#ef2835"/>
  </g>
</svg>
