<svg xmlns="http://www.w3.org/2000/svg" width="47.869" height="46.832" viewBox="0 0 47.869 46.832">
  <g id="gUTxPx.tif" transform="translate(0.5 0.5)">
    <g id="Group_512" data-name="Group 512" transform="translate(0 0)">
      <path id="Path_684" data-name="Path 684" d="M-220.01,56.733c.366.361-1.769-4.54-1.19-3.968.707.7.34-4.072,1.639-2.3,1,1.364,10.691,9.484,13.628,13.824,1.075,1.587-3.335,1.138-3.335,1.138s-3.175-1.222-2.736-.788a32.465,32.465,0,0,0-11.1,14.88,12.017,12.017,0,0,1,2.407,5.359c.3,2.067-.836,4.86-2.407,5.021-1.154.113-8.725-10.547-10.266-9.621-4.828,2.9-9.426,10.877-13.714,13.322-3.765,2.147-.441-.2-3.2.938-2.531,1.045,1.572-3.522.5-3.668-1.37-.185,14.81-12.849,13.631-13.426-5.065-2.48-6.328-7.754-8.981-9.815-2.321-1.8,3.85-2.2,3.85-2.2s7.1,3.159,6.133,2.2A32.415,32.415,0,0,0-220.01,56.733Z" transform="translate(251.538 -49.42)" fill="#ffdc55"/>
      <path id="Path_683" data-name="Path 683" d="M-278.8,82.031c.183-.921.389-1.839.537-2.766a2.006,2.006,0,0,1,.631-1.218c.866-.815,1.693-1.672,2.546-2.5a.668.668,0,0,1,1.161.151.683.683,0,0,1-.225.854c-.806.79-1.617,1.576-2.4,2.385a1.444,1.444,0,0,0-.348.654c-.143.62-.235,1.251-.362,1.958.8-.143,1.548-.267,2.288-.415a.769.769,0,0,0,.328-.232q6.451-6.363,12.9-12.73c.063-.062.118-.133.156-.176l-1.9-1.949c-.144.139-.294.28-.441.424l-7.621,7.522c-.065.064-.128.132-.2.19a.655.655,0,0,1-.942-.023.635.635,0,0,1-.022-.94c.213-.238.451-.455.679-.68q3.6-3.552,7.2-7.1a2.219,2.219,0,0,1,.38-.255c-1-1.032-1.9-1.984-2.831-2.907q-3.261-3.242-6.545-6.463c-.575-.568-.564-.888.048-1.441a7.762,7.762,0,0,1,9.934-.3.762.762,0,0,0,.592.161A30.28,30.28,0,0,0-248.383,43.7c.036-.048.066-.1-.027-.118a16.255,16.255,0,0,1-.744-2.313,4.28,4.28,0,0,1,1.169-3.7.711.711,0,0,1,1.177-.045q1.182,1.146,2.349,2.311a.672.672,0,0,1,.08,1.04.654.654,0,0,1-1.039-.063c-.609-.618-1.2-1.256-1.855-1.95a2.989,2.989,0,0,0-.428,2.715,3.906,3.906,0,0,0,.849,1.43q4.508,4.52,9.077,8.979a3.24,3.24,0,0,0,4.061.445c-.7-.716-1.4-1.441-2.113-2.149q-3.593-3.558-7.2-7.1c-.237-.234-.452-.468-.317-.836a.7.7,0,0,1,1.216-.2q1.864,1.825,3.717,3.661,3.012,2.974,6.023,5.949c.621.614.6.945-.061,1.491a4.724,4.724,0,0,1-5.393.4.6.6,0,0,0-.794.054,30.2,30.2,0,0,0-9.4,11.667c-.417.879-.74,1.8-1.122,2.7a.555.555,0,0,0,.114.656,7.249,7.249,0,0,1,1.606,3.486,3.163,3.163,0,0,1,.044.409.59.59,0,0,1-.548.667.617.617,0,0,1-.775-.465c-.076-.278-.1-.57-.173-.85A6.255,6.255,0,0,0-250.625,69q-6.777-6.684-13.553-13.369a6.314,6.314,0,0,0-7.829-.886c-.179.109-.348.234-.566.38l22.482,22.191a5.735,5.735,0,0,0,1.108-2.021.641.641,0,0,1,.785-.516.636.636,0,0,1,.541.838,7.173,7.173,0,0,1-1.878,3.145c-.359.358-.708.326-1.117-.073-.971-.948-1.934-1.905-2.9-2.859l-7.107-7.015a4.007,4.007,0,0,1-.423.61q-6.294,6.229-12.594,12.452a2.131,2.131,0,0,1-1.254.666c-.95.133-1.894.312-2.838.487a.855.855,0,0,1-1.037-.454Zm31.528-37.488a32.415,32.415,0,0,1-15.142,10.9l12.049,11.889a32.465,32.465,0,0,1,11.1-14.88Z" transform="translate(278.805 -37.23)" fill="#2a2968" stroke="#2a2968" stroke-width="1"/>
    </g>
  </g>
</svg>
