<svg xmlns="http://www.w3.org/2000/svg" width="46.744" height="37.105" viewBox="0 0 46.744 37.105">
  <g id="YbdtgT.tif" transform="translate(311.168 53.323)">
    <path id="Path_672" data-name="Path 672" d="M-296.1-51.365l-3.882,8.171-8.155,2.165,4.058,6.344-4.058,6.233,8.155,2.03,3.407,7.565,8.637-5.292,9.6,5.914,3.554-8.187,9.133-2.03-6.174-6.792,5.551-6.576-9.511-1.375-3.135-8.171-8.593,5.549Z" fill="#ffdc55"/>
    <g id="Group_427" data-name="Group 427" transform="translate(-310.678 -52.823)">
      <path id="Path_667" data-name="Path 667" d="M-264.923-27.353a1.521,1.521,0,0,1-1.191.643c-2.723.392-5.442.819-8.165,1.217-.264.039-.335.179-.416.38q-1.5,3.722-3.01,7.441c-.039.1-.075.194-.117.289a.908.908,0,0,1-1.482.438c-1.282-.841-2.557-1.69-3.836-2.535-1.427-.944-2.863-1.875-4.276-2.84a.587.587,0,0,0-.78.018q-3.957,2.634-7.93,5.245c-.87.575-1.352.423-1.747-.551-.992-2.453-1.99-4.9-2.966-7.363a.76.76,0,0,0-.68-.563c-2.695-.385-5.385-.8-8.078-1.194-.426-.063-.823-.147-1.012-.6s.048-.8.313-1.133c1.564-1.989,3.119-3.986,4.692-5.968a.45.45,0,0,0,0-.678c-1.572-1.982-3.128-3.979-4.691-5.968-.266-.338-.5-.671-.31-1.133s.588-.539,1.014-.6c2.722-.4,5.442-.823,8.165-1.213a.624.624,0,0,0,.556-.464c1-2.484,1.988-4.968,3.013-7.439a4.407,4.407,0,0,1,.675-.893h.536c.422.276.848.546,1.266.828.551.37.707.863.428,1.323s-.777.531-1.364.206c-.037-.021-.08-.034-.17-.072-.064.146-.131.286-.189.431-.927,2.288-1.862,4.571-2.771,6.866a1.285,1.285,0,0,1-1.14.9c-2.416.334-4.827.711-7.239,1.074-.072.011-.141.038-.277.077.116.153.207.278.3.4q2.065,2.637,4.131,5.273a.982.982,0,0,1,0,1.508q-2.05,2.621-4.1,5.239c-.1.127-.194.259-.338.453.78.12,1.506.234,2.233.343q2.758.413,5.517.821a1.053,1.053,0,0,1,.861.742q1.376,3.437,2.773,6.865c.072.176.15.35.246.572.2-.124.374-.226.543-.337q3.688-2.436,7.374-4.874a1.067,1.067,0,0,1,1.537,0l7.375,4.874c.16.105.322.208.534.346.093-.215.176-.4.251-.584.921-2.273,1.849-4.544,2.754-6.824a1.189,1.189,0,0,1,1.058-.806c2.43-.345,4.856-.718,7.283-1.082a2.823,2.823,0,0,0,.277-.076c-.124-.165-.224-.3-.328-.434q-2.065-2.637-4.132-5.273a.96.96,0,0,1,0-1.436q2.064-2.638,4.131-5.273c.1-.127.2-.258.345-.454-.784-.121-1.509-.235-2.234-.344q-2.758-.413-5.517-.821a1.052,1.052,0,0,1-.864-.739q-1.376-3.437-2.773-6.865c-.072-.176-.15-.35-.247-.575-.16.1-.3.175-.428.262l-7.486,4.948a1.068,1.068,0,0,1-1.537,0c-.3-.2-.6-.387-.89-.6a.9.9,0,0,1-.28-1.251.837.837,0,0,1,1.249-.218c.535.463.916.3,1.423-.04,2.517-1.7,5.06-3.356,7.593-5.028l.519-.341h.536a4.385,4.385,0,0,1,.675.892c1.03,2.483,2.023,4.98,3.043,7.468.065.16.24.365.389.388q4.117.651,8.243,1.249a1.486,1.486,0,0,1,1.145.638v.625l-.489.618q-2.3,2.929-4.6,5.854c-.169.214-.225.359-.03.605,1.714,2.162,3.412,4.336,5.115,6.506Z" transform="translate(310.678 52.823)" fill="#2a2968" stroke="#2a2968" stroke-width="1"/>
      <path id="Path_668" data-name="Path 668" d="M-254.617-22.869l-1.4,4.5c-.035.114-.063.23-.107.34a1.082,1.082,0,0,1-1.078.71,1.029,1.029,0,0,1-.966-.847q-.772-3.824-1.515-7.655a.885.885,0,0,1,.719-1.135.914.914,0,0,1,1.032.824c.288,1.413.561,2.829.84,4.243.026.13.058.259.11.486.075-.193.124-.3.159-.408q.674-2.171,1.344-4.343c.171-.552.475-.817.925-.809.433.008.716.255.886.8q.657,2.106,1.306,4.215a.984.984,0,0,0,.23.422q.2-.986.4-1.971c.177-.874.346-1.75.529-2.623a.9.9,0,0,1,1.071-.811.912.912,0,0,1,.668,1.17q-.734,3.718-1.472,7.436a1.112,1.112,0,0,1-1.025,1.007,1.09,1.09,0,0,1-1.12-.894q-.728-2.338-1.447-4.677Z" transform="translate(285.775 40.189)" fill="#2a2968" stroke="#2a2968" stroke-width="1"/>
      <path id="Path_669" data-name="Path 669" d="M-290.537-23.007q0,2.188,0,4.375c0,.149.006.3,0,.446a.887.887,0,0,1-.843.875.9.9,0,0,1-.93-.836c-.024-.266-.01-.535-.01-.8q0-3.416,0-6.832a1.64,1.64,0,0,1,.1-.652.88.88,0,0,1,1.585-.034c1.167,1.671,2.32,3.351,3.479,5.028a.946.946,0,0,0,.352.344q0-1.175,0-2.349c0-.848-.006-1.7,0-2.545a.883.883,0,0,1,.886-.965.907.907,0,0,1,.895.969c.013.893,0,1.786,0,2.679v4.466c0,.119,0,.238,0,.357a1.059,1.059,0,0,1-.744,1.053,1.013,1.013,0,0,1-1.142-.5q-1.643-2.364-3.274-4.736c-.09-.129-.185-.254-.277-.381Z" transform="translate(301.713 40.185)" fill="#2a2968" stroke="#2a2968" stroke-width="1"/>
      <path id="Path_670" data-name="Path 670" d="M-272.055-21.248V-19.1h1.928c.164,0,.328-.008.491,0a.9.9,0,0,1,.866.9.878.878,0,0,1-.852.869c-1.131.02-2.263.023-3.393,0-.553-.011-.846-.4-.847-1.044q-.006-3.773,0-7.546c0-.059,0-.119.005-.178a.859.859,0,0,1,.889-.867q1.652-.022,3.3,0a.889.889,0,0,1,.9.873.9.9,0,0,1-.912.9c-.784.015-1.569,0-2.373,0v2.147c.69,0,1.37,0,2.05,0a.913.913,0,0,1,.954.651.9.9,0,0,1-.911,1.131C-270.645-21.237-271.328-21.248-272.055-21.248Z" transform="translate(292.693 40.193)" fill="#2a2968" stroke="#2a2968" stroke-width="1"/>
      <path id="Path_671" data-name="Path 671" d="M-275.682-46.916a.874.874,0,0,1,.866.89.9.9,0,0,1-.887.881.905.905,0,0,1-.892-.925A.88.88,0,0,1-275.682-46.916Z" transform="translate(294.027 49.937)" fill="#2a2968" stroke="#2a2968" stroke-width="1"/>
    </g>
  </g>
</svg>
