<svg xmlns="http://www.w3.org/2000/svg" width="59.059" height="65.474" viewBox="0 0 59.059 65.474">
  <g id="Group_802" data-name="Group 802" transform="matrix(0.951, 0.309, -0.309, 0.951, 16.814, 0)">
    <path id="Path_1212" data-name="Path 1212" d="M6.2,18.827.857,25.571l.458,4.58L23.361,52.32l3.864,1.5,7.955-5.605,8.094-8.669L42.28,33.7,26.758,17.177s6.436,1.139,9.477-2.17S39.822,5.406,35.181,2,23.857.974,16.349,2.749s-8.928,4.792-10.871,7.6c-.867,1.254.476,9.5,1.64,10.256L10.3,17.177l-1.39-2.815S8.1,9.236,14.3,7.139,30.143,3.539,33.386,5.6s2.406,5.185-.513,6.594-10.344,0-10.344,0a7.833,7.833,0,0,0-7.3-.747C11.15,13.108,6.2,18.827,6.2,18.827Z" transform="translate(0.158 0.05)" fill="#ffdc55"/>
    <path id="Path_1193" data-name="Path 1193" d="M-321.33,114.522c-.271-.068-.542-.139-.814-.2a6.82,6.82,0,0,1-3.148-1.681c-.594-.557-1.163-1.141-1.734-1.723a.8.8,0,0,1-.066-1.216.815.815,0,0,1,1.183.089c.5.48.974.981,1.468,1.463a5.5,5.5,0,0,0,7.945-.021q5.071-5.038,10.108-10.109a5.471,5.471,0,0,0,.024-7.979q-9.824-9.867-19.69-19.692a5.474,5.474,0,0,0-8.017.02c-.983.968-1.952,1.951-3.008,3.007.584.692,1.143,1.37,1.719,2.034a2.647,2.647,0,0,1,.062,3.5,2.607,2.607,0,0,1-3.866.143c-.587-.585-1.113-1.232-1.729-1.92-1.329,1.393-2.771,2.7-3.957,4.2a5.328,5.328,0,0,0,.339,6.722c.233.267.486.515.737.765q7.4,7.4,14.805,14.806c.594.594.689,1.07.295,1.447s-.836.264-1.409-.309q-7.554-7.553-15.106-15.107a7.1,7.1,0,0,1-.006-10.418q1.6-1.6,3.195-3.194c.164-.164.311-.282.155-.577-2.5-4.721-1.067-9.37,2.788-12.589a22.2,22.2,0,0,1,8.4-4.169,49.626,49.626,0,0,1,14.241-1.69,8.256,8.256,0,0,1,4.619,1.537.8.8,0,0,1,.275,1.11.748.748,0,0,1-1.067.251,9.168,9.168,0,0,0-5.893-1.315,46.061,46.061,0,0,0-12.966,2.007,18.559,18.559,0,0,0-7.168,4.01,8.481,8.481,0,0,0-2.85,5.591,8.137,8.137,0,0,0,.844,4.166,12.611,12.611,0,0,0,2.468,3.435,1.04,1.04,0,0,0,1.591.115c.431-.433.365-1-.079-1.566a19.761,19.761,0,0,1-2.027-2.772,5.6,5.6,0,0,1,.693-6.584,13.172,13.172,0,0,1,5.356-3.716,31.006,31.006,0,0,1,9.251-2.229c2.253-.212,4.523-.321,6.786-.333a5.092,5.092,0,0,1,4.82,3.806,5.226,5.226,0,0,1-5.462,6.636c-1.9-.171-3.768-.608-5.65-.927-.347-.059-.692-.129-1.162-.217.152.189.223.293.309.383a6.673,6.673,0,0,1,.558.568,5.353,5.353,0,0,0,4.156,2.16,11.084,11.084,0,0,0,4.57-.239,7.362,7.362,0,0,0,4.258-10.1c-.061-.128-.134-.25-.188-.381a.781.781,0,0,1,.364-1.077.76.76,0,0,1,1.039.354,7.994,7.994,0,0,1,1.027,3.267,8.84,8.84,0,0,1-7.712,9.824,20.284,20.284,0,0,1-3.438-.065c-.08,0-.16-.016-.24-.025l-.152.177a2.789,2.789,0,0,1,.543.337q6.716,6.7,13.426,13.4a7.56,7.56,0,0,1,2.4,4.61.429.429,0,0,0,.073.136v1.276a2.79,2.79,0,0,0-.1.354,6.817,6.817,0,0,1-1.939,3.981q-5.223,5.249-10.471,10.473a6.637,6.637,0,0,1-2.955,1.7c-.371.1-.747.19-1.12.285Zm-16.33-39.617c1-1.029,1.846-1.982,2.774-2.85A7.069,7.069,0,0,1-326.66,71a2.538,2.538,0,0,0,.747.24c1.236.214,2.476.407,3.714.613,1.69.281,3.37.665,5.072.826a3.624,3.624,0,0,0,3.879-4.416,3.516,3.516,0,0,0-3.441-2.846c-2.491.069-4.988.186-7.464.451a26.544,26.544,0,0,0-8.563,2.313,10.588,10.588,0,0,0-4.2,3.154A4.087,4.087,0,0,0-337.66,74.905Z" transform="translate(347.467 -60.111)" fill="#2a2968"/>
    <path id="Path_1194" data-name="Path 1194" d="M-303.874,140.635c-.44-.417-.835-.769-1.2-1.146a2.646,2.646,0,0,1-.047-3.768,2.641,2.641,0,0,1,3.769-.012c.385.364.734.766,1.154,1.207.39-.388.733-.732,1.079-1.074a2.652,2.652,0,0,1,3.881-.14,2.669,2.669,0,0,1-.113,3.885c-.333.34-.677.669-1.16,1.144.461.4.919.733,1.306,1.137a2.515,2.515,0,0,1,.581,2.751,2.532,2.532,0,0,1-2.221,1.729,2.5,2.5,0,0,1-2.127-.755c-.388-.383-.745-.8-1.2-1.292-.421.463-.746.858-1.109,1.214a2.643,2.643,0,0,1-3.843.051,2.654,2.654,0,0,1,.1-3.806C-304.678,141.393-304.3,141.048-303.874,140.635Zm3.712,1.756a5.029,5.029,0,0,1,.677.455c.527.5,1.024,1.028,1.546,1.532a1.057,1.057,0,0,0,1.562.091,1.087,1.087,0,0,0-.074-1.6c-.505-.521-1.03-1.023-1.535-1.543-.488-.5-.483-.865.012-1.371s1.031-1.021,1.535-1.543a1.079,1.079,0,0,0,.087-1.562,1.059,1.059,0,0,0-1.6.076c-.508.493-1,1-1.5,1.5-.532.524-.908.52-1.448-.012-.5-.5-1-1.007-1.5-1.5a1.045,1.045,0,0,0-1.556-.086,1.066,1.066,0,0,0,.068,1.6c.5.521,1.028,1.024,1.535,1.543a.84.84,0,0,1-.011,1.373c-.495.506-1,1-1.5,1.5a1.075,1.075,0,0,0-.119,1.6,1.066,1.066,0,0,0,1.634-.111c.505-.5.992-1.011,1.508-1.5A4.585,4.585,0,0,1-300.162,142.391Z" transform="translate(318.413 -112.388)" fill="#2a2968"/>
    <path id="Path_1195" data-name="Path 1195" d="M-270.148,159.111a4.461,4.461,0,0,1-.468.73q-5.249,5.27-10.515,10.523c-.435.435-.914.475-1.257.13s-.3-.819.135-1.256q4.374-4.38,8.752-8.755c.613-.614,1.2-1.258,1.856-1.823a1.144,1.144,0,0,1,.9-.183C-270.523,158.534-270.366,158.867-270.148,159.111Z" transform="translate(302.151 -128.83)" fill="#2a2968"/>
    <path id="Path_1196" data-name="Path 1196" d="M-259.911,169.346a5.278,5.278,0,0,1-.514.758q-5.231,5.25-10.477,10.485c-.436.436-.913.477-1.257.133s-.3-.82.133-1.256q4.317-4.323,8.639-8.642c.651-.651,1.277-1.331,1.969-1.936a1.14,1.14,0,0,1,.9-.185C-260.3,168.757-260.139,169.091-259.911,169.346Z" transform="translate(295.004 -135.975)" fill="#2a2968"/>
    <path id="Path_1197" data-name="Path 1197" d="M-261.244,203.61c-.246-.2-.578-.337-.654-.561a1.1,1.1,0,0,1,.125-.865,8.687,8.687,0,0,1,1.029-1.069q2.122-2.123,4.244-4.247a.829.829,0,0,1,1.051-.223.7.7,0,0,1,.371.854,1.125,1.125,0,0,1-.294.487q-2.584,2.6-5.187,5.183A4.341,4.341,0,0,1-261.244,203.61Z" transform="translate(287.701 -155.445)" fill="#2a2968"/>
  </g>
</svg>
