<svg xmlns="http://www.w3.org/2000/svg" width="28.01" height="28" viewBox="0 0 28.01 28">
  <g id="AQUfFX.tif" transform="translate(199.854 20.679)">
    <g id="Group_607" data-name="Group 607" transform="translate(-199.854 -20.679)">
      <path id="Path_790" data-name="Path 790" d="M-199.854,16.556c.057-.245.105-.492.173-.734a3.359,3.359,0,0,1,3.252-2.482h.281c.028-.584.031-1.146.085-1.7A10.653,10.653,0,0,1-194.007,6.3a2.893,2.893,0,0,1,1.374-.895,15.338,15.338,0,0,1,4.178-.859,27.755,27.755,0,0,1,5.819.063,12.959,12.959,0,0,1,3.891.934,2.508,2.508,0,0,1,1.26,1.08q.613,1.154,1.184,2.331a.445.445,0,0,0,.342.284,11.019,11.019,0,0,1,1.641.483,3.79,3.79,0,0,1,2.263,2.647A6.36,6.36,0,0,1-172,15.395a4.033,4.033,0,0,1-3.2,3.185c-.644.166-1.322.2-1.981.306a.529.529,0,0,0-.324.177,10.1,10.1,0,0,1-7.171,4.415,9.119,9.119,0,0,1-4.113-.384.448.448,0,0,0-.473.079,6.2,6.2,0,0,1-3.026,1.266.962.962,0,0,0-.162.051h-.933c-.227-.049-.458-.082-.678-.15a8.064,8.064,0,0,1-5.622-5.857c-.077-.267-.118-.546-.175-.819Zm5.989-8.767a9.976,9.976,0,0,0-1.309,5.532c0,.075.123.17.21.212.629.3,1.27.573,1.891.886a.336.336,0,0,0,.409-.012,6.272,6.272,0,0,1,2.162-.98,3.727,3.727,0,0,1,3.228.521,3.658,3.658,0,0,1,1.387,3.408,7.736,7.736,0,0,1-2.153,4.733c-.054.06-.1.124-.163.2a8.96,8.96,0,0,0,9.651-3.436c-.029-.007-.056-.015-.084-.021a1.384,1.384,0,0,1-1.207-1.628,1.425,1.425,0,0,1,1.661-1.146c.3.036.6.016.9.035a.237.237,0,0,0,.284-.216,17.733,17.733,0,0,0,.392-1.877,20.544,20.544,0,0,0,.015-2.054c-.4-.018-.782-.033-1.169-.052a1.42,1.42,0,0,1-1.35-1.442A1.371,1.371,0,0,1-177.72,9.09c.15,0,.3,0,.509,0l-.636-1.312a6,6,0,0,1-2.8,1.248,25.364,25.364,0,0,1-9.645.159A7.152,7.152,0,0,1-193.865,7.789Zm.182,7.34a4.574,4.574,0,0,0-3.147-.8,2.307,2.307,0,0,0-1.934,1.645,3.4,3.4,0,0,0-.125,1.756,7.242,7.242,0,0,0,4.156,5.389,4.127,4.127,0,0,0,3.662.031,7.472,7.472,0,0,0,3.6-3.51,5.581,5.581,0,0,0,.679-2.828,2.53,2.53,0,0,0-3.016-2.554,5.224,5.224,0,0,0-2.165.8,7.7,7.7,0,0,0-2.832,3.179c-.169.346-.429.466-.692.335s-.327-.412-.142-.755a10.019,10.019,0,0,1,.714-1.2C-194.543,16.115-194.111,15.642-193.683,15.129Zm16.124,2.845.01.041c.69-.1,1.391-.148,2.068-.3A3.147,3.147,0,0,0-172.869,15a5.936,5.936,0,0,0-.03-2.172,3.057,3.057,0,0,0-2-2.384,7.65,7.65,0,0,0-2.834-.421.422.422,0,0,0-.435.419.471.471,0,0,0,.424.5c.154.018.313-.008.465.016a15.326,15.326,0,0,1,1.968.346,2.108,2.108,0,0,1,1.535,1.928,7.1,7.1,0,0,1,.049,1.046,2.414,2.414,0,0,1-2.145,2.563,7.4,7.4,0,0,1-2.432.13c-.359-.043-.582.108-.614.414s.134.475.492.511C-178.139,17.932-177.848,17.951-177.558,17.974Zm-8.1-11.691a20.452,20.452,0,0,1,6.7,1.015c.114.043.339-.152.478-.275a.454.454,0,0,0-.152-.33,8.928,8.928,0,0,0-1.4-.634,17.677,17.677,0,0,0-4.54-.672,24.255,24.255,0,0,0-6.518.5A5.434,5.434,0,0,0-193,6.626c-.13.09-.347.16-.255.389a.482.482,0,0,0,.618.255c.274-.1.547-.2.826-.28A23.617,23.617,0,0,1-185.658,6.282Zm5.48,1.629c-2.525-.905-9.688-.886-11.3.015A24.009,24.009,0,0,0-180.177,7.912Zm4.577,4.283a11.673,11.673,0,0,1-.422,3.7,1.349,1.349,0,0,0,1.317-1.206,7.141,7.141,0,0,0-.02-1.534A1.172,1.172,0,0,0-175.6,12.195Z" transform="translate(199.854 3.511)" fill="#2a2968"/>
      <path id="Path_791" data-name="Path 791" d="M-162.946-17.739a2.461,2.461,0,0,1,.471-1.309,5.927,5.927,0,0,1,1.556-1.515.459.459,0,0,1,.655.043.479.479,0,0,1-.03.66,4.542,4.542,0,0,0-.409.6,1.045,1.045,0,0,0,.224,1.368,3.364,3.364,0,0,1,.286,4.437.482.482,0,0,1-.551.222.463.463,0,0,1-.334-.461,3.5,3.5,0,0,0-1.073-2.353A2.694,2.694,0,0,1-162.946-17.739Zm1.159-.615c-.4.546-.144,1.128.276,1.64.257.314.5.637.745.963.105.142.186.3.292.48a2.137,2.137,0,0,0-.616-1.908A2.2,2.2,0,0,1-161.787-18.355Z" transform="translate(174.606 20.679)" fill="#2a2968"/>
      <path id="Path_792" data-name="Path 792" d="M-174.76-15.828a2.124,2.124,0,0,1,.453-1.352,5.655,5.655,0,0,1,1.576-1.41.473.473,0,0,1,.675.081c.154.207.1.414-.086.655a3.527,3.527,0,0,0-.471.753.709.709,0,0,0,.233.861,2.889,2.889,0,0,1,.387,4.12.492.492,0,0,1-.57.241.488.488,0,0,1-.333-.521,2.336,2.336,0,0,0-.556-1.44c-.245-.3-.51-.586-.759-.884A1.946,1.946,0,0,1-174.76-15.828Zm1.164-.71a.718.718,0,0,0-.072.98c.451.586.931,1.151,1.414,1.744a1.834,1.834,0,0,0-.561-1.548A2.3,2.3,0,0,1-173.6-16.538Z" transform="translate(182.688 19.32)" fill="#2a2968"/>
      <path id="Path_793" data-name="Path 793" d="M-151.119-15.99a2.027,2.027,0,0,1,.441-1.176,5.653,5.653,0,0,1,1.619-1.446.465.465,0,0,1,.631.083.487.487,0,0,1-.058.656,3.839,3.839,0,0,0-.479.749.714.714,0,0,0,.232.886,2.89,2.89,0,0,1,.394,4.1c-.153.2-.324.345-.59.256a.492.492,0,0,1-.326-.526,2.307,2.307,0,0,0-.542-1.415c-.243-.3-.508-.587-.759-.884A1.973,1.973,0,0,1-151.119-15.99Zm1.163-.564a.786.786,0,0,0,.006,1.106c.42.543.848,1.08,1.274,1.618.007.009.034,0,.064,0A1.836,1.836,0,0,0-149.2-15.4,2.2,2.2,0,0,1-149.956-16.554Z" transform="translate(166.516 19.324)" fill="#2a2968"/>
      <path id="Path_795" data-name="Path 795" d="M-191.725,36.384c-.428.513-.86.986-1.239,1.5a10.017,10.017,0,0,0-.714,1.2c-.185.343-.119.626.142.755s.523.01.692-.335a7.7,7.7,0,0,1,2.832-3.179,5.224,5.224,0,0,1,2.165-.8,2.53,2.53,0,0,1,3.016,2.554,5.581,5.581,0,0,1-.679,2.828,7.472,7.472,0,0,1-3.6,3.51,4.127,4.127,0,0,1-3.662-.031,7.242,7.242,0,0,1-4.156-5.389,3.4,3.4,0,0,1,.125-1.756,2.307,2.307,0,0,1,1.934-1.645A4.574,4.574,0,0,1-191.725,36.384Z" transform="translate(197.897 -17.744)" fill="#e94d16"/>
    </g>
  </g>
</svg>
