<svg xmlns="http://www.w3.org/2000/svg" width="79.67" height="73.852" viewBox="0 0 79.67 73.852">
  <g id="Group_249" data-name="Group 249" transform="translate(0 0)">
    <path id="Path_101" data-name="Path 101" d="M361.764,991.846c-.5,1.747.284,3.4,1.47,4.912.929,1.183.985,2.161-.519,2.845a6.814,6.814,0,0,0-4.046,5.07c-.308,1.458,1.275,11.716,0,11.046-2.173-1.141-8.428-1.134-10.6,0-1.256.655-.5-9.51-.8-11.018a6.677,6.677,0,0,0-4.015-5.084c-1.328-.6-1.611-1.54-.657-2.678a6.81,6.81,0,0,0,1.465-6.138c-.348-1.6.245-2.429,1.918-2.368a6.18,6.18,0,0,0,5.473-2.669c1-1.342,1.972-1.333,3.026-.019a6.144,6.144,0,0,0,4.668,2.646C362.071,988.53,362.066,988.636,361.764,991.846Z" transform="translate(-294.892 -956.876)" fill="#ffdc55"/>
    <path id="Path_93" data-name="Path 93" d="M199.987,917.308c1.342-3.705,4.055-4.982,7.875-4.832,4.557.179,9.127.076,13.69.009a4.751,4.751,0,0,0,2.365-.717c3.221-2.055,6.369-4.223,9.572-6.306a1.438,1.438,0,0,0,.819-1.755,5.59,5.59,0,0,1,8.558-5.747,5.629,5.629,0,0,1,2.527,5.772,2.192,2.192,0,0,0,.787,1.708q4.771,3.326,9.68,6.45a4.418,4.418,0,0,0,2.229.6c4.792.053,9.584.02,14.376.029,5.071.01,7.834,3.16,7.064,8.153-.081.526-.769.96-1.175,1.436-.44-.431-1.085-.79-1.268-1.312a8.1,8.1,0,0,1-.121-2.2,3.523,3.523,0,0,0-3.432-3.554c-.4-.034-.8-.012-1.2-.012q-32.432.02-64.863.042c-3.558,0-4.7,1.142-4.7,4.7q-.007,21.907,0,43.813c0,3.612.979,4.589,4.541,4.593,21.507.021,43.014-.011,64.52.109,3.941.022,5.235-1.4,5.193-5.277-.127-11.637-.047-23.275-.042-34.913a4.945,4.945,0,0,1,.127-1.857c.2-.466.834-1.078,1.225-1.044.439.039.929.673,1.19,1.159a3.118,3.118,0,0,1,.063,1.349q0,17.971,0,35.94c0,4.9-2.229,7.13-7.1,7.131-21.621.005-43.243-.046-64.864.048-3.789.016-6.4-1.225-7.638-4.9Zm27.633-4.917h24.109a78.972,78.972,0,0,0-7.492-5.369.989.989,0,0,0-.9.033c-2.6,1.916-5.1,1.525-7.592-.318-2.552,1.7-5.064,3.375-7.57,5.058A4.4,4.4,0,0,0,227.62,912.391Zm15.36-9.657a3.172,3.172,0,0,0-3.069-3.244,3.167,3.167,0,1,0-.162,6.332A3.186,3.186,0,0,0,242.979,902.735Z" transform="translate(-199.987 -896.969)" fill="#2a2968"/>
    <path id="Path_94" data-name="Path 94" d="M250.637,961.209q-14.63,0-29.261,0c-2.144,0-2.209.061-2.21,2.21,0,12.435.015,24.87-.024,37.3,0,1.5.232,2.4,2.036,2.313.472-.021.985.851,1.479,1.313-.5.424-.954,1.125-1.513,1.223-2.815.493-4.6-1.1-4.6-3.992q-.012-19.422,0-38.844c0-2.836,1.3-4.269,4.138-4.287,3.76-.025,7.52.173,11.281.178q24.042.034,48.084.011c3.717,0,4.759,1.05,4.761,4.8q.007,18.652,0,37.3c0,3.788-.952,4.719-4.781,4.721-7.187,0-14.374-.024-21.561.007-9.808.042-19.615.129-29.422.186a7.946,7.946,0,0,1-2.2-.156c-.455-.13-1.183-.8-1.117-.982a2.863,2.863,0,0,1,1.159-1.462,3.716,3.716,0,0,1,1.681-.1q25.5.016,50.993.038c2.676,0,2.68,0,2.68-2.592q0-18.309,0-36.619c0-2.6,0-2.6-2.672-2.6H250.637Z" transform="translate(-210.868 -937.4)" fill="#2a2968"/>
    <g id="Path_95" data-name="Path 95" transform="translate(-222.9 -951.774)" fill="none">
      <path d="M249.457,980.347c3.419,0,6.838-.016,10.256,0,3,.019,4.144,1.3,4.143,4.558,0,3.206-1.187,4.542-4.172,4.558q-10.341.055-20.683.036c-3.086-.008-4.2-1.362-4.173-4.882.023-3.084,1.184-4.292,4.2-4.308,3.476-.018,6.951,0,10.427,0Z" stroke="none"/>
      <path d="M 243.0968933105469 982.8045043945312 C 241.5338745117188 982.8045043945312 240.2459106445312 982.8074951171875 239.0436706542969 982.8138427734375 C 237.8645935058594 982.8201904296875 237.6006164550781 983.0579223632812 237.5982666015625 983.0603637695312 C 237.5956726074219 983.0630493164062 237.3375854492188 983.3433227539062 237.3280944824219 984.640380859375 C 237.3150939941406 986.4007568359375 237.6489562988281 986.7583618164062 237.6631774902344 986.7727661132812 C 237.6654663085938 986.7750244140625 237.9022216796875 987.0013427734375 239.0083923339844 987.0042724609375 C 240.8221130371094 987.0092163085938 242.7066040039062 987.0117797851562 244.6095275878906 987.0117797851562 C 249.201171875 987.0117797851562 254.1279602050781 986.9974365234375 259.6714477539062 986.9680786132812 C 260.5665283203125 986.9633178710938 260.9530334472656 986.7996215820312 261.0403137207031 986.70361328125 C 261.0726928710938 986.6680297851562 261.3567504882812 986.3150634765625 261.3570556640625 984.9096069335938 C 261.3573608398438 983.4447021484375 261.0687255859375 983.1092529296875 261.0564270019531 983.0956420898438 C 261.0542907714844 983.0933227539062 260.8292846679688 982.8593139648438 259.6983032226562 982.8521728515625 C 258.5114135742188 982.8448486328125 257.2378845214844 982.8414306640625 255.6904449462891 982.8414306640625 C 254.6529083251953 982.8414306640625 253.6152191162109 982.8429565429688 252.5775299072266 982.8444213867188 C 251.5373992919922 982.845947265625 250.4972686767578 982.8474731445312 249.4573059082031 982.8474731445312 L 246.9573059082031 982.8474731445312 L 246.9573059082031 982.8080444335938 C 246.7295379638672 982.8077392578125 246.5016937255859 982.8074951171875 246.27392578125 982.8071899414062 C 245.2149505615234 982.8058471679688 244.1559906005859 982.8045043945312 243.0968933105469 982.8045043945312 M 243.0968780517578 980.3045043945312 C 245.2171936035156 980.3045043945312 247.3370056152344 980.3098754882812 249.4573059082031 980.3098754882812 L 249.4573059082031 980.3474731445312 C 252.8761596679688 980.3474731445312 256.2949523925781 980.3311157226562 259.7137756347656 980.3522338867188 C 262.7098083496094 980.3711547851562 263.8577575683594 981.6539306640625 263.8570556640625 984.91015625 C 263.8563537597656 988.1163330078125 262.6697387695312 989.4522094726562 259.6846923828125 989.468017578125 C 252.7905426025391 989.504638671875 245.8960266113281 989.5230102539062 239.0015563964844 989.5042724609375 C 235.9154968261719 989.4960327148438 234.8021545410156 988.1423950195312 234.8281555175781 984.6218872070312 C 234.8507690429688 981.5382080078125 236.0120544433594 980.3300170898438 239.0303039550781 980.3139038085938 C 240.3856811523438 980.3067016601562 241.7415466308594 980.3045043945312 243.0968780517578 980.3045043945312 Z" stroke="none" fill="#2a2968"/>
    </g>
    <path id="Path_96" data-name="Path 96" d="M339.058,1002.128c0-.912-.07-1.831.012-2.736a4.669,4.669,0,0,0-2.725-5.142c-2.193-1.128-2.592-3.039-1.19-5.02a5.923,5.923,0,0,0,1.135-4.593c-.376-2.625.655-3.927,3.274-4.143a6.089,6.089,0,0,0,4.252-2.1c1.642-1.777,3.414-1.815,5.035-.056a6.341,6.341,0,0,0,4.407,2.166c2.5.219,3.587,1.59,3.24,4.033a5.955,5.955,0,0,0,1.03,4.624c1.454,2.059,1.02,3.99-1.22,5.151-2.167,1.124-2.771,2.76-2.662,5.017.112,2.332.064,4.676.013,7.013-.068,3.168-2.516,4.673-5.276,3.118a3.728,3.728,0,0,0-4.108.05c-2.66,1.462-5.085-.042-5.206-3.1C339.014,1004.981,339.06,1003.553,339.058,1002.128Zm14.87-16.356c.26-2.758.264-2.849-2.248-2.97a5.281,5.281,0,0,1-4.012-2.274c-.906-1.129-1.744-1.137-2.6.017a5.312,5.312,0,0,1-4.7,2.294c-1.438-.053-1.948.657-1.649,2.035a5.853,5.853,0,0,1-1.259,5.276c-.82.978-.576,1.786.565,2.3a5.739,5.739,0,0,1,3.451,4.369c.254,1.3,1.048,1.58,2.127,1.017a5.6,5.6,0,0,1,5.54,0c1.1.575,1.866.209,2.13-1.045a5.857,5.857,0,0,1,3.477-4.358c1.292-.588,1.244-1.428.446-2.445C354.172,988.695,353.5,987.273,353.928,985.772Zm-2.839,18.481c0-2.964-.062-2.815-2.768-3.946-1.9-.792-3.418.05-5.111.416-2.87.62-1.055,2.867-1.574,4.294a2.383,2.383,0,0,0-.008.851c.065,1.814.454,2.062,2.03,1.159a4.68,4.68,0,0,1,4.553-.453c2.871,1.316,2.877,1.3,2.879-1.979Z" transform="translate(-288.34 -949.625)" fill="#2a2968"/>
    <path id="Path_97" data-name="Path 97" d="M256.689,1019.956q-4.353,0-8.707,0c-.872,0-1.969,0-1.832-1.158.057-.481,1.158-1.189,1.791-1.2q8.877-.119,17.755.036c.6.01,1.188.721,1.781,1.108-.579.392-1.147,1.1-1.74,1.123-3.012.116-6.031.053-9.047.053Z" transform="translate(-230.338 -976.268)" fill="#2a2968"/>
    <path id="Path_98" data-name="Path 98" d="M261.75,1030.393c2.107,0,4.219-.085,6.316.052.624.041,1.207.7,1.809,1.083-.578.4-1.147,1.138-1.735,1.153q-6.316.163-12.636.023c-.57-.013-1.123-.778-1.683-1.2.594-.385,1.167-1.06,1.784-1.1,2.04-.141,4.1-.053,6.144-.053Z" transform="translate(-235.39 -984.67)" fill="#2a2968"/>
    <path id="Path_99" data-name="Path 99" d="M271.394,1057.625c-.234,0-2.065-.034-2.71-1.23-.018-.034-.443-.844-.089-1.313a1.378,1.378,0,0,1,1.43-.275,2.247,2.247,0,0,0,2.826.039,1.364,1.364,0,0,1,1.432.237,1.108,1.108,0,0,1,.2.961C274.245,1057.051,272.643,1057.631,271.394,1057.625Z" transform="translate(-245.014 -1000.71)" fill="#2a2968"/>
    <ellipse id="Ellipse_23" data-name="Ellipse 23" cx="1.531" cy="1.531" rx="1.531" ry="1.531" transform="translate(32.906 52.732)" fill="#2a2968"/>
    <ellipse id="Ellipse_24" data-name="Ellipse 24" cx="1.531" cy="1.531" rx="1.531" ry="1.531" transform="translate(17.249 52.732)" fill="#2a2968"/>
    <g id="Ellipse_25" data-name="Ellipse 25" transform="translate(51.624 33.511)" fill="none" stroke="#2a2968" stroke-width="2.5">
      <ellipse cx="6.26" cy="5.912" rx="6.26" ry="5.912" stroke="none"/>
      <ellipse cx="6.26" cy="5.912" rx="5.01" ry="4.662" fill="none"/>
    </g>
  </g>
</svg>
