<svg xmlns="http://www.w3.org/2000/svg" width="32.493" height="39.499" viewBox="0 0 32.493 39.499">
  <g id="WdIlrx.tif" transform="translate(194.029 43.002)">
    <path id="Path_755" data-name="Path 755" d="M10436.224-6071.484a10.768,10.768,0,0,0,1.761,7.275c2.374,3.189,7.957,4.753,7.957,4.753s-.6,7.288.867,10.729,5.549,2.4,5.549,2.4a5.7,5.7,0,0,0,3.75-3.325c1.1-2.739,0-5.169.971-7.325s5.225,0,5.225,0l.3,5.639,2.082-.391s1.222-3.748-.2-5.778-2.93-3.34-5.115-2.8-3.244.4-4.58,3.019.067,5.017-.927,7.155a2.44,2.44,0,0,1-3.049,1.4s-1.921.074-2.562-2.608,0-8.121,0-8.121a13.181,13.181,0,0,0,7.1-3.9c2.739-3.189,2.854-8.813,2.854-8.813l-2.1.68a9.4,9.4,0,0,1-2.247,5.925c-2.324,2.588-3.666,3.7-7.052,3.7s-3.9-1.111-6.491-3.7c-1.1-1.1-2.039-4.7-2.792-6.139C10436.791-6073.1,10436.224-6071.484,10436.224-6071.484Z" transform="translate(-10628.948 6041.416)" fill="#ffdc55"/>
    <path id="Path_750" data-name="Path 750" d="M-165.675-3.753a9.1,9.1,0,0,1-1.034-.358,3.4,3.4,0,0,1-.533-5.818.665.665,0,0,0,.317-.623c-.022-1.027.016-2.057-.032-3.083a2.361,2.361,0,0,0-1.823-2.177,2.433,2.433,0,0,0-2.631,1.01,2.577,2.577,0,0,0-.42,1.477c0,1.028,0,2.056,0,3.084a5.861,5.861,0,0,1-6.289,5.951,5.875,5.875,0,0,1-5.446-5.728c-.023-2.5-.01-5,0-7.5,0-.309-.049-.444-.407-.508a11.891,11.891,0,0,1-9.737-10.492,2.438,2.438,0,0,0-.068-.294v-1.295a2.12,2.12,0,0,1,1.016-1.218c.08-.039.12-.229.121-.349.008-1.65,0-3.3.005-4.95a4.329,4.329,0,0,1,2.953-4.34.521.521,0,0,0,.255-.277,2.156,2.156,0,0,1,2.146-1.508c.368,0,.736-.008,1.1,0a2.133,2.133,0,0,1,2.071,2.115,2.135,2.135,0,0,1-2.081,2.144c-.279.008-.559-.011-.838,0a2.237,2.237,0,0,1-2.343-1.334A3.035,3.035,0,0,0-191.484-37c-.026,1.8-.012,3.6,0,5.407a.478.478,0,0,0,.217.329,1.73,1.73,0,0,1,.91,1.529,8.611,8.611,0,0,0,1.392,4.636.588.588,0,0,1-.09.873c-.293.2-.624.11-.865-.257a9.556,9.556,0,0,1-1.569-4.9c0-.089,0-.178,0-.267-.018-.4-.254-.674-.58-.669a.6.6,0,0,0-.559.681,10.231,10.231,0,0,0,1.148,4.725,10.633,10.633,0,0,0,8.218,5.848.843.843,0,0,1,.836.971q0,2.151,0,4.3c0,.1-.005.2,0,.3a.59.59,0,0,0,.575.591.574.574,0,0,0,.56-.6c.011-.609,0-1.218,0-1.828,0-.939,0-1.879,0-2.818a.822.822,0,0,1,.807-.92,10.741,10.741,0,0,0,9.207-8.7,13.48,13.48,0,0,0,.183-1.777c.031-.5-.2-.786-.564-.785-.345,0-.557.284-.573.756a9.513,9.513,0,0,1-3.359,7.112,9.61,9.61,0,0,1-12.239.261c-.345-.276-.438-.566-.272-.846.2-.336.567-.373.946-.074a8.621,8.621,0,0,0,3.1,1.564,8.493,8.493,0,0,0,10.616-7.226c.034-.315.05-.632.066-.949a1.7,1.7,0,0,1,.911-1.522.393.393,0,0,0,.235-.413c-.007-1.752.007-3.5-.009-5.255a3.087,3.087,0,0,0-2.115-2.916,2.277,2.277,0,0,1-2.449,1.343,8.57,8.57,0,0,1-1.172-.075,2.1,2.1,0,0,1-1.636-2.289,2.143,2.143,0,0,1,2.049-1.9c.393-.012.787-.007,1.181,0a2.162,2.162,0,0,1,2.067,1.459.653.653,0,0,0,.332.342,4.341,4.341,0,0,1,2.891,4.2q.008,2.513,0,5.027a.477.477,0,0,0,.277.5,1.68,1.68,0,0,1,.869,1.581,11.907,11.907,0,0,1-7.7,11.033c-.793.291-1.623.479-2.482.727a.49.49,0,0,0-.017.119c0,2.551-.013,5.1.006,7.654a2.3,2.3,0,0,0,1.348,2.139,2.316,2.316,0,0,0,2.487-.181,2.265,2.265,0,0,0,1.036-1.895c.02-1.091.006-2.183.009-3.275a5.859,5.859,0,0,1,5.018-5.929,5.562,5.562,0,0,1,3.476.549c.394.2.538.506.389.82s-.477.39-.88.206a4.611,4.611,0,0,0-5.018.505,4.561,4.561,0,0,0-1.838,3.72c-.02,1.129.011,2.259-.012,3.389a3.564,3.564,0,0,1-3.093,3.468A3.568,3.568,0,0,1-181.087-9a4.956,4.956,0,0,1-.193-1.232c-.032-.517-.008-1.037-.008-1.547h-1.121c-.079,1.581-.109,3.164.973,4.538a4.772,4.772,0,0,0,5.192,1.6,4.713,4.713,0,0,0,3.263-4.335c.022-1.142-.015-2.285.014-3.427a3.449,3.449,0,0,1,2.188-3.323,3.414,3.414,0,0,1,3.851.68,3.529,3.529,0,0,1,1.14,2.763c-.005.886,0,1.772,0,2.679h1.09c.013-.03.041-.063.041-.1-.007-1.1.011-2.209-.037-3.311a4.07,4.07,0,0,0-.667-1.922c-.228-.376-.17-.715.133-.893s.61-.067.849.316a5.954,5.954,0,0,1,.877,3.26c-.006.939-.011,1.879.009,2.818a.625.625,0,0,0,.216.428,3.317,3.317,0,0,1,1.391,3.571,3.285,3.285,0,0,1-2.737,2.63.781.781,0,0,0-.138.059Zm2.741-3.415a2.29,2.29,0,0,0-2.261-2.3A2.288,2.288,0,0,0-167.5-7.213,2.291,2.291,0,0,0-165.222-4.9,2.293,2.293,0,0,0-162.934-7.167ZM-186.826-41.6c-.2,0-.407-.012-.609,0a.988.988,0,0,0-.934.971.976.976,0,0,0,.909.993,10.588,10.588,0,0,0,1.293,0,.976.976,0,0,0,.916-.986.987.987,0,0,0-.928-.977C-186.394-41.615-186.61-41.6-186.826-41.6Zm9.9,1.973v0c.2,0,.407.01.609,0a.99.99,0,0,0,.966-.98.98.98,0,0,0-.954-.989c-.405-.019-.813-.02-1.217,0a.978.978,0,0,0-.946,1,.988.988,0,0,0,.934.971C-177.332-39.617-177.128-39.63-176.925-39.63Z" transform="translate(0)" fill="#2a2968" stroke="#2a2968" stroke-width="0.5"/>
    <path id="Path_751" data-name="Path 751" d="M-121.884,44.835a2.293,2.293,0,0,1-2.288,2.271,2.291,2.291,0,0,1-2.279-2.317,2.288,2.288,0,0,1,2.306-2.251A2.29,2.29,0,0,1-121.884,44.835Zm-2.284-.573a.547.547,0,0,0-.56.542.55.55,0,0,0,.561.578.549.549,0,0,0,.56-.542A.549.549,0,0,0-124.168,44.262Z" transform="translate(-41.05 -52.003)" fill="#ffdc55"/>
    <path id="Path_752" data-name="Path 752" d="M-178.374-39.813c.215,0,.432-.013.646,0a.987.987,0,0,1,.928.977.976.976,0,0,1-.916.986,10.588,10.588,0,0,1-1.293,0,.976.976,0,0,1-.909-.993.988.988,0,0,1,.934-.971C-178.781-39.826-178.577-39.813-178.374-39.813Z" transform="translate(-8.451 -1.789)" fill="#ffdc55"/>
    <path id="Path_753" data-name="Path 753" d="M-153.006-37.851c-.2,0-.407.012-.608,0a.988.988,0,0,1-.934-.971.978.978,0,0,1,.946-1c.4-.02.812-.019,1.217,0a.98.98,0,0,1,.953.989.99.99,0,0,1-.966.98c-.2.011-.406,0-.609,0Z" transform="translate(-23.92 -1.779)" fill="#ffdc55"/>
    <path id="Path_754" data-name="Path 754" d="M-121.477,46.955a.549.549,0,0,1,.561.578.549.549,0,0,1-.56.542.55.55,0,0,1-.561-.578A.547.547,0,0,1-121.477,46.955Z" transform="translate(-43.741 -54.695)" fill="#2a2968"/>
  </g>
</svg>
