<svg xmlns="http://www.w3.org/2000/svg" width="14.206" height="27.063" viewBox="0 0 14.206 27.063">
  <g id="fb" transform="translate(0)">
    <path id="Path_739" data-name="Path 739" d="M-175.276-70.611a1.117,1.117,0,0,1,.763,1.232c-.025,1.18-.006,2.36-.008,3.54a.97.97,0,0,1-1.1,1.1c-.722,0-1.444,0-2.166,0a2.78,2.78,0,0,0-.421.03c-.335.052-.476.176-.484.519-.018.755-.006,1.511-.006,2.294.1,0,.192.013.285.013.916,0,1.832,0,2.748,0,.816,0,1.209.417,1.122,1.228-.148,1.383-.311,2.764-.477,4.144a.936.936,0,0,1-.971.859c-.8.009-1.6,0-2.4,0h-.316v.335q0,5.3,0,10.595c0,.821-.348,1.165-1.176,1.165h-4.439a1,1,0,0,1-1.131-1.137q0-5.324,0-10.648V-55.7h-.316c-.669,0-1.339.007-2.008-.005a.9.9,0,0,1-.925-.894q-.023-2.179,0-4.359a.937.937,0,0,1,1.046-.919c.678-.007,1.356,0,2.034,0h.312c0-.13,0-.233,0-.336-.01-1.038-.065-2.079-.02-3.115a5.065,5.065,0,0,1,2.447-4.126,6.861,6.861,0,0,1,3.232-1.117,1.886,1.886,0,0,0,.205-.041Zm-.325,1.08h-.309c-.969,0-1.938,0-2.907,0a6.033,6.033,0,0,0-3.455.965,4.059,4.059,0,0,0-2,3.538c0,1.18.029,2.359.037,3.539,0,.5-.2.7-.707.7-.8,0-1.6,0-2.4,0h-.276v4.02h2.451c.644,0,.8.153.8.791q0,5.509,0,11.018v.317h4.591v-.353q0-5.509,0-11.018c0-.521.179-.7.7-.7q1.361,0,2.722,0h.283l.467-4.075h-.313c-1.057,0-2.114,0-3.171,0-.441,0-.677-.183-.68-.56-.007-.986-.021-1.974.025-2.958a1.785,1.785,0,0,1,.335-.866,1.637,1.637,0,0,1,1.441-.627c.7-.009,1.392,0,2.087,0h.286Z" transform="translate(188.718 70.611)" fill="#2a2968"/>
    <path id="Path_740" data-name="Path 740" d="M-172.012-66v3.726h-.286c-.7,0-1.392-.005-2.087,0a1.637,1.637,0,0,0-1.441.627,1.785,1.785,0,0,0-.335.866c-.045.985-.031,1.972-.025,2.958,0,.377.238.559.68.56,1.057,0,2.114,0,3.171,0h.313l-.467,4.075h-.283q-1.361,0-2.722,0c-.518,0-.7.179-.7.7q0,5.509,0,11.018v.353h-4.591v-.317q0-5.509,0-11.018c0-.638-.155-.791-.8-.791h-2.451v-4.02h.276c.8,0,1.6,0,2.4,0,.505,0,.711-.2.707-.7-.008-1.18-.034-2.359-.037-3.539a4.059,4.059,0,0,1,2-3.538A6.033,6.033,0,0,1-175.227-66c.969,0,1.938,0,2.906,0Zm-8.231,21.648c0,.625,0,1.25,0,1.874a1.4,1.4,0,0,0,.025.288.506.506,0,0,0,.541.436.507.507,0,0,0,.5-.458,1.673,1.673,0,0,0,.022-.288q0-1.835,0-3.669a1.575,1.575,0,0,0-.033-.34.51.51,0,0,0-.546-.4c-.31.022-.5.248-.5.626C-180.247-45.634-180.243-44.992-180.243-44.349Zm0-3.915c0,.261.036.517.288.614a.723.723,0,0,0,.519-.006.727.727,0,0,0,0-1.16.732.732,0,0,0-.519-.009C-180.2-48.736-180.238-48.49-180.244-48.264Z" transform="translate(185.128 67.078)" fill="#ffdc55"/>
    <path id="Path_741" data-name="Path 741" d="M-167.842,18.169c0-.642,0-1.285,0-1.927,0-.378.194-.6.5-.626a.51.51,0,0,1,.546.4,1.576,1.576,0,0,1,.033.34q0,1.835,0,3.669a1.673,1.673,0,0,1-.022.288.507.507,0,0,1-.5.458.506.506,0,0,1-.541-.436,1.405,1.405,0,0,1-.025-.288C-167.843,19.419-167.842,18.794-167.842,18.169Z" transform="translate(172.728 4.559)" fill="#2a2968"/>
    <path id="Path_742" data-name="Path 742" d="M-167.842,7.827c.006-.226.047-.471.291-.56a.732.732,0,0,1,.519.009.727.727,0,0,1,0,1.16.723.723,0,0,1-.519.006C-167.806,8.344-167.841,8.088-167.842,7.827Z" transform="translate(172.727 10.986)" fill="#2a2968"/>
  </g>
</svg>
