<svg xmlns="http://www.w3.org/2000/svg" width="50.853" height="59.315" viewBox="0 0 50.853 59.315">
  <g id="Group_325" data-name="Group 325" transform="translate(0.538 0.5)">
    <path id="Path_460" data-name="Path 460" d="M177.615-176.8l.141-.017c-.229-1.38-.391-2.776-.7-4.137a2.231,2.231,0,0,0-3.428-1.464,3.6,3.6,0,0,1-4.1-.028,4.6,4.6,0,0,0-5.067.014,3.63,3.63,0,0,1-4.109.009,6.117,6.117,0,0,0-2.13-.691,5.6,5.6,0,0,0-4.1,1.359,1.546,1.546,0,0,0-.311,2.146c.251.378.555.721.828,1.086a42.448,42.448,0,0,1,3.029,4.116c2.618,4.567.99,10.847-3.169,13.054a2.679,2.679,0,0,0-.338,4.448,6.693,6.693,0,0,0,7.443,1.072A27.934,27.934,0,0,0,175.1-168.047,17.145,17.145,0,0,0,177.615-176.8Zm3.671,0a19.151,19.151,0,0,0-1.491-7.422c-2.273-5.341-6.031-8.833-12-9.541-.728-.086-1.188.176-1.256.728-.065.53.293.88,1.012.957a11.582,11.582,0,0,1,8.1,4.242,17.127,17.127,0,0,1,3.654,14.029,22.068,22.068,0,0,1-3.339,8.091,29.081,29.081,0,0,1-4.535,5.6.926.926,0,0,0-.3,1.209c.3.543.943.549,1.486.021a31.976,31.976,0,0,0,6.88-9.816A19.974,19.974,0,0,0,181.286-176.8Zm-32.5,2.591c-.451,1.015-.862,1.928-1.262,2.847-.26.6-.11,1.091.375,1.3s.909-.007,1.174-.586c.393-.862.781-1.727,1.151-2.6a1.87,1.87,0,0,0-1.186-2.682c-.784-.281-1.57-.563-2.37-.8-.44-.127-.5-.337-.4-.746.28-1.121.538-2.249.766-3.382a1.817,1.817,0,0,0-1.116-2.127,15.223,15.223,0,0,0-1.424-.569c-.384-.127-.432-.32-.3-.677q.621-1.74,1.193-3.5a.859.859,0,0,0-.54-1.15.849.849,0,0,0-1.067.6c-.452,1.287-.9,2.575-1.309,3.877a1.851,1.851,0,0,0,1.131,2.316,10.9,10.9,0,0,0,1.163.456c.514.15.681.392.52.946-.268.927-.452,1.879-.664,2.822-.343,1.516.065,2.244,1.522,2.74C147-174.826,147.851-174.529,148.784-174.208Zm7-25.357h0c0,1.442-.018,2.883,0,4.324a4.371,4.371,0,0,0,4.942,4.286,17.681,17.681,0,0,0,3.04-.895.747.747,0,0,0,.451-1.029.774.774,0,0,0-.985-.553,15.742,15.742,0,0,0-1.733.542,2.764,2.764,0,0,1-4.013-2.752c0-2.788,0-5.576,0-8.364,0-.693-.343-1.1-.887-1.079-.519.018-.817.405-.818,1.082C155.779-202.523,155.782-201.044,155.782-199.565Z" transform="translate(-139.069 205.085)" fill="#fff"/>
    <path id="Path_461" data-name="Path 461" d="M136.976-146.764a1.363,1.363,0,0,1-.545-1.226c.016-3.132,0-6.264.011-9.4a6.537,6.537,0,0,1,5.154-6.62,7.624,7.624,0,0,1,1.58-.164c1.518-.021,3.039-.062,4.554,0,2.878.126,4.238-1.636,4.721-3.834a6.661,6.661,0,0,0-1.366-5.829c-.722-.9-1.453-1.8-2.18-2.7a15.68,15.68,0,0,1-3.568-10.093q-.016-8.627,0-17.253a2.462,2.462,0,0,1,.037-.509.782.782,0,0,1,.848-.684.778.778,0,0,1,.8.735,5.355,5.355,0,0,1,.021.682c0,5.5.033,11.009-.011,16.513a14.638,14.638,0,0,0,3.533,9.953c.713.838,1.426,1.683,2.06,2.579a8.256,8.256,0,0,1,.626,9.216,5.277,5.277,0,0,1-4.767,2.907c-1.744.052-3.492.013-5.238.017a4.86,4.86,0,0,0-5.094,5.077q-.019,4.727,0,9.452a1.144,1.144,0,0,1-.61,1.175Z" transform="translate(-136.431 205.079)" fill="#2a2968" stroke="#2a2968" stroke-width="1"/>
    <path id="Path_462" data-name="Path 462" d="M149.237-109.156a1.245,1.245,0,0,1-.577-1.2c.022-2.239.016-4.478.007-6.716a2.974,2.974,0,0,1,1.8-2.969,2.981,2.981,0,0,1,3.412.64,24.221,24.221,0,0,0,2.8,2.323,8.584,8.584,0,0,0,8.362.689,28.831,28.831,0,0,0,5.6-3.128c.139-.1.275-.2.419-.294a.86.86,0,0,1,1.215.156.812.812,0,0,1-.247,1.233c-1.589.993-3.178,1.992-4.815,2.9a11.788,11.788,0,0,1-4.382,1.5,10.446,10.446,0,0,1-8.026-2.295c-.71-.568-1.376-1.193-2.051-1.8a1.363,1.363,0,0,0-1.607-.353,1.385,1.385,0,0,0-.768,1.4c.01,2.239-.008,4.478.013,6.716a1.228,1.228,0,0,1-.581,1.2Z" transform="translate(-141.858 167.472)" fill="#2a2968" stroke="#2a2968" stroke-width="1"/>
    <path id="Path_463" data-name="Path 463" d="M216.9-162.27c-.751,1.012-1.483,2.04-2.264,3.029a.812.812,0,0,0-.155,1.04,19.243,19.243,0,0,1,.842,1.925,1.587,1.587,0,0,1-.417,1.918q-1.678,1.494-3.4,2.945a.841.841,0,0,1-1.3-.028.879.879,0,0,1,.231-1.289c.99-.855,1.973-1.72,2.977-2.56a.547.547,0,0,0,.166-.774c-.291-.6-.53-1.216-.819-1.812a1.761,1.761,0,0,1,.273-2.1c.624-.714,1.205-1.465,1.831-2.178a.494.494,0,0,0,.022-.735c-.517-.7-1-1.431-1.5-2.141a1.712,1.712,0,0,1-.082-2.02c.394-.67.759-1.357,1.164-2.019a.5.5,0,0,0-.085-.733c-.745-.73-1.456-1.5-2.2-2.226a1.781,1.781,0,0,1-.487-2.016c.289-.842.528-1.7.786-2.551.181-.6.584-.887,1.074-.755a.858.858,0,0,1,.588,1.171,17.631,17.631,0,0,1-.646,2.118.979.979,0,0,0,.315,1.261c.711.654,1.369,1.367,2.031,2.072a1.652,1.652,0,0,1,.272,2.18c-.377.7-.758,1.4-1.175,2.078a.565.565,0,0,0,.044.749c.389.513.764,1.04,1.111,1.582.294.457.541.944.809,1.418Z" transform="translate(-167.086 192.792)" fill="#2a2968" stroke="#2a2968" stroke-width="1"/>
    <path id="Path_464" data-name="Path 464" d="M180.313-160.873a13.031,13.031,0,0,1-1.911,6.653,21.234,21.234,0,0,1-10.272,9.286,5.088,5.088,0,0,1-5.658-.815,2.037,2.037,0,0,1,.257-3.381c3.161-1.677,4.4-6.451,2.409-9.922a32.273,32.273,0,0,0-2.3-3.129c-.207-.277-.438-.538-.629-.826a1.175,1.175,0,0,1,.237-1.631,4.255,4.255,0,0,1,3.12-1.033,4.65,4.65,0,0,1,1.619.525,2.76,2.76,0,0,0,3.124-.007,3.5,3.5,0,0,1,3.852-.011,2.74,2.74,0,0,0,3.12.022,1.7,1.7,0,0,1,2.606,1.113A19.546,19.546,0,0,1,180.313-160.873Zm-17.058-2.884c.747.936,1.393,1.745,2.038,2.555a8.926,8.926,0,0,1,2.087,5.518c.044,3.192-1.04,5.839-3.876,7.574a.822.822,0,0,0-.1,1.454,3.846,3.846,0,0,0,4.182.545,20.071,20.071,0,0,0,10.123-9.572,10.941,10.941,0,0,0,.98-7.839c-.156-.627-.383-.7-.962-.411a5.542,5.542,0,0,1-1.273.509,3.626,3.626,0,0,1-2.808-.551,2.432,2.432,0,0,0-2.769-.02,3.747,3.747,0,0,1-4.273-.018,2.067,2.067,0,0,0-1.562-.362A16.177,16.177,0,0,0,163.255-163.757Z" transform="translate(-144.074 191.151)" fill="#2a2968" stroke="#2a2968" stroke-width="2.5"/>
    <path id="Path_465" data-name="Path 465" d="M200.561-167.776a19.983,19.983,0,0,1-1.785,8.1,31.976,31.976,0,0,1-6.88,9.816c-.543.528-1.187.522-1.486-.021a.926.926,0,0,1,.3-1.209,29.081,29.081,0,0,0,4.535-5.6,22.068,22.068,0,0,0,3.339-8.091,17.126,17.126,0,0,0-3.654-14.029,11.581,11.581,0,0,0-8.1-4.242c-.719-.077-1.077-.428-1.012-.957.068-.552.528-.814,1.256-.728,5.967.708,9.724,4.2,12,9.541A19.162,19.162,0,0,1,200.561-167.776Z" transform="translate(-158.344 196.064)" fill="#2a2968" stroke="#2a2968" stroke-width="1"/>
    <path id="Path_466" data-name="Path 466" d="M148.784-161.306c-.934-.321-1.789-.618-2.645-.91-1.457-.5-1.864-1.224-1.522-2.74.212-.943.4-1.894.664-2.822.161-.555-.006-.8-.52-.946a10.9,10.9,0,0,1-1.163-.456,1.851,1.851,0,0,1-1.131-2.316c.407-1.3.857-2.59,1.309-3.877a.849.849,0,0,1,1.067-.6.859.859,0,0,1,.54,1.15q-.571,1.757-1.193,3.5c-.127.357-.08.551.3.677a15.227,15.227,0,0,1,1.424.569,1.817,1.817,0,0,1,1.116,2.127c-.228,1.133-.487,2.26-.766,3.382-.1.41-.042.619.4.746.8.232,1.585.514,2.37.8a1.87,1.87,0,0,1,1.186,2.682c-.37.872-.758,1.737-1.151,2.6-.264.58-.7.788-1.174.586s-.636-.7-.375-1.3C147.922-159.378,148.334-160.291,148.784-161.306Z" transform="translate(-142.376 192.184)" fill="#2a2968" stroke="#2a2968" stroke-width="1"/>
    <path id="Path_467" data-name="Path 467" d="M166.474-199.565c0-1.479,0-2.959,0-4.437,0-.677.3-1.064.818-1.082.544-.019.887.387.887,1.079,0,2.788,0,5.576,0,8.364a2.764,2.764,0,0,0,4.013,2.752,15.741,15.741,0,0,1,1.733-.542.774.774,0,0,1,.984.553.747.747,0,0,1-.451,1.029,17.682,17.682,0,0,1-3.04.895,4.371,4.371,0,0,1-4.942-4.286c-.022-1.441,0-2.882,0-4.324Z" transform="translate(-149.762 205.085)" fill="#2a2968" stroke="#2a2968" stroke-width="1"/>
    <path id="Path_468" data-name="Path 468" d="M165.054-161.957a16.172,16.172,0,0,1,1.784-.618,2.067,2.067,0,0,1,1.562.362,3.747,3.747,0,0,0,4.273.018,2.432,2.432,0,0,1,2.769.02,3.626,3.626,0,0,0,2.808.551,5.538,5.538,0,0,0,1.273-.509c.579-.293.807-.216.962.411a10.941,10.941,0,0,1-.98,7.839,20.071,20.071,0,0,1-10.123,9.572,3.846,3.846,0,0,1-4.182-.545.822.822,0,0,1,.1-1.454c2.836-1.736,3.92-4.382,3.876-7.574a8.926,8.926,0,0,0-2.087-5.518C166.448-160.212,165.8-161.021,165.054-161.957Z" transform="translate(-145.874 189.352)" fill="#ffdc55"/>
    <path id="Path_469" data-name="Path 469" d="M180.216-146.6c0-.7.313-1.112.848-1.119s.857.4.86,1.1c0,.725-.226,1.09-.73,1.159C180.586-145.377,180.213-145.812,180.216-146.6Z" transform="translate(-155.564 177.451)" fill="#2a2968" stroke="#2a2968" stroke-width="1"/>
    <path id="Path_470" data-name="Path 470" d="M176.489-129.2c0-.722.285-1.117.819-1.134.557-.018.89.408.889,1.137s-.327,1.149-.892,1.13C176.766-128.08,176.489-128.464,176.489-129.2Z" transform="translate(-152.986 169.734)" fill="#2a2968" stroke="#2a2968" stroke-width="1"/>
    <path id="Path_471" data-name="Path 471" d="M186.816-137.287c0,.7-.314,1.09-.869,1.083s-.8-.385-.85-1.105c-.075-1.008.764-1.382,1.239-1.031A1.578,1.578,0,0,1,186.816-137.287Z" transform="translate(-157.728 173.345)" fill="#2a2968" stroke="#2a2968" stroke-width="1"/>
    <path id="Path_472" data-name="Path 472" d="M191.134-145.01c-.006-.507.091-1,.675-1.073.269-.035.765.12.818.292a3.153,3.153,0,0,1,.083,1.459c-.037.2-.479.419-.755.446C191.434-143.836,191.133-144.3,191.134-145.01Z" transform="translate(-160.409 176.727)" fill="#2a2968" stroke="#2a2968" stroke-width="1"/>
  </g>
</svg>
