<svg xmlns="http://www.w3.org/2000/svg" width="28" height="28" viewBox="0 0 28 28">
  <g id="Icons" transform="translate(0 0)">
    <path id="Path_178" data-name="Path 178" d="M22.306,8.306a14,14,0,1,0,14,14A14.016,14.016,0,0,0,22.306,8.306Zm5.506,8.029a.313.313,0,0,1-.1.22.264.264,0,0,1-.225.084c-.008,0-.454-.017-1.963,0a1.328,1.328,0,0,0-.969.325.887.887,0,0,0-.24.553L24.3,20.064l3.206.062a.312.312,0,0,1,.3.356L27.3,24.115a.312.312,0,0,1-.309.269H24.312l-.081,7.367a.312.312,0,0,1-.312.309H20.3a.313.313,0,0,1-.312-.308l-.1-7.353-2.867-.015a.312.312,0,0,1-.311-.32l.085-3.7a.313.313,0,0,1,.312-.3h2.809V17.692a8.623,8.623,0,0,1,.071-.9,5.714,5.714,0,0,1,.579-1.915,4.074,4.074,0,0,1,1.138-1.346,4.672,4.672,0,0,1,1.627-.767,5.417,5.417,0,0,1,1.241-.2c.395-.011.792,0,1.189.011l1.827.046a.313.313,0,0,1,.305.32ZM22.291,10.84a.3.3,0,0,1,.327.3.312.312,0,0,1-.3.327,11.053,11.053,0,0,0-1.4.16.343.343,0,0,1-.055,0,.312.312,0,0,1-.054-.62A11.736,11.736,0,0,1,22.291,10.84Zm-7.37,2.931a10.484,10.484,0,0,1,4.695-2.488.312.312,0,1,1,.148.606,9.858,9.858,0,0,0-4.415,2.337.312.312,0,0,1-.428-.456Z" transform="translate(-8.306 -8.306)" fill="#c4c4c4"/>
  </g>
</svg>
