<svg width="140" height="140" viewBox="0 0 140 140" fill="none" xmlns="http://www.w3.org/2000/svg">
<path d="M65.027 95.943C59.6993 95.991 54.3957 95.991 49.068 95.943H65.027ZM65.027 95.943C65.531 95.943 66.4909 95.8471 66.8989 95.2233L65.027 95.943ZM78.4614 118.549C78.6481 122.124 75.2159 124.561 71.7193 123.224L71.7191 123.224C70.1797 122.638 68.8517 122.613 67.2856 123.224C65.5467 123.894 63.8524 123.645 62.5995 122.718C61.3465 121.792 60.5211 120.178 60.5443 118.09C60.5914 116.901 61.2002 115.373 62.473 114.171L62.4737 114.17C63.6491 113.043 64.8476 111.917 66.0696 110.839C67.1694 109.87 68.2997 109.383 69.4234 109.368C70.5467 109.353 71.6821 109.811 72.7929 110.768L72.7944 110.769C74.1106 111.87 75.3559 113.043 76.5788 114.241C77.7779 115.417 78.3669 116.873 78.4614 118.549ZM78.4614 118.549C78.4614 118.549 78.4614 118.549 78.4614 118.549L78.5862 118.542M78.4614 118.549C78.4614 118.549 78.4614 118.549 78.4614 118.55L78.5862 118.542M78.5862 118.542C78.4902 116.839 77.8902 115.352 76.6663 114.152C75.4424 112.953 74.1945 111.777 72.8745 110.673L67.3309 123.341C68.8668 122.741 70.1627 122.765 71.6746 123.341C75.2504 124.708 78.7782 122.213 78.5862 118.542ZM95.7691 127.712H95.9009L95.894 127.581C95.8702 127.129 95.846 126.712 95.7723 126.365C95.381 123.674 94.9879 120.984 94.5951 118.296C93.5663 111.257 92.539 104.228 91.5493 97.1983C91.4881 96.6971 91.3563 96.3503 91.0897 96.1364C90.826 95.9248 90.4575 95.866 89.9855 95.866L89.9849 95.866C84.6576 95.89 79.3543 95.89 74.027 95.866H74.0265C73.8335 95.866 73.4993 95.8315 73.1844 95.7256C72.8662 95.6186 72.5972 95.449 72.4861 95.1994C72.4195 95.026 72.4553 94.8718 72.5009 94.6864L72.5035 94.6758C72.5467 94.5008 72.6 94.2842 72.4808 94.0609L72.4809 94.0608L72.4783 94.0563C72.32 93.7872 72.0149 93.7307 71.5941 93.7189C71.3973 93.7133 71.1609 93.7178 70.8816 93.7232C70.8533 93.7237 70.8247 93.7243 70.7956 93.7248C70.4772 93.7308 70.1024 93.7368 69.6606 93.7308C69.3063 93.7252 69.0063 93.713 68.7491 93.7025L68.702 93.7005C68.4357 93.6897 68.2131 93.6812 68.0267 93.6859C67.6528 93.6951 67.3919 93.7573 67.1888 93.9894L67.1887 93.9893L67.1853 93.9936C67.0204 94.1996 66.9976 94.4028 66.9772 94.584L66.9757 94.5975C66.955 94.7802 66.9333 94.9516 66.7957 95.1527L66.7943 95.1549C66.6135 95.4312 66.3044 95.599 65.9643 95.6969C65.6258 95.7945 65.2726 95.818 65.027 95.818L65.0259 95.818C59.699 95.866 54.396 95.866 49.0691 95.818V95.818H49.068C48.581 95.818 48.2178 95.8897 47.9603 96.1124C47.7029 96.3349 47.5775 96.6854 47.5044 97.172L47.5044 97.172L47.5042 97.1735C46.8644 101.811 46.1819 106.448 45.4993 111.086C45.158 113.405 44.8166 115.725 44.4806 118.044C44.1143 120.461 43.776 122.864 43.4337 125.295C43.3273 126.05 43.2206 126.808 43.1126 127.57L43.0923 127.712H43.2363H43.3393H43.4422H43.5451H43.648H43.751H43.8539H43.9568H44.0597H44.1626H44.2655H44.3684H44.4713H44.5743H44.6772H44.7801H44.883H44.9858H45.0887H45.1916H45.2945H45.3974H45.5003H45.6032H45.7061H45.8089H45.9118H46.0147H46.1176H46.2204H46.3233H46.4262H46.529H46.6319H46.7348H46.8376H46.9405H47.0433H47.1462H47.249H47.3519H47.4547H47.5576H47.6604H47.7633H47.8661H47.9689H48.0718H48.1746H48.2774H48.3803H48.4831H48.5859H48.6887H48.7916H48.8944H48.9972H49.1H49.2028H49.3056H49.4084H49.5113H49.6141H49.7169H49.8197H49.9225H50.0253H50.1281H50.2309H50.3336H50.4364H50.5392H50.642H50.7448H50.8476H50.9504H51.0532H51.1559H51.2587H51.3615H51.4643H51.567H51.6698H51.7726H51.8753H51.9781H52.0809H52.1836H52.2864H52.3891H52.4919H52.5946H52.6974H52.8002H52.9029H53.0056H53.1084H53.2111H53.3139H53.4166H53.5194H53.6221H53.7248H53.8276H53.9303H54.033H54.1358H54.2385H54.3412H54.4439H54.5467H54.6494H54.7521H54.8548H54.9575H55.0603H55.163H55.2657H55.3684H55.4711H55.5738H55.6765H55.7792H55.8819H55.9846H56.0873H56.19H56.2927H56.3954H56.4981H56.6008H56.7035H56.8062H56.9089H57.0115H57.1142H57.2169H57.3196H57.4223H57.5249H57.6276H57.7303H57.833H57.9356H58.0383H58.141H58.2437H58.3463H58.449H58.5517H58.6543H58.757H58.8596H58.9623H59.065H59.1676H59.2703H59.3729H59.4756H59.5782H59.6809H59.7835H59.8862H59.9888H60.0914H60.1941H60.2967H60.3994H60.502H60.6046H60.7073H60.8099H60.9126H61.0152H61.1178H61.2204H61.3231H61.4257H61.5283H61.631H61.7336H61.8362H61.9388H62.0414H62.1441H62.2467H62.3493H62.4519H62.5545H62.6571H62.7597H62.8624H62.965H63.0676H63.1702H63.2728H63.3754H63.478H63.5806H63.6832H63.7858H63.8884H63.991H64.0936H64.1962H64.2988H64.4014H64.504H64.6065H64.7091H64.8117H64.9143H65.0169H65.1195H65.2221H65.3247H65.4272H65.5298H65.6324H65.735H65.8376H65.9401H66.0427H66.1453H66.2479H66.3504H66.453H66.5556H66.6581H66.7607H66.8633H66.9658H67.0684H67.171H67.2735H67.3761H67.4787H67.5812H67.6838H67.7864H67.8889H67.9915H68.094H68.1966H68.2991H68.4017H68.5042H68.6068H68.7093H68.8119H68.9144H69.017H69.1195H69.2221H69.3246H69.4272H69.5297H69.6323H69.7348H69.8374H69.9399H70.0424H70.145H70.2475H70.3501H70.4526H70.5551H70.6577H70.7602H70.8627H70.9653H71.0678H71.1703H71.2729H71.3754H71.4779H71.5805H71.683H71.7855H71.8881H71.9906H72.0931H72.1956H72.2982H72.4007H72.5032H72.6057H72.7082H72.8108H72.9133H73.0158H73.1183H73.2208H73.3234H73.4259H73.5284H73.6309H73.7334H73.8359H73.9385H74.041H74.1435H74.246H74.3485H74.451H74.5535H74.656H74.7586H74.8611H74.9636H75.0661H75.1686H75.2711H75.3736H75.4761H75.5786H75.6811H75.7836H75.8861H75.9886H76.0911H76.1936H76.2961H76.3986H76.5011H76.6036H76.7061H76.8086H76.9111H77.0136H77.1161H77.2186H77.3211H77.4236H77.5261H77.6286H77.7311H77.8336H77.9361H78.0386H78.1411H78.2436H78.3461H78.4486H78.5511H78.6536H78.7561H78.8586H78.961H79.0635H79.166H79.2685H79.371H79.4735H79.576H79.6785H79.781H79.8835H79.9859H80.0884H80.1909H80.2934H80.3959H80.4984H80.6009H80.7034H80.8058H80.9083H81.0108H81.1133H81.2158H81.3183H81.4208H81.5232H81.6257H81.7282H81.8307H81.9332H82.0357H82.1381H82.2406H82.3431H82.4456H82.5481H82.6506H82.753H82.8555H82.958H83.0605H83.163H83.2655H83.3679H83.4704H83.5729H83.6754H83.7779H83.8803H83.9828H84.0853H84.1878H84.2903H84.3928H84.4952H84.5977H84.7002H84.8027H84.9052H85.0076H85.1101H85.2126H85.3151H85.4176H85.5201H85.6225H85.725H85.8275H85.93H86.0325H86.1349H86.2374H86.3399H86.4424H86.5449H86.6474H86.7498H86.8523H86.9548H87.0573H87.1598H87.2622H87.3647H87.4672H87.5697H87.6722H87.7747H87.8771H87.9796H88.0821H88.1846H88.2871H88.3896H88.492H88.5945H88.697H88.7995H88.902H89.0045H89.1069H89.2094H89.3119H89.4144H89.5169H89.6194H89.7219H89.8243H89.9268H90.0293H90.1318H90.2343H90.3368H90.4393H90.5418H90.6442H90.7467H90.8492H90.9517H91.0542H91.1567H91.2592H91.3617H91.4642H91.5667H91.6691H91.7716H91.8741H91.9766H92.0791H92.1816H92.2841H92.3866H92.4891H92.5916H92.6941H92.7966H92.8991H93.0016H93.1041H93.2066H93.3091H93.4116H93.5141H93.6166H93.7191H93.8216H93.9241H94.0266H94.1291H94.2316H94.3341H94.4366H94.5391H94.6416H94.7441H94.8466H94.9491H95.0516H95.1541H95.2566H95.3591H95.4616H95.5641H95.6666H95.7691ZM81.2267 105.583L81.2276 105.583C81.4309 105.665 81.6051 105.859 81.7588 106.084C81.83 106.188 81.8937 106.293 81.9526 106.391L81.9634 106.409C82.0136 106.492 82.0626 106.573 82.109 106.637C82.1046 106.965 81.9824 107.347 81.7753 107.741C81.5607 108.15 81.2599 108.562 80.924 108.927C80.588 109.293 80.2201 109.607 79.8733 109.822C79.5223 110.039 79.2124 110.142 78.9851 110.118C78.7279 110.084 78.42 109.976 78.1505 109.821C77.8778 109.665 77.6633 109.471 77.5712 109.276L77.5711 109.276C77.463 109.049 77.4157 108.724 77.4331 108.392C77.4504 108.06 77.5313 107.74 77.6614 107.523L77.6623 107.521C78.0827 106.798 78.7628 106.141 79.4664 105.719L79.4679 105.718C79.698 105.575 80.0127 105.489 80.3379 105.466C80.663 105.443 80.9848 105.484 81.2267 105.583ZM69.6226 100.626L69.6232 100.626C70.1156 100.672 70.474 100.841 70.7186 101.108C70.964 101.375 71.1072 101.752 71.1419 102.237C71.1575 102.503 71.1524 102.754 71.1471 103.015C71.1444 103.149 71.1416 103.286 71.1416 103.428C71.1416 104.369 71.0096 105.024 70.7494 105.444C70.4965 105.851 70.1134 106.051 69.5602 106.062L69.5627 106.187L69.5603 106.062C68.9722 106.073 68.5472 105.867 68.2624 105.445C67.9711 105.014 67.8158 104.342 67.8158 103.404C67.8158 103.309 67.8149 103.216 67.8139 103.124C67.8101 102.769 67.8067 102.438 67.8621 102.105L67.8622 102.105L67.8627 102.102C67.9311 101.6 68.146 101.211 68.4516 100.957C68.7567 100.705 69.1609 100.581 69.6226 100.626ZM57.1386 107.748L57.1386 107.748L57.1378 107.747C56.4132 106.715 57.2403 105.305 58.5234 105.305C58.7578 105.305 59.0737 105.426 59.4275 105.644C59.7771 105.86 60.1477 106.16 60.4875 106.495C60.8273 106.83 61.1329 107.197 61.3541 107.544C61.5778 107.895 61.7049 108.21 61.7102 108.445C61.7213 109.067 61.3709 109.609 60.885 109.907C60.4001 110.204 59.7946 110.25 59.2907 109.899L59.29 109.899C58.4628 109.332 57.7058 108.575 57.1386 107.748Z" fill="#FFDC55" stroke="#2A2968" stroke-width="0.25"/>
<mask id="path-2-outside-1_326_6218" maskUnits="userSpaceOnUse" x="27" y="7.40002" width="85" height="125" fill="black">
<rect fill="white" x="27" y="7.40002" width="85" height="125"/>
<path d="M71.6988 8.40002C73.8106 8.95182 75.9705 9.38365 78.0344 10.0794C80.2423 10.8231 82.0181 12.2386 83.4581 14.0859C83.746 14.4457 84.25 14.7336 84.706 14.8536C91.1376 16.6529 95.3133 21.715 95.3853 28.4085C95.4333 31.6712 94.9054 34.934 94.6174 38.1968C94.5694 38.8685 94.4494 39.5403 94.3774 40.284C94.7134 40.38 95.0014 40.4759 95.3133 40.5239C100.761 41.3636 103.665 46.3777 101.577 51.5358C100.041 55.3263 97.0652 57.1976 93.0575 57.5095C92.2415 57.5815 91.8095 57.8454 91.4256 58.5651C89.4097 62.4516 86.6259 65.7384 83.1701 68.4014C82.4501 68.9532 82.1621 69.529 82.2341 70.3926C82.3301 71.5442 81.9221 72.9597 82.4741 73.7514C82.9781 74.4951 84.442 74.6151 85.4979 74.9989C90.2496 76.6783 94.9774 78.4056 99.7291 80.013C106.473 82.2922 110 87.1863 110.768 94.0237C111.224 98.2222 111.008 102.493 111.056 106.715C111.056 107.819 110.24 108.514 109.208 108.49C108.201 108.466 107.481 107.747 107.481 106.595C107.457 103.236 107.505 99.8775 107.433 96.5188C107.385 93.7358 106.761 91.0489 105.321 88.6258C104.049 86.4666 102.249 84.8352 99.8971 83.9475C96.6333 82.748 93.3695 81.6204 90.0817 80.4449C89.9377 80.3969 89.7697 80.3969 89.5537 80.3729C89.5537 84.3554 89.5537 88.2899 89.5537 92.3204C89.8897 92.3444 90.2016 92.3684 90.4896 92.3684C93.0095 92.4163 94.5694 93.6879 94.9294 96.1589C96.1773 104.532 97.3532 112.929 98.5771 121.301C98.8891 123.389 99.1771 125.476 99.4891 127.587C102.153 127.587 104.697 127.587 107.457 127.587C107.457 127.179 107.457 126.747 107.457 126.34C107.457 122.741 107.457 119.142 107.457 115.544C107.457 114.056 108.153 113.216 109.28 113.24C110.384 113.264 111.032 114.08 111.032 115.496C111.032 119.622 111.056 123.725 111.032 127.851C111.032 130.058 109.832 131.234 107.601 131.234C82.2101 131.234 56.8197 131.234 31.4292 131.234C29.2693 131.234 28.0214 130.058 28.0214 127.947C28.0214 117.439 27.9494 106.907 28.0694 96.3988C28.1174 91.2168 29.7253 86.5146 33.8531 83.0839C35.365 81.8363 37.1889 80.8767 39.0368 80.181C44.6044 78.0937 50.2441 76.1745 55.8597 74.2312C56.6517 73.9673 56.7957 73.5834 56.8917 72.7917C57.2036 70.2727 56.4117 68.5453 54.3238 66.938C51.396 64.7308 49.2841 61.7079 47.6042 58.4452C47.2683 57.7974 46.9083 57.5335 46.1643 57.4855C40.7646 57.1017 36.9249 53.3111 36.8769 48.369C36.8289 44.3865 39.3247 41.3396 43.2845 40.5719C43.5485 40.5239 43.8365 40.4759 44.1724 40.4279C43.9565 39.0125 43.6925 37.645 43.5245 36.2775C42.2766 25.2417 48.5882 14.4218 58.0196 10.6792C60.4675 9.69554 63.1553 9.28769 65.7471 8.63993C66.0591 8.56796 66.3471 8.49599 66.6591 8.42402C68.339 8.40002 70.0189 8.40002 71.6988 8.40002ZM95.7693 127.587C95.7213 127.131 95.7213 126.747 95.6733 126.364C94.2574 116.647 92.8175 106.931 91.4496 97.1905C91.3056 96.2069 90.9216 95.967 90.0097 95.967C84.682 96.015 79.3783 95.991 74.0506 95.967C72.8267 95.967 72.0827 95.2233 72.0588 94.1917C72.0588 93.1601 72.8267 92.4163 74.0266 92.3923C75.4185 92.3684 76.8345 92.3923 78.2264 92.3923C80.7222 92.3923 83.2421 92.3923 85.8579 92.3923C85.8579 88.002 85.8579 83.7316 85.8339 79.4852C85.8339 79.2693 85.6419 78.9334 85.4499 78.8615C84.346 78.4296 83.2181 78.0698 82.0421 77.6619C80.7702 81.6204 77.7944 83.4437 74.1466 84.4034C71.4828 85.0991 68.771 85.1951 66.0591 84.6433C62.0034 83.8276 58.5476 82.1242 57.0597 77.8778C57.0357 77.8298 56.9397 77.8058 56.8197 77.7099C55.6677 78.1177 54.4678 78.5496 53.2679 78.9814C53.2679 83.4677 53.2679 87.882 53.2679 92.3923C54.2518 92.3923 55.1638 92.3923 56.0757 92.3923C59.1475 92.3923 62.2433 92.3444 65.3152 92.4403C65.9391 92.4643 66.7311 92.9921 67.091 93.5199C67.355 93.9038 67.235 94.8874 66.8991 95.2233C66.4671 95.6791 65.6751 95.943 65.0272 95.943C59.6995 95.991 54.3958 95.991 49.0681 95.943C48.1082 95.943 47.7722 96.2309 47.6282 97.1905C46.6443 104.148 45.6124 111.105 44.6044 118.063C44.1484 121.205 43.7165 124.372 43.2365 127.587C60.8034 127.587 78.2744 127.587 95.7693 127.587ZM79.4503 33.3746C77.2904 34.5022 75.2506 35.7017 73.1387 36.6854C65.6031 40.188 57.7076 42.5392 49.4521 43.7147C49.1641 43.7627 48.6602 44.1226 48.6602 44.3145C48.7562 47.0255 48.4442 49.8564 49.1401 52.3994C51.252 60.1485 56.3877 65.4505 63.5873 68.8572C67.595 70.7525 71.6268 70.7045 75.6105 68.8092C77.1224 68.0895 78.6343 67.3218 79.9543 66.3142C86.6499 61.2041 91.1136 54.9185 90.4896 45.9938C90.4416 45.4421 90.4176 44.8663 90.4896 44.3145C90.6336 43.3788 90.2016 42.899 89.4097 42.4672C85.3539 40.236 81.4182 37.8369 79.4503 33.3746ZM48.1322 40.38C51.324 39.7082 54.5158 39.1564 57.6356 38.3407C64.9312 36.4454 71.9628 33.8784 78.2984 29.656C80.0743 28.4565 81.1542 26.8491 81.5142 24.8098C81.7782 23.3704 81.8262 21.8829 81.8022 20.4195C81.7062 16.9648 79.9303 14.6617 76.7625 13.3901C71.9628 11.4469 67.0671 11.6868 62.1713 12.9583C49.8361 16.1971 44.5564 29.9919 48.1322 40.38ZM49.5721 80.2289C45.9963 81.5005 42.5645 82.676 39.1567 83.9475C36.4689 84.9791 34.549 86.9224 33.2771 89.4894C32.0292 92.0085 31.5972 94.7195 31.5972 97.5024C31.5972 107.123 31.5972 116.767 31.5972 126.388C31.5972 126.771 31.6212 127.155 31.6452 127.563C34.309 127.563 36.9009 127.563 39.4927 127.563C39.5647 127.275 39.6607 127.059 39.6847 126.819C40.7646 119.43 41.8206 112.041 42.8765 104.652C43.2845 101.845 43.6685 99.0378 44.1004 96.2309C44.4844 93.7119 46.0203 92.4163 48.6122 92.3684C48.9242 92.3684 49.2121 92.3204 49.5481 92.2724C49.5721 88.2899 49.5721 84.3794 49.5721 80.2289ZM78.6343 71.3283C72.5147 74.687 66.5151 74.6151 60.4195 71.3523C60.4195 72.8397 60.4435 74.0633 60.4195 75.2868C60.3475 77.2301 61.1874 78.7415 62.8673 79.6292C67.259 81.9803 71.7228 81.9803 76.1385 79.6771C77.8664 78.7655 78.7063 77.2541 78.6583 75.2628C78.6104 74.0633 78.6343 72.8637 78.6343 71.3283ZM91.0416 39.2764C91.3296 35.5578 91.7616 32.0551 91.8095 28.5764C91.8575 25.7455 90.8256 23.1545 88.7137 21.1632C87.7778 20.2755 86.6259 19.6038 85.5699 18.8601C85.3779 19.7717 85.4259 20.4195 85.4499 21.0433C85.5699 24.306 85.018 27.4249 83.0501 30.1118C82.5221 30.8316 82.4981 31.4073 82.8581 32.1751C84.49 35.6058 87.6338 37.3091 91.0416 39.2764ZM44.8684 44.0986C42.3246 44.0266 40.5487 45.634 40.4767 48.0571C40.4047 51.008 42.7325 53.623 45.3484 53.647C45.1804 50.4802 45.0364 47.2894 44.8684 44.0986ZM93.7294 53.7669C95.1933 53.575 96.5373 52.8553 97.4972 51.5358C98.6971 49.8804 99.0571 48.0331 98.0732 46.1378C97.2812 44.6024 95.8653 44.0746 94.2094 44.0506C94.0414 47.2654 93.8974 50.4322 93.7294 53.7669Z"/>
</mask>
<path d="M71.6988 8.40002C73.8106 8.95182 75.9705 9.38365 78.0344 10.0794C80.2423 10.8231 82.0181 12.2386 83.4581 14.0859C83.746 14.4457 84.25 14.7336 84.706 14.8536C91.1376 16.6529 95.3133 21.715 95.3853 28.4085C95.4333 31.6712 94.9054 34.934 94.6174 38.1968C94.5694 38.8685 94.4494 39.5403 94.3774 40.284C94.7134 40.38 95.0014 40.4759 95.3133 40.5239C100.761 41.3636 103.665 46.3777 101.577 51.5358C100.041 55.3263 97.0652 57.1976 93.0575 57.5095C92.2415 57.5815 91.8095 57.8454 91.4256 58.5651C89.4097 62.4516 86.6259 65.7384 83.1701 68.4014C82.4501 68.9532 82.1621 69.529 82.2341 70.3926C82.3301 71.5442 81.9221 72.9597 82.4741 73.7514C82.9781 74.4951 84.442 74.6151 85.4979 74.9989C90.2496 76.6783 94.9774 78.4056 99.7291 80.013C106.473 82.2922 110 87.1863 110.768 94.0237C111.224 98.2222 111.008 102.493 111.056 106.715C111.056 107.819 110.24 108.514 109.208 108.49C108.201 108.466 107.481 107.747 107.481 106.595C107.457 103.236 107.505 99.8775 107.433 96.5188C107.385 93.7358 106.761 91.0489 105.321 88.6258C104.049 86.4666 102.249 84.8352 99.8971 83.9475C96.6333 82.748 93.3695 81.6204 90.0817 80.4449C89.9377 80.3969 89.7697 80.3969 89.5537 80.3729C89.5537 84.3554 89.5537 88.2899 89.5537 92.3204C89.8897 92.3444 90.2016 92.3684 90.4896 92.3684C93.0095 92.4163 94.5694 93.6879 94.9294 96.1589C96.1773 104.532 97.3532 112.929 98.5771 121.301C98.8891 123.389 99.1771 125.476 99.4891 127.587C102.153 127.587 104.697 127.587 107.457 127.587C107.457 127.179 107.457 126.747 107.457 126.34C107.457 122.741 107.457 119.142 107.457 115.544C107.457 114.056 108.153 113.216 109.28 113.24C110.384 113.264 111.032 114.08 111.032 115.496C111.032 119.622 111.056 123.725 111.032 127.851C111.032 130.058 109.832 131.234 107.601 131.234C82.2101 131.234 56.8197 131.234 31.4292 131.234C29.2693 131.234 28.0214 130.058 28.0214 127.947C28.0214 117.439 27.9494 106.907 28.0694 96.3988C28.1174 91.2168 29.7253 86.5146 33.8531 83.0839C35.365 81.8363 37.1889 80.8767 39.0368 80.181C44.6044 78.0937 50.2441 76.1745 55.8597 74.2312C56.6517 73.9673 56.7957 73.5834 56.8917 72.7917C57.2036 70.2727 56.4117 68.5453 54.3238 66.938C51.396 64.7308 49.2841 61.7079 47.6042 58.4452C47.2683 57.7974 46.9083 57.5335 46.1643 57.4855C40.7646 57.1017 36.9249 53.3111 36.8769 48.369C36.8289 44.3865 39.3247 41.3396 43.2845 40.5719C43.5485 40.5239 43.8365 40.4759 44.1724 40.4279C43.9565 39.0125 43.6925 37.645 43.5245 36.2775C42.2766 25.2417 48.5882 14.4218 58.0196 10.6792C60.4675 9.69554 63.1553 9.28769 65.7471 8.63993C66.0591 8.56796 66.3471 8.49599 66.6591 8.42402C68.339 8.40002 70.0189 8.40002 71.6988 8.40002ZM95.7693 127.587C95.7213 127.131 95.7213 126.747 95.6733 126.364C94.2574 116.647 92.8175 106.931 91.4496 97.1905C91.3056 96.2069 90.9216 95.967 90.0097 95.967C84.682 96.015 79.3783 95.991 74.0506 95.967C72.8267 95.967 72.0827 95.2233 72.0588 94.1917C72.0588 93.1601 72.8267 92.4163 74.0266 92.3923C75.4185 92.3684 76.8345 92.3923 78.2264 92.3923C80.7222 92.3923 83.2421 92.3923 85.8579 92.3923C85.8579 88.002 85.8579 83.7316 85.8339 79.4852C85.8339 79.2693 85.6419 78.9334 85.4499 78.8615C84.346 78.4296 83.2181 78.0698 82.0421 77.6619C80.7702 81.6204 77.7944 83.4437 74.1466 84.4034C71.4828 85.0991 68.771 85.1951 66.0591 84.6433C62.0034 83.8276 58.5476 82.1242 57.0597 77.8778C57.0357 77.8298 56.9397 77.8058 56.8197 77.7099C55.6677 78.1177 54.4678 78.5496 53.2679 78.9814C53.2679 83.4677 53.2679 87.882 53.2679 92.3923C54.2518 92.3923 55.1638 92.3923 56.0757 92.3923C59.1475 92.3923 62.2433 92.3444 65.3152 92.4403C65.9391 92.4643 66.7311 92.9921 67.091 93.5199C67.355 93.9038 67.235 94.8874 66.8991 95.2233C66.4671 95.6791 65.6751 95.943 65.0272 95.943C59.6995 95.991 54.3958 95.991 49.0681 95.943C48.1082 95.943 47.7722 96.2309 47.6282 97.1905C46.6443 104.148 45.6124 111.105 44.6044 118.063C44.1484 121.205 43.7165 124.372 43.2365 127.587C60.8034 127.587 78.2744 127.587 95.7693 127.587ZM79.4503 33.3746C77.2904 34.5022 75.2506 35.7017 73.1387 36.6854C65.6031 40.188 57.7076 42.5392 49.4521 43.7147C49.1641 43.7627 48.6602 44.1226 48.6602 44.3145C48.7562 47.0255 48.4442 49.8564 49.1401 52.3994C51.252 60.1485 56.3877 65.4505 63.5873 68.8572C67.595 70.7525 71.6268 70.7045 75.6105 68.8092C77.1224 68.0895 78.6343 67.3218 79.9543 66.3142C86.6499 61.2041 91.1136 54.9185 90.4896 45.9938C90.4416 45.4421 90.4176 44.8663 90.4896 44.3145C90.6336 43.3788 90.2016 42.899 89.4097 42.4672C85.3539 40.236 81.4182 37.8369 79.4503 33.3746ZM48.1322 40.38C51.324 39.7082 54.5158 39.1564 57.6356 38.3407C64.9312 36.4454 71.9628 33.8784 78.2984 29.656C80.0743 28.4565 81.1542 26.8491 81.5142 24.8098C81.7782 23.3704 81.8262 21.8829 81.8022 20.4195C81.7062 16.9648 79.9303 14.6617 76.7625 13.3901C71.9628 11.4469 67.0671 11.6868 62.1713 12.9583C49.8361 16.1971 44.5564 29.9919 48.1322 40.38ZM49.5721 80.2289C45.9963 81.5005 42.5645 82.676 39.1567 83.9475C36.4689 84.9791 34.549 86.9224 33.2771 89.4894C32.0292 92.0085 31.5972 94.7195 31.5972 97.5024C31.5972 107.123 31.5972 116.767 31.5972 126.388C31.5972 126.771 31.6212 127.155 31.6452 127.563C34.309 127.563 36.9009 127.563 39.4927 127.563C39.5647 127.275 39.6607 127.059 39.6847 126.819C40.7646 119.43 41.8206 112.041 42.8765 104.652C43.2845 101.845 43.6685 99.0378 44.1004 96.2309C44.4844 93.7119 46.0203 92.4163 48.6122 92.3684C48.9242 92.3684 49.2121 92.3204 49.5481 92.2724C49.5721 88.2899 49.5721 84.3794 49.5721 80.2289ZM78.6343 71.3283C72.5147 74.687 66.5151 74.6151 60.4195 71.3523C60.4195 72.8397 60.4435 74.0633 60.4195 75.2868C60.3475 77.2301 61.1874 78.7415 62.8673 79.6292C67.259 81.9803 71.7228 81.9803 76.1385 79.6771C77.8664 78.7655 78.7063 77.2541 78.6583 75.2628C78.6104 74.0633 78.6343 72.8637 78.6343 71.3283ZM91.0416 39.2764C91.3296 35.5578 91.7616 32.0551 91.8095 28.5764C91.8575 25.7455 90.8256 23.1545 88.7137 21.1632C87.7778 20.2755 86.6259 19.6038 85.5699 18.8601C85.3779 19.7717 85.4259 20.4195 85.4499 21.0433C85.5699 24.306 85.018 27.4249 83.0501 30.1118C82.5221 30.8316 82.4981 31.4073 82.8581 32.1751C84.49 35.6058 87.6338 37.3091 91.0416 39.2764ZM44.8684 44.0986C42.3246 44.0266 40.5487 45.634 40.4767 48.0571C40.4047 51.008 42.7325 53.623 45.3484 53.647C45.1804 50.4802 45.0364 47.2894 44.8684 44.0986ZM93.7294 53.7669C95.1933 53.575 96.5373 52.8553 97.4972 51.5358C98.6971 49.8804 99.0571 48.0331 98.0732 46.1378C97.2812 44.6024 95.8653 44.0746 94.2094 44.0506C94.0414 47.2654 93.8974 50.4322 93.7294 53.7669Z" fill="#2A2968"/>
<path d="M71.6988 8.40002C73.8106 8.95182 75.9705 9.38365 78.0344 10.0794C80.2423 10.8231 82.0181 12.2386 83.4581 14.0859C83.746 14.4457 84.25 14.7336 84.706 14.8536C91.1376 16.6529 95.3133 21.715 95.3853 28.4085C95.4333 31.6712 94.9054 34.934 94.6174 38.1968C94.5694 38.8685 94.4494 39.5403 94.3774 40.284C94.7134 40.38 95.0014 40.4759 95.3133 40.5239C100.761 41.3636 103.665 46.3777 101.577 51.5358C100.041 55.3263 97.0652 57.1976 93.0575 57.5095C92.2415 57.5815 91.8095 57.8454 91.4256 58.5651C89.4097 62.4516 86.6259 65.7384 83.1701 68.4014C82.4501 68.9532 82.1621 69.529 82.2341 70.3926C82.3301 71.5442 81.9221 72.9597 82.4741 73.7514C82.9781 74.4951 84.442 74.6151 85.4979 74.9989C90.2496 76.6783 94.9774 78.4056 99.7291 80.013C106.473 82.2922 110 87.1863 110.768 94.0237C111.224 98.2222 111.008 102.493 111.056 106.715C111.056 107.819 110.24 108.514 109.208 108.49C108.201 108.466 107.481 107.747 107.481 106.595C107.457 103.236 107.505 99.8775 107.433 96.5188C107.385 93.7358 106.761 91.0489 105.321 88.6258C104.049 86.4666 102.249 84.8352 99.8971 83.9475C96.6333 82.748 93.3695 81.6204 90.0817 80.4449C89.9377 80.3969 89.7697 80.3969 89.5537 80.3729C89.5537 84.3554 89.5537 88.2899 89.5537 92.3204C89.8897 92.3444 90.2016 92.3684 90.4896 92.3684C93.0095 92.4163 94.5694 93.6879 94.9294 96.1589C96.1773 104.532 97.3532 112.929 98.5771 121.301C98.8891 123.389 99.1771 125.476 99.4891 127.587C102.153 127.587 104.697 127.587 107.457 127.587C107.457 127.179 107.457 126.747 107.457 126.34C107.457 122.741 107.457 119.142 107.457 115.544C107.457 114.056 108.153 113.216 109.28 113.24C110.384 113.264 111.032 114.08 111.032 115.496C111.032 119.622 111.056 123.725 111.032 127.851C111.032 130.058 109.832 131.234 107.601 131.234C82.2101 131.234 56.8197 131.234 31.4292 131.234C29.2693 131.234 28.0214 130.058 28.0214 127.947C28.0214 117.439 27.9494 106.907 28.0694 96.3988C28.1174 91.2168 29.7253 86.5146 33.8531 83.0839C35.365 81.8363 37.1889 80.8767 39.0368 80.181C44.6044 78.0937 50.2441 76.1745 55.8597 74.2312C56.6517 73.9673 56.7957 73.5834 56.8917 72.7917C57.2036 70.2727 56.4117 68.5453 54.3238 66.938C51.396 64.7308 49.2841 61.7079 47.6042 58.4452C47.2683 57.7974 46.9083 57.5335 46.1643 57.4855C40.7646 57.1017 36.9249 53.3111 36.8769 48.369C36.8289 44.3865 39.3247 41.3396 43.2845 40.5719C43.5485 40.5239 43.8365 40.4759 44.1724 40.4279C43.9565 39.0125 43.6925 37.645 43.5245 36.2775C42.2766 25.2417 48.5882 14.4218 58.0196 10.6792C60.4675 9.69554 63.1553 9.28769 65.7471 8.63993C66.0591 8.56796 66.3471 8.49599 66.6591 8.42402C68.339 8.40002 70.0189 8.40002 71.6988 8.40002ZM95.7693 127.587C95.7213 127.131 95.7213 126.747 95.6733 126.364C94.2574 116.647 92.8175 106.931 91.4496 97.1905C91.3056 96.2069 90.9216 95.967 90.0097 95.967C84.682 96.015 79.3783 95.991 74.0506 95.967C72.8267 95.967 72.0827 95.2233 72.0588 94.1917C72.0588 93.1601 72.8267 92.4163 74.0266 92.3923C75.4185 92.3684 76.8345 92.3923 78.2264 92.3923C80.7222 92.3923 83.2421 92.3923 85.8579 92.3923C85.8579 88.002 85.8579 83.7316 85.8339 79.4852C85.8339 79.2693 85.6419 78.9334 85.4499 78.8615C84.346 78.4296 83.2181 78.0698 82.0421 77.6619C80.7702 81.6204 77.7944 83.4437 74.1466 84.4034C71.4828 85.0991 68.771 85.1951 66.0591 84.6433C62.0034 83.8276 58.5476 82.1242 57.0597 77.8778C57.0357 77.8298 56.9397 77.8058 56.8197 77.7099C55.6677 78.1177 54.4678 78.5496 53.2679 78.9814C53.2679 83.4677 53.2679 87.882 53.2679 92.3923C54.2518 92.3923 55.1638 92.3923 56.0757 92.3923C59.1475 92.3923 62.2433 92.3444 65.3152 92.4403C65.9391 92.4643 66.7311 92.9921 67.091 93.5199C67.355 93.9038 67.235 94.8874 66.8991 95.2233C66.4671 95.6791 65.6751 95.943 65.0272 95.943C59.6995 95.991 54.3958 95.991 49.0681 95.943C48.1082 95.943 47.7722 96.2309 47.6282 97.1905C46.6443 104.148 45.6124 111.105 44.6044 118.063C44.1484 121.205 43.7165 124.372 43.2365 127.587C60.8034 127.587 78.2744 127.587 95.7693 127.587ZM79.4503 33.3746C77.2904 34.5022 75.2506 35.7017 73.1387 36.6854C65.6031 40.188 57.7076 42.5392 49.4521 43.7147C49.1641 43.7627 48.6602 44.1226 48.6602 44.3145C48.7562 47.0255 48.4442 49.8564 49.1401 52.3994C51.252 60.1485 56.3877 65.4505 63.5873 68.8572C67.595 70.7525 71.6268 70.7045 75.6105 68.8092C77.1224 68.0895 78.6343 67.3218 79.9543 66.3142C86.6499 61.2041 91.1136 54.9185 90.4896 45.9938C90.4416 45.4421 90.4176 44.8663 90.4896 44.3145C90.6336 43.3788 90.2016 42.899 89.4097 42.4672C85.3539 40.236 81.4182 37.8369 79.4503 33.3746ZM48.1322 40.38C51.324 39.7082 54.5158 39.1564 57.6356 38.3407C64.9312 36.4454 71.9628 33.8784 78.2984 29.656C80.0743 28.4565 81.1542 26.8491 81.5142 24.8098C81.7782 23.3704 81.8262 21.8829 81.8022 20.4195C81.7062 16.9648 79.9303 14.6617 76.7625 13.3901C71.9628 11.4469 67.0671 11.6868 62.1713 12.9583C49.8361 16.1971 44.5564 29.9919 48.1322 40.38ZM49.5721 80.2289C45.9963 81.5005 42.5645 82.676 39.1567 83.9475C36.4689 84.9791 34.549 86.9224 33.2771 89.4894C32.0292 92.0085 31.5972 94.7195 31.5972 97.5024C31.5972 107.123 31.5972 116.767 31.5972 126.388C31.5972 126.771 31.6212 127.155 31.6452 127.563C34.309 127.563 36.9009 127.563 39.4927 127.563C39.5647 127.275 39.6607 127.059 39.6847 126.819C40.7646 119.43 41.8206 112.041 42.8765 104.652C43.2845 101.845 43.6685 99.0378 44.1004 96.2309C44.4844 93.7119 46.0203 92.4163 48.6122 92.3684C48.9242 92.3684 49.2121 92.3204 49.5481 92.2724C49.5721 88.2899 49.5721 84.3794 49.5721 80.2289ZM78.6343 71.3283C72.5147 74.687 66.5151 74.6151 60.4195 71.3523C60.4195 72.8397 60.4435 74.0633 60.4195 75.2868C60.3475 77.2301 61.1874 78.7415 62.8673 79.6292C67.259 81.9803 71.7228 81.9803 76.1385 79.6771C77.8664 78.7655 78.7063 77.2541 78.6583 75.2628C78.6104 74.0633 78.6343 72.8637 78.6343 71.3283ZM91.0416 39.2764C91.3296 35.5578 91.7616 32.0551 91.8095 28.5764C91.8575 25.7455 90.8256 23.1545 88.7137 21.1632C87.7778 20.2755 86.6259 19.6038 85.5699 18.8601C85.3779 19.7717 85.4259 20.4195 85.4499 21.0433C85.5699 24.306 85.018 27.4249 83.0501 30.1118C82.5221 30.8316 82.4981 31.4073 82.8581 32.1751C84.49 35.6058 87.6338 37.3091 91.0416 39.2764ZM44.8684 44.0986C42.3246 44.0266 40.5487 45.634 40.4767 48.0571C40.4047 51.008 42.7325 53.623 45.3484 53.647C45.1804 50.4802 45.0364 47.2894 44.8684 44.0986ZM93.7294 53.7669C95.1933 53.575 96.5373 52.8553 97.4972 51.5358C98.6971 49.8804 99.0571 48.0331 98.0732 46.1378C97.2812 44.6024 95.8653 44.0746 94.2094 44.0506C94.0414 47.2654 93.8974 50.4322 93.7294 53.7669Z" stroke="#2A2968" stroke-width="0.5" mask="url(#path-2-outside-1_326_6218)"/>
<path d="M60.2936 118.082L60.2935 118.082L60.2935 118.085C60.2691 120.243 61.1235 121.939 62.4502 122.917C63.7773 123.895 65.5629 124.143 67.3756 123.433C68.8808 122.845 70.1208 122.868 71.6295 123.434C75.2841 124.831 78.9072 122.279 78.7102 118.512L78.7102 118.512C78.6126 116.781 78.0017 115.263 76.753 114.039L76.7521 114.038C75.5039 112.838 74.2538 111.661 72.955 110.555C71.8106 109.569 70.6244 109.073 69.4286 109.085C68.233 109.097 67.0474 109.618 65.9034 110.628C64.6776 111.709 63.4763 112.838 62.2998 113.966L62.2998 113.966L62.2988 113.967C61.0068 115.234 60.343 116.823 60.2936 118.082ZM69.5749 118.831L69.5401 118.82L69.505 118.83C69.0969 118.941 68.7059 119.063 68.327 119.182C68.2134 119.217 68.1008 119.252 67.9892 119.287C67.5053 119.436 67.0378 119.572 66.5658 119.667C66.1948 119.714 65.7243 119.767 65.3181 119.764C65.1138 119.763 64.932 119.747 64.7899 119.712C64.6434 119.677 64.5639 119.627 64.5305 119.577C64.3693 119.33 64.2752 118.908 64.2752 118.483C64.2752 118.272 64.2984 118.067 64.3447 117.89C64.3914 117.711 64.4594 117.568 64.5434 117.474L64.5434 117.474L64.5449 117.473C65.8819 115.921 67.4352 114.535 69.0178 113.193C69.0556 113.162 69.1307 113.135 69.2468 113.123C69.3597 113.112 69.4952 113.118 69.6362 113.139C69.9234 113.183 70.2024 113.286 70.3445 113.407L70.3445 113.407L70.3467 113.409C71.533 114.38 72.6416 115.447 73.7644 116.528C73.8864 116.646 74.0086 116.764 74.131 116.881L74.131 116.881L74.1336 116.884C74.2586 116.997 74.3831 117.139 74.4784 117.288C74.5747 117.438 74.6351 117.585 74.6449 117.712C74.6501 117.785 74.6561 117.86 74.6621 117.936C74.6846 118.219 74.7086 118.521 74.7016 118.8C74.6973 118.977 74.6805 119.138 74.6452 119.274C74.6098 119.411 74.5579 119.513 74.4892 119.582C74.4193 119.652 74.3134 119.708 74.1742 119.749C74.0358 119.789 73.8723 119.812 73.6955 119.821C73.3419 119.839 72.95 119.798 72.6325 119.739L72.6321 119.739C71.8944 119.605 71.1852 119.366 70.4729 119.125C70.1749 119.025 69.8763 118.924 69.5749 118.831Z" fill="#2A2968" stroke="#2A2968" stroke-width="0.25"/>
<path d="M81.2741 105.467L81.3214 105.352C81.034 105.234 80.6711 105.198 80.3192 105.226C79.967 105.254 79.6121 105.347 79.3402 105.503L79.3402 105.503L79.3395 105.503C78.5755 105.947 77.8889 106.658 77.4472 107.394L77.4471 107.394L77.4458 107.397C77.2895 107.67 77.2022 108.032 77.1835 108.388C77.1649 108.742 77.2137 109.107 77.3454 109.383C77.4693 109.645 77.7348 109.871 78.0261 110.038C78.3201 110.207 78.6596 110.327 78.9541 110.365L78.9541 110.366L78.9565 110.366C79.2691 110.401 79.6383 110.261 80.0019 110.034C80.3702 109.805 80.753 109.475 81.0993 109.096C81.4458 108.718 81.7591 108.288 81.9865 107.857C82.2129 107.428 82.3591 106.989 82.3591 106.595V106.551L82.3317 106.517C82.2899 106.465 82.2405 106.384 82.1776 106.28C82.1738 106.274 82.17 106.267 82.1661 106.261C82.1077 106.164 82.0406 106.053 81.9652 105.943C81.8069 105.711 81.5972 105.462 81.3205 105.351L81.2741 105.467ZM81.2741 105.467C80.7461 105.251 79.9062 105.323 79.4022 105.611L82.2341 106.595C82.1832 106.531 82.1255 106.436 82.0594 106.326C81.8759 106.022 81.6269 105.608 81.2741 105.467Z" fill="#2A2968" stroke="#2A2968" stroke-width="0.25"/>
<path d="M69.5402 106.288L69.5403 106.288C70.174 106.275 70.649 106.044 70.9575 105.555C71.2587 105.078 71.3907 104.371 71.3907 103.428C71.3907 103.337 71.3922 103.244 71.3936 103.148C71.3982 102.849 71.4031 102.527 71.3662 102.193C71.3286 101.66 71.172 101.223 70.8774 100.905C70.5814 100.586 70.1598 100.403 69.6217 100.353C69.0994 100.302 68.6335 100.442 68.2757 100.741C67.9189 101.04 67.6785 101.489 67.5906 102.041C67.531 102.399 67.5351 102.774 67.5391 103.127C67.54 103.213 67.5409 103.298 67.5409 103.38C67.5409 104.337 67.6977 105.069 68.0303 105.561C68.3695 106.063 68.8804 106.301 69.5402 106.288Z" fill="#2A2968" stroke="#2A2968" stroke-width="0.25"/>
<path d="M61.9611 108.44L61.961 108.44C61.9543 108.135 61.7964 107.772 61.5658 107.41C61.3325 107.044 61.0141 106.663 60.6639 106.317C60.3138 105.972 59.9285 105.659 59.5596 105.431C59.1949 105.206 58.8299 105.055 58.5243 105.055C57.0936 105.055 56.1011 106.667 56.933 107.889L56.9333 107.889C57.5179 108.742 58.2967 109.52 59.1492 110.105C59.7492 110.522 60.4634 110.459 61.0164 110.12C61.5683 109.782 61.9739 109.162 61.9611 108.44Z" fill="#2A2968" stroke="#2A2968" stroke-width="0.25"/>
<path d="M69.8765 63.4883L69.8747 63.4883C67.5659 63.4883 65.8307 62.8063 64.3657 61.4394L64.3652 61.439C63.9273 61.0262 63.6819 60.5495 63.6366 60.0672C63.5912 59.584 63.7478 59.1075 64.0915 58.7004C64.4359 58.2923 64.8804 58.0652 65.3627 58.0296C65.8437 57.9941 66.3519 58.1496 66.8272 58.4872L66.8279 58.4876L66.8279 58.4876C67.9413 59.2895 68.723 59.6695 69.5052 59.6666C70.2887 59.6638 71.1009 59.2769 72.275 58.4626C72.7375 58.1378 73.2212 57.9882 73.6812 58.0206C74.1424 58.053 74.5676 58.2677 74.9111 58.6492L69.8765 63.4883ZM69.8765 63.4883C71.5653 63.4638 73.2996 62.7787 74.7137 61.3895M69.8765 63.4883L74.7137 61.3895M74.7137 61.3895C75.1402 60.9755 75.3727 60.4919 75.4051 60.0069C75.4375 59.521 75.2682 59.0445 74.9112 58.6493L74.7137 61.3895Z" fill="#2A2968" stroke="#2A2968" stroke-width="0.25"/>
<path d="M62.1039 46.2902L62.1039 46.2902L62.1036 46.288C61.9514 45.2226 61.1055 44.4928 60.0688 44.6222C59.5448 44.6846 59.119 44.8674 58.8178 45.1816C58.5164 45.496 58.3526 45.9288 58.3273 46.4662C58.3109 46.6964 58.3166 46.921 58.322 47.1345C58.3246 47.2368 58.3271 47.3366 58.3271 47.4332V47.4344V47.4355V47.4366V47.4377V47.4389V47.44V47.4411V47.4422V47.4434V47.4445V47.4456V47.4467V47.4479V47.449V47.4501V47.4512V47.4524V47.4535V47.4546V47.4557V47.4569V47.458V47.4591V47.4602V47.4614V47.4625V47.4636V47.4647V47.4659V47.467V47.4681V47.4692V47.4704V47.4715V47.4726V47.4737V47.4749V47.476V47.4771V47.4782V47.4794V47.4805V47.4816V47.4827V47.4839V47.485V47.4861V47.4872V47.4883V47.4895V47.4906V47.4917V47.4928V47.494V47.4951V47.4962V47.4973V47.4985V47.4996V47.5007V47.5018V47.503V47.5041V47.5052V47.5063V47.5075V47.5086V47.5097V47.5108V47.512V47.5131V47.5142V47.5153V47.5165V47.5176V47.5187V47.5198V47.521V47.5221V47.5232V47.5243V47.5255V47.5266V47.5277V47.5288V47.53V47.5311V47.5322V47.5333V47.5345V47.5356V47.5367V47.5378V47.539V47.5401V47.5412V47.5423V47.5435V47.5446V47.5457V47.5468V47.548V47.5491V47.5502V47.5513V47.5524V47.5536V47.5547V47.5558V47.5569V47.5581V47.5592V47.5603V47.5614V47.5626V47.5637V47.5648V47.5659V47.5671V47.5682V47.5693V47.5704V47.5716V47.5727V47.5738V47.5749V47.5761V47.5772V47.5783V47.5794V47.5806V47.5817V47.5828V47.5839V47.5851V47.5862V47.5873V47.5884V47.5896V47.5907V47.5918V47.5929V47.5941V47.5952V47.5963V47.5974V47.5986V47.5997V47.6008V47.6019V47.6031V47.6042V47.6053V47.6064V47.6076V47.6087V47.6098V47.6109V47.6121V47.6132V47.6143V47.6154V47.6166V47.6177V47.6188V47.6199V47.621V47.6222V47.6233V47.6244V47.6255V47.6267V47.6278V47.6289V47.63V47.6312V47.6323V47.6334V47.6345V47.6357V47.6368V47.6379V47.639V47.6402V47.6413V47.6424V47.6435V47.6447V47.6458V47.6469V47.648V47.6492V47.6503V47.6514V47.6525V47.6537V47.6548V47.6559V47.657V47.6582V47.6593V47.6604V47.6615V47.6627V47.6638V47.6649V47.666V47.6672V47.6683V47.6694V47.6705V47.6717V47.6728V47.6739V47.675V47.6762V47.6773V47.6784V47.6795V47.6807V47.6818V47.6829V47.684V47.6851V47.6863V47.6874V47.6885V47.6896V47.6908V47.6919V47.693V47.6941V47.6953V47.6964V47.6975V47.6986V47.6998V47.7009V47.702V47.7031V47.7043V47.7054V47.7065V47.7076V47.7088V47.7099V47.711V47.7121V47.7133V47.7144V47.7155V47.7166V47.7178V47.7189V47.72V47.7211V47.7223V47.7234V47.7245V47.7256V47.7268V47.7279V47.729V47.7301V47.7313V47.7324V47.7335V47.7346V47.7358V47.7369V47.738V47.7391V47.7403V47.7414V47.7425V47.7436V47.7448V47.7459V47.747V47.7481V47.7493V47.7504V47.7515V47.7526V47.7537V47.7549V47.756V47.7571V47.7582V47.7594V47.7605V47.7616V47.7627V47.7639V47.765V47.7661V47.7672V47.7684V47.7695V47.7706V47.7717V47.7729V47.774V47.7751V47.7762V47.7774V47.7785V47.7796V47.7807V47.7819V47.783V47.7841V47.7852V47.7864V47.7875V47.7886V47.7897V47.7909V47.792V47.7931V47.7942V47.7954V47.7965V47.7976V47.7987V47.7999V47.801V47.8021V47.8032V47.8044V47.8055V47.8066V47.8077V47.8089V47.81V47.8111V47.8122V47.8134V47.8145V47.8156V47.8167V47.8179V47.819V47.8201V47.8212V47.8223V47.8235V47.8246V47.8257V47.8268V47.828V47.8291V47.8302V47.8313V47.8325V47.8336V47.8347V47.8358V47.837V47.8381V47.8392V47.8403V47.8415V47.8426V47.8437V47.8448V47.846V47.8471V47.8482V47.8493V47.8505V47.8516V47.8527V47.8538V47.855V47.8561V47.8572V47.8583V47.8595V47.8606V47.8617V47.8628V47.864V47.8651V47.8662V47.8673V47.8685V47.8696V47.8707V47.8718V47.873V47.8741V47.8752V47.8763V47.8775V47.8786V47.8797V47.8808V47.882V47.8831V47.8842V47.8853V47.8865V47.8876V47.8887V47.8898V47.8909V47.8921V47.8932V47.8943V47.8954V47.8966V47.8977V47.8988V47.8999V47.9011V47.9022V47.9033V47.9044V47.9056V47.9067V47.9078V47.9089V47.9101V47.9112V47.9123V47.9134V47.9146V47.9157V47.9168V47.9179V47.9191V47.9202V47.9213V47.9224V47.9236V47.9247V47.9258V47.9269V47.9281V47.9292V47.9303V47.9314V47.9326V47.9337V47.9348V47.9359V47.9371V47.9382V47.9393V47.9404V47.9416V47.9427V47.9438V47.9449V47.9461V47.9472V47.9483V47.9494V47.9506V47.9517V47.9528V47.9539V47.955V47.9562V47.9573V47.9584V47.9595V47.9607V47.9618V47.9629V47.964V47.9652V47.9663V47.9674V47.9685V47.9697V47.9708V47.9719V47.973V47.9742V47.9753V47.9764V47.9775V47.9787V47.9798V47.9809V47.982V47.9832V47.9843V47.9854V47.9865V47.9877V47.9888V47.9899V47.991V47.9922V47.9933V47.9944V47.9955V47.9967V47.9978V47.9989V48V48.0012V48.0023V48.0034V48.0045V48.0057V48.0068V48.0079V48.009H58.327L58.3272 48.0139C58.352 48.6457 58.5322 49.1675 58.8527 49.5365C59.175 49.9075 59.6296 50.1125 60.1771 50.1252C60.7266 50.138 61.2047 49.9392 61.5539 49.5772C61.9019 49.2164 62.1151 48.7007 62.1526 48.0886L62.1526 48.0886L62.1527 48.0862C62.1769 47.5075 62.1771 46.8759 62.1039 46.2902Z" fill="#2A2968" stroke="#2A2968" stroke-width="0.25"/>
<path d="M80.7835 47.2363L80.7758 47.3687C80.7682 47.4976 80.7781 47.6308 80.7885 47.7713C80.7939 47.8447 80.7995 47.92 80.8029 47.9977C80.8118 48.206 80.8043 48.4396 80.6801 48.6104L80.6795 48.6112C80.4754 48.8872 80.243 49.1933 79.9844 49.4579C79.7265 49.7219 79.4349 49.9528 79.1094 50.07L79.1087 50.0702C78.2156 50.3853 77.3016 49.8297 77.1204 48.872L77.1201 48.8708L77.1201 48.8708C76.9495 47.9207 76.9496 46.8746 77.1199 45.9011C77.198 45.4211 77.4537 45.0715 77.8121 44.8579C78.1676 44.6459 78.6163 44.5719 79.0805 44.622C79.5464 44.6724 79.9344 44.8374 80.2224 45.1187C80.5103 45.4 80.688 45.7877 80.7509 46.2653C80.7509 46.2654 80.7509 46.2654 80.7509 46.2654L80.627 46.2817C80.659 46.5216 80.6483 46.7615 80.6376 47.0015C80.6342 47.0797 80.6307 47.158 80.6287 47.2363H80.7835ZM80.7835 47.2363H80.7537H80.7835Z" fill="#2A2968" stroke="#2A2968" stroke-width="0.25"/>
<path d="M74.7697 117.679C74.7457 117.367 74.4578 117.007 74.2178 116.767C74.0899 116.644 73.9618 116.521 73.8333 116.397C72.7323 115.338 71.608 114.255 70.426 113.289C70.066 113.001 69.2021 112.857 68.9381 113.073L74.7697 117.679ZM74.7697 117.679C74.7761 117.768 74.7842 117.862 74.7925 117.959C74.8467 118.589 74.9107 119.334 74.5778 119.646C74.1938 120.006 73.2578 119.958 72.6099 119.838M74.7697 117.679L72.6099 119.838M72.6099 119.838L72.5871 119.961C72.5872 119.961 72.5873 119.961 72.5873 119.961C72.9176 120.022 73.3236 120.065 73.699 120.047C74.0674 120.029 74.4369 119.949 74.6632 119.737C74.782 119.626 74.8539 119.476 74.8973 119.314C74.9407 119.151 74.9576 118.968 74.9607 118.782C74.9652 118.508 74.9397 118.211 74.9166 117.942C74.9084 117.847 74.9005 117.755 74.8944 117.67L74.8944 117.669C74.88 117.482 74.7886 117.293 74.6791 117.127C74.568 116.959 74.4299 116.803 74.3062 116.679L74.3062 116.679L74.3044 116.677C74.1765 116.554 74.0484 116.431 73.9199 116.307C72.8194 115.248 71.6913 114.162 70.5052 113.192L70.5052 113.192L70.5041 113.191C70.3002 113.028 69.97 112.915 69.665 112.868C69.5105 112.844 69.3556 112.837 69.2189 112.85C69.0858 112.864 68.9531 112.899 68.859 112.976L68.859 112.976L68.8572 112.977C67.2727 114.321 65.7069 115.718 64.3564 117.284M72.6099 119.838C71.9143 119.712 71.2395 119.491 70.5718 119.274C70.226 119.161 69.882 119.049 69.5381 118.95C69.2443 119.037 68.9599 119.128 68.6816 119.216C67.9596 119.446 67.2792 119.662 66.5862 119.766C65.8663 119.886 64.6664 120.006 64.4264 119.622C64.0664 119.07 64.0424 117.823 64.4504 117.367L64.3557 117.285C64.3559 117.285 64.3562 117.285 64.3564 117.284M64.3564 117.284C64.2368 117.419 64.1551 117.602 64.1029 117.802C64.0503 118.004 64.0254 118.231 64.0254 118.459C64.0254 118.908 64.1229 119.385 64.321 119.689C64.4069 119.826 64.5654 119.901 64.7325 119.944C64.9041 119.989 65.1107 120.006 65.3254 120.008C65.7554 120.011 66.243 119.95 66.6058 119.89C67.3089 119.784 68.0033 119.563 68.7288 119.332C68.9939 119.248 69.2632 119.162 69.5386 119.081L64.3564 117.284Z" fill="#FFDC55" stroke="#2A2968" stroke-width="0.25"/>
<path d="M113.757 21.2331L113.714 21.2167H113.668H113.667H113.666H113.665H113.664H113.663H113.662H113.661H113.66H113.659H113.658H113.657H113.656H113.655H113.654H113.653H113.652H113.65H113.649H113.648H113.647H113.646H113.645H113.644H113.643H113.642H113.641H113.64H113.639H113.638H113.637H113.636H113.635H113.634H113.633H113.632H113.631H113.63H113.629H113.628H113.627H113.626H113.625H113.624H113.623H113.622H113.621H113.62H113.619H113.618H113.617H113.616H113.615H113.614H113.613H113.612H113.611H113.61H113.609H113.608H113.607H113.606H113.605H113.603H113.602H113.601H113.6H113.599H113.598H113.597H113.596H113.595H113.594H113.593H113.592H113.591H113.59H113.589H113.588H113.587H113.586H113.585H113.584H113.583H113.582H113.581H113.58H113.579H113.578H113.577H113.576H113.575H113.574H113.573H113.572H113.571H113.57H113.569H113.568H113.567H113.566H113.565H113.564H113.563H113.562H113.561H113.56H113.559H113.558H113.556H113.555H113.554H113.553H113.552H113.551H113.55H113.549H113.548H113.547H113.546H113.545H113.544H113.543H113.542H113.541H113.54H113.539H113.538H113.537H113.536H113.535H113.534H113.533H113.532H113.531H113.53H113.529H113.528H113.527H113.526H113.525H113.524H113.523H113.522H113.521H113.52H113.519H113.518H113.517H113.516H113.515H113.514H113.513H113.512H113.511H113.509H113.508H113.507H113.506H113.505H113.504H113.503H113.502H113.501H113.5H113.499H113.498H113.497H113.496H113.495H113.494H113.493H113.492H113.491H113.49H113.489H113.488H113.487H113.486H113.485H113.484H113.483H113.482H113.481H113.48H113.479H113.478H113.477H113.476H113.475H113.474H113.473H113.472H113.471H113.47H113.469H113.468H113.467H113.466H113.465H113.464H113.462H113.461H113.46H113.459H113.458H113.457H113.456H113.455H113.454H113.453H113.452H113.451H113.45H113.449H113.448H113.447H113.446H113.445H113.444H113.443H113.442H113.441H113.44H113.439H113.438H113.437H113.436H113.435H113.434H113.433H113.432H113.431H113.43H113.429H113.428H113.427H113.426H113.425H113.424H113.423H113.422H113.421H113.42H113.419H113.418H113.417H113.415H113.414H113.413H113.412H113.411H113.41H113.409H113.408H113.407H113.406H113.405H113.404H113.403H113.402H113.401H113.4H113.399H113.398H113.397H113.396H113.395H113.394H113.393H113.392H113.391H113.39H113.389H113.388H113.387H113.386H113.385H113.384H113.383H113.382H113.381H113.38H113.379H113.378H113.377H113.376H113.375H113.374H113.373H113.372H113.371H113.37H113.368H113.367H113.366H113.365H113.364H113.363H113.362H113.361H113.36H113.359H113.358H113.357H113.356H113.355H113.354H113.353H113.352H113.351H113.35H113.349H113.348H113.347H113.346H113.345H113.344H113.343H113.342H113.341H113.34H113.339H113.338H113.337H113.336H113.335H113.334H113.333H113.332H113.331H113.33H113.329H113.328H113.327H113.326H113.325H113.324H113.323H113.321H113.32H113.319H113.318H113.317H113.316H113.315H113.314H113.313H113.312H113.311H113.31H113.309H113.308H113.307H113.306H113.305H113.304H113.303H113.302H113.301H113.3H113.299H113.298H113.297H113.296H113.295H113.294H113.293H113.292H113.291H113.29H113.289H113.288H113.287H113.286H113.285H113.284H113.283H113.282H113.281H113.28H113.279H113.278H113.277H113.276H113.274H113.273H113.272H113.271H113.27H113.269H113.268H113.267H113.266H113.265H113.264H113.263H113.262H113.261H113.26H113.259H113.258H113.257H113.256H113.255H113.254H113.253H113.252H113.251H113.25H113.249H113.248H113.247H113.246H113.245H113.244H113.243H113.242H113.241H113.24H113.239H113.238H113.237H113.236H113.235H113.234H113.233H113.232H113.231H113.23H113.229H113.228H113.226H113.225H113.224H113.223H113.222H113.221H113.22H113.219H113.218H113.217H113.216H113.215H113.214H113.213H113.212H113.211H113.21H113.209H113.208H113.207H113.206H113.205H113.204H113.203H113.202H113.201H113.2H113.199H113.198H113.197H113.196H113.195H113.194H113.193H113.192H113.191H113.19H113.189H113.188H113.187H113.186H113.185H113.184H113.183H113.182H113.181H113.179H113.178H113.177H113.176H113.175H113.174H113.173H113.172H113.171H113.17H113.169H113.168H113.167H113.166H113.165H113.164H113.163H113.162H113.161H113.16H113.159H113.158H113.157H113.156H113.155H113.154H113.153H113.152H113.151H113.15H113.149H113.148H113.147H113.146H113.145H113.103L113.064 21.2301C112.28 21.4977 111.985 22.1251 111.821 22.7985C110.914 26.3335 108.85 28.9708 105.604 30.6079L105.603 30.6082C104.927 30.9517 104.207 31.1767 103.461 31.4095C103.173 31.4995 102.881 31.5906 102.587 31.6902C101.568 32.0171 101.128 33.2209 101.807 34.0683C102.128 34.4683 102.567 34.5812 102.937 34.6764C102.959 34.6821 102.981 34.6878 103.003 34.6935L103.005 34.6939C106.58 35.599 109.24 37.6934 110.881 40.9853C111.223 41.6816 111.451 42.4244 111.685 43.1846C111.754 43.4077 111.823 43.6323 111.895 43.8576C112.064 44.3817 112.417 44.7702 112.858 44.9466C113.301 45.1242 113.811 45.0775 114.261 44.7718C114.715 44.4688 114.836 43.9863 114.934 43.5962C114.947 43.5443 114.96 43.4939 114.973 43.4459L114.973 43.4443C115.897 39.9253 117.945 37.3216 121.174 35.6841L121.174 35.6841L121.178 35.6822C121.853 35.3261 122.589 35.0968 123.345 34.8612C123.596 34.783 123.849 34.704 124.104 34.6194C124.49 34.4937 124.817 34.2805 125.035 33.987C125.255 33.69 125.354 33.3246 125.302 32.9228L125.302 32.9226C125.215 32.2487 124.708 31.806 123.948 31.6159C119.222 30.3676 116.205 27.4058 114.956 22.6914C114.786 22.0321 114.449 21.4971 113.757 21.2331ZM113.406 27.0611C114.858 29.6869 116.856 31.6954 119.501 33.1467C116.872 34.5964 114.847 36.6026 113.406 39.227C111.966 36.6023 109.942 34.5822 107.313 33.1449C109.942 31.6941 111.953 29.6864 113.406 27.0611Z" fill="#2A2968" stroke="#2A2968" stroke-width="0.5"/>
<path d="M24.7001 65.9198C26.3691 64.7201 27.4755 63.1455 27.9818 61.1585C28.2256 60.2025 28.7132 59.7152 29.4258 59.7339C30.1384 59.7527 30.551 60.2025 30.8323 61.1585C31.7324 64.3265 33.7578 66.3509 36.927 67.2132M24.7001 65.9198L24.5839 65.757C24.5838 65.7571 24.5837 65.7571 24.5836 65.7572M24.7001 65.9198L24.5833 65.7574C24.5834 65.7573 24.5835 65.7573 24.5836 65.7572M24.7001 65.9198C23.7812 66.5759 22.7498 67.007 21.6433 67.2694C20.8557 67.4569 20.3869 68.1692 20.5744 68.9002C20.7245 69.5376 21.212 69.8375 21.8309 69.9875L37.0208 69.9687C37.8834 69.7813 38.3335 69.2189 38.2585 68.4504M24.5836 65.7572C26.216 64.5838 27.2938 63.0485 27.788 61.1092L27.788 61.1091C27.9151 60.6109 28.111 60.2121 28.3873 59.9386C28.669 59.6597 29.0225 59.5232 29.4311 59.534C29.8343 59.5446 30.167 59.68 30.4343 59.9555C30.6944 60.2235 30.8796 60.6109 31.0242 61.1021L31.0247 61.1039L31.0247 61.1039C31.9059 64.2051 33.8786 66.1764 36.9789 67.0201M24.5836 65.7572C23.6892 66.3958 22.6826 66.8174 21.5972 67.0748L21.597 67.0749C20.7155 67.2847 20.1627 68.0957 20.3802 68.948C20.5556 69.6895 21.1311 70.0237 21.7838 70.1818L21.7857 70.1823C23.8359 70.658 25.4627 71.7902 26.6541 73.5308L26.6541 73.5308L26.6555 73.5328C27.2569 74.3889 27.6417 75.3389 27.8809 76.35C28.0682 77.1606 28.6657 77.6667 29.4258 77.6667C29.81 77.6667 30.1537 77.5378 30.4221 77.2969C30.6884 77.0579 30.8703 76.7181 30.9526 76.3102C31.4115 74.4052 32.3807 72.8711 33.9187 71.6632C34.851 70.9322 35.8927 70.4386 37.0648 70.1638C37.5281 70.0629 37.9005 69.8568 38.1466 69.5534C38.3946 69.2476 38.4994 68.8611 38.4576 68.4316M36.9789 67.0201C36.9788 67.02 36.9787 67.02 36.9785 67.0199L36.927 67.2132M36.9789 67.0201C36.9791 67.0201 36.9793 67.0202 36.9795 67.0202L36.927 67.2132M36.9789 67.0201C37.4179 67.1371 37.7709 67.3032 38.0239 67.5374C38.282 67.7761 38.425 68.0755 38.4576 68.4316M36.927 67.2132C37.7709 67.4381 38.2022 67.8318 38.2585 68.4504M38.2585 68.4504L38.4575 68.4309C38.4575 68.4312 38.4576 68.4314 38.4576 68.4316M38.2585 68.4504L38.4576 68.4323C38.4576 68.432 38.4576 68.4318 38.4576 68.4316M32.8953 68.6026C31.4906 69.5232 30.337 70.647 29.425 72.0663C28.5161 70.6612 27.3772 69.5087 25.9562 68.598C27.3611 67.6762 28.5006 66.5515 29.4252 65.1322C30.3343 66.5382 31.4737 67.6914 32.8953 68.6026Z" fill="#2A2968" stroke="#2A2968" stroke-width="0.4"/>
</svg>
