<svg xmlns="http://www.w3.org/2000/svg" width="23.068" height="22.499" viewBox="0 0 23.068 22.499">
  <g id="nrcj9H.tif" transform="translate(236.76 -10.28)">
    <g id="Group_537" data-name="Group 537" transform="translate(-236.51 10.529)">
      <path id="Path_705" data-name="Path 705" d="M-213.942,29.11c-.036.163-.069.327-.11.489a3.8,3.8,0,0,1-3.7,2.919q-7.469.019-14.939,0a3.8,3.8,0,0,1-3.81-3.86c0-3.129-.011-6.257,0-9.386a3.747,3.747,0,0,1,2.236-3.552.217.217,0,0,0,.149-.23c-.009-.286,0-.573,0-.859a1.112,1.112,0,0,1,1.153-1.175,1.138,1.138,0,0,1,1.305,1.285c0,.2,0,.395,0,.608h.694c0-.091,0-.184,0-.277a14.319,14.319,0,0,1,.057-1.846,3.149,3.149,0,0,1,3.108-2.683c1.035-.022,2.071-.006,3.107,0,.266,0,.4.121.4.334s-.142.323-.412.324c-1.006,0-2.012-.005-3.019,0a2.512,2.512,0,0,0-2.543,2.2,16.761,16.761,0,0,0-.013,1.951h1.255c0-.483,0-.958,0-1.433a2.08,2.08,0,0,1,.037-.459,1.251,1.251,0,0,1,1.165-.971c.234-.014.47-.007.7-.007q2.148,0,4.3,0a1.284,1.284,0,0,1,1.4,1.4c0,.49,0,.98,0,1.481h1.313a15.893,15.893,0,0,0-.131-2.215A2.468,2.468,0,0,0-222.7,11.2c-.213,0-.427.006-.638-.014a.3.3,0,0,1-.282-.333.3.3,0,0,1,.289-.307,3.484,3.484,0,0,1,2.851.881,3.105,3.105,0,0,1,.994,2.209c.015.564,0,1.129,0,1.71h.7c0-.234,0-.474,0-.713a1.11,1.11,0,0,1,1.169-1.179,1.134,1.134,0,0,1,1.29,1.26c0,.264-.007.529,0,.793a.246.246,0,0,0,.1.183,3.834,3.834,0,0,1,2.254,3.072c0,.013.016.024.025.036Zm-11.3,2.751c2.475,0,4.949,0,7.423,0a3.158,3.158,0,0,0,3.218-3.224q0-4.692,0-9.384a3.168,3.168,0,0,0-3.22-3.226q-7.4,0-14.8,0a3.168,3.168,0,0,0-3.217,3.206q0,4.714,0,9.428a3.257,3.257,0,0,0,.067.677,3.15,3.15,0,0,0,3.15,2.523C-230.165,31.865-227.705,31.862-225.245,31.862Zm3.162-16.5c0-.532.005-1.044,0-1.557a.607.607,0,0,0-.66-.66q-2.478-.008-4.957,0a.611.611,0,0,0-.662.681c0,.463,0,.925,0,1.388a1.04,1.04,0,0,0,.021.148Zm-10.239-.014c0-.271.008-.527,0-.782a.443.443,0,0,0-.471-.445c-.4-.019-.624.1-.649.392s-.006.61-.006.911Zm15.327.076c0-.3.012-.589,0-.88a.435.435,0,0,0-.448-.422c-.4-.026-.63.078-.661.348a7.72,7.72,0,0,0-.008.88Z" transform="translate(236.51 -10.529)" fill="#2a2968" stroke="#2a2968" stroke-width="0.5"/>
      <path id="Path_706" data-name="Path 706" d="M-223.291,48.035c-2.46,0-4.92,0-7.379,0a3.15,3.15,0,0,1-3.15-2.523,3.257,3.257,0,0,1-.067-.677q-.006-4.714,0-9.428a3.168,3.168,0,0,1,3.217-3.206q7.4,0,14.8,0a3.168,3.168,0,0,1,3.22,3.226q0,4.692,0,9.384a3.158,3.158,0,0,1-3.218,3.224C-218.342,48.04-220.816,48.035-223.291,48.035Zm2.528-10.419c0-.786,0-1.541,0-2.3a1.226,1.226,0,0,0-1.3-1.3q-1.212-.008-2.424,0a1.226,1.226,0,0,0-1.291,1.307c0,.683,0,1.366,0,2.049v.242h-.186c-.734,0-1.469-.006-2.2,0a1.174,1.174,0,0,0-1.187,1.1c-.023.932-.02,1.865,0,2.8a1.141,1.141,0,0,0,.95,1.069,5.586,5.586,0,0,0,.944.029.306.306,0,0,0,.314-.348.309.309,0,0,0-.339-.3c-.191,0-.382,0-.573,0a.572.572,0,0,1-.647-.652q0-1.19,0-2.379c0-.454.206-.654.664-.655h2.489c.328,0,.435-.107.435-.434,0-.83,0-1.66,0-2.489,0-.463.209-.673.675-.674q1.168,0,2.336,0c.475,0,.679.211.68.691q0,1.2,0,2.4c0,.422.082.506.5.506h2.424c.468,0,.668.2.67.671q0,1.156,0,2.313c0,.509-.2.7-.709.7-.815,0-1.63,0-2.446,0-.333,0-.434.1-.434.432q0,1.223,0,2.445c0,.521-.194.711-.721.712h-2.269c-.507,0-.7-.2-.7-.709,0-.83,0-1.66,0-2.489,0-.275-.112-.385-.387-.391q-.3-.006-.595,0c-.227.005-.371.128-.378.315s.143.332.377.343c.1,0,.2,0,.322,0v.263c0,.676,0,1.351,0,2.027a1.219,1.219,0,0,0,1.294,1.3q1.212,0,2.423,0a1.219,1.219,0,0,0,1.295-1.3c0-.683,0-1.366,0-2.049v-.242c.785,0,1.534,0,2.283,0a1.218,1.218,0,0,0,1.306-1.31q.005-1.2,0-2.4a1.609,1.609,0,0,0-.035-.371,1.2,1.2,0,0,0-1.192-.924C-219.179,37.612-219.956,37.616-220.763,37.616Z" transform="translate(234.555 -26.702)" fill="#ffdc55" stroke="#2a2968" stroke-width="0.5"/>
      <path id="Path_707" data-name="Path 707" d="M-207.453,42.96c.807,0,1.584,0,2.361,0a1.2,1.2,0,0,1,1.192.924,1.607,1.607,0,0,1,.035.371q0,1.2,0,2.4a1.218,1.218,0,0,1-1.306,1.31c-.749.005-1.5,0-2.283,0v.242c0,.683,0,1.366,0,2.049a1.219,1.219,0,0,1-1.295,1.3q-1.212,0-2.423,0a1.219,1.219,0,0,1-1.294-1.3c0-.676,0-1.351,0-2.027v-.263c-.122,0-.222,0-.322,0-.234-.012-.384-.151-.377-.343s.151-.31.378-.315c.2,0,.4,0,.595,0,.275.006.386.116.387.391,0,.83,0,1.66,0,2.489,0,.512.194.708.7.709h2.269c.527,0,.72-.191.721-.712q0-1.223,0-2.445c0-.33.1-.431.434-.432.815,0,1.63,0,2.446,0,.514,0,.708-.193.709-.7q0-1.156,0-2.313c0-.472-.2-.671-.67-.671h-2.424c-.414,0-.5-.084-.5-.506q0-1.2,0-2.4c0-.48-.2-.689-.68-.691q-1.168,0-2.336,0c-.465,0-.674.212-.675.674,0,.83,0,1.66,0,2.489,0,.328-.107.434-.435.434h-2.489c-.457,0-.662.2-.664.655q0,1.19,0,2.379a.572.572,0,0,0,.647.652c.191,0,.382,0,.573,0a.309.309,0,0,1,.339.3.306.306,0,0,1-.314.348,5.585,5.585,0,0,1-.944-.029,1.141,1.141,0,0,1-.95-1.069c-.019-.932-.023-1.865,0-2.8a1.174,1.174,0,0,1,1.187-1.1c.734-.008,1.469,0,2.2,0h.186v-.242c0-.683,0-1.366,0-2.049a1.226,1.226,0,0,1,1.291-1.307q1.212-.009,2.424,0a1.226,1.226,0,0,1,1.3,1.3C-207.45,41.419-207.453,42.175-207.453,42.96Z" transform="translate(221.245 -32.047)" fill="#2a2968" stroke="#2a2968" stroke-width="0.5"/>
    </g>
  </g>
</svg>
