<svg xmlns="http://www.w3.org/2000/svg" width="41.748" height="39.002" viewBox="0 0 41.748 39.002">
  <g id="gtYd0c.tif" transform="translate(119.175 -21.414)">
    <g id="Group_536" data-name="Group 536" transform="translate(-118.675 21.925)">
      <path id="Path_703" data-name="Path 703" d="M-118.675,32.192c.105-.691.18-1.388.323-2.07a9.85,9.85,0,0,1,2.854-5.35,10.067,10.067,0,0,1,6.038-2.756A11.488,11.488,0,0,1-99.1,26.446c.279.334.51.708.8,1.114.108-.147.2-.267.285-.391a11.693,11.693,0,0,1,7.7-5.06,10.394,10.394,0,0,1,10.826,4.7A12.132,12.132,0,0,1-78,31.674a18.038,18.038,0,0,1-.319,5.3.783.783,0,0,1-.512.694.752.752,0,0,1-.782-.27c-.741-.741-1.472-1.492-2.226-2.22a1.362,1.362,0,0,0-2.325.536,1.389,1.389,0,0,0,.453,1.436q1.792,1.781,3.579,3.568a1.761,1.761,0,0,1,.287.327.635.635,0,0,1-.1.836.631.631,0,0,1-.838.079,2.128,2.128,0,0,1-.353-.319q-2.927-2.925-5.852-5.853a1.58,1.58,0,0,0-1.131-.582,1.285,1.285,0,0,0-1.228.73,1.291,1.291,0,0,0,.119,1.425,3.346,3.346,0,0,0,.348.382q3.361,3.364,6.723,6.726c.084.084.173.166.251.256a.665.665,0,0,1,.026.965.685.685,0,0,1-.967,0c-.091-.077-.171-.166-.256-.251q-2.926-2.926-5.853-5.852a1.388,1.388,0,0,0-1.648-.428,1.339,1.339,0,0,0-.576,2,3.245,3.245,0,0,0,.37.415q3.079,3.082,6.161,6.163c.075.075.153.147.225.225.337.366.367.732.086,1.026a.683.683,0,0,1-1.051-.075q-2.511-2.5-5.01-5.006a1.455,1.455,0,0,0-1.346-.516,1.341,1.341,0,0,0-.855,2.123,3.556,3.556,0,0,0,.373.412q2.417,2.422,4.837,4.842c.528.528.506.862-.049,1.354a74.721,74.721,0,0,1-10.244,7.592,1.028,1.028,0,0,1-1.235.006A74.847,74.847,0,0,1-109.188,52.1c-.52-.46-.546-.813-.061-1.3q2.488-2.492,4.98-4.98a1.459,1.459,0,0,0,.522-1.233,1.292,1.292,0,0,0-.836-1.119,1.294,1.294,0,0,0-1.379.218,4.3,4.3,0,0,0-.319.3l-4.784,4.782a3.274,3.274,0,0,1-.289.273.661.661,0,0,1-.9-.04.655.655,0,0,1-.044-.9,3.111,3.111,0,0,1,.3-.318q3.137-3.138,6.277-6.271a1.462,1.462,0,0,0,.517-1.346,1.341,1.341,0,0,0-2.088-.881,2.861,2.861,0,0,0-.386.342q-2.944,2.937-5.885,5.876a1.781,1.781,0,0,1-.327.288.632.632,0,0,1-.835-.1.621.621,0,0,1-.079-.835,2.159,2.159,0,0,1,.294-.323q3.431-3.435,6.858-6.873a2.073,2.073,0,0,0,.5-.789,1.272,1.272,0,0,0-.538-1.427,1.358,1.358,0,0,0-1.566.032,4.083,4.083,0,0,0-.442.4q-2.843,2.84-5.684,5.683c-.066.066-.131.132-.2.2-.382.372-.785.42-1.081.129s-.257-.712.112-1.082q1.657-1.663,3.321-3.319c.131-.132.265-.26.393-.395a1.362,1.362,0,0,0,.067-1.959,1.367,1.367,0,0,0-1.988.047c-.675.657-1.335,1.329-2,1.995l-.253.253a.716.716,0,0,1-.752.238.724.724,0,0,1-.5-.653c-.12-.785-.223-1.573-.336-2.359-.015-.1-.047-.206-.07-.31Zm39.192,3.428a14.772,14.772,0,0,0-.036-4.9,8.509,8.509,0,0,0-3.2-5.537,9.629,9.629,0,0,0-10.871-.4,11.638,11.638,0,0,0-3.926,4.142c-.5.856-1.013.831-1.566.023a18.069,18.069,0,0,0-1.888-2.495,9.585,9.585,0,0,0-9.307-2.908,8.191,8.191,0,0,0-5.509,3.724,11.531,11.531,0,0,0-1.479,6.921c.025.451.088.9.145,1.456.514-.525.939-.979,1.385-1.411a2.717,2.717,0,0,1,3.387-.481,2.786,2.786,0,0,1,1.238,1.618c1.169-1.335,2.5-2.066,4.144-1.046a2.631,2.631,0,0,1,.983,3.4,2.713,2.713,0,0,1,1.993,1.736,2.775,2.775,0,0,1-.414,2.634,2.687,2.687,0,0,1,1.644,1.249,2.729,2.729,0,0,1-.555,3.443q-2.146,2.158-4.3,4.306c-.1.1-.194.2-.294.308a69.046,69.046,0,0,0,9.421,6.954.506.506,0,0,0,.446-.035c1.947-1.33,3.909-2.642,5.817-4.027,1.229-.892,2.376-1.9,3.645-2.92a3.818,3.818,0,0,1-.411-.3Q-91.14,48.94-93.275,46.8a2.732,2.732,0,0,1-.783-2.974,2.663,2.663,0,0,1,1.873-1.735,2.707,2.707,0,0,1-.426-2.616A2.721,2.721,0,0,1-90.6,37.72c-.031-.1-.052-.176-.078-.251a2.691,2.691,0,0,1,.98-3.139,2.675,2.675,0,0,1,3.283.153c.312.259.6.547.858.785a7.05,7.05,0,0,1,.873-1.174,2.732,2.732,0,0,1,3.838.155C-80.4,34.681-79.973,35.126-79.483,35.62Z" transform="translate(118.675 -21.925)" fill="#2a2968" stroke="#2a2968" stroke-width="1"/>
      <path id="Path_704" data-name="Path 704" d="M-78.431,36.667c-.49-.494-.919-.939-1.362-1.37a2.732,2.732,0,0,0-3.838-.155,7.05,7.05,0,0,0-.873,1.174c-.259-.238-.545-.526-.858-.785a2.675,2.675,0,0,0-3.283-.153,2.691,2.691,0,0,0-.98,3.139c.026.074.046.15.078.251a2.721,2.721,0,0,0-2.012,1.754,2.707,2.707,0,0,0,.426,2.616,2.663,2.663,0,0,0-1.874,1.735,2.732,2.732,0,0,0,.783,2.974q2.139,2.137,4.279,4.274a3.82,3.82,0,0,0,.411.3c-1.27,1.024-2.417,2.028-3.646,2.92-1.908,1.385-3.869,2.7-5.817,4.027a.506.506,0,0,1-.446.035,69.043,69.043,0,0,1-9.421-6.954c.1-.1.2-.209.294-.308q2.152-2.154,4.3-4.306a2.729,2.729,0,0,0,.555-3.443,2.687,2.687,0,0,0-1.644-1.249,2.775,2.775,0,0,0,.414-2.634,2.713,2.713,0,0,0-1.993-1.736,2.631,2.631,0,0,0-.983-3.4c-1.64-1.02-2.975-.289-4.144,1.046A2.786,2.786,0,0,0-111.3,34.8a2.717,2.717,0,0,0-3.387.481c-.446.433-.872.886-1.385,1.411-.057-.557-.12-1.005-.145-1.456a11.532,11.532,0,0,1,1.479-6.921,8.191,8.191,0,0,1,5.509-3.724A9.584,9.584,0,0,1-99.92,27.5,18.068,18.068,0,0,1-98.032,30c.552.808,1.065.833,1.566-.023a11.638,11.638,0,0,1,3.926-4.142,9.629,9.629,0,0,1,10.871.4,8.509,8.509,0,0,1,3.2,5.537A14.772,14.772,0,0,1-78.431,36.667Z" transform="translate(117.623 -22.973)" fill="#ffdc55" stroke="#2a2968" stroke-width="1"/>
    </g>
  </g>
</svg>
