<svg width="50" height="50" viewBox="0 0 50 50" fill="none" xmlns="http://www.w3.org/2000/svg">
<path d="M16.7395 9.40015C18.1058 8.88492 19.6512 9.17116 20.7823 10.1444C20.9279 9.85812 21.7454 8.27811 23.6044 7.71709C25.0827 7.27056 26.3146 7.72854 26.6841 7.88883C27.2665 6.492 28.5544 5.57605 29.9318 5.57605C31.8916 5.57605 32.9443 7.40795 33.1235 7.73998C33.5715 8.56434 33.6387 9.35435 33.6499 9.80088C34.1538 10.007 35.1841 10.5222 36.0576 11.6328C37.0319 12.8808 37.2559 14.1745 37.3231 14.7241C39.3053 14.6211 40.9964 16.0293 41.2763 17.8154C41.5003 19.281 40.75 20.8037 39.3949 21.6052L41.2763 26.059C42.2842 26.3338 42.9002 27.3299 42.7322 28.2802C42.5866 29.0816 41.9147 29.7228 41.0636 29.8373C40.974 30.2953 40.638 31.7494 39.3389 32.9172C37.9503 34.1766 36.3936 34.2911 35.9456 34.3026C36.1136 35.0239 36.4832 37.0046 35.5761 39.2144C35.3185 39.8555 34.389 42.008 32.026 43.1301C30.4022 43.8972 28.9127 43.7941 28.2408 43.7025C28.0616 44.1147 27.6024 45.0306 26.5945 45.6833C26.281 45.8779 25.5754 46.3473 24.6795 46.3244C23.4588 46.2901 22.3166 45.3512 21.6894 43.9773C20.9615 44.0346 19.2592 44.0918 17.4114 43.1415C15.418 42.1225 14.4437 40.5539 14.2309 40.1876C12.7303 37.6687 13.1558 35.0811 13.2902 34.4285C12.9319 34.3827 10.5241 34.1423 8.91144 31.9669C7.1868 29.6083 7.82514 26.9635 7.90354 26.6315C7.2204 26.1392 6.95163 25.2347 7.254 24.4675C7.57877 23.6432 8.47468 23.1738 9.3482 23.4028C10.2777 22.0288 11.196 20.6663 12.1255 19.2924C10.8377 18.8001 9.89694 17.6552 9.72896 16.327C9.51618 14.7241 10.4569 13.0983 12.0359 12.4342C12.7527 12.3999 13.4694 12.3655 14.1861 12.3312C14.2197 12.1594 14.7461 10.1444 16.7395 9.40015Z" fill="#FFDC55"/>
<mask id="path-2-outside-1_326_1000" maskUnits="userSpaceOnUse" x="5.63281" y="4.16296" width="39" height="44" fill="black">
<rect fill="white" x="5.63281" y="4.16296" width="39" height="44"/>
<path d="M24.1758 46.9656C23.7502 46.8054 23.291 46.6909 22.8879 46.4733C21.992 45.9924 21.432 45.2024 21.1521 44.275C20.5249 44.275 19.9314 44.3094 19.3378 44.275C16.1797 44.0918 14.0743 42.3401 13.1784 39.1457C12.8201 37.8634 12.7193 36.5581 12.7641 35.2415C12.7641 35.0812 12.7641 34.9323 12.7641 34.7606C12.3273 34.669 11.9017 34.6232 11.4874 34.4858C9.14681 33.7416 7.81414 32.0471 7.39978 29.6313C7.25419 28.7611 7.34378 27.8337 7.31018 26.9407C7.29899 26.7689 7.25419 26.5514 7.1422 26.4254C6.64945 25.8072 6.48146 25.1317 6.78383 24.3874C7.08621 23.6547 7.63495 23.254 8.43008 23.1853C8.55326 23.1738 8.69885 23.1166 8.77724 23.0135C9.58357 21.9373 10.3787 20.8496 11.1738 19.7619C11.2186 19.7046 11.241 19.6359 11.2858 19.5558C11.1626 19.4871 11.0618 19.4184 10.961 19.3497C9.34839 18.4109 8.63166 16.4645 9.2028 14.5639C9.74035 12.6976 11.297 11.587 13.1672 11.7473C13.492 11.7702 13.6264 11.6901 13.7608 11.3924C14.9591 8.88497 17.9044 7.88887 20.3233 9.17121C20.4241 9.22845 20.5137 9.27425 20.6369 9.34295C22.1376 7.35075 24.075 6.75538 26.4267 7.46525C26.5163 7.3164 26.6059 7.15611 26.7067 7.00727C27.6362 5.49595 29.2937 4.84334 31.0071 5.31276C32.7653 5.79364 33.986 7.28206 34.0196 9.03381C34.0308 9.36585 34.1204 9.51469 34.4228 9.61773C34.6692 9.69788 34.9155 9.82382 35.1395 9.97266C35.4531 10.1788 35.5315 10.5337 35.3523 10.8314C35.1619 11.1291 34.8931 11.2321 34.5572 11.0947C34.1988 10.9459 33.8292 10.797 33.4709 10.6367C32.9669 10.4077 32.7653 9.98411 32.7653 9.43454C32.7765 7.86598 31.9142 6.80118 30.4136 6.51495C29.2601 6.29741 28.2298 6.82408 27.6586 7.92322C27.1659 8.86207 26.8075 9.01091 25.8332 8.67888C24.3326 8.16366 22.7423 8.67888 21.8016 9.98411C21.1969 10.8199 20.7713 10.9115 19.8866 10.4077C18.0164 9.3315 15.7094 10.1101 14.8471 12.1251C14.4775 12.9839 14.1975 13.1556 13.2904 13.064C11.8234 12.9266 10.793 13.6136 10.4123 14.976C10.0091 16.3958 10.5467 17.6896 11.8345 18.3536C12.3609 18.6284 12.5849 19.0291 12.5513 19.6359C12.4505 21.3076 13.3688 22.6586 14.8695 23.0822C16.3365 23.4944 17.7812 22.796 18.5427 21.3305C18.9011 20.632 19.3714 20.4374 20.0994 20.6893C21.544 21.1816 22.8207 20.9183 23.9294 19.8306C24.5789 19.2009 25.2957 19.2925 25.8108 20.0481C26.7403 21.4221 28.1962 21.88 29.7192 21.2732C30.5928 20.9297 31.2311 21.2847 31.4215 22.2464C31.6902 23.6432 32.7653 24.5592 34.154 24.5592C35.4979 24.5592 36.517 23.6661 36.797 22.2579C36.9537 21.445 37.2561 21.1816 38.0736 21.1129C38.3088 21.09 38.544 21.0557 38.7792 20.9984C40.235 20.6091 40.907 19.5787 40.7502 18.0216C40.6158 16.7049 39.5071 15.6401 38.1968 15.5485C38.1184 15.5485 38.0288 15.5371 37.9504 15.5371C36.9537 15.5371 36.5842 15.1936 36.4722 14.1975C36.4386 13.8426 36.3378 13.4991 36.237 13.1556C36.0914 12.6518 36.2034 12.3083 36.5954 12.1709C36.9649 12.045 37.2673 12.2282 37.4241 12.732C37.5697 13.2014 37.6817 13.6937 37.8049 14.2089C39.9663 14.3234 41.5229 15.3424 41.9485 17.6438C42.3068 19.5329 41.6237 21.0213 39.9886 21.8915C40.5262 22.9448 41.0861 23.9753 41.5789 25.0286C41.7581 25.4064 41.9261 25.7041 42.3068 25.9446C43.7963 26.8605 43.7291 29.0588 42.2396 29.9747C42.0493 30.0892 41.8701 30.3182 41.8029 30.5243C40.9742 32.963 39.3391 34.3828 36.8194 34.7033C36.7634 34.7148 36.7186 34.7262 36.6626 34.7377C36.629 35.6193 36.5842 36.4895 36.5506 37.3596C36.5394 37.497 36.517 37.6458 36.4946 37.7832C36.405 38.184 36.1362 38.4129 35.7891 38.3557C35.4419 38.2985 35.2291 38.0122 35.2627 37.6115C35.2963 37.1535 35.3971 36.6955 35.3635 36.249C35.2739 35.001 35.1731 33.7416 35.0051 32.5051C34.8819 31.612 34.9267 30.7533 35.1619 29.8832C35.5091 28.5779 35.789 27.2498 36.1026 25.9331C36.1362 25.7728 36.1362 25.5896 36.1586 25.3492C34.9155 25.9675 33.6837 26.0362 32.4518 25.4751C31.2199 24.9027 30.492 23.9066 30.2008 22.5212C29.1929 22.8876 28.2074 22.9677 27.1883 22.6471C26.1916 22.3266 25.4188 21.7083 24.7917 20.8381C23.3022 22.1892 21.6224 22.5555 19.6962 21.9373C19.0915 23.128 18.1619 23.9753 16.8741 24.3416C15.5862 24.708 14.3879 24.4676 13.2232 23.7348C13.2232 24.1928 13.2232 24.5935 13.2232 24.9943C13.2232 25.4522 13.0216 25.727 12.6633 25.7614C12.2937 25.7957 11.9913 25.5209 11.9689 25.0744C11.9353 24.4561 11.8905 23.8379 11.9465 23.2311C12.0137 22.5784 11.8234 22.0289 11.4538 21.4335C10.9498 22.1663 10.4571 22.8647 9.98673 23.586C9.94193 23.6547 9.96433 23.8379 10.0203 23.918C10.9498 25.0744 10.2667 26.8491 8.83324 27.0666C8.74365 27.0781 8.59806 27.2269 8.58686 27.3185C8.45247 28.681 8.57566 30.0091 9.27 31.2227C10.0763 32.631 11.3194 33.3523 12.9208 33.4783C13.1672 32.3677 13.4248 31.3029 13.0216 30.2037C12.8089 29.5969 12.6633 28.9787 12.4953 28.3489C12.3833 27.9139 12.5513 27.5704 12.932 27.4673C13.2792 27.3757 13.5816 27.5818 13.7048 28.0055C13.9176 28.7497 14.1415 29.4824 14.3431 30.2266C14.5895 31.1197 14.4999 32.0013 14.3319 32.9058C13.9623 34.8178 13.8616 36.7413 14.3655 38.6419C15.2278 41.9165 17.5684 43.4965 20.8385 42.924C21.824 42.7523 22.7759 42.3973 23.7502 42.1454C23.9966 42.0768 24.0862 41.9394 24.075 41.6875C24.0526 41.2753 24.1982 40.783 24.019 40.4624C23.8734 40.1991 23.3582 40.1533 23.0223 39.9815C21.3424 39.1343 20.3345 37.7718 20.1106 35.8597C19.9314 34.3599 20.7825 33.089 22.3503 32.5394C23.9182 31.9898 25.5196 31.9898 27.0875 32.5623C28.9465 33.2493 29.7304 34.8751 29.1033 36.7871C28.5321 38.5389 27.4011 39.7525 25.6092 40.2334C25.3964 40.2906 25.3069 40.3937 25.3181 40.6227C25.3293 40.7601 25.3181 40.9089 25.3181 41.0463C25.3181 42.0539 25.3181 42.0539 26.27 42.3859C27.7818 42.9011 29.3273 43.1988 30.9287 42.9126C32.3846 42.6492 33.4709 41.8592 34.2324 40.5654C34.5684 39.9815 34.8819 39.8327 35.2515 40.0617C35.6323 40.2906 35.6435 40.6799 35.2963 41.2524C33.9076 43.5537 31.8246 44.4124 29.2713 44.2979C28.9353 44.2865 28.5993 44.2521 28.3866 44.2292C27.9722 44.8475 27.6362 45.4429 27.2107 45.9466C26.6955 46.5649 25.9452 46.8053 25.1949 47C24.8477 46.9656 24.5117 46.9656 24.1758 46.9656ZM24.6349 33.2836C23.9182 33.4668 23.1455 33.5928 22.4287 33.8675C21.7568 34.1194 21.3648 34.6919 21.3424 35.459C21.2864 37.0276 22.8095 38.8137 24.3326 38.9854C25.9228 39.1686 27.5802 37.8519 27.961 36.1231C28.2074 34.9896 27.8154 34.1538 26.7515 33.7759C26.102 33.547 25.3964 33.4554 24.6349 33.2836ZM36.461 33.3867C38.1968 33.4668 40.2462 31.841 40.4814 30.2037C39.4735 29.8374 38.824 29.1504 38.768 28.0169C38.712 26.8033 39.3615 26.0476 40.4478 25.5896C40.011 24.4218 39.3839 23.3913 38.6672 22.4296C38.4992 22.2121 38.0512 22.3609 37.9728 22.6242C37.9168 22.8189 37.8721 23.0135 37.8161 23.1967C37.7041 23.5402 37.4913 23.8837 37.4801 24.2386C37.4017 26.1278 37.0881 27.9711 36.4722 29.7458C36.0466 30.9823 36.1362 32.1501 36.461 33.3867ZM26.9531 43.943C26.2252 43.6797 25.5196 43.4163 24.8141 43.1644C24.7469 43.1415 24.6461 43.1301 24.5789 43.153C23.8622 43.4163 23.1455 43.6797 22.4175 43.943C22.5967 44.8704 23.5598 45.649 24.5789 45.6833C25.6876 45.7177 26.6731 44.9963 26.9531 43.943ZM42.1052 27.9139C42.1052 27.3185 41.6685 26.8491 41.0861 26.8491C40.5038 26.8376 40.0446 27.2841 40.0334 27.8795C40.0222 28.4863 40.4814 28.9672 41.0749 28.9672C41.6461 28.9672 42.094 28.4978 42.1052 27.9139ZM8.54207 25.7385C8.88923 25.7385 9.16921 25.4293 9.15801 25.063C9.14681 24.708 8.87803 24.4561 8.53087 24.4561C8.1949 24.4561 7.91493 24.7309 7.90373 25.0744C7.90373 25.4179 8.2061 25.7385 8.54207 25.7385Z"/>
</mask>
<path d="M24.1758 46.9656C23.7502 46.8054 23.291 46.6909 22.8879 46.4733C21.992 45.9924 21.432 45.2024 21.1521 44.275C20.5249 44.275 19.9314 44.3094 19.3378 44.275C16.1797 44.0918 14.0743 42.3401 13.1784 39.1457C12.8201 37.8634 12.7193 36.5581 12.7641 35.2415C12.7641 35.0812 12.7641 34.9323 12.7641 34.7606C12.3273 34.669 11.9017 34.6232 11.4874 34.4858C9.14681 33.7416 7.81414 32.0471 7.39978 29.6313C7.25419 28.7611 7.34378 27.8337 7.31018 26.9407C7.29899 26.7689 7.25419 26.5514 7.1422 26.4254C6.64945 25.8072 6.48146 25.1317 6.78383 24.3874C7.08621 23.6547 7.63495 23.254 8.43008 23.1853C8.55326 23.1738 8.69885 23.1166 8.77724 23.0135C9.58357 21.9373 10.3787 20.8496 11.1738 19.7619C11.2186 19.7046 11.241 19.6359 11.2858 19.5558C11.1626 19.4871 11.0618 19.4184 10.961 19.3497C9.34839 18.4109 8.63166 16.4645 9.2028 14.5639C9.74035 12.6976 11.297 11.587 13.1672 11.7473C13.492 11.7702 13.6264 11.6901 13.7608 11.3924C14.9591 8.88497 17.9044 7.88887 20.3233 9.17121C20.4241 9.22845 20.5137 9.27425 20.6369 9.34295C22.1376 7.35075 24.075 6.75538 26.4267 7.46525C26.5163 7.3164 26.6059 7.15611 26.7067 7.00727C27.6362 5.49595 29.2937 4.84334 31.0071 5.31276C32.7653 5.79364 33.986 7.28206 34.0196 9.03381C34.0308 9.36585 34.1204 9.51469 34.4228 9.61773C34.6692 9.69788 34.9155 9.82382 35.1395 9.97266C35.4531 10.1788 35.5315 10.5337 35.3523 10.8314C35.1619 11.1291 34.8931 11.2321 34.5572 11.0947C34.1988 10.9459 33.8292 10.797 33.4709 10.6367C32.9669 10.4077 32.7653 9.98411 32.7653 9.43454C32.7765 7.86598 31.9142 6.80118 30.4136 6.51495C29.2601 6.29741 28.2298 6.82408 27.6586 7.92322C27.1659 8.86207 26.8075 9.01091 25.8332 8.67888C24.3326 8.16366 22.7423 8.67888 21.8016 9.98411C21.1969 10.8199 20.7713 10.9115 19.8866 10.4077C18.0164 9.3315 15.7094 10.1101 14.8471 12.1251C14.4775 12.9839 14.1975 13.1556 13.2904 13.064C11.8234 12.9266 10.793 13.6136 10.4123 14.976C10.0091 16.3958 10.5467 17.6896 11.8345 18.3536C12.3609 18.6284 12.5849 19.0291 12.5513 19.6359C12.4505 21.3076 13.3688 22.6586 14.8695 23.0822C16.3365 23.4944 17.7812 22.796 18.5427 21.3305C18.9011 20.632 19.3714 20.4374 20.0994 20.6893C21.544 21.1816 22.8207 20.9183 23.9294 19.8306C24.5789 19.2009 25.2957 19.2925 25.8108 20.0481C26.7403 21.4221 28.1962 21.88 29.7192 21.2732C30.5928 20.9297 31.2311 21.2847 31.4215 22.2464C31.6902 23.6432 32.7653 24.5592 34.154 24.5592C35.4979 24.5592 36.517 23.6661 36.797 22.2579C36.9537 21.445 37.2561 21.1816 38.0736 21.1129C38.3088 21.09 38.544 21.0557 38.7792 20.9984C40.235 20.6091 40.907 19.5787 40.7502 18.0216C40.6158 16.7049 39.5071 15.6401 38.1968 15.5485C38.1184 15.5485 38.0288 15.5371 37.9504 15.5371C36.9537 15.5371 36.5842 15.1936 36.4722 14.1975C36.4386 13.8426 36.3378 13.4991 36.237 13.1556C36.0914 12.6518 36.2034 12.3083 36.5954 12.1709C36.9649 12.045 37.2673 12.2282 37.4241 12.732C37.5697 13.2014 37.6817 13.6937 37.8049 14.2089C39.9663 14.3234 41.5229 15.3424 41.9485 17.6438C42.3068 19.5329 41.6237 21.0213 39.9886 21.8915C40.5262 22.9448 41.0861 23.9753 41.5789 25.0286C41.7581 25.4064 41.9261 25.7041 42.3068 25.9446C43.7963 26.8605 43.7291 29.0588 42.2396 29.9747C42.0493 30.0892 41.8701 30.3182 41.8029 30.5243C40.9742 32.963 39.3391 34.3828 36.8194 34.7033C36.7634 34.7148 36.7186 34.7262 36.6626 34.7377C36.629 35.6193 36.5842 36.4895 36.5506 37.3596C36.5394 37.497 36.517 37.6458 36.4946 37.7832C36.405 38.184 36.1362 38.4129 35.7891 38.3557C35.4419 38.2985 35.2291 38.0122 35.2627 37.6115C35.2963 37.1535 35.3971 36.6955 35.3635 36.249C35.2739 35.001 35.1731 33.7416 35.0051 32.5051C34.8819 31.612 34.9267 30.7533 35.1619 29.8832C35.5091 28.5779 35.789 27.2498 36.1026 25.9331C36.1362 25.7728 36.1362 25.5896 36.1586 25.3492C34.9155 25.9675 33.6837 26.0362 32.4518 25.4751C31.2199 24.9027 30.492 23.9066 30.2008 22.5212C29.1929 22.8876 28.2074 22.9677 27.1883 22.6471C26.1916 22.3266 25.4188 21.7083 24.7917 20.8381C23.3022 22.1892 21.6224 22.5555 19.6962 21.9373C19.0915 23.128 18.1619 23.9753 16.8741 24.3416C15.5862 24.708 14.3879 24.4676 13.2232 23.7348C13.2232 24.1928 13.2232 24.5935 13.2232 24.9943C13.2232 25.4522 13.0216 25.727 12.6633 25.7614C12.2937 25.7957 11.9913 25.5209 11.9689 25.0744C11.9353 24.4561 11.8905 23.8379 11.9465 23.2311C12.0137 22.5784 11.8234 22.0289 11.4538 21.4335C10.9498 22.1663 10.4571 22.8647 9.98673 23.586C9.94193 23.6547 9.96433 23.8379 10.0203 23.918C10.9498 25.0744 10.2667 26.8491 8.83324 27.0666C8.74365 27.0781 8.59806 27.2269 8.58686 27.3185C8.45247 28.681 8.57566 30.0091 9.27 31.2227C10.0763 32.631 11.3194 33.3523 12.9208 33.4783C13.1672 32.3677 13.4248 31.3029 13.0216 30.2037C12.8089 29.5969 12.6633 28.9787 12.4953 28.3489C12.3833 27.9139 12.5513 27.5704 12.932 27.4673C13.2792 27.3757 13.5816 27.5818 13.7048 28.0055C13.9176 28.7497 14.1415 29.4824 14.3431 30.2266C14.5895 31.1197 14.4999 32.0013 14.3319 32.9058C13.9623 34.8178 13.8616 36.7413 14.3655 38.6419C15.2278 41.9165 17.5684 43.4965 20.8385 42.924C21.824 42.7523 22.7759 42.3973 23.7502 42.1454C23.9966 42.0768 24.0862 41.9394 24.075 41.6875C24.0526 41.2753 24.1982 40.783 24.019 40.4624C23.8734 40.1991 23.3582 40.1533 23.0223 39.9815C21.3424 39.1343 20.3345 37.7718 20.1106 35.8597C19.9314 34.3599 20.7825 33.089 22.3503 32.5394C23.9182 31.9898 25.5196 31.9898 27.0875 32.5623C28.9465 33.2493 29.7304 34.8751 29.1033 36.7871C28.5321 38.5389 27.4011 39.7525 25.6092 40.2334C25.3964 40.2906 25.3069 40.3937 25.3181 40.6227C25.3293 40.7601 25.3181 40.9089 25.3181 41.0463C25.3181 42.0539 25.3181 42.0539 26.27 42.3859C27.7818 42.9011 29.3273 43.1988 30.9287 42.9126C32.3846 42.6492 33.4709 41.8592 34.2324 40.5654C34.5684 39.9815 34.8819 39.8327 35.2515 40.0617C35.6323 40.2906 35.6435 40.6799 35.2963 41.2524C33.9076 43.5537 31.8246 44.4124 29.2713 44.2979C28.9353 44.2865 28.5993 44.2521 28.3866 44.2292C27.9722 44.8475 27.6362 45.4429 27.2107 45.9466C26.6955 46.5649 25.9452 46.8053 25.1949 47C24.8477 46.9656 24.5117 46.9656 24.1758 46.9656ZM24.6349 33.2836C23.9182 33.4668 23.1455 33.5928 22.4287 33.8675C21.7568 34.1194 21.3648 34.6919 21.3424 35.459C21.2864 37.0276 22.8095 38.8137 24.3326 38.9854C25.9228 39.1686 27.5802 37.8519 27.961 36.1231C28.2074 34.9896 27.8154 34.1538 26.7515 33.7759C26.102 33.547 25.3964 33.4554 24.6349 33.2836ZM36.461 33.3867C38.1968 33.4668 40.2462 31.841 40.4814 30.2037C39.4735 29.8374 38.824 29.1504 38.768 28.0169C38.712 26.8033 39.3615 26.0476 40.4478 25.5896C40.011 24.4218 39.3839 23.3913 38.6672 22.4296C38.4992 22.2121 38.0512 22.3609 37.9728 22.6242C37.9168 22.8189 37.8721 23.0135 37.8161 23.1967C37.7041 23.5402 37.4913 23.8837 37.4801 24.2386C37.4017 26.1278 37.0881 27.9711 36.4722 29.7458C36.0466 30.9823 36.1362 32.1501 36.461 33.3867ZM26.9531 43.943C26.2252 43.6797 25.5196 43.4163 24.8141 43.1644C24.7469 43.1415 24.6461 43.1301 24.5789 43.153C23.8622 43.4163 23.1455 43.6797 22.4175 43.943C22.5967 44.8704 23.5598 45.649 24.5789 45.6833C25.6876 45.7177 26.6731 44.9963 26.9531 43.943ZM42.1052 27.9139C42.1052 27.3185 41.6685 26.8491 41.0861 26.8491C40.5038 26.8376 40.0446 27.2841 40.0334 27.8795C40.0222 28.4863 40.4814 28.9672 41.0749 28.9672C41.6461 28.9672 42.094 28.4978 42.1052 27.9139ZM8.54207 25.7385C8.88923 25.7385 9.16921 25.4293 9.15801 25.063C9.14681 24.708 8.87803 24.4561 8.53087 24.4561C8.1949 24.4561 7.91493 24.7309 7.90373 25.0744C7.90373 25.4179 8.2061 25.7385 8.54207 25.7385Z" fill="#2A2968"/>
<path d="M24.1758 46.9656C23.7502 46.8054 23.291 46.6909 22.8879 46.4733C21.992 45.9924 21.432 45.2024 21.1521 44.275C20.5249 44.275 19.9314 44.3094 19.3378 44.275C16.1797 44.0918 14.0743 42.3401 13.1784 39.1457C12.8201 37.8634 12.7193 36.5581 12.7641 35.2415C12.7641 35.0812 12.7641 34.9323 12.7641 34.7606C12.3273 34.669 11.9017 34.6232 11.4874 34.4858C9.14681 33.7416 7.81414 32.0471 7.39978 29.6313C7.25419 28.7611 7.34378 27.8337 7.31018 26.9407C7.29899 26.7689 7.25419 26.5514 7.1422 26.4254C6.64945 25.8072 6.48146 25.1317 6.78383 24.3874C7.08621 23.6547 7.63495 23.254 8.43008 23.1853C8.55326 23.1738 8.69885 23.1166 8.77724 23.0135C9.58357 21.9373 10.3787 20.8496 11.1738 19.7619C11.2186 19.7046 11.241 19.6359 11.2858 19.5558C11.1626 19.4871 11.0618 19.4184 10.961 19.3497C9.34839 18.4109 8.63166 16.4645 9.2028 14.5639C9.74035 12.6976 11.297 11.587 13.1672 11.7473C13.492 11.7702 13.6264 11.6901 13.7608 11.3924C14.9591 8.88497 17.9044 7.88887 20.3233 9.17121C20.4241 9.22845 20.5137 9.27425 20.6369 9.34295C22.1376 7.35075 24.075 6.75538 26.4267 7.46525C26.5163 7.3164 26.6059 7.15611 26.7067 7.00727C27.6362 5.49595 29.2937 4.84334 31.0071 5.31276C32.7653 5.79364 33.986 7.28206 34.0196 9.03381C34.0308 9.36585 34.1204 9.51469 34.4228 9.61773C34.6692 9.69788 34.9155 9.82382 35.1395 9.97266C35.4531 10.1788 35.5315 10.5337 35.3523 10.8314C35.1619 11.1291 34.8931 11.2321 34.5572 11.0947C34.1988 10.9459 33.8292 10.797 33.4709 10.6367C32.9669 10.4077 32.7653 9.98411 32.7653 9.43454C32.7765 7.86598 31.9142 6.80118 30.4136 6.51495C29.2601 6.29741 28.2298 6.82408 27.6586 7.92322C27.1659 8.86207 26.8075 9.01091 25.8332 8.67888C24.3326 8.16366 22.7423 8.67888 21.8016 9.98411C21.1969 10.8199 20.7713 10.9115 19.8866 10.4077C18.0164 9.3315 15.7094 10.1101 14.8471 12.1251C14.4775 12.9839 14.1975 13.1556 13.2904 13.064C11.8234 12.9266 10.793 13.6136 10.4123 14.976C10.0091 16.3958 10.5467 17.6896 11.8345 18.3536C12.3609 18.6284 12.5849 19.0291 12.5513 19.6359C12.4505 21.3076 13.3688 22.6586 14.8695 23.0822C16.3365 23.4944 17.7812 22.796 18.5427 21.3305C18.9011 20.632 19.3714 20.4374 20.0994 20.6893C21.544 21.1816 22.8207 20.9183 23.9294 19.8306C24.5789 19.2009 25.2957 19.2925 25.8108 20.0481C26.7403 21.4221 28.1962 21.88 29.7192 21.2732C30.5928 20.9297 31.2311 21.2847 31.4215 22.2464C31.6902 23.6432 32.7653 24.5592 34.154 24.5592C35.4979 24.5592 36.517 23.6661 36.797 22.2579C36.9537 21.445 37.2561 21.1816 38.0736 21.1129C38.3088 21.09 38.544 21.0557 38.7792 20.9984C40.235 20.6091 40.907 19.5787 40.7502 18.0216C40.6158 16.7049 39.5071 15.6401 38.1968 15.5485C38.1184 15.5485 38.0288 15.5371 37.9504 15.5371C36.9537 15.5371 36.5842 15.1936 36.4722 14.1975C36.4386 13.8426 36.3378 13.4991 36.237 13.1556C36.0914 12.6518 36.2034 12.3083 36.5954 12.1709C36.9649 12.045 37.2673 12.2282 37.4241 12.732C37.5697 13.2014 37.6817 13.6937 37.8049 14.2089C39.9663 14.3234 41.5229 15.3424 41.9485 17.6438C42.3068 19.5329 41.6237 21.0213 39.9886 21.8915C40.5262 22.9448 41.0861 23.9753 41.5789 25.0286C41.7581 25.4064 41.9261 25.7041 42.3068 25.9446C43.7963 26.8605 43.7291 29.0588 42.2396 29.9747C42.0493 30.0892 41.8701 30.3182 41.8029 30.5243C40.9742 32.963 39.3391 34.3828 36.8194 34.7033C36.7634 34.7148 36.7186 34.7262 36.6626 34.7377C36.629 35.6193 36.5842 36.4895 36.5506 37.3596C36.5394 37.497 36.517 37.6458 36.4946 37.7832C36.405 38.184 36.1362 38.4129 35.7891 38.3557C35.4419 38.2985 35.2291 38.0122 35.2627 37.6115C35.2963 37.1535 35.3971 36.6955 35.3635 36.249C35.2739 35.001 35.1731 33.7416 35.0051 32.5051C34.8819 31.612 34.9267 30.7533 35.1619 29.8832C35.5091 28.5779 35.789 27.2498 36.1026 25.9331C36.1362 25.7728 36.1362 25.5896 36.1586 25.3492C34.9155 25.9675 33.6837 26.0362 32.4518 25.4751C31.2199 24.9027 30.492 23.9066 30.2008 22.5212C29.1929 22.8876 28.2074 22.9677 27.1883 22.6471C26.1916 22.3266 25.4188 21.7083 24.7917 20.8381C23.3022 22.1892 21.6224 22.5555 19.6962 21.9373C19.0915 23.128 18.1619 23.9753 16.8741 24.3416C15.5862 24.708 14.3879 24.4676 13.2232 23.7348C13.2232 24.1928 13.2232 24.5935 13.2232 24.9943C13.2232 25.4522 13.0216 25.727 12.6633 25.7614C12.2937 25.7957 11.9913 25.5209 11.9689 25.0744C11.9353 24.4561 11.8905 23.8379 11.9465 23.2311C12.0137 22.5784 11.8234 22.0289 11.4538 21.4335C10.9498 22.1663 10.4571 22.8647 9.98673 23.586C9.94193 23.6547 9.96433 23.8379 10.0203 23.918C10.9498 25.0744 10.2667 26.8491 8.83324 27.0666C8.74365 27.0781 8.59806 27.2269 8.58686 27.3185C8.45247 28.681 8.57566 30.0091 9.27 31.2227C10.0763 32.631 11.3194 33.3523 12.9208 33.4783C13.1672 32.3677 13.4248 31.3029 13.0216 30.2037C12.8089 29.5969 12.6633 28.9787 12.4953 28.3489C12.3833 27.9139 12.5513 27.5704 12.932 27.4673C13.2792 27.3757 13.5816 27.5818 13.7048 28.0055C13.9176 28.7497 14.1415 29.4824 14.3431 30.2266C14.5895 31.1197 14.4999 32.0013 14.3319 32.9058C13.9623 34.8178 13.8616 36.7413 14.3655 38.6419C15.2278 41.9165 17.5684 43.4965 20.8385 42.924C21.824 42.7523 22.7759 42.3973 23.7502 42.1454C23.9966 42.0768 24.0862 41.9394 24.075 41.6875C24.0526 41.2753 24.1982 40.783 24.019 40.4624C23.8734 40.1991 23.3582 40.1533 23.0223 39.9815C21.3424 39.1343 20.3345 37.7718 20.1106 35.8597C19.9314 34.3599 20.7825 33.089 22.3503 32.5394C23.9182 31.9898 25.5196 31.9898 27.0875 32.5623C28.9465 33.2493 29.7304 34.8751 29.1033 36.7871C28.5321 38.5389 27.4011 39.7525 25.6092 40.2334C25.3964 40.2906 25.3069 40.3937 25.3181 40.6227C25.3293 40.7601 25.3181 40.9089 25.3181 41.0463C25.3181 42.0539 25.3181 42.0539 26.27 42.3859C27.7818 42.9011 29.3273 43.1988 30.9287 42.9126C32.3846 42.6492 33.4709 41.8592 34.2324 40.5654C34.5684 39.9815 34.8819 39.8327 35.2515 40.0617C35.6323 40.2906 35.6435 40.6799 35.2963 41.2524C33.9076 43.5537 31.8246 44.4124 29.2713 44.2979C28.9353 44.2865 28.5993 44.2521 28.3866 44.2292C27.9722 44.8475 27.6362 45.4429 27.2107 45.9466C26.6955 46.5649 25.9452 46.8053 25.1949 47C24.8477 46.9656 24.5117 46.9656 24.1758 46.9656ZM24.6349 33.2836C23.9182 33.4668 23.1455 33.5928 22.4287 33.8675C21.7568 34.1194 21.3648 34.6919 21.3424 35.459C21.2864 37.0276 22.8095 38.8137 24.3326 38.9854C25.9228 39.1686 27.5802 37.8519 27.961 36.1231C28.2074 34.9896 27.8154 34.1538 26.7515 33.7759C26.102 33.547 25.3964 33.4554 24.6349 33.2836ZM36.461 33.3867C38.1968 33.4668 40.2462 31.841 40.4814 30.2037C39.4735 29.8374 38.824 29.1504 38.768 28.0169C38.712 26.8033 39.3615 26.0476 40.4478 25.5896C40.011 24.4218 39.3839 23.3913 38.6672 22.4296C38.4992 22.2121 38.0512 22.3609 37.9728 22.6242C37.9168 22.8189 37.8721 23.0135 37.8161 23.1967C37.7041 23.5402 37.4913 23.8837 37.4801 24.2386C37.4017 26.1278 37.0881 27.9711 36.4722 29.7458C36.0466 30.9823 36.1362 32.1501 36.461 33.3867ZM26.9531 43.943C26.2252 43.6797 25.5196 43.4163 24.8141 43.1644C24.7469 43.1415 24.6461 43.1301 24.5789 43.153C23.8622 43.4163 23.1455 43.6797 22.4175 43.943C22.5967 44.8704 23.5598 45.649 24.5789 45.6833C25.6876 45.7177 26.6731 44.9963 26.9531 43.943ZM42.1052 27.9139C42.1052 27.3185 41.6685 26.8491 41.0861 26.8491C40.5038 26.8376 40.0446 27.2841 40.0334 27.8795C40.0222 28.4863 40.4814 28.9672 41.0749 28.9672C41.6461 28.9672 42.094 28.4978 42.1052 27.9139ZM8.54207 25.7385C8.88923 25.7385 9.16921 25.4293 9.15801 25.063C9.14681 24.708 8.87803 24.4561 8.53087 24.4561C8.1949 24.4561 7.91493 24.7309 7.90373 25.0744C7.90373 25.4179 8.2061 25.7385 8.54207 25.7385Z" stroke="#2A2968" stroke-width="0.7" mask="url(#path-2-outside-1_326_1000)"/>
<path d="M19.8806 2.84068L19.8461 2.825H19.8082H19.8067C19.5277 2.825 19.2448 2.825 18.9502 2.83658L18.916 2.83793L18.8847 2.85213C18.8287 2.87756 18.7766 2.90577 18.7304 2.93081L18.7282 2.93197C18.6802 2.95796 18.6382 2.98064 18.5946 3.00051C17.6571 3.41188 17.157 4.37445 17.3632 5.39276C17.5477 6.33412 18.4153 7.04489 19.3827 7.04489C20.3506 7.04489 21.218 6.3335 21.4022 5.3809C21.6082 4.35117 21.108 3.40031 20.1708 2.98906C20.1272 2.96919 20.0851 2.94651 20.0371 2.92052L20.035 2.91936C19.9887 2.89432 19.9366 2.86611 19.8806 2.84068ZM19.3939 4.46878V4.46888L19.3998 4.46868C19.6328 4.46074 19.8377 4.65304 19.8461 4.90605C19.8545 5.18452 19.6429 5.40111 19.4051 5.40111C19.1652 5.40111 18.9641 5.20415 18.9641 4.95785H18.9645L18.9638 4.94682C18.9474 4.68717 19.1531 4.46878 19.3939 4.46878Z" fill="#2A2968" stroke="#2A2968" stroke-width="0.35"/>
<path d="M38.7811 6.11744L38.7811 6.11745C38.0764 6.12745 37.499 6.7414 37.5089 7.46282L37.5089 7.46523C37.5089 8.20236 38.089 8.76657 38.8109 8.7672C39.5286 8.7565 40.0918 8.17468 40.0818 7.43326L38.7811 6.11744ZM38.7811 6.11744C39.4739 6.10747 40.0719 6.69987 40.0818 7.43323L38.7811 6.11744ZM38.7772 10.3995H38.7773C40.3902 10.4117 41.6736 9.10465 41.6973 7.46777L41.6973 7.4665C41.7092 5.82757 40.4026 4.47368 38.7898 4.47368L38.7884 4.47369C37.2007 4.48589 35.8938 5.81402 35.8934 7.44169C35.8819 9.05915 37.1785 10.3873 38.7772 10.3995Z" fill="#2A2968" stroke="#2A2968" stroke-width="0.35"/>
<path d="M8.31818 40.0192L8.31976 40.0192C9.68451 40.0068 10.7778 38.8836 10.7778 37.4856C10.7778 36.0768 9.66206 34.9282 8.28301 34.9406L8.28298 34.9406C6.92946 34.9529 5.825 36.0876 5.825 37.4741C5.825 38.8838 6.93002 40.0192 8.31818 40.0192ZM8.30698 38.3754L8.30354 38.3754C7.82797 38.3848 7.43094 37.9812 7.44045 37.4659L7.26548 37.4627L7.44045 37.4661C7.44994 36.9711 7.8478 36.575 8.31467 36.5843C8.78607 36.5938 9.17262 36.9921 9.17348 37.484C9.16313 37.9912 8.78562 38.3754 8.30698 38.3754Z" fill="#2A2968" stroke="#2A2968" stroke-width="0.35"/>
<path d="M12.2005 7.47824V7.47827C12.1885 8.86414 11.1064 9.97598 9.72972 9.97598C8.36556 9.97598 7.25974 8.854 7.25895 7.4668C7.25894 7.4663 7.25894 7.4658 7.25894 7.4653H7.43394L12.2005 7.47824ZM12.2005 7.47824C12.2125 6.07022 11.1096 4.90927 9.73052 4.90883L12.2005 7.47824ZM9.72203 6.54113C10.1889 6.53177 10.5868 6.92787 10.5963 7.42286L10.7712 7.41951L10.5963 7.42273C10.6058 7.93907 10.2397 8.32273 9.76001 8.33223C9.25513 8.34179 8.86322 7.95322 8.86322 7.4424C8.86322 6.94976 9.25011 6.55059 9.72203 6.54113Z" fill="#2A2968" stroke="#2A2968" stroke-width="0.35"/>
<path d="M23.9954 23.3996L23.9954 23.3996C22.8551 23.4121 21.9399 24.3521 21.9521 25.5228L21.9521 25.5228C21.9643 26.6692 22.8677 27.584 23.9953 27.5966L23.9954 27.5966C25.1384 27.6091 26.0649 26.6676 26.0649 25.4981C26.0649 24.3414 25.1509 23.387 23.9954 23.3996ZM24.0029 25.9529L24.0029 25.9528H23.9973C23.7506 25.9528 23.559 25.7502 23.5675 25.4693C23.5755 25.224 23.7632 25.0434 24.0197 25.0434C24.2666 25.0434 24.4494 25.2247 24.4494 25.4866H24.4493L24.4495 25.492C24.4577 25.7615 24.2564 25.961 24.0029 25.9529Z" fill="#2A2968" stroke="#2A2968" stroke-width="0.35"/>
<path d="M29.3042 29.8145C29.3042 29.6428 29.293 29.471 29.3042 29.2993C29.3266 28.9329 29.5953 28.6696 29.9201 28.681C30.2785 28.6925 30.5137 28.8986 30.536 29.2535C30.5696 29.6313 30.5696 30.0206 30.536 30.4099C30.5025 30.7648 30.2785 30.9709 29.9201 30.9824C29.5841 30.9938 29.3266 30.7305 29.293 30.3641C29.293 30.1923 29.3042 30.0092 29.3042 29.8145Z" fill="#2A2968"/>
<path d="M20.0652 29.8488C20.0652 30.032 20.0876 30.2266 20.0652 30.4098C20.0204 30.7647 19.8076 30.9823 19.4492 30.9937C19.0908 30.9937 18.8557 30.7876 18.8221 30.4327C18.7885 30.0549 18.7885 29.6656 18.8221 29.2763C18.8557 28.9214 19.0796 28.7153 19.438 28.6924C19.7628 28.6695 20.0428 28.9443 20.0652 29.2992C20.0764 29.4824 20.0652 29.6656 20.0652 29.8488Z" fill="#2A2968"/>
<path d="M19.4048 5.57618C19.0689 5.57618 18.7889 5.31284 18.7777 4.96936C18.7665 4.60298 19.0353 4.3053 19.3824 4.3053C19.7184 4.3053 19.9984 4.56863 20.0096 4.91212C20.032 5.26705 19.752 5.56473 19.4048 5.57618Z" fill="#FFDC55"/>
<path d="M38.8138 8.94227C37.9963 8.95372 37.3356 8.3011 37.3244 7.4653C37.3132 6.64094 37.9627 5.95398 38.769 5.94253C39.5641 5.93108 40.2361 6.60659 40.2473 7.43095C40.2585 8.26675 39.6313 8.93082 38.8138 8.94227Z" fill="#FFDC55"/>
<path d="M9.34796 37.4855C9.34796 38.0809 8.8888 38.5503 8.31766 38.5503C7.72412 38.5503 7.25376 38.0695 7.27616 37.4626C7.28736 36.8787 7.75771 36.4093 8.32886 36.4093C8.8888 36.4208 9.34796 36.9016 9.34796 37.4855Z" fill="#FFDC55"/>
<path d="M10.7705 7.41943C10.7817 8.0148 10.3449 8.48423 9.7626 8.50712C9.15785 8.51857 8.6875 8.04915 8.6875 7.44233C8.6875 6.85841 9.14666 6.37754 9.7178 6.36609C10.2889 6.36609 10.7593 6.84696 10.7705 7.41943Z" fill="#FFDC55"/>
</svg>
