<svg width="140" height="140" viewBox="0 0 140 140" fill="none" xmlns="http://www.w3.org/2000/svg">
<path d="M96.0173 125.024C95.3292 124.852 94.6412 124.68 93.9746 124.486C84.1052 121.734 80.1488 109.951 86.3414 101.78C86.5349 101.522 86.7284 101.264 86.965 100.984C85.2233 97.9741 83.5031 94.9639 81.7615 91.9536C78.4502 86.2125 75.1604 80.4715 71.8061 74.7735C71.0965 73.5694 71.075 72.5373 71.9351 71.4192C72.9242 70.1075 73.8272 68.7314 74.7733 67.3768C75.7409 66.0007 76.429 65.7641 78.0846 66.3017C79.9123 66.9037 81.7615 67.4628 83.5892 68.1079C84.2772 68.3659 84.5997 68.1939 84.9653 67.6133C86.0834 65.8716 87.2445 64.1515 88.4271 62.4313C89.6527 60.6252 91.3944 60.6897 92.491 62.5818C97.4149 71.0966 102.339 79.6114 107.241 88.1477C107.585 88.7498 107.929 88.9863 108.66 88.9003C116.358 87.7822 123.712 93.2007 124.894 101.006C124.916 101.135 125.002 101.264 125.067 101.371C125.067 102.511 125.067 103.672 125.067 104.812C125.002 104.984 124.916 105.134 124.894 105.306C124.077 111.52 118.809 117.197 111.219 117.67C110.789 117.691 110.252 118.057 109.994 118.423C107.929 121.454 105.177 123.476 101.672 124.486C100.963 124.701 100.21 124.83 99.5006 125.002C98.318 125.024 97.1569 125.024 96.0173 125.024ZM105.779 116.874C104.962 116.487 104.317 116.186 103.694 115.864C101.393 114.638 99.5866 112.897 98.232 110.682C97.5009 109.499 97.7375 108.252 98.7696 107.564C99.8232 106.876 101.027 107.177 101.823 108.338C101.93 108.489 102.016 108.639 102.102 108.79C105.027 113.155 110.66 114.595 115.283 112.187C119.842 109.8 121.884 104.382 120.057 99.6083C118.186 94.7273 113.004 92.0826 107.929 93.4157C105.994 93.9318 105.435 93.6952 104.425 91.9536C100.898 85.847 97.3719 79.7404 93.8456 73.6339C92.663 71.5912 91.5019 69.57 90.2333 67.3983C89.2012 68.9249 88.2551 70.3656 87.309 71.7632C86.4274 73.0533 85.6748 73.3328 84.1912 72.8383C82.2775 72.2147 80.3854 71.6127 78.4932 70.9461C77.8911 70.7311 77.4826 70.7956 77.16 71.3762C76.988 71.6987 76.7945 71.9997 76.558 72.2577C75.8699 72.9458 76.0204 73.5479 76.472 74.3219C81.3744 82.7292 86.2339 91.158 91.0933 99.5868C92.1039 101.328 91.9964 101.952 90.6418 103.371C87.9111 106.209 86.965 109.585 88.0616 113.37C89.2012 117.283 91.8889 119.713 95.8883 120.487C99.8232 121.261 103.07 119.928 105.779 116.874Z" fill="#2A2968"/>
<path d="M38.6073 14.9333C40.5855 15.7074 42.7572 16.159 44.5204 17.2771C49.4443 20.4164 51.5945 25.0823 51.1 30.9093C51.014 31.8769 51.1215 32.5005 52.0891 32.9305C53.1212 33.4036 54.0887 34.0271 55.0778 34.6292C56.2819 35.3602 56.6475 36.5644 56.0239 37.6395C55.4004 38.7146 54.1748 39.0156 52.9491 38.3275C51.1645 37.3384 49.4013 36.3063 47.6381 35.2742C46.348 34.5217 46.1115 33.7906 46.52 32.178C48.0037 26.5444 44.8644 21.0399 39.3169 19.5348C33.7908 18.0511 27.9638 21.6635 26.8457 27.297C26.8027 27.469 26.8457 27.641 26.8457 27.8776C29.2539 27.6195 31.5976 27.598 33.8769 28.4151C34.6724 28.6946 35.4895 29.0172 36.2421 29.4257C37.6182 30.1138 38.0697 31.3609 37.4247 32.522C36.8011 33.6401 35.6185 33.8981 34.2639 33.2101C28.5014 30.3288 21.9863 32.823 19.8576 38.7146C18.2449 43.144 19.9436 48.0464 23.9429 50.6697C27.7918 53.2069 33.0168 52.7339 36.3711 49.5516C38.1773 47.8314 38.5213 47.7884 40.65 49.014C48.4552 53.5294 56.2819 58.0234 64.0872 62.5388C64.3022 62.6678 64.5172 62.7753 64.9043 62.9688C65.0333 61.2702 65.1623 59.679 65.2483 58.0879C65.3558 56.1312 65.8073 55.5721 67.721 55.1851C69.5487 54.8196 71.3548 54.411 73.1825 54.067C73.8921 53.938 74.1501 53.6585 74.2791 52.9059C74.5586 51.3362 74.1931 50.2611 72.602 49.6591C71.6774 49.315 70.8388 48.6915 70.0002 48.1754C68.8391 47.4444 68.4736 46.1973 69.1186 45.1437C69.7422 44.1116 70.9678 43.8105 72.1289 44.4556C73.9781 45.4877 75.7843 46.5628 77.6119 47.6164C78.472 48.1109 78.8806 48.842 78.7945 49.8526C78.644 51.7878 78.4935 53.7015 78.3 55.6366C78.1925 56.7977 77.5474 57.5288 76.3648 57.7653C74.4081 58.1524 72.4515 58.6469 70.4733 58.9909C69.6347 59.1415 69.3767 59.507 69.3337 60.3241C69.2477 62.3668 69.1186 64.4095 68.9466 66.4306C68.7746 68.5378 67.2265 69.3334 65.3988 68.2798C56.9055 63.3774 48.4122 58.4749 39.9189 53.5724C39.6179 53.4004 39.2954 53.2284 38.9513 53.0349C36.6506 54.9486 34.0704 56.1312 31.1031 56.4967C23.5129 57.4428 16.5032 52.2393 15.1486 44.6706C15.1056 44.4341 14.9981 44.1976 14.9336 43.9826C14.9336 42.7569 14.9336 41.5528 14.9336 40.3272C14.9981 40.1337 15.1056 39.9402 15.1486 39.7467C15.9227 35.6398 18.0299 32.393 21.5132 30.0923C22.0938 29.7052 22.2873 29.3182 22.3518 28.6516C22.8678 22.1795 26.8887 17.1911 32.8878 15.4924C33.5973 15.2774 34.2639 15.1054 34.952 14.9333C36.1776 14.9333 37.3817 14.9333 38.6073 14.9333Z" fill="#2A2968"/>
<path d="M97.1563 43.5526C96.7692 44.9502 96.4252 46.3478 96.0167 47.7025C95.6942 48.7776 94.7266 49.4011 93.759 49.2936C92.7699 49.1861 91.9313 48.412 91.8453 47.4014C91.8023 46.9929 91.8883 46.5414 91.9958 46.1328C92.4688 44.3052 92.9634 42.4775 93.4579 40.6498C93.888 39.0587 94.8771 38.4996 96.4682 38.9082C97.3283 39.1232 98.1884 39.3597 99.156 39.6177C99.543 38.2201 99.887 36.887 100.274 35.5753C100.704 34.0702 101.779 33.3606 103.026 33.7047C104.23 34.0487 104.789 35.1883 104.424 36.6289C103.929 38.6071 103.392 40.5638 102.854 42.542C102.424 44.0901 101.414 44.6492 99.844 44.2622C98.9625 44.0256 98.1024 43.7891 97.1563 43.5526Z" fill="#FFDC55"/>
<path d="M102.984 56.8623C101.93 57.4643 100.834 58.1094 99.7155 58.733C98.3608 59.4855 97.0922 59.249 96.4472 58.1094C95.8021 56.9483 96.2106 55.7872 97.5868 54.9916C99.2639 54.024 100.92 53.0564 102.597 52.1103C103.973 51.3363 105.048 51.6373 105.865 52.9704C106.338 53.766 106.79 54.5616 107.306 55.4216C108.553 54.7121 109.714 54.024 110.897 53.3575C112.273 52.5834 113.52 52.7984 114.186 53.895C114.853 55.0131 114.444 56.2387 113.111 57.0343C111.348 58.0664 109.585 59.077 107.822 60.0876C106.446 60.8617 105.37 60.5606 104.553 59.2275C104.08 58.4749 103.629 57.7009 103.177 56.9268C103.156 56.9268 103.113 56.9268 102.984 56.8623Z" fill="#FFDC55"/>
<path d="M82.1915 34.1992C81.4389 32.8876 80.7293 31.6835 80.0628 30.4793C79.3317 29.1677 79.6112 27.9421 80.7293 27.3186C81.8474 26.6735 83.0301 27.0605 83.7826 28.3722C84.8147 30.1353 85.8468 31.8985 86.8359 33.6616C87.6315 35.0808 87.3305 36.1774 85.9543 37.016C85.2018 37.489 84.4062 37.919 83.5461 38.4136C84.2127 39.5962 84.8792 40.7143 85.5028 41.8539C86.2554 43.2085 85.9973 44.4557 84.8362 45.1007C83.7396 45.7028 82.5355 45.2727 81.7829 43.9826C80.8369 42.3485 79.8908 40.7143 78.9447 39.0586C78.0416 37.4675 78.3211 36.4569 79.9338 35.5108C80.6648 35.1023 81.3744 34.6937 82.1915 34.1992Z" fill="#FFDC55"/>
<path d="M64.6884 41.4238C64.6884 42.628 63.7853 43.531 62.6027 43.5525C61.4201 43.574 60.474 42.671 60.431 41.4884C60.388 40.2842 61.3986 39.2521 62.5812 39.2736C63.7423 39.2951 64.6884 40.2412 64.6884 41.4238Z" fill="#2A2968"/>
</svg>
