<svg xmlns="http://www.w3.org/2000/svg" width="15.99" height="10.665" viewBox="0 0 15.99 10.665">
  <path id="Icon_ionic-ios-arrow-round-forward" data-name="Icon ionic-ios-arrow-round-forward" d="M18.072,11.456a.726.726,0,0,0-.006,1.022l3.377,3.382H8.591a.722.722,0,0,0,0,1.444H21.438l-3.377,3.382a.731.731,0,0,0,.006,1.022.719.719,0,0,0,1.016-.006l4.577-4.61h0a.811.811,0,0,0,.15-.228.689.689,0,0,0,.056-.278.724.724,0,0,0-.206-.505l-4.577-4.61A.708.708,0,0,0,18.072,11.456Z" transform="translate(-7.875 -11.252)" fill="#2a2968"/>
</svg>
