<svg width="140" height="140" viewBox="0 0 140 140" fill="none" xmlns="http://www.w3.org/2000/svg">
<path d="M35.5215 132.509C34.2446 131.752 33.9796 130.604 34.2205 129.187C34.7987 125.549 37.0874 123.302 40.0747 121.617C40.4601 121.397 40.8456 121.177 41.2551 121.03C42.0261 120.786 42.267 120.347 42.267 119.516C42.2188 112.629 42.2429 105.766 42.2188 98.8794C42.2188 98.391 42.0742 97.8048 41.7852 97.4385C33.6182 87.23 32.2932 75.8003 35.9069 63.5159C36.8224 60.4143 38.1715 57.4592 39.4001 54.2354C38.0269 53.8202 36.5333 53.2341 34.9914 52.9655C31.1128 52.306 27.2341 51.6711 23.3313 51.3292C21.3317 51.1582 19.5731 50.6453 17.8867 49.6684C13.1648 46.9087 10.7316 42.5615 9.76799 37.3107C9.4548 35.65 9.35844 33.916 9.33435 32.2065C9.31025 29.9841 10.4907 28.5187 12.6107 27.9814C16.369 27.0045 20.1513 26.0276 23.9095 25.0996C25.8127 24.6356 27.2341 23.6098 28.2941 21.9491C29.6191 19.8732 31.0405 17.8462 32.3414 15.7458C33.9796 13.1082 36.2683 11.4475 39.2315 10.5927C44.0979 9.17624 49.0366 8.12608 54.0957 7.68648C54.4089 7.66205 54.7221 7.53994 55.0353 7.46667C56.0712 7.46667 57.1312 7.46667 58.1672 7.46667C64.2381 8.85875 67.4904 13.3036 69.8996 18.6277C72.3809 24.1227 73.3205 29.9596 73.2 35.9675C73.1278 39.6309 71.5618 42.6348 68.7673 44.9549C68.1891 45.4434 67.9964 45.8586 68.1409 46.5912C68.4059 48.0566 68.5986 49.5707 68.8395 51.2315C69.2973 51.2315 69.7791 51.2315 70.2368 51.2315C81.8729 51.2315 93.533 51.2315 105.169 51.2315C109.698 51.2315 112.155 53.747 112.155 58.3384C112.155 70.3053 112.155 82.2722 112.155 94.2392C112.155 98.7573 109.698 101.273 105.241 101.273C103.724 101.273 102.206 101.273 100.592 101.273C101.001 103.52 101.339 105.669 101.82 107.794C102.061 108.844 102.929 109.21 103.964 109.161C113.721 108.575 121.647 100.687 122.322 90.8689C122.37 90.1362 122.418 89.4035 122.466 88.6709C122.539 87.5963 123.117 86.9125 124.129 86.6927C125.165 86.4729 126.008 86.9369 126.369 87.9138C127.429 90.7468 128.586 93.5798 129.381 96.5104C130.32 99.9296 130.923 103.446 130.561 107.012C129.959 112.849 127.092 117.514 122.804 121.299C118.058 125.475 112.396 127.454 106.229 128.113C105.386 128.211 104.543 128.235 103.699 128.333C103.434 128.357 103.097 128.382 102.929 128.553C100.736 130.751 98.038 131.898 95.0989 132.533C75.1996 132.509 55.3726 132.509 35.5215 132.509ZM58.3599 100.784C55.4208 99.319 54.5294 96.8524 54.5294 93.6775C54.6017 81.7594 54.5535 69.8413 54.5535 57.8988C54.5535 53.8691 57.1312 51.2559 61.1063 51.2315C62.2627 51.2315 63.419 51.2315 64.6477 51.2315C64.4309 49.815 64.2622 48.545 64.0454 47.2018C63.419 47.2506 62.889 47.2751 62.3831 47.3483C59.6849 47.6658 57.1071 47.2506 54.5776 46.2982C51.9516 45.2968 50.4821 43.1477 50.4339 40.3147C50.4098 37.555 50.4339 34.7708 50.4339 32.0111C50.4339 30.1062 50.4098 28.1768 50.458 26.2719C50.4821 25.0263 51.3975 24.1471 52.5057 24.1471C53.6139 24.1471 54.4812 25.0507 54.5535 26.2719C54.5776 26.5893 54.5535 26.9313 54.5535 27.2488C54.5535 31.4494 54.5535 35.6256 54.5535 39.8262C54.5535 41.4381 54.9148 42.0243 56.4085 42.5615C57.3962 42.9035 58.4081 43.1721 59.444 43.2942C64.7922 43.978 68.9841 40.6078 69.0564 35.5768C69.1286 31.6448 68.695 27.786 67.5145 24.025C66.31 20.1907 64.6959 16.5762 61.6604 13.8165C60.0944 12.3756 58.2876 11.4964 56.0953 11.6673C50.723 12.0825 45.447 13.0594 40.2674 14.598C38.3642 15.1597 36.9187 16.2099 35.8346 17.9194C34.4855 20.093 33.016 22.1689 31.6428 24.3181C30.0046 26.8824 27.74 28.4699 24.825 29.1781C23.765 29.4223 22.729 29.7154 21.5968 30.0085C21.5968 31.5715 21.6449 33.0613 21.5968 34.551C21.5004 37.0665 19.8381 38.6784 17.3567 38.7272C16.369 38.7517 15.3812 38.7272 14.3212 38.7272C15.044 41.2183 16.2967 43.1721 18.1276 44.7107C19.6695 46.0295 21.3317 47.0552 23.5 47.1041C29.3059 47.2751 34.9674 48.3496 40.4842 50.2546C43.4474 51.2803 44.4352 53.6249 43.1343 56.5311C42.2188 58.5582 41.207 60.5608 40.4842 62.6611C36.4128 74.5548 37.2801 85.6914 45.6879 95.6068C46.0734 96.0464 46.3143 96.7791 46.3143 97.3896C46.3625 105.522 46.3384 113.655 46.3384 121.812C46.3384 123.033 45.7602 123.766 44.6279 124.181C43.592 124.572 42.5079 124.962 41.5683 125.573C40.5324 126.257 39.6651 127.16 38.7256 127.966C38.7978 128.088 38.8942 128.211 38.9665 128.357C42.8933 128.357 46.7961 128.382 50.723 128.333C51.0362 128.333 51.4216 127.869 51.6143 127.527C52.7707 125.573 54.2162 123.888 56.1435 122.74C57.5408 121.91 59.0585 121.299 60.5522 120.566C55.493 114.607 55.8785 107.891 58.3599 100.784ZM83.3665 55.3833C76.0669 55.3833 68.7432 55.3833 61.4436 55.3833C59.3717 55.3833 58.6731 56.0915 58.6731 58.143C58.6731 70.1832 58.6731 82.2478 58.6731 94.288C58.6731 96.3883 59.3476 97.0966 61.3954 97.0966C76.0187 97.0966 90.618 97.0966 105.241 97.0966C107.361 97.0966 108.012 96.4128 108.012 94.2147C108.012 82.2478 108.012 70.2809 108.012 58.3139C108.012 56.0671 107.361 55.3833 105.145 55.3833C97.8935 55.3833 90.6421 55.3833 83.3665 55.3833ZM96.3276 101.248C95.7012 101.248 95.2676 101.248 94.8339 101.248C85.2456 101.248 75.6573 101.248 66.045 101.248C62.4072 101.248 62.4072 101.248 61.3954 104.838C59.8535 110.285 60.7208 118.1 67.8277 120.298C68.695 120.566 69.0564 121.446 68.9118 122.398C68.7673 123.326 68.1891 123.937 67.2736 124.132C66.8159 124.23 66.31 124.205 65.8281 124.205C63.2745 124.327 60.7931 124.791 58.6008 126.159C57.7576 126.696 57.0108 127.405 56.2158 128.04C56.2639 128.137 56.3121 128.235 56.3844 128.357C56.7699 128.357 57.1553 128.357 57.5408 128.357C65.9245 128.357 74.3082 128.357 82.7161 128.357C85.6552 128.357 87.0525 127.136 87.4861 124.181C87.7029 122.813 88.5461 122.007 89.7025 122.105C90.9312 122.227 91.7262 123.228 91.5334 124.621C91.3648 125.842 91.0034 127.038 90.7143 128.308C91.7984 128.308 92.9789 128.43 94.1112 128.284C96.5203 127.966 98.7849 127.258 100.279 125.011C100.592 124.547 101.411 124.279 102.037 124.205C103.266 124.034 104.519 124.083 105.747 123.937C112.228 123.18 117.913 120.786 122.322 115.731C127.068 110.285 127.333 104.081 125.406 97.6827C124.273 99.6121 123.31 101.786 121.912 103.642C117.552 109.357 111.457 112.067 104.615 113.215C101.122 113.801 98.303 111.579 97.6526 108.038C97.2189 105.791 96.7612 103.544 96.3276 101.248ZM17.4772 31.0586C16.4172 31.3273 15.5499 31.6448 14.6585 31.7425C13.5262 31.8646 13.2853 32.4995 13.4539 33.4764C13.5021 33.8184 13.5744 34.1603 13.6226 34.4778C14.9717 34.4778 16.2244 34.4778 17.5013 34.4778C17.4772 33.3299 17.4772 32.2797 17.4772 31.0586Z" fill="#2A2968"/>
<path d="M83.3666 55.3834C90.6422 55.3834 97.8936 55.3834 105.169 55.3834C107.361 55.3834 108.036 56.0672 108.036 58.3141C108.036 70.281 108.036 82.248 108.036 94.2149C108.036 96.4129 107.361 97.0967 105.266 97.0967C90.6422 97.0967 76.0429 97.0967 61.4196 97.0967C59.3718 97.0967 58.6973 96.3885 58.6973 94.2882C58.6973 82.248 58.6973 70.1833 58.6973 58.1431C58.6973 56.0672 59.3959 55.3834 61.4678 55.3834C68.7433 55.3834 76.067 55.3834 83.3666 55.3834ZM77.3197 68.8401C78.187 69.817 78.9098 70.6718 79.6807 71.4777C80.1625 71.9906 80.2107 72.4302 79.777 72.9675C78.5002 74.5305 77.3197 76.1912 75.8984 77.6077C72.5979 80.8559 68.5506 82.9318 64.3105 84.6414C62.9614 85.1786 62.4314 86.2776 62.865 87.4011C63.3228 88.5489 64.4551 89.0374 65.756 88.5245C70.0924 86.8394 74.212 84.739 77.6811 81.5886C79.6084 79.8546 81.2948 77.8275 83.198 75.8493C84.3785 77.5345 85.6071 79.2929 86.8599 81.1001C86.6189 81.3688 86.4503 81.5397 86.2817 81.7107C83.0053 84.9344 79.1507 87.2301 74.8624 88.7199C73.3447 89.2572 72.7183 90.3318 73.152 91.5529C73.5856 92.7251 74.7179 93.1647 76.1634 92.6763C79.9939 91.3575 83.5112 89.4526 86.6671 86.8882C87.4139 86.2777 88.1367 85.6671 89.0762 84.8612C89.9194 87.0347 90.7144 89.0618 91.4613 91.0888C92.0154 92.5786 92.979 93.2136 94.1595 92.7984C95.3881 92.3832 95.894 91.2842 95.3881 89.8189C94.7858 88.0605 94.1836 86.2777 93.3645 84.6169C88.7149 75.2143 82.1139 67.3504 74.5252 60.2679C73.6097 59.4131 72.3811 59.4864 71.6101 60.3167C70.8151 61.1715 70.8633 62.417 71.8029 63.3695C72.5979 64.1755 73.417 64.9325 74.2843 65.7629C73.9952 66.2025 73.7783 66.6665 73.4411 67.0084C72.0438 68.4005 70.7188 69.8903 69.1769 71.087C67.6351 72.2837 65.8523 73.1873 64.166 74.1886C62.8409 74.9701 62.3591 76.0691 62.9373 77.1926C63.4914 78.2916 64.6237 78.5846 65.9487 77.9741C66.5992 77.681 67.2496 77.3391 67.876 76.9972C71.6101 74.9701 74.6938 72.2592 77.3197 68.8401ZM103.892 90.5027C103.724 89.5747 103.555 88.4512 103.314 87.3278C101.628 79.6104 97.9177 72.9186 93.0272 66.8863C91.1481 64.5662 89.004 62.4659 86.9562 60.2923C86.2335 59.5352 85.318 59.4375 84.4266 59.9504C83.5594 60.4633 83.2462 61.318 83.5353 62.2461C83.7039 62.7834 84.1616 63.2718 84.5953 63.687C90.4253 69.4263 95.2195 75.8982 97.99 83.7133C98.8332 86.1067 99.2668 88.6466 99.8691 91.1377C100.158 92.31 101.074 93.0426 102.11 92.8961C103.145 92.774 103.916 91.7971 103.892 90.5027Z" fill="#FFDC55"/>
<path d="M77.3204 68.8401C74.6704 72.2837 71.6108 74.9945 67.973 76.9972C67.3467 77.3391 66.6962 77.681 66.0457 77.9741C64.7207 78.5846 63.6125 78.2915 63.0343 77.1925C62.4561 76.0691 62.9139 74.9701 64.263 74.1886C65.9494 73.1873 67.7321 72.2837 69.2739 71.087C70.8158 69.8903 72.1408 68.4005 73.5381 67.0084C73.8754 66.6665 74.0681 66.2269 74.3813 65.7629C73.514 64.9325 72.6949 64.1754 71.8999 63.3695C70.9603 62.4415 70.8881 61.1959 71.7072 60.3167C72.4781 59.4864 73.7067 59.4131 74.6222 60.2679C82.1868 67.3504 88.7878 75.2143 93.4615 84.6169C94.2806 86.2776 94.8829 88.0605 95.4851 89.8189C95.9911 91.2842 95.4851 92.3832 94.2565 92.7984C93.076 93.2136 92.1124 92.5542 91.5583 91.0888C90.8115 89.0618 89.9924 87.0347 89.1733 84.8612C88.2096 85.6671 87.4869 86.2776 86.7641 86.8882C83.6082 89.4526 80.0909 91.3575 76.2604 92.6763C74.8149 93.1647 73.6826 92.7496 73.249 91.5529C72.8154 90.3317 73.4176 89.2572 74.9595 88.7199C79.2718 87.2057 83.1023 84.91 86.3787 81.7107C86.5473 81.5397 86.716 81.3688 86.9569 81.1001C85.7041 79.3173 84.4514 77.5345 83.295 75.8493C81.4159 77.8275 79.7054 79.8302 77.7781 81.5886C74.309 84.739 70.1894 86.8394 65.853 88.5245C64.5521 89.0374 63.4198 88.5489 62.9621 87.4011C62.5284 86.2776 63.0584 85.1786 64.4075 84.6414C68.6476 82.9318 72.6949 80.8559 75.9954 77.6077C77.4168 76.2157 78.5972 74.5305 79.8741 72.9675C80.3077 72.4302 80.2595 71.9906 79.7777 71.4777C78.9104 70.6718 78.1877 69.7926 77.3204 68.8401Z" fill="#2A2968"/>
<path d="M103.893 90.5024C103.917 91.8212 103.122 92.7737 102.062 92.9202C101.026 93.0423 100.11 92.3096 99.8212 91.1618C99.2189 88.6707 98.8093 86.1308 97.9421 83.7374C95.1716 75.9223 90.3774 69.4503 84.5474 63.7111C84.1378 63.2959 83.6801 62.8075 83.4873 62.2702C83.1742 61.3421 83.4873 60.4629 84.3787 59.9745C85.2942 59.4616 86.2096 59.5593 86.9083 60.3164C88.956 62.49 91.1002 64.5903 92.9793 66.9104C97.8698 72.9427 101.58 79.6344 103.266 87.3519C103.555 88.4265 103.724 89.5499 103.893 90.5024Z" fill="#2A2968"/>
</svg>
