<svg id="QsEwZC.tif" xmlns="http://www.w3.org/2000/svg" width="67.045" height="59.942" viewBox="0 0 67.045 59.942">
  <g id="Group_126" data-name="Group 126" transform="translate(0 0)">
    <path id="Path_119" data-name="Path 119" d="M488.717,1070.14a1.888,1.888,0,0,1,1.344-.8c1.3-.262,2.59-.6,3.894-.854a1.455,1.455,0,0,0,1.015-.712q10.151-15.522,20.327-31.027a19.614,19.614,0,0,1,1.461-1.918,5,5,0,0,1,2.614-1.368h1.048c1.883.269,2.843,1.741,4.018,2.99,6.4,6.806,12.842,13.571,19.256,20.364a1.016,1.016,0,0,0,1.127.35c1.417-.351,2.847-.649,4.271-.973,1.255-.285,1.656-.04,1.938,1.23q2.329,10.467,4.649,20.935c.243,1.1-.02,1.508-1.142,1.759q-6.731,1.507-13.464,3l-34.908,7.777q-5.425,1.209-10.849,2.419c-1.136.252-1.548-.011-1.806-1.164q-2.333-10.432-4.659-20.866a2.649,2.649,0,0,0-.135-.357Zm64.628,7.961-4.369-19.595-57.812,12.877,4.368,19.6Zm-55.493-10.674.1.159,43.676-9.729L524.141,1039.4a4.5,4.5,0,0,1-8.266.516Zm22.069-27.256a2.2,2.2,0,0,0,2.2-2.267,2.226,2.226,0,0,0-4.452.036A2.21,2.21,0,0,0,519.922,1040.17Z" transform="translate(-488.717 -1033.459)" fill="#2a2968"/>
    <path id="Path_120" data-name="Path 120" d="M569.582,1244.244l-57.813,12.881-4.368-19.6,57.812-12.877Zm-7.256-14.5a1.657,1.657,0,1,0,.06-3.313,1.657,1.657,0,1,0-.06,3.313Zm-51.3,11.15a1.655,1.655,0,1,0-1.635-1.674A1.63,1.63,0,0,0,511.023,1240.89Z" transform="translate(-504.953 -1199.603)" fill="#e94d16"/>
    <path id="Path_121" data-name="Path 121" d="M712.005,1055.158a2.209,2.209,0,0,1-2.248-2.231,2.226,2.226,0,0,1,4.452-.036A2.2,2.2,0,0,1,712.005,1055.158Z" transform="translate(-680.801 -1048.448)" fill="#ffe7c3"/>
    <path id="Path_122" data-name="Path 122" d="M915.792,1241.531a1.657,1.657,0,1,1,1.7-1.627A1.664,1.664,0,0,1,915.792,1241.531Zm.028-2.437c-.252.352-.543.586-.508.752.046.22.347.386.538.575.168-.189.455-.369.47-.569S916.068,1239.446,915.82,1239.094Z" transform="translate(-858.42 -1211.394)"/>
    <path id="Path_123" data-name="Path 123" d="M524.2,1326.666a1.655,1.655,0,1,1,1.675-1.635A1.63,1.63,0,0,1,524.2,1326.666Zm.779-1.673c-.342-.243-.562-.52-.755-.5s-.374.323-.56.5c.2.19.37.493.592.534C524.425,1325.559,524.654,1325.25,524.982,1324.993Z" transform="translate(-518.133 -1285.379)"/>
    <path id="Path_124" data-name="Path 124" d="M923.487,1244.907c.248.353.515.566.5.759s-.3.38-.47.569c-.191-.189-.493-.356-.538-.575C922.944,1245.493,923.235,1245.259,923.487,1244.907Z" transform="translate(-866.086 -1217.207)" fill="#ffe7c3"/>
    <path id="Path_125" data-name="Path 125" d="M532.277,1332.513c-.329.258-.557.566-.722.536-.223-.041-.4-.344-.592-.534.186-.179.359-.484.56-.5S531.935,1332.271,532.277,1332.513Z" transform="translate(-525.428 -1292.899)" fill="#ffe7c3"/>
  </g>
  <path id="Path_126" data-name="Path 126" d="M0,10.6a1.085,1.085,0,0,0,1.094,1.079H7.043a1.156,1.156,0,1,0,0-2.312H5.98a13.634,13.634,0,0,0-1.88.154Q7.544,6.034,7.552,3.606A3.489,3.489,0,0,0,3.791,0,4.422,4.422,0,0,0,.755,1.048a1.074,1.074,0,0,0-.4.817A1.086,1.086,0,0,0,1.418,2.928.992.992,0,0,0,2.081,2.7a2.107,2.107,0,0,1,1.341-.555A1.423,1.423,0,0,1,4.916,3.761c0,1.526-1.541,3.375-4.547,6.026A1.069,1.069,0,0,0,0,10.6ZM14.8,6.735h-2.2L13.9,4.469c.308-.6.616-1.264.925-1.973h.062c0,.108-.015.308-.031.6-.046.863-.062,1.51-.062,1.957Zm-4.932.74a1.339,1.339,0,0,0,1.325,1.341H14.8v1.711a1.3,1.3,0,0,0,1.279,1.279,1.31,1.31,0,0,0,1.279-1.295v-1.7h.339a1.059,1.059,0,0,0,1.048-1.048,1.046,1.046,0,0,0-1.048-1.033h-.339V1.418A1.1,1.1,0,0,0,16.136.2H14.919a1.527,1.527,0,0,0-1.449.832L10.049,6.8A1.243,1.243,0,0,0,9.864,7.475ZM21.114,1.464v8.954a1.379,1.379,0,1,0,2.759,0V6.966h3.776v3.452a1.372,1.372,0,1,0,2.743,0V1.449a1.372,1.372,0,0,0-2.743,0V4.577H23.873V1.464a1.379,1.379,0,1,0-2.759,0Z" transform="translate(16.969 38.756) rotate(-13)" fill="#fff"/>
</svg>
