<svg xmlns="http://www.w3.org/2000/svg" width="28" height="28" viewBox="0 0 28 28">
  <g id="Group_164" data-name="Group 164" transform="translate(0.219 0.305)">
    <circle id="Ellipse_31" data-name="Ellipse 31" cx="14" cy="14" r="14" transform="translate(-0.219 -0.305)" fill="#c4c4c4"/>
    <path id="phone_icon" d="M16.111,13.469a.9.9,0,0,0-.92,0l-1.439.857a.9.9,0,0,1-1.02-.061,23.406,23.406,0,0,1-2.047-1.785A23.407,23.407,0,0,1,8.9,10.438a.9.9,0,0,1-.061-1.02L9.7,7.98a.907.907,0,0,0,0-.923L7.589,3.451a.91.91,0,0,0-1-.424,2.983,2.983,0,0,0-1.4.84C3.561,5.493,2.7,8.238,8.816,14.356s8.862,5.255,10.49,3.627a3,3,0,0,0,.84-1.4.906.906,0,0,0-.422-1Z" transform="translate(1.891 2.89)" fill="#fff"/>
  </g>
</svg>
