<svg xmlns="http://www.w3.org/2000/svg" width="18.835" height="18.835" viewBox="0 0 18.835 18.835">
  <g id="RphlsE.tif" transform="translate(186.47 -173.084)">
    <path id="Path_680" data-name="Path 680" d="M-177.053,191.713h3.192v-7.44h2.586v-2.58h-2.586V179.25l2.586-.295v-1.968l-2.228-.467-2.916.824-.635,4.349-2.135.383.31,2.2h1.824Z" fill="#ffdc55"/>
    <path id="Path_676" data-name="Path 676" d="M-174.076,191.918a.525.525,0,0,1-.261-.521q.008-3.467,0-6.933c0-.386.119-.508.5-.509q.91,0,1.821,0h.211c.064-.638.127-1.256.191-1.893h-.218q-1.021,0-2.041,0c-.335,0-.465-.133-.466-.471,0-.533,0-1.066,0-1.6a1.011,1.011,0,0,1,1.129-1.124c.532,0,1.064,0,1.609,0v-1.8a1.042,1.042,0,0,0-.14-.017c-.821,0-1.643-.006-2.464.014a2.34,2.34,0,0,0-2.442,2.23c-.067.619-.035,1.248-.047,1.873,0,.141,0,.282,0,.423,0,.37-.124.492-.5.493-.484,0-.968,0-1.453,0h-.207v1.866c.07,0,.135.009.2.009.49,0,.981,0,1.471,0,.363,0,.488.127.489.485,0,.423,0,.846,0,1.269a.372.372,0,0,1-.374.394.378.378,0,0,1-.359-.392c0-.067,0-.135,0-.2V184.7c-.075,0-.14-.011-.2-.011-.49,0-.981,0-1.471,0-.372,0-.495-.126-.495-.5q0-1.177,0-2.354c0-.37.124-.493.5-.495.484,0,.968,0,1.453,0h.219c0-.1,0-.186,0-.27a18.594,18.594,0,0,1,.086-2.053,2.947,2.947,0,0,1,1.841-2.43,4.109,4.109,0,0,1,1.618-.281q1.269,0,2.538,0c.369,0,.493.127.493.5q0,1.149,0,2.3c0,.367-.129.493-.5.494-.619,0-1.238,0-1.857,0-.319,0-.392.072-.394.388,0,.435,0,.87,0,1.335h2.258c.4,0,.534.15.494.542q-.121,1.189-.244,2.377c-.036.341-.149.444-.5.445-.595,0-1.189,0-1.784,0h-.213v6.491h.533c.582,0,1.165,0,1.747,0a2.867,2.867,0,0,0,2.929-2.934q0-5.746,0-11.493a2.864,2.864,0,0,0-2.932-2.931q-5.746,0-11.493,0a2.864,2.864,0,0,0-2.933,2.93q0,5.746,0,11.493a2.865,2.865,0,0,0,2.928,2.935c1.734,0,3.469,0,5.2,0h.18v-.691c0-.576,0-1.152,0-1.729a.374.374,0,0,1,.287-.413.364.364,0,0,1,.446.4c0,.466,0,.932,0,1.4,0,.417-.008.834,0,1.25a.515.515,0,0,1-.261.521h-6.289a.593.593,0,0,0-.1-.034,3.6,3.6,0,0,1-3.049-2.793c-.032-.136-.057-.273-.086-.409V176.325a.591.591,0,0,0,.034-.1,3.586,3.586,0,0,1,3.581-3.132q5.8-.015,11.6,0a3.58,3.58,0,0,1,3.61,3.61q.017,5.8,0,11.6a3.579,3.579,0,0,1-2.772,3.513c-.153.039-.308.069-.462.1Z" fill="#2a2968"/>
    <path id="Path_677" data-name="Path 677" d="M-178.638,190.184c0,.5,0,.993,0,1.489a.368.368,0,0,1-.532.37.369.369,0,0,1-.2-.347c0-1.005,0-2.01,0-3.015a.36.36,0,0,1,.373-.39.365.365,0,0,1,.359.4C-178.635,189.192-178.638,189.688-178.638,190.184Z" transform="translate(-5.331 -11.425)" fill="#2a2968"/>
    <path id="Path_678" data-name="Path 678" d="M-178.631,207.408a.365.365,0,0,1-.362.362.364.364,0,0,1-.369-.353.37.37,0,0,1,.37-.373A.372.372,0,0,1-178.631,207.408Z" transform="translate(-5.34 -25.513)" fill="#2a2968"/>
    <path id="Path_679" data-name="Path 679" d="M-149.71,229.353a.365.365,0,0,1-.372-.351.371.371,0,0,1,.367-.378.372.372,0,0,1,.364.363A.366.366,0,0,1-149.71,229.353Z" transform="translate(-27.337 -41.727)" fill="#2a2968"/>
  </g>
</svg>
