<svg width="140" height="140" viewBox="0 0 140 140" fill="none" xmlns="http://www.w3.org/2000/svg">
<path d="M30.2336 35.6826C26.1194 29.4405 26.1194 23.2745 30.4876 16.728C29.7765 16.1443 28.913 15.5354 28.1765 14.7995C27.1861 13.8353 27.1861 12.5919 28.0241 11.78C28.8622 10.968 29.9797 11.0187 30.9701 11.9322C31.3764 12.3128 31.7828 12.6934 32.1383 13.0994C32.4685 13.48 32.7225 13.9368 33.0018 14.3428C33.0526 14.1398 33.1034 13.9622 33.1796 13.7592C35.4399 12.9726 37.6239 11.9322 39.935 11.4755C44.6587 10.562 48.8745 11.9576 52.5062 15.104C54.0553 16.4742 54.1061 17.4892 52.6331 18.9355C46.8936 24.6955 41.154 30.4301 35.4145 36.1647C34.2716 37.3066 33.1542 38.4484 32.1129 39.6664C31.7574 40.0724 31.5034 40.6814 31.5034 41.2142C31.478 57.2001 31.478 73.1859 31.478 89.1718C31.478 89.5016 31.5288 89.8315 31.5796 90.2121C31.986 90.2375 32.3161 90.2882 32.6209 90.2882C38.0303 90.2882 43.4651 90.3136 48.8745 90.2629C49.3316 90.2629 49.9665 89.8822 50.2459 89.5016C51.3887 87.9792 52.5062 86.4313 53.4966 84.8074C54.0045 83.9954 54.3347 83.0565 54.5633 82.1431C54.7918 81.255 54.5125 80.646 53.3696 80.5952C50.1697 80.4176 47.1221 79.4788 44.3286 77.9055C40.3413 75.6472 38.9699 72.2471 40.0366 67.8065C40.6969 65.0661 42.3222 63.2645 45.1666 62.9093C46.9444 62.6809 47.6047 61.9704 47.9602 60.1435C48.7729 55.8045 51.4903 52.7342 55.4521 50.8311C56.3156 50.4251 56.5696 49.943 56.3664 49.0803C55.8077 46.5428 55.3251 43.9546 54.6902 41.4426C54.2585 39.6918 55.4521 38.3977 57.3568 38.7275C61.9282 39.5395 65.3313 42.0769 67.7439 45.9592C68.3534 46.9742 68.9883 47.4817 70.2328 47.6339C74.8549 48.2937 78.131 51.0341 80.5691 54.891C82.8293 58.5195 83.6928 62.6048 84.6325 66.6901C85.5975 70.8768 86.6642 75.0636 87.68 79.2504C88.6705 83.3357 91.0831 86 95.1719 87.2433C97.7877 88.0553 100.302 89.1718 102.867 90.136C103.273 90.2882 103.781 90.3136 104.238 90.3136C109.521 90.3136 114.829 90.3136 120.111 90.3136C126.486 90.339 130.143 95.2616 128.339 101.326C126.663 106.908 124.987 112.491 123.311 118.073C121.279 124.848 116.124 128.756 109.038 128.781C102.74 128.807 96.4163 128.781 90.118 128.781C70.5375 128.781 50.9316 128.781 31.3511 128.781C23.8591 128.781 18.7037 124.873 16.5958 117.667C15.6054 114.292 14.6149 110.943 13.5991 107.594C12.9387 105.411 12.2784 103.229 11.6181 101.047C9.91659 95.4392 13.5737 90.4151 19.4148 90.2882C21.6497 90.2375 23.9099 90.2375 26.1448 90.3136C27.1861 90.339 27.4146 89.9837 27.4146 89.0195C27.3892 79.1235 27.3892 69.2275 27.3892 59.3315C27.3892 53.2924 27.44 47.2279 27.3638 41.1888C27.3384 39.3873 27.7448 37.9663 29.1416 36.8245C29.5479 36.4946 29.8781 36.0632 30.2336 35.6826ZM122.498 106.452C87.426 106.452 52.5316 106.452 17.5101 106.452C18.4751 109.7 19.5672 112.846 20.3037 116.094C21.4719 121.118 25.4083 124.823 31.8844 124.797C57.3061 124.67 82.7531 124.747 108.2 124.747C108.784 124.747 109.394 124.772 109.978 124.721C114.371 124.391 117.521 122.184 119.019 118.073C120.365 114.267 121.33 110.359 122.498 106.452ZM110.892 102.366C110.994 102.24 111.07 102.113 111.172 101.986C109.165 100.108 107.261 98.1543 105.153 96.4034C102.156 93.8914 98.6004 92.3689 94.8672 91.3793C88.6197 89.73 84.988 85.7208 83.6166 79.4788C82.5246 74.5308 81.2547 69.6335 80.0865 64.7109C79.2484 61.2346 78.1564 57.8852 75.7438 55.1194C74.347 53.5208 72.6708 52.3282 70.4867 51.8207C70.7915 53.8506 71.0708 55.7537 71.3248 57.6822C71.528 59.23 70.8677 60.2957 69.5979 60.448C68.328 60.6002 67.49 59.7882 67.3122 58.1897C66.9566 54.8149 66.3217 51.4908 64.5948 48.4967C63.452 46.5428 61.9536 44.9189 59.7949 43.7516C60.0235 45.4771 60.252 47.0249 60.4044 48.5474C60.6838 51.5923 60.9377 54.6119 60.0742 57.606C59.7187 58.824 58.8044 59.3823 57.687 59.1539C56.6204 58.9509 56.0108 58.012 56.1632 56.7433C56.2394 56.1597 56.3664 55.6015 56.5188 54.7895C53.5728 56.5911 52.049 59.027 51.6681 62.1988C51.3887 64.4571 50.1697 65.802 48.011 66.3602C47.3253 66.5378 46.5888 66.5886 45.9031 66.8169C45.3952 66.9692 44.8111 67.1976 44.5063 67.5782C43.2111 69.1514 43.6429 72.7038 45.4206 73.7188C47.1983 74.7337 49.1284 75.7487 51.1094 76.0786C54.4363 76.6368 57.8394 76.6622 61.2171 76.8906C62.6139 76.9921 63.4266 77.7533 63.4012 78.9966C63.3504 80.1639 62.5377 80.8997 61.1917 80.9505C60.4044 80.9758 59.6171 80.9505 58.7536 80.9505C58.8298 83.6655 57.814 85.8985 56.341 87.9538C55.7315 88.8165 55.0966 89.6539 54.4871 90.5166C51.9728 94.069 51.7443 98.1035 51.9982 102.341C71.6549 102.366 91.2609 102.366 110.892 102.366ZM33.1034 32.3839C38.208 27.3091 43.2873 22.2088 48.392 17.1339C44.1508 14.0637 37.8779 14.8249 34.1192 18.9102C30.6654 22.6656 30.2336 29.0853 33.1034 32.3839ZM48.1634 94.4496C42.6778 94.4496 37.1414 94.4496 31.5542 94.4496C31.5542 97.1393 31.5542 99.7275 31.5542 102.366C36.989 102.366 42.3476 102.366 47.6555 102.366C47.8332 99.7021 47.9856 97.0886 48.1634 94.4496ZM27.3384 94.475C27.0591 94.4242 26.9321 94.3735 26.8305 94.3735C24.4179 94.3735 22.0052 94.3481 19.618 94.3735C17.0275 94.3989 15.3006 95.9721 15.2752 98.3065C15.2244 100.717 16.9514 102.417 19.5672 102.443C21.8782 102.493 24.2147 102.468 26.5258 102.443C26.8051 102.443 27.0845 102.341 27.3638 102.29C27.3384 99.6514 27.3384 97.0886 27.3384 94.475ZM109.47 94.4242C111.07 96.1751 112.924 97.6468 114.041 99.5752C115.591 102.214 117.648 102.722 120.39 102.468C123.057 102.214 124.835 100.666 124.784 98.205C124.733 95.9213 122.955 94.3481 120.365 94.3228C117.064 94.2974 113.762 94.3228 110.486 94.3228C110.13 94.3481 109.826 94.3989 109.47 94.4242Z" fill="#2A2968"/>
<path d="M52.48 34.896C52.2768 35.1751 51.9721 35.9617 51.4387 36.1901C50.8546 36.4438 49.8896 36.4185 49.3562 36.0886C48.5182 35.5811 47.8071 34.7945 47.1976 34.0079C46.5119 33.1452 46.5626 32.1809 47.3499 31.369C48.1372 30.5824 49.0515 30.5316 49.9911 31.166C51.3879 32.1809 52.48 33.6273 52.48 34.896Z" fill="#2A2968"/>
<path d="M41.3057 37.7633C43.0327 37.7379 45.6485 40.2246 45.4707 41.4933C45.3945 42.1023 44.9374 42.9396 44.4041 43.168C43.82 43.4217 42.8549 43.371 42.3216 43.0411C41.4835 42.5336 40.7216 41.747 40.2137 40.9097C39.8836 40.3768 39.8074 39.438 40.0613 38.829C40.2645 38.2961 41.0518 37.9662 41.3057 37.7633Z" fill="#2A2968"/>
<path d="M65.8644 34.8706C65.6612 35.1244 65.3057 35.8856 64.7723 36.0886C64.1628 36.317 63.2232 36.2409 62.6644 35.8856C61.8518 35.4035 61.1153 34.6423 60.6327 33.8557C60.3026 33.2974 60.201 32.3332 60.455 31.7496C60.6835 31.2421 61.4962 30.76 62.1311 30.6839C63.4263 30.4809 65.9152 33.0944 65.8644 34.8706Z" fill="#2A2968"/>
<path d="M51.6172 48.6743C51.4141 48.9281 51.0839 49.6893 50.5506 49.8923C49.9411 50.1207 49.0014 50.0699 48.4681 49.7401C47.63 49.2326 46.8681 48.4713 46.3348 47.634C46.0046 47.1011 45.9285 46.1115 46.1824 45.5533C46.411 45.0458 47.2491 44.5891 47.8586 44.4876C49.103 44.3353 51.6426 46.9489 51.6172 48.6743Z" fill="#2A2968"/>
<path d="M55.3242 23.8074C57.0004 23.8327 59.5908 26.2941 59.4384 27.4867C59.3622 28.1464 58.8797 28.9837 58.321 29.2375C57.7623 29.5166 56.7972 29.3644 56.2385 29.0345C55.4258 28.5524 54.6893 27.8165 54.2068 27.0045C53.8766 26.4463 53.7497 25.5075 54.0036 24.9238C54.2322 24.391 55.0195 24.0357 55.3242 23.8074Z" fill="#2A2968"/>
<path d="M83.3623 46.9741C83.3623 48.1921 82.3211 49.2578 81.102 49.2325C79.9084 49.2071 78.9434 48.2175 78.9434 47.0249C78.9434 45.7815 79.9592 44.7412 81.2036 44.7666C82.3719 44.7666 83.3623 45.7815 83.3623 46.9741Z" fill="#2A2968"/>
<path d="M90.9302 67.3244C89.7366 67.2991 88.7461 66.3095 88.7461 65.1422C88.7461 63.9243 89.7873 62.9093 91.0318 62.9347C92.2254 62.96 93.2158 63.9496 93.2158 65.1169C93.2412 66.3348 92.1746 67.3498 90.9302 67.3244Z" fill="#2A2968"/>
<path d="M95.4009 47.7101C96.5945 47.7354 97.5596 48.6997 97.585 49.8923C97.585 51.1356 96.5691 52.1252 95.2993 52.0998C94.0803 52.0745 93.1406 51.1102 93.1152 49.9176C93.1152 48.6997 94.1311 47.6847 95.4009 47.7101Z" fill="#2A2968"/>
<path d="M43.643 86.203C42.4494 86.2283 41.459 85.2641 41.4082 84.0715C41.3574 82.8028 42.3224 81.7625 43.5669 81.7625C44.7605 81.7371 45.7509 82.7013 45.8017 83.8939C45.8525 85.1372 44.8875 86.1776 43.643 86.203Z" fill="#2A2968"/>
<path d="M43.2627 56.591C43.2627 57.8344 42.2468 58.8747 41.0278 58.824C39.8342 58.7986 38.8945 57.809 38.8945 56.591C38.8945 55.3477 39.9104 54.3074 41.1294 54.3581C42.2976 54.4089 43.2627 55.3985 43.2627 56.591Z" fill="#2A2968"/>
<path d="M33.1035 32.3839C30.2337 29.1106 30.6654 22.6655 34.1193 18.9101C37.878 14.7995 44.1508 14.0636 48.392 17.1339C43.3128 22.1834 38.2081 27.2837 33.1035 32.3839Z" fill="#FFDC55"/>
<path d="M56.6449 62.3256C57.8385 62.351 58.7782 63.3406 58.7528 64.5332C58.7274 65.7258 57.7623 66.7154 56.5941 66.7154C55.3751 66.7154 54.3592 65.6497 54.41 64.4317C54.4608 63.2391 55.4767 62.2749 56.6449 62.3256Z" fill="#2A2968"/>
</svg>
