<svg xmlns="http://www.w3.org/2000/svg" width="53.836" height="67.296" viewBox="0 0 53.836 67.296">
  <g id="heU5Bl.tif" transform="translate(257.713 -236.413) rotate(90)">
    <g id="Group_732" data-name="Group 732" transform="translate(236.413 203.877)">
      <path id="Path_1109" data-name="Path 1109" d="M315.1,203.877c.637.145,1.284.255,1.908.443a9.289,9.289,0,0,1,3.91,2.439q8.724,8.737,17.457,17.464a8.948,8.948,0,0,1,.014,13.163q-8.742,8.765-17.508,17.506a8.968,8.968,0,0,1-14.348-1.73A8.8,8.8,0,0,1,307.67,242.8c3.694-3.826,7.5-7.549,11.254-11.314.2-.2.426-.377.7-.618-.211-.223-.364-.393-.526-.555q-5.48-5.48-10.957-10.961a8.885,8.885,0,0,1-1.392-11.238A8.729,8.729,0,0,1,313.089,204a3.331,3.331,0,0,0,.431-.125ZM326.1,230.806a9.263,9.263,0,0,0-.732.574q-6.9,6.892-13.8,13.794a9.4,9.4,0,0,0-.872.98,4.465,4.465,0,0,0,.724,5.985,4.591,4.591,0,0,0,6.341-.478q8.715-8.7,17.415-17.42a5.956,5.956,0,0,0,.91-1.115,4.477,4.477,0,0,0-.89-5.733q-8.726-8.739-17.465-17.464a7.879,7.879,0,0,0-.691-.6,4.48,4.48,0,0,0-5.655,6.945q6.984,7,13.983,13.978A8.428,8.428,0,0,0,326.1,230.806Z" transform="translate(-273.967 -203.877)" fill="#2a2968"/>
      <path id="Path_1110" data-name="Path 1110" d="M246.137,203.877a33.778,33.778,0,0,1,3.692,1.256,7.9,7.9,0,0,1,2.115,1.632q8.777,8.726,17.511,17.5a8.934,8.934,0,0,1,.035,13.065q-8.779,8.817-17.6,17.6a8.944,8.944,0,0,1-14.7-2.561,20.513,20.513,0,0,1-.781-2.624v-1.971a1.028,1.028,0,0,0,.1-.241,9.393,9.393,0,0,1,2.962-5.554c3.562-3.521,7.09-7.077,10.631-10.619.167-.167.326-.342.514-.54-.185-.2-.343-.371-.51-.537q-5.4-5.406-10.815-10.806a9.3,9.3,0,0,1-2.674-4.718c-.064-.3-.136-.591-.2-.887v-1.971a4.222,4.222,0,0,0,.123-.434,8.669,8.669,0,0,1,5.1-6.7,20.652,20.652,0,0,1,2.922-.883ZM257.154,230.8a9.312,9.312,0,0,0-.737.578q-6.9,6.892-13.8,13.794a9.668,9.668,0,0,0-.828.93,4.448,4.448,0,0,0,.737,6.074,4.586,4.586,0,0,0,6.289-.519q8.715-8.7,17.415-17.42a5.9,5.9,0,0,0,.908-1.117,4.478,4.478,0,0,0-.891-5.732q-8.725-8.739-17.464-17.464a8.092,8.092,0,0,0-.641-.562,4.48,4.48,0,0,0-5.706,6.9q6.984,7,13.983,13.977A8.153,8.153,0,0,0,257.154,230.8Z" transform="translate(-236.413 -203.877)" fill="#2a2968"/>
    </g>
  </g>
</svg>
