<svg width="30" height="50" viewBox="0 0 30 50" fill="none" xmlns="http://www.w3.org/2000/svg">
<path opacity="0.7" d="M20.5581 25.0356L1.79081 6.28556C1.46095 5.95757 1.19919 5.5676 1.02058 5.13808C0.841957 4.70857 0.750004 4.24799 0.750004 3.78281C0.750004 3.31764 0.841957 2.85706 1.02058 2.42754C1.19919 1.99803 1.46095 1.60806 1.79081 1.28006C2.4596 0.620058 3.36143 0.25 4.30106 0.25C5.24068 0.25 6.14251 0.620058 6.81131 1.28006L28.0738 22.5253C28.7168 23.1701 29.0864 24.038 29.1057 24.9484C29.1249 25.8588 28.7924 26.7416 28.1773 27.4131L6.82556 48.8091C6.16179 49.4748 5.26073 49.8496 4.32061 49.851C3.38049 49.8525 2.47832 49.4803 1.81256 48.8166C1.1468 48.1528 0.771986 47.2517 0.77058 46.3116C0.769173 45.3715 1.14129 44.4693 1.80506 43.8036L20.5581 25.0356Z" fill="#2A2968"/>
</svg>
