<svg xmlns="http://www.w3.org/2000/svg" width="59.776" height="59.793" viewBox="0 0 59.776 59.793">
  <g id="VJm7tL.tif" transform="translate(-248.754 183.358)">
    <path id="Path_473" data-name="Path 473" d="M308.28-170.7a7.257,7.257,0,0,1-2.806,4.368,6.212,6.212,0,0,1-7.482.115c-.877.876-1.768,1.75-2.629,2.653-.088.093-.032.377.028.548.4,1.123.851,2.228,1.217,3.361a1.082,1.082,0,0,1-.73,1.333,1.148,1.148,0,0,1-1.436-.654,6.778,6.778,0,0,1-.235-.713,15.218,15.218,0,0,0-2.646-5.1,15.065,15.065,0,0,0-9.978-5.628,16.441,16.441,0,0,0-14.848,5,16.289,16.289,0,0,0-4.3,9.291,13.722,13.722,0,0,0,.013,5.632,18.518,18.518,0,0,0,1.444,3.443,12.3,12.3,0,0,1,1.494,4.221c.044.4.056.808.073,1.212.037.865.385,1.2,1.265,1.218.424.007.85,0,1.273.03a2.178,2.178,0,0,1,2.108,1.741,5.54,5.54,0,0,0,.5,1.277c.585.977.98,1.143,2.252,1.042,0-.656,0-1.321,0-1.987,0-.251-.014-.5.009-.752a1.157,1.157,0,0,1,1.143-1.087,1.134,1.134,0,0,1,1.154,1.129c.025.883.006,1.768.006,2.694h2.316v-1.922c0-.232-.006-.464,0-.695a1.161,1.161,0,0,1,1.141-1.207,1.151,1.151,0,0,1,1.165,1.182c.02.865,0,1.731,0,2.64h2.314c0-.809,0-1.6,0-2.382,0-.906.42-1.432,1.139-1.44.734-.009,1.174.538,1.176,1.469,0,.769,0,1.538,0,2.3,1.422.348,2.256-.383,2.59-1.745a2.57,2.57,0,0,1,3-2.286c.173,0,.347,0,.521,0,.918-.011,1.276-.34,1.28-1.252a10.63,10.63,0,0,1,1.276-4.931c.489-.938.937-1.9,1.4-2.851a1.153,1.153,0,0,1,1.529-.643,1.115,1.115,0,0,1,.6,1.5c-.48,1.091-1.018,2.159-1.551,3.226-.582,1.168-.587,1.158.326,2.072.858.858,1.7,1.727,2.586,2.622a5.8,5.8,0,0,1,3.456-1.228,7.023,7.023,0,0,1,6.724,5.249c.033.148.082.292.123.437v1.505a1.911,1.911,0,0,0-.1.269,6.36,6.36,0,0,1-4.885,5.2.787.787,0,0,0-.441.489,6.367,6.367,0,0,1-3.865,4.449,15.148,15.148,0,0,1-1.595.474h-1.505a1.3,1.3,0,0,0-.212-.088A6.8,6.8,0,0,1,290.4-129a5.525,5.525,0,0,1,.952-5.024l-2.449-2.444a1.083,1.083,0,0,0-.142.181,4.406,4.406,0,0,1-4.416,2.351c-2.351-.056-4.7-.009-7.056-.015-1.793,0-3.587.009-5.378-.045a3.6,3.6,0,0,1-2.929-1.612c-.209-.294-.411-.594-.569-.823L265.951-134a6.185,6.185,0,0,1-.125,7.289,7.274,7.274,0,0,1-4.436,2.9h-1.5a1.163,1.163,0,0,0-.211-.088,6.364,6.364,0,0,1-5.265-4.9.85.85,0,0,0-.55-.446,6.472,6.472,0,0,1-4.854-6.061,6.8,6.8,0,0,1,4.953-6.338,5.877,5.877,0,0,1,5.356.967c1.069-1.079,2.135-2.138,3.172-3.226a.666.666,0,0,0,.057-.6c-.33-.716-.7-1.418-1.075-2.109A11.252,11.252,0,0,1,260-150.9a21.764,21.764,0,0,1,2.126-11.908c.064-.131.114-.27.123-.29l-3.03-3.057a6.115,6.115,0,0,1-6.919.15c-2.18-1.464-3.586-3.4-3.235-6.142a6.229,6.229,0,0,1,4.942-5.538.859.859,0,0,0,.431-.564,6.477,6.477,0,0,1,6.77-4.818,6.988,6.988,0,0,1,5.861,6.375,5.681,5.681,0,0,1-1.23,3.912c.512.493.994.936,1.453,1.4s.886.951,1.272,1.368c6.829-3.816,13.545-3.962,20.211-.35l2.549-2.546a6.093,6.093,0,0,1-.088-6.951c1.488-2.161,3.434-3.54,6.177-3.158a6.231,6.231,0,0,1,5.452,4.895.782.782,0,0,0,.48.451,6.266,6.266,0,0,1,4.213,3.342,15.584,15.584,0,0,1,.721,2.121ZM266.7-168.715c-1.006-1-2.031-2.022-3.053-3.045-.777-.778-.775-1.354.016-2.109a3.116,3.116,0,0,0,1-1.648,4.256,4.256,0,0,0-1.69-4.336,3.7,3.7,0,0,0-5.009.106,4.261,4.261,0,0,0-1.409,3.064,1.1,1.1,0,0,1-1.128,1.149c-.191.022-.384.035-.575.064a3.958,3.958,0,0,0-3.266,2.607,3.526,3.526,0,0,0,.834,3.945,7.654,7.654,0,0,0,1.252,1.015,3.632,3.632,0,0,0,4.631-.594,1.164,1.164,0,0,1,1.937-.045c.249.242.492.49.737.736l2.517,2.529Zm27.339,3.178c.951-.953,1.94-1.948,2.935-2.939.746-.744,1.294-.692,2.084.012a4.3,4.3,0,0,0,1.636,1,4.066,4.066,0,0,0,4.3-1.591,3.714,3.714,0,0,0-.082-5.1,4.238,4.238,0,0,0-3.018-1.379c-.767-.05-1.088-.4-1.173-1.167-.021-.191-.04-.383-.065-.575a4.033,4.033,0,0,0-4.224-3.478,4.432,4.432,0,0,0-3.531,2.665,3.646,3.646,0,0,0,.724,4.244c.817.676.786,1.311.04,2.06-.951.955-1.909,1.9-2.819,2.811Zm-3.324,27.488c1.04,1.031,1.983,1.963,2.923,2.9.775.775.729,1.314,0,2.124a4.1,4.1,0,0,0-.972,1.584,4.319,4.319,0,0,0,2.105,4.728,3.41,3.41,0,0,0,3.042.391,3.963,3.963,0,0,0,2.859-3.434c.192-1.416.254-1.493,1.692-1.673.058-.007.116-.011.172-.022a3.981,3.981,0,0,0,3.158-2.582,3.37,3.37,0,0,0-.714-3.8,6.346,6.346,0,0,0-2.138-1.506,3.187,3.187,0,0,0-3.548.629c-1.186,1.135-1.463,1.133-2.642-.044q-1.043-1.042-2.087-2.084c-.115-.115-.243-.217-.411-.365A3.479,3.479,0,0,1,290.714-138.049Zm-27.6-3.2c-.945.951-1.824,1.84-2.707,2.724s-1.356.831-2.246.015a3.855,3.855,0,0,0-1.546-.924,4.151,4.151,0,0,0-4.484,1.8,3.474,3.474,0,0,0-.379,3.957,4.065,4.065,0,0,0,3.609,2.31c.806.057,1.124.4,1.209,1.194.024.23.042.462.078.689a3.967,3.967,0,0,0,5.389,3.029,4.581,4.581,0,0,0,2.6-3.078,3.291,3.291,0,0,0-.909-3.446c-.891-.832-.879-1.362-.015-2.226.923-.923,1.848-1.844,2.838-2.832A3.512,3.512,0,0,1,263.11-141.253Z" fill="#2a2968" stroke="#25235a" stroke-width="0.5"/>
    <path id="Path_474" data-name="Path 474" d="M279.06-138.2a5.663,5.663,0,0,1-5.537-6.673,3.334,3.334,0,0,1,3.371-2.824q2-.012,3.993,0a3.673,3.673,0,0,1,3.856,4.014A5.691,5.691,0,0,1,279.06-138.2Zm-.083-7.182c-.617,0-1.234,0-1.852,0-.9,0-1.293.31-1.371,1.194a3.186,3.186,0,0,0,1.457,3.083,3.144,3.144,0,0,0,3.549.121,3.189,3.189,0,0,0,1.661-2.978,1.341,1.341,0,0,0-1.475-1.419C280.289-145.392,279.633-145.386,278.977-145.386Z" transform="translate(-7.967 -11.55)" fill="#2a2968" stroke="#25235a" stroke-width="0.5"/>
    <path id="Path_475" data-name="Path 475" d="M301.406-138.2a5.665,5.665,0,0,1-5.539-6.722,3.332,3.332,0,0,1,3.356-2.774q2-.013,3.992,0a3.677,3.677,0,0,1,3.863,4.063A5.691,5.691,0,0,1,301.406-138.2Zm-.077-7.182c-.637,0-1.273,0-1.909,0-.844,0-1.221.291-1.317,1.122a3.168,3.168,0,0,0,1.433,3.146,3.138,3.138,0,0,0,3.548.137,3.184,3.184,0,0,0,1.672-3.028,1.326,1.326,0,0,0-1.458-1.376C302.641-145.392,301.985-145.385,301.329-145.385Z" transform="translate(-15.253 -11.55)" fill="#2a2968" stroke="#25235a" stroke-width="0.5"/>
    <path id="Path_476" data-name="Path 476" d="M291.1-127.291c-.693,0-1.388.028-2.079-.006a2.005,2.005,0,0,1-1.936-2.635,4.208,4.208,0,0,1,.473-1.1q.98-1.6,2.019-3.161c.907-1.364,2.13-1.368,3.039-.006q1.056,1.585,2.048,3.211a4.018,4.018,0,0,1,.444,1.056,2,2,0,0,1-1.93,2.64C292.489-127.263,291.795-127.291,291.1-127.291Zm0-5-1.691,2.642h3.383Z" transform="translate(-12.397 -15.622)" fill="#2a2968" stroke="#25235a" stroke-width="0.5"/>
    <path id="Path_477" data-name="Path 477" d="M318.584-139.642a1.142,1.142,0,0,1-1.174-1.152,1.167,1.167,0,0,1,1.139-1.141,1.155,1.155,0,0,1,1.169,1.162A1.136,1.136,0,0,1,318.584-139.642Z" transform="translate(-22.318 -13.432)" fill="#2a2968" stroke="#25235a" stroke-width="0.5"/>
    <path id="Path_478" data-name="Path 478" d="M267.814-167.588l-3.2,3.437-2.517-2.529c-.245-.246-.488-.494-.737-.736a1.164,1.164,0,0,0-1.937.045,3.632,3.632,0,0,1-4.631.594,7.656,7.656,0,0,1-1.252-1.015,3.526,3.526,0,0,1-.834-3.945,3.958,3.958,0,0,1,3.266-2.607c.191-.029.383-.042.575-.064a1.1,1.1,0,0,0,1.128-1.149,4.261,4.261,0,0,1,1.409-3.064,3.7,3.7,0,0,1,5.008-.106,4.256,4.256,0,0,1,1.69,4.336,3.116,3.116,0,0,1-1,1.648c-.791.755-.793,1.331-.015,2.109C265.783-169.61,266.808-168.59,267.814-167.588Z" transform="translate(-1.115 -1.127)" fill="#ffdc55"/>
    <path id="Path_479" data-name="Path 479" d="M314.3-164.406l-3.195-3.439c.91-.907,1.868-1.856,2.819-2.811.746-.749.777-1.383-.04-2.06a3.646,3.646,0,0,1-.724-4.244,4.432,4.432,0,0,1,3.531-2.665,4.033,4.033,0,0,1,4.224,3.478c.025.191.044.383.065.575.085.768.406,1.117,1.173,1.167a4.238,4.238,0,0,1,3.018,1.379,3.714,3.714,0,0,1,.082,5.1,4.066,4.066,0,0,1-4.3,1.591,4.305,4.305,0,0,1-1.636-1c-.79-.7-1.337-.757-2.084-.012C316.239-166.354,315.249-165.359,314.3-164.406Z" transform="translate(-20.261 -1.131)" fill="#ffdc55"/>
    <path id="Path_480" data-name="Path 480" d="M310.912-117.758a3.478,3.478,0,0,0,3.437-3.156c.168.148.3.251.411.365q1.046,1.04,2.087,2.084c1.178,1.177,1.455,1.178,2.642.044a3.187,3.187,0,0,1,3.548-.629,6.345,6.345,0,0,1,2.138,1.506,3.37,3.37,0,0,1,.714,3.8,3.981,3.981,0,0,1-3.158,2.582c-.057.01-.115.015-.172.022-1.438.18-1.5.257-1.692,1.673a3.963,3.963,0,0,1-2.859,3.434,3.41,3.41,0,0,1-3.042-.391,4.319,4.319,0,0,1-2.105-4.728,4.094,4.094,0,0,1,.972-1.584c.733-.81.78-1.349,0-2.124C312.9-115.795,311.952-116.727,310.912-117.758Z" transform="translate(-20.198 -20.291)" fill="#ffdc55"/>
    <path id="Path_481" data-name="Path 481" d="M264.223-120.986a3.512,3.512,0,0,0,3.437,3.208c-.99.988-1.915,1.909-2.838,2.832-.864.864-.876,1.394.015,2.226a3.291,3.291,0,0,1,.909,3.446,4.581,4.581,0,0,1-2.6,3.078,3.967,3.967,0,0,1-5.389-3.029c-.036-.228-.054-.459-.078-.689-.084-.8-.4-1.137-1.209-1.194a4.065,4.065,0,0,1-3.609-2.31,3.474,3.474,0,0,1,.379-3.957,4.151,4.151,0,0,1,4.484-1.8,3.855,3.855,0,0,1,1.546.924c.89.817,1.378.854,2.246-.015S263.278-120.035,264.223-120.986Z" transform="translate(-1.113 -20.268)" fill="#ffdc55"/>
  </g>
</svg>
