<svg xmlns="http://www.w3.org/2000/svg" width="25.519" height="25.509" viewBox="0 0 25.519 25.509">
  <g id="link" transform="translate(0)">
    <path id="Path_729" data-name="Path 729" d="M-394.883-42.229c.1-.461.171-.929.3-1.38a6.454,6.454,0,0,1,1.706-2.765q1.958-1.951,3.91-3.909a6.652,6.652,0,0,1,2.544-1.649.449.449,0,0,0,.315-.308,6.541,6.541,0,0,1,1.645-2.547c1.418-1.411,2.8-2.866,4.261-4.225a6.448,6.448,0,0,1,10.547,2.942,6.292,6.292,0,0,1-1.693,6.477c-1.329,1.359-2.683,2.693-4.031,4.034A6.361,6.361,0,0,1-377.8-44a.519.519,0,0,0-.365.355,6.043,6.043,0,0,1-1.467,2.341c-1.45,1.461-2.9,2.924-4.375,4.358a6.168,6.168,0,0,1-3.658,1.694,1.58,1.58,0,0,0-.19.047h-1.1a2.051,2.051,0,0,0-.215-.049,6.459,6.459,0,0,1-5.522-4.909c-.077-.32-.129-.647-.192-.971Zm13.106-9.6a6.55,6.55,0,0,1,2.112,1.406,6.726,6.726,0,0,1,1.41,2.1c.088-.084.149-.139.207-.2l3.857-3.857c.065-.065.128-.13.189-.2a2.49,2.49,0,0,0-1.02-4,2.471,2.471,0,0,0-2.234.283.5.5,0,0,1-.757-.129.506.506,0,0,1,.236-.715,3.373,3.373,0,0,1,2.856-.451,3.473,3.473,0,0,1,1.514,5.83q-2.024,2.079-4.111,4.1a.959.959,0,0,0-.331.951,12.557,12.557,0,0,1,.017,1.642c.1-.039.155-.056.206-.08a5.471,5.471,0,0,0,1.53-1.1q2.035-2.033,4.069-4.068a5.5,5.5,0,0,0,1.5-2.625,5.477,5.477,0,0,0-2.45-5.963,5.448,5.448,0,0,0-6.771.82q-2.069,2.035-4.1,4.1a5.457,5.457,0,0,0-.106,7.694,5.185,5.185,0,0,0,2.03,1.333,2.34,2.34,0,0,0,.166-1.059,2.8,2.8,0,0,0-.863-1.77,3.446,3.446,0,0,1,.02-4.61c.568-.616,1.176-1.195,1.767-1.79a.84.84,0,0,1,.135-.109.48.48,0,0,1,.616.051.471.471,0,0,1,.067.613,1.589,1.589,0,0,1-.209.245C-380.734-52.871-381.238-52.367-381.777-51.828Zm-.542.861a1,1,0,0,0-.057.122,2.575,2.575,0,0,0,.661,2.611,3.444,3.444,0,0,1-.1,4.886q-2.036,2.068-4.1,4.1a3.4,3.4,0,0,1-2.974,1.005,3.484,3.484,0,0,1-2.349-5.465,2.554,2.554,0,0,1,.251-.308q2.237-2.237,4.482-4.464a.439.439,0,0,0,.144-.406c-.047-.544-.07-1.09-.1-1.635-.006-.1,0-.2,0-.327a5.393,5.393,0,0,0-1.692,1.166q-2.036,2.032-4.069,4.068a5.5,5.5,0,0,0-1.5,2.623,5.48,5.48,0,0,0,2.466,5.979,5.451,5.451,0,0,0,6.751-.829q2.07-2.033,4.1-4.1a5.457,5.457,0,0,0,.11-7.695A5.2,5.2,0,0,0-382.319-50.966Zm-3.663,3.413c-1.46,1.441-2.927,2.836-4.33,4.293a2.422,2.422,0,0,0-.106,3.04,2.49,2.49,0,0,0,3.792.276c1.341-1.322,2.665-2.661,4-3.993a1.9,1.9,0,0,0,.125-.156A6.527,6.527,0,0,1-385.981-47.553Z" transform="translate(394.883 60.712)" fill="#2a2968"/>
    <path id="Path_730" data-name="Path 730" d="M-311.566,22.037a.5.5,0,0,1-.727.506.7.7,0,0,1-.159-.118c-.681-.678-1.364-1.355-2.039-2.039a.5.5,0,0,1-.036-.732.5.5,0,0,1,.733.026q1.037,1.02,2.055,2.059A1.159,1.159,0,0,1-311.566,22.037Z" transform="translate(333.271 -0.904)" fill="#2a2968"/>
    <path id="Path_731" data-name="Path 731" d="M-375.826-41.128a2.428,2.428,0,0,1-.436-.266q-1.014-.994-2.009-2.007a.5.5,0,0,1-.042-.752.5.5,0,0,1,.733.042q1.03,1.014,2.045,2.042a.461.461,0,0,1,.115.588A1.849,1.849,0,0,1-375.826-41.128Z" transform="translate(382.27 48.1)" fill="#2a2968"/>
    <path id="Path_732" data-name="Path 732" d="M-305.471,9.675c-.456,0-.913,0-1.369,0-.359,0-.592-.208-.587-.5a.513.513,0,0,1,.576-.489q1.407-.006,2.814,0c.36,0,.593.207.587.5s-.238.488-.6.491C-304.525,9.678-305,9.675-305.471,9.675Z" transform="translate(327.708 7.413)" fill="#2a2968"/>
    <path id="Path_733" data-name="Path 733" d="M-324.5,28.737c0,.465,0,.93,0,1.395,0,.359-.205.593-.5.591s-.492-.234-.493-.6q0-1.394,0-2.789c0-.362.2-.593.5-.59s.492.234.494.6C-324.493,27.807-324.5,28.272-324.5,28.737Z" transform="translate(341.584 -6.464)" fill="#2a2968"/>
    <path id="Path_734" data-name="Path 734" d="M-357.8-53.324c0,.465,0,.93,0,1.394,0,.362-.2.593-.5.589s-.492-.235-.492-.6q0-1.394,0-2.789c0-.359.207-.593.5-.589s.489.235.492.6C-357.794-54.254-357.8-53.789-357.8-53.324Z" transform="translate(367.163 56.569)" fill="#2a2968"/>
    <path id="Path_735" data-name="Path 735" d="M-386.852-24.62c.465,0,.929,0,1.394,0,.361,0,.592.2.59.5s-.232.492-.6.493q-1.394,0-2.788,0c-.362,0-.594-.2-.591-.5s.236-.491.6-.494C-387.782-24.623-387.317-24.62-386.852-24.62Z" transform="translate(390.245 32.991)" fill="#2a2968"/>
    <path id="Path_736" data-name="Path 736" d="M-349-50.937a.48.48,0,0,0-.616-.051.834.834,0,0,0-.135.109c-.591.595-1.2,1.174-1.768,1.79a3.446,3.446,0,0,0-.02,4.61,2.8,2.8,0,0,1,.863,1.77,2.34,2.34,0,0,1-.166,1.059,5.185,5.185,0,0,1-2.03-1.333,5.457,5.457,0,0,1,.106-7.694q2.034-2.069,4.1-4.1a5.448,5.448,0,0,1,6.771-.82,5.477,5.477,0,0,1,2.45,5.963,5.5,5.5,0,0,1-1.5,2.625q-2.034,2.034-4.069,4.068a5.47,5.47,0,0,1-1.53,1.1c-.05.024-.1.04-.206.08a12.568,12.568,0,0,0-.017-1.642.959.959,0,0,1,.331-.951q2.091-2.012,4.111-4.1a3.473,3.473,0,0,0-1.514-5.83,3.373,3.373,0,0,0-2.856.451c-.094.061-.247.581-.585,1.047C-347.882-51.949-348.881-50.824-349-50.937Zm1.554-1.049a.486.486,0,0,0-.48-.5.5.5,0,0,0-.5.484.509.509,0,0,0,.486.5A.5.5,0,0,0-347.443-51.986Z" transform="translate(363.791 57.416)" fill="#ffdc55"/>
    <path id="Path_737" data-name="Path 737" d="M-379-18.683a5.2,5.2,0,0,1,2.025,1.333,5.457,5.457,0,0,1-.11,7.695q-2.035,2.069-4.1,4.1a5.451,5.451,0,0,1-6.751.829A5.48,5.48,0,0,1-390.4-10.7a5.5,5.5,0,0,1,1.5-2.623q2.034-2.034,4.069-4.068a5.392,5.392,0,0,1,1.692-1.166c0,.123,0,.225,0,.327.03.545.053,1.091.1,1.635a.44.44,0,0,1-.144.406q-2.25,2.223-4.482,4.464a2.557,2.557,0,0,0-.251.308,3.484,3.484,0,0,0,2.349,5.465A3.4,3.4,0,0,0-382.6-6.959q2.063-2.041,4.1-4.1a3.444,3.444,0,0,0,.1-4.886,2.574,2.574,0,0,1-.661-2.611A.99.99,0,0,1-379-18.683Z" transform="translate(391.563 28.429)" fill="#ffdc55"/>
    <path id="Path_738" data-name="Path 738" d="M-327.634-38.952a.5.5,0,0,1-.495.488.509.509,0,0,1-.486-.5.5.5,0,0,1,.5-.484A.486.486,0,0,1-327.634-38.952Z" transform="translate(343.982 44.382)" fill="#2a2968"/>
  </g>
</svg>
