<svg width="16" height="20" viewBox="0 0 16 20" fill="none" xmlns="http://www.w3.org/2000/svg">
<path d="M13.992 19.0208C13.8295 18.9751 13.6699 18.9197 13.514 18.8548C13.2682 18.7375 13.0572 18.5583 12.9015 18.3348C12.7459 18.1113 12.6509 17.8512 12.626 17.58C12.6011 17.3088 12.6471 17.0358 12.7595 16.7877C12.8718 16.5396 13.0467 16.325 13.267 16.1648C13.3157 16.1351 13.3551 16.0924 13.3809 16.0416C13.4067 15.9907 13.4178 15.9337 13.413 15.8768C13.403 15.4018 13.42 14.9258 13.398 14.4518C13.3857 14.2152 13.2969 13.9891 13.1448 13.8074C12.9927 13.6258 12.7857 13.4985 12.555 13.4448C12.3289 13.3869 12.0904 13.4008 11.8725 13.4844C11.6547 13.5681 11.4682 13.7175 11.339 13.9118C11.2065 14.1145 11.1388 14.3527 11.145 14.5948C11.145 15.0698 11.145 15.5458 11.145 16.0208C11.1519 16.3975 11.0801 16.7715 10.9343 17.1189C10.7885 17.4663 10.5718 17.7795 10.2982 18.0384C10.0245 18.2974 9.6999 18.4965 9.345 18.6229C8.9901 18.7493 8.61274 18.8004 8.237 18.7728C7.56302 18.7235 6.93162 18.4248 6.46603 17.935C6.00045 17.4452 5.7341 16.7994 5.71899 16.1238C5.70799 14.9678 5.71899 13.8118 5.71899 12.6558C5.71899 12.5128 5.69601 12.4508 5.53101 12.4208C4.35598 12.21 3.28144 11.6226 2.46965 10.7473C1.65786 9.87203 1.15289 8.75637 1.03101 7.56882C1.02349 7.52289 1.01313 7.47747 1 7.43282V6.83282C1.07789 6.5914 1.24637 6.38958 1.47 6.26982C1.507 6.25182 1.526 6.16382 1.526 6.10882C1.526 5.34582 1.526 4.58282 1.526 3.81982C1.50199 3.38191 1.6226 2.94824 1.86925 2.58559C2.11589 2.22294 2.4749 1.95141 2.89101 1.81282C2.94491 1.78635 2.98699 1.7407 3.009 1.68482C3.07467 1.47548 3.20735 1.29354 3.38661 1.16705C3.56587 1.04055 3.78177 0.97652 4.00101 0.984822C4.17101 0.984822 4.34199 0.984822 4.51199 0.984822C4.76724 0.992065 5.00972 1.09805 5.1884 1.28046C5.36708 1.46287 5.46803 1.70749 5.47 1.96282C5.47139 2.22118 5.37142 2.46979 5.19156 2.65526C5.0117 2.84073 4.76627 2.94828 4.508 2.95482C4.379 2.95482 4.25 2.95482 4.121 2.95482C3.89778 2.984 3.67114 2.93953 3.47549 2.82817C3.27985 2.71682 3.12589 2.54465 3.037 2.33782C2.75889 2.42564 2.51513 2.59813 2.3398 2.83119C2.16446 3.06426 2.0663 3.34626 2.05901 3.63782C2.04701 4.47082 2.05301 5.30482 2.05901 6.13782C2.06393 6.1688 2.07539 6.19838 2.09264 6.22459C2.10988 6.2508 2.13249 6.27303 2.159 6.28982C2.28663 6.35848 2.39321 6.46052 2.46736 6.58504C2.54151 6.70957 2.58045 6.85189 2.58 6.99682C2.58523 7.75837 2.80873 8.50244 3.224 9.14082C3.24917 9.1691 3.26817 9.20232 3.27977 9.23835C3.29137 9.27439 3.29532 9.31245 3.29137 9.3501C3.28741 9.38775 3.27564 9.42416 3.25681 9.457C3.23797 9.48985 3.21251 9.51839 3.18201 9.54082C3.04601 9.63382 2.893 9.59182 2.782 9.42182C2.33737 8.74708 2.08626 7.96333 2.056 7.15582C2.056 7.11482 2.056 7.07382 2.056 7.03282C2.048 6.84582 1.93899 6.72082 1.78799 6.72382C1.7497 6.72578 1.71225 6.73572 1.67802 6.75301C1.6438 6.77029 1.61357 6.79455 1.58928 6.82421C1.56498 6.85388 1.54715 6.88829 1.53694 6.92525C1.52673 6.96221 1.52437 7.00089 1.53 7.03882C1.52883 7.79925 1.71098 8.54875 2.061 9.22382C2.42159 9.95311 2.95751 10.5815 3.62071 11.0528C4.28391 11.524 5.05368 11.8233 5.86101 11.9238C5.91734 11.9236 5.97304 11.9356 6.02429 11.959C6.07555 11.9823 6.12112 12.0165 6.1579 12.0592C6.19467 12.1019 6.22178 12.152 6.23734 12.2061C6.25289 12.2603 6.25652 12.3171 6.248 12.3728C6.248 13.0362 6.248 13.6995 6.248 14.3628C6.248 14.4098 6.248 14.4568 6.248 14.5038C6.24798 14.575 6.27578 14.6434 6.32547 14.6944C6.37516 14.7454 6.44282 14.775 6.51401 14.7768C6.54942 14.7761 6.58431 14.7682 6.61664 14.7537C6.64897 14.7393 6.67806 14.7184 6.70221 14.6925C6.72636 14.6666 6.74506 14.6361 6.75722 14.6028C6.76938 14.5696 6.77474 14.5342 6.77299 14.4988C6.778 14.2168 6.77299 13.9358 6.77299 13.6538C6.77299 13.2198 6.77299 12.7848 6.77299 12.3538C6.76667 12.3009 6.77158 12.2472 6.78738 12.1962C6.80319 12.1453 6.82953 12.0982 6.86472 12.0581C6.8999 12.018 6.94313 11.9858 6.99159 11.9635C7.04005 11.9413 7.09266 11.9294 7.146 11.9288C8.19011 11.7962 9.1651 11.3353 9.93024 10.6125C10.6954 9.88982 11.2111 8.94269 11.403 7.90782C11.4495 7.636 11.4779 7.3614 11.488 7.08582C11.502 6.85582 11.396 6.72282 11.227 6.72282C11.058 6.72282 10.969 6.85382 10.962 7.07182C10.9526 7.69907 10.8091 8.31704 10.5413 8.8843C10.2734 9.45156 9.88736 9.95499 9.409 10.3608C8.62681 11.0356 7.63401 11.4167 6.60126 11.4388C5.5685 11.4609 4.56031 11.1225 3.75 10.4818C3.59 10.3538 3.55001 10.2198 3.62401 10.0908C3.71601 9.93582 3.886 9.91782 4.062 10.0568C4.48629 10.3927 4.97454 10.6387 5.49699 10.7798C6.04135 10.9245 6.61045 10.9503 7.16566 10.8556C7.72088 10.7609 8.24923 10.5479 8.71486 10.2309C9.18049 9.91405 9.57251 9.50069 9.8643 9.01893C10.1561 8.53717 10.3408 7.99828 10.406 7.43882C10.422 7.29282 10.429 7.14682 10.436 6.99982C10.4354 6.85579 10.4743 6.71436 10.5486 6.59093C10.6228 6.4675 10.7295 6.36681 10.857 6.29982C10.8933 6.28407 10.9235 6.2569 10.943 6.22243C10.9625 6.18796 10.9702 6.14807 10.965 6.10882C10.965 5.29882 10.965 4.48882 10.965 3.67882C10.9635 3.38006 10.8683 3.08931 10.6929 2.84749C10.5174 2.60567 10.2705 2.42497 9.987 2.33082C9.89397 2.54549 9.73209 2.72306 9.52693 2.83551C9.32177 2.94796 9.08501 2.98889 8.854 2.95182C8.67277 2.9529 8.49167 2.94154 8.312 2.91782C8.07738 2.86619 7.8702 2.72951 7.73041 2.53413C7.59062 2.33876 7.52814 2.09855 7.55501 1.85982C7.58185 1.62444 7.69212 1.40646 7.86584 1.24539C8.03957 1.08432 8.26526 0.990816 8.502 0.981823C8.684 0.975823 8.866 0.981823 9.048 0.981823C9.25806 0.979666 9.46346 1.04371 9.63506 1.16487C9.80666 1.28603 9.93574 1.45816 10.004 1.65682C10.0334 1.72714 10.0885 1.78363 10.158 1.81482C10.5569 1.95596 10.901 2.21957 11.1411 2.56799C11.3812 2.9164 11.5051 3.3318 11.495 3.75482C11.495 4.52949 11.495 5.30416 11.495 6.07882C11.4884 6.12613 11.4973 6.17431 11.5204 6.21613C11.5434 6.25796 11.5795 6.29118 11.623 6.31082C11.7522 6.38211 11.8584 6.48871 11.9293 6.61817C12.0001 6.74762 12.0326 6.89457 12.023 7.04182C12.0125 8.15203 11.6667 9.23314 11.0308 10.1433C10.395 11.0534 9.49885 11.7501 8.46001 12.1418C8.09301 12.2758 7.709 12.3628 7.312 12.4778C7.30709 12.4958 7.3044 12.5142 7.304 12.5328C7.304 13.7128 7.298 14.8918 7.304 16.0718C7.29985 16.2795 7.35664 16.4839 7.46736 16.6596C7.57808 16.8354 7.73788 16.9749 7.927 17.0608C8.10674 17.158 8.3105 17.2017 8.51427 17.1868C8.71803 17.1719 8.91329 17.0991 9.077 16.9768C9.22346 16.8822 9.344 16.7526 9.42764 16.5996C9.51129 16.4466 9.55541 16.2752 9.556 16.1008C9.565 15.6008 9.556 15.0908 9.556 14.5868C9.54111 13.9253 9.76885 13.2812 10.1962 12.7761C10.6236 12.2709 11.2211 11.9397 11.876 11.8448C12.425 11.7534 12.9889 11.8425 13.483 12.0988C13.665 12.1908 13.732 12.3328 13.663 12.4778C13.594 12.6228 13.442 12.6578 13.256 12.5778C12.8883 12.3873 12.4732 12.308 12.0612 12.3495C11.6492 12.3911 11.2582 12.5517 10.936 12.8118C10.6684 13.0109 10.4519 13.2706 10.3041 13.5696C10.1563 13.8686 10.0816 14.1983 10.086 14.5318C10.077 15.0538 10.091 15.5768 10.08 16.0988C10.072 16.4923 9.92339 16.87 9.6611 17.1635C9.39881 17.4569 9.04014 17.6468 8.64999 17.6988C8.26856 17.7509 7.88094 17.6679 7.55423 17.4643C7.22752 17.2606 6.9823 16.9492 6.86101 16.5838C6.80744 16.3983 6.77753 16.2068 6.772 16.0138C6.757 15.7748 6.772 15.5338 6.772 15.2988H6.254C6.13157 16.0306 6.29248 16.7815 6.70399 17.3988C6.98154 17.7513 7.35996 18.0107 7.78876 18.1426C8.21756 18.2745 8.67638 18.2724 9.104 18.1368C9.53074 17.9992 9.90463 17.7333 10.1747 17.3754C10.4447 17.0175 10.5978 16.5849 10.613 16.1368C10.623 15.6088 10.606 15.0798 10.619 14.5518C10.6092 14.2228 10.7011 13.8987 10.8822 13.6239C11.0633 13.349 11.3248 13.1366 11.631 13.0158C11.9243 12.8794 12.2524 12.8364 12.5709 12.8926C12.8894 12.9488 13.183 13.1014 13.412 13.3298C13.588 13.4913 13.7264 13.6894 13.8175 13.9103C13.9086 14.1311 13.95 14.3692 13.939 14.6078C13.939 15.0168 13.939 15.4268 13.939 15.8468H14.439C14.445 15.8328 14.458 15.8178 14.458 15.8018C14.458 15.2918 14.463 14.7808 14.441 14.2708C14.4152 13.9532 14.3093 13.6473 14.133 13.3818C14.028 13.2078 14.054 13.0508 14.194 12.9688C14.334 12.8868 14.476 12.9378 14.587 13.1148C14.8649 13.5675 15.0059 14.0908 14.993 14.6218C14.993 15.0558 14.993 15.4908 14.993 15.9218C14.9955 15.9601 15.0057 15.9975 15.0229 16.0319C15.04 16.0662 15.0639 16.0968 15.093 16.1218C15.3578 16.2967 15.5618 16.5494 15.677 16.8451C15.7921 17.1408 15.8128 17.4649 15.736 17.7728C15.6768 18.0815 15.5234 18.3642 15.2968 18.582C15.0703 18.7997 14.7817 18.9419 14.471 18.9888C14.4489 18.9957 14.4274 19.0048 14.407 19.0158L13.992 19.0208ZM15.259 17.4418C15.2598 17.1627 15.1504 16.8945 14.9545 16.6956C14.7586 16.4967 14.4921 16.3832 14.213 16.3798C13.9339 16.3777 13.6653 16.4859 13.4657 16.6808C13.266 16.8758 13.1515 17.1418 13.147 17.4208C13.1454 17.5605 13.1715 17.6991 13.2237 17.8286C13.2759 17.9582 13.3532 18.0761 13.4511 18.1756C13.5491 18.2752 13.6658 18.3544 13.7945 18.4086C13.9232 18.4629 14.0613 18.4912 14.201 18.4918C14.4806 18.4916 14.7487 18.3809 14.9471 18.1838C15.1454 17.9868 15.2579 17.7194 15.26 17.4398L15.259 17.4418ZM4.211 1.51882C4.117 1.51882 4.023 1.51282 3.929 1.51882C3.81355 1.52513 3.70478 1.57497 3.62462 1.65829C3.54445 1.74161 3.49885 1.85222 3.49699 1.96782C3.49467 2.08363 3.537 2.19589 3.61519 2.28134C3.69338 2.36679 3.80145 2.41888 3.91701 2.42682C4.11682 2.43908 4.31719 2.43908 4.517 2.42682C4.63256 2.41964 4.74094 2.36829 4.81969 2.28341C4.89843 2.19852 4.94151 2.0866 4.94 1.97082C4.93895 1.85518 4.89409 1.74424 4.81448 1.66036C4.73487 1.57648 4.62643 1.5259 4.511 1.51882C4.412 1.51282 4.31201 1.51982 4.21201 1.51882H4.211ZM8.789 2.43082C8.883 2.43082 8.977 2.43082 9.071 2.43082C9.18969 2.42798 9.30264 2.37915 9.38603 2.29464C9.46942 2.21013 9.51674 2.09654 9.51801 1.97782C9.5191 1.85904 9.47348 1.74458 9.39099 1.6591C9.30851 1.57362 9.19574 1.52396 9.077 1.52082C8.89 1.51182 8.70101 1.51182 8.51401 1.52082C8.39518 1.52448 8.28256 1.57482 8.20058 1.66092C8.11859 1.74702 8.07384 1.86195 8.076 1.98082C8.07786 2.09643 8.12345 2.20704 8.20361 2.29036C8.28378 2.37368 8.39255 2.42351 8.508 2.42982C8.602 2.43982 8.69701 2.43082 8.79001 2.43082H8.789Z" fill="#FFDC55" stroke="#FFDC55" stroke-width="0.25"/>
<path d="M14.203 17.1778C14.238 17.1769 14.2728 17.1833 14.3052 17.1965C14.3376 17.2097 14.3669 17.2295 14.3913 17.2545C14.4157 17.2796 14.4347 17.3094 14.447 17.3422C14.4594 17.3749 14.4648 17.4099 14.463 17.4448C14.4626 17.4783 14.4556 17.5115 14.4423 17.5423C14.4291 17.5731 14.4099 17.6009 14.3858 17.6243C14.3617 17.6476 14.3332 17.6659 14.302 17.6782C14.2708 17.6905 14.2375 17.6965 14.204 17.6958C14.169 17.6967 14.1342 17.6903 14.1018 17.6771C14.0694 17.6639 14.0401 17.6442 14.0157 17.6191C13.9913 17.594 13.9723 17.5642 13.96 17.5314C13.9476 17.4987 13.9422 17.4638 13.944 17.4288C13.9443 17.3952 13.9512 17.3621 13.9644 17.3312C13.9776 17.3003 13.9968 17.2724 14.0209 17.2491C14.045 17.2257 14.0735 17.2074 14.1048 17.1951C14.1361 17.1829 14.1694 17.177 14.203 17.1778Z" fill="#FFDC55" stroke="#FFDC55" stroke-width="0.25"/>
</svg>
