<svg width="50" height="50" viewBox="0 0 50 50" fill="none" xmlns="http://www.w3.org/2000/svg">
<path d="M15.1003 14.7471C17.573 9.5951 22.6228 6.20103 28.2646 5.88773C34.0283 5.57443 39.705 8.53336 42.5433 13.7028C46.0259 20.0558 44.0931 27.5576 39.9314 31.8219C36.292 35.5467 31.6776 36.0689 31.0681 36.1211C26.889 36.5214 23.7372 34.9375 22.5879 34.2935C21.3516 35.4597 20.1153 36.6432 18.879 37.8094C18.1824 37.6353 17.4859 37.4613 16.772 37.2872C15.6227 38.2271 14.0555 39.6196 12.4187 41.5168C10.7645 43.4314 10.1376 44.5801 9.09281 44.5801C8.51818 44.5801 7.22962 44.2494 5.69727 40.6117C8.06544 38.1401 10.4336 35.6685 12.8018 33.1969L12.7321 30.8298L16.1277 28.0275C15.4486 26.9484 14.2819 24.7901 13.9685 21.8312C13.6376 18.5241 14.5779 15.9481 15.1003 14.7471C16.3889 14.8342 17.66 14.9386 18.9486 15.0256C18.4262 15.8437 16.6501 18.8026 17.2247 22.7188C17.5904 25.2078 18.7397 26.9484 19.4013 27.8012C20.0282 28.7237 21.6825 30.8994 24.6949 32.0656C27.1502 33.0229 29.2746 32.814 30.3542 32.6922C31.6427 32.5529 35.7522 32.1178 38.5557 28.8456C41.6204 25.26 42.0383 19.5684 40.3144 18.4719C39.3915 17.8801 37.5109 18.4023 36.588 18.646C35.3169 18.9941 35.2472 19.3074 34.3243 19.4466C33.2273 19.6033 31.1378 19.4988 30.2845 18.0716C29.4661 16.7139 30.1626 14.7645 31.19 13.6854C33.0358 11.7534 36.0308 12.5888 36.1701 11.8752C36.3443 11.0398 32.4611 8.62039 28.3168 8.81185C22.5183 9.09034 18.7919 14.3816 17.9387 15.6348C16.9809 15.3563 16.0406 15.043 15.1003 14.7471Z" fill="#FFDC55"/>
<path d="M22.5392 35.5842C26.2495 37.209 30.0726 37.4572 33.945 36.2553C41.64 33.8683 46.3618 26.1593 45.0355 18.1871L45.0354 18.1868C43.9565 11.7513 39.0049 6.51809 32.6352 5.13859L32.6352 5.13854L32.6303 5.13757C32.0366 5.02147 31.4311 4.93339 30.837 4.84698C30.6227 4.8158 30.4098 4.78483 30.1995 4.75284L30.1808 4.75H30.1619H28.0375H28.0168L27.9964 4.7534C27.9403 4.76274 27.8846 4.77619 27.8375 4.78756C27.8316 4.78898 27.8259 4.79037 27.8203 4.79171C27.7691 4.80399 27.7242 4.81421 27.6781 4.82113M22.5392 35.5842L22.6391 35.3559L22.5393 35.5842C22.5392 35.5842 22.5392 35.5842 22.5392 35.5842ZM22.5392 35.5842C22.4125 35.5288 22.3604 35.5276 22.3371 35.5317C22.3211 35.5345 22.2816 35.5461 22.2034 35.6385L22.1953 35.6481L22.1951 35.6478C21.6858 36.192 21.1596 36.7005 20.6386 37.2039L20.6377 37.2048M20.6377 37.2048L20.4629 37.0262L20.6365 37.2059L20.6377 37.2048ZM20.6377 37.2048C19.7372 38.0861 18.6723 38.3503 17.4603 38.0521L17.4513 38.0499L17.4513 38.0497C17.4522 38.05 17.4447 38.0479 17.4269 38.0486C17.4097 38.0492 17.3879 38.0522 17.3629 38.0584C17.3124 38.0711 17.2645 38.0931 17.232 38.1158M17.232 38.1158C17.2329 38.1151 17.2337 38.1145 17.2346 38.1138L17.0847 37.9138M17.232 38.1158C17.146 38.1806 17.0672 38.2586 16.9804 38.3496C16.9644 38.3664 16.9479 38.3839 16.9309 38.4019C16.8594 38.4776 16.78 38.5617 16.6956 38.6384L16.6921 38.6416L16.692 38.6415C16.5182 38.7936 16.3139 38.8861 16.0965 38.8861C15.8766 38.8861 15.6762 38.7914 15.5149 38.6302C15.3564 38.4718 15.2708 38.2684 15.274 38.0515C15.2772 37.8377 15.366 37.6311 15.5189 37.4556M17.232 38.1158C17.2313 38.1163 17.2306 38.1168 17.2299 38.1172L17.0847 37.9138M17.0847 37.9138C17.2066 37.8268 17.3981 37.7745 17.52 37.8093C18.6518 38.0878 19.627 37.8442 20.4628 37.0261C20.9852 36.5213 21.5076 36.0166 22.0126 35.477C22.2041 35.2507 22.3608 35.2333 22.6394 35.3552C26.2962 36.9565 30.0574 37.2002 33.8709 36.0166C41.4455 33.6668 46.0948 26.078 44.7889 18.2282C43.7267 11.8926 38.851 6.74055 32.5823 5.38292C31.9951 5.26809 31.3986 5.18132 30.8064 5.09518C30.5908 5.06381 30.3757 5.03253 30.1619 5H28.0375C27.9909 5.00777 27.9442 5.019 27.8961 5.0306C27.8363 5.04501 27.7741 5.05998 27.7066 5.06962M17.0847 37.9138C16.9593 38.0078 16.8527 38.1206 16.7462 38.2333C16.6751 38.3085 16.6041 38.3837 16.5274 38.4534C16.2488 38.697 15.9354 38.697 15.6916 38.4534C15.4653 38.2271 15.4653 37.8964 15.709 37.6179M27.7066 5.06962L27.6859 4.82048C27.6833 4.8207 27.6807 4.82092 27.6781 4.82113M27.7066 5.06962C26.2439 5.19146 24.8161 5.48735 23.4578 6.04433C17.8334 8.35926 14.4379 12.5192 13.3931 18.5241C13.2985 19.0646 13.2773 19.6261 13.2563 20.1842C13.2502 20.3449 13.2442 20.5054 13.2364 20.6649C13.219 21.0479 13.4802 21.3089 13.811 21.3089C14.1244 21.3089 14.3508 21.0653 14.3856 20.6998L27.7066 5.06962ZM27.6781 4.82113C26.1983 4.94503 24.7472 5.24541 23.363 5.81302L23.3627 5.81315C17.6603 8.16018 14.2065 12.3903 13.1468 18.4812M27.6781 4.82113L13.1468 18.4812M13.1468 18.4812C13.049 19.0401 13.027 19.6246 13.006 20.1853C13 20.3434 12.9942 20.4996 12.9867 20.6528L12.9866 20.6536C12.9631 21.1706 13.3295 21.5589 13.811 21.5589C14.2873 21.5589 14.591 21.1804 14.6345 20.7235L14.6356 20.7116V20.6998C14.6356 20.6197 14.6397 20.5345 14.6441 20.4419L14.6442 20.4388C14.6484 20.3504 14.653 20.2551 14.6531 20.163C14.6875 18.6275 14.9949 17.1258 15.5586 15.6914L15.5587 15.6912C18.1095 9.18868 24.6635 5.50937 31.601 6.65646C39.4886 7.97343 44.8814 15.8279 43.2901 23.6611C41.7661 31.1408 34.954 36.1014 27.387 35.2287C23.261 34.7494 19.9613 32.8024 17.4588 29.4788C16.109 27.6682 15.2701 25.6345 14.8584 23.4072C14.8161 23.1468 14.7057 22.9259 14.5204 22.7837C14.3317 22.6388 14.0983 22.6013 13.8665 22.6477C13.6272 22.6955 13.4349 22.8278 13.3219 23.0337C13.213 23.2323 13.1927 23.472 13.2336 23.7172L13.2339 23.7194C13.4636 25.0259 13.8352 26.2835 14.4032 27.4899L14.4032 27.49L14.4058 27.4953C14.4631 27.6097 14.4591 27.6567 14.455 27.6751C14.45 27.6978 14.4304 27.7416 14.3386 27.8257L14.3386 27.8257L14.3336 27.8305L14.3314 27.8326C13.7757 28.3707 13.2149 28.9138 12.6884 29.4751L12.6881 29.4754C11.8797 30.3398 11.6321 31.3688 11.9326 32.4955L11.9326 32.4955L11.9338 32.4998C11.9601 32.5918 11.9564 32.6422 11.9469 32.6756C11.9367 32.7111 11.9113 32.758 11.8411 32.8282C11.0328 33.6287 10.2298 34.4335 9.42663 35.2385C8.3563 36.3112 7.28545 37.3844 6.20053 38.449L6.19889 38.4506C5.56828 39.0809 4.96361 39.7691 4.75562 40.733L4.75 40.759V40.7857V40.7875V40.7894V40.7912V40.793V40.7949V40.7967V40.7985V40.8004V40.8022V40.804V40.8059V40.8077V40.8096V40.8114V40.8132V40.8151V40.8169V40.8187V40.8206V40.8224V40.8242V40.8261V40.8279V40.8297V40.8316V40.8334V40.8353V40.8371V40.8389V40.8408V40.8426V40.8444V40.8463V40.8481V40.8499V40.8518V40.8536V40.8554V40.8573V40.8591V40.861V40.8628V40.8646V40.8665V40.8683V40.8701V40.872V40.8738V40.8756V40.8775V40.8793V40.8811V40.883V40.8848V40.8867V40.8885V40.8903V40.8922V40.894V40.8958V40.8977V40.8995V40.9013V40.9032V40.905V40.9068V40.9087V40.9105V40.9124V40.9142V40.916V40.9179V40.9197V40.9215V40.9234V40.9252V40.927V40.9289V40.9307V40.9325V40.9344V40.9362V40.9381V40.9399V40.9417V40.9436V40.9454V40.9472V40.9491V40.9509V40.9527V40.9546V40.9564V40.9582V40.9601V40.9619V40.9638V40.9656V40.9674V40.9693V40.9711V40.9729V40.9748V40.9766V40.9784V40.9803V40.9821V40.9839V40.9858V40.9876V40.9895V40.9913V40.9931V40.995V40.9968V40.9986V41.0005V41.0023V41.0041V41.006V41.0078V41.0096V41.0115V41.0133V41.0152V41.017V41.0188V41.0207V41.0225V41.0243V41.0262V41.028V41.0298V41.0317V41.0335V41.0353V41.0372V41.039V41.0409V41.0427V41.0445V41.0464V41.0482V41.05V41.0519V41.0537V41.0555V41.0574V41.0592V41.061V41.0629V41.0647V41.0666V41.0684V41.0702V41.0721V41.0739V41.0757V41.0776V41.0794V41.0812V41.0831V41.0849V41.0867V41.0886V41.0904V41.0923V41.0941V41.0959V41.0978V41.0996V41.1014V41.1033V41.1051V41.1069V41.1088V41.1106V41.1124V41.1143V41.1161V41.118V41.1198V41.1216V41.1235V41.1253V41.1271V41.129V41.1308V41.1326V41.1345V41.1363V41.1381V41.14V41.1418V41.1437V41.1455V41.1473V41.1492V41.151V41.1528V41.1547V41.1565V41.1583V41.1602V41.162V41.1638V41.1657V41.1675V41.1694V41.1712V41.173V41.1749V41.1767V41.1785V41.1804V41.1822V41.184V41.1859V41.1877V41.1895V41.1914V41.1932V41.1951V41.1969V41.1987V41.2006V41.2024V41.2042V41.2061V41.2079V41.2097V41.2116V41.2134V41.2152V41.2171V41.2189V41.2208V41.2226V41.2244V41.2263V41.2281V41.2299V41.2318V41.2336V41.2354V41.2373V41.2391V41.2409V41.2428V41.2446V41.2465V41.2483V41.2501V41.252V41.2538V41.2556V41.2575V41.2593V41.2611V41.263V41.2648V41.2666V41.2685V41.2703V41.2722V41.274V41.2758V41.2777V41.2795V41.2813V41.2832V41.285V41.2868V41.2887V41.2905V41.2924V41.2942V41.296V41.2979V41.2997V41.3015V41.3034V41.3052V41.307V41.3089V41.3107V41.3125V41.3144V41.3162V41.3181V41.3199V41.3217V41.3236V41.3254V41.3272V41.3291V41.3309V41.3327V41.3346V41.3364V41.3382V41.3401V41.3419V41.3438V41.3456V41.3474V41.3493V41.3511V41.3529V41.3548V41.3566V41.3584V41.3603V41.3621V41.3639V41.3658V41.3676V41.3694V41.3713V41.3731V41.375V41.3768V41.3786V41.3805V41.3823V41.3841V41.386V41.3878V41.3896V41.3915V41.3933V41.3951V41.397V41.3988V41.4007V41.4025V41.4043V41.4062V41.408V41.4098V41.4117V41.4135V41.4153V41.4172V41.419V41.4208V41.4227V41.4245V41.4264V41.4282V41.43V41.4319V41.4337V41.4355V41.4374V41.4392V41.441V41.4429V41.4447V41.4466V41.4484V41.4502V41.4521V41.4539V41.4557V41.4576V41.4594V41.4612V41.4631V41.4649V41.4667V41.4686V41.4704V41.4723V41.4741V41.4759V41.4778V41.4796V41.4814V41.4833V41.4851V41.4869V41.4888V41.4906V41.4924V41.4943V41.4961V41.498V41.4998V41.5016V41.5035V41.5053V41.5071V41.509V41.5108V41.5126V41.5145V41.5163V41.5181V41.52V41.5218V41.5237V41.5255V41.5273V41.5292V41.531V41.5328V41.5347V41.5365V41.5383V41.5402V41.542V41.5438V41.5457V41.5475V41.5494V41.5512V41.553V41.5549V41.5567V41.5585V41.5604V41.5622V41.564V41.5659V41.5677V41.5695V41.5714V41.5732V41.5751V41.5769V41.5787V41.5806V41.5824V41.5842V41.5861V41.5879V41.5897V41.5916V41.5934V41.5952V41.5971V41.5989V41.6008V41.6026V41.6044V41.6063V41.6081V41.6099V41.6118V41.6136V41.6154V41.6173V41.6191V41.6209V41.6228V41.6246V41.6265V41.6283V41.6301V41.632V41.6338V41.6356V41.6375V41.6393V41.6411V41.643V41.6448V41.6466V41.6485V41.6503V41.6522V41.654V41.6558V41.6577V41.6595V41.6613V41.6632V41.665V41.6668V41.6687V41.6705V41.6723V41.6742V41.676V41.6779V41.6797V41.6815V41.6834V41.6852V41.687V41.6889V41.6907V41.6925V41.6944V41.6962V41.698V41.6999V41.7017V41.7036V41.7054V41.7072V41.7091V41.7109V41.7127V41.7146V41.7164V41.7182V41.7201V41.7219V41.7237V41.7256V41.7761L4.76961 41.8226C4.81252 41.9245 4.84589 42.0248 4.88244 42.1346C4.90239 42.1945 4.92329 42.2573 4.94721 42.3248C5.01014 42.5023 5.0898 42.6968 5.21754 42.8672C5.21768 42.8674 5.21781 42.8676 5.21794 42.8677L5.41791 42.7177M13.1468 18.4812L13.7194 39.2994M5.41791 42.7177C5.76617 43.1876 6.16668 43.6054 6.58459 44.0231C7.89057 45.3285 9.64929 45.3285 10.9727 44.0057L14.4031 40.5768C14.4251 40.5548 14.4471 40.5339 14.4689 40.5132C14.5331 40.4523 14.5948 40.3937 14.6468 40.3157C14.8036 40.0721 14.8036 39.811 14.5946 39.6021C14.3682 39.3758 14.107 39.3584 13.8458 39.5151M5.41791 42.7177C5.27861 42.532 5.20122 42.3 5.12383 42.0679C5.08513 41.9519 5.04643 41.8358 5 41.7256L5.41791 42.7177ZM13.8458 39.5151L13.7218 39.298C13.721 39.2985 13.7202 39.2989 13.7194 39.2994M13.8458 39.5151L13.7173 39.3007C13.718 39.3003 13.7187 39.2998 13.7194 39.2994M13.8458 39.5151C13.7479 39.571 13.6725 39.6494 13.6015 39.7231C13.5841 39.7412 13.567 39.759 13.5498 39.7762L10.1543 43.1702C9.28361 44.0405 8.27366 44.0405 7.38559 43.1528L6.8632 42.6307C5.94031 41.7256 5.94031 40.7335 6.8632 39.811L12.6617 34.0149C12.7077 33.969 12.7585 33.9231 12.8065 33.8797C12.8436 33.8461 12.879 33.8141 12.9092 33.7848L12.7448 33.9467C12.8015 34.0042 12.8582 34.0617 12.9148 34.1191C12.8879 34.1439 12.8622 34.168 12.8385 34.1918L9.93921 37.0898L7.03994 39.9878C6.60887 40.4187 6.42103 40.8374 6.42103 41.2273C6.42103 41.6168 6.60837 42.0306 7.03824 42.4522L7.03994 42.4538L7.04096 42.4549L7.04198 42.4559L7.043 42.4569L7.04402 42.4579L7.04504 42.459L7.04606 42.46L7.04708 42.461L7.0481 42.462L7.04912 42.463L7.05014 42.4641L7.05116 42.4651L7.05218 42.4661L7.0532 42.4671L7.05422 42.4681L7.05524 42.4692L7.05626 42.4702L7.05728 42.4712L7.0583 42.4722L7.05932 42.4732L7.06034 42.4742L7.06136 42.4753L7.06238 42.4763L7.0634 42.4773L7.06442 42.4783L7.06544 42.4793L7.06646 42.4804L7.06748 42.4814L7.0685 42.4824L7.06953 42.4834L7.07055 42.4844L7.07157 42.4855L7.07259 42.4865L7.07361 42.4875L7.07463 42.4885L7.07565 42.4895L7.07667 42.4906L7.07769 42.4916L7.07871 42.4926L7.07973 42.4936L7.08075 42.4946L7.08177 42.4957L7.08279 42.4967L7.08381 42.4977L7.08483 42.4987L7.08585 42.4997L7.08687 42.5008L7.08789 42.5018L7.08891 42.5028L7.08993 42.5038L7.09095 42.5048L7.09197 42.5059L7.09299 42.5069L7.09401 42.5079L7.09503 42.5089L7.09605 42.5099L7.09707 42.511L7.09809 42.512L7.09911 42.513L7.10013 42.514L7.10115 42.515L7.10217 42.5161L7.10319 42.5171L7.10421 42.5181L7.10524 42.5191L7.10626 42.5201L7.10728 42.5212L7.1083 42.5222L7.10932 42.5232L7.11034 42.5242L7.11136 42.5252L7.11238 42.5263L7.1134 42.5273L7.11442 42.5283L7.11544 42.5293L7.11646 42.5303L7.11748 42.5314L7.1185 42.5324L7.11952 42.5334L7.12054 42.5344L7.12156 42.5354L7.12258 42.5365L7.1236 42.5375L7.12462 42.5385L7.12564 42.5395L7.12666 42.5405L7.12768 42.5416L7.1287 42.5426L7.12972 42.5436L7.13074 42.5446L7.13176 42.5456L7.13278 42.5467L7.1338 42.5477L7.13482 42.5487L7.13584 42.5497L7.13686 42.5507L7.13788 42.5518L7.13891 42.5528L7.13993 42.5538L7.14095 42.5548L7.14197 42.5558L7.14299 42.5569L7.14401 42.5579L7.14503 42.5589L7.14605 42.5599L7.14707 42.5609L7.14809 42.562L7.14911 42.563L7.15013 42.564L7.15115 42.565L7.15217 42.566L7.15319 42.5671L7.15421 42.5681L7.15523 42.5691L7.15625 42.5701L7.15727 42.5711L7.15829 42.5722L7.15931 42.5732L7.16033 42.5742L7.16135 42.5752L7.16237 42.5762L7.16339 42.5773L7.16441 42.5783L7.16543 42.5793L7.16645 42.5803L7.16747 42.5813L7.16849 42.5824L7.16951 42.5834L7.17053 42.5844L7.17155 42.5854L7.17257 42.5864L7.1736 42.5875L7.17462 42.5885L7.17564 42.5895L7.17666 42.5905L7.17768 42.5915L7.1787 42.5926L7.17972 42.5936L7.18074 42.5946L7.18176 42.5956L7.18278 42.5966L7.1838 42.5977L7.18482 42.5987L7.18584 42.5997L7.18686 42.6007L7.18788 42.6017L7.1889 42.6027L7.18992 42.6038L7.19094 42.6048L7.19196 42.6058L7.19298 42.6068L7.194 42.6078L7.19502 42.6089L7.19604 42.6099L7.19706 42.6109L7.19808 42.6119L7.1991 42.6129L7.20012 42.614L7.20114 42.615L7.20216 42.616L7.20318 42.617L7.2042 42.618L7.20522 42.6191L7.20624 42.6201L7.20726 42.6211L7.20829 42.6221L7.20931 42.6231L7.21033 42.6242L7.21135 42.6252L7.21237 42.6262L7.21339 42.6272L7.21441 42.6282L7.21543 42.6293L7.21645 42.6303L7.21747 42.6313L7.21849 42.6323L7.21951 42.6333L7.22053 42.6344L7.22155 42.6354L7.22257 42.6364L7.22359 42.6374L7.22461 42.6384L7.22563 42.6395L7.22665 42.6405L7.22767 42.6415L7.22869 42.6425L7.22971 42.6435L7.23073 42.6446L7.23175 42.6456L7.23277 42.6466L7.23379 42.6476L7.23481 42.6486L7.23583 42.6497L7.23685 42.6507L7.23787 42.6517L7.23889 42.6527L7.23991 42.6537L7.24093 42.6548L7.24196 42.6558L7.24298 42.6568L7.244 42.6578L7.24502 42.6588L7.24604 42.6599L7.24706 42.6609L7.24808 42.6619L7.2491 42.6629L7.25012 42.6639L7.25114 42.665L7.25216 42.666L7.25318 42.667L7.2542 42.668L7.25522 42.669L7.25624 42.6701L7.25726 42.6711L7.25828 42.6721L7.2593 42.6731L7.26032 42.6741L7.26134 42.6752L7.26236 42.6762L7.26338 42.6772L7.2644 42.6782L7.26542 42.6792L7.26644 42.6803L7.26746 42.6813L7.26848 42.6823L7.2695 42.6833L7.27052 42.6843L7.27154 42.6854L7.27256 42.6864L7.27358 42.6874L7.2746 42.6884L7.27562 42.6894L7.27665 42.6905L7.27767 42.6915L7.27869 42.6925L7.27971 42.6935L7.28073 42.6945L7.28175 42.6956L7.28277 42.6966L7.28379 42.6976L7.28481 42.6986L7.28583 42.6996L7.28685 42.7007L7.28787 42.7017L7.28889 42.7027L7.28991 42.7037L7.29093 42.7047L7.29195 42.7058L7.29297 42.7068L7.29399 42.7078L7.29501 42.7088L7.29603 42.7098L7.29705 42.7109L7.29807 42.7119L7.29909 42.7129L7.30011 42.7139L7.30113 42.7149L7.30215 42.716L7.30317 42.717L7.30419 42.718L7.30521 42.719L7.30623 42.72L7.30725 42.7211L7.30827 42.7221L7.30929 42.7231L7.31031 42.7241L7.31134 42.7251L7.31236 42.7262L7.31338 42.7272L7.3144 42.7282L7.31542 42.7292L7.31644 42.7302L7.31746 42.7313L7.31848 42.7323L7.3195 42.7333L7.32052 42.7343L7.32154 42.7353L7.32256 42.7364L7.32358 42.7374L7.3246 42.7384L7.32562 42.7394L7.32664 42.7404L7.32766 42.7415L7.32868 42.7425L7.3297 42.7435L7.33072 42.7445L7.33174 42.7455L7.33276 42.7465L7.33378 42.7476L7.3348 42.7486L7.33582 42.7496L7.33684 42.7506L7.33786 42.7516L7.33888 42.7527L7.3399 42.7537L7.34092 42.7547L7.34194 42.7557L7.34296 42.7567L7.34398 42.7578L7.34501 42.7588L7.34603 42.7598L7.34705 42.7608L7.34807 42.7618L7.34909 42.7629L7.35011 42.7639L7.35113 42.7649L7.35215 42.7659L7.35317 42.7669L7.35419 42.768L7.35521 42.769L7.35623 42.77L7.35725 42.771L7.35827 42.772L7.35929 42.7731L7.36031 42.7741L7.36133 42.7751L7.36235 42.7761L7.36337 42.7771L7.36439 42.7782L7.36541 42.7792L7.36643 42.7802L7.36745 42.7812L7.36847 42.7822L7.36949 42.7833L7.37051 42.7843L7.37153 42.7853L7.37255 42.7863L7.37357 42.7873L7.37459 42.7884L7.37561 42.7894L7.37663 42.7904L7.37765 42.7914L7.37867 42.7924L7.3797 42.7935L7.38072 42.7945L7.38174 42.7955L7.38276 42.7965L7.38378 42.7975L7.3848 42.7986L7.38582 42.7996L7.38684 42.8006L7.38786 42.8016L7.38888 42.8026L7.3899 42.8037L7.39092 42.8047L7.39194 42.8057L7.39296 42.8067L7.39398 42.8077L7.395 42.8088L7.39602 42.8098L7.39704 42.8108L7.39806 42.8118L7.39908 42.8128L7.4001 42.8139L7.40112 42.8149L7.40214 42.8159L7.40316 42.8169L7.40418 42.8179L7.4052 42.819L7.40622 42.82L7.40724 42.821L7.40826 42.822L7.40928 42.823L7.4103 42.8241L7.41132 42.8251L7.41234 42.8261L7.41336 42.8271L7.41439 42.8281L7.41541 42.8292L7.41643 42.8302L7.41745 42.8312L7.41847 42.8322L7.41949 42.8332L7.42051 42.8343L7.42153 42.8353L7.42255 42.8363L7.42357 42.8373L7.42459 42.8383L7.42561 42.8394L7.42663 42.8404L7.42765 42.8414L7.42867 42.8424L7.42969 42.8434L7.43071 42.8445L7.43173 42.8455L7.43275 42.8465L7.43377 42.8475L7.43479 42.8485L7.43581 42.8496L7.43683 42.8506L7.43785 42.8516L7.43887 42.8526L7.43989 42.8536L7.44091 42.8547L7.44193 42.8557L7.44295 42.8567L7.44397 42.8577L7.44499 42.8587L7.44601 42.8598L7.44703 42.8608L7.44806 42.8618L7.44908 42.8628L7.4501 42.8638L7.45112 42.8649L7.45214 42.8659L7.45316 42.8669L7.45418 42.8679L7.4552 42.8689L7.45622 42.87L7.45724 42.871L7.45826 42.872L7.45928 42.873L7.4603 42.874L7.46132 42.875L7.46234 42.8761L7.46336 42.8771L7.46438 42.8781L7.4654 42.8791L7.46642 42.8801L7.46744 42.8812L7.46846 42.8822L7.46948 42.8832L7.4705 42.8842L7.47152 42.8853L7.47254 42.8863L7.47356 42.8873L7.47458 42.8883L7.4756 42.8893L7.47662 42.8904L7.47764 42.8914L7.47866 42.8924L7.47968 42.8934L7.4807 42.8944L7.48172 42.8954L7.48275 42.8965L7.48377 42.8975L7.48479 42.8985L7.48581 42.8995L7.48683 42.9005L7.48785 42.9016L7.48887 42.9026L7.48989 42.9036L7.49091 42.9046L7.49193 42.9056L7.49295 42.9067L7.49397 42.9077L7.49499 42.9087L7.49601 42.9097L7.49703 42.9107L7.49805 42.9118L7.49907 42.9128L7.50009 42.9138L7.50111 42.9148L7.50213 42.9158L7.50315 42.9169L7.50417 42.9179L7.50519 42.9189L7.50621 42.9199L7.50723 42.9209L7.50825 42.922L7.50927 42.923L7.51029 42.924L7.51131 42.925L7.51233 42.926L7.51335 42.9271L7.51437 42.9281L7.51539 42.9291L7.51641 42.9301L7.51744 42.9311L7.51846 42.9322L7.51948 42.9332L7.5205 42.9342L7.52152 42.9352L7.52254 42.9362L7.52356 42.9373L7.52458 42.9383L7.5256 42.9393L7.52662 42.9403L7.52764 42.9413L7.52866 42.9424L7.52968 42.9434L7.5307 42.9444L7.53172 42.9454L7.53274 42.9464L7.53376 42.9475L7.53478 42.9485L7.5358 42.9495L7.53682 42.9505L7.53784 42.9515L7.53886 42.9526L7.53988 42.9536L7.5409 42.9546L7.54192 42.9556L7.54294 42.9566L7.54396 42.9577L7.54498 42.9587L7.546 42.9597L7.54702 42.9607L7.54804 42.9617L7.54906 42.9628L7.55008 42.9638L7.55111 42.9648L7.55213 42.9658L7.55315 42.9668L7.55417 42.9679L7.55519 42.9689L7.55621 42.9699L7.55723 42.9709L7.55825 42.9719L7.55927 42.973L7.56029 42.974L7.56131 42.975L7.56233 42.976C7.97334 43.3868 8.38815 43.569 8.77761 43.5708C9.16665 43.5726 9.57616 43.3946 9.97753 42.9934L11.6753 41.2964L13.3731 39.5994C13.3842 39.5882 13.397 39.5749 13.4112 39.5599C13.4811 39.4867 13.5875 39.3754 13.7194 39.2994M15.5189 37.4556L15.8846 37.0852C15.9413 37.1418 15.998 37.1984 16.0547 37.2551L16.2303 37.0794C16.1977 37.1121 16.1613 37.1523 16.123 37.1947C16.0796 37.2427 16.0336 37.2935 15.9876 37.3394C15.9592 37.3678 15.929 37.3962 15.8981 37.4252C15.8343 37.4851 15.7677 37.5475 15.709 37.6179M15.5189 37.4556C15.5196 37.4548 15.5202 37.454 15.5209 37.4532L15.709 37.6179M15.5189 37.4556C15.5183 37.4563 15.5176 37.4571 15.517 37.4578L15.709 37.6179M13.858 30.6484L13.8583 30.6486L13.8669 30.6378C13.8909 30.6079 13.9202 30.5781 13.9565 30.5438C13.9662 30.5346 13.9777 30.524 13.9901 30.5125C14.0174 30.4873 14.049 30.458 14.0748 30.4322L14.0752 30.4318C14.4744 30.0327 14.8748 29.6325 15.2969 29.2C16.7019 31.481 18.5042 33.2836 20.7702 34.7026C20.6505 34.8188 20.5331 34.9344 20.4169 35.0489C19.9676 35.4917 19.5358 35.9171 19.0562 36.2887C18.5581 36.6726 17.8085 36.598 17.3282 36.1329C16.1461 34.9861 14.9819 33.8223 13.8354 32.6242C13.3249 32.0842 13.3438 31.2229 13.858 30.6484Z" fill="#2A2968" stroke="#2A2968" stroke-width="0.5"/>
<path d="M29.2058 8.26591L29.2059 8.26591C36.1177 8.30144 41.7486 13.9837 41.7308 20.9093L41.7308 20.9099C41.6953 27.8522 36.0293 33.4997 29.0991 33.4643C29.099 33.4643 29.0989 33.4643 29.0988 33.4643L29.1001 33.2143L29.2058 8.26591ZM29.2058 8.26591C22.2063 8.2304 16.5572 13.8426 16.5217 20.8551L29.2058 8.26591ZM36.5741 28.854L36.574 28.8541C30.5478 34.4693 20.8279 31.7146 18.597 23.7827C18.0896 21.9666 18.0698 20.167 18.4939 18.3489C18.5594 18.3577 18.6249 18.3666 18.6903 18.3754C19.3386 18.4632 19.9817 18.5502 20.6116 18.5651C21.0386 18.5833 21.4952 18.5277 21.9093 18.4377L21.9094 18.4377L21.9125 18.437C23.3896 18.0962 24.3078 16.9167 24.4559 15.3626L24.456 15.3612C24.5819 13.9588 24.2265 12.6812 23.2581 11.6207C26.7345 9.31255 31.4182 9.34606 34.8378 11.6217C34.6048 11.6651 34.3708 11.7034 34.1375 11.7314L34.1375 11.7313L34.1309 11.7323C33.9182 11.7635 33.7058 11.7805 33.4844 11.7983C33.4078 11.8044 33.3301 11.8107 33.2509 11.8176C32.9498 11.8439 32.6358 11.8802 32.3263 11.9644C30.4405 12.4638 29.314 13.9149 29.1127 15.8692C29.0318 16.5981 29.0701 17.2874 29.296 17.9109C29.5236 18.5387 29.936 19.0844 30.5768 19.53L30.577 19.5301C31.4826 20.1582 32.5155 20.3955 33.5922 20.3226L33.5922 20.3227L33.5993 20.322C33.8889 20.294 34.1455 20.2207 34.3245 20.058C34.5178 19.8824 34.5778 19.644 34.5557 19.3901L34.5555 19.388C34.5316 19.137 34.4164 18.9304 34.2028 18.8017C34.0053 18.6826 33.7523 18.6477 33.4796 18.6571L33.4796 18.6571L33.4751 18.6573C33.1616 18.6738 32.8361 18.657 32.5311 18.593C31.7943 18.4291 31.3055 18.1023 31.0306 17.6537C30.7539 17.2022 30.6677 16.5845 30.8254 15.7877L30.8256 15.7872C30.9739 15.0295 31.2859 14.4675 31.7402 14.0856C32.1949 13.7032 32.8162 13.481 33.6197 13.4478C34.5844 13.4134 35.5716 13.3455 36.4932 12.8213C36.4941 12.8214 36.4949 12.8215 36.4958 12.8216C36.4993 12.8221 36.5025 12.8226 36.5052 12.8232C37.9223 14.1171 38.9192 15.6629 39.4986 17.4353C39.4492 17.4322 39.3997 17.4289 39.3502 17.4257C38.8488 17.3931 38.3396 17.3601 37.8454 17.3868L37.8454 17.3865L37.8348 17.3876C37.3313 17.4362 36.829 17.5716 36.3628 17.6972C36.3054 17.7127 36.2487 17.728 36.1925 17.7429L36.1925 17.7429L36.1895 17.7437C35.9229 17.8184 35.7119 17.9662 35.5942 18.1788C35.4759 18.3923 35.4702 18.6377 35.5508 18.8678L35.5507 18.8678L35.5521 18.8716C35.6353 19.0973 35.7932 19.2696 36.015 19.3523C36.2299 19.4324 36.4741 19.4172 36.719 19.3356L36.7207 19.335C37.4138 19.0985 38.1058 18.9697 38.8049 19.0509C39.0997 19.0855 39.318 19.1197 39.4848 19.1663C39.6496 19.2123 39.7447 19.2655 39.8072 19.3259C39.9333 19.448 40.0029 19.6722 40.0295 20.2586L40.0296 20.2598C40.2001 23.6513 39.0439 26.5555 36.5741 28.854ZM22.6452 15.8379L22.6452 15.8379L22.644 15.8418C22.5369 16.2014 22.3463 16.4575 22.106 16.6272C21.864 16.7982 21.5576 16.8912 21.2067 16.8991C20.6347 16.911 20.0702 16.8566 19.4658 16.7984C19.311 16.7835 19.1535 16.7684 18.9927 16.754C19.6752 15.1134 20.6367 13.7889 21.9049 12.6626C22.817 13.5443 23.0158 14.6649 22.6452 15.8379Z" fill="#2A2968" stroke="#2A2968" stroke-width="0.5"/>
<path d="M21.9086 12.3278C23.0404 13.3025 23.3016 14.5905 22.9011 15.9307C22.6573 16.7488 22.0131 17.1317 21.2295 17.1665C20.3936 17.1839 19.5578 17.0621 18.6523 16.9924C19.3663 15.0778 20.4459 13.581 21.9086 12.3278Z" fill="#FFDC55"/>
<path d="M24.9036 21.8832L24.938 22.1308L24.9396 22.1306C25.5654 22.0437 26.1951 21.9563 26.8253 21.8513L26.8253 21.8514L26.8289 21.8507C26.915 21.8351 27.0024 21.8128 27.0796 21.7931C27.0977 21.7885 27.1153 21.784 27.1321 21.7798C27.2262 21.7563 27.3059 21.7388 27.381 21.7319C27.8023 21.6953 28.0551 21.708 28.2079 21.9444C28.3667 22.2164 28.3187 22.5266 28.1251 22.8249C27.5271 23.7223 27.4034 24.7061 27.475 25.7285C27.526 26.5976 27.4751 27.4705 27.4056 28.3381L27.4056 28.3381L27.4053 28.3425C27.3919 28.5578 27.2793 28.8104 27.1311 29.0409L27.131 29.0408L27.126 29.0493C27.0644 29.154 27.0108 29.1695 26.9943 29.1713C26.9805 29.1728 26.9289 29.1716 26.8512 29.082L26.8512 29.0819L26.8473 29.0775C26.702 28.9178 26.5942 28.6913 26.581 28.5165C26.4882 26.7335 25.5948 25.4934 24.0633 24.691C23.2441 24.2485 22.9073 23.7104 22.9073 23.1364C22.9073 22.8488 22.96 22.6787 23.0464 22.5673C23.1316 22.4574 23.2808 22.3644 23.5647 22.3013L23.5648 22.3013L23.5667 22.3009C23.7759 22.2526 23.9927 22.2277 24.2238 22.2061C24.2698 22.2018 24.3167 22.1976 24.3641 22.1934C24.5502 22.1768 24.7459 22.1593 24.9402 22.1305L24.9036 21.8832ZM24.9036 21.8832C24.7172 21.9108 24.5308 21.9275 24.3455 21.944C24.0634 21.9693 23.7838 21.9942 23.5105 22.0573L28.421 21.8136C28.1772 21.4307 27.7593 21.4481 27.3588 21.4829C27.2439 21.4933 27.129 21.5226 27.014 21.5518C26.9374 21.5713 26.8608 21.5908 26.7842 21.6047C26.1573 21.7092 25.5305 21.7962 24.9036 21.8832L24.9036 21.8832ZM27.3414 20.0493H27.3167L27.2924 20.0542C27.2061 20.0714 27.1091 20.0929 27.0033 20.1163C26.6579 20.1927 26.2188 20.2899 25.7535 20.3287L25.7442 20.3294L25.735 20.3309C25.3617 20.3903 24.9828 20.4244 24.5939 20.4593L24.5898 20.4597C24.2052 20.4943 23.8107 20.5297 23.4193 20.592C22.7683 20.6942 22.2441 20.9446 21.8677 21.3356C21.4908 21.7272 21.2809 22.2405 21.2243 22.8342L21.2243 22.8342L21.2238 22.8401C21.1688 23.6108 21.3132 24.3679 21.863 24.9583C22.3027 25.4521 22.8463 25.8487 23.3719 26.199C23.999 26.6168 24.5044 27.0114 24.7187 27.6539C24.8292 27.9854 24.8627 28.3535 24.8979 28.7412L24.8984 28.7462L24.8984 28.7462L24.8987 28.7492C25.0319 30.0428 26.2072 31.0844 27.4204 30.776L27.4221 30.7756C28.2743 30.5525 28.6828 29.8793 28.9032 29.1818L28.9033 29.1814C29.1915 28.2631 29.3003 27.2888 29.192 26.3128C29.086 25.2529 29.0026 24.3315 29.6447 23.5175L29.6508 23.5097L29.6564 23.5014C29.7429 23.3716 29.7884 23.2083 29.8181 23.1013C29.8214 23.0895 29.8245 23.0783 29.8275 23.068C30.0727 22.2644 29.956 21.5012 29.5017 20.9367C29.0488 20.374 28.2935 20.0493 27.3414 20.0493Z" fill="#2A2968" stroke="#2A2968" stroke-width="0.5"/>
<path d="M22.6562 23.1365C22.6562 22.5099 22.8826 22.1966 23.5095 22.0573C23.9622 21.9529 24.4324 21.9529 24.9025 21.8833C25.5294 21.7963 26.1563 21.6918 26.7831 21.6048C26.9747 21.57 27.1662 21.5004 27.3578 21.483C27.7583 21.4481 28.1588 21.4307 28.42 21.8137C28.6638 22.1966 28.5767 22.6143 28.3329 22.9624C27.7583 23.8153 27.6538 24.7204 27.7235 25.7125C27.7757 26.5828 27.7235 27.4704 27.6538 28.3581C27.6364 28.6366 27.4797 28.9325 27.3404 29.1762C27.1662 29.4721 26.8876 29.5069 26.6613 29.2458C26.5045 29.0543 26.3478 28.7759 26.3304 28.5322C26.2433 26.8438 25.4075 25.6951 23.9448 24.9118C23.0742 24.4593 22.6562 23.8327 22.6562 23.1365Z" fill="#FFDC55"/>
</svg>
