<svg xmlns="http://www.w3.org/2000/svg" xmlns:xlink="http://www.w3.org/1999/xlink" width="63.099" height="63.032" viewBox="0 0 63.099 63.032">
  <defs>
    <filter id="Path_56" x="0" y="0" width="63.099" height="63.032" filterUnits="userSpaceOnUse">
      <feOffset dy="3" input="SourceAlpha"/>
      <feGaussianBlur stdDeviation="3" result="blur"/>
      <feFlood flood-opacity="0.161"/>
      <feComposite operator="in" in2="blur"/>
      <feComposite in="SourceGraphic"/>
    </filter>
  </defs>
  <g id="FB" transform="translate(9 6)">
    <g transform="matrix(1, 0, 0, 1, -9, -6)" filter="url(#Path_56)">
      <path id="Path_56-2" data-name="Path 56" d="M697.964,974.233H695.15a2.408,2.408,0,0,0-.339-.074,21.978,21.978,0,0,1-9.173-2.764,1.493,1.493,0,0,0-1.29-.121q-3.8,1.214-7.623,2.382a2.1,2.1,0,0,1-.986.085,1.47,1.47,0,0,1-1.017-2.092c.9-2.286,1.811-4.57,2.743-6.844a1.375,1.375,0,0,0-.109-1.355,21.719,21.719,0,0,1-1.854-19.618c3.016-7.882,8.848-12.614,17.133-14.287.771-.156,1.558-.231,2.338-.344h3.166a1.861,1.861,0,0,0,.3.071,20.887,20.887,0,0,1,7.277,1.869,22.21,22.21,0,0,1,12.925,16.177c.2.926.293,1.877.435,2.816V953.3a2.6,2.6,0,0,0-.076.34,22.524,22.524,0,0,1-18.6,20.251C699.588,974.034,698.774,974.121,697.964,974.233Zm-21.877-1.965c.2-.051.308-.075.416-.109,2.43-.758,4.867-1.493,7.285-2.287a3.166,3.166,0,0,1,2.687.26,20.442,20.442,0,0,0,14.027,2.22,21.014,21.014,0,0,0-6.147-41.538A21.044,21.044,0,0,0,675.693,954.2a20.126,20.126,0,0,0,2.989,8.55,2.537,2.537,0,0,1,.2,2.545c-.245.547-.451,1.111-.674,1.669C677.514,968.7,676.819,970.438,676.087,972.268Z" transform="translate(-664.97 -923.2)" fill="#2a2968"/>
    </g>
    <path id="Path_57" data-name="Path 57" d="M687.928,983.387l2.12-5.3c.223-.557.429-1.12.674-1.667a2.535,2.535,0,0,0-.2-2.543,20.109,20.109,0,0,1-2.987-8.543,21.028,21.028,0,0,1,18.648-23.368,21,21,0,0,1,6.142,41.506,20.426,20.426,0,0,1-14.016-2.218,3.163,3.163,0,0,0-2.685-.26c-2.416.794-4.852,1.528-7.279,2.286C688.236,983.312,688.125,983.336,687.928,983.387Zm23.554-39.89-.032.108a.728.728,0,0,0-.795.65.74.74,0,0,0,.7.843,17.73,17.73,0,0,1,7.958,3.478c.794.618,1.507,1.341,2.25,2.023a.752.752,0,0,0,1.273-.167.833.833,0,0,0-.26-.948,18.984,18.984,0,0,0-7.119-4.779C714.164,944.219,712.809,943.895,711.482,943.5Zm-2.359.6a.742.742,0,0,0-1.484-.009.742.742,0,1,0,1.484.009Z" transform="translate(-685.798 -940.336)" fill="#ffdc55"/>
    <path id="Path_58" data-name="Path 58" d="M886.742,956.03c1.343.4,2.713.731,4.022,1.223a19.207,19.207,0,0,1,7.2,4.835.843.843,0,0,1,.263.959.76.76,0,0,1-1.288.169c-.752-.691-1.473-1.422-2.277-2.047a17.94,17.94,0,0,0-8.052-3.519.748.748,0,0,1-.708-.853.736.736,0,0,1,.8-.658Z" transform="translate(-861.148 -952.849)" fill="#2a2968"/>
    <path id="Path_59" data-name="Path 59" d="M861.712,955.548a.751.751,0,1,1-1.5-.01.751.751,0,0,1,1.5.01Z" transform="translate(-838.378 -951.762)" fill="#2a2968"/>
    <path id="Path_60" data-name="Path 60" d="M797.8,1026.473a1.013,1.013,0,0,1-.757-.715,1.878,1.878,0,0,1-.041-.445q0-3.395,0-6.789v-.273h-.229c-.528,0-1.057,0-1.585,0a.972.972,0,0,1-1.031-1.03q-.008-1.5,0-2.994a.961.961,0,0,1,1.028-1.027c.593-.006,1.186,0,1.8,0,0-.078.012-.146.013-.215.007-.6-.008-1.2.022-1.8a5.2,5.2,0,0,1,.844-2.669,4.59,4.59,0,0,1,3.038-1.992,4.115,4.115,0,0,1,.775-.081c.978-.009,1.957.014,2.935-.012a.947.947,0,0,1,.9.722,1.973,1.973,0,0,1,.033.349q0,1.321,0,2.641a1,1,0,0,1-1.091,1.1c-.58,0-1.161.006-1.741.012a2.153,2.153,0,0,0-.27.037.268.268,0,0,0-.252.278c-.008.533,0,1.067,0,1.623.057,0,.126.009.195.01.652,0,1.3,0,1.957,0a.991.991,0,0,1,1.091,1.092q0,1.438,0,2.876a.994.994,0,0,1-1.082,1.085c-.652,0-1.3,0-1.957,0h-.23v.272q0,3.414,0,6.828a1.035,1.035,0,0,1-.4.926,2.679,2.679,0,0,1-.4.2Zm6.448-12.1h-.23c-.77,0-1.539,0-2.309,0a.637.637,0,0,1-.718-.637c-.012-.743-.024-1.489.029-2.228a1.37,1.37,0,0,1,1.33-1.388c.58-.068,1.17-.044,1.756-.06.083,0,.166,0,.252,0v-2.464a.294.294,0,0,0-.065-.018c-.835,0-1.67-.018-2.5.014a3.665,3.665,0,0,0-2.349.888,3.774,3.774,0,0,0-1.244,2.794c-.036.774-.014,1.552-.019,2.328a.68.68,0,0,1-.768.771c-.62,0-1.239,0-1.859,0h-.211v2.7h.22c.652,0,1.3,0,1.956,0a.627.627,0,0,1,.653.6,2.226,2.226,0,0,1,.009.254q0,3.551,0,7.1v.258h2.8v-.263q0-3.59,0-7.18a.669.669,0,0,1,.766-.768h2.289c.069,0,.138-.006.211-.009Z" transform="translate(-777.263 -999.517)" fill="#2a2968"/>
    <path id="Path_61" data-name="Path 61" d="M818.02,1027.607v2.719c-.074,0-.144.009-.213.009h-2.312a.676.676,0,0,0-.774.775q0,3.627,0,7.253v.266h-2.832v-.26q0-3.587,0-7.174a2.287,2.287,0,0,0-.009-.256.634.634,0,0,0-.66-.6c-.659-.006-1.318,0-1.976,0h-.222v-2.729h.213c.626,0,1.252,0,1.878,0a.687.687,0,0,0,.776-.779c0-.784-.017-1.569.019-2.351a3.813,3.813,0,0,1,1.257-2.823,3.7,3.7,0,0,1,2.373-.9c.842-.033,1.686-.013,2.529-.015a.3.3,0,0,1,.066.018v2.489c-.087,0-.171,0-.254,0-.592.016-1.188-.008-1.774.061a1.384,1.384,0,0,0-1.344,1.4c-.054.747-.042,1.5-.03,2.251a.643.643,0,0,0,.725.643c.777,0,1.555,0,2.332,0Z" transform="translate(-790.943 -1012.717)" fill="#52a2ce"/>
    <path id="Path_113" data-name="Path 113" d="M-16.387-10.4v.989h1.176v4.986h1.01V-9.407h1.093v-.4l.375.489c.156-.177.312-.364.468-.573v.916h.833v.219a4.926,4.926,0,0,1-1.634,3.623l.906.781a6.2,6.2,0,0,0,1.811-4.4V-8.97h1.166A24.621,24.621,0,0,1-9.3-6.118c-.042.427-.2.645-.458.645-.291,0-.625-.021-1.02-.052l.271.989c.437.042.76.062.947.062A1.136,1.136,0,0,0-8.3-5.6a35.087,35.087,0,0,0,.146-4.216,5.161,5.161,0,0,0,.448.52l.677-.937a7.1,7.1,0,0,1-1.759-3.435h-1.541v.989h.76A8.913,8.913,0,0,0-8.3-10.011h-3.872a8.707,8.707,0,0,0,1.447-3.362l-.989-.271a7.545,7.545,0,0,1-1.5,3.248H-14.2v-3.56h-1.01v3.56Zm2.706-2.852a9.862,9.862,0,0,1-.333,2.186l.708.229a8.866,8.866,0,0,0,.427-2.311Zm-2.155.094-.781.26c.187.687.354,1.395.489,2.144l.708-.187C-15.544-11.77-15.679-12.509-15.836-13.154Zm-.344,4.289a17.776,17.776,0,0,1-.583,2.686l.791.281a19.968,19.968,0,0,0,.552-2.748Zm2.883-.167-.7.229q.3,1.343.5,2.811l.812-.208C-12.869-7.263-13.067-8.21-13.3-9.032Zm8.463-3.175v3.154h3.154v.468c-1.218.031-2.457.062-3.716.083l.208.854c1.915-.062,3.779-.125,5.58-.2v.6H-5.8v.885h2.259l-.406.4a8.455,8.455,0,0,1,1.52,1.291l.739-.749a10.158,10.158,0,0,0-1.26-.937H.393v.77C.393-5.4.278-5.3.07-5.3a8.575,8.575,0,0,1-1-.062l.219.979H.414c.7,0,1.051-.323,1.051-.947V-6.357H3.526v-.885H1.465V-7.9l.77-.031c.135.187.26.364.375.541l.718-.489a8.969,8.969,0,0,0-.916-1.176h.146v-3.154H-.6v-.406H3.422v-.833H-.6v-.562H-1.679v.562H-5.7v.833h4.018v.406ZM1.621-8.7-.6-8.616v-.437H1.736l-.271.167ZM1.507-9.844H-.6V-10.3h2.1Zm-3.185,0h-2.1V-10.3h2.1Zm-2.1-1.176v-.458h2.1v.458ZM-.6-11.478h2.1v.458H-.6Z" transform="translate(28.941 42.394)" fill="#2a2968"/>
  </g>
</svg>
