<svg xmlns="http://www.w3.org/2000/svg" width="22.366" height="23.815" viewBox="0 0 22.366 23.815">
  <g id="eR4dI0.tif" transform="translate(189.549 -4.004)">
    <path id="Path_675" data-name="Path 675" d="M-175.089,5.574l-8.471,9.872-5.038,3.419,2.859,4.332,2.95-.975,5.539,5.6,1.608-1.918-2.547-2.71,1.449-1.6-.924-1.486,9.925-2.041-2.43-5.563,1.271-2L-172,9.83Z" transform="translate(-0.318 -0.617)" fill="#ffdc55"/>
    <g id="Group_428" data-name="Group 428" transform="translate(-189.344 4.129)">
      <path id="Path_673" data-name="Path 673" d="M-175.3,4.129a2.019,2.019,0,0,1,1.251,1.119c.683,1.229,1.4,2.439,2.1,3.656.038.066.078.13.131.22a1.9,1.9,0,0,1,1.872-.195,1.8,1.8,0,0,1,.918.891c.439.91.126,1.769-.924,2.519.04.077.078.157.122.235.763,1.324,1.533,2.644,2.29,3.972a1.488,1.488,0,0,1-.966,2.245,1.5,1.5,0,0,1-1.254-.294.4.4,0,0,0-.282-.081q-3.754.8-7.5,1.608c-.006,0-.011.009-.041.035l.424.4A1.249,1.249,0,0,1-177.4,22.6l-.323.188c.061.066.113.127.168.183.517.521,1.053,1.025,1.549,1.566a1.838,1.838,0,0,1-.27,2.714,1.853,1.853,0,0,1-2.463-.213q-2.284-2.275-4.561-4.558c-.059-.059-.112-.124-.176-.2-.368.211-.716.414-1.067.612a2.177,2.177,0,0,1-3.051-.823q-.711-1.217-1.41-2.441a2.18,2.18,0,0,1,.832-3.1c1.2-.694,2.4-1.382,3.591-2.078a1.332,1.332,0,0,0,.316-.258q1.057-1.178,2.1-2.366a.5.5,0,0,1,.5-.216.461.461,0,0,1,.217.792c-.519.592-1.046,1.178-1.569,1.767-.177.2-.353.4-.531.6l2.069,3.587c.237.41.481.817.708,1.232a.214.214,0,0,0,.276.12q4.714-1.016,9.43-2.027c.207-.044.414-.091.655-.145l-6.141-10.638c-.221.246-.428.476-.634.708-.483.542-.963,1.088-1.45,1.627a.454.454,0,0,1-.746,0,.47.47,0,0,1,.091-.64q1.066-1.2,2.135-2.4a.41.41,0,0,0,.119-.364,1.469,1.469,0,0,1,1.154-1.678.531.531,0,0,0,.082-.037Zm-6.24,15.977-2.743-4.75c-.069.037-.116.061-.162.087q-1.637.945-3.275,1.891a1.264,1.264,0,0,0-.5,1.842q.694,1.214,1.4,2.422a1.265,1.265,0,0,0,1.845.489c.6-.345,1.2-.694,1.807-1.042Zm6-15.058a.561.561,0,0,0-.595.528.957.957,0,0,0,.13.45q3.3,5.738,6.617,11.47a1.532,1.532,0,0,0,.123.193.576.576,0,0,0,.743.14.573.573,0,0,0,.24-.716,2.679,2.679,0,0,0-.162-.3l-4.868-8.432c-.569-.985-1.14-1.969-1.706-2.957A.632.632,0,0,0-175.535,5.048Zm-7.131,16.769c.079.083.136.145.194.2l2.465,2.464,1.9,1.9a.932.932,0,0,0,1.065.257.934.934,0,0,0,.281-1.565q-1.64-1.651-3.29-3.292c-.27-.27-.537-.545-.814-.807a.254.254,0,0,0-.222-.058C-181.612,21.2-182.125,21.505-182.666,21.817Zm4.3.284c.174-.1.367-.207.556-.32.282-.169.31-.385.073-.609-.282-.267-.569-.53-.857-.791-.048-.043-.121-.1-.171-.091-.392.074-.782.163-1.166.246Zm7.94-10.576a.958.958,0,0,0,.525-1.406.944.944,0,0,0-1.441-.179Z" transform="translate(189.344 -4.129)" fill="#2a2968" stroke="#2a2968" stroke-width="0.25"/>
      <path id="Path_674" data-name="Path 674" d="M-150.025,32.211a.456.456,0,0,1-.455-.451.466.466,0,0,1,.452-.457.457.457,0,0,1,.462.467A.447.447,0,0,1-150.025,32.211Z" transform="translate(158.977 -25.361)" fill="#2a2968" stroke="#2a2968" stroke-width="0.25"/>
    </g>
  </g>
</svg>
