<svg xmlns="http://www.w3.org/2000/svg" width="59.561" height="51.757" viewBox="0 0 59.561 51.757">
  <g id="interview" transform="translate(0 0)">
    <rect id="Rectangle_33" data-name="Rectangle 33" width="17.054" height="16.156" transform="translate(8.323 28.274)" fill="#ffd639"/>
    <rect id="Rectangle_34" data-name="Rectangle 34" width="10.771" height="5.385" transform="translate(30.762 28.274)" fill="#ffd639"/>
    <path id="Path_9" data-name="Path 9" d="M69.628,57.946a12.74,12.74,0,0,1-.6,1.74,5.494,5.494,0,0,1-4.736,3.172c-.251.019-.5.024-.755.024q-23.7,0-47.4,0A5.649,5.649,0,0,1,10.4,59.021a6.311,6.311,0,0,1-.317-1.934q-.026-21.2-.011-42.4a3.43,3.43,0,0,1,3.446-3.554c.136,0,.271,0,.407,0q21.4,0,42.806-.005a3.765,3.765,0,0,1,2.646.839,3.406,3.406,0,0,1,1.2,2.668c0,1.956,0,3.913,0,5.939.232.011.436.028.639.028,1.628,0,3.257,0,4.886,0a3.268,3.268,0,0,1,3.437,2.539.611.611,0,0,0,.094.141ZM59.38,60.552c-1.319-1.71-1.135-3.6-1.135-5.45q0-20.035,0-40.071c0-1.241-.318-1.569-1.529-1.569q-21.4,0-42.8,0c-1.17,0-1.514.352-1.514,1.533q0,20.908,0,41.816a3.4,3.4,0,0,0,3.75,3.741H59.38Zm1.2-37.619v.751q0,16.508,0,33.015c0,.194,0,.388.007.581a3.366,3.366,0,0,0,4.435,3.091A3.4,3.4,0,0,0,67.3,57q0-16.391,0-32.783a2.6,2.6,0,0,0-.01-.406.909.909,0,0,0-.92-.875C64.47,22.922,62.572,22.933,60.578,22.933Z" transform="translate(-10.067 -11.125)" fill="#2a2968"/>
    <path id="Path_10" data-name="Path 10" d="M68.727,203.649q-3.865,0-7.731,0c-1.039,0-1.439-.4-1.439-1.447q0-7.615,0-15.229c0-1.066.409-1.473,1.477-1.474q7.673,0,15.345,0c1.1,0,1.5.393,1.5,1.511q0,7.556,0,15.113c0,1.155-.379,1.526-1.536,1.527Zm-6.791-2.4H75.448V187.9H61.936Z" transform="translate(-51.88 -158.451)" fill="#2a2968"/>
    <path id="Path_11" data-name="Path 11" d="M205.564,193.643q-2.527,0-5.054,0c-1.042,0-1.457-.405-1.459-1.426q-.005-2.643,0-5.287c0-1.022.419-1.432,1.458-1.432q5.084,0,10.167,0c1.038,0,1.453.4,1.458,1.432q.013,2.643,0,5.287c-.005,1.035-.413,1.426-1.458,1.427Q208.12,193.645,205.564,193.643Zm-4.126-2.4H209.7v-3.33h-8.262Z" transform="translate(-169.736 -158.449)" fill="#2a2968"/>
    <path id="Path_12" data-name="Path 12" d="M170.326,64.718c-.368,1.192-.7,2.242-1.015,3.295a1.429,1.429,0,0,1-.958,1.077,1.312,1.312,0,0,1-1.69-1.07q-.7-3.441-1.372-6.888a1.2,1.2,0,0,1,.941-1.536,1.216,1.216,0,0,1,1.359,1.126,26.667,26.667,0,0,0,.661,2.781c.319-1.017.641-2.033.954-3.052a1.125,1.125,0,0,1,1.049-.861,1.081,1.081,0,0,1,1.093.623,3.3,3.3,0,0,1,.2.543c.287.916.569,1.833.96,2.753.185-.922.337-1.853.571-2.762a1.984,1.984,0,0,1,.575-.951.982.982,0,0,1,1.243.01,1.156,1.156,0,0,1,.478,1.277c-.18.95-.377,1.9-.567,2.846-.269,1.347-.535,2.695-.81,4.041a1.33,1.33,0,0,1-2.614.145C171.035,67.032,170.707,65.943,170.326,64.718Z" transform="translate(-141.186 -52.062)" fill="#2a2968"/>
    <path id="Path_13" data-name="Path 13" d="M61.871,64.567c0,1.2.007,2.259,0,3.315a1.153,1.153,0,0,1-.964,1.254,1.118,1.118,0,0,1-1.351-1.088c-.024-2.44-.018-4.88,0-7.319a1.068,1.068,0,0,1,.839-1.059,1.109,1.109,0,0,1,1.308.5c.823,1.172,1.631,2.354,2.446,3.532.1.141.2.278.365.5.025-.227.053-.365.052-.5,0-.968-.025-1.937-.01-2.9a1.16,1.16,0,1,1,2.319.005q.054,3.4.077,6.8a1.3,1.3,0,0,1-.935,1.434c-.585.17-1.042-.038-1.5-.7-.74-1.064-1.474-2.134-2.212-3.2C62.192,64.978,62.075,64.836,61.871,64.567Z" transform="translate(-51.864 -52.078)" fill="#2a2968"/>
    <path id="Path_14" data-name="Path 14" d="M241.738,69.161a4.455,4.455,0,0,1-3.2-1.295,1.157,1.157,0,0,1-.151-1.7,1.14,1.14,0,0,1,1.742.013,2.114,2.114,0,0,0,1.913.606c.259-.054.471-.335.7-.512-.17-.208-.3-.5-.519-.608-.64-.315-1.321-.546-1.978-.827a2.5,2.5,0,0,1-1.736-2.647,2.775,2.775,0,0,1,2.2-2.469,4.285,4.285,0,0,1,3.71.879,1.136,1.136,0,0,1,.241,1.6,1.181,1.181,0,0,1-1.556.3,7.417,7.417,0,0,0-1.209-.533,1.3,1.3,0,0,0-.732.073.563.563,0,0,0-.3.363c-.017.07.169.233.292.286.693.3,1.407.544,2.091.859a2.837,2.837,0,0,1,1.765,3.34A3.281,3.281,0,0,1,241.738,69.161Z" transform="translate(-202.716 -52.082)" fill="#2a2968"/>
    <path id="Path_15" data-name="Path 15" d="M122.4,62.071v1.245c.492,0,.952-.009,1.412,0,.826.02,1.368.512,1.346,1.207s-.538,1.112-1.353,1.121c-.459,0-.918,0-1.405,0V66.91c.55,0,1.069,0,1.587,0,.847.008,1.377.452,1.388,1.154s-.52,1.17-1.357,1.174c-.91.006-1.821.01-2.731,0a1.118,1.118,0,0,1-1.244-1.217q-.024-3.515,0-7.031a1.128,1.128,0,0,1,1.227-1.242q1.452-.037,2.9,0a1.152,1.152,0,0,1,1.2,1.155,1.166,1.166,0,0,1-1.2,1.16c-.29.017-.581.006-.871.007Z" transform="translate(-102.974 -52.189)" fill="#2a2968"/>
    <path id="Path_16" data-name="Path 16" d="M66.165,140.3c1.782,0,3.564,0,5.347,0,.889,0,1.425.46,1.407,1.182-.017.7-.542,1.146-1.4,1.147q-5.347.006-10.693,0a1.235,1.235,0,0,1-1.238-.693.948.948,0,0,1,.159-1.182,1.859,1.859,0,0,1,1.068-.437C62.6,140.277,64.382,140.3,66.165,140.3Z" transform="translate(-51.798 -120.259)" fill="#2a2968"/>
    <path id="Path_17" data-name="Path 17" d="M205.531,140.294c1.7,0,3.406,0,5.109,0,.87,0,1.375.424,1.387,1.135.012.736-.511,1.192-1.4,1.193-3.425,0-6.851,0-10.276,0a1.276,1.276,0,0,1-1.263-.653.939.939,0,0,1,.113-1.185,1.912,1.912,0,0,1,1.1-.474C202.047,140.267,203.79,140.294,205.531,140.294Z" transform="translate(-169.64 -120.253)" fill="#2a2968"/>
    <path id="Path_18" data-name="Path 18" d="M205.6,256.932c-1.7,0-3.406,0-5.109,0-.891,0-1.42-.457-1.4-1.184.016-.694.552-1.143,1.4-1.144q5.167-.006,10.334,0a1.193,1.193,0,0,1,1.3.849,1.114,1.114,0,0,1-.515,1.3,1.973,1.973,0,0,1-.834.173C209.043,256.939,207.32,256.932,205.6,256.932Z" transform="translate(-169.768 -216.835)" fill="#2a2968"/>
    <path id="Path_19" data-name="Path 19" d="M205.626,289.824c-1.722,0-3.445,0-5.168,0-.845,0-1.37-.454-1.37-1.161s.538-1.166,1.371-1.167q5.168-.006,10.335,0c.85,0,1.363.45,1.362,1.167s-.512,1.158-1.363,1.161C209.071,289.827,207.348,289.824,205.626,289.824Z" transform="translate(-169.77 -244.626)" fill="#2a2968"/>
    <path id="Path_20" data-name="Path 20" d="M167.649,141.513a1.161,1.161,0,1,1-2.322.049,1.161,1.161,0,0,1,2.322-.049Z" transform="translate(-141.246 -120.338)" fill="#2a2968"/>
  </g>
</svg>
