<svg xmlns="http://www.w3.org/2000/svg" width="18.186" height="22.947" viewBox="0 0 18.186 22.947">
  <g id="_7i6mJq.tif" data-name="7i6mJq.tif" transform="translate(0 0)">
    <path id="Path_635" data-name="Path 635" d="M-255.257,196.672c-.456-.128-.918-.239-1.366-.39a2.812,2.812,0,0,1-.6-.333.418.418,0,0,1-.153-.616.426.426,0,0,1,.637-.139,3.174,3.174,0,0,0,1.485.543,3.112,3.112,0,0,0,2.781-1.122,1.863,1.863,0,0,0,.335-.722.93.93,0,0,0-.292-.934q-1.48-1.424-2.965-2.843a1.087,1.087,0,0,0-1.439-.124.952.952,0,0,1-1.445-.337,10.983,10.983,0,0,1-1.419-7.982.937.937,0,0,1,1.182-.773,1.107,1.107,0,0,0,1.371-.656q.947-1.953,1.888-3.908a.623.623,0,0,0-.174-.869,3.156,3.156,0,0,0-4.679.438,11.885,11.885,0,0,0-2.125,4.606,14.461,14.461,0,0,0,2.825,12.236.632.632,0,0,1,.147.463.644.644,0,0,1-.35.34.37.37,0,0,1-.449-.187c-.49-.7-1.03-1.381-1.452-2.124a15.734,15.734,0,0,1-1.933-8.4,13.813,13.813,0,0,1,2.473-7.287,4.07,4.07,0,0,1,6.151-.759,1.507,1.507,0,0,1,.379,1.938c-.617,1.282-1.256,2.554-1.85,3.847a2.049,2.049,0,0,1-2.427,1.2c-.013,0-.03,0-.08.011a10.193,10.193,0,0,0,1.358,7.511c.081-.048.141-.082.2-.119a1.936,1.936,0,0,1,2.333.167q1.633,1.5,3.207,3.073a1.976,1.976,0,0,1,.2,2.4,3.922,3.922,0,0,1-2.871,1.809c-.069.011-.136.031-.2.047Z" transform="translate(263.459 -173.725)" fill="#2a2968"/>
    <path id="Path_636" data-name="Path 636" d="M-204.18,204.921c-.061.342-.1.691-.187,1.026a4.858,4.858,0,0,1-7.247,2.893.746.746,0,0,0-.331-.1c-.746-.049-1.494-.084-2.24-.13a.46.46,0,0,1-.46-.666c.233-.768.475-1.533.7-2.3a1.164,1.164,0,0,0,.05-.443,4.883,4.883,0,0,1,4.079-5.3,4.873,4.873,0,0,1,5.544,4.007c.031.194.059.389.089.584Zm-9.458,2.815c.615.034,1.212.051,1.8.106a1.573,1.573,0,0,1,.641.2,3.842,3.842,0,0,0,4.038.119,3.738,3.738,0,0,0,2.043-3.48,3.742,3.742,0,0,0-2.128-3.476,3.718,3.718,0,0,0-4.025.232,3.745,3.745,0,0,0-1.715,3.646,2.071,2.071,0,0,1-.074.724C-213.23,206.448-213.437,207.082-213.637,207.735Z" transform="translate(222.366 -195.733)" fill="#2a2968"/>
    <path id="Path_637" data-name="Path 637" d="M-233.817,303.05a.451.451,0,0,1-.427.455.453.453,0,0,1-.474-.433.453.453,0,0,1,.428-.455A.453.453,0,0,1-233.817,303.05Z" transform="translate(239.245 -282.313)" fill="#2a2968"/>
    <path id="Path_638" data-name="Path 638" d="M-208.046,212.413c.2-.654.407-1.287.584-1.929a2.071,2.071,0,0,0,.074-.724,3.745,3.745,0,0,1,1.715-3.646,3.718,3.718,0,0,1,4.025-.232,3.742,3.742,0,0,1,2.128,3.476,3.738,3.738,0,0,1-2.043,3.48,3.842,3.842,0,0,1-4.038-.119,1.574,1.574,0,0,0-.641-.2C-206.834,212.465-207.431,212.447-208.046,212.413Zm3.388-2.9a.45.45,0,0,0-.437-.446.45.45,0,0,0-.464.443.464.464,0,0,0,.462.452A.462.462,0,0,0-204.658,209.512Zm1.773.008a.443.443,0,0,0-.45-.454.45.45,0,0,0-.448.436.463.463,0,0,0,.454.459A.451.451,0,0,0-202.885,209.52Zm1.329.441a.447.447,0,0,0,.445-.436.44.44,0,0,0-.443-.458.441.441,0,0,0-.447.431A.452.452,0,0,0-201.555,209.961Z" transform="translate(216.774 -200.411)" fill="#ffdc55"/>
    <path id="Path_639" data-name="Path 639" d="M-191.355,229.122a.462.462,0,0,1-.44.449.464.464,0,0,1-.462-.452.45.45,0,0,1,.464-.443A.45.45,0,0,1-191.355,229.122Z" transform="translate(203.472 -220.021)" fill="#2a2968"/>
    <path id="Path_640" data-name="Path 640" d="M-180.079,229.129a.451.451,0,0,1-.443.441.463.463,0,0,1-.454-.459.45.45,0,0,1,.448-.436A.443.443,0,0,1-180.079,229.129Z" transform="translate(193.969 -220.02)" fill="#2a2968"/>
    <path id="Path_641" data-name="Path 641" d="M-169.218,229.571a.452.452,0,0,1-.445-.463.441.441,0,0,1,.447-.431.44.44,0,0,1,.443.458A.447.447,0,0,1-169.218,229.571Z" transform="translate(184.437 -220.021)" fill="#2a2968"/>
  </g>
</svg>
