<svg xmlns="http://www.w3.org/2000/svg" width="120.948" height="120.901" viewBox="0 0 120.948 120.901">
  <g id="Group_573" data-name="Group 573" transform="translate(187.971 175.443) rotate(-6)">
    <path id="Path_786" data-name="Path 786" d="M-125.433-140.906a57.159,57.159,0,0,0,.052,5.958c.146,1.38,4.726,12.172,3.8,13.094-9.6,9.542-27.307,27.315-27.307,27.315v7.184l6.418,2.869s3.117.4,7.565-4.011c5.212-5.166,19.44-19.437,24.631-24.625l7.843,2.766-11.726,14.949a2.73,2.73,0,0,1,3.543.209,2.772,2.772,0,0,1,.341,3.622,5.646,5.646,0,0,1-.641.72c-5.239,5.242-10.456,10.506-15.726,15.715a23.045,23.045,0,0,1-29.058,3.1,22.7,22.7,0,0,1-3.958-34.541c7.279-7.6,14.843-14.926,22.281-22.372q5.655-5.661,11.306-11.325a4.112,4.112,0,0,0,.531-.917Z" transform="translate(-0.725 -7.677)" fill="#d2ebf7"/>
    <circle id="Ellipse_118" data-name="Ellipse 118" cx="25" cy="25" r="25" transform="translate(-124.003 -168.689)" fill="#ffdc55"/>
    <path id="Path_782" data-name="Path 782" d="M-169.8-101.054c.252-1.294.451-2.6.764-3.881a26.506,26.506,0,0,1,7.313-12.651q18.6-18.546,37.139-37.147a7.478,7.478,0,0,0,1.3-1.805,27.546,27.546,0,0,1,10.584-11.136,3.367,3.367,0,0,0,1.282-1.436c2.5-5.642,6.139-10.186,12.108-12.368a28.534,28.534,0,0,1,5.538-1.164,4.305,4.305,0,0,1,3.645,1.235c4.345,4.063,7.168,8.877,7.4,14.98a1.657,1.657,0,0,0,.473.981q2.582,2.643,5.23,5.22a1.816,1.816,0,0,0,1.076.487c6.172.3,11.052,3.156,15.082,7.643,1.552,1.729,1.152,3.826.762,5.838-1.325,6.834-5.569,11.4-11.6,14.4a9.2,9.2,0,0,0-4.1,3.6,24.262,24.262,0,0,1-8.245,8.009c-1.094.677-1.988.582-2.545-.253-.579-.87-.272-1.761.857-2.484a23.818,23.818,0,0,0,10.849-24.78,24.73,24.73,0,0,0-19.586-19.714,23.586,23.586,0,0,0-27.96,18.174c-3.05,13.761,6.884,27.832,20.858,29.573a25.87,25.87,0,0,0,9.586-.557,2.581,2.581,0,0,1,1.809.215A1.926,1.926,0,0,1-89.6-118.6c-.007.823-.685,1.187-1.423,1.386a28.919,28.919,0,0,1-9.792.852,1.532,1.532,0,0,0-1.064.231c-3.164,3.11-6.292,6.256-9.5,9.465.276.155.475.277.683.381a5.968,5.968,0,0,1,1.689,9.653c-2.16,2.244-4.4,4.415-6.6,6.618-2.987,2.988-6,5.952-8.956,8.969a26.46,26.46,0,0,1-16.91,8.2,3.8,3.8,0,0,0-.614.162h-3.653a5.959,5.959,0,0,0-.709-.183c-11.087-1.47-18.47-7.516-22.14-18.05a47.172,47.172,0,0,1-1.218-5.4Zm64.25-16.086c-1.526-.6-3.023-1.088-4.414-1.786a1.429,1.429,0,0,0-1.992.384c-3.409,3.478-6.872,6.9-10.317,10.347-5.166,5.164-10.3,10.362-15.512,15.481a8.429,8.429,0,0,1-11.975-.011,8.471,8.471,0,0,1,.04-11.981c.945-.979,1.921-1.927,2.883-2.89q2.507-2.506,5.017-5.01a1.4,1.4,0,0,1,1.935-.281,2.5,2.5,0,0,1,.773,1.593c.033.392-.391.893-.725,1.233-2.488,2.526-5,5.023-7.512,7.529a5.053,5.053,0,0,0-1.473,5.106c1.068,4.114,5.9,5.305,9,2.213q12.664-12.633,25.3-25.3a4.418,4.418,0,0,0,.359-.413l-7.475-7.48a7.587,7.587,0,0,1-.626.782q-6.03,6.049-12.076,12.082a5.451,5.451,0,0,1-.786.725,1.508,1.508,0,0,1-2.055-.156,1.506,1.506,0,0,1-.164-2.055,5.458,5.458,0,0,1,.727-.786q6.456-6.459,12.906-12.924c.245-.247.572-.715.487-.94-.654-1.749-1.4-3.464-2.121-5.2a2.225,2.225,0,0,0-.28.2c-9.467,9.474-18.984,18.9-28.37,28.453A13.009,13.009,0,0,0-157.41-95.61,13.281,13.281,0,0,0-147.7-85.263a13.363,13.363,0,0,0,13.855-3.526c9.286-9.2,18.5-18.47,27.741-27.715C-105.912-116.7-105.749-116.914-105.555-117.14Zm-20.6-31.443-.109-.294a4.112,4.112,0,0,1-.531.917q-5.639,5.677-11.306,11.325c-7.438,7.446-15,14.774-22.281,22.372a22.7,22.7,0,0,0,3.958,34.541,23.045,23.045,0,0,0,29.058-3.1c5.27-5.209,10.488-10.473,15.726-15.715a5.646,5.646,0,0,0,.641-.72,2.772,2.772,0,0,0-.341-3.622,2.73,2.73,0,0,0-3.543-.209,8.527,8.527,0,0,0-.949.869c-5.191,5.187-10.363,10.4-15.575,15.562a16.611,16.611,0,0,1-15.929,4.8,16.3,16.3,0,0,1-12.875-11.779,16.321,16.321,0,0,1,4.184-17.134c9.494-9.643,19.094-19.181,28.69-28.723a3.453,3.453,0,0,0,1.232-3.131A57.159,57.159,0,0,1-126.158-148.583Zm39.9-19.449a2.5,2.5,0,0,0,.073-.415,2.779,2.779,0,0,0-.058-.533A18.793,18.793,0,0,0-92.306-179a1.807,1.807,0,0,0-1.368-.41,30.491,30.491,0,0,0-5.666,1.472c-3.6,1.545-6.051,4.384-8.065,7.943A28.107,28.107,0,0,1-86.261-168.032ZM-72.4-135.3c.1.042.135.073.157.064,4.895-2.011,9.222-8.382,9.2-13.625a2.33,2.33,0,0,0-.548-1.433,18.881,18.881,0,0,0-8.921-5.675c-.592-.167-1.208-.245-2.011-.4A27.947,27.947,0,0,1-72.4-135.3Z" fill="#2a2968"/>
    <path id="Path_783" data-name="Path 783" d="M-93.186-137.457a23.161,23.161,0,0,1,1.363-2.941,1.573,1.573,0,0,1,2.4-.541c.777.578.833,1.457.156,2.459-.788,1.167-.5,2.471.72,2.763a2.409,2.409,0,0,0,1.671-.333c.827-.526,1.583-.742,2.326-.015a1.593,1.593,0,0,1,.023,2.313,1.712,1.712,0,0,0,.055,2.417,1.7,1.7,0,0,0,2.341.055c1.043-.738,1.951-.658,2.523.17.541.782.317,1.672-.61,2.42a4.925,4.925,0,0,1-7.845-2.688c-.164-.691-.38-.988-1.1-1.138A5.3,5.3,0,0,1-93.186-137.457Z" transform="translate(-14.178 -7.661)" fill="#2a2968"/>
    <path id="Path_784" data-name="Path 784" d="M-93.554-151.859c1.271,0,2.187,1.315,1.514,2.238a13.154,13.154,0,0,1-2.789,2.736,1.788,1.788,0,0,1-1.67-.359,1.785,1.785,0,0,1-.3-1.68,24.28,24.28,0,0,1,2.741-2.793C-93.924-151.844-93.658-151.833-93.554-151.859Z" transform="translate(-13.489 -5.705)" fill="#2a2968"/>
    <path id="Path_785" data-name="Path 785" d="M-70.631-121.587c-.3-.251-.913-.52-1.077-.957a2.028,2.028,0,0,1,.134-1.658,14.1,14.1,0,0,1,2.24-2.28,1.294,1.294,0,0,1,1.925.067c.356.452.68,1.438.443,1.759a23.733,23.733,0,0,1-2.8,2.877C-69.9-121.656-70.171-121.683-70.631-121.587Z" transform="translate(-18.131 -10.328)" fill="#2a2968"/>
    <path id="Path_787" data-name="Path 787" d="M-72.092-167.291a28.107,28.107,0,0,0-21.145-1.959c2.014-3.558,4.468-6.4,8.065-7.943a30.491,30.491,0,0,1,5.666-1.472,1.807,1.807,0,0,1,1.368.41,18.793,18.793,0,0,1,6.061,10.016,2.779,2.779,0,0,1,.058.533A2.5,2.5,0,0,1-72.092-167.291Z" transform="translate(-14.168 -0.741)" fill="#ffdc55"/>
    <path id="Path_788" data-name="Path 788" d="M-50.767-129.326A27.947,27.947,0,0,0-52.888-150.4c.8.158,1.42.236,2.011.4a18.881,18.881,0,0,1,8.921,5.675,2.33,2.33,0,0,1,.548,1.433c.02,5.243-4.308,11.614-9.2,13.625C-50.632-129.253-50.67-129.284-50.767-129.326Z" transform="translate(-21.635 -5.975)" fill="#ffdc55"/>
  </g>
</svg>
