<svg xmlns="http://www.w3.org/2000/svg" width="25.611" height="25.359" viewBox="0 0 25.611 25.359">
  <g id="Group_571" data-name="Group 571" transform="translate(-339.501 54.45)">
    <path id="Path_767" data-name="Path 767" d="M377.2-48.355v15.514H362.564v-.3q0-3.322,0-6.644a2.172,2.172,0,0,0-.007-.27.335.335,0,0,0-.326-.311.333.333,0,0,0-.373.253.93.93,0,0,0-.028.266q0,3.481,0,6.962c0,.555.235.788.792.788h6.511l0,.038c-2.731.468-6.928,3.79-9.691,4.264L353.66-45.055l4.23-1.46v-1.722l3.938-.678v.3q0,3.346,0,6.693a1.244,1.244,0,0,0,.018.292.336.336,0,0,0,.375.281.332.332,0,0,0,.337-.323,2.406,2.406,0,0,0,.006-.269v-9.529h11.213c0,.209,0,.41,0,.612,0,.523,0,1.046,0,1.569a.836.836,0,0,0,.887.922c.743.019,1.487.009,2.231.012Zm-7.271,7.437h5.1a1.709,1.709,0,0,0,.22,0,.358.358,0,0,0,.34-.355.365.365,0,0,0-.346-.374,1.844,1.844,0,0,0-.2,0H364.879a1.062,1.062,0,0,0-.244.011.344.344,0,0,0-.288.348.345.345,0,0,0,.3.367,1.115,1.115,0,0,0,.244.009Zm.023-3.343q-2.584,0-5.169,0c-.277,0-.434.128-.443.348s.159.377.438.387c.041,0,.082,0,.122,0q5.059,0,10.118,0a.637.637,0,0,0,.332-.044.492.492,0,0,0,.221-.312.5.5,0,0,0-.193-.33c-.068-.057-.2-.046-.305-.046Q372.517-44.263,369.957-44.261Zm-.008,5.951q2.609,0,5.218,0a.374.374,0,0,0,.424-.344c.011-.215-.156-.373-.413-.389-.049,0-.1,0-.147,0q-5.071,0-10.142,0a.976.976,0,0,0-.29.03.35.35,0,0,0-.133.6.634.634,0,0,0,.363.1C366.536-38.308,368.242-38.31,369.949-38.31Zm.037-7.833h5.022c.4,0,.58-.113.583-.363s-.181-.373-.574-.373H364.925c-.4,0-.577.109-.58.364s.172.372.571.372Zm0,9.721h-5.071c-.09,0-.2-.028-.264.015a.722.722,0,0,0-.29.31.3.3,0,0,0,.229.376.96.96,0,0,0,.29.033q5.083,0,10.166,0a1.155,1.155,0,0,0,.267-.023.332.332,0,0,0,.276-.355.335.335,0,0,0-.313-.348,2.013,2.013,0,0,0-.269-.008Z" transform="translate(-13.094 -1.971)" fill="#ffdc55"/>
    <path id="Path_766" data-name="Path 766" d="M339.751-47.155a1.078,1.078,0,0,1,.662-.488c1.2-.4,2.392-.819,3.588-1.23l.261-.093c-.063-.361-.122-.706-.183-1.05-.1-.577.069-.826.644-.925l4.011-.691v-1c0-.294-.006-.589,0-.883a.634.634,0,0,1,.653-.677c.081-.006.163,0,.245,0q5.675,0,11.35,0a1.066,1.066,0,0,1,.808.319c.918.9,1.85,1.778,2.784,2.657a.843.843,0,0,1,.286.666q-.009,7.845,0,15.689c0,.577-.224.8-.8.8-1.03,0-2.063-.052-3.088.017a9.009,9.009,0,0,0-2.349.412c-3.935,1.373-7.85,2.8-11.772,4.213-.53.191-.813.057-1-.475q-1.379-3.834-2.757-7.668a1.6,1.6,0,0,1-.06-.186.358.358,0,0,1,.23-.453.349.349,0,0,1,.456.22c.156.4.3.812.444,1.218l2.316,6.448c.022.061.048.12.087.216l8.047-2.893-.01-.038q-1.059.18-2.118.36-2.317.4-4.633.8a.619.619,0,0,1-.75-.555q-.393-2.255-.778-4.512-.7-4.078-1.4-8.157c-.176-1.029-.354-2.058-.538-3.129L340.52-46.9c.129.365.249.708.372,1.05Q342-42.779,343.1-39.705a1.175,1.175,0,0,1,.069.209.347.347,0,0,1-.234.409.334.334,0,0,1-.427-.142,1.292,1.292,0,0,1-.113-.27L339.8-46.7a1,1,0,0,0-.053-.107Zm24.359-3.171H363.8c-.744,0-1.487.008-2.231-.012a.836.836,0,0,1-.887-.922c0-.523,0-1.046,0-1.569,0-.2,0-.4,0-.612H349.47v9.529a2.413,2.413,0,0,1-.006.269.332.332,0,0,1-.337.323.336.336,0,0,1-.375-.281,1.243,1.243,0,0,1-.018-.292q0-3.347,0-6.693v-.3l-3.938.678,3.017,17.593,8.227-1.411,0-.038h-6.511c-.557,0-.792-.233-.792-.788q0-3.481,0-6.962a.93.93,0,0,1,.028-.266.333.333,0,0,1,.373-.253.335.335,0,0,1,.326.311,2.178,2.178,0,0,1,.007.27q0,3.322,0,6.644v.3H364.11Zm-.446-.745-2.24-2.134c0,.7,0,1.352.007,2,0,.046.1.128.161.129C362.26-51.068,362.927-51.072,363.664-51.072Z" fill="#2a2968" stroke="#25235a" stroke-width="0.5"/>
    <path id="Path_768" data-name="Path 768" d="M419.916-48.492c-.737,0-1.4,0-2.072-.006-.057,0-.16-.083-.161-.128-.011-.648-.007-1.3-.007-2Z" transform="translate(-56.252 -2.58)" fill="#ffdc55"/>
    <path id="Path_769" data-name="Path 769" d="M386.692-15.445h-5.047a1.115,1.115,0,0,1-.244-.009.345.345,0,0,1-.3-.367.344.344,0,0,1,.288-.348,1.062,1.062,0,0,1,.244-.011h10.168a1.842,1.842,0,0,1,.2,0,.365.365,0,0,1,.346.374.358.358,0,0,1-.34.355,1.71,1.71,0,0,1-.22,0Z" transform="translate(-29.852 -27.445)" fill="#2a2968" stroke="#25235a" stroke-width="0.5"/>
    <path id="Path_770" data-name="Path 770" d="M386.71-25.554q2.56,0,5.12,0c.1,0,.238-.011.305.046a.5.5,0,0,1,.193.33.492.492,0,0,1-.221.312.637.637,0,0,1-.332.044q-5.059,0-10.118,0c-.041,0-.081,0-.122,0-.278-.01-.447-.159-.437-.387s.165-.348.443-.348Q384.126-25.555,386.71-25.554Z" transform="translate(-29.847 -20.679)" fill="#2a2968" stroke="#25235a" stroke-width="0.5"/>
    <path id="Path_771" data-name="Path 771" d="M386.691-6.066c-1.707,0-3.413,0-5.12,0a.634.634,0,0,1-.363-.1.35.35,0,0,1,.133-.6.976.976,0,0,1,.29-.03q5.071,0,10.143,0c.049,0,.1,0,.147,0,.258.016.424.174.413.389a.374.374,0,0,1-.424.344Q389.3-6.064,386.691-6.066Z" transform="translate(-29.836 -34.215)" fill="#2a2968" stroke="#25235a" stroke-width="0.5"/>
    <path id="Path_772" data-name="Path 772" d="M386.739-34.23h-5.071c-.4,0-.575-.116-.571-.372s.177-.364.58-.364H391.77c.393,0,.577.12.574.373s-.184.363-.583.363Z" transform="translate(-29.847 -13.885)" fill="#2a2968" stroke="#25235a" stroke-width="0.5"/>
    <path id="Path_773" data-name="Path 773" d="M386.736,2.608h5.022a2.014,2.014,0,0,1,.269.008.335.335,0,0,1,.313.348.332.332,0,0,1-.276.355,1.156,1.156,0,0,1-.267.023q-5.083,0-10.166,0a.96.96,0,0,1-.29-.033.3.3,0,0,1-.229-.376.722.722,0,0,1,.29-.31c.062-.043.175-.015.264-.015Z" transform="translate(-29.847 -41.002)" fill="#2a2968" stroke="#25235a" stroke-width="0.5"/>
  </g>
</svg>
