<svg width="50" height="50" viewBox="0 0 50 50" fill="none" xmlns="http://www.w3.org/2000/svg">
<mask id="path-1-outside-1_306_352" maskUnits="userSpaceOnUse" x="4" y="4" width="42" height="42" fill="black">
<rect fill="white" x="4" y="4" width="42" height="42"/>
<path d="M5.01507 9.13584C5.15979 8.77385 5.25626 8.38771 5.44921 8.06191C5.94365 7.20518 6.70339 6.72251 7.69226 6.61391C7.84903 6.60185 8.0058 6.57771 8.21081 6.55358C8.21081 6.28812 8.19875 6.03472 8.21081 5.78132C8.23493 5.35898 8.48818 5.04525 8.91025 5.03318C9.58558 4.99698 10.2609 4.97285 10.9362 5.05732C12.1181 5.21418 12.9622 6.30018 12.8899 7.45858C12.8175 8.68938 11.8648 9.64264 10.6468 9.69091C10.1162 9.71504 9.57352 9.70298 9.04291 9.69091C8.48818 9.67884 8.21081 9.40131 8.19875 8.84625C8.18669 8.62905 8.19875 8.41185 8.19875 8.19465C7.39077 7.95331 6.34161 8.84625 6.63103 9.88398C7.04105 11.3682 7.49931 12.8282 7.9455 14.3004C7.98168 14.3969 8.09022 14.5055 8.19875 14.5538C9.25998 15.0002 9.76647 15.7966 9.76647 16.9309C9.76647 18.2944 9.75441 19.67 9.76647 21.0336C9.80265 23.5676 11.7201 25.45 14.1923 25.4017C16.4233 25.3534 18.3166 23.4952 18.3648 21.2628C18.401 19.8148 18.3769 18.3668 18.3769 16.9309C18.3769 15.8087 18.8834 15.0244 19.9205 14.5779C20.029 14.5296 20.1496 14.409 20.1858 14.2883C20.6199 12.8765 21.0541 11.4526 21.4641 10.0288C21.7535 9.00311 21.042 8.13431 19.9446 8.17051C19.9446 8.41185 19.9566 8.65318 19.9446 8.89451C19.9325 9.40131 19.6431 9.69091 19.1366 9.70298C18.6301 9.71504 18.1236 9.71504 17.6171 9.70298C16.2906 9.67884 15.2655 8.67731 15.2655 7.39825C15.2414 6.07092 16.2424 5.04525 17.581 5.00905C18.0633 4.99698 18.5457 4.99698 19.0281 5.00905C19.6431 5.02112 19.9325 5.31072 19.9446 5.92612C19.9446 6.13125 19.9446 6.33638 19.9446 6.52945C20.3184 6.60185 20.6802 6.62598 21.0058 6.73458C22.5856 7.21725 23.4298 8.85831 22.9474 10.5114C22.5735 11.8146 22.1756 13.1058 21.7897 14.3969C21.7656 14.4693 21.7535 14.5417 21.7294 14.6382C22.3806 15.0123 22.863 15.5191 23.0077 16.2793C23.0438 16.4724 23.068 16.6654 23.068 16.8585C23.068 18.2703 23.08 19.67 23.068 21.0818C23.0438 25.0759 20.5476 28.4787 16.7489 29.6974C16.6524 29.7336 16.5559 29.7578 16.4112 29.806C16.4112 30.1439 16.4233 30.4938 16.4112 30.8438C16.3871 31.8091 15.965 32.5452 15.0967 32.9916C14.8676 33.1002 14.8314 33.233 14.8555 33.4502C15.1208 37.5769 17.0865 40.6419 20.7887 42.4277C27.0114 45.4203 34.235 41.6434 35.453 34.8499C35.5735 34.1741 35.5977 33.4743 35.6097 32.7865C35.6338 31.4471 35.6097 30.1077 35.6218 28.7562C35.6218 28.5149 35.5615 28.3942 35.3324 28.2736C34.5003 27.8392 34.0661 27.1393 34.042 26.1981C34.0299 25.6792 34.0179 25.1604 34.042 24.6294C34.0541 24.3519 33.9455 24.2554 33.7043 24.1709C30.6051 23.0608 28.6394 20.9129 27.94 17.6911C26.8667 12.7438 30.5086 7.84471 35.5615 7.41031C40.1441 7.01211 44.1719 10.1374 44.8955 14.6744C45.5467 18.753 43.0986 22.8074 39.1431 24.1347C38.8175 24.2433 38.6969 24.376 38.709 24.726C38.7331 25.3172 38.7331 25.9326 38.6728 26.5239C38.5884 27.3203 38.1422 27.9116 37.4428 28.2615C37.1895 28.3822 37.1533 28.539 37.1533 28.7683C37.1413 30.4818 37.2377 32.2194 37.081 33.9207C36.6468 38.7957 34.0782 42.1864 29.6162 44.1412C28.5188 44.6239 27.337 44.8773 26.1431 44.9497C26.0466 44.9617 25.9381 44.9979 25.8416 45.01C25.3954 45.01 24.9613 45.01 24.5151 45.01C24.2016 44.9617 23.8759 44.9135 23.5624 44.8652C17.8101 44.0809 13.4325 39.2059 13.2758 33.414C13.2637 33.1968 13.2155 33.0761 12.9984 32.9675C12.2507 32.5934 11.8045 31.978 11.708 31.1334C11.6719 30.8196 11.6719 30.5059 11.696 30.1922C11.7201 29.8905 11.6357 29.7457 11.3101 29.6492C7.77667 28.5632 5.22008 25.3052 5.05125 21.6007C4.9789 19.9717 4.99096 18.3427 5.03919 16.7137C5.05125 16.2552 5.25626 15.7846 5.48539 15.3743C5.66628 15.0485 6.02806 14.8313 6.34161 14.5296C5.94365 13.0937 5.47333 11.5854 5.01507 10.065C5.01507 9.75124 5.01507 9.44958 5.01507 9.13584ZM43.4483 15.9656C43.4483 12.0801 40.2767 8.90658 36.3936 8.90658C32.5105 8.90658 29.3388 12.0922 29.3388 15.9776C29.3388 19.8631 32.5225 23.0366 36.4056 23.0366C40.2888 23.0366 43.4604 19.8631 43.4483 15.9656ZM21.6088 19.2598C21.5726 19.2598 21.5364 19.2477 21.5002 19.2477C21.5002 18.4272 21.5123 17.6066 21.5002 16.7861C21.4882 16.2793 21.1264 15.9535 20.644 16.0018C20.2099 16.038 19.9446 16.3638 19.9446 16.8826C19.9446 18.3548 19.9687 19.8269 19.9325 21.299C19.8602 24.8949 16.375 27.622 12.8657 26.8376C10.1041 26.2222 8.23493 23.9296 8.19875 21.106C8.18669 19.7062 8.19875 18.3186 8.19875 16.9188C8.19875 16.3879 7.9455 16.0621 7.53549 16.0018C6.99281 15.9294 6.63103 16.2793 6.63103 16.8947C6.61897 18.3186 6.60691 19.7304 6.63103 21.1542C6.71545 24.726 9.04291 27.5616 12.5281 28.358C13.0587 28.4787 13.2758 28.7442 13.2878 29.2872C13.2999 29.7819 13.2878 30.2766 13.2878 30.7714C13.2999 31.3144 13.5893 31.6522 14.0717 31.6522C14.542 31.6522 14.8555 31.3144 14.8555 30.7834C14.8676 30.3128 14.8555 29.8422 14.8555 29.3716C14.8555 28.708 15.0364 28.5149 15.6756 28.346C18.5698 27.6099 20.4993 25.812 21.2349 22.916C21.5364 21.7455 21.5002 20.4785 21.6088 19.2598ZM35.6218 24.5932C35.6218 25.1483 35.6097 25.6913 35.6218 26.2343C35.6338 26.6446 35.9474 26.9462 36.3453 26.9704C36.7433 26.9945 37.1171 26.7411 37.1533 26.3429C37.2016 25.7637 37.1654 25.1845 37.1654 24.6053C36.6468 24.5932 36.1524 24.5932 35.6218 24.5932ZM18.3648 6.56565C17.8221 6.58978 17.2674 6.39672 16.9177 6.96385C16.7489 7.24138 16.7609 7.54305 16.9539 7.80851C17.3277 8.31531 17.8583 8.09811 18.3648 8.13431C18.3648 7.60338 18.3648 7.10865 18.3648 6.56565ZM9.76647 8.13431C10.2971 8.09811 10.8639 8.31531 11.2136 7.74818C11.3945 7.44651 11.3704 7.13278 11.1533 6.87938C10.7795 6.42085 10.2609 6.60185 9.77853 6.58978C9.76647 7.10865 9.76647 7.59131 9.76647 8.13431Z"/>
</mask>
<path d="M5.01507 9.13584C5.15979 8.77385 5.25626 8.38771 5.44921 8.06191C5.94365 7.20518 6.70339 6.72251 7.69226 6.61391C7.84903 6.60185 8.0058 6.57771 8.21081 6.55358C8.21081 6.28812 8.19875 6.03472 8.21081 5.78132C8.23493 5.35898 8.48818 5.04525 8.91025 5.03318C9.58558 4.99698 10.2609 4.97285 10.9362 5.05732C12.1181 5.21418 12.9622 6.30018 12.8899 7.45858C12.8175 8.68938 11.8648 9.64264 10.6468 9.69091C10.1162 9.71504 9.57352 9.70298 9.04291 9.69091C8.48818 9.67884 8.21081 9.40131 8.19875 8.84625C8.18669 8.62905 8.19875 8.41185 8.19875 8.19465C7.39077 7.95331 6.34161 8.84625 6.63103 9.88398C7.04105 11.3682 7.49931 12.8282 7.9455 14.3004C7.98168 14.3969 8.09022 14.5055 8.19875 14.5538C9.25998 15.0002 9.76647 15.7966 9.76647 16.9309C9.76647 18.2944 9.75441 19.67 9.76647 21.0336C9.80265 23.5676 11.7201 25.45 14.1923 25.4017C16.4233 25.3534 18.3166 23.4952 18.3648 21.2628C18.401 19.8148 18.3769 18.3668 18.3769 16.9309C18.3769 15.8087 18.8834 15.0244 19.9205 14.5779C20.029 14.5296 20.1496 14.409 20.1858 14.2883C20.6199 12.8765 21.0541 11.4526 21.4641 10.0288C21.7535 9.00311 21.042 8.13431 19.9446 8.17051C19.9446 8.41185 19.9566 8.65318 19.9446 8.89451C19.9325 9.40131 19.6431 9.69091 19.1366 9.70298C18.6301 9.71504 18.1236 9.71504 17.6171 9.70298C16.2906 9.67884 15.2655 8.67731 15.2655 7.39825C15.2414 6.07092 16.2424 5.04525 17.581 5.00905C18.0633 4.99698 18.5457 4.99698 19.0281 5.00905C19.6431 5.02112 19.9325 5.31072 19.9446 5.92612C19.9446 6.13125 19.9446 6.33638 19.9446 6.52945C20.3184 6.60185 20.6802 6.62598 21.0058 6.73458C22.5856 7.21725 23.4298 8.85831 22.9474 10.5114C22.5735 11.8146 22.1756 13.1058 21.7897 14.3969C21.7656 14.4693 21.7535 14.5417 21.7294 14.6382C22.3806 15.0123 22.863 15.5191 23.0077 16.2793C23.0438 16.4724 23.068 16.6654 23.068 16.8585C23.068 18.2703 23.08 19.67 23.068 21.0818C23.0438 25.0759 20.5476 28.4787 16.7489 29.6974C16.6524 29.7336 16.5559 29.7578 16.4112 29.806C16.4112 30.1439 16.4233 30.4938 16.4112 30.8438C16.3871 31.8091 15.965 32.5452 15.0967 32.9916C14.8676 33.1002 14.8314 33.233 14.8555 33.4502C15.1208 37.5769 17.0865 40.6419 20.7887 42.4277C27.0114 45.4203 34.235 41.6434 35.453 34.8499C35.5735 34.1741 35.5977 33.4743 35.6097 32.7865C35.6338 31.4471 35.6097 30.1077 35.6218 28.7562C35.6218 28.5149 35.5615 28.3942 35.3324 28.2736C34.5003 27.8392 34.0661 27.1393 34.042 26.1981C34.0299 25.6792 34.0179 25.1604 34.042 24.6294C34.0541 24.3519 33.9455 24.2554 33.7043 24.1709C30.6051 23.0608 28.6394 20.9129 27.94 17.6911C26.8667 12.7438 30.5086 7.84471 35.5615 7.41031C40.1441 7.01211 44.1719 10.1374 44.8955 14.6744C45.5467 18.753 43.0986 22.8074 39.1431 24.1347C38.8175 24.2433 38.6969 24.376 38.709 24.726C38.7331 25.3172 38.7331 25.9326 38.6728 26.5239C38.5884 27.3203 38.1422 27.9116 37.4428 28.2615C37.1895 28.3822 37.1533 28.539 37.1533 28.7683C37.1413 30.4818 37.2377 32.2194 37.081 33.9207C36.6468 38.7957 34.0782 42.1864 29.6162 44.1412C28.5188 44.6239 27.337 44.8773 26.1431 44.9497C26.0466 44.9617 25.9381 44.9979 25.8416 45.01C25.3954 45.01 24.9613 45.01 24.5151 45.01C24.2016 44.9617 23.8759 44.9135 23.5624 44.8652C17.8101 44.0809 13.4325 39.2059 13.2758 33.414C13.2637 33.1968 13.2155 33.0761 12.9984 32.9675C12.2507 32.5934 11.8045 31.978 11.708 31.1334C11.6719 30.8196 11.6719 30.5059 11.696 30.1922C11.7201 29.8905 11.6357 29.7457 11.3101 29.6492C7.77667 28.5632 5.22008 25.3052 5.05125 21.6007C4.9789 19.9717 4.99096 18.3427 5.03919 16.7137C5.05125 16.2552 5.25626 15.7846 5.48539 15.3743C5.66628 15.0485 6.02806 14.8313 6.34161 14.5296C5.94365 13.0937 5.47333 11.5854 5.01507 10.065C5.01507 9.75124 5.01507 9.44958 5.01507 9.13584ZM43.4483 15.9656C43.4483 12.0801 40.2767 8.90658 36.3936 8.90658C32.5105 8.90658 29.3388 12.0922 29.3388 15.9776C29.3388 19.8631 32.5225 23.0366 36.4056 23.0366C40.2888 23.0366 43.4604 19.8631 43.4483 15.9656ZM21.6088 19.2598C21.5726 19.2598 21.5364 19.2477 21.5002 19.2477C21.5002 18.4272 21.5123 17.6066 21.5002 16.7861C21.4882 16.2793 21.1264 15.9535 20.644 16.0018C20.2099 16.038 19.9446 16.3638 19.9446 16.8826C19.9446 18.3548 19.9687 19.8269 19.9325 21.299C19.8602 24.8949 16.375 27.622 12.8657 26.8376C10.1041 26.2222 8.23493 23.9296 8.19875 21.106C8.18669 19.7062 8.19875 18.3186 8.19875 16.9188C8.19875 16.3879 7.9455 16.0621 7.53549 16.0018C6.99281 15.9294 6.63103 16.2793 6.63103 16.8947C6.61897 18.3186 6.60691 19.7304 6.63103 21.1542C6.71545 24.726 9.04291 27.5616 12.5281 28.358C13.0587 28.4787 13.2758 28.7442 13.2878 29.2872C13.2999 29.7819 13.2878 30.2766 13.2878 30.7714C13.2999 31.3144 13.5893 31.6522 14.0717 31.6522C14.542 31.6522 14.8555 31.3144 14.8555 30.7834C14.8676 30.3128 14.8555 29.8422 14.8555 29.3716C14.8555 28.708 15.0364 28.5149 15.6756 28.346C18.5698 27.6099 20.4993 25.812 21.2349 22.916C21.5364 21.7455 21.5002 20.4785 21.6088 19.2598ZM35.6218 24.5932C35.6218 25.1483 35.6097 25.6913 35.6218 26.2343C35.6338 26.6446 35.9474 26.9462 36.3453 26.9704C36.7433 26.9945 37.1171 26.7411 37.1533 26.3429C37.2016 25.7637 37.1654 25.1845 37.1654 24.6053C36.6468 24.5932 36.1524 24.5932 35.6218 24.5932ZM18.3648 6.56565C17.8221 6.58978 17.2674 6.39672 16.9177 6.96385C16.7489 7.24138 16.7609 7.54305 16.9539 7.80851C17.3277 8.31531 17.8583 8.09811 18.3648 8.13431C18.3648 7.60338 18.3648 7.10865 18.3648 6.56565ZM9.76647 8.13431C10.2971 8.09811 10.8639 8.31531 11.2136 7.74818C11.3945 7.44651 11.3704 7.13278 11.1533 6.87938C10.7795 6.42085 10.2609 6.60185 9.77853 6.58978C9.76647 7.10865 9.76647 7.59131 9.76647 8.13431Z" fill="#2A2968"/>
<path d="M5.01507 9.13584C5.15979 8.77385 5.25626 8.38771 5.44921 8.06191C5.94365 7.20518 6.70339 6.72251 7.69226 6.61391C7.84903 6.60185 8.0058 6.57771 8.21081 6.55358C8.21081 6.28812 8.19875 6.03472 8.21081 5.78132C8.23493 5.35898 8.48818 5.04525 8.91025 5.03318C9.58558 4.99698 10.2609 4.97285 10.9362 5.05732C12.1181 5.21418 12.9622 6.30018 12.8899 7.45858C12.8175 8.68938 11.8648 9.64264 10.6468 9.69091C10.1162 9.71504 9.57352 9.70298 9.04291 9.69091C8.48818 9.67884 8.21081 9.40131 8.19875 8.84625C8.18669 8.62905 8.19875 8.41185 8.19875 8.19465C7.39077 7.95331 6.34161 8.84625 6.63103 9.88398C7.04105 11.3682 7.49931 12.8282 7.9455 14.3004C7.98168 14.3969 8.09022 14.5055 8.19875 14.5538C9.25998 15.0002 9.76647 15.7966 9.76647 16.9309C9.76647 18.2944 9.75441 19.67 9.76647 21.0336C9.80265 23.5676 11.7201 25.45 14.1923 25.4017C16.4233 25.3534 18.3166 23.4952 18.3648 21.2628C18.401 19.8148 18.3769 18.3668 18.3769 16.9309C18.3769 15.8087 18.8834 15.0244 19.9205 14.5779C20.029 14.5296 20.1496 14.409 20.1858 14.2883C20.6199 12.8765 21.0541 11.4526 21.4641 10.0288C21.7535 9.00311 21.042 8.13431 19.9446 8.17051C19.9446 8.41185 19.9566 8.65318 19.9446 8.89451C19.9325 9.40131 19.6431 9.69091 19.1366 9.70298C18.6301 9.71504 18.1236 9.71504 17.6171 9.70298C16.2906 9.67884 15.2655 8.67731 15.2655 7.39825C15.2414 6.07092 16.2424 5.04525 17.581 5.00905C18.0633 4.99698 18.5457 4.99698 19.0281 5.00905C19.6431 5.02112 19.9325 5.31072 19.9446 5.92612C19.9446 6.13125 19.9446 6.33638 19.9446 6.52945C20.3184 6.60185 20.6802 6.62598 21.0058 6.73458C22.5856 7.21725 23.4298 8.85831 22.9474 10.5114C22.5735 11.8146 22.1756 13.1058 21.7897 14.3969C21.7656 14.4693 21.7535 14.5417 21.7294 14.6382C22.3806 15.0123 22.863 15.5191 23.0077 16.2793C23.0438 16.4724 23.068 16.6654 23.068 16.8585C23.068 18.2703 23.08 19.67 23.068 21.0818C23.0438 25.0759 20.5476 28.4787 16.7489 29.6974C16.6524 29.7336 16.5559 29.7578 16.4112 29.806C16.4112 30.1439 16.4233 30.4938 16.4112 30.8438C16.3871 31.8091 15.965 32.5452 15.0967 32.9916C14.8676 33.1002 14.8314 33.233 14.8555 33.4502C15.1208 37.5769 17.0865 40.6419 20.7887 42.4277C27.0114 45.4203 34.235 41.6434 35.453 34.8499C35.5735 34.1741 35.5977 33.4743 35.6097 32.7865C35.6338 31.4471 35.6097 30.1077 35.6218 28.7562C35.6218 28.5149 35.5615 28.3942 35.3324 28.2736C34.5003 27.8392 34.0661 27.1393 34.042 26.1981C34.0299 25.6792 34.0179 25.1604 34.042 24.6294C34.0541 24.3519 33.9455 24.2554 33.7043 24.1709C30.6051 23.0608 28.6394 20.9129 27.94 17.6911C26.8667 12.7438 30.5086 7.84471 35.5615 7.41031C40.1441 7.01211 44.1719 10.1374 44.8955 14.6744C45.5467 18.753 43.0986 22.8074 39.1431 24.1347C38.8175 24.2433 38.6969 24.376 38.709 24.726C38.7331 25.3172 38.7331 25.9326 38.6728 26.5239C38.5884 27.3203 38.1422 27.9116 37.4428 28.2615C37.1895 28.3822 37.1533 28.539 37.1533 28.7683C37.1413 30.4818 37.2377 32.2194 37.081 33.9207C36.6468 38.7957 34.0782 42.1864 29.6162 44.1412C28.5188 44.6239 27.337 44.8773 26.1431 44.9497C26.0466 44.9617 25.9381 44.9979 25.8416 45.01C25.3954 45.01 24.9613 45.01 24.5151 45.01C24.2016 44.9617 23.8759 44.9135 23.5624 44.8652C17.8101 44.0809 13.4325 39.2059 13.2758 33.414C13.2637 33.1968 13.2155 33.0761 12.9984 32.9675C12.2507 32.5934 11.8045 31.978 11.708 31.1334C11.6719 30.8196 11.6719 30.5059 11.696 30.1922C11.7201 29.8905 11.6357 29.7457 11.3101 29.6492C7.77667 28.5632 5.22008 25.3052 5.05125 21.6007C4.9789 19.9717 4.99096 18.3427 5.03919 16.7137C5.05125 16.2552 5.25626 15.7846 5.48539 15.3743C5.66628 15.0485 6.02806 14.8313 6.34161 14.5296C5.94365 13.0937 5.47333 11.5854 5.01507 10.065C5.01507 9.75124 5.01507 9.44958 5.01507 9.13584ZM43.4483 15.9656C43.4483 12.0801 40.2767 8.90658 36.3936 8.90658C32.5105 8.90658 29.3388 12.0922 29.3388 15.9776C29.3388 19.8631 32.5225 23.0366 36.4056 23.0366C40.2888 23.0366 43.4604 19.8631 43.4483 15.9656ZM21.6088 19.2598C21.5726 19.2598 21.5364 19.2477 21.5002 19.2477C21.5002 18.4272 21.5123 17.6066 21.5002 16.7861C21.4882 16.2793 21.1264 15.9535 20.644 16.0018C20.2099 16.038 19.9446 16.3638 19.9446 16.8826C19.9446 18.3548 19.9687 19.8269 19.9325 21.299C19.8602 24.8949 16.375 27.622 12.8657 26.8376C10.1041 26.2222 8.23493 23.9296 8.19875 21.106C8.18669 19.7062 8.19875 18.3186 8.19875 16.9188C8.19875 16.3879 7.9455 16.0621 7.53549 16.0018C6.99281 15.9294 6.63103 16.2793 6.63103 16.8947C6.61897 18.3186 6.60691 19.7304 6.63103 21.1542C6.71545 24.726 9.04291 27.5616 12.5281 28.358C13.0587 28.4787 13.2758 28.7442 13.2878 29.2872C13.2999 29.7819 13.2878 30.2766 13.2878 30.7714C13.2999 31.3144 13.5893 31.6522 14.0717 31.6522C14.542 31.6522 14.8555 31.3144 14.8555 30.7834C14.8676 30.3128 14.8555 29.8422 14.8555 29.3716C14.8555 28.708 15.0364 28.5149 15.6756 28.346C18.5698 27.6099 20.4993 25.812 21.2349 22.916C21.5364 21.7455 21.5002 20.4785 21.6088 19.2598ZM35.6218 24.5932C35.6218 25.1483 35.6097 25.6913 35.6218 26.2343C35.6338 26.6446 35.9474 26.9462 36.3453 26.9704C36.7433 26.9945 37.1171 26.7411 37.1533 26.3429C37.2016 25.7637 37.1654 25.1845 37.1654 24.6053C36.6468 24.5932 36.1524 24.5932 35.6218 24.5932ZM18.3648 6.56565C17.8221 6.58978 17.2674 6.39672 16.9177 6.96385C16.7489 7.24138 16.7609 7.54305 16.9539 7.80851C17.3277 8.31531 17.8583 8.09811 18.3648 8.13431C18.3648 7.60338 18.3648 7.10865 18.3648 6.56565ZM9.76647 8.13431C10.2971 8.09811 10.8639 8.31531 11.2136 7.74818C11.3945 7.44651 11.3704 7.13278 11.1533 6.87938C10.7795 6.42085 10.2609 6.60185 9.77853 6.58978C9.76647 7.10865 9.76647 7.59131 9.76647 8.13431Z" stroke="#2A2968" stroke-width="0.4" mask="url(#path-1-outside-1_306_352)"/>
<path d="M40.9358 13.5247H40.9372C40.9377 13.506 40.9382 13.4877 40.9387 13.4696C40.9413 13.3767 40.9438 13.2899 40.9362 13.1986L40.9358 13.5247ZM40.9358 13.5247V13.6247M40.9358 13.5247V13.6247M40.9358 13.6247V13.7247H40.938M40.9358 13.6247L40.938 13.7247M40.938 13.7247C40.939 13.7506 40.9402 13.7764 40.9414 13.8016C40.9428 13.8292 40.944 13.856 40.9449 13.8816C40.9479 13.9642 40.9476 14.0417 40.9368 14.1173L40.9368 14.1173L40.9366 14.1195C40.8939 14.4717 40.6419 14.7105 40.306 14.7315L40.3056 14.7316C39.9881 14.7527 39.6683 14.5289 39.6276 14.2035L39.6275 14.2027C39.5805 13.8499 39.5803 13.4719 39.6158 13.1044L40.938 13.7247ZM40.3123 14.8313C39.9505 14.8555 39.5766 14.6021 39.5284 14.2159L40.3123 14.8313ZM40.3123 14.8313C40.6982 14.8072 40.9876 14.5297 41.0358 14.1315L40.3123 14.8313ZM29.2262 15.9777L29.2262 15.978C29.2384 19.9183 32.4545 23.1367 36.393 23.1367L36.3933 23.1367C40.3314 23.1244 43.5477 19.9063 43.5477 15.9656C43.5477 12.0249 40.3313 8.80662 36.3809 8.80662C32.4423 8.80662 29.2262 12.0373 29.2262 15.9777ZM36.493 20.9699V20.9336H36.393C36.1734 20.9336 35.9566 20.9391 35.7423 20.9445C35.3228 20.9552 34.9127 20.9656 34.5089 20.934C33.5435 20.8298 32.771 20.0459 32.6329 19.1243L32.6328 19.1236C32.4704 18.0912 32.9565 17.1348 33.8659 16.7082C34.103 16.6025 34.2655 16.4534 34.3845 16.2025C34.5949 15.7818 34.8699 15.4622 35.2062 15.2475C35.5424 15.0327 35.9453 14.9193 36.4171 14.9193C36.8882 14.9193 37.2849 15.0354 37.6184 15.2516C37.9524 15.4682 38.2283 15.7889 38.4514 16.2058L38.4515 16.2061C38.5375 16.3658 38.6709 16.5603 38.8588 16.6474C39.8568 17.1237 40.3736 18.1056 40.1659 19.1559L40.1658 19.1568C39.97 20.1938 39.0955 20.923 37.9936 20.9698C37.6332 20.9778 37.2793 20.9752 36.9255 20.9725C36.7815 20.9714 36.6374 20.9703 36.493 20.9699ZM31.8495 13.1406L31.8496 13.1406L31.8497 13.139C31.8806 12.7986 32.1812 12.5542 32.5219 12.5542C32.8783 12.5542 33.162 12.8143 33.194 13.1863C33.2017 13.2859 33.1992 13.3814 33.1965 13.4824C33.1951 13.5359 33.1937 13.5908 33.1937 13.6488C33.1937 13.6925 33.1945 13.7344 33.1953 13.7752C33.1975 13.8902 33.1995 13.9958 33.1828 14.1042L33.1826 14.1042L33.1821 14.1104C33.1502 14.4605 32.8761 14.721 32.5429 14.7314L32.5429 14.7313L32.5398 14.7315C32.2065 14.7524 31.881 14.4895 31.8497 14.1348L31.8497 14.1348L31.8495 14.1329C31.8141 13.8021 31.8141 13.4714 31.8495 13.1406ZM36.3297 13.1148L36.3271 13.1146C36.008 13.094 35.7654 12.8485 35.7329 12.4941C35.7253 12.3946 35.7278 12.2992 35.7304 12.1983C35.7318 12.1448 35.7332 12.0898 35.7332 12.0319C35.7332 11.9765 35.7317 11.9246 35.7303 11.8751C35.7277 11.7841 35.7253 11.7011 35.7328 11.6186L35.7329 11.6186L35.733 11.6156C35.754 11.2694 36.0023 11.029 36.342 10.9972L36.3423 10.9971C36.673 10.9651 36.9891 11.179 37.0294 11.5013L37.0294 11.5017C37.0768 11.8694 37.0882 12.2577 37.0298 12.6319C36.9795 12.9542 36.6878 13.1474 36.3297 13.1148Z" fill="#FFDC55" stroke="#2A2968" stroke-width="0.2"/>
<path d="M21.6402 19.165L21.7151 19.19L21.7081 19.2686C21.6757 19.6366 21.6564 20.0045 21.637 20.3741C21.624 20.6229 21.6109 20.8725 21.5937 21.1234C21.5514 21.7423 21.4846 22.3588 21.3316 22.9529C20.5862 25.8869 18.627 27.7106 15.7001 28.455C15.3763 28.539 15.2003 28.6233 15.0987 28.7484C14.9983 28.8723 14.9553 29.0557 14.9553 29.3838V29.3865V29.3893V29.392V29.3948V29.3976V29.4003V29.4031V29.4058V29.4086V29.4113V29.4141V29.4169V29.4196V29.4224V29.4251V29.4279V29.4306V29.4334V29.4362V29.4389V29.4417V29.4444V29.4472V29.4499V29.4527V29.4555V29.4582V29.461V29.4637V29.4665V29.4692V29.472V29.4748V29.4775V29.4803V29.483V29.4858V29.4885V29.4913V29.4941V29.4968V29.4996V29.5023V29.5051V29.5078V29.5106V29.5134V29.5161V29.5189V29.5216V29.5244V29.5272V29.5299V29.5327V29.5354V29.5382V29.5409V29.5437V29.5465V29.5492V29.552V29.5547V29.5575V29.5602V29.563V29.5658V29.5685V29.5713V29.574V29.5768V29.5795V29.5823V29.5851V29.5878V29.5906V29.5933V29.5961V29.5988V29.6016V29.6044V29.6071V29.6099V29.6126V29.6154V29.6181V29.6209V29.6237V29.6264V29.6292V29.6319V29.6347V29.6374V29.6402V29.643V29.6457V29.6485V29.6512V29.654V29.6567V29.6595V29.6623V29.665V29.6678V29.6705V29.6733V29.6761V29.6788V29.6816V29.6843V29.6871V29.6898V29.6926V29.6954V29.6981V29.7009V29.7036V29.7064V29.7091V29.7119V29.7147V29.7174V29.7202V29.7229V29.7257V29.7284V29.7312V29.734V29.7367V29.7395V29.7422V29.745V29.7477V29.7505V29.7533V29.756V29.7588V29.7615V29.7643V29.767V29.7698V29.7726V29.7753V29.7781V29.7808V29.7836V29.7863V29.7891V29.7919V29.7946V29.7974V29.8001V29.8029V29.8057V29.8084V29.8112V29.8139V29.8167V29.8194V29.8222V29.825V29.8277V29.8305V29.8332V29.836V29.8387V29.8415V29.8443V29.847V29.8498V29.8525V29.8553V29.858V29.8608V29.8636V29.8663V29.8691V29.8718V29.8746V29.8773V29.8801V29.8829V29.8856V29.8884V29.8911V29.8939V29.8966V29.8994V29.9022V29.9049V29.9077V29.9104V29.9132V29.9159V29.9187V29.9215V29.9242V29.927V29.9297V29.9325V29.9352V29.938V29.9408V29.9435V29.9463V29.949V29.9518V29.9546V29.9573V29.9601V29.9628V29.9656V29.9683V29.9711V29.9739V29.9766V29.9794V29.9821V29.9849V29.9876V29.9904V29.9932V29.9959V29.9987V30.0014V30.0042V30.0069V30.0097V30.0125V30.0152V30.018V30.0207V30.0235V30.0262V30.029V30.0318V30.0345V30.0373V30.04V30.0428V30.0455V30.0483V30.0511V30.0538V30.0566V30.0593V30.0621V30.0648V30.0676V30.0704V30.0731V30.0759V30.0786V30.0814V30.0842V30.0869V30.0897V30.0924V30.0952V30.0979V30.1007V30.1035V30.1062V30.109V30.1117V30.1145V30.1172V30.12V30.1228V30.1255V30.1283V30.131V30.1338V30.1365V30.1393V30.1421V30.1448V30.1476V30.1503V30.1531V30.1558V30.1586V30.1614V30.1641V30.1669V30.1696V30.1724V30.1751V30.1779V30.1807V30.1834V30.1862V30.1889V30.1917V30.1944V30.1972V30.2V30.2027V30.2055V30.2082V30.211V30.2137V30.2165V30.2193V30.222V30.2248V30.2275V30.2303V30.2331V30.2358V30.2386V30.2413V30.2441V30.2468V30.2496V30.2524V30.2551V30.2579V30.2606V30.2634V30.2661V30.2689V30.2717V30.2744V30.2772V30.2799V30.2827V30.2854V30.2882V30.291V30.2937V30.2965V30.2992V30.302V30.3047V30.3075V30.3103V30.313V30.3158V30.3185V30.3213V30.324V30.3268V30.3296V30.3323V30.3351V30.3378V30.3406V30.3433V30.3461V30.3489V30.3516V30.3544V30.3571V30.3599V30.3626V30.3654V30.3682V30.3709V30.3737V30.3764V30.3792V30.382V30.3847V30.3875V30.3902V30.393V30.3957V30.3985V30.4013V30.404V30.4068V30.4095V30.4123V30.415V30.4178V30.4206V30.4233V30.4261V30.4288V30.4316V30.4343V30.4371V30.4399V30.4426V30.4454V30.4481V30.4509V30.4536V30.4564V30.4592V30.4619V30.4647V30.4674V30.4702V30.4729V30.4757V30.4785V30.4812V30.484V30.4867V30.4895V30.4922V30.495V30.4978V30.5005V30.5033V30.506V30.5088V30.5115V30.5143V30.5171V30.5198V30.5226V30.5253V30.5281V30.5309V30.5336V30.5364V30.5391V30.5419V30.5446V30.5474V30.5502V30.5529V30.5557V30.5584V30.5612V30.5639V30.5667V30.5695V30.5722V30.575V30.5777V30.5805V30.5832V30.586V30.5888V30.5915V30.5943V30.597V30.5998V30.6025V30.6053V30.6081V30.6108V30.6136V30.6163V30.6191V30.6218V30.6246V30.6274V30.6301V30.6329V30.6356V30.6384V30.6411V30.6439V30.6467V30.6494V30.6522V30.6549V30.6577V30.6604V30.6632V30.666V30.6687V30.6715V30.6742V30.677V30.6798V30.6825V30.6853V30.688V30.6908V30.6935V30.6963V30.6991V30.7018V30.7046V30.7073V30.7101V30.7128V30.7156V30.7184V30.7211V30.7239V30.7266V30.7294V30.7321V30.7349V30.7377V30.7404V30.7432V30.7459V30.7487V30.7514V30.7542V30.757V30.7597V30.7625V30.7652V30.768V30.7707V30.7735V30.7763V30.779V30.7818V30.7845V30.7873V30.79V30.7928V30.7956V30.7978L14.9552 30.7978C14.9488 31.0865 14.8652 31.332 14.7095 31.505C14.5526 31.6794 14.331 31.7707 14.0702 31.7644C13.8057 31.7641 13.5842 31.6737 13.4284 31.4985C13.274 31.3249 13.194 31.0792 13.1876 30.7858M21.6402 19.165L6.61872 21.1543L6.51874 21.1567C6.51875 21.1567 6.51875 21.1567 6.51875 21.1568C6.60429 24.7868 8.96418 27.649 12.5053 28.4676L12.5061 28.4678C12.7661 28.5256 12.9281 28.6145 13.0289 28.7392C13.1297 28.864 13.1816 29.0402 13.1876 29.3004C13.1875 29.4632 13.1862 29.6269 13.1849 29.791C13.1822 30.1218 13.1795 30.4545 13.1876 30.7858M21.6402 19.165C21.6226 19.1591 21.6051 19.1552 21.588 19.1527M21.6402 19.165L21.588 19.1527M13.1876 30.7858C13.1876 30.7858 13.1876 30.7859 13.1876 30.7859L13.2876 30.7835L13.1876 30.7857C13.1876 30.7857 13.1876 30.7858 13.1876 30.7858ZM21.588 19.1527C21.5882 18.9118 21.5894 18.6706 21.5906 18.4291C21.5933 17.8817 21.596 17.3332 21.5879 16.7855C21.5878 16.507 21.4844 16.2711 21.3077 16.1116C21.131 15.9522 20.8883 15.8757 20.6218 15.9023L20.6218 15.9023L20.6207 15.9025C20.3811 15.9291 20.1807 16.0304 20.0414 16.203C19.903 16.3743 19.8323 16.6065 19.8323 16.8824M19.8323 16.8824C19.8323 16.8822 19.8323 16.882 19.8323 16.8819L19.9323 16.8827H19.8323C19.8323 16.8826 19.8323 16.8825 19.8323 16.8824Z" fill="#FFDC55" stroke="#2A2968" stroke-width="0.2"/>
<path d="M35.6225 24.4933H35.5225V24.5933C35.5225 24.778 35.5212 24.9609 35.5199 25.1428C35.5172 25.5044 35.5145 25.8624 35.5226 26.2245L35.5225 26.2245L35.5227 26.228C35.5497 26.7012 35.8918 27.031 36.3401 27.0581C36.7772 27.0847 37.2116 26.8176 37.2537 26.3396L37.2537 26.3392C37.288 25.9284 37.2802 25.5147 37.2726 25.107C37.2694 24.9344 37.2661 24.763 37.2661 24.5933V24.4933H37.1661H37.1631H37.1601H37.157H37.154H37.151H37.1479H37.1449H37.1419H37.1388H37.1358H37.1328H37.1297H37.1267H37.1237H37.1206H37.1176H37.1146H37.1115H37.1085H37.1055H37.1025H37.0994H37.0964H37.0934H37.0904H37.0873H37.0843H37.0813H37.0783H37.0752H37.0722H37.0692H37.0662H37.0631H37.0601H37.0571H37.0541H37.0511H37.048H37.045H37.042H37.039H37.036H37.033H37.0299H37.0269H37.0239H37.0209H37.0179H37.0149H37.0118H37.0088H37.0058H37.0028H36.9998H36.9968H36.9938H36.9908H36.9878H36.9847H36.9817H36.9787H36.9757H36.9727H36.9697H36.9667H36.9637H36.9607H36.9577H36.9547H36.9517H36.9486H36.9456H36.9426H36.9396H36.9366H36.9336H36.9306H36.9276H36.9246H36.9216H36.9186H36.9156H36.9126H36.9096H36.9066H36.9036H36.9006H36.8976H36.8946H36.8916H36.8886H36.8856H36.8826H36.8796H36.8766H36.8736H36.8706H36.8676H36.8646H36.8616H36.8586H36.8556H36.8526H36.8496H36.8466H36.8436H36.8407H36.8377H36.8347H36.8317H36.8287H36.8257H36.8227H36.8197H36.8167H36.8137H36.8107H36.8077H36.8047H36.8017H36.7988H36.7958H36.7928H36.7898H36.7868H36.7838H36.7808H36.7778H36.7748H36.7718H36.7689H36.7659H36.7629H36.7599H36.7569H36.7539H36.7509H36.7479H36.7449H36.742H36.739H36.736H36.733H36.73H36.727H36.724H36.7211H36.7181H36.7151H36.7121H36.7091H36.7061H36.7031H36.7002H36.6972H36.6942H36.6912H36.6882H36.6852H36.6822H36.6793H36.6763H36.6733H36.6703H36.6673H36.6643H36.6614H36.6584H36.6554H36.6524H36.6494H36.6464H36.6435H36.6405H36.6375H36.6345H36.6315H36.6285H36.6256H36.6226H36.6196H36.6166H36.6136H36.6106H36.6077H36.6047H36.6017H36.5987H36.5957H36.5928H36.5898H36.5868H36.5838H36.5808H36.5778H36.5749H36.5719H36.5689H36.5659H36.5629H36.56H36.557H36.554H36.551H36.548H36.545H36.5421H36.5391H36.5361H36.5331H36.5301H36.5272H36.5242H36.5212H36.5182H36.5152H36.5122H36.5093H36.5063H36.5033H36.5003H36.4973H36.4943H36.4914H36.4884H36.4854H36.4824H36.4794H36.4765H36.4735H36.4705H36.4675H36.4645H36.4615H36.4586H36.4556H36.4526H36.4496H36.4466H36.4436H36.4407H36.4377H36.4347H36.4317H36.4287H36.4257H36.4227H36.4198H36.4168H36.4138H36.4108H36.4078H36.4048H36.4019H36.3989H36.3959H36.3929H36.3899H36.3869H36.3839H36.381H36.378H36.375H36.372H36.369H36.366H36.363H36.36H36.3571H36.3541H36.3511H36.3481H36.3451H36.3421H36.3391H36.3361H36.3332H36.3302H36.3272H36.3242H36.3212H36.3182H36.3152H36.3122H36.3092H36.3062H36.3033H36.3003H36.2973H36.2943H36.2913H36.2883H36.2853H36.2823H36.2793H36.2763H36.2733H36.2703H36.2673H36.2643H36.2614H36.2584H36.2554H36.2524H36.2494H36.2464H36.2434H36.2404H36.2374H36.2344H36.2314H36.2284H36.2254H36.2224H36.2194H36.2164H36.2134H36.2104H36.2074H36.2044H36.2014H36.1984H36.1954H36.1924H36.1894H36.1864H36.1834H36.1804H36.1774H36.1744H36.1714H36.1684H36.1654H36.1624H36.1594H36.1564H36.1534H36.1503H36.1473H36.1443H36.1413H36.1383H36.1353H36.1323H36.1293H36.1263H36.1233H36.1203H36.1173H36.1142H36.1112H36.1082H36.1052H36.1022H36.0992H36.0962H36.0932H36.0902H36.0871H36.0841H36.0811H36.0781H36.0751H36.0721H36.069H36.066H36.063H36.06H36.057H36.054H36.0509H36.0479H36.0449H36.0419H36.0389H36.0358H36.0328H36.0298H36.0268H36.0237H36.0207H36.0177H36.0147H36.0116H36.0086H36.0056H36.0026H35.9995H35.9965H35.9935H35.9904H35.9874H35.9844H35.9814H35.9783H35.9753H35.9723H35.9692H35.9662H35.9632H35.9601H35.9571H35.9541H35.951H35.948H35.945H35.9419H35.9389H35.9358H35.9328H35.9298H35.9267H35.9237H35.9206H35.9176H35.9146H35.9115H35.9085H35.9054H35.9024H35.8993H35.8963H35.8932H35.8902H35.8871H35.8841H35.8811H35.878H35.875H35.8719H35.8689H35.8658H35.8627H35.8597H35.8566H35.8536H35.8505H35.8475H35.8444H35.8414H35.8383H35.8352H35.8322H35.8291H35.8261H35.823H35.8199H35.8169H35.8138H35.8108H35.8077H35.8046H35.8016H35.7985H35.7954H35.7924H35.7893H35.7862H35.7832H35.7801H35.777H35.7739H35.7709H35.7678H35.7647H35.7617H35.7586H35.7555H35.7524H35.7494H35.7463H35.7432H35.7401H35.737H35.734H35.7309H35.7278H35.7247H35.7216H35.7185H35.7155H35.7124H35.7093H35.7062H35.7031H35.7H35.6969H35.6938H35.6908H35.6877H35.6846H35.6815H35.6784H35.6753H35.6722H35.6691H35.666H35.6629H35.6598H35.6567H35.6536H35.6505H35.6474H35.6443H35.6412H35.6381H35.635H35.6319H35.6288H35.6257H35.6225Z" fill="#FFDC55" stroke="#2A2968" stroke-width="0.2"/>
<path d="M18.4641 6.56563V6.45873L18.3575 6.46585C18.2347 6.47404 18.11 6.46999 17.9815 6.46582C17.9743 6.46558 17.967 6.46535 17.9598 6.46511C17.8258 6.4608 17.6871 6.45707 17.5536 6.47067C17.4191 6.48436 17.2854 6.51596 17.1608 6.58508C17.0353 6.65469 16.9243 6.75947 16.8316 6.91186C16.6417 7.22399 16.6557 7.56933 16.8723 7.86729L16.8723 7.8673L16.8734 7.86878C17.0829 8.14601 17.3403 8.22684 17.6027 8.24315C17.7261 8.25082 17.8527 8.2444 17.9739 8.23825C17.9785 8.23802 17.9831 8.23779 17.9876 8.23756C18.1151 8.23111 18.2374 8.22549 18.357 8.23404L18.4641 8.24169V8.13429V8.13118V8.12807V8.12496V8.12186V8.11875V8.11564V8.11254V8.10943V8.10633V8.10322V8.10012V8.09702V8.09392V8.09082V8.08772V8.08462V8.08152V8.07843V8.07533V8.07223V8.06914V8.06605V8.06295V8.05986V8.05677V8.05368V8.05059V8.0475V8.04441V8.04132V8.03823V8.03515V8.03206V8.02897V8.02589V8.02281V8.01972V8.01664V8.01356V8.01048V8.0074V8.00432V8.00124V7.99816V7.99508V7.992V7.98893V7.98585V7.98278V7.9797V7.97663V7.97356V7.97048V7.96741V7.96434V7.96127V7.9582V7.95513V7.95206V7.94899V7.94592V7.94286V7.93979V7.93672V7.93366V7.93059V7.92753V7.92447V7.9214V7.91834V7.91528V7.91222V7.90916V7.9061V7.90304V7.89998V7.89692V7.89386V7.8908V7.88775V7.88469V7.88163V7.87858V7.87552V7.87247V7.86942V7.86636V7.86331V7.86026V7.85721V7.85415V7.8511V7.84805V7.845V7.84195V7.8389V7.83586V7.83281V7.82976V7.82671V7.82367V7.82062V7.81757V7.81453V7.81148V7.80844V7.80539V7.80235V7.79931V7.79626V7.79322V7.79018V7.78714V7.7841V7.78106V7.77802V7.77498V7.77194V7.7689V7.76586V7.76282V7.75978V7.75674V7.75371V7.75067V7.74763V7.7446V7.74156V7.73852V7.73549V7.73245V7.72942V7.72639V7.72335V7.72032V7.71728V7.71425V7.71122V7.70819V7.70515V7.70212V7.69909V7.69606V7.69303V7.69V7.68697V7.68394V7.68091V7.67788V7.67485V7.67182V7.66879V7.66576V7.66274V7.65971V7.65668V7.65365V7.65062V7.6476V7.64457V7.64154V7.63852V7.63549V7.63247V7.62944V7.62641V7.62339V7.62036V7.61734V7.61431V7.61129V7.60827V7.60524V7.60222V7.59919V7.59617V7.59315V7.59012V7.5871V7.58408V7.58105V7.57803V7.57501V7.57199V7.56896V7.56594V7.56292V7.5599V7.55688V7.55385V7.55083V7.54781V7.54479V7.54177V7.53875V7.53573V7.5327V7.52968V7.52666V7.52364V7.52062V7.5176V7.51458V7.51156V7.50854V7.50552V7.5025V7.49948V7.49646V7.49344V7.49042V7.4874V7.48438V7.48136V7.47834V7.47532V7.4723V7.46928V7.46626V7.46324V7.46022V7.4572V7.45418V7.45116V7.44814V7.44512V7.4421V7.43908V7.43606V7.43304V7.43002V7.427V7.42397V7.42095V7.41793V7.41491V7.41189V7.40887V7.40585V7.40283V7.39981V7.39679V7.39377V7.39075V7.38773V7.3847V7.38168V7.37866V7.37564V7.37262V7.3696V7.36657V7.36355V7.36053V7.35751V7.35448V7.35146V7.34844V7.34542V7.34239V7.33937V7.33635V7.33332V7.3303V7.32728V7.32425V7.32123V7.3182V7.31518V7.31215V7.30913V7.3061V7.30308V7.30005V7.29703V7.294V7.29098V7.28795V7.28492V7.2819V7.27887V7.27584V7.27281V7.26979V7.26676V7.26373V7.2607V7.25767V7.25464V7.25161V7.24858V7.24555V7.24252V7.23949V7.23646V7.23343V7.2304V7.22737V7.22434V7.22131V7.21827V7.21524V7.21221V7.20917V7.20614V7.20311V7.20007V7.19704V7.194V7.19097V7.18793V7.18489V7.18186V7.17882V7.17578V7.17275V7.16971V7.16667V7.16363V7.16059V7.15755V7.15451V7.15147V7.14843V7.14539V7.14235V7.13931V7.13627V7.13323V7.13018V7.12714V7.1241V7.12105V7.11801V7.11496V7.11192V7.10887V7.10582V7.10278V7.09973V7.09668V7.09363V7.09059V7.08754V7.08449V7.08144V7.07839V7.07534V7.07228V7.06923V7.06618V7.06313V7.06007V7.05702V7.05396V7.05091V7.04785V7.0448V7.04174V7.03868V7.03563V7.03257V7.02951V7.02645V7.02339V7.02033V7.01727V7.01421V7.01115V7.00808V7.00502V7.00196V6.99889V6.99583V6.99276V6.9897V6.98663V6.98356V6.98049V6.97743V6.97436V6.97129V6.96822V6.96515V6.96208V6.959V6.95593V6.95286V6.94978V6.94671V6.94363V6.94056V6.93748V6.9344V6.93133V6.92825V6.92517V6.92209V6.91901V6.91593V6.91284V6.90976V6.90668V6.90359V6.90051V6.89742V6.89434V6.89125V6.88816V6.88508V6.88199V6.8789V6.87581V6.87272V6.86962V6.86653V6.86344V6.86034V6.85725V6.85415V6.85106V6.84796V6.84486V6.84176V6.83866V6.83556V6.83246V6.82936V6.82626V6.82315V6.82005V6.81695V6.81384V6.81073V6.80763V6.80452V6.80141V6.7983V6.79519V6.79208V6.78896V6.78585V6.78274V6.77962V6.77651V6.77339V6.77027V6.76715V6.76404V6.76092V6.75779V6.75467V6.75155V6.74843V6.7453V6.74218V6.73905V6.73592V6.7328V6.72967V6.72654V6.72341V6.72028V6.71714V6.71401V6.71088V6.70774V6.7046V6.70147V6.69833V6.69519V6.69205V6.68891V6.68577V6.68262V6.67948V6.67634V6.67319V6.67004V6.66689V6.66375V6.6606V6.65745V6.65429V6.65114V6.64799V6.64483V6.64168V6.63852V6.63536V6.6322V6.62904V6.62588V6.62272V6.61956V6.61639V6.61323V6.61006V6.6069V6.60373V6.60056V6.59739V6.59422V6.59105V6.58787V6.5847V6.58152V6.57835V6.57517V6.57199V6.56881V6.56563Z" fill="#FFDC55" stroke="#2A2968" stroke-width="0.2"/>
<path d="M9.66562 8.13433V8.24122L9.77228 8.23411C9.89858 8.22568 10.0264 8.23164 10.1583 8.23779L10.1667 8.23818C10.2992 8.24435 10.4368 8.25048 10.5691 8.23844C10.7026 8.2263 10.8357 8.19538 10.9599 8.12445C11.0845 8.05329 11.1943 7.94525 11.2863 7.78781C11.4897 7.46114 11.4609 7.10129 11.2178 6.80403L11.2178 6.80403L11.2171 6.80313C11.0077 6.55304 10.7584 6.47611 10.5046 6.45984C10.3802 6.45185 10.2531 6.45831 10.1306 6.46546C10.1204 6.46606 10.1101 6.46666 10.0999 6.46726C9.98648 6.47395 9.87682 6.48042 9.76806 6.47776L9.66562 6.47526V6.57773V6.58084V6.58395V6.58706V6.59017V6.59327V6.59638V6.59948V6.60258V6.60569V6.60879V6.61189V6.61498V6.61808V6.62118V6.62427V6.62737V6.63046V6.63355V6.63665V6.63974V6.64282V6.64591V6.649V6.65209V6.65517V6.65826V6.66134V6.66442V6.6675V6.67058V6.67366V6.67674V6.67982V6.6829V6.68597V6.68905V6.69212V6.69519V6.69827V6.70134V6.70441V6.70748V6.71054V6.71361V6.71668V6.71974V6.72281V6.72587V6.72894V6.732V6.73506V6.73812V6.74118V6.74424V6.7473V6.75035V6.75341V6.75647V6.75952V6.76257V6.76563V6.76868V6.77173V6.77478V6.77783V6.78088V6.78393V6.78697V6.79002V6.79307V6.79611V6.79916V6.8022V6.80524V6.80829V6.81133V6.81437V6.81741V6.82045V6.82348V6.82652V6.82956V6.8326V6.83563V6.83867V6.8417V6.84473V6.84777V6.8508V6.85383V6.85686V6.85989V6.86292V6.86595V6.86898V6.87201V6.87503V6.87806V6.88108V6.88411V6.88713V6.89016V6.89318V6.8962V6.89923V6.90225V6.90527V6.90829V6.91131V6.91433V6.91735V6.92036V6.92338V6.9264V6.92941V6.93243V6.93544V6.93846V6.94147V6.94449V6.9475V6.95051V6.95352V6.95654V6.95955V6.96256V6.96557V6.96858V6.97159V6.9746V6.9776V6.98061V6.98362V6.98662V6.98963V6.99264V6.99564V6.99865V7.00165V7.00466V7.00766V7.01066V7.01367V7.01667V7.01967V7.02267V7.02567V7.02867V7.03167V7.03467V7.03767V7.04067V7.04367V7.04667V7.04967V7.05267V7.05566V7.05866V7.06166V7.06465V7.06765V7.07065V7.07364V7.07664V7.07963V7.08263V7.08562V7.08861V7.09161V7.0946V7.09759V7.10059V7.10358V7.10657V7.10956V7.11256V7.11555V7.11854V7.12153V7.12452V7.12751V7.1305V7.13349V7.13648V7.13947V7.14246V7.14545V7.14844V7.15143V7.15442V7.15741V7.16039V7.16338V7.16637V7.16936V7.17235V7.17533V7.17832V7.18131V7.1843V7.18728V7.19027V7.19326V7.19624V7.19923V7.20222V7.2052V7.20819V7.21118V7.21416V7.21715V7.22013V7.22312V7.2261V7.22909V7.23208V7.23506V7.23805V7.24103V7.24402V7.247V7.24999V7.25297V7.25596V7.25894V7.26193V7.26491V7.2679V7.27089V7.27387V7.27686V7.27984V7.28283V7.28581V7.2888V7.29178V7.29477V7.29775V7.30074V7.30372V7.30671V7.3097V7.31268V7.31567V7.31865V7.32164V7.32463V7.32761V7.3306V7.33358V7.33657V7.33956V7.34254V7.34553V7.34852V7.35151V7.35449V7.35748V7.36047V7.36346V7.36644V7.36943V7.37242V7.37541V7.3784V7.38138V7.38437V7.38736V7.39035V7.39334V7.39633V7.39932V7.40231V7.4053V7.40829V7.41128V7.41427V7.41727V7.42026V7.42325V7.42624V7.42923V7.43223V7.43522V7.43821V7.44121V7.4442V7.44719V7.45019V7.45318V7.45618V7.45917V7.46217V7.46516V7.46816V7.47116V7.47415V7.47715V7.48015V7.48314V7.48614V7.48914V7.49214V7.49514V7.49814V7.50114V7.50414V7.50714V7.51014V7.51314V7.51614V7.51915V7.52215V7.52515V7.52816V7.53116V7.53417V7.53717V7.54018V7.54318V7.54619V7.54919V7.5522V7.55521V7.55822V7.56123V7.56423V7.56724V7.57025V7.57326V7.57628V7.57929V7.5823V7.58531V7.58832V7.59134V7.59435V7.59737V7.60038V7.6034V7.60641V7.60943V7.61245V7.61547V7.61848V7.6215V7.62452V7.62754V7.63056V7.63358V7.63661V7.63963V7.64265V7.64568V7.6487V7.65173V7.65475V7.65778V7.6608V7.66383V7.66686V7.66989V7.67292V7.67595V7.67898V7.68201V7.68504V7.68807V7.69111V7.69414V7.69718V7.70021V7.70325V7.70629V7.70932V7.71236V7.7154V7.71844V7.72148V7.72452V7.72756V7.73061V7.73365V7.7367V7.73974V7.74279V7.74583V7.74888V7.75193V7.75498V7.75803V7.76108V7.76413V7.76718V7.77023V7.77329V7.77634V7.7794V7.78245V7.78551V7.78857V7.79163V7.79469V7.79775V7.80081V7.80387V7.80693V7.81V7.81306V7.81613V7.81919V7.82226V7.82533V7.8284V7.83147V7.83454V7.83761V7.84068V7.84376V7.84683V7.84991V7.85298V7.85606V7.85914V7.86222V7.8653V7.86838V7.87146V7.87455V7.87763V7.88072V7.8838V7.88689V7.88998V7.89307V7.89616V7.89925V7.90234V7.90543V7.90853V7.91162V7.91472V7.91782V7.92092V7.92402V7.92712V7.93022V7.93332V7.93642V7.93953V7.94264V7.94574V7.94885V7.95196V7.95507V7.95818V7.96129V7.96441V7.96752V7.97064V7.97375V7.97687V7.97999V7.98311V7.98623V7.98936V7.99248V7.99561V7.99873V8.00186V8.00499V8.00812V8.01125V8.01438V8.01751V8.02065V8.02378V8.02692V8.03006V8.0332V8.03634V8.03948V8.04262V8.04577V8.04891V8.05206V8.05521V8.05836V8.06151V8.06466V8.06781V8.07097V8.07412V8.07728V8.08044V8.0836V8.08676V8.08992V8.09308V8.09625V8.09941V8.10258V8.10575V8.10892V8.11209V8.11526V8.11844V8.12161V8.12479V8.12797V8.13115V8.13433Z" fill="#FFDC55" stroke="#2A2968" stroke-width="0.2"/>
<path d="M37.9896 21.1577C39.1794 21.1075 40.124 20.3159 40.3505 19.1829L40.3505 19.1827C40.5771 18.0366 40.0081 16.9803 38.934 16.4552C38.8169 16.3964 38.6968 16.2494 38.616 16.0993C38.3808 15.6596 38.0839 15.3106 37.7156 15.0718C37.3465 14.8325 36.9112 14.7073 36.4055 14.7073C35.3894 14.7073 34.6317 15.2006 34.1933 16.1024C34.0948 16.2994 33.9785 16.4159 33.7699 16.5148L33.7699 16.5148L33.7693 16.5151C32.7754 16.9935 32.2482 18.0388 32.4235 19.1424C32.5749 20.1506 33.4174 21.0072 34.477 21.121C34.9149 21.1715 35.3635 21.1583 35.8053 21.1453C35.9991 21.1396 36.1916 21.1339 36.3814 21.1337V21.1578C36.5599 21.1578 36.7387 21.1605 36.9175 21.1631C37.2757 21.1685 37.6339 21.1739 37.9896 21.1577ZM37.9896 21.1577C37.9897 21.1577 37.9897 21.1577 37.9898 21.1577L37.9853 21.0578L37.9895 21.1577C37.9895 21.1577 37.9896 21.1577 37.9896 21.1577ZM37.8743 19.4133L37.8743 19.4133C37.5462 19.4213 37.2195 19.4186 36.8909 19.4159C36.7257 19.4146 36.56 19.4132 36.3934 19.4132C36.1531 19.4132 35.9099 19.4162 35.666 19.4192L35.6611 19.4193C35.4157 19.4223 35.1695 19.4253 34.9234 19.4253C34.6882 19.4195 34.5074 19.3525 34.3827 19.2457C34.2588 19.1396 34.1818 18.9872 34.1656 18.7933C34.1493 18.5795 34.2015 18.4183 34.3078 18.2993C34.4161 18.1782 34.5914 18.0888 34.8436 18.043C35.115 17.9936 35.318 17.9195 35.4621 17.7735C35.6063 17.6274 35.677 17.4242 35.7203 17.1524C35.7601 16.9195 35.8434 16.7516 35.9564 16.6424C36.068 16.5346 36.2168 16.4759 36.4055 16.4759C36.5933 16.4759 36.7454 16.537 36.859 16.6469C36.9738 16.7578 37.0567 16.9257 37.0904 17.1509L37.0905 17.1515C37.1335 17.4281 37.2007 17.6323 37.3423 17.7776C37.484 17.9229 37.685 17.9938 37.9553 18.043L37.9553 18.043L37.9564 18.0432C38.1882 18.0828 38.3658 18.1718 38.4817 18.2916C38.5959 18.4098 38.6557 18.5634 38.6452 18.7473L38.6451 18.7473L38.645 18.7503C38.6348 19.1207 38.3391 19.4022 37.8743 19.4133Z" fill="#2A2968" stroke="#2A2968" stroke-width="0.2"/>
<path d="M33.3934 14.1285L33.3934 14.1285L33.3935 14.1271C33.4019 14.0176 33.399 13.9036 33.3963 13.796C33.395 13.7451 33.3938 13.6957 33.3938 13.6488C33.3938 13.5726 33.3967 13.4961 33.3997 13.4174L33.3998 13.4164C33.4028 13.3386 33.4058 13.2586 33.4058 13.1782H33.4062L33.4055 13.1697C33.365 12.6972 32.9976 12.3542 32.534 12.3542C32.103 12.3542 31.7041 12.6649 31.6626 13.1209L31.6626 13.1209L31.6625 13.1228C31.638 13.4654 31.638 13.8081 31.6625 14.1507L31.6625 14.1507L31.6626 14.1523C31.7038 14.6199 32.1149 14.9448 32.5612 14.9313L32.5613 14.9313C32.9999 14.9176 33.3528 14.5748 33.3934 14.1285Z" fill="#2A2968" stroke="#2A2968" stroke-width="0.2"/>
<path d="M40.3202 14.9312C40.7548 14.904 41.0962 14.5763 41.137 14.1408L41.137 14.1408L41.1372 14.1386C41.1456 14.0214 41.1427 13.9001 41.14 13.7847C41.1388 13.7311 41.1375 13.6788 41.1375 13.6288L41.1376 13.6277C41.1492 13.4879 41.162 13.3345 41.137 13.1791C41.1078 12.724 40.7818 12.3817 40.332 12.3544C39.8895 12.3276 39.474 12.6112 39.4187 13.0821L39.4186 13.0821L39.4185 13.0838C39.3816 13.4524 39.3815 13.8462 39.4308 14.2285C39.4867 14.6745 39.9015 14.9581 40.3202 14.9312ZM40.3202 14.9312C40.3202 14.9312 40.3203 14.9311 40.3203 14.9311L40.3139 14.8314L40.3201 14.9312C40.3201 14.9312 40.3202 14.9312 40.3202 14.9312Z" fill="#2A2968" stroke="#2A2968" stroke-width="0.2"/>
<path d="M35.5347 11.5884L35.5347 11.5884L35.5346 11.5892C35.5261 11.6911 35.529 11.7978 35.5318 11.8975C35.533 11.9443 35.5343 11.9894 35.5343 12.0319C35.5343 12.074 35.5331 12.1197 35.5318 12.1677C35.5291 12.2721 35.5261 12.3869 35.5345 12.4973C35.562 12.9449 35.8783 13.2612 36.3123 13.3019L36.3126 13.3019C36.7504 13.3418 37.1582 13.1006 37.2284 12.6506L37.2285 12.6506L37.2288 12.648C37.2782 12.2653 37.2781 11.8586 37.2289 11.4644C37.1726 11.0144 36.7411 10.7456 36.3241 10.786C35.9029 10.8268 35.5752 11.1419 35.5347 11.5884Z" fill="#2A2968" stroke="#2A2968" stroke-width="0.2"/>
<path d="M35.5111 17.1071L35.5111 17.1071C35.5556 16.8466 35.6496 16.6344 35.8006 16.4868C35.9533 16.3375 36.1547 16.2638 36.3936 16.2638C36.6278 16.2638 36.8315 16.3414 36.9862 16.491C37.1397 16.6394 37.2376 16.8515 37.2763 17.1088C37.3177 17.375 37.3771 17.5268 37.4736 17.6258C37.5701 17.7248 37.7186 17.7866 37.9785 17.8339C38.2466 17.8788 38.4672 17.9827 38.6185 18.1409C38.7713 18.3008 38.8464 18.5093 38.8329 18.7464C38.8329 18.7465 38.8329 18.7466 38.8329 18.7466L38.7331 18.7409C38.709 19.1753 38.3713 19.489 37.8648 19.5011L35.5111 17.1071ZM35.5111 17.1071L35.5109 17.1083M35.5111 17.1071L35.5109 17.1083M35.5109 17.1083C35.4698 17.3671 35.4078 17.5197 35.3079 17.6208C35.2078 17.7222 35.0551 17.7869 34.7959 17.834C34.5165 17.8849 34.2941 17.992 34.1465 18.1588C33.9975 18.3271 33.9347 18.5451 33.9543 18.7959C33.968 19.0378 34.0666 19.2418 34.2366 19.3858C34.4056 19.529 34.6373 19.6067 34.9078 19.6131L35.5109 17.1083ZM36.7619 19.6147C37.1323 19.6169 37.5043 19.6192 37.8685 19.601L35.9022 19.6158C36.0666 19.6145 36.2305 19.6132 36.3936 19.6132C36.516 19.6132 36.6389 19.6139 36.7619 19.6147Z" fill="#FFDC55" stroke="#2A2968" stroke-width="0.2"/>
</svg>
