<svg width="140" height="140" viewBox="0 0 140 140" fill="none" xmlns="http://www.w3.org/2000/svg">
<mask id="path-1-outside-1_326_6197" maskUnits="userSpaceOnUse" x="21.4004" y="13.9333" width="109" height="112" fill="black">
<rect fill="white" x="21.4004" y="13.9333" width="109" height="112"/>
<path d="M81.7105 14.9333C83.7814 15.4511 85.6797 16.2924 86.9309 18.0828C87.6643 19.1183 88.182 20.3263 88.7645 21.4049C90.8354 21.599 93.0141 21.6206 95.1066 22.0736C103.476 23.8209 109.689 31.2415 109.991 39.7624C110.12 43.3217 110.034 46.881 110.034 50.4403C110.034 50.8286 110.034 51.1954 110.034 51.8425C110.509 51.4111 110.768 51.1522 111.048 50.8933C113.96 48.24 118.124 48.24 121.014 50.9149C121.769 51.6268 122.503 52.3602 123.236 53.1152C123.969 53.8918 123.969 54.8625 123.279 55.5097C122.632 56.1137 121.704 56.0921 120.971 55.4018C120.238 54.7115 119.547 53.9781 118.814 53.2878C117.671 52.2092 116.355 51.9288 114.996 52.2955C118.512 55.8117 122.05 59.3494 125.587 62.8872C125.587 62.3263 125.63 61.5498 125.566 60.7948C125.544 60.4496 125.307 60.126 125.177 59.8025C124.811 58.8533 125.113 58.012 125.954 57.6237C126.752 57.257 127.572 57.5159 128.047 58.3787C129.19 60.428 129.276 62.5421 128.413 64.6992C128.284 65.0228 128.111 65.3464 127.939 65.7131C129.19 67.0074 130.053 68.539 129.621 70.351C129.362 71.4296 128.866 72.5729 128.133 73.3495C124.466 77.1677 120.691 80.8564 116.959 84.5883C116.117 85.4296 115.19 85.4943 114.478 84.8256C113.766 84.1353 113.831 83.143 114.694 82.2802C118.318 78.6345 121.963 75.0105 125.587 71.3649C126.752 70.2 126.774 69.294 125.695 68.1938C125.436 68.4311 125.177 68.6684 124.919 68.9057C120.194 73.6299 115.47 78.3757 110.724 83.0783C110.185 83.596 109.991 84.1353 110.013 84.8688C110.034 91.9227 110.056 98.9551 110.013 106.009C109.969 114.595 104.922 121.735 96.9186 124.345C95.1281 124.927 93.1867 125.294 91.3315 125.316C74.6135 125.38 57.8954 125.402 41.1773 125.337C30.7366 125.294 22.4315 116.665 22.41 105.966C22.3884 93.1307 22.41 80.2956 22.41 67.4604C22.41 58.616 22.3884 49.7716 22.41 40.9272C22.4315 31.9103 28.148 24.3602 36.7336 22.203C39.0417 21.6637 41.4362 21.6206 43.9169 21.3401C44.1327 20.8224 44.3915 20.0674 44.7367 19.3771C45.9663 16.9179 48.1234 15.6668 50.6473 14.9333C61.0017 14.9333 71.3561 14.9333 81.7105 14.9333ZM98.2129 88.8379C98.2129 89.4204 98.2129 89.8302 98.2129 90.2617C98.2129 94.8349 98.2345 99.3865 98.1913 103.96C98.1913 104.952 98.1482 105.987 97.9324 106.958C96.8107 112.027 92.669 115.199 87.1466 115.199C73.1897 115.199 59.2544 115.199 45.2975 115.199C44.3268 115.199 43.3561 115.134 42.4069 114.918C37.4239 113.775 34.2528 109.655 34.2528 104.305C34.2528 86.3356 34.2528 68.3664 34.2528 50.3756C34.2528 50.0952 34.2313 49.7932 34.2744 49.5128C34.4254 48.6068 35.1373 48.0027 36.0001 48.1106C36.9277 48.2185 37.4023 48.7578 37.467 49.6853C37.4886 50.0521 37.467 50.3972 37.467 50.7639C37.467 68.5174 37.467 86.2709 37.467 104.046C37.467 109.029 40.4008 111.984 45.3623 111.984C59.276 111.984 73.1897 111.984 87.1035 111.984C92.0002 111.984 94.934 109.029 94.9556 104.111C94.9556 100.077 94.9556 96.0645 94.9556 92.0305C94.9556 91.6638 94.9124 91.2755 94.8908 90.8225C94.4163 90.9735 94.0927 91.103 93.7475 91.1893C91.7629 91.707 89.9725 91.3834 88.3978 90.0028C85.8523 87.7594 85.766 84.0922 88.2683 81.6114C88.9371 80.9427 89.1959 80.3818 89.0449 79.3895C88.484 75.6792 89.5842 72.4435 92.1944 69.7254C92.8631 69.0351 93.6397 68.4096 94.2221 67.633C94.5888 67.18 94.8908 66.5328 94.9124 65.9504C94.9556 57.71 94.934 49.4912 94.934 41.2508C94.934 40.7115 94.9124 40.1722 94.8477 39.6329C94.5026 36.5482 91.9571 33.9596 88.9155 33.5066C88.1389 33.3987 87.6212 33.5281 87.125 34.2616C85.9602 36.0089 84.256 37.0443 82.2283 37.5405C81.7753 37.6483 81.3223 37.6915 80.8045 37.7778C80.783 38.1876 80.783 38.5328 80.7398 38.8995C80.5241 42.0274 78.2375 44.2708 75.1096 44.2924C69.1342 44.3356 63.1805 44.3356 57.2051 44.2924C54.4008 44.2708 52.1789 42.3078 51.7259 39.5682C51.6396 39.0073 51.6396 38.4249 51.618 37.8425C51.5102 37.7993 51.4023 37.713 51.316 37.713C48.6196 37.4326 46.5271 36.1383 44.974 33.9164C44.8014 33.6576 44.2621 33.5066 43.8954 33.5281C40.9832 33.636 38.2005 36.1167 37.7043 39.1584C37.4886 40.4958 37.5749 41.8764 37.4886 43.2354C37.4454 44.163 36.9277 44.7023 36.0001 44.767C35.0726 44.8317 34.4038 44.314 34.3391 43.4295C34.1018 40.3879 34.2313 37.3895 36.0864 34.7362C37.9416 32.0828 40.5086 30.616 43.7444 30.1845C43.7444 29.2785 43.7444 28.4157 43.7444 27.5528C43.7444 26.6683 43.7444 25.7839 43.7444 24.921C34.0371 23.6699 25.6889 31.069 25.6673 40.9272C25.6242 62.6499 25.6457 84.351 25.6673 106.074C25.6889 115.22 32.6781 122.145 41.8245 122.145C58.1111 122.166 74.3977 122.145 90.6844 122.145C91.8277 122.145 92.9925 122.058 94.1143 121.821C101.664 120.203 106.712 113.969 106.777 106.138C106.82 100.098 106.777 94.0583 106.777 88.0182C106.777 87.7162 106.734 87.4142 106.712 86.9612C104.124 88.6654 101.384 89.2262 98.2129 88.8379ZM66.1789 34.4989C70.8168 34.4989 75.4548 34.5204 80.0927 34.4989C83.2853 34.4773 85.4209 32.5358 85.5287 29.4727C85.5934 27.4018 85.5934 25.3093 85.5287 23.2169C85.3993 20.1968 83.2853 18.1691 80.2868 18.1691C70.9031 18.1475 61.541 18.1475 52.1573 18.1691C49.1589 18.1691 47.0233 20.3263 46.9801 23.3463C46.9586 25.1368 46.9801 26.9488 46.9801 28.7392C46.9801 32.4711 48.9647 34.4773 52.6966 34.4773C57.1835 34.4989 61.6704 34.4989 66.1789 34.4989ZM111.911 54.5821C108.912 57.5806 105.892 60.6222 102.872 63.6422C100.111 66.4034 97.3069 69.143 94.5673 71.9473C91.6982 74.8811 91.3531 79.1954 93.6613 82.388C96.6166 86.4651 102.333 86.8965 106 83.2509C111.674 77.6422 117.282 71.9689 122.934 66.3387C123.085 66.1877 123.214 66.0367 123.301 65.9288C119.504 62.1753 115.751 58.4219 111.911 54.5821ZM88.8292 24.921C88.8292 26.7331 88.8292 28.4588 88.8292 30.1845C89.4979 30.3355 90.1019 30.4434 90.6844 30.616C95.3223 31.9534 98.2129 35.9442 98.2129 41.0782C98.2345 48.1106 98.2129 55.1645 98.2129 62.1969C98.2129 62.6068 98.2129 63.0166 98.2129 63.4696C98.4502 63.3834 98.5365 63.3834 98.5796 63.3402C101.211 60.73 103.822 58.1199 106.432 55.4881C106.647 55.2724 106.777 54.8625 106.798 54.539C106.82 49.7285 106.906 44.918 106.777 40.1075C106.496 30.7454 98.2345 23.7777 88.8292 24.921ZM77.4609 37.7993C69.9971 37.7993 62.5117 37.7993 55.0479 37.7993C54.8106 39.9996 55.6951 41.0351 57.766 41.0351C63.4393 41.0351 69.1127 41.0351 74.786 41.0351C76.8138 41.0351 77.7629 39.9134 77.4609 37.7993ZM93.6828 87.5868C92.5395 86.465 91.4178 85.3433 90.2745 84.2432C89.4979 85.0413 89.4332 86.4435 90.4902 87.4789C91.4825 88.4281 92.9278 88.3634 93.6828 87.5868Z"/>
</mask>
<path d="M81.7105 14.9333C83.7814 15.4511 85.6797 16.2924 86.9309 18.0828C87.6643 19.1183 88.182 20.3263 88.7645 21.4049C90.8354 21.599 93.0141 21.6206 95.1066 22.0736C103.476 23.8209 109.689 31.2415 109.991 39.7624C110.12 43.3217 110.034 46.881 110.034 50.4403C110.034 50.8286 110.034 51.1954 110.034 51.8425C110.509 51.4111 110.768 51.1522 111.048 50.8933C113.96 48.24 118.124 48.24 121.014 50.9149C121.769 51.6268 122.503 52.3602 123.236 53.1152C123.969 53.8918 123.969 54.8625 123.279 55.5097C122.632 56.1137 121.704 56.0921 120.971 55.4018C120.238 54.7115 119.547 53.9781 118.814 53.2878C117.671 52.2092 116.355 51.9288 114.996 52.2955C118.512 55.8117 122.05 59.3494 125.587 62.8872C125.587 62.3263 125.63 61.5498 125.566 60.7948C125.544 60.4496 125.307 60.126 125.177 59.8025C124.811 58.8533 125.113 58.012 125.954 57.6237C126.752 57.257 127.572 57.5159 128.047 58.3787C129.19 60.428 129.276 62.5421 128.413 64.6992C128.284 65.0228 128.111 65.3464 127.939 65.7131C129.19 67.0074 130.053 68.539 129.621 70.351C129.362 71.4296 128.866 72.5729 128.133 73.3495C124.466 77.1677 120.691 80.8564 116.959 84.5883C116.117 85.4296 115.19 85.4943 114.478 84.8256C113.766 84.1353 113.831 83.143 114.694 82.2802C118.318 78.6345 121.963 75.0105 125.587 71.3649C126.752 70.2 126.774 69.294 125.695 68.1938C125.436 68.4311 125.177 68.6684 124.919 68.9057C120.194 73.6299 115.47 78.3757 110.724 83.0783C110.185 83.596 109.991 84.1353 110.013 84.8688C110.034 91.9227 110.056 98.9551 110.013 106.009C109.969 114.595 104.922 121.735 96.9186 124.345C95.1281 124.927 93.1867 125.294 91.3315 125.316C74.6135 125.38 57.8954 125.402 41.1773 125.337C30.7366 125.294 22.4315 116.665 22.41 105.966C22.3884 93.1307 22.41 80.2956 22.41 67.4604C22.41 58.616 22.3884 49.7716 22.41 40.9272C22.4315 31.9103 28.148 24.3602 36.7336 22.203C39.0417 21.6637 41.4362 21.6206 43.9169 21.3401C44.1327 20.8224 44.3915 20.0674 44.7367 19.3771C45.9663 16.9179 48.1234 15.6668 50.6473 14.9333C61.0017 14.9333 71.3561 14.9333 81.7105 14.9333ZM98.2129 88.8379C98.2129 89.4204 98.2129 89.8302 98.2129 90.2617C98.2129 94.8349 98.2345 99.3865 98.1913 103.96C98.1913 104.952 98.1482 105.987 97.9324 106.958C96.8107 112.027 92.669 115.199 87.1466 115.199C73.1897 115.199 59.2544 115.199 45.2975 115.199C44.3268 115.199 43.3561 115.134 42.4069 114.918C37.4239 113.775 34.2528 109.655 34.2528 104.305C34.2528 86.3356 34.2528 68.3664 34.2528 50.3756C34.2528 50.0952 34.2313 49.7932 34.2744 49.5128C34.4254 48.6068 35.1373 48.0027 36.0001 48.1106C36.9277 48.2185 37.4023 48.7578 37.467 49.6853C37.4886 50.0521 37.467 50.3972 37.467 50.7639C37.467 68.5174 37.467 86.2709 37.467 104.046C37.467 109.029 40.4008 111.984 45.3623 111.984C59.276 111.984 73.1897 111.984 87.1035 111.984C92.0002 111.984 94.934 109.029 94.9556 104.111C94.9556 100.077 94.9556 96.0645 94.9556 92.0305C94.9556 91.6638 94.9124 91.2755 94.8908 90.8225C94.4163 90.9735 94.0927 91.103 93.7475 91.1893C91.7629 91.707 89.9725 91.3834 88.3978 90.0028C85.8523 87.7594 85.766 84.0922 88.2683 81.6114C88.9371 80.9427 89.1959 80.3818 89.0449 79.3895C88.484 75.6792 89.5842 72.4435 92.1944 69.7254C92.8631 69.0351 93.6397 68.4096 94.2221 67.633C94.5888 67.18 94.8908 66.5328 94.9124 65.9504C94.9556 57.71 94.934 49.4912 94.934 41.2508C94.934 40.7115 94.9124 40.1722 94.8477 39.6329C94.5026 36.5482 91.9571 33.9596 88.9155 33.5066C88.1389 33.3987 87.6212 33.5281 87.125 34.2616C85.9602 36.0089 84.256 37.0443 82.2283 37.5405C81.7753 37.6483 81.3223 37.6915 80.8045 37.7778C80.783 38.1876 80.783 38.5328 80.7398 38.8995C80.5241 42.0274 78.2375 44.2708 75.1096 44.2924C69.1342 44.3356 63.1805 44.3356 57.2051 44.2924C54.4008 44.2708 52.1789 42.3078 51.7259 39.5682C51.6396 39.0073 51.6396 38.4249 51.618 37.8425C51.5102 37.7993 51.4023 37.713 51.316 37.713C48.6196 37.4326 46.5271 36.1383 44.974 33.9164C44.8014 33.6576 44.2621 33.5066 43.8954 33.5281C40.9832 33.636 38.2005 36.1167 37.7043 39.1584C37.4886 40.4958 37.5749 41.8764 37.4886 43.2354C37.4454 44.163 36.9277 44.7023 36.0001 44.767C35.0726 44.8317 34.4038 44.314 34.3391 43.4295C34.1018 40.3879 34.2313 37.3895 36.0864 34.7362C37.9416 32.0828 40.5086 30.616 43.7444 30.1845C43.7444 29.2785 43.7444 28.4157 43.7444 27.5528C43.7444 26.6683 43.7444 25.7839 43.7444 24.921C34.0371 23.6699 25.6889 31.069 25.6673 40.9272C25.6242 62.6499 25.6457 84.351 25.6673 106.074C25.6889 115.22 32.6781 122.145 41.8245 122.145C58.1111 122.166 74.3977 122.145 90.6844 122.145C91.8277 122.145 92.9925 122.058 94.1143 121.821C101.664 120.203 106.712 113.969 106.777 106.138C106.82 100.098 106.777 94.0583 106.777 88.0182C106.777 87.7162 106.734 87.4142 106.712 86.9612C104.124 88.6654 101.384 89.2262 98.2129 88.8379ZM66.1789 34.4989C70.8168 34.4989 75.4548 34.5204 80.0927 34.4989C83.2853 34.4773 85.4209 32.5358 85.5287 29.4727C85.5934 27.4018 85.5934 25.3093 85.5287 23.2169C85.3993 20.1968 83.2853 18.1691 80.2868 18.1691C70.9031 18.1475 61.541 18.1475 52.1573 18.1691C49.1589 18.1691 47.0233 20.3263 46.9801 23.3463C46.9586 25.1368 46.9801 26.9488 46.9801 28.7392C46.9801 32.4711 48.9647 34.4773 52.6966 34.4773C57.1835 34.4989 61.6704 34.4989 66.1789 34.4989ZM111.911 54.5821C108.912 57.5806 105.892 60.6222 102.872 63.6422C100.111 66.4034 97.3069 69.143 94.5673 71.9473C91.6982 74.8811 91.3531 79.1954 93.6613 82.388C96.6166 86.4651 102.333 86.8965 106 83.2509C111.674 77.6422 117.282 71.9689 122.934 66.3387C123.085 66.1877 123.214 66.0367 123.301 65.9288C119.504 62.1753 115.751 58.4219 111.911 54.5821ZM88.8292 24.921C88.8292 26.7331 88.8292 28.4588 88.8292 30.1845C89.4979 30.3355 90.1019 30.4434 90.6844 30.616C95.3223 31.9534 98.2129 35.9442 98.2129 41.0782C98.2345 48.1106 98.2129 55.1645 98.2129 62.1969C98.2129 62.6068 98.2129 63.0166 98.2129 63.4696C98.4502 63.3834 98.5365 63.3834 98.5796 63.3402C101.211 60.73 103.822 58.1199 106.432 55.4881C106.647 55.2724 106.777 54.8625 106.798 54.539C106.82 49.7285 106.906 44.918 106.777 40.1075C106.496 30.7454 98.2345 23.7777 88.8292 24.921ZM77.4609 37.7993C69.9971 37.7993 62.5117 37.7993 55.0479 37.7993C54.8106 39.9996 55.6951 41.0351 57.766 41.0351C63.4393 41.0351 69.1127 41.0351 74.786 41.0351C76.8138 41.0351 77.7629 39.9134 77.4609 37.7993ZM93.6828 87.5868C92.5395 86.465 91.4178 85.3433 90.2745 84.2432C89.4979 85.0413 89.4332 86.4435 90.4902 87.4789C91.4825 88.4281 92.9278 88.3634 93.6828 87.5868Z" fill="#2A2968"/>
<path d="M81.7105 14.9333C83.7814 15.4511 85.6797 16.2924 86.9309 18.0828C87.6643 19.1183 88.182 20.3263 88.7645 21.4049C90.8354 21.599 93.0141 21.6206 95.1066 22.0736C103.476 23.8209 109.689 31.2415 109.991 39.7624C110.12 43.3217 110.034 46.881 110.034 50.4403C110.034 50.8286 110.034 51.1954 110.034 51.8425C110.509 51.4111 110.768 51.1522 111.048 50.8933C113.96 48.24 118.124 48.24 121.014 50.9149C121.769 51.6268 122.503 52.3602 123.236 53.1152C123.969 53.8918 123.969 54.8625 123.279 55.5097C122.632 56.1137 121.704 56.0921 120.971 55.4018C120.238 54.7115 119.547 53.9781 118.814 53.2878C117.671 52.2092 116.355 51.9288 114.996 52.2955C118.512 55.8117 122.05 59.3494 125.587 62.8872C125.587 62.3263 125.63 61.5498 125.566 60.7948C125.544 60.4496 125.307 60.126 125.177 59.8025C124.811 58.8533 125.113 58.012 125.954 57.6237C126.752 57.257 127.572 57.5159 128.047 58.3787C129.19 60.428 129.276 62.5421 128.413 64.6992C128.284 65.0228 128.111 65.3464 127.939 65.7131C129.19 67.0074 130.053 68.539 129.621 70.351C129.362 71.4296 128.866 72.5729 128.133 73.3495C124.466 77.1677 120.691 80.8564 116.959 84.5883C116.117 85.4296 115.19 85.4943 114.478 84.8256C113.766 84.1353 113.831 83.143 114.694 82.2802C118.318 78.6345 121.963 75.0105 125.587 71.3649C126.752 70.2 126.774 69.294 125.695 68.1938C125.436 68.4311 125.177 68.6684 124.919 68.9057C120.194 73.6299 115.47 78.3757 110.724 83.0783C110.185 83.596 109.991 84.1353 110.013 84.8688C110.034 91.9227 110.056 98.9551 110.013 106.009C109.969 114.595 104.922 121.735 96.9186 124.345C95.1281 124.927 93.1867 125.294 91.3315 125.316C74.6135 125.38 57.8954 125.402 41.1773 125.337C30.7366 125.294 22.4315 116.665 22.41 105.966C22.3884 93.1307 22.41 80.2956 22.41 67.4604C22.41 58.616 22.3884 49.7716 22.41 40.9272C22.4315 31.9103 28.148 24.3602 36.7336 22.203C39.0417 21.6637 41.4362 21.6206 43.9169 21.3401C44.1327 20.8224 44.3915 20.0674 44.7367 19.3771C45.9663 16.9179 48.1234 15.6668 50.6473 14.9333C61.0017 14.9333 71.3561 14.9333 81.7105 14.9333ZM98.2129 88.8379C98.2129 89.4204 98.2129 89.8302 98.2129 90.2617C98.2129 94.8349 98.2345 99.3865 98.1913 103.96C98.1913 104.952 98.1482 105.987 97.9324 106.958C96.8107 112.027 92.669 115.199 87.1466 115.199C73.1897 115.199 59.2544 115.199 45.2975 115.199C44.3268 115.199 43.3561 115.134 42.4069 114.918C37.4239 113.775 34.2528 109.655 34.2528 104.305C34.2528 86.3356 34.2528 68.3664 34.2528 50.3756C34.2528 50.0952 34.2313 49.7932 34.2744 49.5128C34.4254 48.6068 35.1373 48.0027 36.0001 48.1106C36.9277 48.2185 37.4023 48.7578 37.467 49.6853C37.4886 50.0521 37.467 50.3972 37.467 50.7639C37.467 68.5174 37.467 86.2709 37.467 104.046C37.467 109.029 40.4008 111.984 45.3623 111.984C59.276 111.984 73.1897 111.984 87.1035 111.984C92.0002 111.984 94.934 109.029 94.9556 104.111C94.9556 100.077 94.9556 96.0645 94.9556 92.0305C94.9556 91.6638 94.9124 91.2755 94.8908 90.8225C94.4163 90.9735 94.0927 91.103 93.7475 91.1893C91.7629 91.707 89.9725 91.3834 88.3978 90.0028C85.8523 87.7594 85.766 84.0922 88.2683 81.6114C88.9371 80.9427 89.1959 80.3818 89.0449 79.3895C88.484 75.6792 89.5842 72.4435 92.1944 69.7254C92.8631 69.0351 93.6397 68.4096 94.2221 67.633C94.5888 67.18 94.8908 66.5328 94.9124 65.9504C94.9556 57.71 94.934 49.4912 94.934 41.2508C94.934 40.7115 94.9124 40.1722 94.8477 39.6329C94.5026 36.5482 91.9571 33.9596 88.9155 33.5066C88.1389 33.3987 87.6212 33.5281 87.125 34.2616C85.9602 36.0089 84.256 37.0443 82.2283 37.5405C81.7753 37.6483 81.3223 37.6915 80.8045 37.7778C80.783 38.1876 80.783 38.5328 80.7398 38.8995C80.5241 42.0274 78.2375 44.2708 75.1096 44.2924C69.1342 44.3356 63.1805 44.3356 57.2051 44.2924C54.4008 44.2708 52.1789 42.3078 51.7259 39.5682C51.6396 39.0073 51.6396 38.4249 51.618 37.8425C51.5102 37.7993 51.4023 37.713 51.316 37.713C48.6196 37.4326 46.5271 36.1383 44.974 33.9164C44.8014 33.6576 44.2621 33.5066 43.8954 33.5281C40.9832 33.636 38.2005 36.1167 37.7043 39.1584C37.4886 40.4958 37.5749 41.8764 37.4886 43.2354C37.4454 44.163 36.9277 44.7023 36.0001 44.767C35.0726 44.8317 34.4038 44.314 34.3391 43.4295C34.1018 40.3879 34.2313 37.3895 36.0864 34.7362C37.9416 32.0828 40.5086 30.616 43.7444 30.1845C43.7444 29.2785 43.7444 28.4157 43.7444 27.5528C43.7444 26.6683 43.7444 25.7839 43.7444 24.921C34.0371 23.6699 25.6889 31.069 25.6673 40.9272C25.6242 62.6499 25.6457 84.351 25.6673 106.074C25.6889 115.22 32.6781 122.145 41.8245 122.145C58.1111 122.166 74.3977 122.145 90.6844 122.145C91.8277 122.145 92.9925 122.058 94.1143 121.821C101.664 120.203 106.712 113.969 106.777 106.138C106.82 100.098 106.777 94.0583 106.777 88.0182C106.777 87.7162 106.734 87.4142 106.712 86.9612C104.124 88.6654 101.384 89.2262 98.2129 88.8379ZM66.1789 34.4989C70.8168 34.4989 75.4548 34.5204 80.0927 34.4989C83.2853 34.4773 85.4209 32.5358 85.5287 29.4727C85.5934 27.4018 85.5934 25.3093 85.5287 23.2169C85.3993 20.1968 83.2853 18.1691 80.2868 18.1691C70.9031 18.1475 61.541 18.1475 52.1573 18.1691C49.1589 18.1691 47.0233 20.3263 46.9801 23.3463C46.9586 25.1368 46.9801 26.9488 46.9801 28.7392C46.9801 32.4711 48.9647 34.4773 52.6966 34.4773C57.1835 34.4989 61.6704 34.4989 66.1789 34.4989ZM111.911 54.5821C108.912 57.5806 105.892 60.6222 102.872 63.6422C100.111 66.4034 97.3069 69.143 94.5673 71.9473C91.6982 74.8811 91.3531 79.1954 93.6613 82.388C96.6166 86.4651 102.333 86.8965 106 83.2509C111.674 77.6422 117.282 71.9689 122.934 66.3387C123.085 66.1877 123.214 66.0367 123.301 65.9288C119.504 62.1753 115.751 58.4219 111.911 54.5821ZM88.8292 24.921C88.8292 26.7331 88.8292 28.4588 88.8292 30.1845C89.4979 30.3355 90.1019 30.4434 90.6844 30.616C95.3223 31.9534 98.2129 35.9442 98.2129 41.0782C98.2345 48.1106 98.2129 55.1645 98.2129 62.1969C98.2129 62.6068 98.2129 63.0166 98.2129 63.4696C98.4502 63.3834 98.5365 63.3834 98.5796 63.3402C101.211 60.73 103.822 58.1199 106.432 55.4881C106.647 55.2724 106.777 54.8625 106.798 54.539C106.82 49.7285 106.906 44.918 106.777 40.1075C106.496 30.7454 98.2345 23.7777 88.8292 24.921ZM77.4609 37.7993C69.9971 37.7993 62.5117 37.7993 55.0479 37.7993C54.8106 39.9996 55.6951 41.0351 57.766 41.0351C63.4393 41.0351 69.1127 41.0351 74.786 41.0351C76.8138 41.0351 77.7629 39.9134 77.4609 37.7993ZM93.6828 87.5868C92.5395 86.465 91.4178 85.3433 90.2745 84.2432C89.4979 85.0413 89.4332 86.4435 90.4902 87.4789C91.4825 88.4281 92.9278 88.3634 93.6828 87.5868Z" stroke="#2A2968" stroke-width="0.8" mask="url(#path-1-outside-1_326_6197)"/>
<path d="M93.826 87.7262L93.9648 87.5834L93.8227 87.444C93.2514 86.8835 92.6855 86.323 92.1192 85.762L92.119 85.7619C91.5528 85.2011 90.9863 84.64 90.4143 84.0788L90.2691 83.9363L90.1291 84.084C89.2748 84.9857 89.2175 86.5133 90.3508 87.601C91.415 88.6413 92.9871 88.589 93.826 87.7262Z" fill="#FFDC55" stroke="#2A2968" stroke-width="0.4"/>
<path d="M59.5998 63.2166H59.6232H59.6466H59.6699H59.6933H59.7167H59.7401H59.7635H59.7869H59.8102H59.8336H59.857H59.8804H59.9038H59.9272H59.9505H59.9739H59.9973H60.0207H60.0441H60.0675H60.0908H60.1142H60.1376H60.161H60.1844H60.2078H60.2311H60.2545H60.2779H60.3013H60.3247H60.3481H60.3714H60.3948H60.4182H60.4416H60.465H60.4884H60.5118H60.5351H60.5585H60.5819H60.6053H60.6287H60.6521H60.6754H60.6988H60.7222H60.7456H60.769H60.7924H60.8157H60.8391H60.8625H60.8859H60.9093H60.9327H60.956H60.9794H61.0028H61.0262H61.0496H61.073H61.0963H61.1197H61.1431H61.1665H61.1899H61.2133H61.2366H61.26H61.2834H61.3068H61.3302H61.3536H61.3769H61.4003H61.4237H61.4471H61.4705H61.4939H61.5172H61.5406H61.564H61.5874H61.6108H61.6342H61.6575H61.6809H61.7043H61.7277H61.7511H61.7745H61.7978H61.8212H61.8446H61.868H61.8914H61.9148H61.9381H61.9615H61.9849H62.0083H62.0317H62.0551H62.0784H62.1018H62.1252H62.1486H62.172H62.1954H62.2187H62.2421H62.2655H62.2889H62.3123H62.3357H62.359H62.3824H62.4058H62.4292H62.4526H62.476H62.4993H62.5227H62.5461H62.5695H62.5929H62.6163H62.6396H62.663H62.6864H62.7098H62.7332H62.7566H62.7799H62.8033H62.8267H62.8501H62.8735H62.8969H62.9202H62.9436H62.967H62.9904H63.0138H63.0372H63.0605H63.0839H63.1073H63.1307H63.1541H63.1775H63.2008H63.2242H63.2476H63.271H63.2944H63.3178H63.3411H63.3645H63.3879H63.4113H63.4347H63.4581H63.4814H63.5048H63.5282H63.5516H63.575H63.5984H63.6217H63.6451H63.6685H63.6919H63.7153H63.7387H63.762H63.7854H63.8088H63.8322H63.8556H63.879H63.9023H63.9257H63.9491H63.9725H63.9959H64.0193H64.0426H64.066H64.0894H64.1128H64.1362H64.1596H64.1829H64.2063H64.2297H64.2531H64.2765H64.2999H64.3232H64.3466H64.37H64.3934H64.4168H64.4402H64.4635H64.4869H64.5103H64.5337H64.5571H64.5805H64.6038H64.6272H64.6506H64.674H64.6974H64.7208H64.7441H64.7675H64.7909H64.8143H64.8377H64.8611H64.8844H64.9078H64.9312H64.9546H64.978H65.0014H65.0247H65.0481H65.0715H65.0949H65.1183H65.1417H65.165H65.1884H65.2118H65.2352H65.2586H65.282H65.3053H65.3287H65.3521H65.3755H65.3989H65.4223H65.4456H65.469H65.4924H65.5158H65.5392H65.5626H65.5859H65.6093H65.6327H65.6561H65.6795H65.7029H65.7262H65.7496H65.773H65.7964H65.8198H65.8432H65.8665H65.8899H65.9133H65.9367H65.9601H65.9835H66.0068H66.0302H66.0536H66.077H66.1004H66.1238H66.1471H66.1705H66.1939H66.2173H66.2407H66.2641H66.2874H66.3108H66.3342H66.3576H66.381H66.4044H66.4277H66.4511H66.4745H66.4979H66.5213H66.5447H66.568H66.5914H66.6148H66.6382H66.6616H66.685H66.7083H66.7317H66.7551H66.7785H66.8019H66.8253H66.8486H66.872H66.8954H66.9188H66.9422H66.9656H66.9889H67.0123H67.0357H67.0591H67.0825H67.1059H67.1292H67.1526H67.176H67.1994H67.2228H67.2462H67.2695H67.2929H67.3163H67.3397H67.3631H67.3865H67.4098H67.4332H67.4566H67.48H67.5034H67.5268H67.5501H67.5735H67.5969H67.6203H67.6437H67.6671H67.6904H67.7138H67.7372H67.7606H67.784H67.8074H67.8307H67.8541H67.8775H67.9009H67.9243H67.9477H67.971H67.9944H68.0178H68.0412H68.0646H68.088H68.1113H68.1347H68.1581H68.1815H68.2049H68.2283H68.2516H68.275H68.2984H68.3218H68.3452H68.3686H68.3919H68.4153H68.4387H68.4621H68.4855H68.5089H68.5322H68.5556H68.579H68.6024H68.6258H68.6492H68.6725H68.6959H68.7193H68.7427H68.7661H68.7895H68.8128H68.8362H68.8596H68.883H68.9064H68.9298H68.9531H68.9765H68.9999H69.0233H69.0467H69.0701H69.0934H69.1168H69.1402H69.1636H69.187H69.2104H69.2337H69.2571H69.2805H69.3039H69.3273H69.3507H69.374H69.3974H69.4208H69.4442H69.4676H69.491H69.5143H69.5377H69.5611H69.5845H69.6079H69.6313H69.6546H69.678H69.7014H69.7248H69.7482H69.7716H69.7949H69.8183H69.8417H69.8651H69.8885H69.9119H69.9352H69.9586H69.982H70.0054H70.0288H70.0522H70.0755H70.0989H70.1223H70.1457H70.1691H70.1925H70.2158H70.2392H70.2626H70.286H70.3094H70.3328H70.3561H70.3795H70.4029H70.4263H70.4497H70.4731H70.4964H70.5198H70.5432H70.5666H70.59H70.6134H70.6367H70.6601H70.6835H70.7069H70.7303H70.7537H70.777H70.8004H70.8238H70.8472H70.8706H70.894H70.9173H70.9407H70.9641H70.9875H71.0109H71.0343H71.0576H71.081H71.1044H71.1278H71.1512H71.1746H71.1979H71.2213H71.2447H71.2681H71.2915H71.3149H71.3382H71.3616H71.385H71.4084H71.4318H71.4552H71.4785H71.5019H71.5253H71.5487H71.5721H71.5952H71.6183H71.6415H71.6646H71.6877H71.7109H71.734H71.7571H71.7803H71.8034H71.8265H71.8496H71.8728H71.8959H71.919H71.9422H71.9653H71.9884H72.0116H72.0347H72.0578H72.081H72.1041H72.1272H72.1503H72.1735H72.1966H72.2197H72.2429H72.266H72.2891H72.3123H72.3354H72.3585H72.3817H72.4048H72.4279H72.4511H72.4742H72.4973H72.5204H72.5436H72.5667H72.5898H72.613H72.6361H72.6592H72.6824H72.7055H72.7286H72.7518H72.7749H72.798H72.8212H72.8443H72.8674H72.8906H72.9137H72.9368H72.96H72.9831H73.0062H73.0293H73.0525H73.0756H73.0987H73.1219H73.145H73.1681H73.1913H73.2144H73.2375H73.2607H73.2838H73.3069H73.3301H73.3532H73.3763H73.3995H73.4226H73.4457H73.4689H73.492H73.5151H73.5383H73.5614H73.5845H73.6077H73.6308H73.6539H73.6771H73.7002H73.7234H73.7465H73.7696H73.7928H73.8159H73.839H73.8622H73.8853H73.9084H73.9316H73.9547H73.9778H74.001H74.0241H74.0472H74.0704H74.0935H74.1167H74.1398H74.1629H74.1861H74.2092H74.2323H74.2555H74.2786H74.3018H74.3249H74.348H74.3712H74.3943H74.4174H74.4406H74.4637H74.4869H74.51H74.5331H74.5563H74.5794H74.6025H74.6257H74.6488H74.672H74.6951H74.7182H74.7414H74.7645H74.7877H74.8108H74.8339H74.8571H74.8802H74.9034H74.9265H74.9496H74.9728H74.9959H75.0191H75.0422H75.0654H75.0885H75.1116H75.1348H75.1579H75.1811H75.2042H75.2273H75.2505H75.2736H75.2968H75.3199H75.3431H75.3662H75.3893H75.4125H75.4356H75.4588H75.4819H75.5051H75.5282H75.5514H75.5745H75.5976H75.6208H75.6439H75.6671H75.6902H75.7134H75.7365H75.7597H75.7828H75.806H75.8291H75.8523H75.8754H75.8985H75.9217H75.9448H75.968H75.9911H76.0143H76.0374H76.0606H76.0837H76.1069H76.13H76.1532H76.1763H76.1995H76.2226H76.2458H76.2689H76.2921H76.3152H76.3384H76.3615H76.3847H76.4078H76.431H76.4541H76.4773H76.5004H76.5236H76.5468H76.5699H76.5931H76.6162H76.6394H76.6625H76.6857H76.7088H76.732H76.7551H76.7783H76.8014H76.8246H76.8478H76.8709H76.8941H76.9172H76.9404H76.9635H76.9867H77.0099H77.033H77.0562H77.0793H77.1025H77.1256H77.1488H77.172H77.1951H77.2183H77.2414H77.2646H77.2878H77.3109H77.3341H77.3572H77.3804H77.4036H77.4267H77.4499H77.473H77.4962H77.5194H77.5425H77.5657H77.5889H77.612H77.6352H77.6583H77.6815H77.7047H77.7278H77.751H77.7742H77.7973H77.8205H77.8437H77.8668H77.89H77.9132H77.9363H77.9595H77.9827H78.0058H78.029H78.0522H78.0753H78.0985H78.1217H78.1448H78.168H78.1912H78.2144H78.2375H78.2607H78.2839H78.307H78.3302H78.3534H78.3766H78.3997H78.4229H78.4461H78.4692H78.4924H78.5156H78.5388H78.5619H78.5851H78.6083H78.6315H78.6546H78.6778H78.701H78.7242H78.7473H78.7705H78.7937H78.8169H78.8401H78.8632H78.8864H78.9096H78.9328H78.9559H78.9791H79.0023H79.0255H79.0487H79.0719H79.095H79.1182H79.1414H79.1646H79.1878H79.2109H79.2341H79.2573H79.2805H79.3037H79.3269H79.35H79.3732H79.3964H79.4196H79.4428H79.466H79.4892H79.5124H79.5355H79.5587H79.5819H79.6051H79.6283H79.6515H79.6747H79.6979H79.7211H79.7442H79.7674H79.7906H79.8138H79.837H79.8602H79.8834H79.9066H79.9298H79.953H79.9762H79.9994H80.0226H80.0457H80.0689H80.0921H80.1153H80.1385H80.1617H80.1849H80.2081H80.2313H80.2545H80.2777H80.3009H80.3241H80.3473H80.3705H80.3937H80.4169H80.4401H80.4633H80.4865H80.5097H80.5329H80.5561H80.5793H80.6025H80.6257H80.6489H80.6721H80.6954H80.7186H80.7418H80.765H80.7882H80.8114H80.8346H80.8578H80.881H80.9042H80.9274H80.9506H80.9738H80.9971H81.0203H81.0435H81.0667H81.0899H81.1131H81.1363H81.1595H81.1828H81.206H81.2292H81.2524H81.2756H81.2988H81.322H81.3453H81.3685H81.3917H81.4149H81.4381H81.4613H81.4846H81.5078H81.531H81.5542H81.5774H81.6007H81.6239H81.6471H81.6703H81.6936H81.7168H81.74H81.7632H81.7864H81.8097H81.8329H81.8561H81.8793H81.9026H81.9258H81.949H81.9723H81.9955H82.0187H82.0419H82.0652H82.0884H82.1116H82.1349H82.1581H82.1813H82.2046H82.2278H82.251H82.2743H82.2975H82.3207H82.344H82.3672H82.3904H82.4137H82.4369H82.4601H82.4834H82.5066H82.5298H82.5531H82.5763H82.5996H82.6228H82.646H82.6693H82.6925H82.7158H82.739H82.7623H82.7855H82.8087H82.832H82.8552H82.8785H82.9017H82.925H82.9482H82.9715H82.9947H83.018H83.0412H83.0645H83.0877H83.111H83.1342H83.1575H83.1807H83.204H83.2272H83.2505H83.2737H83.297H83.3202H83.3435H83.3667H83.39H83.4132H83.4365C83.4945 63.2166 83.5554 63.2174 83.6181 63.2183C83.8829 63.2219 84.1814 63.226 84.4473 63.1694C84.9177 63.0773 85.3226 62.8838 85.6047 62.5707C85.8898 62.2543 86.0324 61.8346 86.0093 61.327C85.9971 60.8329 85.8365 60.4212 85.5397 60.1181C85.2451 59.8173 84.8336 59.6412 84.3492 59.5828C84.1371 59.548 83.9309 59.5525 83.7407 59.5567C83.6807 59.558 83.6224 59.5592 83.5659 59.5592H83.5192H83.4724H83.4256H83.3789H83.3321H83.2853H83.2386H83.1918H83.145H83.0983H83.0515H83.0047H82.958H82.9112H82.8644H82.8177H82.7709H82.7241H82.6774H82.6306H82.5838H82.5371H82.4903H82.4435H82.3968H82.35H82.3032H82.2565H82.2097H82.1629H82.1162H82.0694H82.0226H81.9759H81.9291H81.8823H81.8356H81.7888H81.742H81.6953H81.6485H81.6017H81.555H81.5082H81.4614H81.4147H81.3679H81.3211H81.2744H81.2276H81.1808H81.1341H81.0873H81.0405H80.9938H80.947H80.9002H80.8535H80.8067H80.7599H80.7132H80.6664H80.6196H80.5729H80.5261H80.4793H80.4326H80.3858H80.339H80.2923H80.2455H80.1987H80.152H80.1052H80.0584H80.0117H79.9649H79.9181H79.8714H79.8246H79.7778H79.7311H79.6843H79.6375H79.5908H79.544H79.4972H79.4505H79.4037H79.3569H79.3102H79.2634H79.2166H79.1699H79.1231H79.0763H79.0296H78.9828H78.936H78.8893H78.8425H78.7957H78.749H78.7022H78.6554H78.6087H78.5619H78.5151H78.4684H78.4216H78.3748H78.3281H78.2813H78.2345H78.1878H78.141H78.0942H78.0475H78.0007H77.9539H77.9072H77.8604H77.8136H77.7669H77.7201H77.6733H77.6266H77.5798H77.533H77.4863H77.4395H77.3927H77.346H77.2992H77.2524H77.2057H77.1589H77.1121H77.0654H77.0186H76.9718H76.9251H76.8783H76.8315H76.7848H76.738H76.6912H76.6445H76.5977H76.5509H76.5042H76.4574H76.4106H76.3639H76.3171H76.2703H76.2236H76.1768H76.13H76.0833H76.0365H75.9897H75.943H75.8962H75.8494H75.8027H75.7559H75.7091H75.6624H75.6156H75.5688H75.5221H75.4753H75.4285H75.3818H75.335H75.2882H75.2415H75.1947H75.1479H75.1012H75.0544H75.0076H74.9609H74.9141H74.8673H74.8206H74.7738H74.727H74.6803H74.6335H74.5867H74.54H74.4932H74.4464H74.3997H74.3529H74.3061H74.2594H74.2126H74.1658H74.1191H74.0723H74.0255H73.9788H73.932H73.8852H73.8385H73.7917H73.7449H73.6982H73.6514H73.6046H73.5579H73.5111H73.4643H73.4176H73.3708H73.324H73.2773H73.2305H73.1837H73.137H73.0902H73.0434H72.9967H72.9499H72.9031H72.8564H72.8096H72.7628H72.7161H72.6693H72.6225H72.5758H72.529H72.4822H72.4355H72.3887H72.3419H72.2952H72.2484H72.2016H72.1549H72.1081H72.0613H72.0146H71.9678H71.921H71.8743H71.8275H71.7807H71.734H71.6872H71.6404H71.5937H71.5469H71.5001H71.4534H71.4066H71.3598H71.3131H71.2663H71.2195H71.1728H71.126H71.0792H71.0325H70.9857H70.9389H70.8922H70.8454H70.7986H70.7519H70.7051H70.6583H70.6116H70.5648H70.518H70.4713H70.4245H70.3777H70.331H70.2842H70.2374H70.1906H70.1439H70.0971H70.0504H70.0036H69.9568H69.91H69.8633H69.8165H69.7697H69.723H69.6762H69.6294H69.5827H69.5359H69.4891H69.4424H69.3956H69.3488H69.3021H69.2553H69.2085H69.1618H69.115H69.0682H69.0215H68.9747H68.9279H68.8812H68.8344H68.7876H68.7409H68.6941H68.6473H68.6006H68.5538H68.507H68.4603H68.4135H68.3667H68.32H68.2732H68.2264H68.1797H68.1329H68.0861H68.0394H67.9926H67.9458H67.8991H67.8523H67.8055H67.7588H67.712H67.6652H67.6185H67.5717H67.5249H67.4782H67.4314H67.3846H67.3379H67.2911H67.2443H67.1976H67.1508H67.104H67.0573H67.0105H66.9637H66.917H66.8702H66.8234H66.7767H66.7299H66.6831H66.6364H66.5896H66.5428H66.4961H66.4493H66.4025H66.3558H66.309H66.2622H66.2155H66.1687H66.1219H66.0752H66.0284H65.9816H65.9349H65.8881H65.8413H65.7946H65.7478H65.701H65.6543H65.6075H65.5607H65.514H65.4672H65.4204H65.3737H65.3269H65.2801H65.2334H65.1866H65.1398H65.0931H65.0463H64.9995H64.9528H64.906H64.8592H64.8125H64.7657H64.7189H64.6722H64.6254H64.5786H64.5319H64.4851H64.4383H64.3916H64.3448H64.298H64.2513H64.2045H64.1577H64.111H64.0642H64.0174H63.9707H63.9239H63.8771H63.8304H63.7836H63.7368H63.6901H63.6433H63.5965H63.5498H63.503H63.4562H63.4095H63.3627H63.3159H63.2692H63.2224H63.1756H63.1289H63.0821H63.0353H62.9886H62.9418H62.895H62.8483H62.8015H62.7547H62.708H62.6612H62.6144H62.5677H62.5209H62.4741H62.4274H62.3806H62.3338H62.2871H62.2403H62.1935H62.1468H62.1H62.0532H62.0065H61.9597H61.9129H61.8662H61.8194H61.7726H61.7259H61.6791H61.6323H61.5856H61.5388H61.492H61.4453H61.3985H61.3517H61.305H61.2582H61.2114H61.1647H61.1179H61.0711H61.0244H60.9776H60.9308H60.8841H60.8373H60.7905H60.7438H60.697H60.6502H60.6035H60.5567H60.5099H60.4632H60.4164H60.3696H60.3229H60.2761H60.2293H60.1826H60.1358H60.089H60.0423H59.9955H59.9487H59.902H59.8552H59.8084H59.7617H59.7149H59.6681H59.6214C59.5499 59.5592 59.4701 59.5532 59.3805 59.5458C59.3716 59.545 59.3627 59.5443 59.3536 59.5435C59.2741 59.5368 59.1878 59.5296 59.1045 59.527C58.9351 59.5217 58.7043 59.5303 58.5424 59.6717C58.4791 59.724 58.4103 59.7791 58.3389 59.8363C58.1438 59.9925 57.9286 60.1648 57.7477 60.3416C57.5042 60.5796 57.2732 60.8708 57.2437 61.2054C57.2038 61.5375 57.3625 61.8789 57.5537 62.1672C57.7508 62.4642 58.0099 62.7449 58.2288 62.9638C58.402 63.1371 58.6671 63.1885 58.8954 63.2078C59.0713 63.2226 59.2649 63.2202 59.4363 63.218C59.4938 63.2173 59.5488 63.2166 59.5998 63.2166Z" fill="#2A2968" stroke="#2A2968" stroke-width="0.4"/>
<path d="M57.313 80.0799C57.2914 81.1369 58.0248 81.7625 59.3623 81.7625H83.7383C85.0542 81.7625 85.8307 81.1153 85.7876 80.0799L85.9875 80.0755C85.9875 80.0748 85.9875 80.0742 85.9875 80.0735M57.313 80.0799L85.9875 80.0735M57.313 80.0799C57.3345 79.066 58.0464 78.5267 59.3623 78.5267L57.313 80.0799ZM85.9875 80.0735C86.0109 80.6471 85.8053 81.1295 85.3998 81.4638C84.9998 81.7936 84.4261 81.9625 83.7383 81.9625H83.6906H83.643H83.5953H83.5477H83.5H83.4524H83.4047H83.3571H83.3094H83.2618H83.2141H83.1665H83.1189H83.0712H83.0236H82.9759H82.9283H82.8806H82.833H82.7853H82.7377H82.6901H82.6424H82.5948H82.5471H82.4995H82.4519H82.4042H82.3566H82.3089H82.2613H82.2137H82.166H82.1184H82.0708H82.0231H81.9755H81.9279H81.8802H81.8326H81.785H81.7373H81.6897H81.6421H81.5944H81.5468H81.4992H81.4515H81.4039H81.3563H81.3087H81.261H81.2134H81.1658H81.1181H81.0705H81.0229H80.9753H80.9276H80.88H80.8324H80.7848H80.7371H80.6895H80.6419H80.5943H80.5466H80.499H80.4514H80.4038H80.3562H80.3085H80.2609H80.2133H80.1657H80.118H80.0704H80.0228H79.9752H79.9276H79.88H79.8323H79.7847H79.7371H79.6895H79.6419H79.5943H79.5466H79.499H79.4514H79.4038H79.3562H79.3086H79.261H79.2133H79.1657H79.1181H79.0705H79.0229H78.9753H78.9277H78.8801H78.8324H78.7848H78.7372H78.6896H78.642H78.5944H78.5468H78.4992H78.4516H78.404H78.3563H78.3087H78.2611H78.2135H78.1659H78.1183H78.0707H78.0231H77.9755H77.9279H77.8803H77.8327H77.7851H77.7375H77.6899H77.6423H77.5947H77.547H77.4994H77.4518H77.4042H77.3566H77.309H77.2614H77.2138H77.1662H77.1186H77.071H77.0234H76.9758H76.9282H76.8806H76.833H76.7854H76.7378H76.6902H76.6426H76.595H76.5474H76.4998H76.4522H76.4046H76.357H76.3094H76.2618H76.2142H76.1666H76.119H76.0714H76.0238H75.9762H75.9287H75.8811H75.8335H75.7859H75.7383H75.6907H75.6431H75.5955H75.5479H75.5003H75.4527H75.4051H75.3575H75.3099H75.2623H75.2147H75.1671H75.1195H75.0719H75.0243H74.9768H74.9292H74.8816H74.834H74.7864H74.7388H74.6912H74.6436H74.596H74.5484H74.5008H74.4532H74.4056H74.3581H74.3105H74.2629H74.2153H74.1677H74.1201H74.0725H74.0249H73.9773H73.9297H73.8821H73.8346H73.787H73.7394H73.6918H73.6442H73.5966H73.549H73.5014H73.4538H73.4062H73.3587H73.3111H73.2635H73.2159H73.1683H73.1207H73.0731H73.0255H72.9779H72.9303H72.8828H72.8352H72.7876H72.74H72.6924H72.6448H72.5972H72.5496H72.502H72.4545H72.4069H72.3593H72.3117H72.2641H72.2165H72.1689H72.1213H72.0737H72.0262H71.9786H71.931H71.8834H71.8358H71.7882H71.7406H71.693H71.6455H71.5979H71.5503H71.5027H71.4551H71.4075H71.3599H71.3123H71.2647H71.2172H71.1696H71.122H71.0744H71.0268H70.9792H70.9316H70.884H70.8364H70.7889H70.7413H70.6937H70.6461H70.5985H70.5509H70.5033H70.4557H70.4082H70.3606H70.313H70.2654H70.2178H70.1702H70.1226H70.075H70.0274H69.9798H69.9323H69.8847H69.8371H69.7895H69.7419H69.6943H69.6467H69.5991H69.5515H69.504H69.4564H69.4088H69.3612H69.3136H69.266H69.2184H69.1708H69.1232H69.0756H69.028H68.9805H68.9329H68.8853H68.8377H68.7901H68.7425H68.6949H68.6473H68.5997H68.5521H68.5045H68.4569H68.4094H68.3618H68.3142H68.2666H68.219H68.1714H68.1238H68.0762H68.0286H67.981H67.9334H67.8858H67.8382H67.7906H67.743H67.6955H67.6479H67.6003H67.5527H67.5051H67.4575H67.4099H67.3623H67.3147H67.2671H67.2195H67.1719H67.1243H67.0767H67.0291H66.9815H66.9339H66.8863H66.8387H66.7911H66.7435H66.6959H66.6483H66.6007H66.5531H66.5055H66.4579H66.4103H66.3627H66.3151H66.2675H66.2199H66.1723H66.1247H66.0771H66.0295H65.9819H65.9343H65.8867H65.8391H65.7915H65.7439H65.6963H65.6487H65.6011H65.5535H65.5059H65.4583H65.4107H65.3631H65.3155H65.2679H65.2203H65.1727H65.1251H65.0775H65.0298H64.9822H64.9346H64.887H64.8394H64.7918H64.7442H64.6966H64.649H64.6014H64.5538H64.5062H64.4586H64.4109H64.3633H64.3157H64.2681H64.2205H64.1729H64.1253H64.0777H64.0301H63.9824H63.9348H63.8872H63.8396H63.792H63.7444H63.6968H63.6491H63.6015H63.5539H63.5063H63.4587H63.4111H63.3634H63.3158H63.2682H63.2206H63.173H63.1254H63.0777H63.0301H62.9825H62.9349H62.8873H62.8396H62.792H62.7444H62.6968H62.6492H62.6015H62.5539H62.5063H62.4587H62.411H62.3634H62.3158H62.2682H62.2205H62.1729H62.1253H62.0777H62.03H61.9824H61.9348H61.8872H61.8395H61.7919H61.7443H61.6966H61.649H61.6014H61.5538H61.5061H61.4585H61.4109H61.3632H61.3156H61.268H61.2203H61.1727H61.1251H61.0774H61.0298H60.9822H60.9345H60.8869H60.8392H60.7916H60.744H60.6963H60.6487H60.6011H60.5534H60.5058H60.4581H60.4105H60.3628H60.3152H60.2676H60.2199H60.1723H60.1246H60.077H60.0293H59.9817H59.9341H59.8864H59.8388H59.7911H59.7435H59.6958H59.6482H59.6005H59.5529H59.5052H59.4576H59.4099H59.3623C58.6657 81.9625 58.0962 81.7999 57.7003 81.4715C57.2983 81.138 57.1012 80.6551 57.113 80.0758L57.113 80.0756C57.1249 79.5181 57.3298 79.0681 57.7315 78.7637C58.1248 78.4656 58.6813 78.3267 59.3623 78.3267H59.3633V78.3267C63.4398 78.3483 67.4947 78.3483 71.5503 78.3483H71.574H71.5978H71.6216H71.6453H71.6691H71.6929H71.7166H71.7404H71.7642H71.7879H71.8117H71.8355H71.8592H71.883H71.9068H71.9305H71.9543H71.9781H72.0018H72.0256H72.0494H72.0732H72.0969H72.1207H72.1445H72.1683H72.192H72.2158H72.2396H72.2634H72.2871H72.3109H72.3347H72.3585H72.3823H72.406H72.4298H72.4536H72.4774H72.5012H72.5249H72.5487H72.5725H72.5963H72.6201H72.6438H72.6676H72.6914H72.7152H72.739H72.7628H72.7865H72.8103H72.8341H72.8579H72.8817H72.9055H72.9293H72.9531H72.9768H73.0006H73.0244H73.0482H73.072H73.0958H73.1196H73.1434H73.1672H73.191H73.2148H73.2385H73.2623H73.2861H73.3099H73.3337H73.3575H73.3813H73.4051H73.4289H73.4527H73.4765H73.5003H73.5241H73.5479H73.5717H73.5955H73.6193H73.6431H73.6669H73.6907H73.7145H73.7383H73.7621H73.7859H73.8097H73.8335H73.8573H73.8811H73.9049H73.9287H73.9525H73.9763H74.0001H74.0239H74.0477H74.0715H74.0953H74.1191H74.1429H74.1667H74.1905H74.2143H74.2381H74.2619H74.2857H74.3096H74.3334H74.3572H74.381H74.4048H74.4286H74.4524H74.4762H74.5H74.5238H74.5476H74.5714H74.5953H74.6191H74.6429H74.6667H74.6905H74.7143H74.7381H74.7619H74.7857H74.8096H74.8334H74.8572H74.881H74.9048H74.9286H74.9524H74.9762H75.0001H75.0239H75.0477H75.0715H75.0953H75.1191H75.1429H75.1668H75.1906H75.2144H75.2382H75.262H75.2858H75.3097H75.3335H75.3573H75.3811H75.4049H75.4287H75.4526H75.4764H75.5002H75.524H75.5478H75.5716H75.5955H75.6193H75.6431H75.6669H75.6907H75.7146H75.7384H75.7622H75.786H75.8098H75.8337H75.8575H75.8813H75.9051H75.9289H75.9528H75.9766H76.0004H76.0242H76.048H76.0719H76.0957H76.1195H76.1433H76.1672H76.191H76.2148H76.2386H76.2624H76.2863H76.3101H76.3339H76.3577H76.3816H76.4054H76.4292H76.453H76.4769H76.5007H76.5245H76.5483H76.5721H76.596H76.6198H76.6436H76.6674H76.6913H76.7151H76.7389H76.7627H76.7866H76.8104H76.8342H76.858H76.8819H76.9057H76.9295H76.9533H76.9772H77.001H77.0248H77.0486H77.0725H77.0963H77.1201H77.1439H77.1678H77.1916H77.2154H77.2392H77.2631H77.2869H77.3107H77.3345H77.3584H77.3822H77.406H77.4298H77.4537H77.4775H77.5013H77.5251H77.549H77.5728H77.5966H77.6205H77.6443H77.6681H77.6919H77.7158H77.7396H77.7634H77.7872H77.8111H77.8349H77.8587H77.8825H77.9064H77.9302H77.954H77.9778H78.0017H78.0255H78.0493H78.0731H78.097H78.1208H78.1446H78.1684H78.1923H78.2161H78.2399H78.2637H78.2876H78.3114H78.3352H78.359H78.3829H78.4067H78.4305H78.4543H78.4782H78.502H78.5258H78.5496H78.5735H78.5973H78.6211H78.6449H78.6688H78.6926H78.7164H78.7402H78.7641H78.7879H78.8117H78.8355H78.8593H78.8832H78.907H78.9308H78.9546H78.9785H79.0023H79.0261H79.0499H79.0738H79.0976H79.1214H79.1452H79.169H79.1929H79.2167H79.2405H79.2643H79.2881H79.312H79.3358H79.3596H79.3834H79.4073H79.4311H79.4549H79.4787H79.5025H79.5264H79.5502H79.574H79.5978H79.6216H79.6455H79.6693H79.6931H79.7169H79.7407H79.7645H79.7884H79.8122H79.836H79.8598H79.8836H79.9074H79.9313H79.9551H79.9789H80.0027H80.0265H80.0503H80.0742H80.098H80.1218H80.1456H80.1694H80.1932H80.2171H80.2409H80.2647H80.2885H80.3123H80.3361H80.3599H80.3838H80.4076H80.4314H80.4552H80.479H80.5028H80.5266H80.5504H80.5742H80.5981H80.6219H80.6457H80.6695H80.6933H80.7171H80.7409H80.7647H80.7885H80.8123H80.8362H80.86H80.8838H80.9076H80.9314H80.9552H80.979H81.0028H81.0266H81.0504H81.0742H81.098H81.1218H81.1456H81.1694H81.1933H81.2171H81.2409H81.2647H81.2885H81.3123H81.3361H81.3599H81.3837H81.4075H81.4313H81.4551H81.4789H81.5027H81.5265H81.5503H81.5741H81.5979H81.6217H81.6455H81.6693H81.6931H81.7169H81.7407H81.7645H81.7883H81.8121H81.8359H81.8597H81.8834H81.9072H81.931H81.9548H81.9786H82.0024H82.0262H82.05H82.0738H82.0976H82.1214H82.1452H82.169H82.1928H82.2165H82.2403H82.2641H82.2879H82.3117H82.3355H82.3593H82.3831H82.4069H82.4306H82.4544H82.4782H82.502H82.5258H82.5496H82.5734H82.5971H82.6209H82.6447H82.6685H82.6923H82.7161H82.7398H82.7636H82.7874H82.8112H82.835H82.8587H82.8825H82.9063H82.9301H82.9539H82.9776H83.0014H83.0252H83.049H83.0727H83.0965H83.1203H83.1441H83.1678H83.1916H83.2154H83.2392H83.2629H83.2867H83.3105H83.3342H83.358H83.3818H83.4056H83.4293H83.4531H83.4769H83.5006H83.5244H83.5482H83.5719H83.5957H83.6195H83.6432H83.667H83.6908H83.7145H83.7383C84.4108 78.3483 84.9659 78.4936 85.3604 78.7902C85.7617 79.092 85.975 79.5342 85.9875 80.0735Z" fill="#2A2968" stroke="#2A2968" stroke-width="0.4"/>
<path d="M83.9646 68.9002L83.9646 68.8999H83.9535H83.9522H83.951H83.9497H83.9484H83.9472H83.9459H83.9446H83.9434H83.9421H83.9408H83.9396H83.9383H83.937H83.9358H83.9345H83.9333H83.932H83.9307H83.9295H83.9282H83.9269H83.9257H83.9244H83.9231H83.9219H83.9206H83.9194H83.9181H83.9168H83.9156H83.9143H83.913H83.9118H83.9105H83.9092H83.908H83.9067H83.9054H83.9042H83.9029H83.9017H83.9004H83.8991H83.8979H83.8966H83.8953H83.8941H83.8928H83.8915H83.8903H83.889H83.8878H83.8865H83.8852H83.884H83.8827H83.8814H83.8802H83.8789H83.8776H83.8764H83.8751H83.8738H83.8726H83.8713H83.8701H83.8688H83.8675H83.8663H83.865H83.8637H83.8625H83.8612H83.8599H83.8587H83.8574H83.8562H83.8549H83.8536H83.8524H83.8511H83.8498H83.8486H83.8473H83.846H83.8448H83.8435H83.8423H83.841H83.8397H83.8385H83.8372H83.8359H83.8347H83.8334H83.8321H83.8309H83.8296H83.8283H83.8271H83.8258H83.8246H83.8233H83.822H83.8208H83.8195H83.8182H83.817H83.8157H83.8144H83.8132H83.8119H83.8107H83.8094H83.8081H83.8069H83.8056H83.8043H83.8031H83.8018H83.8005H83.7993H83.798H83.7967H83.7955H83.7942H83.793H83.7917H83.7904H83.7892H83.7879H83.7866H83.7854H83.7841H83.7828H83.7816H83.7803H83.7791H83.7778H83.7765H83.7753H83.774H83.7727H83.7715H83.7702H83.7689H83.7677H83.7664H83.7651H83.7639H83.7626H83.7614H83.7601H83.7588H83.7576H83.7563H83.755H83.7538H83.7525H83.7512H83.75H83.7487H83.7475H83.7462H83.7449H83.7437H83.7424H83.7411H83.7399H83.7386H83.7373H83.7361H83.7348H83.7335H83.7323H83.731H83.7298H83.7285H83.7272H83.726H83.7247H83.7234H83.7222H83.7209H83.7196H83.7184H83.7171H83.7159H83.7146H83.7133H83.7121H83.7108H83.7095H83.7083H83.707H83.7057H83.7045H83.7032H83.702H83.7007H83.6994H83.6982H83.6969H83.6956H83.6944H83.6931H83.6918H83.6906H83.6893H83.688H83.6868H83.6855H83.6843H83.683H83.6817H83.6805H83.6792H83.6779H83.6767H83.6754H83.6741H83.6729H83.6716H83.6704H83.6691H83.6678H83.6666H83.6653H83.664H83.6628H83.6615H83.6602H83.659H83.6577H83.6564H83.6552H83.6539H83.6527H83.6514H83.6501H83.6489H83.6476H83.6463H83.6451H83.6438H83.6425H83.6413H83.64H83.6388H83.6375H83.6362H83.635H83.6337H83.6324H83.6312H83.6299H83.6286H83.6274H83.6261H83.6248H83.6236H83.6223H83.6211H83.6198H83.6185H83.6173H83.616H83.6147H83.6135H83.6122H83.6109H83.6097H83.6084H83.6072H83.6059H83.6046H83.6034H83.6021H83.6008H83.5996H83.5983H83.597H83.5958H83.5945H83.5932H83.592H83.5907H83.5895H83.5882H83.5869H83.5857H83.5844H83.5831H83.5819H83.5806H83.5793H83.5781H83.5768H83.5756H83.5743H83.573H83.5718H83.5705H83.5692H83.568H83.5667H83.5654H83.5642H83.5629H83.5616H83.5604H83.5591H83.5579H83.5566H83.5553H83.5541H83.5528H83.5515H83.5503H83.549H83.5477H83.5465H83.5452H83.544H83.5427H83.5414H83.5402H83.5389H83.5376H83.5364H83.5351H83.5338H83.5326H83.5313H83.5301H83.5288H83.5275H83.5263H83.525H83.5237H83.5225H83.5212H83.5199H83.5187H83.5174H83.5161H83.5149H83.5136H83.5124H83.5111H83.5098H83.5086H83.5073H83.506H83.5048H83.5035H83.5022H83.501H83.4997H83.4985H83.4972H83.4959H83.4947H83.4934H83.4921H83.4909H83.4896H83.4883H83.4871H83.4858H83.4845H83.4833H83.482H83.4808H83.4795H83.4782H83.477H83.4757H83.4744H83.4732H83.4719H83.4706H83.4694H83.4681H83.4669H83.4656H83.4643H83.4631H83.4618H83.4605H83.4593H83.458H83.4567H83.4555H83.4542H83.4529H83.4517H83.4504H83.4492H83.4479H83.4466H83.4454H83.4441H83.4428H83.4416H83.4403H83.439H83.4378H83.4365H83.4353H83.434H83.4327H83.4315H83.4302H83.4289H83.4277H83.4264H83.4251H83.4239H83.4226H83.4214H83.4201H83.4188H83.4176H83.4163H83.415H83.4138H83.4125H83.4112H83.41H83.4087H83.4074H83.4062H83.4049H83.4037H83.4024H83.4011H83.3999H83.3986H83.3973H83.3961H83.3948H83.3935H83.3923H83.391H83.3898H83.3885H83.3872H83.386H83.3847H83.3834H83.3822H83.3809H83.3796H83.3784H83.3771H83.3758H83.3746H83.3733H83.3721H83.3708H83.3695H83.3683H83.367H83.3657H83.3645H83.3632H83.3619H83.3607H83.3594H83.3582H83.3569H83.3556H83.3544H83.3531H83.3518H83.3506H83.3493H83.348H83.3468H83.3455H83.3442H83.343H83.3417H83.3405H83.3392H83.3379H83.3367H83.3354H83.3341H83.3329H83.3316H83.3303H83.3291H83.3278H83.3266H83.3253H83.324H83.3228H83.3215H83.3202H83.319H83.3177H83.3164H83.3152H83.3139H83.3126H83.3114H83.3101H83.3089H83.3076H83.3063H83.2604H83.2146H83.1687H83.1228H83.0769H83.031H82.9852H82.9393H82.8934H82.8475H82.8016H82.7557H82.7099H82.664H82.6181H82.5722H82.5263H82.4805H82.4346H82.3887H82.3428H82.2969H82.251H82.2052H82.1593H82.1134H82.0675H82.0216H81.9758H81.9299H81.884H81.8381H81.7922H81.7463H81.7005H81.6546H81.6087H81.5628H81.5169H81.4711H81.4252H81.3793H81.3334H81.2875H81.2416H81.1958H81.1499H81.104H81.0581H81.0122H80.9664H80.9205H80.8746H80.8287H80.7828H80.7369H80.6911H80.6452H80.5993H80.5534H80.5075H80.4616H80.4158H80.3699H80.324H80.2781H80.2322H80.1864H80.1405H80.0946H80.0487H80.0028H79.9569H79.9111H79.8652H79.8193H79.7734H79.7275H79.6817H79.6358H79.5899H79.544H79.4981H79.4522H79.4064H79.3605H79.3146H79.2687H79.2228H79.177H79.1311H79.0852H79.0393H78.9934H78.9475H78.9017H78.8558H78.8099H78.764H78.7181H78.6723H78.6264H78.5805H78.5346H78.4887H78.4428H78.397H78.3511H78.3052H78.2593H78.2134H78.1676H78.1217H78.0758H78.0299H77.984H77.9381H77.8923H77.8464H77.8005H77.7546H77.7087H77.6628H77.617H77.5711H77.5252H77.4793H77.4334H77.3876H77.3417H77.2958H77.2499H77.204H77.1581H77.1123H77.0664H77.0205H76.9746H76.9287H76.8829H76.837H76.7911H76.7452H76.6993H76.6534H76.6076H76.5617H76.5158H76.4699H76.424H76.3782H76.3323H76.2864H76.2405H76.1946H76.1487H76.1029H76.057H76.0111H75.9652H75.9193H75.8735H75.8276H75.7817H75.7358H75.6899H75.644H75.5982H75.5523H75.5064H75.4605H75.4146H75.3688H75.3229H75.277H75.2311H75.1852H75.1393H75.0935H75.0476H75.0017H74.9558H74.9099H74.864H74.8182H74.7723H74.7264H74.6805H74.6346H74.5888H74.5429H74.497H74.4511H74.4052H74.3593H74.3135H74.2676H74.2217H74.1758H74.1299H74.0841H74.0382H73.9923H73.9464H73.9005H73.8546H73.8088H73.7629H73.717H73.6711H73.6252H73.5794H73.5335H73.4876H73.4417H73.3958H73.3499H73.3041H73.2582H73.2123H73.1664H73.1205H73.0747H73.0288H72.9829H72.937H72.8911H72.8452H72.7994H72.7535H72.7076H72.6617H72.6158H72.57H72.5241H72.4782H72.4323H72.3864H72.3405H72.2947H72.2488H72.2029H72.157H72.1111H72.0652H72.0194H71.9735H71.9276H71.8817H71.8358H71.79H71.7441H71.6982H71.6523H71.6064H71.5605H71.5147H71.4688H71.4229H71.377H71.3311H71.2853H71.2394H71.1935H71.1476H71.1017H71.0558H71.01H70.9641H70.9182H70.8723H70.8264H70.7806H70.7347H70.6888H70.6429H70.597H70.5511H70.5053H70.4594H70.4135H70.3676H70.3217H70.2759H70.23H70.1841H70.1382H70.0923H70.0464H70.0006H69.9547H69.9088H69.8629H69.817H69.7712H69.7253H69.6794H69.6335H69.5876H69.5417H69.4959H69.45H69.4041H69.3582H69.3123H69.2664H69.2206H69.1747H69.1288H69.0829H69.037H68.9912H68.9453H68.8994H68.8535H68.8076H68.7617H68.7159H68.67H68.6241H68.5782H68.5323H68.4865H68.4406H68.3947H68.3488H68.3029H68.257H68.2112H68.1653H68.1194H68.0735H68.0276H67.9818H67.9359H67.89H67.8441H67.7982H67.7523H67.7065H67.6606H67.6147H67.5688H67.5229H67.4771H67.4312H67.3853H67.3394H67.2935H67.2476H67.2018H67.1559H67.11H67.0641H67.0182H66.9724H66.9265H66.8806H66.8347H66.7888H66.7429H66.6971H66.6512H66.6053H66.5594H66.5135H66.4677H66.4218H66.3759H66.33H66.2841H66.2382H66.1924H66.1465H66.1006H66.0547H66.0088H65.9629H65.9171H65.8712H65.8253H65.7794H65.7335H65.6877H65.6418H65.5959H65.55H65.5041H65.4582H65.4124H65.3665H65.3206H65.2747H65.2288H65.183H65.1371H65.0912H65.0453H64.9994H64.9535H64.9077H64.8618H64.8159H64.77H64.7241H64.6783H64.6324H64.5865H64.5406H64.4947H64.4488H64.403H64.3571H64.3112H64.2653H64.2194H64.1736H64.1277H64.0818H64.0359H63.99H63.9441H63.8983H63.8524H63.8065H63.7606H63.7147H63.6689H63.623H63.5771H63.5312H63.4853H63.4394H63.3936H63.3477H63.3018H63.2559H63.21H63.1641H63.1183H63.0724H63.0265H62.9806H62.9347H62.8889H62.843H62.7971H62.7512H62.7053H62.6594H62.6136H62.5677H62.5218H62.4759H62.43H62.3842H62.3383H62.2924H62.2465H62.2006H62.1547H62.1089H62.063H62.0171H61.9712H61.9253H61.8795H61.8336H61.7877H61.7418H61.6959H61.65H61.6042H61.5583H61.5124H61.4665H61.4206H61.3748H61.3289H61.283H61.2371H61.1912H61.1453H61.0995H61.0536H61.0077H60.9618H60.9159H60.8701H60.8242H60.7783H60.7324H60.6865H60.6406H60.5948H60.5489H60.503H60.4571H60.4112H60.3653H60.3195H60.2736H60.2277H60.1818H60.1359H60.0901H60.0442H59.9983H59.9524H59.9065H59.8606H59.8148L59.8029 68.8999C59.4007 68.8998 58.9262 68.8998 58.4913 69.0143C57.4858 69.2776 56.8645 70.3161 57.2102 71.2807C57.3755 71.7524 57.6476 72.079 58.0096 72.2833C58.3664 72.4846 58.7931 72.5572 59.2539 72.5572H59.2779H59.3019H59.3259H59.35H59.374H59.398H59.422H59.446H59.47H59.4941H59.5181H59.5421H59.5661H59.5901H59.6141H59.6381H59.6622H59.6862H59.7102H59.7342H59.7582H59.7822H59.8063H59.8303H59.8543H59.8783H59.9023H59.9263H59.9503H59.9744H59.9984H60.0224H60.0464H60.0704H60.0944H60.1185H60.1425H60.1665H60.1905H60.2145H60.2385H60.2625H60.2866H60.3106H60.3346H60.3586H60.3826H60.4066H60.4307H60.4547H60.4787H60.5027H60.5267H60.5507H60.5747H60.5988H60.6228H60.6468H60.6708H60.6948H60.7188H60.7429H60.7669H60.7909H60.8149H60.8389H60.8629H60.8869H60.911H60.935H60.959H60.983H61.007H61.031H61.0551H61.0791H61.1031H61.1271H61.1511H61.1751H61.1991H61.2232H61.2472H61.2712H61.2952H61.3192H61.3432H61.3673H61.3913H61.4153H61.4393H61.4633H61.4873H61.5113H61.5354H61.5594H61.5834H61.6074H61.6314H61.6554H61.6795H61.7035H61.7275H61.7515H61.7755H61.7995H61.8235H61.8476H61.8716H61.8956H61.9196H61.9436H61.9676H61.9917H62.0157H62.0397H62.0637H62.0877H62.1117H62.1357H62.1598H62.1838H62.2078H62.2318H62.2558H62.2798H62.3039H62.3279H62.3519H62.3759H62.3999H62.4239H62.4479H62.472H62.496H62.52H62.544H62.568H62.592H62.616H62.6401H62.6641H62.6881H62.7121H62.7361H62.7601H62.7842H62.8082H62.8322H62.8562H62.8802H62.9042H62.9282H62.9523H62.9763H63.0003H63.0243H63.0483H63.0723H63.0964H63.1204H63.1444H63.1684H63.1924H63.2164H63.2404H63.2645H63.2885H63.3125H63.3365H63.3605H63.3845H63.4086H63.4326H63.4566H63.4806H63.5046H63.5286H63.5526H63.5767H63.6007H63.6247H63.6487H63.6727H63.6967H63.7208H63.7448H63.7688H63.7928H63.8168H63.8408H63.8648H63.8889H63.9129H63.9369H63.9609H63.9849H64.0089H64.033H64.057H64.081H64.105H64.129H64.153H64.177H64.2011H64.2251H64.2491H64.2731H64.2971H64.3211H64.3452H64.3692H64.3932H64.4172H64.4412H64.4652H64.4892H64.5133H64.5373H64.5613H64.5853H64.6093H64.6333H64.6574H64.6814H64.7054H64.7294H64.7534H64.7774H64.8014H64.8255H64.8495H64.8735H64.8975H64.9215H64.9455H64.9696H64.9936H65.0176H65.0416H65.0656H65.0896H65.1136H65.1377H65.1617H65.1857H65.2097H65.2337H65.2577H65.2818H65.3058H65.3298H65.3538H65.3778H65.4018H65.4258H65.4499H65.4739H65.4979H65.5219H65.5459H65.5699H65.594H65.618H65.642H65.666H65.69H65.714H65.738H65.7621H65.7861H65.8101H65.8341H65.8581H65.8821H65.9062H65.9302H65.9542H65.9782H66.0022H66.0262H66.0502H66.0743H66.0983H66.1223H66.1463H66.1703H66.1943H66.2184H66.2424H66.2664H66.2904H66.3144H66.3384H66.3624H66.3865H66.4105H66.4345H66.4585H66.4825H66.5065H66.5306H66.5546H66.5786H66.6026H66.6266H66.6506H66.6746H66.6987H66.7227H66.7467H66.7707H66.7947H66.8187H66.8428H66.8668H66.8908H66.9148H66.9388H66.9628H66.9868H67.0109H67.0349H67.0589H67.0829H67.1069H67.1309H67.155H67.179H67.203H67.227H67.251H67.275H67.299H67.3231H67.3471H67.3711H67.3951H67.4191H67.4431H67.4672H67.4912H67.5152H67.5392H67.5632H67.5872H67.6112H67.6353H67.6593H67.6833H67.7073H67.7313H67.7553H67.7794H67.8034H67.8274H67.8514H67.8754H67.8994H67.9234H67.9475H67.9715H67.9955H68.0195H68.0435H68.0675H68.0915H68.1156H68.1396H68.1636H68.1876H68.2116H68.2356H68.2597H68.2837H68.3077H68.3317H68.3557H68.3797H68.4037H68.4278H68.4518H68.4758H68.4998H68.5238H68.5478H68.5719H68.5959H68.6199H68.6439H68.6679H68.6919H68.7159H68.74H68.764H68.788H68.812H68.836H68.86H68.8841H68.9081H68.9321H68.9561H68.9801H69.0041H69.0281H69.0522H69.0762H69.1002H69.1242H69.1482H69.1722H69.1963H69.2203H69.2443H69.2683H69.2923H69.3163H69.3403H69.3644H69.3884H69.4124H69.4364H69.4604H69.4844H69.5085H69.5325H69.5565H69.5805H69.6045H69.6285H69.6525H69.6766H69.7006H69.7246H69.7486H69.7726H69.7966H69.8207H69.8447H69.8687H69.8927H69.9167H69.9407H69.9647H69.9888H70.0128H70.0368H70.0608H70.0848H70.1088H70.1329H70.1569H70.1809H70.2049H70.2289H70.2529H70.2769H70.301H70.325H70.349H70.373H70.397H70.421H70.4451H70.4691H70.4931H70.5171H70.5411H70.5651H70.5891H70.6132H70.6372H70.6612H70.6852H70.7092H70.7332H70.7573H70.7813H70.8053H70.8293H70.8533H70.8773H70.9013H70.9254H70.9494H70.9734H70.9974H71.0214H71.0454H71.0695H71.0935H71.1175H71.1415H71.1655H71.1895H71.2135H71.2376H71.2616H71.2856H71.3096H71.3336H71.3576H71.3817H71.4057H71.4297H71.4537H71.4777H71.5017H71.5257H71.5498C72.3781 72.5572 73.2057 72.558 74.0329 72.5589C77.34 72.5624 80.6408 72.5658 83.9551 72.514C84.5402 72.5137 85.0366 72.3527 85.3958 72.0488C85.7577 71.7426 85.9629 71.3057 85.9869 70.7917L85.9869 70.7917L85.987 70.7869C85.999 70.2497 85.8124 69.7881 85.4508 69.4544C85.0926 69.1237 84.5802 68.9344 83.9646 68.9002Z" fill="#2A2968" stroke="#2A2968" stroke-width="0.4"/>
<path d="M58.5103 53.7076L58.5103 53.7076L58.5115 53.7086C58.6896 53.8381 58.9247 53.8492 59.1149 53.8438C59.2041 53.8412 59.2964 53.8342 59.3829 53.8275C59.3936 53.8267 59.4043 53.8259 59.4148 53.8251C59.5129 53.8177 59.603 53.8115 59.6862 53.8115H59.7094H59.7327H59.756H59.7792H59.8025H59.8257H59.849H59.8722H59.8955H59.9187H59.942H59.9652H59.9885H60.0117H60.035H60.0582H60.0815H60.1047H60.128H60.1512H60.1745H60.1977H60.221H60.2442H60.2675H60.2907H60.3139H60.3372H60.3604H60.3837H60.4069H60.4302H60.4534H60.4766H60.4999H60.5231H60.5464H60.5696H60.5928H60.6161H60.6393H60.6626H60.6858H60.709H60.7323H60.7555H60.7787H60.802H60.8252H60.8484H60.8717H60.8949H60.9181H60.9414H60.9646H60.9878H61.0111H61.0343H61.0575H61.0807H61.104H61.1272H61.1504H61.1737H61.1969H61.2201H61.2433H61.2666H61.2898H61.313H61.3362H61.3595H61.3827H61.4059H61.4291H61.4524H61.4756H61.4988H61.522H61.5452H61.5685H61.5917H61.6149H61.6381H61.6613H61.6846H61.7078H61.731H61.7542H61.7774H61.8006H61.8239H61.8471H61.8703H61.8935H61.9167H61.9399H61.9631H61.9864H62.0096H62.0328H62.056H62.0792H62.1024H62.1256H62.1488H62.172H62.1953H62.2185H62.2417H62.2649H62.2881H62.3113H62.3345H62.3577H62.3809H62.4041H62.4273H62.4505H62.4737H62.4969H62.5202H62.5434H62.5666H62.5898H62.613H62.6362H62.6594H62.6826H62.7058H62.729H62.7522H62.7754H62.7986H62.8218H62.845H62.8682H62.8914H62.9146H62.9378H62.961H62.9842H63.0074H63.0305H63.0537H63.0769H63.1001H63.1233H63.1465H63.1697H63.1929H63.2161H63.2393H63.2625H63.2857H63.3089H63.3321H63.3553H63.3784H63.4016H63.4248H63.448H63.4712H63.4944H63.5176H63.5408H63.564H63.5871H63.6103H63.6335H63.6567H63.6799H63.7031H63.7263H63.7495H63.7726H63.7958H63.819H63.8422H63.8654H63.8886H63.9117H63.9349H63.9581H63.9813H64.0045H64.0277H64.0508H64.074H64.0972H64.1204H64.1436H64.1667H64.1899H64.2131H64.2363H64.2595H64.2826H64.3058H64.329H64.3522H64.3753H64.3985H64.4217H64.4449H64.468H64.4912H64.5144H64.5376H64.5607H64.5839H64.6071H64.6303H64.6534H64.6766H64.6998H64.723H64.7461H64.7693H64.7925H64.8157H64.8388H64.862H64.8852H64.9083H64.9315H64.9547H64.9778H65.001H65.0242H65.0474H65.0705H65.0937H65.1169H65.14H65.1632H65.1864H65.2095H65.2327H65.2559H65.279H65.3022H65.3254H65.3485H65.3717H65.3949H65.418H65.4412H65.4643H65.4875H65.5107H65.5338H65.557H65.5802H65.6033H65.6265H65.6496H65.6728H65.696H65.7191H65.7423H65.7655H65.7886H65.8118H65.8349H65.8581H65.8813H65.9044H65.9276H65.9507H65.9739H65.997H66.0202H66.0434H66.0665H66.0897H66.1128H66.136H66.1592H66.1823H66.2055H66.2286H66.2518H66.2749H66.2981H66.3212H66.3444H66.3676H66.3907H66.4139H66.437H66.4602H66.4833H66.5065H66.5296H66.5528H66.5759H66.5991H66.6222H66.6454H66.6685H66.6917H66.7149H66.738H66.7612H66.7843H66.8075H66.8306H66.8538H66.8769H66.9001H66.9232H66.9464H66.9695H66.9927H67.0158H67.039H67.0621H67.0853H67.1084H67.1315H67.1547H67.1778H67.201H67.2241H67.2473H67.2704H67.2936H67.3167H67.3399H67.363H67.3862H67.4093H67.4325H67.4556H67.4788H67.5019H67.525H67.5482H67.5713H67.5945H67.6176H67.6408H67.6639H67.6871H67.7102H67.7333H67.7565H67.7796H67.8028H67.8259H67.8491H67.8722H67.8953H67.9185H67.9416H67.9648H67.9879H68.0111H68.0342H68.0573H68.0805H68.1036H68.1268H68.1499H68.173H68.1962H68.2193H68.2425H68.2656H68.2887H68.3119H68.335H68.3582H68.3813H68.4044H68.4276H68.4507H68.4739H68.497H68.5201H68.5433H68.5664H68.5896H68.6127H68.6358H68.659H68.6821H68.7052H68.7284H68.7515H68.7747H68.7978H68.8209H68.8441H68.8672H68.8903H68.9135H68.9366H68.9598H68.9829H69.006H69.0292H69.0523H69.0754H69.0986H69.1217H69.1448H69.168H69.1911H69.2143H69.2374H69.2605H69.2837H69.3068H69.3299H69.3531H69.3762H69.3993H69.4225H69.4456H69.4687H69.4919H69.515H69.5381H69.5613H69.5844H69.6075H69.6307H69.6538H69.6769H69.7001H69.7232H69.7463H69.7695H69.7926H69.8157H69.8389H69.862H69.8851H69.9083H69.9314H69.9545H69.9777H70.0008H70.0239H70.0471H70.0702H70.0933H70.1165H70.1396H70.1627H70.1859H70.209H70.2321H70.2553H70.2784H70.3015H70.3247H70.3478H70.3709H70.3941H70.4172H70.4403H70.4635H70.4866H70.5097H70.5329H70.556H70.5791H70.6022H70.6254H70.6485H70.6716H70.6948H70.7179H70.741H70.7642H70.7873H70.8104H70.8336H70.8567H70.8798H70.9029H70.9261H70.9492H70.9723H70.9955H71.0186H71.0417H71.0649H71.088H71.1111H71.1343H71.1574H71.1805H71.2036H71.2268H71.2499H71.273H71.2962H71.3193H71.3424H71.3656H71.3887H71.4118H71.435H71.4581H71.4812H71.5043H71.5275H71.5506H71.5514C75.4773 53.8115 79.4025 53.8115 83.2845 53.8331H83.2856C84.1483 53.8331 84.8048 53.7145 85.2556 53.4301C85.7244 53.1344 85.9426 52.6783 85.9662 52.0879L85.9662 52.0876C85.99 51.4685 85.7715 50.9774 85.2936 50.6526C84.8319 50.3387 84.1526 50.1973 83.2856 50.1973H83.2397H83.1938H83.148H83.1021H83.0562H83.0103H82.9644H82.9186H82.8727H82.8268H82.7809H82.735H82.6891H82.6433H82.5974H82.5515H82.5056H82.4597H82.4138H82.368H82.3221H82.2762H82.2303H82.1844H82.1386H82.0927H82.0468H82.0009H81.955H81.9091H81.8633H81.8174H81.7715H81.7256H81.6797H81.6339H81.588H81.5421H81.4962H81.4503H81.4044H81.3586H81.3127H81.2668H81.2209H81.175H81.1292H81.0833H81.0374H80.9915H80.9456H80.8997H80.8539H80.808H80.7621H80.7162H80.6703H80.6245H80.5786H80.5327H80.4868H80.4409H80.395H80.3492H80.3033H80.2574H80.2115H80.1656H80.1198H80.0739H80.028H79.9821H79.9362H79.8903H79.8445H79.7986H79.7527H79.7068H79.6609H79.615H79.5692H79.5233H79.4774H79.4315H79.3856H79.3398H79.2939H79.248H79.2021H79.1562H79.1103H79.0645H79.0186H78.9727H78.9268H78.8809H78.8351H78.7892H78.7433H78.6974H78.6515H78.6056H78.5598H78.5139H78.468H78.4221H78.3762H78.3304H78.2845H78.2386H78.1927H78.1468H78.1009H78.0551H78.0092H77.9633H77.9174H77.8715H77.8257H77.7798H77.7339H77.688H77.6421H77.5962H77.5504H77.5045H77.4586H77.4127H77.3668H77.321H77.2751H77.2292H77.1833H77.1374H77.0915H77.0457H76.9998H76.9539H76.908H76.8621H76.8162H76.7704H76.7245H76.6786H76.6327H76.5868H76.541H76.4951H76.4492H76.4033H76.3574H76.3115H76.2657H76.2198H76.1739H76.128H76.0821H76.0363H75.9904H75.9445H75.8986H75.8527H75.8068H75.761H75.7151H75.6692H75.6233H75.5774H75.5316H75.4857H75.4398H75.3939H75.348H75.3021H75.2563H75.2104H75.1645H75.1186H75.0727H75.0269H74.981H74.9351H74.8892H74.8433H74.7974H74.7516H74.7057H74.6598H74.6139H74.568H74.5222H74.4763H74.4304H74.3845H74.3386H74.2927H74.2469H74.201H74.1551H74.1092H74.0633H74.0175H73.9716H73.9257H73.8798H73.8339H73.788H73.7422H73.6963H73.6504H73.6045H73.5586H73.5127H73.4669H73.421H73.3751H73.3292H73.2833H73.2375H73.1916H73.1457H73.0998H73.0539H73.008H72.9622H72.9163H72.8704H72.8245H72.7786H72.7328H72.6869H72.641H72.5951H72.5492H72.5033H72.4575H72.4116H72.3657H72.3198H72.2739H72.2281H72.1822H72.1363H72.0904H72.0445H71.9986H71.9528H71.9069H71.861H71.8151H71.7692H71.7234H71.6775H71.6316H71.5857H71.5398H71.4939H71.4481H71.4022H71.3563H71.3104H71.2645H71.2186H71.1728H71.1269H71.081H71.0351H70.9892H70.9434H70.8975H70.8516H70.8057H70.7598H70.7139H70.6681H70.6222H70.5763H70.5304H70.4845H70.4387H70.3928H70.3469H70.301H70.2551H70.2092H70.1634H70.1175H70.0716H70.0257H69.9798H69.934H69.8881H69.8422H69.7963H69.7504H69.7045H69.6587H69.6128H69.5669H69.521H69.4751H69.4293H69.3834H69.3375H69.2916H69.2457H69.1998H69.154H69.1081H69.0622H69.0163H68.9704H68.9246H68.8787H68.8328H68.7869H68.741H68.6951H68.6493H68.6034H68.5575H68.5116H68.4657H68.4199H68.374H68.3281H68.2822H68.2363H68.1904H68.1446H68.0987H68.0528H68.0069H67.961H67.9151H67.8693H67.8234H67.7775H67.7316H67.6857H67.6399H67.594H67.5481H67.5022H67.4563H67.4104H67.3646H67.3187H67.2728H67.2269H67.181H67.1352H67.0893H67.0434H66.9975H66.9516H66.9057H66.8599H66.814H66.7681H66.7222H66.6763H66.6305H66.5846H66.5387H66.4928H66.4469H66.401H66.3552H66.3093H66.2634H66.2175H66.1716H66.1258H66.0799H66.034H65.9881H65.9422H65.8963H65.8505H65.8046H65.7587H65.7128H65.6669H65.6211H65.5752H65.5293H65.4834H65.4375H65.3916H65.3458H65.2999H65.254H65.2081H65.1622H65.1163H65.0705H65.0246H64.9787H64.9328H64.8869H64.8411H64.7952H64.7493H64.7034H64.6575H64.6116H64.5658H64.5199H64.474H64.4281H64.3822H64.3364H64.2905H64.2446H64.1987H64.1528H64.1069H64.0611H64.0152H63.9693H63.9234H63.8775H63.8317H63.7858H63.7399H63.694H63.6481H63.6022H63.5564H63.5105H63.4646H63.4187H63.3728H63.327H63.2811H63.2352H63.1893H63.1434H63.0975H63.0517H63.0058H62.9599H62.914H62.8681H62.8223H62.7764H62.7305H62.6846H62.6387H62.5928H62.547H62.5011H62.4552H62.4093H62.3634H62.3175H62.2717H62.2258H62.1799H62.134H62.0881H62.0423H61.9964H61.9505H61.9046H61.8587H61.8128H61.767H61.7211H61.6752H61.6293H61.5834H61.5376H61.4917H61.4458H61.3999H61.354H61.3081H61.2623H61.2164H61.1705H61.1246H61.0787H61.0329H60.987H60.9411H60.8952H60.8493H60.8034H60.7576H60.7117H60.6658H60.6199H60.574H60.5282H60.4823H60.4364H60.3905H60.3446H60.2987H60.2529H60.207H60.1611H60.1152H60.0693H60.0235H59.9776H59.9317H59.8858H59.8399H59.794L59.7795 50.1973C59.3363 50.1973 58.8157 50.1973 58.356 50.3352L58.356 50.3352L58.355 50.3355C57.9313 50.465 57.571 50.7101 57.3494 51.041C57.1249 51.3762 57.05 51.7896 57.1872 52.2262L57.1872 52.2262L57.1875 52.2272C57.2876 52.54 57.5011 52.8201 57.74 53.0618C57.9805 53.3051 58.2604 53.5229 58.5103 53.7076Z" fill="#2A2968" stroke="#2A2968" stroke-width="0.4"/>
<path d="M83.9274 102.517L83.9274 102.514C83.9274 101.072 82.7453 99.9116 81.326 99.9316L83.9274 102.517ZM83.9274 102.517C83.9474 103.957 82.789 105.117 81.3258 105.097V105.097M83.9274 102.517L81.3258 105.097M81.3258 105.097H81.3231M81.3258 105.097H81.3231M81.3231 105.097C79.9065 105.097 78.7634 103.919 78.7834 102.474M81.3231 105.097L78.7834 102.474M78.7834 102.474C78.8034 101.094 79.9457 99.9516 81.3259 99.9316L78.7834 102.474ZM81.3662 108.754C84.7987 108.754 87.5847 105.968 87.5847 102.536C87.5847 99.1058 84.8226 96.2958 81.4093 96.2958C77.9766 96.2958 75.1916 99.0818 75.1693 102.513C75.147 105.924 77.9326 108.754 81.3662 108.754Z" fill="#2A2968" stroke="#2A2968" stroke-width="0.4"/>
<path d="M55.2891 80.0106L55.289 80.0097C55.2198 79.5025 55.032 79.0821 54.7106 78.7888C54.388 78.4944 53.9529 78.3482 53.4298 78.3482H53.4248H53.4199H53.415H53.4101H53.4051H53.4002H53.3953H53.3904H53.3854H53.3805H53.3756H53.3707H53.3657H53.3608H53.3559H53.351H53.346H53.3411H53.3362H53.3313H53.3264H53.3214H53.3165H53.3116H53.3067H53.3018H53.2969H53.2919H53.287H53.2821H53.2772H53.2723H53.2674H53.2625H53.2575H53.2526H53.2477H53.2428H53.2379H53.233H53.2281H53.2232H53.2183H53.2133H53.2084H53.2035H53.1986H53.1937H53.1888H53.1839H53.179H53.1741H53.1692H53.1643H53.1594H53.1545H53.1496H53.1447H53.1398H53.1349H53.13H53.1251H53.1202H53.1153H53.1104H53.1055H53.1006H53.0957H53.0908H53.0859H53.081H53.0761H53.0712H53.0663H53.0614H53.0565H53.0516H53.0467H53.0418H53.0369H53.032H53.0271H53.0222H53.0174H53.0125H53.0076H53.0027H52.9978H52.9929H52.988H52.9831H52.9782H52.9733H52.9685H52.9636H52.9587H52.9538H52.9489H52.944H52.9391H52.9343H52.9294H52.9245H52.9196H52.9147H52.9098H52.905H52.9001H52.8952H52.8903H52.8854H52.8805H52.8757H52.8708H52.8659H52.861H52.8562H52.8513H52.8464H52.8415H52.8366H52.8318H52.8269H52.822H52.8171H52.8123H52.8074H52.8025H52.7976H52.7928H52.7879H52.783H52.7781H52.7733H52.7684H52.7635H52.7587H52.7538H52.7489H52.7441H52.7392H52.7343H52.7294H52.7246H52.7197H52.7148H52.71H52.7051H52.7002H52.6954H52.6905H52.6856H52.6808H52.6759H52.671H52.6662H52.6613H52.6565H52.6516H52.6467H52.6419H52.637H52.6321H52.6273H52.6224H52.6176H52.6127H52.6078H52.603H52.5981H52.5933H52.5884H52.5835H52.5787H52.5738H52.569H52.5641H52.5592H52.5544H52.5495H52.5447H52.5398H52.535H52.5301H52.5253H52.5204H52.5156H52.5107H52.5058H52.501H52.4961H52.4913H52.4864H52.4816H52.4767H52.4719H52.467H52.4622H52.4573H52.4525H52.4476H52.4428H52.4379H52.4331H52.4282H52.4234H52.4185H52.4137H52.4088H52.404H52.3991H52.3943H52.3894H52.3846H52.3798H52.3749H52.3701H52.3652H52.3604H52.3555H52.3507H52.3458H52.341H52.3362H52.3313H52.3265H52.3216H52.3168H52.3119H52.3071H52.3023H52.2974H52.2926H52.2877H52.2829H52.2781H52.2732H52.2684H52.2635H52.2587H52.2539H52.249H52.2442H52.2394H52.2345H52.2297H52.2248H52.22H52.2152H52.2103H52.2055H52.2007H52.1958H52.191H52.1862H52.1813H52.1765H52.1716H52.1668H52.162H52.1571H52.1523H52.1475H52.1426H52.1378H52.133H52.1282H52.1233H52.1185H52.1137H52.1088H52.104H52.0992H52.0943H52.0895H52.0847H52.0798H52.075H52.0702H52.0654H52.0605H52.0557H52.0509H52.046H52.0412H52.0364H52.0316H52.0267H52.0219H52.0171H52.0122H52.0074H52.0026H51.9978H51.9929H51.9881H51.9833H51.9785H51.9736H51.9688H51.964H51.9592H51.9543H51.9495H51.9447H51.9399H51.935H51.9302H51.9254H51.9206H51.9158H51.9109H51.9061H51.9013H51.8965H51.8916H51.8868H51.882H51.8772H51.8724H51.8675H51.8627H51.8579H51.8531H51.8483H51.8434H51.8386H51.8338H51.829H51.8242H51.8193H51.8145H51.8097H51.8049H51.8001H51.7953H51.7904H51.7856H51.7808H51.776H51.7712H51.7663H51.7615H51.7567H51.7519H51.7471H51.7423H51.7374H51.7326H51.7278H51.723H51.7182H51.7134H51.7086H51.7037H51.6989H51.6941H51.6893H51.6845H51.6797H51.6749H51.67H51.6652H51.6604H51.6556H51.6508H51.646H51.6412H51.6363H51.6315H51.6267H51.6219H51.6171H51.6123H51.6075H51.6027H51.5978H51.593H51.5882H51.5834H51.5786H51.5738H51.569H51.5642H51.5594H51.5545H51.5497H51.5449H51.5401H51.5353H51.5305H51.5257H51.5209H51.5161H51.5113H51.5064H51.5016H51.4968H51.492H51.4872H51.4824H51.4776H51.4728H51.468H51.4632H51.4584H51.4535H51.4487H51.4439H51.4391H51.4343H51.4295H51.4247H51.4199H51.4151H51.4103H51.4055H51.4007H51.3959H51.391H51.3862H51.3814H51.3766H51.3718H51.367H51.3622H51.3574H51.3526H51.3478H51.343H51.3382H51.3334H51.3286H51.3238H51.3189H51.3141H51.3093H51.3045H51.2997H51.2949H51.2901H51.2853H51.2805H51.2757H51.2709H51.2661H51.2613H51.2565H51.2517H51.2469H51.2421H51.2373H51.2324H51.2276H51.2228H51.218H51.2132H51.2084H51.2036H51.1988H51.194H51.1892H51.1844H51.1796H51.1748H51.17H51.1652H51.1604H51.1556H51.1508H51.146H51.1412H51.1364H51.1316H51.1268H51.122H51.1171H51.1123H51.1075H51.1027H51.0979H51.0931H51.0883H51.0835H51.0787H51.0739H51.0691H51.0643H51.0595H51.0547H51.0499H51.0451H51.0403H51.0355H51.0307H51.0259H51.0211H51.0163H51.0115H51.0067H51.0019H50.9971H50.9923H50.9875H50.9827H50.9779H50.9731H50.9682H50.9634H50.9586H50.9538H50.949C50.7359 78.3482 50.5217 78.3469 50.307 78.3456C49.6607 78.3415 49.0107 78.3374 48.3747 78.3699C47.8416 78.3821 47.3934 78.5456 47.0707 78.8435C46.7464 79.1428 46.5665 79.5616 46.5428 80.0485C46.4952 81.0245 47.1224 81.8915 48.1786 81.9406L48.1786 81.9406L48.1808 81.9407C50.0191 82.0056 51.8574 82.0056 53.6742 81.9407L53.6742 81.9407L53.6768 81.9406C54.683 81.8915 55.4115 80.9413 55.2891 80.0106Z" fill="#2A2968" stroke="#2A2968" stroke-width="0.4"/>
<path d="M46.5438 70.9049L46.5439 70.9049C46.4722 69.9247 47.1019 69.0571 48.1577 69.0079M46.5438 70.9049L53.5432 72.5571C54.048 72.5453 54.4609 72.3853 54.7623 72.0902C55.0616 71.7971 55.232 71.3894 55.29 70.9154C55.4125 69.9799 54.6782 69.0566 53.6558 69.0079L53.6558 69.0079L53.6533 69.0078C51.8169 68.943 49.9773 68.9212 48.1577 69.0079M46.5438 70.9049L46.5442 70.9092M46.5438 70.9049L46.5442 70.9092M48.1577 69.0079C48.1577 69.0079 48.1577 69.0079 48.1578 69.0079L48.1671 69.2077M48.1577 69.0079C48.1576 69.0079 48.1576 69.0079 48.1576 69.0079L48.1671 69.2077M48.1671 69.2077C47.2395 69.2508 46.6786 70.0058 46.7433 70.8903L48.1671 69.2077ZM46.5442 70.9092C46.5908 71.3979 46.762 71.8029 47.0634 72.0917C47.3647 72.3804 47.7757 72.5335 48.2647 72.5569M46.5442 70.9092L48.2647 72.5569M48.2647 72.5569C48.8313 72.5859 49.4132 72.5762 49.9903 72.5666C50.2761 72.5619 50.5609 72.5571 50.842 72.5571C51.1413 72.5571 51.44 72.5595 51.7388 72.5619C52.3376 72.5667 52.9369 72.5715 53.5431 72.5571L48.2647 72.5569Z" fill="#2A2968" stroke="#2A2968" stroke-width="0.4"/>
<path d="M53.4597 59.581L53.4597 59.581C54.5455 59.6282 55.312 60.3727 55.312 61.3772C55.312 62.3225 54.5826 63.1491 53.542 63.1734M53.4597 59.581L53.5373 62.9735M53.4597 59.581L53.456 59.5809C52.8775 59.5664 52.2963 59.5713 51.719 59.5761C51.4322 59.5785 51.1464 59.5808 50.8624 59.5808C50.4541 59.5808 50.0455 59.5755 49.6354 59.5701L49.6348 59.5701C49.2253 59.5647 48.8144 59.5593 48.4032 59.5593V59.5591L48.3947 59.5595C47.8488 59.5827 47.3839 59.7639 47.0538 60.0817C46.7222 60.4008 46.5422 60.843 46.5422 61.3556C46.5422 61.8415 46.7025 62.2902 47.0039 62.6225C47.3069 62.9564 47.7426 63.1613 48.2688 63.1734M53.4597 59.581L48.2738 62.9735M53.542 63.1734C53.542 63.1734 53.542 63.1734 53.5419 63.1734L53.5373 62.9735M53.542 63.1734C53.5421 63.1734 53.5421 63.1734 53.5422 63.1734L53.5373 62.9735M53.542 63.1734C51.7915 63.2166 50.0194 63.2166 48.2688 63.1734M53.5373 62.9735C51.79 63.0166 50.0211 63.0166 48.2738 62.9735M48.2688 63.1734C48.269 63.1734 48.2691 63.1734 48.2692 63.1734L48.2738 62.9735M48.2688 63.1734L48.2738 62.9735" fill="#2A2968" stroke="#2A2968" stroke-width="0.4"/>
<path d="M48.3733 53.8113L48.3733 53.8113L48.3767 53.8114C48.9266 53.8259 49.4794 53.821 50.028 53.8162C50.3004 53.8138 50.5717 53.8115 50.8412 53.8115C51.131 53.8115 51.4249 53.8138 51.7212 53.8162C52.3223 53.821 52.9337 53.8259 53.5424 53.8114L53.5424 53.8114L53.5467 53.8112C54.5851 53.7641 55.3604 53.0211 55.3122 52.0508C55.3002 51.5649 55.1605 51.1295 54.8841 50.8065C54.6045 50.4798 54.2001 50.2861 53.6981 50.2622L53.6981 50.2622L53.6957 50.2621C51.8574 50.1972 50.0191 50.1972 48.2023 50.2621L48.2023 50.2621L48.2003 50.2622C47.6748 50.2861 47.2484 50.4973 46.9612 50.8406C46.6763 51.1813 46.5412 51.6365 46.5642 52.1302C46.5767 52.6182 46.7513 53.0326 47.0734 53.3297C47.394 53.6254 47.8422 53.7882 48.3733 53.8113Z" fill="#2A2968" stroke="#2A2968" stroke-width="0.4"/>
<path d="M83.2057 93.5231L83.2058 93.5229C83.2173 92.9248 83.0564 92.4014 82.746 92.018C82.4335 91.632 81.9802 91.4018 81.4399 91.3778C80.8971 91.3536 80.4237 91.5541 80.0885 91.9231C79.7557 92.2895 79.5704 92.8088 79.57 93.4093C79.5589 94.0193 79.7317 94.5441 80.0554 94.9196C80.3812 95.2977 80.8474 95.5095 81.3879 95.5095C82.4459 95.5095 83.1824 94.6661 83.2057 93.5231Z" fill="#2A2968" stroke="#2A2968" stroke-width="0.4"/>
<path d="M86.4244 97.127L86.4251 97.1271C86.9583 97.1519 87.4892 96.8931 87.8863 96.5104C88.2842 96.1271 88.5728 95.5959 88.5972 95.0381C88.6453 94.022 87.8475 93.1491 86.8274 93.1249C86.3012 93.1123 85.7761 93.3973 85.3897 93.7981C85.0027 94.1996 84.7251 94.7475 84.7243 95.307C84.7013 96.3017 85.4571 97.0787 86.4244 97.127Z" fill="#2A2968" stroke="#2A2968" stroke-width="0.4"/>
<path d="M78.0066 95.4009L78.0066 95.4009C77.9822 96.3502 77.1831 97.1462 76.2153 97.1704L76.2103 97.1705V97.1705C75.6457 97.1705 75.105 96.8779 74.7157 96.4596C74.3259 96.0407 74.0664 95.473 74.0906 94.8913L74.0907 94.8898L74.0907 94.8898C74.139 93.8997 74.8959 93.1655 75.913 93.1896L78.0066 95.4009ZM78.0066 95.4009V95.3957M78.0066 95.4009V95.3957M78.0066 95.3957C78.0066 94.8566 77.7339 94.3137 77.3508 93.9076M78.0066 95.3957L77.3508 93.9076M77.3508 93.9076C76.9682 93.502 76.4463 93.2021 75.9131 93.1896L77.3508 93.9076Z" fill="#2A2968" stroke="#2A2968" stroke-width="0.4"/>
<path d="M81.3442 105.519C82.9873 105.519 84.327 104.177 84.327 102.514C84.327 100.853 82.9879 99.5077 81.3399 99.5533C79.7454 99.5772 78.4285 100.87 78.4046 102.489C78.3591 104.132 79.6997 105.519 81.3442 105.519Z" fill="#FFDC55" stroke="#2A2968" stroke-width="0.4"/>
</svg>
