<svg xmlns="http://www.w3.org/2000/svg" width="58.031" height="58" viewBox="0 0 58.031 58">
  <g id="cc6ANW.tif" transform="translate(187.067 203.052)">
    <g id="Group_316" data-name="Group 316" transform="translate(-187.067 -203.052)">
      <path id="Path_443" data-name="Path 443" d="M-156.227-145.053h-3.625c-.183-.034-.365-.075-.549-.1-1.212-.174-2.44-.275-3.634-.529a28.488,28.488,0,0,1-14.219-7.6.78.78,0,0,0-.928-.228,5.829,5.829,0,0,1-2.793.194,5.989,5.989,0,0,1-4.939-6.906,20.436,20.436,0,0,1,1.247-3.5,1.788,1.788,0,0,0,.066-1.34,28.4,28.4,0,0,1-.349-16.884,28.972,28.972,0,0,1,34.626-20.328,29.006,29.006,0,0,1,21.849,23.222c.176,1.058.295,2.125.44,3.187v3.625c-.032.146-.073.291-.095.438-.2,1.342-.322,2.7-.6,4.025A29.009,29.009,0,0,1-152.987-145.5C-154.063-145.325-155.147-145.2-156.227-145.053Zm-19.743-10.773a25.618,25.618,0,0,0,34.024,1.695,25.729,25.729,0,0,0,5.079-34.348,25.6,25.6,0,0,0-34.3-7.552,25.033,25.033,0,0,0-11.519,15.041,25.157,25.157,0,0,0-.386,12.3l2.125-3.489c.419.7.806,1.336,1.191,1.978a62.931,62.931,0,0,1,4.131,7.789C-174.676-160.162-174.476-157.969-175.971-155.825Zm-4.983-9.728a29.616,29.616,0,0,0-2.611,5.789,2.046,2.046,0,0,0-.056.78,2.69,2.69,0,0,0,3.187,2.295,2.539,2.539,0,0,0,2-3.364c-.57-1.548-1.321-3.031-2-4.538C-180.568-164.894-180.747-165.177-180.953-165.554Z" transform="translate(187.067 203.052)" fill="#2a2968"/>
      <path id="Path_444" data-name="Path 444" d="M-172.306-152.193c1.494-2.143,1.295-4.337.344-6.589a62.931,62.931,0,0,0-4.131-7.789c-.384-.642-.772-1.282-1.191-1.978l-2.125,3.489a25.156,25.156,0,0,1,.386-12.3A25.033,25.033,0,0,1-167.5-192.4a25.6,25.6,0,0,1,34.3,7.552,25.729,25.729,0,0,1-5.079,34.348A25.618,25.618,0,0,1-172.306-152.193Zm26.353-4.063c.557,0,1.121.021,1.683,0a5.1,5.1,0,0,0,4.689-5.848,5.1,5.1,0,0,0-5.166-4.327c-3.719-.013-7.438,0-11.157,0-2.662,0-5.324-.025-7.986.008a5.086,5.086,0,0,0-5.1,5.117,5.088,5.088,0,0,0,5.089,5.068c.372.008.745,0,1.112,0a8.478,8.478,0,0,0,8.395,7.982A8.481,8.481,0,0,0-145.953-156.256Zm-.525-32.69c-.731,2.6.644,5.961,3.121,7.725,2.339,1.666,6.017,1.91,8.059.507l-1.525-2.943a4.408,4.408,0,0,1-4.657-.415,4.461,4.461,0,0,1-1.752-4.3Zm-26.977,8.234c2.24,1.489,6.042,1.122,8.419-.778,2.251-1.8,3.546-5.289,2.738-7.451l-3.2.568a4.512,4.512,0,0,1-6.441,4.732Zm13.267,9.386v-6.949h-3.325v6.949Zm14.951,0v-6.954h-3.329v6.954Z" transform="translate(183.402 199.42)" fill="#fff"/>
      <path id="Path_445" data-name="Path 445" d="M-177.269-125.289c.206.377.385.659.522.961.681,1.507,1.431,2.99,2,4.538a2.539,2.539,0,0,1-2,3.364,2.69,2.69,0,0,1-3.187-2.295,2.047,2.047,0,0,1,.056-.78A29.617,29.617,0,0,1-177.269-125.289Z" transform="translate(183.382 162.788)" fill="#ffdc55"/>
      <path id="Path_446" data-name="Path 446" d="M-134.147-124.484a8.481,8.481,0,0,1-8.446,7.994,8.478,8.478,0,0,1-8.395-7.982c-.367,0-.74.007-1.112,0a5.088,5.088,0,0,1-5.089-5.068,5.086,5.086,0,0,1,5.1-5.117c2.661-.032,5.324-.008,7.985-.008,3.719,0,7.438-.01,11.157,0a5.1,5.1,0,0,1,5.166,4.327,5.1,5.1,0,0,1-4.689,5.848C-133.026-124.462-133.59-124.484-134.147-124.484Zm-10.122-6.734h-3.281c0,2.03,0,4.011,0,5.992a7.336,7.336,0,0,0,.018.735,5.811,5.811,0,0,0,.141.835,4.96,4.96,0,0,0,5.419,3.716,4.942,4.942,0,0,0,4.371-4.788c.04-2.094.01-4.19.008-6.285a1.169,1.169,0,0,0-.046-.226h-3.235v5.249h-3.4Zm10.111,3.343c.51,0,.978.02,1.445,0a1.674,1.674,0,0,0,1.586-1.493,1.629,1.629,0,0,0-1.274-1.81,12.987,12.987,0,0,0-1.757-.11Zm-16.82-3.376c-.992-.03-1.964-.164-2.566.822a1.582,1.582,0,0,0,.045,1.81c.627.932,1.579.759,2.521.725Z" transform="translate(171.597 167.648)" fill="#2a2968"/>
      <path id="Path_447" data-name="Path 447" d="M-110.705-181.332l3.247.569a4.461,4.461,0,0,0,1.752,4.3,4.408,4.408,0,0,0,4.657.415l1.525,2.943c-2.042,1.4-5.721,1.159-8.059-.507C-110.061-175.371-111.436-178.727-110.705-181.332Z" transform="translate(147.629 191.806)" fill="#2a2968"/>
      <path id="Path_448" data-name="Path 448" d="M-166.438-173.092l1.518-2.93a4.512,4.512,0,0,0,6.441-4.732l3.2-.568c.807,2.161-.488,5.652-2.739,7.451C-160.4-171.97-164.2-171.6-166.438-173.092Z" transform="translate(176.386 191.8)" fill="#2a2968"/>
      <path id="Path_449" data-name="Path 449" d="M-142.5-152.253h-3.325V-159.2h3.325Z" transform="translate(165.71 180.347)" fill="#2a2968"/>
      <path id="Path_450" data-name="Path 450" d="M-111.5-152.254h-3.329v-6.954h3.329Z" transform="translate(149.661 180.351)" fill="#2a2968"/>
      <path id="Path_451" data-name="Path 451" d="M-133.921-127.527v5.23h3.4v-5.249h3.235a1.167,1.167,0,0,1,.046.226c0,2.095.032,4.19-.008,6.285a4.942,4.942,0,0,1-4.371,4.788,4.96,4.96,0,0,1-5.419-3.716,5.809,5.809,0,0,1-.141-.835,7.313,7.313,0,0,1-.018-.735c0-1.981,0-3.962,0-5.992Z" transform="translate(161.248 163.957)" fill="#ffdc55"/>
      <path id="Path_452" data-name="Path 452" d="M-109.429-124.242v-3.417a12.984,12.984,0,0,1,1.757.11,1.629,1.629,0,0,1,1.275,1.81,1.674,1.674,0,0,1-1.586,1.493C-108.451-124.222-108.919-124.242-109.429-124.242Z" transform="translate(146.867 164.015)" fill="#fff"/>
      <path id="Path_453" data-name="Path 453" d="M-147.346-127.6v3.357c-.942.034-1.894.207-2.521-.725a1.582,1.582,0,0,1-.045-1.81C-149.31-127.764-148.338-127.63-147.346-127.6Z" transform="translate(167.965 163.996)" fill="#fff"/>
    </g>
  </g>
</svg>
