<svg xmlns="http://www.w3.org/2000/svg" width="21.001" height="21.014" viewBox="0 0 21.001 21.014">
  <g id="vjsjCl.tif" transform="translate(367.764 204.548)">
    <g id="Group_393" data-name="Group 393" transform="translate(-367.764 -204.548)">
      <path id="Path_624" data-name="Path 624" d="M-367.764-194.926c.063-.414.1-.833.191-1.242a10.033,10.033,0,0,1,6.273-7.606,10.161,10.161,0,0,1,11.744,2.952,10.055,10.055,0,0,1,2.355,5.741,10.212,10.212,0,0,1-.859,5.066c-.016.036-.03.074-.049.124a3.679,3.679,0,0,1,1.045,1.364,3.561,3.561,0,0,1-2.731,4.949.935.935,0,0,0-.139.043h-.792c-.308-.085-.624-.15-.923-.26a3.5,3.5,0,0,1-1.474-1.086c-.069.028-.123.048-.175.071a9.814,9.814,0,0,1-7,.464,10.094,10.094,0,0,1-7.27-7.952c-.09-.408-.129-.827-.192-1.241Zm15.161,5.045a3.977,3.977,0,0,1,2.018-.772.3.3,0,0,0,.293-.2,7.931,7.931,0,0,0,.617-4.828,7.936,7.936,0,0,0-9.4-6.311,7.927,7.927,0,0,0-5.009,12.1,7.938,7.938,0,0,0,10.019,2.824.3.3,0,0,0,.188-.276,4.213,4.213,0,0,1,.192-.915c.14-.373.347-.72.552-1.135-.1-.087-.238-.193-.36-.315a.4.4,0,0,1-.042-.609.4.4,0,0,1,.592.045C-352.819-190.148-352.709-190-352.6-189.881Zm3.8-.457a9.452,9.452,0,0,0-3.142-11.632,9.475,9.475,0,0,0-12.77,1.6,9.508,9.508,0,0,0,.317,12.631,9.411,9.411,0,0,0,10.829,2.144l-.245-.7a8.787,8.787,0,0,1-11.1-3.416,8.735,8.735,0,0,1,1.246-10.631,8.682,8.682,0,0,1,10.625-1.4,8.432,8.432,0,0,1,3.636,4.183,8.663,8.663,0,0,1-.122,6.966Zm-4.3,3.242a2.778,2.778,0,0,0,2.771,2.769,2.783,2.783,0,0,0,2.775-2.792,2.779,2.779,0,0,0-2.76-2.755A2.776,2.776,0,0,0-353.1-187.1Z" transform="translate(367.764 204.548)" fill="#2a2968"/>
      <path id="Path_625" data-name="Path 625" d="M-291.743-125.678a2.776,2.776,0,0,1,2.786-2.778,2.779,2.779,0,0,1,2.76,2.755,2.783,2.783,0,0,1-2.775,2.792A2.778,2.778,0,0,1-291.743-125.678Zm3.169-.4v-.385c0-.115,0-.231,0-.346-.007-.284-.168-.463-.408-.456s-.378.179-.383.455c0,.237,0,.473,0,.731-.246,0-.467,0-.687,0-.315,0-.495.143-.5.389s.181.4.51.4c.22,0,.44,0,.676,0,0,.259,0,.489,0,.718,0,.29.155.468.395.469s.392-.178.4-.468c0-.235,0-.471,0-.719h.477c.519,0,.714-.111.709-.4s-.191-.39-.7-.39Z" transform="translate(306.404 143.13)" fill="#ffdc55"/>
      <path id="Path_626" data-name="Path 626" d="M-318.937-168.164c0,.14.007.281,0,.421a.819.819,0,0,0,.38.9.994.994,0,0,1,.36,1.194.292.292,0,0,0,.089.341q1.075,1.06,2.134,2.137a.625.625,0,0,1,.191.376.436.436,0,0,1-.206.325.545.545,0,0,1-.389-.017c-.1-.037-.173-.147-.255-.229-.677-.676-1.356-1.351-2.029-2.032a.291.291,0,0,0-.34-.093,1.168,1.168,0,0,1-1.426-.674,1.163,1.163,0,0,1,.539-1.5.271.271,0,0,0,.163-.287c-.006-.586,0-1.172,0-1.758,0-.3.147-.472.385-.478s.4.177.406.483S-318.937-168.461-318.937-168.164Zm0,2.191a.4.4,0,0,0-.387-.4.4.4,0,0,0-.4.381.4.4,0,0,0,.4.409A.4.4,0,0,0-318.939-165.973Z" transform="translate(329.635 176.29)" fill="#2a2968"/>
      <path id="Path_627" data-name="Path 627" d="M-315.626-187.232c0,.132.007.265,0,.4a.393.393,0,0,1-.4.388.386.386,0,0,1-.384-.377c-.012-.272-.012-.545,0-.817a.387.387,0,0,1,.4-.388.4.4,0,0,1,.387.4C-315.62-187.5-315.626-187.364-315.626-187.232Z" transform="translate(326.323 191.215)" fill="#2a2968"/>
      <path id="Path_628" data-name="Path 628" d="M-350.507-152.337c-.14,0-.281.007-.421,0a.392.392,0,0,1-.39-.4.389.389,0,0,1,.4-.389c.264-.009.528-.01.792,0a.388.388,0,0,1,.39.4.4.4,0,0,1-.4.39C-350.259-152.331-350.383-152.337-350.507-152.337Z" transform="translate(354.489 163.048)" fill="#2a2968"/>
      <path id="Path_629" data-name="Path 629" d="M-284.8-152.338c-.132,0-.265.008-.4,0a.392.392,0,0,1-.381-.406.386.386,0,0,1,.383-.379c.272-.011.545-.011.816,0a.386.386,0,0,1,.381.38.392.392,0,0,1-.383.4C-284.514-152.329-284.655-152.337-284.8-152.338Z" transform="translate(301.423 163.048)" fill="#2a2968"/>
      <path id="Path_630" data-name="Path 630" d="M-315.628-121.491c0,.14.01.281,0,.421a.39.39,0,0,1-.393.368.384.384,0,0,1-.389-.372c-.013-.28-.013-.561,0-.841a.382.382,0,0,1,.392-.368.4.4,0,0,1,.392.371.426.426,0,0,1,0,.05q0,.185,0,.371Z" transform="translate(326.323 138.148)" fill="#2a2968"/>
      <path id="Path_631" data-name="Path 631" d="M-339.979-176.324c-.343.006-1.075-.7-1.042-.958a.469.469,0,0,1,.2-.327.465.465,0,0,1,.4.025,3.686,3.686,0,0,1,.643.642.49.49,0,0,1,.031.408C-339.779-176.428-339.929-176.364-339.979-176.324Z" transform="translate(346.179 182.832)" fill="#2a2968"/>
      <path id="Path_632" data-name="Path 632" d="M-339.629-130.915c-.007.336-.713,1.06-.954,1.028a.5.5,0,0,1-.344-.217.461.461,0,0,1,.042-.4,3.548,3.548,0,0,1,.627-.627.481.481,0,0,1,.408-.039C-339.738-131.129-339.673-130.971-339.629-130.915Z" transform="translate(346.126 145.347)" fill="#2a2968"/>
      <path id="Path_633" data-name="Path 633" d="M-294.152-176.5c-.337,0-.553-.344-.373-.579a4.584,4.584,0,0,1,.693-.7.336.336,0,0,1,.471.058.326.326,0,0,1,.064.449,9.351,9.351,0,0,1-.708.719A.329.329,0,0,1-294.152-176.5Z" transform="translate(308.701 183)" fill="#2a2968"/>
      <path id="Path_634" data-name="Path 634" d="M-283.592-121.1h.49c.506,0,.692.1.7.39s-.19.4-.709.4h-.477c0,.248,0,.483,0,.719,0,.29-.157.468-.4.468s-.391-.178-.395-.469c0-.229,0-.459,0-.718-.237,0-.456,0-.676,0-.329,0-.515-.149-.51-.4s.184-.387.5-.389c.221,0,.441,0,.688,0,0-.258,0-.495,0-.731,0-.277.151-.448.383-.455s.4.171.408.456c0,.115,0,.231,0,.346Z" transform="translate(301.422 138.149)" fill="#2a2968"/>
    </g>
  </g>
</svg>
