<svg width="21" height="12" viewBox="0 0 21 12" fill="none" xmlns="http://www.w3.org/2000/svg">
<path d="M14.8298 4.159H0.934812C0.788413 4.159 0.64801 4.21716 0.54449 4.32068C0.440969 4.4242 0.382813 4.5646 0.382812 4.711L0.382813 7.288C0.382813 7.4344 0.440969 7.57481 0.54449 7.67833C0.64801 7.78185 0.788413 7.84 0.934812 7.84H14.8298V9.96C14.8277 10.1793 14.8912 10.3943 15.0122 10.5772C15.1332 10.7602 15.3061 10.9028 15.5087 10.9867C15.7113 11.0707 15.9344 11.0921 16.1493 11.0483C16.3643 11.0046 16.5612 10.8975 16.7148 10.741L20.6748 6.781C20.7779 6.67874 20.8597 6.55708 20.9156 6.42304C20.9714 6.28899 21.0002 6.14522 21.0002 6C21.0002 5.85479 20.9714 5.71101 20.9156 5.57697C20.8597 5.44292 20.7779 5.32126 20.6748 5.219L16.7148 1.259C16.5612 1.10247 16.3643 0.995443 16.1493 0.95166C15.9344 0.907877 15.7113 0.92934 15.5087 1.01329C15.3061 1.09724 15.1332 1.23985 15.0122 1.4228C14.8912 1.60575 14.8277 1.82069 14.8298 2.04V4.159Z" fill="#2A2968"/>
</svg>
