<svg xmlns="http://www.w3.org/2000/svg" width="44.661" height="57.073" viewBox="0 0 44.661 57.073">
  <g id="Certification" transform="translate(0.255 0.25)">
    <path id="Path_44" data-name="Path 44" d="M140.922,202.151a10.792,10.792,0,0,1-1.54-.383,1.651,1.651,0,0,0-1.367,0,4.118,4.118,0,0,1-4.645-1.045,2.194,2.194,0,0,1,.134-3.242q1.676-1.522,3.386-3.006a2.662,2.662,0,0,1,3.579-.014q1.737,1.494,3.426,3.043a2.181,2.181,0,0,1,.122,3.2A4.431,4.431,0,0,1,140.922,202.151Z" transform="translate(-116.614 -171.084)" fill="#ffd639" stroke="#707070" stroke-width="0.5"/>
    <path id="Path_45" data-name="Path 45" d="M146.627,142.578c0,.75-.406,1.359-.918,1.373-.53.014-.967-.62-.959-1.39.008-.727.454-1.367.949-1.359S146.626,141.849,146.627,142.578Z" transform="translate(-126.872 -126.256)" fill="#ffd639" stroke="#707070" stroke-width="0.5"/>
    <path id="Path_46" data-name="Path 46" d="M188.965,142.6c0-.733.419-1.37.916-1.386.512-.017.969.65.96,1.4s-.436,1.352-.949,1.346S188.966,143.345,188.965,142.6Z" transform="translate(-164.573 -126.262)" fill="#ffd639" stroke="#707070" stroke-width="0.5"/>
    <path id="Path_47" data-name="Path 47" d="M108.565,170.629c.006.777-.427,1.412-.95,1.4s-.953-.705-.923-1.436.443-1.3.937-1.3C108.146,169.278,108.559,169.872,108.565,170.629Z" transform="translate(-94.42 -150.201)" fill="#ffd639" stroke="#707070" stroke-width="0.5"/>
    <path id="Path_48" data-name="Path 48" d="M227.055,170.63c.006-.757.419-1.352.936-1.345s.935.629.937,1.36-.427,1.365-.924,1.381C227.482,172.043,227.049,171.406,227.055,170.63Z" transform="translate(-197.051 -150.202)" fill="#ffd639" stroke="#707070" stroke-width="0.5"/>
    <path id="Path_36" data-name="Path 36" d="M46.026,39.754a7.65,7.65,0,0,1,2.916,1.609,4.611,4.611,0,0,0,3.965,1.012,12.107,12.107,0,0,1,1.815-.111,3.414,3.414,0,0,1,3.18,1.92c.4.724.734,1.481,1.069,2.236a3.546,3.546,0,0,0,1.9,1.9c.674.291,1.34.6,2,.933A3.639,3.639,0,0,1,65.054,53c-.049.771-.1,1.542-.181,2.31a3.349,3.349,0,0,0,.62,2.4c.441.612.877,1.227,1.3,1.853a3.813,3.813,0,0,1-.016,4.586,8.516,8.516,0,0,1-.73,1.036,4.712,4.712,0,0,0-1.087,4.263,9.625,9.625,0,0,1,.092,1.65,3.379,3.379,0,0,1-1.786,3.091c-.6.351-1.25.618-1.875.929-.411.2-.833.393-1.221.635-.874.546-.98.9-.616,1.847l5.12,13.324c.039.1.081.205.118.309.28.8-.1,1.325-.945,1.253-1.448-.124-2.9-.239-4.338-.426a1.608,1.608,0,0,0-1.667.6c-.884,1.081-1.867,2.081-2.816,3.109-.185.2-.4.373-.6.558h-.552a4.834,4.834,0,0,1-.635-.925c-1.5-3.87-2.983-7.75-4.47-11.626-.123-.32-.255-.636-.418-1.039a4.112,4.112,0,0,1-5.74,0c-.106.248-.18.409-.244.575-1.548,4.03-3.089,8.063-4.654,12.087a4.83,4.83,0,0,1-.635.925h-.552c-.635-.661-1.277-1.316-1.9-1.985-.579-.617-1.171-1.226-1.7-1.881a1.133,1.133,0,0,0-1.144-.429c-1.517.171-3.037.31-4.558.446-.993.089-1.367-.413-1.011-1.344,1.761-4.6,3.513-9.2,5.306-13.784a.951.951,0,0,0-.3-1.25,9.857,9.857,0,0,0-1.4-.864c-.682-.359-1.406-.64-2.076-1.019A3.369,3.369,0,0,1,25.9,71.044c.019-.9.094-1.8.177-2.7a3.332,3.332,0,0,0-.6-2.347q-.644-.9-1.269-1.806a3.853,3.853,0,0,1,.011-4.726,9.048,9.048,0,0,1,.7-.989,4.688,4.688,0,0,0,1.078-4.213,10.063,10.063,0,0,1-.1-1.65A3.369,3.369,0,0,1,27.7,49.484a23.978,23.978,0,0,1,2.278-1.107A3.686,3.686,0,0,0,32,46.371c.3-.692.619-1.374.963-2.043a3.614,3.614,0,0,1,3.7-2.072c.771.046,1.542.1,2.311.182a3.353,3.353,0,0,0,2.438-.666,13.614,13.614,0,0,1,1.443-1.015c.665-.374,1.374-.672,2.064-1Zm-18.482,30.8a2.176,2.176,0,0,0,1.431,2.468c.468.213.925.457,1.4.642a5.446,5.446,0,0,1,3.259,3.247c.086.223.191.438.289.656.974,2.164,1.425,2.459,3.793,2.1a6.243,6.243,0,0,1,5.359,1.39,7.618,7.618,0,0,0,.808.577,2.322,2.322,0,0,0,3.184-.007c.413-.276.819-.565,1.211-.869a5.283,5.283,0,0,1,4.132-1.151c.691.1,1.393.112,2.091.16a1.95,1.95,0,0,0,2.01-1.173c.354-.706.689-1.423,1.014-2.143A4.915,4.915,0,0,1,60.082,73.9c.721-.323,1.438-.658,2.144-1.013a1.958,1.958,0,0,0,1.174-2.01,13.543,13.543,0,0,0-.1-1.376,5.954,5.954,0,0,1,1.315-5.163,8.832,8.832,0,0,0,.644-.9,2.309,2.309,0,0,0,.007-3.183c-.4-.6-.824-1.175-1.234-1.764a4.691,4.691,0,0,1-.816-3.192q.115-1.32.177-2.643a1.787,1.787,0,0,0-1.014-1.763,18.525,18.525,0,0,0-1.837-.884,5.6,5.6,0,0,1-3.251-3.261,17.172,17.172,0,0,0-.981-1.972,1.589,1.589,0,0,0-1.459-.844,12.885,12.885,0,0,0-1.816.092,5.889,5.889,0,0,1-4.968-1.254c-.376-.321-.809-.575-1.217-.859a2.226,2.226,0,0,0-2.767.008q-1,.695-1.994,1.386a4.51,4.51,0,0,1-2.98.795c-.844-.061-1.688-.129-2.533-.192a2.061,2.061,0,0,0-2.189,1.252q-.534,1.12-1.061,2.243A4.67,4.67,0,0,1,31.034,49.7c-.8.378-1.6.74-2.387,1.143a1.881,1.881,0,0,0-1.1,1.885,13.5,13.5,0,0,0,.1,1.486,5.943,5.943,0,0,1-1.305,5.114c-.251.291-.445.632-.678.94a2.379,2.379,0,0,0-.008,3.142c.407.545.784,1.113,1.181,1.667a4.762,4.762,0,0,1,.88,3.392C27.647,69.16,27.6,69.858,27.544,70.555Zm5.148,8.287L28.136,90.714c.334-.019.587-.026.838-.05,1.081-.1,2.167-.171,3.239-.334a1.532,1.532,0,0,1,1.538.595c.874,1.011,1.8,1.979,2.753,3.02l4.7-12.233a4.7,4.7,0,0,0-1.153-.414c-.691-.055-1.392.016-2.089.021a.726.726,0,0,0-.755.562c-.723,1.947-1.478,3.882-2.221,5.821-.053.137-.1.279-.162.41a.828.828,0,0,1-1.106.443.812.812,0,0,1-.411-1.067c.607-1.618,1.232-3.228,1.848-4.842.154-.4.3-.812.47-1.264A3.923,3.923,0,0,1,32.692,78.842Zm22.625,2.539,1.137,2.981c.4,1.047.835,2.084,1.175,3.15a1.087,1.087,0,0,1-.255.909.971.971,0,0,1-.848.086,1.11,1.11,0,0,1-.48-.622c-.651-1.64-1.276-3.29-1.91-4.937-.656-1.7-.656-1.7-2.491-1.731a2.7,2.7,0,0,0-1.867.577l4.667,12.153c1.023-1.118,2-2.171,2.957-3.236a1.133,1.133,0,0,1,1.076-.4c.839.109,1.684.178,2.526.256.574.053,1.149.094,1.806.147L58.258,78.854A3.931,3.931,0,0,1,55.317,81.381Z" transform="translate(-23.399 -39.754)" fill="#2a2968" stroke="#2a2968" stroke-width="0.5"/>
    <path id="Path_37" data-name="Path 37" d="M114.865,147.21a16.079,16.079,0,0,1-9.982-3.286c-.512-.39-.635-.808-.374-1.225a.854.854,0,0,1,1.338-.116,14.582,14.582,0,0,0,5.063,2.5,14.254,14.254,0,0,0,17.659-11.563,14.069,14.069,0,0,0-2.7-10.782,1.356,1.356,0,0,1-.295-.887.885.885,0,0,1,.581-.611,1.1,1.1,0,0,1,.882.361,23.62,23.62,0,0,1,2.015,3.344,15.886,15.886,0,0,1-12,22.053C116.2,147.129,115.336,147.165,114.865,147.21Z" transform="translate(-92.447 -109.228)" fill="#2a2968" stroke="#2a2968" stroke-width="0.5"/>
    <path id="Path_38" data-name="Path 38" d="M65.353,97.685A15.913,15.913,0,0,1,79.285,81.953a15.526,15.526,0,0,1,11.443,3.035,3.082,3.082,0,0,1,.387.311.815.815,0,0,1-.994,1.283c-.347-.206-.658-.471-.993-.7a14.233,14.233,0,0,0-21.929,9.6,13.985,13.985,0,0,0,2.66,10.734c.043.059.087.118.13.178a.861.861,0,0,1-.056,1.273.818.818,0,0,1-1.269-.3,36.4,36.4,0,0,1-2.172-3.824A14.272,14.272,0,0,1,65.353,97.685Z" transform="translate(-59.172 -75.628)" fill="#2a2968" stroke="#2a2968" stroke-width="0.5"/>
    <path id="Path_39" data-name="Path 39" d="M130.936,194.116c-1.2-.512-2.643-.127-4.11-.042a5.279,5.279,0,0,1-4.7-2.322,3.744,3.744,0,0,1,.406-4.942c1.236-1.181,2.514-2.326,3.839-3.406a4.25,4.25,0,0,1,5.4.076q1.861,1.56,3.634,3.223a3.821,3.821,0,0,1,.189,5.454A5.984,5.984,0,0,1,130.936,194.116Zm.32-1.6a4.431,4.431,0,0,0,3.1-1.446,2.181,2.181,0,0,0-.122-3.2q-1.687-1.55-3.426-3.043a2.662,2.662,0,0,0-3.579.014q-1.712,1.481-3.386,3.006a2.194,2.194,0,0,0-.134,3.242,4.117,4.117,0,0,0,4.645,1.045,1.651,1.651,0,0,1,1.367,0A10.8,10.8,0,0,0,131.256,192.513Z" transform="translate(-106.948 -161.446)" fill="#2a2968" stroke="#2a2968" stroke-width="0.5"/>
    <path id="Path_40" data-name="Path 40" d="M138.683,132.974a3.165,3.165,0,0,1-1.143,2.507,2.334,2.334,0,0,1-3.432-.538,3.365,3.365,0,0,1,.431-4.412,2.268,2.268,0,0,1,3.064-.017A3.208,3.208,0,0,1,138.683,132.974Zm-1.665-.009c0-.729-.432-1.369-.928-1.377s-.941.632-.949,1.359c-.009.77.429,1.4.959,1.39C136.612,134.323,137.019,133.714,137.018,132.964Z" transform="translate(-117.263 -116.642)" fill="#2a2968" stroke="#2a2968" stroke-width="0.5"/>
    <path id="Path_41" data-name="Path 41" d="M176.882,133a4.193,4.193,0,0,1,.846-2.132,2.34,2.34,0,0,1,3.883.2,3.265,3.265,0,0,1,.105,3.645,2.365,2.365,0,0,1-4.215.02A9.7,9.7,0,0,1,176.882,133Zm1.78-.024c0,.75.414,1.356.927,1.362s.94-.6.949-1.346-.448-1.419-.96-1.4C179.081,131.607,178.661,132.243,178.662,132.976Z" transform="translate(-154.27 -116.643)" fill="#2a2968" stroke="#2a2968" stroke-width="0.5"/>
    <path id="Path_42" data-name="Path 42" d="M100.656,160.95a3.157,3.157,0,0,1-.786,2.176,2.337,2.337,0,0,1-3.687-.1,3.418,3.418,0,0,1-.122-4.012,2.335,2.335,0,0,1,3.974-.02,9.8,9.8,0,0,1,.767,1.9ZM99,160.922c-.006-.757-.419-1.351-.936-1.346-.493.005-.906.581-.937,1.3s.412,1.42.923,1.436S99,161.7,99,160.922Z" transform="translate(-84.852 -140.493)" fill="#2a2968" stroke="#2a2968" stroke-width="0.5"/>
    <path id="Path_43" data-name="Path 43" d="M215.729,160.974a6.06,6.06,0,0,1,.083-.7,2.629,2.629,0,0,1,2.87-2.239,2.956,2.956,0,0,1,2.244,3.167,3,3,0,0,1-1.971,2.789,2.651,2.651,0,0,1-3.188-2.456C215.748,161.369,215.744,161.2,215.729,160.974Zm1.669.042c-.006.776.427,1.413.95,1.4.5-.016.926-.658.924-1.381s-.432-1.354-.937-1.36S217.4,160.259,217.4,161.016Z" transform="translate(-187.394 -140.587)" fill="#2a2968" stroke="#2a2968" stroke-width="0.5"/>
  </g>
</svg>
