<svg id="equipment" xmlns="http://www.w3.org/2000/svg" width="59.489" height="59.482" viewBox="0 0 59.489 59.482">
  <path id="Path_49" data-name="Path 49" d="M53.42,42.15,45.654,52.22l11.36,4.453L69.359,52.22,62.185,42.15Z" transform="translate(-33.135 -30.002)" fill="#ffd639"/>
  <path id="Path_21" data-name="Path 21" d="M70.379,23.974c.2.058.4.122.6.171a5.819,5.819,0,0,1,4.488,5.822c.017,2.652,0,5.3,0,7.957q0,8.973,0,17.947a5.787,5.787,0,0,1-4.45,5.9,7.462,7.462,0,0,1-1.723.182c-3.853.015-7.705.008-11.558.008h-.681V65.21c.48,0,.958-.008,1.435,0a3.886,3.886,0,0,1,.143,7.769c-.251.015-.5.01-.755.01q-12.284,0-24.568,0a3.369,3.369,0,0,0-.972.105A1.912,1.912,0,0,0,31,75.113a1.937,1.937,0,0,0,1.673,1.745,5.573,5.573,0,0,0,.753.041q11.442,0,22.884.011a.775.775,0,0,0,.848-.548A4.151,4.151,0,0,1,61.2,73.766q3.891-.016,7.783,0a1.475,1.475,0,0,0,1.1-.366,3.009,3.009,0,0,1,2.033-.73q1.6-.023,3.194,0A1.193,1.193,0,0,1,76.646,74c.007,2.691-.008,5.382.01,8.073a1.407,1.407,0,0,1-.933,1.383H71.657a8.588,8.588,0,0,1-1.541-.745,1.784,1.784,0,0,0-1.161-.372q-3.862.017-7.723,0a4.16,4.16,0,0,1-4.056-2.57.815.815,0,0,0-.89-.573q-11.44.018-22.879,0a6.314,6.314,0,0,1-1.44-.122,4.26,4.26,0,0,1,.977-8.409c2.245-.018,4.491,0,6.736-.006.2,0,.4-.018.64-.029-.041-.158-.064-.249-.089-.34a3.877,3.877,0,0,1,3.792-5.09c.439-.005.879,0,1.328,0V61.96h-.737c-3.929,0-7.859.018-11.788-.006a5.765,5.765,0,0,1-5.883-5.712q-.04-13.269,0-26.538a5.591,5.591,0,0,1,2.307-4.542,7.365,7.365,0,0,1,2.792-1.188ZM51.226,26.322q-9.088,0-18.176,0a3.5,3.5,0,0,0-3.783,3.753q0,12.892,0,25.783a3.5,3.5,0,0,0,3.775,3.762q18.147,0,36.294,0a3.511,3.511,0,0,0,3.79-3.812q0-12.834,0-25.667a3.514,3.514,0,0,0-3.84-3.819Q60.256,26.321,51.226,26.322Zm-.032,44.33c2.341,0,4.683,0,7.024,0a1.631,1.631,0,0,0,1.656-.943,1.542,1.542,0,0,0-1.541-2.161q-6.3-.013-12.6,0c-.619,0-1.239-.018-1.857.009a1.527,1.527,0,0,0-1.487,1.712,1.584,1.584,0,0,0,1.72,1.382C46.473,70.658,48.834,70.652,51.194,70.652Zm17.571,5.472c-.18-.014-.329-.035-.478-.036-2.359,0-4.718-.01-7.077,0a1.968,1.968,0,1,0,0,3.927c2.378.013,4.757,0,7.135,0,.13,0,.261-.021.424-.035ZM47.744,65.164h6.9V62.01h-6.9ZM74.3,74.993c-.757,0-1.451-.02-2.143.006a.971.971,0,0,0-1.025,1.03c-.025,1.353-.017,2.707,0,4.06a.9.9,0,0,0,.809.982c.778.067,1.566.018,2.361.018Z" transform="translate(-26.923 -23.974)" fill="#2a2968"/>
  <path id="Path_22" data-name="Path 22" d="M385.452,349c-1.027-.741-1.085-1.277-.242-2.259a4.823,4.823,0,0,0-.011-6.315c-.089-.1-.185-.2-.268-.3a1.145,1.145,0,0,1,.082-1.615,1.127,1.127,0,0,1,1.615.053,6.935,6.935,0,0,1,1.966,3.79,3.508,3.508,0,0,0,.112.378v1.743c-.08.313-.145.631-.241.939A5.807,5.807,0,0,1,386.033,349Z" transform="translate(-329.217 -289.522)" fill="#2a2968"/>
  <path id="Path_23" data-name="Path 23" d="M363.715,355.632a4.037,4.037,0,0,1-1.131,2.779,1.134,1.134,0,0,1-1.655.1,1.168,1.168,0,0,1-.088-1.619,1.734,1.734,0,0,0-.009-2.544,1.169,1.169,0,0,1,.106-1.618,1.151,1.151,0,0,1,1.656.125A4.033,4.033,0,0,1,363.715,355.632Z" transform="translate(-308.878 -301.557)" fill="#2a2968"/>
  <path id="Path_24" data-name="Path 24" d="M62.251,59.287V82.332h.63q16.116,0,32.232.012c.556,0,.721-.145.72-.708q-.026-10.831,0-21.662c0-.577-.189-.7-.731-.7-3.6.022-7.2.015-10.8.007a1.132,1.132,0,0,1-1.22-1.121,1.19,1.19,0,0,1,1.187-1.239c.116-.007.232,0,.348,0H96.638c.1,0,.194,0,.29,0a1.211,1.211,0,0,1,1.285,1.27c.007.135,0,.271,0,.406q0,12.225,0,24.45c0,1.29-.367,1.656-1.656,1.656H61.482c-1.268,0-1.618-.35-1.618-1.621q0-12.283,0-24.566c0-1.23.363-1.6,1.586-1.6H73.413a4.1,4.1,0,0,1,.522.011A1.23,1.23,0,0,1,75,58.184a1.155,1.155,0,0,1-1.141,1.093c-.793.022-1.587.01-2.381.01H62.251Z" transform="translate(-54.761 -51.815)" fill="#2a2968"/>
  <path id="Path_25" data-name="Path 25" d="M112.3,109.2a17.9,17.9,0,0,1-12.406-5.076,1.251,1.251,0,0,1-.142-1.98q3.659-4.657,7.324-9.308c.638-.81,1.036-.9,1.949-.462a7.469,7.469,0,0,0,6.761-.018,1.261,1.261,0,0,1,1.866.422q3.684,4.674,7.36,9.354a1.26,1.26,0,0,1-.158,2.02A17.965,17.965,0,0,1,112.3,109.2Zm-10.163-6.261c6.016,5.462,15.4,4.869,20.48-.029q-3.1-3.936-6.214-7.869a.581.581,0,0,0-.517-.127,10.244,10.244,0,0,1-6.99,0,.645.645,0,0,0-.553.161c-.378.412-.706.87-1.053,1.31Z" transform="translate(-88.116 -81.561)" fill="#2a2968"/>
  <path id="Path_26" data-name="Path 26" d="M177.207,59.313a1.143,1.143,0,0,1-1.2-1.129,1.194,1.194,0,0,1,1.185-1.229,1.231,1.231,0,0,1,1.186,1.244A1.177,1.177,0,0,1,177.207,59.313Z" transform="translate(-152.914 -51.846)" fill="#2a2968"/>
</svg>
