<svg xmlns="http://www.w3.org/2000/svg" width="15.092" height="22.722" viewBox="0 0 15.092 22.722">
  <g id="z1Of7x.tif" transform="translate(0 0)">
    <g id="Group_391" data-name="Group 391" transform="translate(0 0)">
      <path id="Path_620" data-name="Path 620" d="M8.79,8.165S6.085,6.045,6.085,7.232c0,.226-.859,1.343-.643,1.982.509,1.536,3.349,3.7,3.349,3.7a10.243,10.243,0,0,0,3.48-3.7c.19-.445-.8-1.9-.8-2.216C11.471,5.811,8.79,8.165,8.79,8.165Z" transform="translate(-1.245 -1.534)" fill="#ffdc55"/>
      <path id="Path_621" data-name="Path 621" d="M-126.824,193.294c.073-.405.129-.814.221-1.215a7.565,7.565,0,0,1,6.244-5.674,7.581,7.581,0,0,1,4.46.719,1.928,1.928,0,0,1,.214.116.434.434,0,0,1,.169.579.441.441,0,0,1-.588.2c-.326-.139-.642-.3-.975-.421a6.672,6.672,0,0,0-8.785,5.264,5.911,5.911,0,0,0,.479,3.263,24.507,24.507,0,0,0,2.305,4.112,59.363,59.363,0,0,0,3.7,4.9c.028.033.058.064.107.118.147-.177.289-.344.427-.514a46.968,46.968,0,0,0,4.69-6.666c.409-.733.758-1.5,1.094-2.273a5.627,5.627,0,0,0-.173-4.724c-.066-.148-.147-.29-.219-.436a.449.449,0,0,1,.158-.635.44.44,0,0,1,.619.207,7.84,7.84,0,0,1,.906,2.853,7.228,7.228,0,0,1-.874,4.036,32.541,32.541,0,0,1-3.2,5.205c-.342.473-.7.936-1.049,1.4-.043.058-.085.117-.145.2.257.062.491.112.722.175a5.483,5.483,0,0,1,2.095.972,1.589,1.589,0,0,1,.669,1.669,1.786,1.786,0,0,1-.627.945,4.778,4.778,0,0,1-2.1,1.007c-.667.152-1.353.225-2.03.333-.072.011-.143.027-.214.04h-1.509c-.057-.013-.113-.028-.17-.037-.678-.107-1.363-.176-2.031-.327a4.71,4.71,0,0,1-2.207-1.075,1.588,1.588,0,0,1-.6-1.391,1.77,1.77,0,0,1,.756-1.206,5.283,5.283,0,0,1,1.746-.842c.328-.1.664-.176,1.016-.268-.056-.077-.1-.136-.14-.195-.9-1.267-1.82-2.516-2.679-3.807a17.525,17.525,0,0,1-2.1-4.113c-.166-.494-.257-1.012-.383-1.519Zm7.529,14.876a11.636,11.636,0,0,0,3.665-.636,2.417,2.417,0,0,0,1.011-.619.662.662,0,0,0-.009-1,2.687,2.687,0,0,0-.577-.442,6.391,6.391,0,0,0-2.357-.722.318.318,0,0,0-.231.112c-.365.427-.718.865-1.08,1.294a.46.46,0,0,1-.81,0c-.348-.413-.7-.824-1.031-1.249a.338.338,0,0,0-.393-.148,16.391,16.391,0,0,0-1.683.46,4,4,0,0,0-1.1.674.632.632,0,0,0,.008,1.052,3.053,3.053,0,0,0,.8.508A10.219,10.219,0,0,0-119.3,208.17Z" transform="translate(126.824 -186.329)" fill="#2a2968"/>
      <path id="Path_622" data-name="Path 622" d="M-99.79,218.972a2.359,2.359,0,0,1,.93-.8,2.177,2.177,0,0,1,2.971,1.534,2.581,2.581,0,0,1-.525,2.375,16.335,16.335,0,0,1-1.452,1.489c-.506.475-1.048.913-1.576,1.365-.241.206-.441.226-.656.039-.84-.735-1.687-1.463-2.5-2.222a3.577,3.577,0,0,1-1.119-1.776,2.378,2.378,0,0,1,1.607-2.907,2,2,0,0,1,2.091.631C-99.948,218.779-99.88,218.865-99.79,218.972Zm-.006,5.095c.479-.412.947-.787,1.383-1.2a16.452,16.452,0,0,0,1.3-1.331,1.737,1.737,0,0,0,.385-1.557A1.348,1.348,0,0,0-97.8,218.9a1.217,1.217,0,0,0-1.286.635,2.913,2.913,0,0,0-.247.493c-.115.284-.245.411-.462.4-.251-.01-.368-.17-.449-.392a2.544,2.544,0,0,0-.266-.533,1.2,1.2,0,0,0-1.214-.614,1.276,1.276,0,0,0-1.086.951,1.869,1.869,0,0,0,.45,1.85A23.6,23.6,0,0,0-99.8,224.066Z" transform="translate(107.34 -213.115)" fill="#2a2968"/>
      <path id="Path_623" data-name="Path 623" d="M-47.529,200.019a.448.448,0,0,1-.46.436.448.448,0,0,1-.425-.449.447.447,0,0,1,.459-.436A.447.447,0,0,1-47.529,200.019Z" transform="translate(60.488 -197.531)" fill="#2a2968"/>
    </g>
  </g>
</svg>
