<svg width="140" height="140" viewBox="0 0 140 140" fill="none" xmlns="http://www.w3.org/2000/svg">
<path d="M131.6 34.6205C130.918 37.2187 129.199 39.0782 127.329 40.9122C123.259 44.9369 119.265 49.0125 115.221 53.0626C113.097 55.2023 111.404 55.4061 109.053 53.8777C107.081 55.8646 105.16 57.826 103.138 59.8638C104.807 62.6913 106.096 65.9263 106.601 69.467C107.916 78.8664 105.16 86.8393 98.3861 93.4112C97.7289 94.048 97.6531 94.5065 97.8806 95.3726C98.8411 98.9897 99.7258 102.632 100.535 106.3C100.914 108.032 101.622 108.695 103.366 108.389C107.006 107.752 110.418 106.53 113.477 104.415C118.38 101.028 120.756 96.1877 121.237 90.3036C121.287 89.6158 121.262 88.928 121.313 88.2403C121.388 87.145 121.919 86.3808 123.006 86.177C124.093 85.9732 124.851 86.5336 125.306 87.5016C127.253 91.7045 128.39 96.1113 129.199 100.671C131.322 112.796 122.45 122.323 112.819 125.609C109.559 126.729 106.222 127.264 102.81 127.519C102.304 127.544 101.723 127.799 101.344 128.13C98.74 130.448 95.7068 131.646 92.2438 131.646C73.387 131.646 54.5555 131.646 35.6987 131.646C33.7776 131.646 32.994 130.805 33.1709 128.844C33.3984 126.093 34.7381 123.927 36.8614 122.297C37.8978 121.507 39.0605 120.794 40.2486 120.259C41.0574 119.877 41.2344 119.419 41.2344 118.604C41.2091 111.853 41.2344 105.103 41.1838 98.3529C41.1838 97.767 40.9816 97.0538 40.6277 96.6208C33.904 88.1384 31.7554 78.5352 33.727 67.9386C34.5359 63.5573 35.9514 59.3543 37.9483 55.3806C38.1505 54.9985 38.3275 54.591 38.5803 54.056C37.8472 53.8013 37.19 53.5466 36.5075 53.3428C31.9829 51.9928 27.3825 51.1267 22.6809 51.0248C18.4343 50.9229 15.2747 48.8596 12.6964 45.7775C9.2587 41.6764 8.22234 36.7347 8.42455 31.5128C8.47511 29.6788 9.73897 28.3287 11.6095 27.8447C15.3758 26.8768 19.1421 25.9088 22.9084 24.9918C24.8547 24.5333 26.2955 23.4889 27.3825 21.7823C28.7474 19.6426 30.1882 17.5538 31.5532 15.4141C33.1204 12.9433 35.2942 11.4149 38.0747 10.5998C43.0038 9.14787 48.0087 8.10349 53.1399 7.67046C53.4433 7.64498 53.7719 7.54309 54.0752 7.46667C55.1116 7.46667 56.1732 7.46667 57.2096 7.46667C60.0912 8.15443 62.6189 9.50448 64.54 11.797C65.7533 13.249 66.8907 14.7773 67.8007 16.433C70.9351 22.1389 72.1231 28.3542 72.1737 34.8242C72.2242 38.8999 70.7329 42.1858 67.649 44.8095C67.371 45.0387 67.0677 45.4463 67.0929 45.752C67.2193 47.1275 67.4468 48.503 67.649 49.955C68.1546 49.7257 68.5085 49.5474 68.8624 49.3691C72.3506 47.6879 76.0411 46.8218 79.8832 46.7964C84.6606 46.7454 89.16 47.9172 93.3307 50.2861C93.6593 50.4644 94.3418 50.5918 94.544 50.4135C96.4145 48.6049 98.2345 46.7454 100.029 44.9114C98.5378 42.5934 98.5125 40.6829 100.08 39.0782C104.983 34.0855 109.887 29.0929 114.892 24.1767C117.824 21.2983 122.475 21.12 125.534 23.7946C128.062 25.9853 130.69 28.2014 131.55 31.7166C131.6 32.6845 131.6 33.6525 131.6 34.6205ZM13.3789 38.5178C14.213 41.3452 15.7802 43.5359 18.0552 45.1661C19.4707 46.185 20.9873 46.7964 22.8326 46.8728C28.2672 47.0256 33.5754 48.0445 38.7572 49.7257C39.3639 49.9295 39.9958 50.1333 40.5519 50.4135C42.5488 51.4578 43.206 53.6994 42.296 55.941C41.0069 59.0742 39.5155 62.1309 38.6055 65.3659C35.5723 76.1917 37.19 86.1515 44.5962 94.8886C45.0765 95.449 45.3293 96.3406 45.3293 97.1047C45.3798 104.976 45.3545 112.872 45.3545 120.743C45.3545 122.399 44.9248 122.756 43.3577 123.494C41.7399 124.259 40.2486 125.252 38.7319 126.22C38.3528 126.449 38.1505 126.984 37.7714 127.544C41.5124 127.544 45.0007 127.468 48.4889 127.57C49.7275 127.595 50.4605 127.29 51.0166 126.143C51.4716 125.252 52.1794 124.513 52.8872 123.775C54.7324 121.839 57.0579 120.667 59.5098 120.005C52.8113 110.376 55.1116 101.664 62.0881 93.2584C61.8353 93.0546 61.532 92.8508 61.2792 92.5961C56.5271 87.6799 53.873 81.7957 53.6202 74.9181C53.2916 66.0791 56.6029 58.794 63.2508 53.0117C63.5036 52.8079 63.8575 52.4513 63.8069 52.1965C63.6047 50.4389 63.3014 48.7068 63.0233 46.8728C59.7626 47.4332 56.6787 47.1784 53.6708 46.0577C51.0419 45.0642 49.5253 43.0264 49.4747 40.1735C49.4242 37.8809 49.4495 35.5629 49.4495 33.2704C49.4495 30.876 49.4495 28.507 49.4747 26.1126C49.4747 25.0937 49.9803 24.4314 50.9408 24.1512C51.8508 23.871 52.6597 24.1512 53.1399 24.9663C53.4433 25.5013 53.5444 26.189 53.5696 26.8004C53.5949 30.6467 53.5949 34.4676 53.5949 38.314C53.5949 41.7528 54.1005 42.3641 57.5634 42.9245C57.8415 42.9755 58.1195 43.0264 58.3976 43.0519C64.1861 43.5104 68.281 40.4792 68.104 34.3912C68.0029 30.9524 67.6238 27.5391 66.638 24.2276C65.5005 20.4322 63.908 16.8915 61.0264 14.0641C59.3834 12.4593 57.4876 11.4404 55.0863 11.6442C49.677 12.0772 44.3687 13.0452 39.1616 14.6245C37.3417 15.1849 35.9514 16.2038 34.9403 17.8085C33.5754 19.9482 32.1346 22.037 30.7696 24.1767C29.1266 26.7494 26.8264 28.3542 23.8689 29.0674C22.8326 29.3222 21.7962 29.6024 20.684 29.8826C20.684 31.4109 20.7093 32.8629 20.684 34.3148C20.6334 36.7856 18.9651 38.4923 16.5133 38.5432C15.5022 38.5178 14.5164 38.5178 13.3789 38.5178ZM94.2407 96.6972C93.8362 96.85 93.7351 96.8755 93.6846 96.901C84.4331 101.97 75.2322 101.868 66.1577 96.4679C65.5763 96.1113 65.2477 96.2387 64.818 96.6717C62.5431 98.8878 60.9759 101.537 60.2175 104.619C58.7515 110.605 60.3439 117.432 66.7138 119.419C67.649 119.724 68.0029 120.59 67.8765 121.584C67.7502 122.552 67.1435 123.087 66.2588 123.291C65.8038 123.392 65.2983 123.341 64.818 123.367C62.265 123.494 59.7878 123.953 57.5887 125.328C56.7293 125.863 55.971 126.551 55.1874 127.188C55.2379 127.29 55.2885 127.392 55.339 127.494C55.7182 127.494 56.1226 127.494 56.5018 127.494C64.8433 127.494 73.1848 127.494 81.5262 127.494C84.6606 127.494 85.9245 126.373 86.43 123.24C86.6322 121.991 87.5169 121.202 88.6291 121.278C89.7666 121.355 90.6008 122.272 90.4744 123.52C90.348 124.819 89.9688 126.093 89.6908 127.443C90.7271 127.443 91.8899 127.57 93.0274 127.417C95.454 127.111 97.7036 126.398 99.2203 124.182C99.5489 123.724 100.358 123.443 100.964 123.367C102.178 123.189 103.442 123.24 104.68 123.087C110.873 122.374 116.409 120.157 120.756 115.496C125.534 110.376 126.949 102.683 124.219 96.9264C124.194 96.9519 124.144 96.9774 124.144 97.0028C124.017 97.3085 123.891 97.5887 123.764 97.8944C122.147 102.046 119.417 105.307 115.777 107.803C112.364 110.121 108.598 111.522 104.604 112.363C100.282 113.28 97.2739 111.089 96.4903 106.708C95.8331 103.396 94.999 100.11 94.2407 96.6972ZM102.835 73.8228C102.987 61.4176 92.9515 51.0758 80.5404 50.8974C68.1799 50.7191 57.8415 60.8063 57.6898 73.2369C57.5129 85.9223 67.4468 96.2896 79.9085 96.4424C92.4965 96.6208 102.683 86.5591 102.835 73.8228ZM116.207 28.7108C118.33 31.36 118.557 32.1496 117.546 33.143C116.56 34.1365 115.701 33.8818 113.401 31.9713C110.014 35.3592 106.652 38.7215 103.391 41.9566C106.172 44.7585 109.028 47.637 111.909 50.5408C115.044 47.3822 118.279 44.1217 121.515 40.8612C121.616 40.7594 121.692 40.6065 121.843 40.4282C120.807 39.1801 118.785 38.0338 120.504 36.2252C122.349 34.2638 123.537 36.5054 124.902 37.4989C125.483 36.8875 126.039 36.3781 126.52 35.7922C127.404 34.6969 127.885 33.3723 127.278 32.0732C126.09 29.475 124.093 27.6155 121.591 26.2909C121.287 26.1381 120.883 26.1636 120.529 26.1381C118.557 26.0107 117.445 27.3862 116.207 28.7108ZM105.717 50.7191C104.832 49.8021 103.922 48.8596 103.138 48.0445C101.369 49.8276 99.5994 51.6107 97.9311 53.2919C98.7653 54.1325 99.6753 55.0495 100.535 55.9155C102.228 54.2344 103.972 52.4767 105.717 50.7191ZM16.5385 30.876C15.6791 31.0798 14.9461 31.2581 14.213 31.4364C12.292 31.9204 12.292 31.9204 12.5195 33.9072C12.5447 34.0091 12.5953 34.1365 12.6458 34.2638C13.935 34.2638 15.2241 34.2638 16.5385 34.2638C16.5385 33.1685 16.5385 32.1241 16.5385 30.876Z" fill="#2A2968"/>
<path d="M98.7152 73.6699C98.7152 83.9863 90.4242 92.3413 80.2122 92.3159C70.0508 92.2904 61.7852 83.9608 61.7852 73.6954C61.7852 63.4045 70.1266 54.9985 80.2881 55.024C90.4748 55.1004 98.7152 63.4045 98.7152 73.6699ZM94.595 73.6699C94.595 65.6715 88.0987 59.1505 80.2122 59.176C72.351 59.2015 65.9053 65.7225 65.8801 73.6444C65.8548 81.6428 72.3258 88.1893 80.2375 88.1893C88.1493 88.2148 94.595 81.6938 94.595 73.6699Z" fill="#2A2968"/>
<path d="M94.5937 73.67C94.5937 81.6684 88.148 88.2149 80.211 88.1894C72.2992 88.1639 65.8535 81.6429 65.8535 73.6445C65.8788 65.7226 72.3245 59.227 80.1857 59.1761C88.1227 59.1506 94.5937 65.6716 94.5937 73.67ZM84.407 79.4523C84.3817 80.8533 84.9884 81.7193 86.0247 81.8977C87.0864 82.1014 87.9711 81.4137 88.4261 80.3438C88.8811 79.223 89.4624 78.1277 90.0691 77.0833C90.6252 76.1408 90.5999 75.0455 89.8669 74.3323C89.0833 73.5936 87.9963 73.5172 87.1369 74.2559C85.4939 75.6823 84.6092 77.5164 84.407 79.4523ZM74.0939 81.7448C74.0686 82.9166 74.7258 83.7826 75.7875 83.9609C76.7985 84.1392 77.7085 83.5024 78.113 82.509C78.5932 81.3373 79.1746 80.2165 79.7813 79.1211C80.3374 78.1532 80.2868 77.0833 79.5285 76.3701C78.7702 75.6569 77.6327 75.6059 76.7985 76.3446C75.1808 77.7711 74.3467 79.6561 74.0939 81.7448ZM84.5334 63.2008C83.9014 63.481 83.3706 63.5574 83.042 63.8631C81.3737 65.3405 80.4132 67.2 80.2868 69.4416C80.2362 70.5369 80.8935 71.352 81.8793 71.5303C82.9662 71.7086 83.8003 71.1737 84.23 70.1293C84.7609 68.9321 85.4686 67.8368 85.9236 66.6141C86.1764 65.9773 86.2775 65.0857 86.0247 64.4744C85.8225 63.9395 85.0642 63.6338 84.5334 63.2008ZM69.999 71.3011C69.9484 72.5237 70.6309 73.4153 71.642 73.6191C72.6278 73.8228 73.5883 73.1606 73.9928 72.1671C74.4983 71.0209 75.0291 69.8746 75.6611 68.7793C76.1919 67.8623 76.1919 66.716 75.4589 66.0028C74.7005 65.2641 73.5883 65.1876 72.7289 65.9263C71.1112 67.3783 70.2517 69.2632 69.999 71.3011Z" fill="#FFDC55"/>
<path d="M84.407 79.4522C84.6092 77.5163 85.4939 75.6568 87.1369 74.2303C87.9711 73.4916 89.0833 73.568 89.8669 74.3067C90.6252 75.0454 90.6252 76.1153 90.0691 77.0578C89.4625 78.1021 88.8811 79.1975 88.4261 80.3183C87.9964 81.4136 87.0864 82.0759 86.0247 81.8721C84.9884 81.7193 84.3817 80.8532 84.407 79.4522Z" fill="#2A2968"/>
<path d="M74.0944 81.7448C74.3472 79.656 75.1814 77.771 76.8244 76.3191C77.6585 75.5804 78.796 75.6313 79.5543 76.3446C80.3126 77.0578 80.3632 78.1531 79.8071 79.0956C79.1751 80.1909 78.619 81.3117 78.1388 82.4835C77.7343 83.4769 76.8244 84.1137 75.8133 83.9354C74.7516 83.7826 74.0692 82.9165 74.0944 81.7448Z" fill="#2A2968"/>
<path d="M84.5346 63.2007C85.0654 63.6082 85.849 63.9394 86.0512 64.4998C86.304 65.1111 86.2029 65.9772 85.9501 66.6395C85.4951 67.8367 84.7621 68.9575 84.2565 70.1547C83.8015 71.1736 82.9674 71.734 81.9057 71.5557C80.9199 71.3774 80.2627 70.5877 80.3133 69.4669C80.4397 67.2254 81.4002 65.3659 83.0685 63.8884C83.3718 63.5573 83.9026 63.4809 84.5346 63.2007Z" fill="#2A2968"/>
<path d="M70.0007 71.301C70.2534 69.2632 71.0876 67.3782 72.7559 65.9517C73.59 65.213 74.7022 65.2895 75.4858 66.0282C76.2189 66.7414 76.2442 67.8622 75.6881 68.8047C75.0561 69.9 74.5 71.0463 74.0198 72.1925C73.59 73.1605 72.6295 73.8228 71.669 73.6445C70.6326 73.4152 69.9501 72.5237 70.0007 71.301Z" fill="#2A2968"/>
</svg>
