<svg xmlns="http://www.w3.org/2000/svg" width="34.056" height="30.171" viewBox="0 0 34.056 30.171">
  <g id="_24H_icon" data-name="24H icon" transform="translate(0.5 0.516)">
    <path id="Path_435" data-name="Path 435" d="M-396.754-24.591c.087-.517.144-1.041.267-1.549a8.441,8.441,0,0,1,4.5-5.888,7.971,7.971,0,0,1,4.738-.726,9.619,9.619,0,0,1,6.752,4.241c.074.1.15.207.258.355l.327-.455a9.755,9.755,0,0,1,4.951-3.75,8.18,8.18,0,0,1,10.442,4.6,9.82,9.82,0,0,1-.513,8.818A25.78,25.78,0,0,1-369.634-13c-2.757,2.8-5.769,5.321-8.728,7.9-.381.332-.76.666-1.149.989-.188.156-.4.288-.594.431h-.258a3.19,3.19,0,0,1-.4-.261c-2.968-2.629-5.963-5.229-8.889-7.9a29.882,29.882,0,0,1-5.07-5.861,12.539,12.539,0,0,1-1.814-4.169c-.086-.406-.146-.818-.218-1.228Zm16.519,19.4c.861-.742,1.694-1.453,2.521-2.173a101.806,101.806,0,0,0,8-7.4,20.668,20.668,0,0,0,3.887-5.506,8.587,8.587,0,0,0,.621-5.473,7.175,7.175,0,0,0-2.43-4.185,7,7,0,0,0-7.632-.922,8.852,8.852,0,0,0-4.322,4.175.724.724,0,0,1-.631.475.7.7,0,0,1-.644-.454,9.534,9.534,0,0,0-2.941-3.412,7.508,7.508,0,0,0-6.09-1.308,6.672,6.672,0,0,0-5.052,4.558,8.7,8.7,0,0,0,.746,7.451,22.733,22.733,0,0,0,4.342,5.5c2.32,2.208,4.717,4.336,7.092,6.486C-381.95-6.646-381.1-5.939-380.235-5.195Z" transform="translate(396.754 32.839)" fill="#2a2968" stroke="#25235a" stroke-width="1"/>
    <path id="Path_436" data-name="Path 436" d="M-377.6-2.594c-.863-.744-1.715-1.451-2.535-2.193-2.375-2.15-4.772-4.277-7.092-6.486a22.733,22.733,0,0,1-4.342-5.5,8.7,8.7,0,0,1-.746-7.451,6.672,6.672,0,0,1,5.052-4.558,7.508,7.508,0,0,1,6.09,1.308,9.534,9.534,0,0,1,2.941,3.412.7.7,0,0,0,.644.454.724.724,0,0,0,.631-.475,8.852,8.852,0,0,1,4.322-4.175,7,7,0,0,1,7.632.922,7.175,7.175,0,0,1,2.43,4.185,8.587,8.587,0,0,1-.621,5.473,20.668,20.668,0,0,1-3.887,5.506,101.817,101.817,0,0,1-8,7.4C-375.906-4.048-376.74-3.336-377.6-2.594Zm2.581-15.272v-.381c0-1.021,0-2.042,0-3.063,0-.578-.229-.812-.793-.814q-1.79,0-3.579,0c-.55,0-.786.237-.788.786,0,1.032,0,2.064,0,3.1v.376h-.381q-1.515,0-3.031,0c-.631,0-.845.219-.846.858q0,1.741,0,3.483c0,.58.241.818.828.82,1.021,0,2.042,0,3.063,0h.367v.388q0,1.516,0,3.031c0,.606.232.837.842.839q1.741,0,3.483,0c.6,0,.836-.236.837-.844q0-1.532,0-3.063V-12.7c1.179,0,2.307,0,3.435,0,.583,0,.822-.243.823-.825q0-1.741,0-3.483c0-.636-.217-.853-.851-.854C-372.729-17.867-373.846-17.866-375.019-17.866Zm11.356-3.5a7.133,7.133,0,0,0-.76-3.133.652.652,0,0,0-.861-.4.653.653,0,0,0-.311.922c.1.259.227.51.317.774a6.456,6.456,0,0,1-.422,4.972,16.547,16.547,0,0,1-1.973,3.089.67.67,0,0,0,.046,1,.654.654,0,0,0,.973-.222c.589-.845,1.2-1.678,1.724-2.564A8.881,8.881,0,0,0-363.664-21.362Zm-2.433-4.882a.632.632,0,0,0-.617-.651.635.635,0,0,0-.647.623.648.648,0,0,0,.618.655A.645.645,0,0,0-366.1-26.244Z" transform="translate(394.12 30.238)" fill="#e94d16"/>
    <path id="Path_437" data-name="Path 437" d="M-357.77-3.8c1.173,0,2.291,0,3.408,0,.634,0,.85.217.851.854q0,1.741,0,3.483c0,.582-.24.823-.823.825-1.128,0-2.256,0-3.435,0v.351q0,1.532,0,3.063c0,.608-.232.842-.837.844q-1.741,0-3.483,0c-.61,0-.841-.232-.842-.839q0-1.516,0-3.031V1.361h-.367c-1.021,0-2.042,0-3.063,0-.587,0-.827-.24-.828-.82q0-1.741,0-3.483c0-.639.215-.857.846-.858q1.515,0,3.031,0h.381v-.376c0-1.032,0-2.064,0-3.1,0-.549.238-.785.788-.786q1.79,0,3.579,0c.565,0,.792.236.793.814,0,1.021,0,2.042,0,3.063Zm-3.872-2.961v.378q0,1.516,0,3.031c0,.608-.231.84-.839.842-1.021,0-2.042,0-3.063,0h-.338V.07h.364q1.515,0,3.031,0c.631,0,.845.219.846.859q0,1.516,0,3.031V4.3h2.582c0-1.175,0-2.325,0-3.474a.666.666,0,0,1,.751-.758c.871-.005,1.741,0,2.612,0h.873V-2.511c-1.148,0-2.275,0-3.4,0-.6,0-.835-.237-.836-.845q0-1.532,0-3.063v-.343Z" transform="translate(376.871 16.174)" fill="#2a2968" stroke="#25235a" stroke-width="1"/>
    <path id="Path_438" data-name="Path 438" d="M-312.376-13.088a8.881,8.881,0,0,1-1.266,4.44c-.522.886-1.135,1.719-1.724,2.564a.654.654,0,0,1-.973.222.67.67,0,0,1-.046-1,16.547,16.547,0,0,0,1.973-3.089,6.456,6.456,0,0,0,.422-4.972c-.09-.264-.214-.515-.317-.774a.653.653,0,0,1,.311-.922.652.652,0,0,1,.861.4A7.134,7.134,0,0,1-312.376-13.088Z" transform="translate(342.832 21.964)" fill="#2a2968" stroke="#25235a" stroke-width="1"/>
    <path id="Path_439" data-name="Path 439" d="M-313.755-21.977a.645.645,0,0,1-.645.627.648.648,0,0,1-.618-.655.635.635,0,0,1,.647-.623A.632.632,0,0,1-313.755-21.977Z" transform="translate(341.778 25.971)" fill="#2a2968" stroke="#25235a" stroke-width="1"/>
    <path id="Path_440" data-name="Path 440" d="M-358.952-4.094h2.581v.343q0,1.532,0,3.063c0,.608.232.843.836.845,1.127,0,2.254,0,3.4,0V2.739h-.874c-.871,0-1.741,0-2.612,0a.666.666,0,0,0-.751.758c0,1.149,0,2.3,0,3.474h-2.582V6.63q0-1.516,0-3.031c0-.64-.215-.858-.846-.859q-1.516,0-3.031,0h-.364V.158h.338c1.021,0,2.042,0,3.063,0,.608,0,.838-.234.839-.842q0-1.516,0-3.031Z" transform="translate(374.181 13.505)" fill="#ffdc55"/>
  </g>
</svg>
