<svg width="140" height="140" viewBox="0 0 140 140" fill="none" xmlns="http://www.w3.org/2000/svg">
<path d="M91.1464 15.8667C92.1402 15.8667 93.1129 15.8667 94.1068 15.8667C97.5113 16.4799 99.8584 18.6791 102.184 21.0263C107.704 26.6511 113.265 32.2124 118.89 37.7315C121.279 40.0787 123.478 42.4682 124.134 45.8938C124.134 46.8876 124.134 47.8603 124.134 48.8542C123.542 52.2587 121.385 54.6693 118.995 56.9742C114.872 60.9708 110.854 65.0731 106.815 69.1331C106.541 69.408 106.287 69.6828 105.991 70C106.308 70.3172 106.562 70.6133 106.815 70.867C110.897 74.9482 114.935 79.0716 119.08 83.0893C121.448 85.3731 123.542 87.7625 124.134 91.1459C124.134 92.1397 124.134 93.1124 124.134 94.1063C123.478 97.5319 121.258 99.9214 118.869 102.269C113.138 107.893 107.45 113.56 101.846 119.312C99.5835 121.617 97.1941 123.605 93.8953 124.133C92.986 124.133 92.0556 124.133 91.1464 124.133C87.7419 123.52 85.3313 121.384 83.0264 118.995C79.0298 114.871 74.9275 110.854 70.8675 106.794C70.5926 106.519 70.3177 106.265 70.0005 105.969C69.6833 106.286 69.3873 106.54 69.1335 106.794C65.0735 110.854 60.9712 114.871 56.9747 118.974C54.6698 121.384 52.2592 123.541 48.8547 124.133C47.9454 124.133 47.015 124.133 46.1057 124.133C42.7224 123.584 40.3118 121.511 38.0069 119.164C32.4455 113.476 26.7996 107.851 21.1325 102.269C18.743 99.9214 16.5227 97.5531 15.8672 94.1063C15.8672 93.1124 15.8672 92.1397 15.8672 91.1459C16.4593 87.7837 18.5739 85.3942 20.921 83.1105C25.0656 79.0927 29.1045 74.9693 33.1856 70.867C33.4605 70.5921 33.7143 70.3172 34.0103 70C33.7143 69.6828 33.4394 69.408 33.1856 69.1331C29.1256 65.0731 25.1079 60.9708 20.9845 56.9742C18.6161 54.6482 16.4593 52.2587 15.8672 48.8542C15.8672 47.9449 15.8672 47.0145 15.8672 46.1052C16.3958 42.6796 18.5316 40.269 20.921 37.943C26.5881 32.4027 32.1918 26.7779 37.732 21.132C40.0792 18.7425 42.4686 16.5222 45.8943 15.8667C46.8881 15.8667 47.8608 15.8667 48.8547 15.8667C52.1957 16.4376 54.5641 18.5099 56.8267 20.836C60.8655 25.0017 65.0312 29.0617 69.1335 33.164C69.4084 33.4389 69.6833 33.6926 70.0005 33.9887C70.2966 33.7138 70.5503 33.4812 70.8041 33.2486C74.9064 29.1463 79.0721 25.0863 83.1109 20.8994C85.3947 18.5734 87.7842 16.4588 91.1464 15.8667ZM47.0361 119.904C49.1719 119.904 50.6732 119.291 52.1111 117.853C55.6002 114.364 59.0893 110.875 62.5783 107.386C80.9541 89.0101 99.3298 70.6344 117.706 52.2375C120.645 49.2983 120.645 45.5343 117.748 42.6162C110.939 35.7861 104.109 28.956 97.2786 22.147C94.5297 19.3981 90.6811 19.3769 87.9533 22.1259C66.004 44.0541 44.0546 66.0035 22.1052 87.9528C19.4197 90.6384 19.3563 94.4446 21.9995 97.109C28.9353 104.108 35.9346 111.065 42.9127 118.043C44.1603 119.27 45.6617 119.862 47.0361 119.904ZM73.0878 102.988C73.3416 103.262 73.5742 103.516 73.8279 103.77C78.4589 108.401 83.0898 113.032 87.7207 117.663C90.7446 120.687 94.4451 120.687 97.4901 117.642C104.214 110.917 110.939 104.193 117.663 97.4685C120.687 94.4446 120.687 90.723 117.663 87.6991C113.032 83.0682 108.401 78.4372 103.77 73.8063C103.517 73.5525 103.221 73.2988 103.009 73.0873C92.986 83.0682 83.0686 92.9856 73.0878 102.988ZM66.8921 36.9491C66.6806 36.7165 66.4692 36.4839 66.2366 36.2724C61.5845 31.6203 56.9324 26.9471 52.2592 22.295C49.2776 19.3135 45.5348 19.3135 42.5532 22.295C35.8077 29.0406 29.041 35.7861 22.2955 42.5527C19.314 45.5343 19.314 49.2771 22.2744 52.2587C26.9265 56.9108 31.5997 61.5628 36.2518 66.2361C36.5055 66.4898 36.7593 66.7013 36.9496 66.8916C46.9727 56.8896 56.8901 46.9511 66.8921 36.9491Z" fill="#2A2968"/>
<path d="M92.7956 65.4537C92.7321 67.4625 91.9075 69.0273 90.5541 70.3807C84.6967 76.1958 78.8816 82.032 73.0454 87.8683C72.0515 88.8621 71.0577 89.8771 70.0427 90.8498C67.3571 93.4296 63.5932 93.4508 60.95 90.8498C56.9534 86.9167 52.9991 82.9624 49.066 78.9659C46.5496 76.4072 46.5074 72.601 49.0449 70.0423C56.023 63.0008 63.0223 56.0015 70.0427 49.0445C72.559 46.5493 76.3653 46.5705 78.8816 49.0445C82.9205 53.0199 86.917 57.0588 90.9136 61.0765C92.1824 62.2818 92.7533 63.8255 92.7956 65.4537ZM88.799 65.5171C88.355 64.8405 88.1012 64.2061 87.6571 63.762C83.872 59.9346 80.0446 56.1072 76.2384 52.3221C75.0542 51.138 73.9335 51.138 72.7493 52.3221C65.9404 59.1099 59.1314 65.9189 52.3436 72.7278C51.1594 73.912 51.1383 75.0327 52.3013 76.2169C56.1076 80.0443 59.9138 83.8506 63.7412 87.6568C64.9677 88.8833 66.0672 88.8833 67.3149 87.6568C68.9642 86.0286 70.6136 84.3792 72.2418 82.7298C77.3591 77.6125 82.4764 72.5164 87.5514 67.3991C88.0378 66.8705 88.355 66.1938 88.799 65.5171Z" fill="#2A2968"/>
<path d="M45.0273 92.8798C45.0273 91.7379 45.9578 90.7864 47.0996 90.7864C48.2204 90.7864 49.1931 91.7379 49.2354 92.8587C49.2565 94.0217 48.2838 95.0155 47.0785 94.9944C45.8943 94.9521 45.0273 94.0428 45.0273 92.8798Z" fill="#2A2968"/>
<path d="M45.8529 102.945C45.8741 104.045 44.9437 105.039 43.8229 105.081C42.6599 105.123 41.666 104.193 41.6449 103.009C41.6238 101.867 42.5119 100.915 43.6538 100.873C44.8168 100.831 45.8318 101.782 45.8529 102.945Z" fill="#2A2968"/>
<path d="M96.2207 39.1272C95.1 39.106 94.1484 38.1333 94.1484 37.0337C94.1484 35.8919 95.1634 34.898 96.3053 34.9192C97.4895 34.9403 98.3987 35.9342 98.3565 37.1183C98.3142 38.2391 97.3415 39.1483 96.2207 39.1272Z" fill="#2A2968"/>
<path d="M103.009 41.6434C104.172 41.6646 105.081 42.5527 105.081 43.6946C105.102 44.8576 104.108 45.8515 102.945 45.8303C101.846 45.8092 100.873 44.8576 100.873 43.7369C100.873 42.595 101.825 41.6434 103.009 41.6434Z" fill="#2A2968"/>
<path d="M55.9386 99.583C55.9597 100.725 55.0505 101.698 53.9086 101.719C52.7456 101.74 51.794 100.852 51.7729 99.7099C51.7306 98.5046 52.661 97.5107 53.8452 97.5107C54.9659 97.5107 55.9175 98.4412 55.9386 99.583Z" fill="#2A2968"/>
<path d="M39.1283 96.2208C39.1494 97.3627 38.2613 98.3143 37.1194 98.3566C35.9353 98.3989 34.9414 97.4896 34.9203 96.3054C34.8991 95.1636 35.893 94.1486 37.0348 94.1486C38.1556 94.1486 39.1071 95.1001 39.1283 96.2208Z" fill="#2A2968"/>
<path d="M92.9017 45.0268C94.0859 45.0268 94.974 45.915 94.974 47.0991C94.974 48.2833 94.0013 49.2772 92.8171 49.2349C91.6964 49.1926 90.7448 48.1987 90.766 47.078C90.8083 45.9361 91.7598 45.0057 92.9017 45.0268Z" fill="#2A2968"/>
<path d="M40.3328 88.2489C39.1697 88.2277 38.2605 87.2973 38.2816 86.1554C38.2816 85.0135 39.2332 84.0831 40.375 84.0831C41.5592 84.0831 42.5319 85.077 42.4896 86.24C42.4473 87.3819 41.4958 88.27 40.3328 88.2489Z" fill="#2A2968"/>
<path d="M101.719 53.9292C101.677 55.0711 100.704 55.9592 99.5412 55.9169C98.3993 55.8746 97.4689 54.9019 97.5112 53.7812C97.5323 52.597 98.5473 51.6877 99.7526 51.7512C100.916 51.8146 101.783 52.7662 101.719 53.9292Z" fill="#2A2968"/>
<path d="M86.1778 38.2812C87.3408 38.2812 88.2501 39.1905 88.2501 40.3535C88.2712 41.5589 87.2985 42.5316 86.1143 42.4893C84.9725 42.447 84.0632 41.4954 84.0843 40.3535C84.0843 39.1905 85.0148 38.2812 86.1778 38.2812Z" fill="#2A2968"/>
<path d="M91.1254 93.1548C91.1465 91.9918 92.0558 91.1036 93.2188 91.1036C94.3818 91.1036 95.3122 92.0341 95.3334 93.1759C95.3334 94.339 94.2972 95.354 93.1554 95.3117C92.0135 95.2905 91.1042 94.3178 91.1254 93.1548Z" fill="#2A2968"/>
<path d="M99.9222 84.3792C101.064 84.3792 102.016 85.2884 102.016 86.4514C102.037 87.5933 101.106 88.566 99.9857 88.5872C98.8015 88.6295 97.8288 87.6568 97.8499 86.4514C97.8499 85.2884 98.7804 84.3792 99.9222 84.3792Z" fill="#2A2968"/>
<path d="M88.5883 99.8791C88.6095 101.021 87.679 101.973 86.5372 102.015C85.3741 102.057 84.4226 101.169 84.3803 100.006C84.338 98.8007 85.2684 97.828 86.4737 97.828C87.6367 97.828 88.5672 98.7373 88.5883 99.8791Z" fill="#2A2968"/>
<path d="M94.4867 103.241C94.5079 102.078 95.4383 101.169 96.6013 101.19C97.7432 101.211 98.6947 102.142 98.6947 103.284C98.6947 104.468 97.7009 105.398 96.5167 105.377C95.3325 105.335 94.4656 104.425 94.4867 103.241Z" fill="#2A2968"/>
<path d="M103.285 94.4869C104.469 94.4869 105.357 95.3539 105.378 96.5381C105.399 97.7434 104.427 98.7161 103.243 98.695C102.101 98.6738 101.191 97.7223 101.191 96.5804C101.213 95.3962 102.122 94.4869 103.285 94.4869Z" fill="#2A2968"/>
<path d="M48.8763 46.8242C48.8552 48.0084 47.967 48.8965 46.7829 48.8965C45.641 48.8965 44.6894 47.9661 44.6683 46.8454C44.6471 45.7035 45.6833 44.6673 46.8463 44.7096C47.9882 44.7096 48.8975 45.6612 48.8763 46.8242Z" fill="#2A2968"/>
<path d="M53.5491 42.151C52.3861 42.1721 51.4346 41.2629 51.4134 40.121C51.3711 38.958 52.365 37.9641 53.5491 37.9641C54.691 37.9853 55.6214 38.9157 55.6214 40.0575C55.6214 41.2206 54.7122 42.1298 53.5491 42.151Z" fill="#2A2968"/>
<path d="M36.7601 45.5132C35.576 45.5343 34.6667 44.6673 34.6244 43.5043C34.5821 42.299 35.5337 41.3263 36.7178 41.3263C37.8597 41.3263 38.7901 42.2779 38.8113 43.4197C38.8113 44.5616 37.9232 45.492 36.7601 45.5132Z" fill="#2A2968"/>
<path d="M45.5134 36.6742C45.5134 37.8372 44.6253 38.7677 43.4834 38.7888C42.2992 38.81 41.3054 37.8372 41.3265 36.6531C41.3476 35.5112 42.2992 34.6019 43.4411 34.6019C44.6041 34.6231 45.5134 35.5112 45.5134 36.6742Z" fill="#2A2968"/>
<path d="M40.1012 55.6208C38.9594 55.642 38.0078 54.7116 37.9867 53.5697C37.9655 52.3855 38.9382 51.3917 40.1012 51.4128C41.2431 51.434 42.1524 52.3644 42.1524 53.5274C42.1524 54.6904 41.2431 55.5997 40.1012 55.6208Z" fill="#2A2968"/>
<path d="M88.7999 65.5171C88.3347 66.1938 88.0387 66.8704 87.5312 67.3779C82.435 72.5164 77.3178 77.6125 72.2216 82.7087C70.5722 84.358 68.944 86.0074 67.2946 87.6357C66.0682 88.8621 64.9686 88.8621 63.721 87.6357C59.8936 83.8294 56.0873 80.0231 52.2811 76.1958C51.1181 75.0116 51.1392 73.912 52.3234 72.7067C59.1323 65.8977 65.9201 59.0888 72.7291 52.301C73.9133 51.1168 75.034 51.1168 76.2182 52.301C80.0456 56.1072 83.8518 59.9135 87.6369 63.7409C88.1021 64.2061 88.377 64.8404 88.7999 65.5171Z" fill="#FFDC55"/>
</svg>
