<svg xmlns="http://www.w3.org/2000/svg" xmlns:xlink="http://www.w3.org/1999/xlink" width="53" height="53" viewBox="0 0 53 53">
  <defs>
    <filter id="Rectangle_42" x="0" y="0" width="53" height="53" filterUnits="userSpaceOnUse">
      <feOffset dy="3" input="SourceAlpha"/>
      <feGaussianBlur stdDeviation="3" result="blur"/>
      <feFlood flood-opacity="0.161"/>
      <feComposite operator="in" in2="blur"/>
      <feComposite in="SourceGraphic"/>
    </filter>
  </defs>
  <g id="預約掛號" transform="translate(9.297 6.031)">
    <g transform="matrix(1, 0, 0, 1, -9.3, -6.03)" filter="url(#Rectangle_42)">
      <g id="Rectangle_42-2" data-name="Rectangle 42" transform="translate(9 6)" fill="#ffd639" stroke="#2a2968" stroke-width="1.5">
        <rect width="35" height="35" rx="6" stroke="none"/>
        <rect x="0.75" y="0.75" width="33.5" height="33.5" rx="5.25" fill="none"/>
      </g>
    </g>
    <path id="Path_177" data-name="Path 177" d="M-17.5-16.141v5.93H-16.3a7.745,7.745,0,0,1-1.912,1.246l.612.795a8.4,8.4,0,0,0,2.084-1.482l-.634-.559h1.966l-.591.569a9.159,9.159,0,0,1,1.772,1.407l.72-.72a12.19,12.19,0,0,0-1.74-1.257h1.16v-5.93h-2.009c.075-.215.14-.43.2-.645h2.17v-.988h-5.382v.988h2.105a4.964,4.964,0,0,1-.2.645Zm3.566,5.027h-2.514v-.838h2.514Zm-2.514-1.7v-.806h2.514v.806Zm0-1.665v-.763h2.514v.763Zm-4.684-1.88-.816.516c.516.494.978.956,1.364,1.4H-22.33v1.031h1.482v3.9c0,.226-.086.344-.247.344a6.882,6.882,0,0,1-.913-.064l.226,1.01h1.053c.623,0,.945-.344.945-1.021v-4.168h.838a7.005,7.005,0,0,1-.419,1.268l.881.354a8.945,8.945,0,0,0,.569-1.977v-.677h-1.461q-.161-.226-.387-.483a11.349,11.349,0,0,0,1.418-2.009v-.838h-3.631v.988h2.481a10.239,10.239,0,0,1-.881,1.182C-20.6-15.84-20.848-16.1-21.127-16.356ZM-5-13.961l-.859.537a22.476,22.476,0,0,1,1.654,2.471l.881-.612A20.977,20.977,0,0,0-5-13.961Zm-.408-4.146a7.95,7.95,0,0,1-1.751,3.652l.7.892a9.735,9.735,0,0,0,1.182-1.719h2.771c-.021,3.019-.054,4.78-.118,5.285-.064.462-.312.7-.72.7-.354,0-.773-.021-1.257-.054l.269,1.01c.559.043.945.064,1.171.064.945,0,1.472-.4,1.59-1.192q.161-1.305.161-6.886H-4.8a12.725,12.725,0,0,0,.473-1.611Zm-5.081,7.154a10.247,10.247,0,0,1-.43,2.406l.945.3a13.263,13.263,0,0,0,.4-2.589Zm2.234-.086-.9.193c.118.677.215,1.461.3,2.342l.978-.236C-7.989-9.567-8.118-10.33-8.258-11.039Zm1.042-2.836-.892.29c.107.279.2.559.29.859q-.709.161-1.418.29A26.17,26.17,0,0,0-6.646-16.12l-.967-.376c-.279.473-.548.924-.795,1.332-.408.064-.806.107-1.2.15a14.17,14.17,0,0,0,1.622-2.729l-1.042-.408a17.673,17.673,0,0,1-1.418,2.814,1.138,1.138,0,0,1-.44.387l.258.956c.548-.064,1.074-.129,1.59-.183A9.819,9.819,0,0,1-10.32-12.6a1.523,1.523,0,0,1-.483.29l.279.978a18.837,18.837,0,0,0,2.943-.537c.032.129.064.279.107.43l.945-.226A15.97,15.97,0,0,0-7.216-13.875Zm.2,2.621-.816.269a16.337,16.337,0,0,1,.569,1.9l.87-.387A14.4,14.4,0,0,0-7.012-11.254Zm-11.6,7.576v.967h1.128v1.192h-1.332v1.01h3.728v-1.01h-1.343V-2.711h1.117v-.967h-1.117V-4.784h-1.053v1.106ZM-18.71.77v.978h1.225V3.165c-.58.086-1.149.172-1.729.236l.269,1.063a38.113,38.113,0,0,0,3.932-.859V2.628c-.473.118-.945.226-1.418.333V1.747h1.225V.77h-1.225V-.251h-1.053V.77Zm4-5.65V4.906h1.021V.039c.279.387.612.87.988,1.472l.634-.945c-.548-.655-1.085-1.246-1.622-1.783V-4.88Zm-6.091,9.8c.666,0,1.01-.387,1.01-1.139V.813c.279-.15.569-.322.849-.494V-.8c-.279.193-.559.365-.849.537V-2.012h.913V-3.044h-.913V-4.9h-1.053v1.858h-1.063v1.031h1.063V.254a9.916,9.916,0,0,1-1.2.408l.279,1.074c.3-.129.612-.258.924-.4V3.5c0,.312-.107.473-.312.473a4.386,4.386,0,0,1-.73-.064l.226,1.01Zm10.388-9.5v3.1h3.309v-3.1ZM-8.14-2.4H-9.386V-3.656H-8.14Zm-2.6,1.364V0h.849c-.129.58-.29,1.235-.494,1.944h2.03q-.048,1.611-.29,1.8a1.69,1.69,0,0,1-.945.183,3.745,3.745,0,0,1-.473-.032l.312,1.021h.14a2.868,2.868,0,0,0,1.837-.408c.29-.269.462-1.45.5-3.556H-9.063c.086-.279.161-.6.247-.956h1.923V-1.035Zm6.23-3.932v1.944H-6.636V.244a10.51,10.51,0,0,1-.752,4.071l.87.752A11.328,11.328,0,0,0-5.583.244V-2.045h1.106v.784l-1.031.14.15.935L-4.476-.3V.115q0,.87,1.031.87h2.073V.029H-3.134c-.193,0-.29-.064-.29-.172v-.3L-2.2-.616l-.086-.526.784.226a7.451,7.451,0,0,0,.451-1.6v-.5H-3.413v-.516h2.105v-.913H-3.413v-.516Zm1.085,2.922h1.246c-.054.161-.107.322-.172.494l-1.074.15ZM-5.057,1.243C-5.078,2.811-5.39,3.864-6,4.412l.881.688C-4.4,4.4-4.025,3.112-4,1.243Zm3.126,3.609a1.245,1.245,0,0,0,.913-.312,3.309,3.309,0,0,0,.226-1.6l-.935-.354c0,.4-.011.709-.032.924s-.1.333-.226.344h-.322c-.086-.011-.129-.054-.129-.118V1.243H-3.456v2.7c0,.6.365.913,1.106.913Z" transform="translate(29.033 24.119)" fill="#2a2968"/>
  </g>
</svg>
