<svg xmlns="http://www.w3.org/2000/svg" width="154.701" height="735.323" viewBox="0 0 154.701 735.323">
  <g id="bg_icon" data-name="bg icon" transform="translate(-973.479 -536.744)">
    <g id="_60iJTc.tif" data-name="60iJTc.tif" transform="translate(1092.961 944.961)">
      <g id="Group_362" data-name="Group 362">
        <path id="Path_503" data-name="Path 503" d="M-179.14-153.948c0-.343-.025-.668,0-.987a2.138,2.138,0,0,1,2.042-1.912c1.022-.022,2.046-.018,3.069,0a2.168,2.168,0,0,1,2.145,2.177c0,.233,0,.466,0,.727.073,0,.138,0,.2,0,.534.01,1.072-.023,1.6.039a2.121,2.121,0,0,1,1.823,2.032c.019.784.007,1.568.007,2.353,0,1.671,0,3.342,0,5.013a2.162,2.162,0,0,1-1.83,2.175,2.425,2.425,0,0,1-.424.027q-5.021,0-10.042,0a2.168,2.168,0,0,1-2.223-1.836,2.423,2.423,0,0,1-.025-.424q0-3.555,0-7.11a2.173,2.173,0,0,1,2.277-2.269Zm3.638,1.458h-5a.745.745,0,0,0-.844.849q0,3.513,0,7.026a.756.756,0,0,0,.861.856h9.926a.756.756,0,0,0,.861-.855q0-3.513,0-7.026a.745.745,0,0,0-.844-.85Zm2.166-1.464c0-.242,0-.468,0-.694a.716.716,0,0,0-.716-.753c-.977-.011-1.953-.009-2.93,0a.687.687,0,0,0-.7.6,7.444,7.444,0,0,0-.007.85Z" transform="translate(182.794 156.863)" fill="#e5e5ef" stroke="#e5e5ef" stroke-width="1"/>
        <path id="Path_504" data-name="Path 504" d="M-165.68-134.217h-1.447v-1.443h-1.452v-1.46h1.443v-1.44h1.448v1.433h1.455v1.46h-1.447Z" transform="translate(173.68 145.128)" fill="#e5e5ef" stroke="#e5e5ef" stroke-width="1"/>
      </g>
    </g>
    <g id="Co8UtB.tif" transform="translate(978.508 834.073)">
      <g id="Group_364" data-name="Group 364">
        <path id="Path_506" data-name="Path 506" d="M-59.17-156.146a5.421,5.421,0,0,1,5.422,5.527,5.444,5.444,0,0,1-5.469,5.334,5.436,5.436,0,0,1-5.392-5.509A5.42,5.42,0,0,1-59.17-156.146Zm-.03,8.68a3.24,3.24,0,0,0,3.273-3.255,3.259,3.259,0,0,0-3.249-3.263,3.28,3.28,0,0,0-3.268,3.251A3.259,3.259,0,0,0-59.2-147.466Z" transform="translate(64.61 156.146)" fill="#e5e5ef"/>
        <path id="Path_507" data-name="Path 507" d="M-48-122.9a4.328,4.328,0,0,1-4.329-4.372,4.334,4.334,0,0,1,4.367-4.31,4.331,4.331,0,0,1,4.316,4.334A4.33,4.33,0,0,1-48-122.9Zm.013-6.517a2.19,2.19,0,0,0-2.177,2.17A2.19,2.19,0,0,0-48-125.064a2.19,2.19,0,0,0,2.19-2.182A2.192,2.192,0,0,0-47.983-129.417Z" transform="translate(58.846 144.622)" fill="#e5e5ef"/>
        <path id="Path_508" data-name="Path 508" d="M-29.444-144.708a3.258,3.258,0,0,1-3.224,3.258,3.271,3.271,0,0,1-3.294-3.248,3.27,3.27,0,0,1,3.271-3.272A3.255,3.255,0,0,1-29.444-144.708Zm-3.26-1.081a1.079,1.079,0,0,0-1.08,1.085,1.082,1.082,0,0,0,1.091,1.075,1.083,1.083,0,0,0,1.082-1.087A1.082,1.082,0,0,0-32.7-145.789Z" transform="translate(51.169 152.31)" fill="#e5e5ef"/>
        <path id="Path_509" data-name="Path 509" d="M-31.861-128.46a1.088,1.088,0,0,1,1.082-1.083,1.094,1.094,0,0,1,1.093,1.076,1.1,1.1,0,0,1-1.1,1.1A1.1,1.1,0,0,1-31.861-128.46Z" transform="translate(49.245 143.665)" fill="#e5e5ef"/>
        <path id="Path_510" data-name="Path 510" d="M-40.04-150.972a1.084,1.084,0,0,1,1.071-1.1,1.084,1.084,0,0,1,1.09,1.079,1.082,1.082,0,0,1-1.072,1.1A1.081,1.081,0,0,1-40.04-150.972Z" transform="translate(53.083 154.234)" fill="#e5e5ef"/>
        <path id="Path_511" data-name="Path 511" d="M-56.3-132.547a1.081,1.081,0,0,1-1.088,1.079,1.081,1.081,0,0,1-1.073-1.094,1.083,1.083,0,0,1,1.088-1.081A1.082,1.082,0,0,1-56.3-132.547Z" transform="translate(61.727 145.589)" fill="#e5e5ef"/>
      </g>
    </g>
    <g id="TfMQKT.tif" transform="translate(1082.137 645.798)">
      <g id="Group_366" data-name="Group 366" transform="translate(0 0)">
        <path id="Path_512" data-name="Path 512" d="M-219-133.718h-4.319a1.455,1.455,0,0,0-.176-.041,2.88,2.88,0,0,1-2.531-2.575c-.067-.991-.03-1.989-.039-2.983,0-.09,0-.179,0-.294h-.272c-.857,0-1.715,0-2.572,0a2.95,2.95,0,0,1-3.037-3.028q0-1.871,0-3.743a2.947,2.947,0,0,1,3.049-3.038q1.286,0,2.572,0h.26v-.282c0-.85,0-1.7,0-2.549a3.487,3.487,0,0,1,.058-.661,2.921,2.921,0,0,1,2.886-2.385c1.309-.013,2.618,0,3.927,0a2.779,2.779,0,0,1,.547.056,2.934,2.934,0,0,1,2.388,2.909c.009.888,0,1.776,0,2.664,0,.08.007.16.011.249.979,0,1.928-.008,2.877,0a2.824,2.824,0,0,1,2.6,1.513,6.7,6.7,0,0,1,.4,1.23v4.319a2.036,2.036,0,0,0-.044.2,2.881,2.881,0,0,1-2.573,2.506c-.991.067-1.988.03-2.983.039h-.294v.272c0,.88.006,1.76,0,2.64a2.938,2.938,0,0,1-2.033,2.817C-218.524-133.807-218.767-133.772-219-133.718Zm.765-7.868v-5.853h-5.853v5.853Zm.016-7.845c0-.97,0-1.917,0-2.865a.98.98,0,0,0-1.054-1.042q-1.882,0-3.765,0a.983.983,0,0,0-1.061,1.057q0,1.32,0,2.64c0,.067.007.134.012.209Zm-7.856,1.975c-.968,0-1.909,0-2.85,0a.982.982,0,0,0-1.057,1.061q0,1.882,0,3.765a.981.981,0,0,0,1.042,1.054c.888,0,1.776,0,2.663,0,.066,0,.132-.008.2-.012Zm9.83,5.881c.968,0,1.908,0,2.849,0a.984.984,0,0,0,1.057-1.062q0-1.882,0-3.765a.983.983,0,0,0-1.064-1.054c-.873,0-1.745,0-2.617,0h-.225ZM-224.1-139.6c0,.087,0,.147,0,.207,0,.934-.011,1.868.008,2.8a.939.939,0,0,0,.935.9q2,.014,3.995,0a.943.943,0,0,0,.937-.919c.013-.979,0-1.959,0-2.938,0-.013-.015-.025-.028-.046Z" transform="translate(231.952 155.306)" fill="#e5e5ef" stroke="#e5e5ef" stroke-width="1"/>
      </g>
    </g>
    <g id="m5CoFg.tif" transform="translate(1031.983 537.244)">
      <g id="Group_363" data-name="Group 363">
        <path id="Path_505" data-name="Path 505" d="M-116.964-156.459a5.342,5.342,0,0,1,5.525,4.514,5.071,5.071,0,0,1-1.426,4.413c-1.454,1.493-2.916,2.981-4.425,4.417a5,5,0,0,1-5.288,1.2,5,5,0,0,1-3.543-4.1,5,5,0,0,1,1.409-4.56c1.432-1.474,2.895-2.919,4.357-4.363A5.022,5.022,0,0,1-116.964-156.459Zm1.38,9.534c.591-.585,1.211-1.153,1.779-1.77a3.573,3.573,0,0,0,.935-3.178,3.6,3.6,0,0,0-2.577-2.971,3.653,3.653,0,0,0-3.828.914c-.387.365-.754.752-1.132,1.127-.18.178-.364.351-.54.52Zm-6.437-4.263c-.509.51-1.035,1.024-1.547,1.55a3.656,3.656,0,0,0-1.061,3.3,3.6,3.6,0,0,0,2.37,2.912,3.561,3.561,0,0,0,3.722-.578c.678-.553,1.268-1.214,1.887-1.816Z" transform="translate(126.212 156.459)" fill="#e5e5ef" stroke="#e5e5ef" stroke-width="1"/>
      </g>
    </g>
    <g id="Co8UtB.tif-2" data-name="Co8UtB.tif" transform="translate(1104.918 1248.81)">
      <g id="Group_364-2" data-name="Group 364">
        <path id="Path_506-2" data-name="Path 506" d="M-58.785-156.146a5.8,5.8,0,0,1,5.8,5.917,5.829,5.829,0,0,1-5.855,5.711,5.821,5.821,0,0,1-5.774-5.9A5.8,5.8,0,0,1-58.785-156.146Zm-.032,9.294a3.47,3.47,0,0,0,3.5-3.485,3.489,3.489,0,0,0-3.479-3.493,3.512,3.512,0,0,0-3.5,3.481A3.49,3.49,0,0,0-58.817-146.852Z" transform="translate(64.61 156.146)" fill="#e5e5ef"/>
        <path id="Path_507-2" data-name="Path 507" d="M-47.69-122.286a4.634,4.634,0,0,1-4.635-4.681,4.64,4.64,0,0,1,4.676-4.615,4.637,4.637,0,0,1,4.622,4.641A4.636,4.636,0,0,1-47.69-122.286Zm.014-6.978a2.345,2.345,0,0,0-2.331,2.323,2.345,2.345,0,0,0,2.315,2.338,2.344,2.344,0,0,0,2.345-2.336A2.347,2.347,0,0,0-47.676-129.264Z" transform="translate(59.307 145.544)" fill="#e5e5ef"/>
        <path id="Path_508-2" data-name="Path 508" d="M-28.983-144.478a3.488,3.488,0,0,1-3.452,3.489,3.5,3.5,0,0,1-3.527-3.478,3.5,3.5,0,0,1,3.5-3.5A3.485,3.485,0,0,1-28.983-144.478Zm-3.491-1.157a1.155,1.155,0,0,0-1.156,1.162,1.158,1.158,0,0,0,1.169,1.152,1.159,1.159,0,0,0,1.158-1.163A1.159,1.159,0,0,0-32.474-145.635Z" transform="translate(52.245 152.617)" fill="#e5e5ef"/>
        <path id="Path_509-2" data-name="Path 509" d="M-31.861-128.383a1.165,1.165,0,0,1,1.158-1.16,1.171,1.171,0,0,1,1.17,1.152,1.181,1.181,0,0,1-1.175,1.177A1.173,1.173,0,0,1-31.861-128.383Z" transform="translate(50.475 144.664)" fill="#e5e5ef"/>
        <path id="Path_510-2" data-name="Path 510" d="M-40.04-150.894a1.16,1.16,0,0,1,1.147-1.176,1.16,1.16,0,0,1,1.167,1.156,1.158,1.158,0,0,1-1.148,1.174A1.157,1.157,0,0,1-40.04-150.894Z" transform="translate(54.005 154.387)" fill="#e5e5ef"/>
        <path id="Path_511-2" data-name="Path 511" d="M-56.152-132.47a1.157,1.157,0,0,1-1.165,1.156,1.157,1.157,0,0,1-1.149-1.171,1.159,1.159,0,0,1,1.165-1.158A1.159,1.159,0,0,1-56.152-132.47Z" transform="translate(61.958 146.434)" fill="#e5e5ef"/>
      </g>
    </g>
    <g id="m5CoFg.tif-2" data-name="m5CoFg.tif" transform="translate(973.982 1101.244)">
      <g id="Group_363-2" data-name="Group 363">
        <path id="Path_505-2" data-name="Path 505" d="M-116.964-156.459a5.342,5.342,0,0,1,5.525,4.514,5.071,5.071,0,0,1-1.426,4.413c-1.454,1.493-2.916,2.981-4.425,4.417a5,5,0,0,1-5.288,1.2,5,5,0,0,1-3.543-4.1,5,5,0,0,1,1.409-4.56c1.432-1.474,2.895-2.919,4.357-4.363A5.022,5.022,0,0,1-116.964-156.459Zm1.38,9.534c.591-.585,1.211-1.153,1.779-1.77a3.573,3.573,0,0,0,.935-3.178,3.6,3.6,0,0,0-2.577-2.971,3.653,3.653,0,0,0-3.828.914c-.387.365-.754.752-1.132,1.127-.18.178-.364.351-.54.52Zm-6.437-4.263c-.509.51-1.035,1.024-1.547,1.55a3.656,3.656,0,0,0-1.061,3.3,3.6,3.6,0,0,0,2.37,2.912,3.561,3.561,0,0,0,3.722-.578c.678-.553,1.268-1.214,1.887-1.816Z" transform="translate(126.212 156.459)" fill="#e5e5ef" stroke="#e5e5ef" stroke-width="1"/>
      </g>
    </g>
  </g>
</svg>
