<svg xmlns="http://www.w3.org/2000/svg" width="342.811" height="358.462" viewBox="0 0 342.811 358.462">
  <g id="SWoI2k.tif" transform="matrix(0.809, 0.588, -0.588, 0.809, 725.395, 777.561)">
    <g id="Group_371" data-name="Group 371" transform="translate(-914.728 -296.529)">
      <path id="Path_533" data-name="Path 533" d="M-914.728-156.275c2.711-3.305,4.418-3.476,7.694-.687q42.5,36.183,85,72.38c2.779,2.365,2.769,2.377,5.166-.435,3.442-4.035,6.819-8.129,10.353-12.081,1.526-1.706,1.5-2.778-.316-4.3-9.607-8.075-19.117-16.27-28.659-24.423-.875-.746-1.771-1.469-2.611-2.251-2.057-1.914-2.334-4-.811-5.827s3.908-1.929,6.094-.086c4.933,4.161,9.822,8.373,14.729,12.562,3.157,2.694,6.318,5.384,9.683,8.253.795-.922,1.5-1.774,2.246-2.6,20.574-22.823,45.889-31.127,75.848-24.2,11.057,2.558,20.825.968,29.569-6.278,4.151-3.437,3.68-7.018-1.162-9.455q-24.246-12.206-48.5-24.4c-7.492-3.786-10.912-11.62-8.385-19.07a14.921,14.921,0,0,1,10.537-9.946c14.911-4.345,29.819-8.7,44.761-12.935,6.56-1.857,11.6-5.415,14.634-11.646.912-1.873.966-3.206-1.24-4.2a36.735,36.735,0,0,1-5.018-2.957,11.388,11.388,0,0,0-7.937-2.1c-5.474.593-10.807-3.105-12.919-8.334-.329-.815-.6-1.65-1.012-2.792-4.675.678-9.351,1.484-14.059,2.005-5.679.629-11.412,1.616-17.068,1.349-6.479-.306-11.708-3.911-15.349-9.292-3.911-5.785-9.134-8.2-16.045-7.653-15.945,1.259-31.91,2.287-47.853,3.6-3.421.282-5.878-.443-8.005-3.273-4.465-5.941-9.807-10.864-17.008-13.453a3.826,3.826,0,0,1-2.4-5.153,3.96,3.96,0,0,1,5.277-2.178A36.926,36.926,0,0,1-832.4-276.048c2.346,3.007,4.711,4.105,8.641,3.737,13.989-1.3,28.036-1.953,42.03-3.211,10.511-.945,18.816,2.136,24.927,11.081,3.411,4.995,8.583,6.87,14.636,5.985,8.913-1.3,17.856-2.445,26.718-4.032,2.87-.515,5.527-2.216,8.285-3.364,3.167-1.32,6.23-3.183,9.532-3.838a15.643,15.643,0,0,1,18.814,14.95,93.345,93.345,0,0,1-.855,17.184c-1.715,11.36-8.507,18.946-19.36,22.333-15.5,4.835-31.163,9.128-46.735,13.723-5.977,1.764-7.65,7.368-3.665,12.34,6.928-4.794,14.693-5.412,22.783-4.293,2.848.394,4.535,2.054,4.322,4.351-.23,2.46-2.276,3.939-5.234,3.547-4.49-.6-8.918-.727-13.656.93.871.552,1.407.958,2,1.256,10.407,5.242,20.8,10.517,31.264,15.638a4.865,4.865,0,0,0,3.822-.007c5.288-2.73,9.326-6.656,10.8-12.692a4.923,4.923,0,0,0,.293-1.816c-.275-1.68-.7-3.335-1.059-5a42.158,42.158,0,0,1-3.92,1.7,72.417,72.417,0,0,1-9.54,2.769,3.715,3.715,0,0,1-4.482-3.436c-.222-2.18,1.315-3.7,3.7-4.412a39.478,39.478,0,0,0,8.468-3.3c5.873-3.4,12.9-.614,14.282,6.031,2.044,9.845-2.009,17.369-9.227,23.627-.4.347-.841.647-1.256.976-.342.272-.676.554-1.1.9.508.345.94.632,1.363.927,6.925,4.829,7.805,14.124,1.631,19.95-10.134,9.559-22.2,13.052-35.713,9.644-21.774-5.493-41.739-2.113-59.722,11.364-4.672,3.5-8.615,7.978-13,12.106,1.468,1.429,2.5,2.264,3.328,3.27a9.153,9.153,0,0,1-.208,11.94q-6.251,7.563-12.723,14.94c-3.558,4.055-7.867,4.25-13.1,1.629-2.25,7.052-4.731,13.839-6.547,20.8-1.825,6.992-3.027,14.149-4.418,21.25-.718,3.661-3.084,5.441-5.795,4.135-2.1-1.01-2.492-2.786-2.162-4.9,2.369-15.134,5.713-30.013,12.021-44.057.919-2.046.583-2.986-1.033-4.356q-39.034-33.1-77.95-66.344c-1.261-1.077-2.352-2.352-3.522-3.535Zm227.652-89.089c.148-2.984.384-5.594.388-8.2.01-6.463-5.886-10.232-11.812-7.583-2.656,1.189-5.26,2.489-7.888,3.744-3,1.435-3.289,3.366-.5,5.27a7.25,7.25,0,0,0,4.421,1.147,15.067,15.067,0,0,1,9.374,2.082C-691.21-247.8-689.324-246.689-687.076-245.364Z" transform="translate(914.728 301.631)" fill="#e5e5ef"/>
      <path id="Path_534" data-name="Path 534" d="M-884.489-296.529c5.635,2.417,11.3,4.767,16.892,7.282,2.738,1.232,3.638,3.6,2.507,5.76-1.075,2.051-3.336,2.6-5.992,1.3-2.616-1.276-5.161-2.7-7.753-4.021a21.3,21.3,0,0,0-24.545,3.691c-2.318,2.263-2.589,5.182-.652,8.461q10.107,17.1,20.269,34.165c1.8,3.037,3.631,6.059,5.408,9.11a16.712,16.712,0,0,0,15.265,8.813c1.059.01,2.124-.018,3.177.075a3.667,3.667,0,0,1,3.7,3.747,3.692,3.692,0,0,1-3.656,4.055c-9.514.705-17.607-2.061-23.548-9.9-.469-.617-.92-1.246-1.61-2.183l-20.551,35.081c3.975,3.41,7.906,6.8,11.853,10.169q22.574,19.28,45.168,38.534c1.65,1.4,2.932,2.861,2.279,5.2-.815,2.911-4.156,3.633-6.821,1.385-6.551-5.526-13.052-11.109-19.57-16.674q-19.955-17.039-39.9-34.093a29.7,29.7,0,0,1-2.159-2.271v-2.652c.486-.727,1.008-1.432,1.45-2.185,7.492-12.8,14.935-25.621,22.509-38.37a3.568,3.568,0,0,0-.077-4.27q-10.222-17.025-20.285-34.147c-4.006-6.834-2.39-14.217,3.752-19.12a38.089,38.089,0,0,1,14.932-6.946Z" transform="translate(914.728 296.529)" fill="#e5e5ef"/>
      <path id="Path_535" data-name="Path 535" d="M-864.759-239.975c-9.291.64-16.078-3.566-20.676-12.075-4.526-8.372-9.564-16.467-14.16-24.8a6.184,6.184,0,0,1-.293-4.864c1.3-2.825,5.143-2.356,6.941.718,4.767,8.141,9.47,16.319,14.2,24.482.573.992,1.119,2,1.728,2.971a11.363,11.363,0,0,0,9.9,5.614c2.294.051,4.591-.042,6.883.033a4.007,4.007,0,0,1,4.19,3.88,4.047,4.047,0,0,1-4.068,4.029C-861.522-239.9-862.939-239.975-864.759-239.975Z" transform="translate(923.831 304.666)" fill="#e5e5ef"/>
      <path id="Path_536" data-name="Path 536" d="M-752.058-232.477c4.232,0,8.465-.037,12.7.011,3.046.034,4.871,1.634,4.791,4.058-.077,2.351-1.821,3.853-4.755,3.866q-12.695.064-25.391,0c-2.859-.016-4.658-1.631-4.672-3.962s1.751-3.916,4.635-3.955C-760.522-232.52-756.289-232.476-752.058-232.477Z" transform="translate(1006.158 336.813)" fill="#e5e5ef"/>
      <path id="Path_537" data-name="Path 537" d="M-745.306-244.223c-.515.611-1.219,2.09-2.382,2.714-5.2,2.794-10.511,5.4-15.833,7.96a3.9,3.9,0,0,1-5.43-1.688,3.852,3.852,0,0,1,1.931-5.345c5.247-2.712,10.525-5.371,15.857-7.916C-748.28-249.875-745.275-247.995-745.306-244.223Z" transform="translate(1006.154 326.461)" fill="#e5e5ef"/>
      <path id="Path_538" data-name="Path 538" d="M-765.424-220.522a16.133,16.133,0,0,1,2,.635c5.128,2.37,10.26,4.732,15.352,7.176,2.514,1.207,3.338,3.229,2.393,5.381s-3.113,2.939-5.588,1.828c-5.234-2.351-10.429-4.788-15.611-7.248-1.865-.886-3.064-2.514-2.274-4.493.567-1.419,2.043-2.475,3.113-3.693Z" transform="translate(1006.151 344.083)" fill="#e5e5ef"/>
      <path id="Path_539" data-name="Path 539" d="M-825.151-255.763c-3.051.051-8.644-7.5-7.724-10.433.818-2.6,4.322-3.779,6.213-1.805a33.336,33.336,0,0,1,4.988,6.8C-820.323-258.772-822.4-255.808-825.151-255.763Z" transform="translate(966.156 313.854)" fill="#e5e5ef"/>
    </g>
  </g>
</svg>
