<svg width="254" height="389" viewBox="0 0 254 389" fill="none" xmlns="http://www.w3.org/2000/svg">
<path d="M204.713 264.195C204.199 272.946 200.298 280.94 193.777 286.83L160.54 316.498C147.006 328.564 126.277 327.334 114.217 313.782L-33.6273 147.499C-35.9682 144.901 -35.7095 140.878 -33.1151 138.536L39.6723 73.7334C40.9344 72.5978 42.5522 72.0248 44.2445 72.1569C45.9369 72.289 47.4915 72.9863 48.6265 74.2502L196.47 240.462C202.288 246.993 205.226 255.444 204.713 264.195ZM152.097 306.948L185.335 277.28C193.329 270.111 194.098 256.914 187.004 248.838L43.3457 87.4012L-19.9748 143.828L123.613 305.265C131.061 313.551 143.823 314.33 152.097 306.948Z" fill="#F2F2F3"/>
<path d="M116.839 206.118C116.778 207.741 116.011 209.297 114.75 210.503L93.9231 229.028C91.3288 231.37 87.3098 231.109 84.9689 228.511L-7.61075 124.374C-9.95164 121.776 -9.69291 117.753 -7.09856 115.411L13.6574 96.8866C14.9195 95.7511 16.5373 95.178 18.2296 95.3101C19.922 95.4422 21.4766 96.1395 22.6116 97.4034L115.191 201.47C116.397 202.804 116.9 204.495 116.839 206.118ZM90.2493 215.29L101.539 205.211L17.4017 110.625L6.11212 120.703L90.2493 215.29Z" fill="#F2F2F3"/>
<path d="M33.5868 93.7069C33.4556 95.4009 32.7597 96.9568 31.4976 98.0923L-8.05204 133.297C-10.6464 135.64 -14.6655 135.379 -17.0064 132.781L-60.7788 83.485C-63.1197 80.887 -62.8609 76.864 -60.2666 74.5219L-20.7874 39.3172C-18.193 36.9751 -14.174 37.2359 -11.8331 39.8339L32.0098 89.1293C33.1448 90.3932 33.718 92.0129 33.5868 93.7069ZM-11.7259 119.559L18.2867 92.8006L-17.0431 53.0552L-47.0557 79.8137L-11.7259 119.559Z" fill="#F2F2F3"/>
<path d="M142.785 182.957C142.724 184.58 141.957 186.137 140.695 187.343L67.9059 252.218C65.3115 254.56 61.2923 254.299 58.9514 251.701C56.6104 249.103 56.8691 245.08 59.4636 242.738L132.253 177.863C134.848 175.521 138.867 175.781 141.208 178.38C142.343 179.644 142.916 181.334 142.785 182.957Z" fill="#F2F2F3"/>
<path d="M166.419 209.49C166.358 211.113 165.592 212.669 164.33 213.875L148.061 228.355C145.467 230.697 141.447 230.436 139.106 227.838C136.765 225.24 137.024 221.217 139.619 218.875L155.888 204.395C158.482 202.053 162.501 202.314 164.842 204.912C165.977 206.176 166.551 207.866 166.419 209.49Z" fill="#F2F2F3"/>
<path d="M189.118 234.97C189.057 236.593 188.291 238.149 187.029 239.355L161.012 262.494C158.418 264.837 154.399 264.576 152.058 261.978C149.717 259.38 149.976 255.357 152.57 253.015L178.587 229.875C181.181 227.533 185.2 227.794 187.541 230.392C188.676 231.656 189.179 233.347 189.118 234.97Z" fill="#F2F2F3"/>
<path d="M209.579 314.006C209.258 319.441 206.612 325.029 201.844 329.287C193.289 336.953 181.027 337.23 174.571 329.997L157.333 310.686C154.992 308.088 155.251 304.065 157.845 301.723L179.513 282.417C180.775 281.281 182.393 280.708 184.085 280.84C185.777 280.972 187.332 281.67 188.467 282.934L205.705 302.244C208.544 305.545 209.836 309.701 209.579 314.006ZM171.056 307.015L184.038 321.621C185.599 323.377 189.896 323.001 193.402 319.878C195.225 318.245 196.482 316.193 196.823 314.145C196.959 313.297 197.091 311.745 196.169 310.762L183.186 296.155L171.056 307.015Z" fill="#F2F2F3"/>
<path d="M253.946 381.13C253.885 382.753 253.119 384.31 251.857 385.516C249.263 387.858 245.244 387.597 242.903 384.999L192.89 328.823C190.549 326.225 190.808 322.202 193.402 319.86C195.997 317.518 200.015 317.779 202.356 320.377L252.369 376.553C253.504 377.887 254.007 379.507 253.946 381.13Z" fill="#F2F2F3"/>
</svg>
