<svg xmlns="http://www.w3.org/2000/svg" width="453.535" height="382.296" viewBox="0 0 453.535 382.296">
  <g id="c131o0.tif" transform="matrix(0.946, 0.326, -0.326, 0.946, -348.028, -240.448)" opacity="0.11">
    <g id="Group_267" data-name="Group 267" transform="translate(503.749 37.23)">
      <path id="Path_378" data-name="Path 378" d="M839.269,103.4c-1.31,6.062-2.224,12.244-4,18.166-6.386,21.278-18.331,39.406-32.785,55.969-17.156,19.66-36.556,36.777-60.06,48.409-19.263,9.532-17.775,9.888-36.456-.748-36.984-21.052-66.617-49.837-86.374-87.979-6.338-12.234-10.247-25.294-10.461-39.219-.468-30.272,18.59-53.6,48.348-59.3q3.861-.739,7.724-1.469H678.87a23.185,23.185,0,0,0,2.687.7c12.626,1.794,23.987,6.46,33.725,14.808,3.245,2.782,6.427,5.633,9.635,8.451,12.16-12.259,16.057-15.508,26.255-19.11,6.153-2.172,12.685-3.27,19.047-4.851h12.947c1.155.245,2.3.564,3.467.725,21.671,2.979,37.995,13.662,47.352,33.712,2.532,5.424,3.564,11.549,5.285,17.352Zm-30.945,47.755c9.565-14.557,16.884-30.063,19.109-47.749,3.187-25.33-11.982-47.34-36.8-53.044-24.366-5.6-50.36,3.871-61.13,25.16-2.389,4.723-7.65,4.479-10.732.1-2.882-4.1-5.547-8.5-9.089-11.964C694.91,49.2,677,46.044,657.448,50.505c-23.245,5.3-38.545,25.648-36.7,48.544a93.057,93.057,0,0,0,14.489,43.136c.548.86,1.241,1.628,1.914,2.5a12.1,12.1,0,0,0,3.859-9.492c-.225-10.9-.064-21.812-.089-32.719-.006-2.9.451-5.523,3.329-7.019,2.637-1.373,5.036-.484,6.97,1.249,7.173,6.425,15.573,8.334,24.892,7.182a1.439,1.439,0,0,1,.359,0c9.478,1.265,17.938-.838,25.208-7.32,1.961-1.748,4.414-2.473,6.986-1,2.487,1.425,3.127,3.745,3.118,6.423-.033,10.548.074,21.1-.075,31.64-.082,5.762-.4,11.661-3.887,16.546-4.508,6.308-4.477,12.208.091,18.459,3.447,4.715,4.14,10.2,3.945,16.029-.314,9.337-.125,18.695-.031,28.041.011,1.165.393,2.916,1.19,3.376,2.968,1.709,6.18,2.992,9.912,4.717v-4.521c0-9.828.5-19.686-.121-29.475-.833-13.237,1.144-25.738,7.411-37.433,2.487-4.643,1.6-9.549,1.909-14.4.457-7.177-6.674-6.26-9.9-9.492a7.028,7.028,0,0,0-1.539-.915c-4.263-2.456-4.982-4.01-4.187-8.788,1.159-6.968,2.357-13.929,3.392-20.915.763-5.16,3.544-8.262,8.438-10.108,11.322-4.269,22.811-6.987,35.036-5.836a56.662,56.662,0,0,0,11.492-.01c11.752-1.308,22.418,2.552,33.109,6.452a9.81,9.81,0,0,1,6.687,7.809c1.41,7.894,2.551,15.837,3.871,23.748.575,3.438-.731,5.75-3.745,7.366-3.376,1.808-6.717,3.692-9.968,5.714a4.1,4.1,0,0,0-1.951,2.592C802.624,139.255,801.69,146.181,808.324,151.159Zm-73.887,66.13A195.588,195.588,0,0,0,799.521,163.2a3.754,3.754,0,0,0-.017-3.356c-1.669-2.9-3.836-5.517-5.478-8.429-1.195-2.121-2.466-4.494-2.64-6.834-.392-5.245-.1-10.54-.129-15.814a6.958,6.958,0,0,1,3.986-6.685c3.17-1.688,6.353-3.385,9.337-5.369a4.205,4.205,0,0,0,1.61-3.277c-.585-5.112-1.357-10.215-2.409-15.248a5.165,5.165,0,0,0-2.852-3c-8.486-3.495-17.222-5.595-26.549-4.77a77.2,77.2,0,0,1-13.294,0c-9.556-.817-18.553,1.178-27.25,4.835a5.1,5.1,0,0,0-2.682,3.08c-1.058,4.911-1.892,9.885-2.46,14.875a4.657,4.657,0,0,0,1.8,3.593c2.961,2.011,6.177,3.656,9.33,5.376a7.043,7.043,0,0,1,3.822,6.394c.665,11.384-.117,22.46-5.806,32.711a22.581,22.581,0,0,0-2.018,4.983,28.792,28.792,0,0,0-1.327,6.947c-.147,9.588-.061,19.18-.061,28.77Zm-90.2-61.911a234.775,234.775,0,0,0,56.025,53.1c0-4.87-.339-8.945.065-12.945,1.151-11.363-1.071-21.828-7.47-31.345-2.178-3.24-1.965-6.345-.072-9.743,2.5-4.486,6.035-9.035,6.566-13.84,1.039-9.4.305-19,.305-29.041-5.565,5.578-12.565,4.027-19.064,3.689-9.318-.484-19.156,2.933-28.157-3.742,0,8.726-.176,16.849.07,24.959.136,4.514-.652,8.455-3.624,11.991A73.9,73.9,0,0,0,644.24,155.378Z" transform="translate(-482.448 -37.23)" fill="#2a2968"/>
      <path id="Path_379" data-name="Path 379" d="M578.611,297.581c-8.551-.707-16.657-.667-24.477-2.148-28.474-5.393-49.948-31.286-50.269-60.274-.213-19.3-.075-38.6-.051-57.9.013-11.215,7.224-18.36,18.479-18.414,1.315-.007,2.63,0,4.534,0,0-1.836-.058-3.573.012-5.3.153-3.855,2.224-6.062,6.009-6.168,4.073-.114,8.158-.167,12.226.022a17.23,17.23,0,0,1,.093,34.4c-3.706.2-7.432.083-11.147.059-5.161-.034-7.137-2.026-7.2-7.185-.014-1.3,0-2.594,0-4.274-2.237,0-4.251-.163-6.227.038-2.984.3-5.157,2.127-5.16,5.073-.017,21.45-1.215,43.021.638,64.319,2.182,25.066,21.066,43.076,46.02,45.133a263.411,263.411,0,0,0,47.019-.394c24.413-2.384,43.694-24.215,44.187-48.647.4-19.653.126-39.318.094-58.978-.007-4.436-2.2-6.484-6.7-6.581-1.427-.03-2.854,0-4.8,0,0,2.034.1,3.906-.022,5.763-.218,3.41-2.317,5.589-5.737,5.695-4.311.135-8.645.239-12.941-.05a17.228,17.228,0,0,1,.466-34.37c3.707-.177,7.43-.077,11.146-.047,5.1.04,7.048,2.06,7.1,7.281.012,1.287,0,2.575,0,4.235,2.324,0,4.33-.065,6.332.011,9.065.345,16.537,7.531,16.609,16.6.164,20.5.529,41.012-.1,61.493-1,32.425-28.759,59.261-61.187,59.938-4.3.09-8.61.012-13.215.012-.083,1.208-.213,2.235-.215,3.263-.014,10.191-.052,20.38,0,30.569.09,17.016,12.525,29.445,29.6,29.476q45.134.085,90.269,0c17.272-.029,29.669-12.436,29.715-29.728.058-21.938-.022-43.876.067-65.812.01-2.284-.7-3.24-2.841-4.094a22.942,22.942,0,0,1,8.657-44.244c11.174.035,20.285,7.707,22.508,18.954a22.7,22.7,0,0,1-13.976,25.225c-2.3.921-2.961,2-2.95,4.4.1,21.577.077,43.156.053,64.734-.029,24.729-17.361,42.067-42.079,42.086q-44.236.032-88.47,0c-24.72-.019-42.038-17.364-42.071-42.094C578.6,318.887,578.611,308.123,578.611,297.581Zm178.361-58.292a11.493,11.493,0,1,0-11.291,11.6A11.541,11.541,0,0,0,756.972,239.289ZM538.5,170.258c3.849-.091,8.124,1.421,10.334-2.824a7.273,7.273,0,0,0-.356-6.193c-2.437-3.749-6.459-2.178-9.978-2.271Zm91.685-.049V159.121c-7.712-.831-11.19.87-11.265,5.383C618.847,168.965,622.072,170.653,630.187,170.208Z" transform="translate(-503.749 -14.987)" fill="#2a2968"/>
      <path id="Path_380" data-name="Path 380" d="M558.8,237.406c-3.444,0-6.91.066-10.373-.018-4.04-.1-6.253-2.226-6.3-6.232q-.132-10.958,0-21.92c.046-4.181,2.266-6.246,6.563-6.342,3.352-.076,6.7-.081,10.056-.129.088,0,.174-.148.619-.549,0-3.108-.048-6.55.013-9.991.078-4.444,2.189-6.552,6.684-6.588q10.6-.083,21.2,0c4.453.038,6.54,2.178,6.613,6.659.057,3.346.012,6.692.012,10.586,3.554,0,6.971-.034,10.389.008,4.716.06,6.826,2.111,6.861,6.779q.078,10.421,0,20.842c-.031,4.729-2.1,6.8-6.756,6.889-3.233.059-6.465.061-9.7.1a4.49,4.49,0,0,0-.8.337c0,3.206.041,6.631-.011,10.054-.068,4.665-2.153,6.739-6.87,6.77q-10.421.069-20.842,0c-4.675-.035-6.718-2.14-6.8-6.847-.054-3.231-.067-6.464-.109-9.7C559.253,238.018,559.137,237.923,558.8,237.406Zm-5.119-11.5c3.529,0,6.736-.02,9.94,0,5.181.04,7.191,2.014,7.238,7.119.03,3.3.006,6.607.006,9.871h11.509c0-3.368-.016-6.47,0-9.57.032-5.414,1.966-7.382,7.3-7.42,3.291-.023,6.583,0,9.759,0V214.392c-3.4,0-6.607.019-9.813,0-5.18-.04-7.194-2.015-7.239-7.115-.031-3.3-.006-6.608-.006-10.142H570.867c0,3.634.016,6.736,0,9.837-.033,5.411-1.97,7.385-7.3,7.421-3.291.023-6.583,0-9.883,0Z" transform="translate(-496.004 -7.239)" fill="#2a2968"/>
      <path id="Path_381" data-name="Path 381" d="M714.333,208.376V193.07c0-9.59-.085-19.181.061-28.77a28.792,28.792,0,0,1,1.327-6.947,22.581,22.581,0,0,1,2.018-4.983c5.69-10.252,6.471-21.327,5.806-32.711a7.043,7.043,0,0,0-3.822-6.394c-3.153-1.72-6.369-3.365-9.33-5.376a4.657,4.657,0,0,1-1.8-3.593c.567-4.99,1.4-9.965,2.46-14.875a5.1,5.1,0,0,1,2.682-3.08c8.7-3.657,17.694-5.652,27.25-4.835a77.2,77.2,0,0,0,13.294,0c9.327-.825,18.063,1.275,26.549,4.77a5.165,5.165,0,0,1,2.852,3c1.052,5.033,1.824,10.136,2.409,15.248a4.205,4.205,0,0,1-1.61,3.277c-2.984,1.984-6.167,3.681-9.337,5.369a6.958,6.958,0,0,0-3.986,6.685c.026,5.274-.263,10.569.129,15.814.174,2.341,1.445,4.714,2.64,6.834,1.642,2.913,3.81,5.529,5.478,8.429a3.754,3.754,0,0,1,.017,3.356A195.588,195.588,0,0,1,714.333,208.376Zm34.219-91.494c-3.525-.044-5.64,1.578-5.768,4.426-.13,2.919,1.883,4.745,5.322,4.828,3.622.088,6-1.711,6.032-4.566C754.169,118.824,751.907,116.924,748.552,116.882Zm9.6-15.613c.179,2.639,1.457,4.3,4.19,4.359,2.618.059,4.3-1.146,4.431-3.98s-1.458-4.557-4.236-4.534C759.8,97.135,758.436,98.634,758.152,101.269ZM734.2,105.645c2.565-.257,4.3-1.477,4.373-4.229s-1.441-4.229-4.17-4.281c-2.692-.053-4.336,1.273-4.394,4.056C729.948,103.942,731.592,105.262,734.2,105.645Z" transform="translate(-462.344 -28.317)" fill="#d2ebf7"/>
      <path id="Path_382" data-name="Path 382" d="M638.335,142.887a73.9,73.9,0,0,1,4.644-6.917c2.973-3.537,3.76-7.477,3.624-11.991-.245-8.11-.07-16.233-.07-24.959,9,6.675,18.839,3.258,28.157,3.742,6.5.338,13.5,1.889,19.064-3.689,0,10.039.733,19.638-.305,29.041-.531,4.8-4.068,9.354-6.566,13.84-1.893,3.4-2.106,6.5.072,9.743,6.4,9.516,8.621,19.982,7.47,31.345-.4,4-.065,8.075-.065,12.945A234.775,234.775,0,0,1,638.335,142.887Zm25.311-27.444c-.163-2.684-1.456-4.3-4.206-4.363-2.7-.064-4.264,1.314-4.437,4.05a4.042,4.042,0,0,0,4.326,4.536C662.068,119.608,663.422,118.088,663.646,115.444Zm23.578.163c-.139-2.546-1.223-4.358-4.008-4.52-2.641-.155-4.359,1.016-4.6,3.823s1.36,4.692,4.046,4.76C685.407,119.741,686.808,118.253,687.224,115.607Z" transform="translate(-476.543 -24.74)" fill="#d2ebf7"/>
      <path id="Path_383" data-name="Path 383" d="M551.728,223.962V212.453c3.3,0,6.591.018,9.883,0,5.328-.036,7.266-2.01,7.3-7.421.019-3.1,0-6.2,0-9.837h11.509c0,3.534-.025,6.838.006,10.142.046,5.1,2.059,7.076,7.239,7.115,3.206.024,6.411,0,9.813,0v11.509c-3.176,0-6.468-.019-9.759,0-5.332.037-7.265,2.005-7.3,7.42-.018,3.1,0,6.2,0,9.57H568.913c0-3.264.024-6.568-.006-9.871-.047-5.105-2.057-7.079-7.238-7.119C558.464,223.942,555.257,223.962,551.728,223.962Z" transform="translate(-494.05 -5.3)" fill="#d2ebf7"/>
      <path id="Path_384" data-name="Path 384" d="M742.8,110.9c3.355.042,5.618,1.941,5.586,4.688-.034,2.855-2.41,4.653-6.032,4.566-3.439-.083-5.452-1.909-5.322-4.828C737.16,112.482,739.276,110.859,742.8,110.9Z" transform="translate(-456.594 -22.338)" fill="#2a2968"/>
      <path id="Path_385" data-name="Path 385" d="M749.816,98.614c.284-2.635,1.649-4.134,4.384-4.156,2.778-.023,4.363,1.7,4.236,4.534s-1.813,4.039-4.431,3.98C751.273,102.911,750,101.253,749.816,98.614Z" transform="translate(-454.009 -25.662)" fill="#2a2968"/>
      <path id="Path_386" data-name="Path 386" d="M730.594,102.986c-2.605-.382-4.248-1.7-4.191-4.454.058-2.783,1.7-4.109,4.394-4.056,2.729.052,4.24,1.538,4.17,4.281S733.159,102.729,730.594,102.986Z" transform="translate(-458.741 -25.658)" fill="#2a2968"/>
      <path id="Path_387" data-name="Path 387" d="M660.845,113.416c-.224,2.645-1.578,4.164-4.317,4.223A4.042,4.042,0,0,1,652.2,113.1c.173-2.736,1.739-4.114,4.437-4.05C659.39,109.119,660.682,110.732,660.845,113.416Z" transform="translate(-473.743 -22.712)" fill="#2a2968"/>
      <path id="Path_388" data-name="Path 388" d="M680.455,113.58c-.416,2.646-1.816,4.134-4.563,4.063-2.687-.069-4.289-1.956-4.046-4.76s1.961-3.978,4.6-3.823C679.232,109.223,680.315,111.034,680.455,113.58Z" transform="translate(-469.775 -22.713)" fill="#2a2968"/>
    </g>
  </g>
</svg>
