<svg width="291" height="318" viewBox="0 0 291 318" fill="none" xmlns="http://www.w3.org/2000/svg">
<path d="M100.475 293.93L54.8005 270.053C42.8663 263.818 38.2599 249.038 44.4927 237.096L74.3279 180L65.2404 175.257C62.941 174.035 62.0313 171.184 63.253 168.883C64.4746 166.582 67.3239 165.672 69.6233 166.894L82.8897 173.829C85.189 175.051 86.0987 177.902 84.8771 180.202L52.8505 241.48C48.9973 248.812 51.8567 257.836 59.1834 261.69L104.858 285.568C112.185 289.422 121.205 286.559 125.058 279.228L157.085 217.95C158.306 215.649 161.156 214.739 163.455 215.961L224.695 247.995C232.022 251.85 241.042 248.987 244.895 241.656L268.767 195.953C272.62 188.622 269.761 179.598 262.434 175.744L201.193 143.709C198.894 142.487 197.984 139.636 199.206 137.336L216.396 104.487C217.618 102.186 220.467 101.276 222.766 102.498C225.066 103.72 225.975 106.57 224.754 108.871L209.755 137.538L266.817 167.381C278.751 173.615 283.357 188.396 277.124 200.337L253.253 246.04C247.02 257.982 232.247 262.593 220.313 256.358L163.251 226.516L133.416 283.612C127.192 295.49 112.41 300.165 100.475 293.93Z" fill="#F2F2F3"/>
<path d="M41.9914 163.002L17.2745 150.093C5.34032 143.859 0.733952 129.078 6.96674 117.137L30.8383 71.4339C37.0711 59.4924 51.8445 54.8814 63.7787 61.1158L120.84 90.9584L150.676 33.8618C156.908 21.9203 171.682 17.3093 183.616 23.5436L229.291 47.4212C241.225 53.6555 245.831 68.4361 239.599 80.3776L235.207 88.8041C233.985 91.1049 231.136 92.0155 228.837 90.7935C226.537 89.5716 225.628 86.7209 226.849 84.4201L231.241 75.9935C235.094 68.6623 232.235 59.6381 224.908 55.784L179.233 31.9064C171.906 28.0523 162.886 30.9146 159.033 38.2458L127.007 99.5238C125.785 101.825 122.936 102.735 120.636 101.513L59.4681 69.4235C52.1414 65.5694 43.1216 68.4316 39.2684 75.7629L15.3968 121.466C11.5437 128.797 14.4031 137.821 21.7298 141.675L46.4467 154.584C48.7461 155.806 49.6557 158.657 48.4341 160.957C47.14 163.313 44.2994 164.16 41.9914 163.002Z" fill="#F2F2F3"/>
<path d="M60.6169 142.49C60.4345 142.4 60.252 142.31 60.0782 142.157C58.4246 140.958 57.6743 138.843 58.2705 136.846L65.7612 112.806L56.7967 117.169C55.4735 117.832 53.8547 117.807 52.5225 117.106L35.8072 108.338C33.5078 107.116 32.5981 104.265 33.8198 101.965C35.0414 99.6638 37.8907 98.7532 40.1901 99.9752L54.7885 107.611L71.4668 99.4938C73.1346 98.6821 75.1733 98.9596 76.6358 100.133C78.0896 101.369 78.6024 103.322 78.0322 105.127L71.6993 125.43L88.067 112.921C89.7319 111.654 91.9413 111.63 93.6036 112.766C95.266 113.901 96.0076 116.079 95.42 118.012L92.5893 127.365L122.151 142.816C124.451 144.038 125.36 146.889 124.139 149.19C122.917 151.491 120.068 152.401 117.768 151.179L84.7574 133.895C82.9966 133.006 82.0292 131.057 82.2895 129.144L65.6322 141.874C64.2222 143.175 62.2502 143.361 60.6169 142.49Z" fill="#F2F2F3"/>
<path d="M201.867 216.451C200.233 215.579 199.231 213.885 199.355 212.019L200.328 191.051C198.854 192.343 196.746 192.576 194.986 191.687L161.126 173.963C158.827 172.741 157.917 169.89 159.139 167.589C160.36 165.288 163.21 164.378 165.509 165.6L195.919 181.491L202.017 173.881C203.27 172.299 205.431 171.684 207.345 172.399C209.259 173.114 210.499 174.971 210.412 177.037L209.491 197.622L222.548 180.831C223.721 179.368 225.635 178.655 227.448 179.161C229.261 179.668 230.616 181.151 230.946 183.013L233.767 201.381L248.365 209.017C250.664 210.239 251.574 213.09 250.352 215.391C249.131 217.691 246.282 218.602 243.982 217.38L227.267 208.612C225.935 207.911 225.008 206.616 224.816 205.162L223.306 195.283L207.878 215.192C206.616 216.838 204.456 217.452 202.541 216.737C202.231 216.63 202.049 216.541 201.867 216.451Z" fill="#F2F2F3"/>
<path d="M129.307 183.199C128.704 182.858 128.119 182.389 127.679 181.809C116.065 166.075 115.302 153.57 116.751 145.782C116.977 144.125 117.483 142.311 118.236 140.595C118.612 139.738 118.89 139.126 118.963 139.071C124.055 129.312 135.704 125.249 144.91 130.073C148.423 131.915 151.142 134.817 152.802 138.354C156.653 137.71 160.594 138.312 164.107 140.153C173.25 144.969 176.564 156.847 171.463 166.67C171.463 166.67 171.185 167.281 170.609 168.177C169.691 169.675 168.528 171.075 167.19 172.321C161.625 177.926 150.883 184.384 131.429 183.813C130.601 183.7 129.909 183.541 129.307 183.199ZM140.463 138.428C135.92 136.056 129.96 138.361 127.239 143.574C127.15 143.757 127.06 143.939 126.88 144.304C126.414 145.345 126.148 146.347 126.009 147.367C125.158 152.185 125.111 161.593 133.886 174.344C149.335 174.305 157.083 168.867 160.39 165.552C161.284 164.7 161.907 163.94 162.483 163.045C162.726 162.689 162.825 162.442 162.897 162.387C165.699 157.055 164.204 150.879 159.597 148.499C157.17 147.259 154.315 147.26 151.613 148.515C150.299 149.116 148.744 149.099 147.412 148.398C146.079 147.697 145.208 146.475 144.953 145.012C144.506 142.094 142.89 139.667 140.463 138.428Z" fill="#F2F2F3"/>
</svg>
