<svg xmlns="http://www.w3.org/2000/svg" width="119.59" height="119.022" viewBox="0 0 119.59 119.022">
  <g id="Deas3H.tif" transform="matrix(0.985, -0.174, 0.174, 0.985, 0, 17.944)">
    <g id="Group_370" data-name="Group 370" transform="translate(0 0)">
      <path id="Path_527" data-name="Path 527" d="M49.369,0l4.436.005c3.115,1.237,3.834,2.315,3.838,5.753,0,.89,0,1.779,0,2.736,1.307,0,2.479,0,3.652.005a4.545,4.545,0,0,1,3.81,1.7,1.48,1.48,0,0,0,1.342.634q8.265-.023,16.53.012a12,12,0,0,1,11.039,6.485c2.811,4.977,5.579,9.979,8.343,14.983,2.27,4.109-.185,8.258-4.885,8.292-.69,0-1.38,0-2.077,0l.051,44.852c.88,0,1.682-.032,2.481.009a5.545,5.545,0,0,1,5.372,5.45q.063,3.154.007,6.31a5.408,5.408,0,0,1-3.911,5.142,8.921,8.921,0,0,1-2.386.272q-45.306-.032-90.613-.092c-.3,0-.6,0-.907-.012A5.641,5.641,0,0,1,.341,98.691c-.086-.25-.178-.5-.268-.747L.064,89.928c1.136-4.016,4.164-4.936,7.858-4.562L7.87,40.482c-.97,0-1.871.029-2.769-.009A5.125,5.125,0,0,1,.7,37.738a15.93,15.93,0,0,1-.7-1.52l0-2c.325-.727.6-1.479.986-2.175,2.637-4.8,5.32-9.568,7.941-14.371a12.363,12.363,0,0,1,11.786-6.914c5.342.054,10.686.03,16.029.012a1.594,1.594,0,0,0,1.119-.392,4.984,4.984,0,0,1,4.232-1.9c1.127.016,2.254.005,3.453.006,0-.474,0-.8,0-1.131,0-.935-.029-1.871,0-2.805C45.634,2.052,47.121.705,49.369,0ZM37.055,13.842c-.433-.022-.759-.051-1.085-.052-5.209-.009-10.418-.006-15.627-.023a9.17,9.17,0,0,0-8.6,5.074c-2.7,4.876-5.321,9.8-8.141,14.6-1.25,2.131-.031,4.143,2.414,4.091,5.912-.126,11.829-.032,17.743-.019a5.3,5.3,0,0,1,1.2.09,1.355,1.355,0,0,1,1.123,1.55,1.34,1.34,0,0,1-1.265,1.329,7.594,7.594,0,0,1-1.006.032c-3.9,0-7.8.023-11.7-.034-.945-.014-1.166.272-1.163,1.177q.065,21.291.069,42.582c0,.35.033.7.051,1.035l30,.034c0-.463,0-.859,0-1.255,0-4.041-.017-8.082-.012-12.124.005-4.406,2.732-7.135,7.144-7.151q3.428-.012,6.856.007c4.486.021,7.211,2.734,7.226,7.2.014,4.075.011,8.149.016,12.224V85.4h1.184q4.133,0,8.267.01c1.6,0,2.351.511,2.318,1.568-.03,1.008-.724,1.439-2.313,1.437l-65.03-.074c-.336,0-.673-.012-1.008.005a2.543,2.543,0,0,0-2.62,2.7q-.031,2.905.008,5.811a2.558,2.558,0,0,0,2.655,2.674c.235.011.47,0,.705.005l90.437.1c.2,0,.4,0,.6,0a2.591,2.591,0,0,0,2.788-2.841c.012-1.7,0-3.406,0-5.11,0-2.348-.91-3.237-3.309-3.24q-8.772-.013-17.543-.02c-.3,0-.607.017-.907-.012a1.482,1.482,0,0,1-.2-2.935,4.307,4.307,0,0,1,1-.057q5.9,0,11.8.011h1.123L92.2,40.6H90.9l-59.182-.068a11.285,11.285,0,0,1-1.208-.03,1.467,1.467,0,0,1-.15-2.9,6.606,6.606,0,0,1,1.3-.075c21.845.022,43.689.016,65.534.115,2.429.011,3.764-1.864,2.433-4.13-2.793-4.757-5.414-9.615-8.073-14.45a9.361,9.361,0,0,0-8.842-5.229c-5.141.027-10.284,0-15.425-.007-.354,0-.708.03-1.129.05,0,.634,0,1.164,0,1.694-.012,3.157-1.817,4.943-5.007,4.952-1.133,0-2.268,0-3.492,0,0,1.381.019,2.643,0,3.9a4.441,4.441,0,0,1-4.008,4.509,23.915,23.915,0,0,1-3.32.071,4.588,4.588,0,0,1-4.767-4.847c-.007-1.188,0-2.376,0-3.662-1.472,0-2.813.041-4.149-.014a4.452,4.452,0,0,1-4.351-4.393C37.038,15.36,37.056,14.633,37.055,13.842ZM59.232,85.366c.017-.378.04-.641.04-.9,0-4.208,0-8.417-.017-12.625-.011-2.611-1.437-4.022-4.063-4.039-2.319-.015-4.638-.014-6.957-.009-2.758.006-4.153,1.39-4.154,4.132q0,6.212.012,12.424c0,.323,0,.647,0,1ZM48.587,21.742c0,.8-.008,1.6,0,2.4.02,1.27.56,1.818,1.849,1.854.805.023,1.613.027,2.417,0a1.593,1.593,0,0,0,1.778-1.815c.014-1.468,0-2.937,0-4.405,0-1.864.412-2.267,2.326-2.268,1.511,0,3.023.023,4.533-.006a1.476,1.476,0,0,0,1.631-1.612c.025-.833.014-1.669,0-2.5-.019-1.341-.537-1.862-1.909-1.882-1.477-.021-2.955-.005-4.433-.011-1.721-.007-2.159-.436-2.163-2.112,0-1.5.006-3-.01-4.506-.013-1.263-.575-1.821-1.85-1.85-.806-.018-1.613-.023-2.418,0a1.594,1.594,0,0,0-1.775,1.813c-.013,1.569.005,3.137,0,4.706,0,1.429-.5,1.926-1.926,1.936-1.612.011-3.224-.024-4.836.01a1.54,1.54,0,0,0-1.732,1.74c-.017.767-.008,1.535,0,2.3.014,1.479.491,1.946,2.011,1.956s3.023-.008,4.533.012c1.439.018,1.946.531,1.961,1.936C48.59,20.207,48.585,20.975,48.587,21.742Z" fill="#e5e5ef"/>
      <path id="Path_528" data-name="Path 528" d="M15.145,7.551c0,1.067.031,2.135,0,3.2a4.313,4.313,0,0,1-4.191,4.277c-2.144.078-4.294.066-6.44.01A4.4,4.4,0,0,1,.056,10.664C-.017,8.6-.017,6.528.047,4.463A4.4,4.4,0,0,1,4.464.053c2.077-.074,4.162-.07,6.239,0A4.42,4.42,0,0,1,15.146,4.65c.016.967,0,1.934.006,2.9Zm-7.587,4.5c.974,0,1.95.025,2.923,0,1.15-.032,1.635-.525,1.645-1.681q.024-2.8-.006-5.61c-.012-1.155-.5-1.684-1.64-1.706Q7.606,3,4.733,3.048A1.473,1.473,0,0,0,3.067,4.643q-.052,2.9.007,5.81c.021,1.061.568,1.558,1.661,1.592C5.675,12.074,6.617,12.053,7.557,12.055Z" transform="translate(67.792 45.155)" fill="#e5e5ef"/>
      <path id="Path_529" data-name="Path 529" d="M7.5.006c1.006,0,2.014-.008,3.02.005a4.424,4.424,0,0,1,4.58,4.353c.083,2.1.088,4.2.007,6.3a4.44,4.44,0,0,1-4.583,4.356q-2.969.042-5.94-.007A4.457,4.457,0,0,1,.022,10.436q-.04-2.951-.006-5.9A4.384,4.384,0,0,1,4.585,0C5.558-.006,6.532,0,7.5.006ZM3.04,7.437c0,1-.019,2,.01,3A1.434,1.434,0,0,0,4.615,12c1.943.037,3.887.036,5.83.01a1.482,1.482,0,0,0,1.655-1.6q.05-2.9-.007-5.794a1.448,1.448,0,0,0-1.641-1.595q-2.865-.031-5.73-.008c-1.157.007-1.656.495-1.68,1.627C3.02,5.572,3.038,6.5,3.04,7.437Z" transform="translate(20.36 65.279)" fill="#e5e5ef"/>
      <path id="Path_530" data-name="Path 530" d="M7.623,15.053c-1.074,0-2.149.034-3.22-.011A4.378,4.378,0,0,1,.028,10.609c-.037-2-.033-4-.011-6A4.367,4.367,0,0,1,4.372.059c2.11-.083,4.23-.078,6.34.007a4.423,4.423,0,0,1,4.4,4.446q.1,3.049.008,6.1a4.422,4.422,0,0,1-4.48,4.444c-1.005.035-2.013,0-3.019,0Zm-4.581-7.5c0,.968-.017,1.937.008,2.905.028,1.043.5,1.566,1.534,1.585,1.982.038,3.965.024,5.947.015a1.409,1.409,0,0,0,1.56-1.476c.047-2,.036-4.007,0-6.01a1.4,1.4,0,0,0-1.453-1.494Q7.561,3,4.486,3.068c-.961.023-1.418.58-1.442,1.576C3.02,5.611,3.04,6.58,3.041,7.549Z" transform="translate(20.336 45.098)" fill="#e5e5ef"/>
      <path id="Path_531" data-name="Path 531" d="M7.646.006c.973,0,1.946-.008,2.919.005a4.4,4.4,0,0,1,4.57,4.445q.057,3.05.008,6.1a4.387,4.387,0,0,1-4.359,4.451q-3.167.1-6.341-.007A4.448,4.448,0,0,1,.048,10.544q-.093-3.049-.008-6.1A4.419,4.419,0,0,1,4.626,0C5.632-.006,6.639.005,7.646.006Zm4.479,7.64q0-1.4,0-2.806c0-.033,0-.067,0-.1-.034-1.214-.51-1.711-1.709-1.721q-2.822-.025-5.646-.006c-1.145.008-1.688.507-1.7,1.636q-.044,2.855.007,5.711A1.487,1.487,0,0,0,4.695,12q2.923.051,5.848.005c1.057-.017,1.557-.574,1.58-1.658C12.141,9.45,12.124,8.548,12.125,7.646Z" transform="translate(67.818 65.333)" fill="#e5e5ef"/>
      <path id="Path_532" data-name="Path 532" d="M7.52,15.038c-1.106,0-2.217.048-3.32-.014A4.249,4.249,0,0,1,.1,11.083a69.8,69.8,0,0,1-.017-7A4.269,4.269,0,0,1,4.413.057c2.11-.075,4.229-.079,6.339.01a4.36,4.36,0,0,1,4.354,4.366c.076,2.065.074,4.135.013,6.2a4.362,4.362,0,0,1-4.479,4.423c-1.039.034-2.08,0-3.12,0ZM12.1,7.6h.008l0-2.6c0-.067,0-.134,0-.2-.054-1.215-.526-1.725-1.726-1.744q-2.822-.044-5.644-.005c-1.157.017-1.668.519-1.685,1.664q-.044,2.853.007,5.708a1.428,1.428,0,0,0,1.613,1.622q2.922.048,5.845,0A1.4,1.4,0,0,0,12.1,10.5C12.138,9.538,12.1,8.569,12.1,7.6Z" transform="translate(44.069 45.127)" fill="#e5e5ef"/>
    </g>
  </g>
</svg>
