<svg width="560" height="150" viewBox="0 0 560 150" fill="none" xmlns="http://www.w3.org/2000/svg">
<g clip-path="url(#clip0_1085_27480)">
<path d="M99.3422 137.967H57.2783C55.2966 137.967 54.2737 136.948 54.2737 134.974C54.2737 133.001 55.2966 131.982 57.2783 131.982H74.4107V125.106H62.7121C60.7304 125.106 59.7714 124.151 59.7714 122.177C59.7714 120.267 60.7304 119.312 62.7121 119.312H74.4107V112.818H66.292C65.2052 112.818 64.2463 112.5 63.6071 111.8C62.9039 111.099 62.5842 110.208 62.5842 109.126V107.98C60.5386 109.317 59.0683 110.208 58.2372 110.717C57.2783 111.29 56.4472 111.481 55.744 111.354C55.0409 111.227 54.3377 110.717 53.6984 109.826C52.8673 108.68 52.5477 107.725 52.7395 107.025C52.9313 106.324 53.6984 105.688 55.0409 105.051C60.4107 102.25 65.397 98.7479 69.9358 94.4185H65.5888C63.4792 94.4185 62.3925 93.3998 62.3925 91.2988C62.3925 89.1978 63.4792 88.1154 65.5888 88.1154H79.2692C80.8673 88.1154 82.0819 88.6884 82.913 89.8981C85.0865 92.6995 87.7075 95.3098 90.776 97.7928C93.8445 100.276 97.1048 102.313 100.493 104.032C103.561 105.369 104.265 107.216 102.539 109.508C101.26 111.29 99.534 111.672 97.3605 110.59C97.0409 110.399 95.6984 109.635 93.4609 108.234V110.717C93.4609 112.182 92.7577 112.882 91.3514 112.882H81.3788V119.376H93.3331C95.3148 119.376 96.2737 120.331 96.2737 122.241C96.2737 124.215 95.3148 125.17 93.3331 125.17H81.4427V132.046H99.4062C101.388 132.046 102.411 133.064 102.411 135.038C102.347 136.948 101.324 137.967 99.3422 137.967ZM64.1185 106.834H91.6071C86.3011 103.014 81.7623 98.8752 77.9906 94.4185C74.3468 98.6842 69.7441 102.823 64.1185 106.834Z" fill="#2A2968"/>
<path d="M157.26 101.868H133.224C133.032 105.178 132.776 107.661 132.585 109.253H150.612C151.891 109.253 152.785 109.762 153.361 110.781C153.936 111.8 154.128 113.582 153.936 116.193C153.425 122.559 152.849 127.334 152.21 130.327C151.571 133.383 150.74 135.42 149.717 136.566C148.375 138.094 146.329 138.922 143.644 139.177C142.557 139.304 140.639 139.368 138.018 139.304C135.333 139.24 133.735 138.094 133.224 135.866V135.739L133.16 135.611C132.649 134.656 132.649 133.892 133.032 133.447C133.416 132.937 134.311 132.746 135.653 132.81C137.187 132.874 139.041 132.937 141.087 132.937C142.365 132.937 143.26 132.683 143.772 132.237C145.242 131.027 146.329 125.488 147.032 115.683H131.562C129.388 125.488 124.594 132.81 117.306 137.649C114.813 139.113 112.767 138.986 111.297 137.33C109.571 135.293 110.466 133.256 113.854 131.155C116.283 129.372 118.329 127.398 119.927 125.106C121.525 122.878 122.74 120.331 123.507 117.53C124.274 114.728 124.785 112.245 125.105 110.081C125.361 107.916 125.617 105.178 125.808 101.868H112.959C110.785 101.868 109.699 100.785 109.699 98.6206C109.699 96.4559 110.785 95.3735 112.959 95.3735H131.306V89.5798C131.306 87.3515 132.457 86.2054 134.822 86.2054C137.059 86.2054 138.21 87.3515 138.21 89.5798V95.3735H157.26C159.434 95.3735 160.521 96.4559 160.521 98.6206C160.585 100.785 159.498 101.868 157.26 101.868Z" fill="#2A2968"/>
<path d="M179.315 99.5119V136.057C179.315 138.158 178.228 139.24 176.055 139.24C173.945 139.24 172.858 138.158 172.858 136.057V109.189C172.73 109.38 172.475 109.635 172.219 110.017C171.899 110.399 171.708 110.717 171.58 110.908C170.493 112.182 169.47 112.755 168.639 112.691C167.808 112.627 166.977 111.863 166.274 110.463C165.251 108.489 165.507 106.77 167.041 105.178C171.068 100.785 174.393 95.6282 177.141 89.5798C177.972 87.4788 179.379 86.7785 181.361 87.4788C183.534 88.1791 184.173 89.5798 183.278 91.6172C182.192 94.3549 180.849 96.9652 179.315 99.5119ZM215.562 137.012H185.516C183.406 137.012 182.32 135.93 182.32 133.829C182.32 131.664 183.406 130.582 185.516 130.582H200.858C203.032 123.769 204.694 116.511 205.845 108.871C206.164 106.452 207.571 105.433 209.936 105.815C212.365 106.197 213.324 107.661 212.813 110.208C211.151 117.784 209.361 124.597 207.315 130.645H215.625C217.735 130.645 218.822 131.728 218.822 133.892C218.694 135.993 217.671 137.012 215.562 137.012ZM214.347 103.014H186.667C184.493 103.014 183.406 101.931 183.406 99.7666C183.406 97.6656 184.493 96.5832 186.667 96.5832H196.703V90.4075C196.703 88.1791 197.854 87.0968 200.091 87.0968C202.329 87.0968 203.479 88.1791 203.479 90.4075V96.5832H214.411C216.584 96.5832 217.671 97.6656 217.671 99.7666C217.607 101.931 216.52 103.014 214.347 103.014ZM190.502 125.488C189.927 120.076 189.096 114.792 188.009 109.699C187.562 107.661 188.393 106.452 190.438 106.07C192.42 105.751 193.635 106.515 194.082 108.425C195.616 114.41 196.639 119.885 197.151 124.915C197.214 125.934 197.087 126.634 196.639 127.08C196.256 127.525 195.488 127.844 194.402 128.098C193.123 128.353 192.164 128.289 191.525 127.907C190.822 127.525 190.502 126.698 190.502 125.488Z" fill="#2A2968"/>
<path d="M258.201 95.1189H270.411C271.626 95.1189 272.521 95.6282 273.16 96.7106C273.735 97.7929 273.991 99.7029 273.927 102.504C273.607 114.028 273.16 122.05 272.713 126.698C272.201 131.346 271.498 134.274 270.411 135.611C269.324 137.139 268.046 138.094 266.639 138.413C265.233 138.795 262.996 138.986 259.927 138.986C258.713 138.922 257.754 138.604 256.923 138.031C256.155 137.394 255.644 136.566 255.452 135.548C255.452 135.484 255.452 135.484 255.388 135.357C254.877 134.402 254.877 133.638 255.324 133.192C255.772 132.683 256.603 132.492 257.945 132.555C259.224 132.619 260.694 132.619 262.356 132.619C263.379 132.619 264.146 132.301 264.786 131.664C265.553 130.773 266.192 128.226 266.639 124.087C267.087 119.885 267.47 113.2 267.726 103.905C267.79 102.886 267.662 102.186 267.471 101.804C267.279 101.422 266.895 101.295 266.384 101.295H255.708C255.197 102.568 254.174 104.478 252.767 107.088C252.192 107.98 251.425 108.489 250.466 108.68C249.507 108.871 248.548 108.616 247.589 107.916C247.461 107.789 247.206 107.661 246.95 107.47C246.694 107.279 246.502 107.152 246.311 107.025V129.881C246.311 130.964 245.991 131.919 245.288 132.555C244.585 133.256 243.69 133.574 242.603 133.574H228.859C227.772 133.574 226.877 133.256 226.174 132.555C225.534 131.855 225.151 130.964 225.151 129.881V99.1936C225.151 98.1112 225.47 97.2199 226.174 96.5196C226.813 95.8829 227.708 95.5009 228.859 95.5009H231.607C231.991 93.9729 232.375 92.1265 232.758 89.9618C232.95 88.6885 233.334 87.8608 233.973 87.3515C234.612 86.8421 235.507 86.7148 236.786 86.8421C239.279 87.2241 240.11 88.7522 239.151 91.3625C238.895 92.1265 238.384 93.5272 237.617 95.4372H242.603C243.69 95.4372 244.649 95.7555 245.288 96.4559C245.991 97.0926 246.311 97.9839 246.311 99.1299V104.605C248.996 100.785 251.233 95.7555 253.087 89.5798C253.662 87.4788 255.005 86.6511 257.114 87.0968C259.224 87.6061 259.991 88.8795 259.48 90.9805C259.224 92.1265 258.776 93.4635 258.201 95.1189ZM231.288 110.654H240.302V102.823C240.302 101.868 239.854 101.422 238.959 101.422H232.694C231.735 101.422 231.288 101.868 231.288 102.823V110.654ZM240.302 116.447H231.288V126.252C231.288 127.143 231.735 127.589 232.694 127.589H238.959C239.854 127.589 240.302 127.143 240.302 126.252V116.447ZM257.562 121.604C256.028 118.994 254.493 116.447 252.895 113.964C251.808 112.245 252.192 110.845 253.982 109.89C255.708 108.998 257.05 109.253 258.073 110.654C259.863 113.137 261.589 115.874 263.379 118.676C264.338 120.267 263.891 121.604 262.037 122.687C260.055 123.96 258.521 123.642 257.562 121.604Z" fill="#2A2968"/>
<path d="M322.32 138.604H309.918C305.763 138.604 302.95 137.903 301.48 136.439C300.009 134.975 299.242 132.301 299.242 128.289V124.278L285.05 126.061C282.877 126.379 281.662 125.424 281.343 123.26C281.087 121.095 282.046 119.885 284.155 119.567L299.178 117.657V111.418L286.84 113.073C284.731 113.391 283.516 112.436 283.133 110.335C282.813 108.107 283.708 106.834 285.945 106.579L299.114 104.86V98.6205C294.895 99.3846 290.612 100.085 286.329 100.594C284.283 100.849 282.941 100.085 282.366 98.3659C281.598 96.1375 282.557 94.8642 285.306 94.4822C298.731 92.5085 309.471 90.0891 317.589 87.2241C318.548 86.9058 319.315 86.9058 319.891 87.0968C320.466 87.2878 321.105 87.7971 321.808 88.4975C324.174 90.8531 323.918 92.5085 320.913 93.4635C316.758 94.8005 311.836 96.0102 306.082 97.1562V103.841L323.151 101.486C325.261 101.231 326.411 102.122 326.795 104.223C327.114 106.388 326.219 107.598 324.11 107.916L306.082 110.399V116.766L326.795 114.028C328.904 113.773 330.055 114.665 330.375 116.829C330.694 118.994 329.735 120.204 327.626 120.458L306.082 123.26V128.226C306.082 129.817 306.338 130.836 306.85 131.218C307.361 131.664 308.512 131.855 310.366 131.855H321.617C323.087 131.855 324.11 131.473 324.685 130.772C325.005 128.99 325.644 127.589 326.475 126.634C327.37 125.679 328.457 125.488 329.799 126.061C330.694 126.443 331.334 127.207 331.589 128.353C331.845 129.499 331.845 130.709 331.653 131.982C331.014 134.402 329.991 136.057 328.585 137.076C327.306 138.094 325.197 138.604 322.32 138.604Z" fill="#2A2968"/>
<path d="M341.498 89.5798H356.585C357.799 89.5798 358.63 89.9618 359.206 90.6621C359.781 91.3625 359.973 92.3811 359.717 93.6545C359.653 93.7182 359.653 93.7818 359.525 93.8455H369.945V89.6435C369.945 87.4788 371.032 86.3964 373.27 86.3964C375.507 86.3964 376.594 87.4788 376.594 89.6435V93.8455H385.799C387.845 93.8455 388.868 94.8642 388.868 96.9015C388.868 98.9389 387.845 99.9575 385.799 99.9575H373.078L374.037 100.403C374.42 100.594 374.484 100.849 374.228 101.167C371.671 104.542 369.498 107.216 367.644 109.126C367.9 109.317 368.986 110.335 370.84 112.054C373.27 109.953 375.379 107.661 377.105 105.115C378.128 103.396 379.598 102.95 381.452 103.714C383.626 104.542 384.009 106.006 382.667 108.043C377.425 115.238 370.521 120.968 361.827 125.297C359.973 126.125 358.439 125.87 357.288 124.533C355.562 122.559 356.009 121.031 358.63 120.013C360.868 118.994 363.105 117.657 365.407 116.129C363.489 114.219 361.123 112.054 358.311 109.699L358.502 112.054C358.566 112.627 358.375 113.137 358.055 113.582C357.671 114.028 357.224 114.283 356.712 114.41L350.895 115.492V131.918C350.895 133.638 350.703 134.975 350.384 135.93C350.064 136.885 349.425 137.649 348.466 138.158C347.507 138.667 346.42 139.049 345.142 139.24C343.927 139.431 342.712 139.368 341.562 138.922C340.411 138.54 339.644 137.776 339.324 136.63C338.877 135.229 339.005 134.211 339.644 133.574C340.283 132.937 341.434 132.619 343.096 132.682H343.48C344.055 132.682 344.375 132.428 344.375 131.855V116.638C343.224 116.829 342.009 117.02 340.795 117.275C338.749 117.657 337.534 116.829 337.087 114.728C336.895 113.582 336.959 112.691 337.279 112.118C337.662 111.481 338.365 111.099 339.452 110.972C339.836 110.908 341.434 110.654 344.375 110.208V103.523C344.375 103.014 344.566 102.568 344.886 102.25C345.206 101.931 345.653 101.74 346.165 101.74H346.356C347.571 100.276 348.849 98.3022 350.384 95.8192H341.434C339.324 95.8192 338.302 94.7368 338.302 92.6358C338.365 90.5985 339.452 89.5798 341.498 89.5798ZM367.133 99.9575H359.909C358.502 99.9575 357.799 99.2572 357.799 97.9202V96.8379C355.37 100.658 353.133 103.714 350.959 106.006V109.253L357.352 108.171L359.27 105.815C360.356 104.605 361.571 104.478 362.977 105.369L363.105 105.497C364.959 103.205 366.301 101.358 367.133 99.9575ZM359.014 132.046C368.986 127.971 376.338 122.687 381.26 116.256C382.347 114.728 383.754 114.346 385.543 115.174C387.653 116.193 388.037 117.593 386.63 119.503C385.16 121.413 383.114 123.578 380.621 125.997C383.434 128.098 385.863 130.199 388.037 132.364C388.804 133.319 389.123 134.083 388.996 134.72C388.868 135.357 388.356 136.121 387.461 136.948C386.438 137.903 385.544 138.349 384.84 138.349C384.137 138.349 383.306 137.903 382.411 136.948C380.493 134.847 378.128 132.683 375.379 130.263C371.288 133.192 366.877 135.739 362.082 137.84C360.037 138.667 358.439 138.349 357.288 136.757C356.457 135.548 356.137 134.593 356.457 133.829C356.649 133.256 357.543 132.619 359.014 132.046Z" fill="#2A2968"/>
<path d="M398.393 107.725H424.603V104.096C424.603 101.868 425.753 100.722 428.055 100.722C430.356 100.722 431.507 101.868 431.507 104.096V107.725H442.055C444.292 107.725 445.379 108.807 445.379 110.972C445.379 113.137 444.292 114.219 442.055 114.219H431.507V131.6C431.507 133.574 431.251 135.038 430.74 136.057C430.228 137.076 429.333 137.84 428.119 138.285C426.457 138.922 423.963 139.304 420.575 139.368C417.763 139.431 416.1 138.54 415.461 136.63C414.95 135.166 415.142 134.147 415.973 133.51C416.804 132.874 418.082 132.555 419.872 132.619H423.068C423.644 132.619 424.027 132.555 424.283 132.364C424.539 132.173 424.667 131.855 424.667 131.409V114.155H398.457C396.219 114.155 395.132 113.073 395.132 110.908C395.068 108.807 396.219 107.725 398.393 107.725ZM437.005 98.2385H404.274C403.379 98.2385 402.932 98.6842 402.932 99.5755V101.868C402.932 104.16 401.781 105.306 399.479 105.306C397.242 105.306 396.091 104.16 396.091 101.868V95.6282C396.091 94.5458 396.411 93.6545 397.114 92.9542C397.753 92.2538 398.648 91.9355 399.799 91.9355H416.548V89.8981C416.548 87.5424 417.763 86.3964 420.128 86.3964C422.493 86.3964 423.644 87.5424 423.644 89.8981V91.9355H440.584C441.671 91.9355 442.566 92.2538 443.269 92.9542C443.909 93.6545 444.292 94.5458 444.292 95.6282V101.677C444.292 104.096 443.078 105.306 440.712 105.306C438.283 105.306 437.069 104.096 437.069 101.677V98.2385H437.005ZM408.11 127.716C406.384 125.17 404.913 123.196 403.571 121.732C402.037 120.013 402.228 118.485 404.21 117.148C405.808 116.193 407.215 116.32 408.429 117.593C410.667 119.949 412.521 122.241 414.119 124.66C414.63 125.615 414.758 126.316 414.566 126.952C414.374 127.525 413.799 128.162 412.904 128.799C411.881 129.563 410.986 129.817 410.155 129.69C409.452 129.435 408.749 128.799 408.11 127.716Z" fill="#2A2968"/>
<path d="M453.625 95.7555H466.858C468.648 95.7555 469.543 96.6469 469.543 98.4295C469.543 100.212 468.648 101.104 466.858 101.104H453.625C451.835 101.104 450.94 100.212 450.94 98.4295C450.94 96.6469 451.835 95.7555 453.625 95.7555ZM456.758 119.312H464.557C465.644 119.312 466.475 119.631 467.178 120.267C467.817 120.904 468.137 121.795 468.137 122.878V132.682C468.137 133.765 467.817 134.656 467.114 135.357C466.475 136.057 465.58 136.375 464.429 136.375H456.758C455.671 136.375 454.776 136.057 454.073 135.357C453.434 134.656 453.05 133.765 453.05 132.682V123.005C453.05 121.923 453.37 121.031 454.073 120.331C454.712 119.631 455.607 119.312 456.758 119.312ZM500.612 119.822H477.47C476.383 119.822 475.488 119.503 474.785 118.803C474.146 118.103 473.762 117.211 473.762 116.129V107.916L472.739 108.935C472.292 109.38 471.845 109.444 471.461 109.062C470.438 108.234 469.351 107.279 468.137 106.324V107.789C468.137 108.489 467.753 108.871 467.05 108.871H455.799C454.073 108.871 453.242 107.98 453.242 106.261C453.242 104.542 454.073 103.714 455.799 103.714H466.091C467.497 103.714 468.201 104.414 468.201 105.815V106.006C470.822 103.714 472.995 100.785 474.721 97.1562C475.169 96.0102 476 95.6282 477.278 96.0738V94.1638H472.612C471.013 94.1638 470.246 93.3362 470.246 91.7445C470.246 90.1528 471.013 89.3888 472.612 89.3888H477.278V89.1341C477.278 87.3514 478.301 86.3964 480.283 86.3964C482.265 86.3964 483.287 87.2878 483.287 89.1341V89.2614H489.872V89.1341C489.872 87.3514 490.895 86.3964 492.94 86.3964C494.922 86.3964 495.881 87.2878 495.881 89.1341V89.2614H500.42C502.018 89.2614 502.785 90.0255 502.785 91.6171C502.785 93.2725 502.018 94.0365 500.42 94.0365H495.881V95.5645C495.881 96.3285 495.497 96.7105 494.666 96.7105H493.004C492.429 97.7292 491.918 98.6842 491.47 99.5119H499.397C500.74 99.5119 501.443 100.212 501.443 101.549C501.443 102.95 500.74 103.65 499.397 103.65H491.278V105.369H498.63C499.717 105.369 500.292 105.879 500.292 106.961C500.292 108.107 499.717 108.68 498.63 108.68H491.278V110.399H498.566C499.717 110.399 500.292 110.972 500.292 112.118C500.292 113.2 499.717 113.773 498.566 113.773H491.278V115.492H500.676C502.082 115.492 502.785 116.193 502.785 117.593C502.721 119.121 502.018 119.822 500.612 119.822ZM465.708 116.447H455.735C454.073 116.447 453.242 115.62 453.242 113.901C453.242 112.245 454.073 111.418 455.735 111.418H465.708C467.37 111.418 468.201 112.245 468.201 113.901C468.201 115.62 467.37 116.447 465.708 116.447ZM456.118 88.1154H465.452C467.178 88.1154 468.009 88.9431 468.009 90.6621C468.009 92.3811 467.178 93.2725 465.452 93.2725H456.118C454.392 93.2725 453.561 92.3811 453.561 90.6621C453.561 88.9431 454.392 88.1154 456.118 88.1154ZM462.767 129.69V125.87C462.767 124.979 462.319 124.533 461.361 124.533H459.634C458.676 124.533 458.228 124.979 458.228 125.87V129.69C458.228 130.645 458.676 131.091 459.634 131.091H461.361C462.255 131.091 462.767 130.645 462.767 129.69ZM473.379 121.477H497.032C498.374 121.477 499.269 121.859 499.717 122.623C500.1 123.387 499.972 124.533 499.269 125.997C497.735 128.417 495.689 130.454 493.132 132.109C495.625 132.746 497.607 133.192 499.077 133.447C500.676 133.638 501.698 134.02 502.082 134.593C502.466 135.166 502.274 136.121 501.443 137.394C500.612 138.667 499.269 139.177 497.543 138.922C493.516 138.222 489.744 137.139 486.228 135.675C482.584 137.139 478.301 138.285 473.507 139.113C471.781 139.304 470.566 138.795 469.863 137.458C469.351 136.375 469.287 135.548 469.671 135.038C470.055 134.529 470.886 134.211 472.164 134.02C474.529 133.638 477.15 133.065 480.027 132.301C478.749 131.345 477.726 130.645 477.087 130.008C476.383 129.308 476.128 128.671 476.255 128.035C476.383 127.398 476.959 126.952 477.854 126.634L478.749 126.316H473.315C471.717 126.316 470.95 125.488 470.95 123.896C471.013 122.305 471.781 121.477 473.379 121.477ZM485.525 99.5119C486.164 98.0475 486.548 97.0288 486.74 96.3922C486.867 95.8828 487.187 95.6918 487.698 95.7555L489.872 96.0738V93.9728H483.287V95.5008C483.287 96.2648 482.904 96.6469 482.073 96.6469H480.411L480.603 96.7105C480.539 96.8378 480.347 97.2835 480.091 97.9202C479.835 98.5569 479.58 99.0662 479.452 99.4482H485.525V99.5119ZM479.644 105.433H485.333V103.714H479.644V105.433ZM479.644 110.463H485.333V108.744H479.644V110.463ZM480.347 115.556H485.333V113.837H479.644V114.919C479.644 115.365 479.899 115.556 480.347 115.556ZM492.109 126.316H480.794C482.265 127.589 484.182 128.799 486.612 129.881C488.849 128.799 490.703 127.653 492.109 126.316Z" fill="#2A2968"/>
<path d="M529.123 108.935H511.607C509.689 108.935 508.73 107.98 508.73 106.006C508.73 104.096 509.689 103.141 511.607 103.141H527.141V98.3659H516.913C514.931 98.3659 513.972 97.3472 513.972 95.3735C513.972 93.4635 514.931 92.5085 516.913 92.5085H527.141V89.7071C527.141 87.5424 528.228 86.4601 530.466 86.4601C532.703 86.4601 533.79 87.5424 533.79 89.7071V92.5085H543.443C544.274 92.5085 544.913 92.7631 545.361 93.2088C545.808 93.6545 546.064 94.2911 546.064 95.1188V95.3098C547.215 94.1001 548.557 92.5085 550.155 90.4711C551.306 88.9431 552.776 88.6248 554.502 89.4524C556.676 90.5348 556.995 91.9991 555.589 93.9091C553.032 97.1562 550.155 100.212 547.023 103.141H557.187C559.105 103.141 560.064 104.096 560.064 106.006C560.064 107.98 559.105 108.935 557.187 108.935H544.338C546 109.508 547.726 110.272 549.644 111.227C550.219 111.545 550.475 111.991 550.475 112.564C550.475 113.137 550.219 113.646 549.708 114.155H551.689C552.201 114.155 552.584 114.283 552.84 114.601C553.16 114.919 553.288 115.301 553.288 115.747V134.019C553.288 135.102 552.968 135.993 552.265 136.694C551.562 137.33 550.667 137.712 549.58 137.712H523.881C522.794 137.712 521.835 137.394 521.196 136.694C520.493 136.057 520.173 135.166 520.173 134.019V120.84C517.297 122.114 515.379 123.005 514.356 123.387C512.374 124.151 510.84 123.705 509.817 122.177C508.219 120.013 508.858 118.421 511.671 117.466C517.808 115.174 523.689 112.309 529.123 108.935ZM526.694 123.196H546.128V121.031C546.128 120.14 545.68 119.694 544.721 119.694H526.694V123.196ZM546.128 128.353H526.694V130.709C526.694 131.664 527.141 132.109 528.036 132.109H544.721C545.616 132.109 546.128 131.664 546.128 130.709V128.353ZM532.383 114.155H545.552C545.041 113.901 544.018 113.391 542.42 112.691C541.525 112.373 541.014 111.863 540.886 111.29C540.758 110.654 541.014 110.017 541.717 109.317L542.1 108.935H539.927C538.009 110.399 535.516 112.182 532.383 114.155ZM542.995 98.3022H533.79V103.077H537.434C539.863 101.167 541.717 99.5755 542.995 98.3022Z" fill="#2A2968"/>
<path d="M85.6619 28.6502H69.2326L69.4244 28.7139C68.8491 29.4142 67.8902 30.5602 66.6116 32.1519C65.3331 33.7436 64.3742 34.8896 63.7988 35.59C63.9906 35.781 64.3742 36.0993 64.7578 36.545C65.2052 36.927 65.4609 37.2453 65.6527 37.4363C66.0363 36.9906 66.8673 35.8446 68.2737 33.9983C69.2326 32.5976 70.4472 32.2156 72.0454 32.9159C74.155 33.8073 74.4746 35.1443 72.9404 36.9906C69.8719 40.365 67.187 43.1664 64.7578 45.4584L69.9998 45.14L69.9358 45.0764V45.0127C69.4883 44.376 69.3605 43.803 69.5523 43.23C69.7441 42.657 70.1915 42.275 71.0226 41.9567C72.3651 41.3837 73.4518 41.6383 74.2829 42.5934C76.0089 44.8217 77.2235 46.7954 77.8628 48.6417C77.9267 48.8327 77.9267 49.0237 77.7349 49.2784C77.6071 49.5331 77.3514 49.6604 77.0956 49.7241C79.0135 50.9974 80.6756 52.3344 82.0819 53.6078C82.7851 54.3718 83.1048 55.0085 83.0409 55.5178C82.9769 56.0908 82.5294 56.7275 81.6984 57.4278C80.1002 58.7648 78.6938 58.7648 77.4792 57.3005C75.881 55.8361 74.5386 54.6901 73.3879 53.8625V60.5475C73.3879 61.3115 73.5797 61.8209 73.8993 62.0119C74.2829 62.2029 75.05 62.2665 76.3925 62.2665H83.9998C84.639 62.2665 85.0865 62.2029 85.4062 62.0755C86.2372 58.7012 87.8993 57.4915 90.3925 58.3828C91.9267 59.0195 92.502 60.7385 91.9906 63.6672C91.4792 65.4499 90.6482 66.6596 89.5614 67.2962C88.4747 67.9329 86.8125 68.2512 84.703 68.2512H75.6253C72.1094 68.2512 69.7441 67.7419 68.5294 66.6596C67.3148 65.5772 66.7395 63.6035 66.7395 60.6112V56.7275C66.7395 55.6451 67.0591 54.8175 67.6984 54.1171C68.3377 53.4805 69.2326 53.1621 70.3194 53.1621H72.6847C72.6208 53.0984 72.5568 53.0348 72.3651 52.9711C72.1733 52.8438 71.9815 52.7801 71.8536 52.6528C71.6619 52.5254 71.534 52.3981 71.4062 52.2708C71.2783 52.1434 71.2144 52.0161 71.2144 51.8251C71.2144 51.6978 71.3422 51.5068 71.534 51.3794L73.0043 50.2971L72.7486 49.6604C71.4062 49.7878 69.6162 49.9151 67.3148 50.1061C65.0774 50.2971 63.0317 50.4244 61.2418 50.5518C59.4518 50.6791 57.8536 50.8064 56.4473 50.9338C55.6162 50.9974 55.0409 50.8064 54.6573 50.4881C54.2737 50.1061 54.018 49.5331 53.9541 48.6417C53.7623 46.7317 54.5294 45.7767 56.3194 45.7767L58.1733 45.6494C59.4518 44.4397 60.7304 43.1027 62.0728 41.5747C60.6025 39.9193 58.9404 38.3277 57.0865 36.8633C55.5523 35.6536 55.5523 34.3166 57.2144 32.7249C58.0454 31.8973 58.9404 31.7699 59.8354 32.4066C59.8993 32.4066 59.8993 32.4066 59.8993 32.4066C59.8993 32.4066 59.8993 32.4066 59.9632 32.4066C61.2418 30.3056 62.0089 29.0322 62.3285 28.5229H55.9998C54.082 28.5229 53.123 27.5679 53.123 25.7215C53.123 23.8115 54.082 22.9202 55.9998 22.9202H65.0135C64.8217 22.5382 64.502 21.9652 64.0546 21.2648C62.7121 19.3548 63.1596 17.8905 65.4609 16.8718C66.9952 16.2351 68.2737 16.5535 69.2966 17.8905C70.639 19.6731 71.5979 21.3922 72.1094 22.9202H83.6801C84.5112 21.5195 85.2144 20.2462 85.7258 19.1001C86.6208 16.9355 88.155 16.1715 90.3285 16.6808C93.2052 17.3175 93.7167 19.0365 91.7989 21.6468C91.671 21.7742 91.4792 21.9652 91.2874 22.2835C91.0317 22.6018 90.8399 22.7928 90.776 22.9202H100.429C102.347 22.9202 103.306 23.8752 103.306 25.7215C103.306 27.6316 102.347 28.5229 100.429 28.5229H92.6938L92.8856 28.5866C90.4564 31.6426 88.6025 33.8709 87.324 35.399C88.0272 35.972 88.7304 36.6086 89.3696 37.309C90.5842 35.781 91.4792 34.5713 92.1185 33.6799C93.0774 32.2793 94.292 31.8973 95.8902 32.5976C97.9998 33.4889 98.3194 34.826 96.7851 36.6086C93.8445 39.8557 91.0957 42.7207 88.6025 45.14L95.3788 44.8854C95.3788 44.8217 95.3788 44.8217 95.3148 44.8217L95.2509 44.6944C94.0363 43.1027 94.3559 41.893 96.3377 41.0653C97.6162 40.556 98.703 40.8107 99.5979 41.893C101.324 44.1214 102.539 46.1587 103.242 47.8777C103.689 49.2784 103.05 50.2971 101.388 50.9974C99.5979 51.6978 98.5112 51.2521 98.0637 49.7241C98.0637 49.6604 98.0637 49.6604 98.0637 49.6604C98.0637 49.6604 98.0637 49.6604 98.0637 49.5968C96.0819 49.7241 93.2052 49.9151 89.4975 50.1061C85.7258 50.2971 83.1048 50.4881 81.5066 50.5518C80.6756 50.6154 80.0363 50.4244 79.6527 50.0424C79.2692 49.6604 79.0135 49.0237 78.9495 48.1324C78.7578 46.2224 79.5888 45.2674 81.4427 45.2674H82.018C83.1048 44.2487 84.3833 42.9754 85.7258 41.4473C84.3833 39.983 82.5934 38.3913 80.3559 36.6086C78.8217 35.399 78.8217 34.1256 80.292 32.5976C81.3148 31.5789 82.2737 31.4516 83.2966 32.2156C83.3605 32.2156 83.3605 32.2156 83.3605 32.2156C83.3605 32.2156 83.3605 32.2156 83.4244 32.2156C84.4472 30.6876 85.2783 29.4142 85.6619 28.6502ZM64.1824 58.1918C62.9678 61.2479 61.3696 63.8582 59.324 66.0229C57.9176 67.1052 56.5112 67.2326 55.1048 66.2139C52.8673 64.6859 52.7395 62.9669 54.7851 61.1842C56.1276 59.6562 57.2783 58.0008 58.0454 56.2181C58.8125 54.1808 60.2189 53.5441 62.2646 54.2445C64.1824 54.8811 64.8217 56.2181 64.1824 58.1918ZM100.301 57.8735C100.94 58.6375 101.835 59.7835 102.986 61.3115C103.945 63.0305 103.497 64.4312 101.644 65.4499C100.621 66.0866 99.7258 66.3412 98.9587 66.2139C98.1915 66.0866 97.5523 65.5136 96.9769 64.4949C95.5705 62.3302 93.9084 60.2292 91.9906 58.1282C90.2007 56.3455 90.3285 54.7538 92.4381 53.5441C93.9084 52.7801 95.187 52.9074 96.4016 53.8625C97.6801 55.0085 98.9587 56.3455 100.301 57.8735Z" fill="#2A2968"/>
<path d="M151.251 34.1893H137.251C137.443 34.3167 137.762 34.5077 138.21 34.7623C138.657 35.017 138.977 35.208 139.169 35.3353C140.447 36.2267 140.511 37.309 139.361 38.5824C138.274 39.8557 137.123 39.9831 135.972 39.0917C134.246 37.882 132.584 36.9907 131.114 36.2904C130.091 35.7173 130.027 35.017 130.922 34.1893H118.712C117.817 34.1893 117.37 34.635 117.37 35.59V36.2267C117.37 38.3914 116.283 39.4737 114.109 39.4737C112 39.4737 110.913 38.3914 110.913 36.2267V32.4703C110.913 31.4516 111.233 30.624 111.808 29.9873C112.383 29.3506 113.214 29.0323 114.301 29.0323H120.63C120.119 27.8863 119.224 26.3583 118.009 24.5119C117.817 24.1936 117.945 24.0026 118.329 23.8752C118.073 23.8752 117.689 23.8752 117.242 23.8752C116.73 23.8752 116.411 23.8752 116.155 23.8752C114.621 23.9389 113.598 23.2386 113.278 21.8379C113.023 20.8192 113.087 20.1189 113.534 19.6732C113.982 19.2275 114.749 19.0365 115.835 18.9729C131.242 18.4635 142.813 17.5085 150.612 16.1078C151.635 15.9168 152.53 16.2352 153.425 17.1902C155.406 19.2912 155.087 20.5645 152.338 21.0102L149.141 21.5196L151.89 22.3472C153.488 22.8566 153.808 23.8116 152.849 25.2123C152.082 26.2309 151.187 27.5043 150.036 28.905H155.47C156.557 28.905 157.452 29.2233 158.155 29.9236C158.794 30.624 159.178 31.5153 159.178 32.5977V36.2904C159.178 37.3727 158.858 38.3277 158.155 38.9644C157.516 39.6647 156.621 39.9831 155.47 39.9831H153.744C154.639 40.8744 155.278 41.5111 155.662 41.9567C156.301 42.7844 156.557 43.4211 156.429 43.9941C156.301 44.5034 155.854 45.1401 155.023 45.7131C154.192 46.4134 153.425 46.7318 152.785 46.7318C152.146 46.6681 151.507 46.2224 150.867 45.3948C149.653 43.9304 148.246 42.4661 146.52 40.8744C144.73 39.41 144.73 38.0094 146.584 36.7997C147.799 35.972 148.95 36.0357 150.1 36.8634C150.292 37.0544 150.676 37.3727 151.187 37.7547C151.698 38.2004 152.146 38.5187 152.466 38.7734V35.399C152.593 34.6987 152.146 34.1893 151.251 34.1893ZM132.904 49.3421H146.904C148.246 49.3421 149.141 49.7241 149.589 50.5518C149.972 51.3158 149.845 52.5255 149.077 54.1172C147.479 56.6002 145.242 58.7649 142.429 60.5476C146.648 61.5662 151.059 62.2029 155.598 62.5849C159.242 62.8396 160.201 64.3039 158.475 66.9143C157.644 68.315 156.173 68.9516 154.128 68.7606C146.648 67.8693 140.256 66.3413 135.014 64.2403C129.835 66.3413 123.507 67.8056 116.091 68.7606C114.173 68.9516 112.831 68.3786 112 67.0416C110.53 64.6859 111.361 63.4126 114.621 63.1579C119.16 62.6486 123.698 61.8209 128.237 60.6749C126.256 59.4016 124.593 58.0645 123.187 56.6639C120.886 57.9372 119.16 58.7649 117.945 59.2742C116.411 59.9109 115.068 59.7199 113.982 58.6376C112 56.7275 112.511 55.1995 115.516 54.1172C120.886 51.9525 125.105 49.3421 128.173 46.1588C126.959 45.8404 126.192 45.2038 125.744 44.3761C125.297 43.4847 125.105 42.2114 125.105 40.5561V39.7284C125.105 37.6274 126.128 36.6087 128.173 36.6087C130.219 36.6087 131.242 37.6274 131.242 39.7284V40.5561C131.242 41.1927 131.37 41.5747 131.625 41.7657C131.881 41.9567 132.52 42.0204 133.479 42.0204H139.552C140.831 40.3014 142.365 39.7284 144.283 40.3014C145.753 40.8107 146.201 42.0841 145.625 44.3124C144.794 45.9041 143.004 46.6681 140.192 46.6681H135.014L135.333 46.7954C134.374 47.8141 133.607 48.6418 132.904 49.3421ZM123.571 41.2564C122.356 43.5484 120.886 45.4584 119.096 47.0501C117.817 48.0051 116.539 48.0051 115.388 47.0501C113.47 45.5221 113.598 43.9941 115.58 42.5297C116.794 41.3201 117.753 40.1104 118.456 38.9644C119.288 37.4364 120.566 36.9907 122.228 37.7547C123.954 38.455 124.402 39.601 123.571 41.2564ZM132.84 29.0323C132.329 27.0586 131.498 25.2123 130.283 23.3659C129.644 23.4296 128.685 23.4296 127.47 23.5569C126.192 23.6206 125.233 23.6842 124.593 23.7479C125.169 24.5756 125.808 25.6579 126.511 26.9949C126.639 27.3769 126.639 27.8226 126.383 28.2683C126.192 28.714 125.808 28.9686 125.297 29.096H132.84V29.0323ZM141.598 53.9898H128.046C129.835 55.5179 132.201 56.9185 135.141 58.1282C137.698 56.9185 139.808 55.5179 141.598 53.9898ZM147.479 21.8379C144.027 22.2836 140.383 22.6656 136.612 22.9839C138.593 26.1036 138.53 28.0136 136.484 28.7776L135.845 28.9686H143.644C145.05 26.8676 146.329 24.4482 147.479 21.8379Z" fill="#2A2968"/>
<path d="M205.909 28.7139H214.667C215.626 28.7139 216.265 29.0959 216.712 29.8599C217.16 30.6239 217.352 32.0246 217.288 34.1256C217.032 45.2674 216.712 53.0985 216.329 57.4915C215.945 61.8845 215.37 64.6859 214.475 65.8956C213.58 67.1689 212.621 67.9329 211.598 68.3149C210.575 68.6969 208.977 68.8879 206.74 69.0153C205.525 68.9516 204.566 68.6969 203.799 68.1239C203.032 67.5509 202.585 66.7869 202.393 65.7682C202.393 65.7046 202.393 65.7046 202.393 65.6409C202.393 65.5772 202.393 65.5772 202.393 65.5136C202.009 64.5586 202.009 63.7945 202.393 63.3489C202.776 62.8395 203.607 62.6485 204.822 62.7122C205.333 62.7759 205.973 62.7759 206.74 62.7759C207.571 62.7759 208.274 62.4575 208.658 61.8209C209.744 60.3565 210.448 52.3344 210.703 37.7546C210.767 36.6723 210.639 35.972 210.448 35.59C210.256 35.208 209.872 35.017 209.361 35.017H205.653C205.269 42.4024 204.374 48.7054 202.84 53.8625C201.37 59.0195 198.941 63.3489 195.553 66.9142C194.722 67.6782 193.827 68.0603 192.868 67.9966C191.909 67.9329 191.078 67.4236 190.311 66.4686C189.927 65.9592 189.416 65.5136 188.84 64.9406C177.014 66.1502 170.365 66.7869 168.767 66.9142C167.872 66.9779 167.233 66.8506 166.849 66.4686C166.466 66.0866 166.21 65.3862 166.082 64.4312C165.954 63.4125 166.018 62.6485 166.338 62.1392C166.658 61.6299 167.297 61.3752 168.32 61.3115C168.384 61.3115 171.324 61.1205 177.206 60.6749V57.2368H169.662C168.064 57.2368 167.297 56.4728 167.297 54.8811C167.297 53.2894 168.064 52.5254 169.662 52.5254H177.206V50.2971H171.132C170.046 50.2971 169.151 49.9788 168.448 49.2784C167.808 48.6417 167.425 47.7504 167.425 46.6044V36.4176C167.425 35.3353 167.744 34.444 168.448 33.7436C169.087 33.1069 169.982 32.7249 171.132 32.7249H177.206V30.4966H168.511C166.849 30.4966 166.082 29.6689 166.082 28.0772C166.082 26.4219 166.913 25.6579 168.511 25.6579H177.206V23.3659C173.817 23.5569 171.388 23.7479 169.854 23.7479C168.32 23.8115 167.361 23.1112 166.977 21.7742C166.466 19.9915 167.233 18.9728 169.343 18.9091C176.63 18.3998 183.087 17.6995 188.648 16.6808C189.416 16.5535 189.991 16.6171 190.438 16.8718C190.886 17.1265 191.333 17.6358 191.717 18.3361C192.932 20.3098 192.42 21.5832 190.183 21.9652C187.626 22.3472 185.324 22.6655 183.279 22.9202V25.7215H191.206C192.164 25.7215 192.868 25.9762 193.379 26.4855C193.89 26.9949 194.146 27.6952 194.146 28.6502V28.8412H199.452C199.516 27.0586 199.516 24.1935 199.516 20.2462C199.516 18.0815 200.603 16.9991 202.776 16.9991C204.95 16.9991 206.037 18.0815 206.037 20.2462C206.037 22.2198 205.973 25.0849 205.909 28.7139ZM177.269 36.9906H173.69C173.114 36.9906 172.795 37.309 172.795 37.882V39.4737H177.269V36.9906ZM177.269 43.4847H172.795V45.0127C172.795 45.713 173.178 46.0951 173.881 46.0951H177.269V43.4847ZM194.21 30.4966H183.343V32.7249H189.607C190.694 32.7249 191.589 33.0433 192.292 33.7436C192.995 34.3803 193.315 35.2716 193.315 36.4176V46.6044C193.315 47.6867 192.995 48.5781 192.292 49.2784C191.589 49.9151 190.694 50.2971 189.607 50.2971H183.343V52.5254H191.206C192.804 52.5254 193.571 53.2894 193.571 54.8811C193.571 56.4728 192.804 57.2368 191.206 57.2368H183.343V60.1018C185.708 59.9745 188.968 59.7198 193.123 59.3378C195.233 56.4091 196.703 52.9711 197.598 49.0874C198.493 45.14 199.069 40.4287 199.324 34.9533H196.575C194.977 34.9533 194.21 34.1893 194.21 32.5976V30.4966ZM186.667 36.9906H183.343V39.4737H187.753V38.0093C187.753 37.309 187.37 36.9906 186.667 36.9906ZM183.343 46.0314H186.858C187.434 46.0314 187.753 45.7131 187.753 45.14V43.4847H183.343V46.0314Z" fill="#2A2968"/>
<path d="M238.895 48.8327V65.9592C238.895 67.9966 237.872 69.0153 235.762 69.0153C233.717 69.0153 232.694 67.9966 232.694 65.9592V50.6791C231.991 50.8701 231.032 51.1248 229.881 51.5704C228.667 51.9524 227.835 52.2071 227.324 52.3981C225.214 52.9711 223.936 52.1434 223.424 50.0424C223.169 48.9601 223.169 48.0687 223.488 47.4321C223.808 46.7954 224.511 46.4134 225.534 46.1587C228.603 45.3947 231.032 44.758 232.694 44.2487V33.2979H228.922C228.539 34.9533 228.219 36.354 227.835 37.5637C227.452 38.646 227.004 39.2827 226.365 39.4737C225.79 39.6647 225.023 39.41 224 38.7733C223.233 38.3277 222.785 37.882 222.593 37.4363C222.402 36.9906 222.466 36.354 222.721 35.5263C223.744 31.8336 224.447 27.4406 224.959 22.4109C225.151 20.3098 226.173 19.4185 228.155 19.7368C229.945 19.9915 230.712 21.0102 230.52 22.8565C230.329 24.3845 230.137 25.7215 229.945 26.9312H232.63V19.1002C232.63 17.0628 233.653 16.0441 235.698 16.0441C237.808 16.0441 238.831 17.0628 238.831 19.1002V26.9312H240.301C242.475 26.9312 243.561 28.0136 243.561 30.1783C243.561 32.3429 242.475 33.4253 240.301 33.4253H238.831V42.5934L240.877 42.0204C242.986 41.4474 244.137 42.2114 244.52 44.376C244.776 46.1587 244.009 47.3684 242.219 47.8777C241.835 48.0051 241.26 48.1961 240.493 48.4507C239.79 48.5781 239.214 48.7691 238.895 48.8327ZM254.045 24.7029H271.498C272.712 24.7029 273.671 25.2759 274.246 26.3582C274.886 27.4406 275.077 29.3506 275.014 32.1519C274.502 43.3574 273.991 51.3794 273.351 56.1545C272.712 60.9295 271.945 63.9855 270.922 65.2589C270.027 66.5322 269.068 67.4236 268.045 67.8056C267.023 68.1876 265.552 68.4423 263.571 68.4423C261.269 68.3786 259.863 67.4873 259.415 65.7682C259.032 64.3039 259.096 63.3489 259.735 62.7759C260.374 62.2029 261.525 61.9482 263.123 62.0119H263.315C264.146 62.0119 264.849 61.6299 265.424 60.9295C266.895 59.1468 267.982 49.1511 268.749 31.0059H268.493C267.151 38.1367 265.105 44.758 262.484 50.8701C259.863 57.0458 256.667 62.0119 252.895 65.7682C252.128 66.4686 251.424 66.8506 250.721 66.8506C250.082 66.9142 249.315 66.5959 248.484 65.9592C247.333 65.1316 246.758 64.3039 246.758 63.6035C246.758 62.9032 247.269 62.0755 248.42 61.1205C251.872 57.8098 254.813 53.4805 257.242 48.1961C259.671 42.9117 261.589 37.1816 262.867 30.9423H260.182C258.968 35.2716 257.434 39.4737 255.516 43.5484C253.598 47.6231 251.488 51.0611 249.187 53.7988C248.42 54.5628 247.781 55.0085 247.141 55.0721C246.502 55.1358 245.799 54.8175 244.968 54.1808C243.881 53.3531 243.37 52.6528 243.306 52.0161C243.306 51.3794 243.753 50.6154 244.712 49.6604C248.803 45.2037 252.128 38.9643 254.557 31.0059H251.744C250.402 34.062 249.059 36.6086 247.781 38.5187C247.141 39.4737 246.438 40.0467 245.799 40.1103C245.16 40.2377 244.329 39.9193 243.434 39.2827C242.475 38.5187 241.899 37.882 241.835 37.1816C241.708 36.545 242.027 35.781 242.794 34.826C245.479 30.8786 247.717 25.6579 249.379 19.1002C249.89 16.9355 251.105 16.0441 253.151 16.4261C255.196 16.8081 255.963 18.0178 255.516 20.0552C255.388 20.6282 255.132 21.4558 254.813 22.5382C254.429 23.6205 254.173 24.3845 254.045 24.7029Z" fill="#2A2968"/>
<path d="M326.603 23.1112C326.986 23.1112 327.242 23.0475 327.37 22.9839C327.498 22.9202 327.626 22.7292 327.69 22.3472V22.2835C327.754 21.6469 328.009 21.2649 328.457 21.1375C328.904 21.0102 329.416 21.0739 329.927 21.3285C330.694 21.7105 331.142 22.3472 331.397 23.2386C331.653 24.0662 331.525 24.8939 331.078 25.6579C330.311 26.8039 328.968 27.3769 326.923 27.3769H324.557C323.023 27.3769 321.808 26.9949 321.041 26.2309C320.53 25.7216 320.274 24.8939 320.082 23.7479C320.018 22.4109 319.571 21.7742 318.612 21.7742H314.968C314.776 23.7479 313.945 25.4669 312.539 26.9312C311.708 27.6316 311.708 28.0136 312.667 28.0136H324.302C325.58 28.0136 326.475 28.3956 326.923 29.1596C327.37 29.9236 327.306 31.006 326.731 32.4066C325.9 34.062 324.621 35.5263 322.895 36.927C324.174 37.309 325.708 37.691 327.37 38.0093C328.776 38.2003 329.671 38.646 330.055 39.4737C330.439 40.2377 330.183 41.1927 329.416 42.2751C329.352 42.4024 329.288 42.5297 329.224 42.7207C329.096 42.9117 329.032 43.0391 328.968 43.1664H329.16C330.566 43.1664 331.27 43.8667 331.27 45.3311C331.27 46.7954 330.566 47.4958 329.16 47.4958H313.562V49.3421H324.749C325.836 49.3421 326.731 49.6604 327.434 50.3608C328.073 50.9975 328.457 51.8888 328.457 53.0348V64.2402C328.457 65.3226 328.137 66.2139 327.434 66.9143C326.795 67.6146 325.9 67.9329 324.749 67.9329H288.439C287.352 67.9329 286.457 67.6146 285.754 66.9143C285.114 66.2139 284.731 65.3226 284.731 64.2402V52.9711C284.731 51.8888 285.05 50.9975 285.754 50.2971C286.393 49.6604 287.288 49.2785 288.439 49.2785H298.603V47.4321H284.091C282.621 47.4321 281.918 46.7318 281.918 45.2674C281.918 43.8031 282.621 43.1027 284.091 43.1027H327.114C323.598 42.4661 320.53 41.4474 317.845 40.1104C316.119 40.8744 314.457 41.4474 312.859 41.8931C310.621 42.4024 308.895 41.702 307.872 39.7284C307.808 39.601 307.553 39.2827 307.105 38.7097V40.2377C307.105 41.0017 306.722 41.3837 305.955 41.3837H287.096C286.009 41.3837 285.05 41.0654 284.411 40.365C283.708 39.7284 283.388 38.837 283.388 37.691V21.5195C283.388 20.4372 283.708 19.4822 284.411 18.8455C285.114 18.1452 286.009 17.8268 287.096 17.8268H304.804C306.082 17.8268 306.722 18.4635 306.722 19.7369C306.722 21.0102 306.082 21.6469 304.804 21.6469H294.639L295.534 21.8379C295.854 21.9015 296.046 22.0289 295.982 22.3472C295.918 22.6655 295.854 22.9202 295.79 23.1749C295.662 23.3659 295.79 23.5569 296.174 23.5569H303.397C304.42 23.5569 304.932 24.0662 304.932 25.0849C304.932 26.1036 304.42 26.6129 303.397 26.6129H299.881V28.3319H304.356C305.443 28.3319 305.955 28.8413 305.955 29.9236C305.955 31.006 305.443 31.5153 304.356 31.5153H300.84C301.671 32.0246 302.63 32.6613 303.717 33.4253C304.292 33.8073 304.548 34.3803 304.612 35.0807C304.676 35.781 304.42 36.4177 303.845 37.118L303.333 37.691H306.338C306.913 37.691 307.169 37.9457 307.169 38.5187V38.7097C309.279 38.3914 311.388 37.882 313.498 37.1817C312.859 36.6087 312.091 35.9083 311.324 34.9533C310.813 34.253 310.685 33.6163 310.877 33.107C311.069 32.5976 311.516 32.2156 312.347 32.0246L313.114 31.8336H310.749C309.407 31.8336 308.703 31.197 308.703 29.8599V29.0959C308.32 28.5229 307.681 27.8226 306.849 26.9312C305.763 26.0399 306.274 25.0212 308.32 24.0026C309.598 23.0475 310.238 21.7742 310.238 20.2462V18.6545C310.238 17.8268 310.621 17.3812 311.452 17.3812H321.681C322.767 17.3812 323.662 17.6995 324.365 18.3998C325.069 19.1002 325.388 19.9915 325.388 21.0739V21.7105V22.0289V22.2835V22.5382C325.388 22.6655 325.388 22.7292 325.388 22.7292C325.388 22.7929 325.452 22.7929 325.452 22.9202C325.452 22.9839 325.516 23.0475 325.58 23.0475C325.644 23.0475 325.708 23.1112 325.772 23.1112C325.836 23.1112 325.9 23.1112 325.964 23.1112H326.603ZM288.183 22.9839V36.2903C288.183 37.2453 288.63 37.691 289.589 37.691H291.507C291.123 37.118 290.676 36.6087 290.165 36.0993C289.333 35.3353 289.653 34.6987 291.187 34.1893C292.849 33.5526 294 32.6613 294.831 31.579H290.676C289.653 31.579 289.142 31.0696 289.142 29.9873C289.142 28.9049 289.653 28.3956 290.676 28.3956H291.955C291.443 28.0136 290.804 27.6316 290.101 27.3133C289.142 26.8039 289.014 26.1036 289.845 25.2759C290.868 24.0662 291.571 22.9202 292.082 21.7105H289.717C288.63 21.6469 288.183 22.0925 288.183 22.9839ZM292.913 56.0272C295.726 55.1995 297.452 54.1172 298.028 52.7801H292.018C291.06 52.7801 290.612 53.2258 290.612 54.1808V59.5289H293.425C293.105 59.0195 292.658 58.4465 292.018 57.7462C291.123 56.8548 291.379 56.2818 292.913 56.0272ZM321.936 62.7759H290.612V63.7946C290.612 64.1766 290.804 64.3676 291.251 64.3676H320.594C321.553 64.3676 322 63.9219 322 63.0306V62.7759H321.936ZM293.361 26.6129C293.233 26.8039 292.977 27.0586 292.658 27.5043C292.338 27.8863 292.082 28.2046 291.955 28.3956H295.47V26.6766H293.361V26.6129ZM292.338 37.6273H301.48C302.375 37.6273 302.566 37.3727 301.991 36.927C300.393 35.6537 299.05 34.635 297.9 33.9346C296.749 35.399 294.895 36.6723 292.338 37.6273ZM295.726 59.5289H321.936V57.9372H314.393C311.9 57.9372 310.174 57.6825 309.407 57.1095C308.576 56.5365 308.192 55.3268 308.192 53.5442V52.9075H303.333C302.63 55.8362 300.137 58.0645 295.726 59.5289ZM303.525 49.2785H308.192V47.4321H303.525V49.2785ZM313.37 53.4805C313.37 54.1172 313.498 54.4992 313.69 54.6265C313.881 54.7538 314.393 54.8175 315.096 54.8175H320.466C321.361 54.8175 321.808 54.6902 321.936 54.4992H322V53.4805C322 52.9711 321.744 52.7801 321.297 52.7801H313.434V53.4805H313.37ZM318.037 34.7623C319.123 34.062 320.21 33.107 321.297 31.8336H314.712C315.735 33.0433 316.822 33.9983 318.037 34.7623Z" fill="#2A2968"/>
<path d="M347.635 50.4244C348.594 50.3608 349.233 50.0424 349.552 49.5331C349.872 49.0237 350 48.0687 350 46.7954C350 44.185 349.297 41.7657 347.954 39.41C346.74 37.691 346.42 36.163 346.868 34.6986C347.826 31.1969 348.657 27.8226 349.361 24.4482H346.356C345.397 24.4482 344.95 24.8939 344.95 25.8489V66.1502C344.95 68.0602 343.991 69.0153 342.073 69.0153C340.155 69.0153 339.196 68.0602 339.196 66.1502V22.0925C339.196 21.0102 339.516 20.1188 340.219 19.4185C340.858 18.7818 341.753 18.3998 342.904 18.3998H352.685C353.963 18.3998 354.858 18.7818 355.434 19.6095C356.009 20.3735 356.137 21.5832 355.817 23.0475C354.539 28.3319 353.196 32.6613 351.918 36.0993C354.667 39.6647 356.009 43.4847 356.009 47.4957C356.009 50.2334 355.562 52.2708 354.731 53.5441C353.9 54.8175 352.365 55.6451 350.256 55.9635C350.192 55.9635 350.064 55.9635 349.936 55.9635C349.808 55.9635 349.68 55.9635 349.616 55.9635C348.658 56.0271 347.89 55.7088 347.251 55.1358C346.612 54.5628 346.164 53.7988 345.909 52.8438C345.717 52.0161 345.781 51.3794 346.036 50.9338C346.292 50.4881 346.804 50.2334 347.571 50.2971H347.635V50.4244ZM360.292 42.4023H385.607C387.653 42.4023 388.676 43.421 388.676 45.3947C388.676 47.3684 387.653 48.3871 385.607 48.3871H380.237V60.6748C380.237 61.5025 380.301 62.0119 380.429 62.2029C380.557 62.3939 380.813 62.4575 381.196 62.4575H383.05C383.37 62.4575 383.626 62.2665 383.753 61.8845C383.881 60.2292 384.265 58.8922 384.904 57.9372C385.543 56.9821 386.438 56.7911 387.589 57.3005C388.356 57.6188 388.804 58.3828 389.059 59.4652C389.315 60.6112 389.315 61.6935 389.187 62.8395C388.804 64.9405 388.228 66.3412 387.397 67.1689C386.566 67.9966 385.352 68.3786 383.753 68.3786H379.982C377.616 68.3786 376.018 67.8056 375.251 66.7232C374.484 65.6409 374.036 63.6035 374.036 60.6748V48.3871H369.881C369.562 53.2894 368.731 57.1731 367.26 60.1655C365.79 63.0942 363.233 65.5136 359.525 67.3599C356.968 68.3786 355.242 68.1876 354.283 66.7232C352.941 64.6859 353.9 62.9669 357.288 61.5025C359.461 60.1655 360.995 58.5102 361.826 56.4728C362.657 54.4355 363.233 51.7614 363.489 48.3871H360.292C358.247 48.3871 357.224 47.3684 357.224 45.3947C357.224 43.421 358.247 42.4023 360.292 42.4023ZM382.283 38.3276H364.256C363.169 38.3276 362.274 38.0093 361.571 37.309C360.931 36.6723 360.548 35.781 360.548 34.6349V33.2979H358.247C357.671 33.2979 357.224 33.1069 356.904 32.7886C356.52 32.4066 356.393 31.9609 356.393 31.4516V25.8489C356.393 24.7665 356.712 23.8752 357.415 23.1748C358.119 22.4745 359.014 22.1562 360.1 22.1562H368.922V19.4185C368.922 17.2538 370.009 16.1714 372.183 16.1714C374.356 16.1714 375.443 17.2538 375.443 19.4185V22.1562H385.16C386.247 22.1562 387.142 22.4745 387.845 23.1748C388.548 23.8752 388.868 24.7665 388.868 25.8489V29.5416C388.868 30.6239 388.548 31.5789 387.845 32.2156C387.142 32.9159 386.247 33.2343 385.16 33.2343H384.521V35.972C384.521 36.736 384.329 37.309 383.881 37.691C383.562 38.1366 382.986 38.3276 382.283 38.3276ZM362.402 32.5339H382.858V29.2232C382.858 28.3319 382.411 27.8862 381.516 27.8862H363.744C362.849 27.8862 362.402 28.3319 362.402 29.2232V32.5339Z" fill="#2A2968"/>
<path d="M13.8721 150H11.5708C5.17808 150 0 144.843 0 138.476V11.5238C0 5.15705 5.17808 0 11.5708 0H13.8721C20.2648 0 25.4429 5.15705 25.4429 11.5238V138.476C25.4429 144.843 20.2648 150 13.8721 150Z" fill="#2A2968"/>
<path d="M12.7215 88.4338C5.6895 88.4338 0 82.7674 0 75.764V31.7699C0 24.7665 5.6895 19.1002 12.7215 19.1002C19.7534 19.1002 25.4429 24.7665 25.4429 31.7699V75.764C25.4429 82.7674 19.7534 88.4338 12.7215 88.4338Z" fill="#FFF100"/>
</g>
<defs>
<clipPath id="clip0_1085_27480">
<rect width="560" height="150" fill="white"/>
</clipPath>
</defs>
</svg>
